<?xml version="1.0" encoding="UTF-8"?>
<!DOCTYPE svg PUBLIC "-//W3C//DTD SVG 1.1//EN" "http://www.w3.org/Graphics/SVG/1.1/DTD/svg11.dtd">
<svg xmlns="http://www.w3.org/2000/svg" version="1.1" width="512px" height="512px" style="shape-rendering:geometricPrecision; text-rendering:geometricPrecision; image-rendering:optimizeQuality; fill-rule:evenodd; clip-rule:evenodd" xmlns:xlink="http://www.w3.org/1999/xlink">
<g><path style="opacity:0.967" fill="#000000" d="M 511.5,20.5 C 511.5,53.5 511.5,86.5 511.5,119.5C 506.257,123.818 501.424,123.485 497,118.5C 496.667,87.5 496.333,56.5 496,25.5C 495.065,22.8981 493.232,21.3981 490.5,21C 332.778,20.0044 175.111,20.3377 17.5,22C 16.2986,22.9025 15.4652,24.0692 15,25.5C 14.3333,169.167 14.3333,312.833 15,456.5C 15.5,458.333 16.6667,459.5 18.5,460C 27.2421,460.089 35.9088,460.756 44.5,462C 47.3939,464.909 48.2272,468.409 47,472.5C 45.786,474.049 44.286,475.215 42.5,476C 33.8333,476.667 25.1667,476.667 16.5,476C 8.50176,473.831 2.83509,468.997 -0.5,461.5C -0.5,314.5 -0.5,167.5 -0.5,20.5C 2.73709,13.4329 8.07043,8.59958 15.5,6C 175.5,5.33333 335.5,5.33333 495.5,6C 502.954,8.6264 508.288,13.4597 511.5,20.5 Z"/></g>
<g><path style="opacity:0.932" fill="#000000" d="M 56.5,46.5 C 189.167,46.3333 321.834,46.5 454.5,47C 463.333,49.1667 468.833,54.6667 471,63.5C 471.984,122.545 471.651,181.545 470,240.5C 467.014,246.82 462.181,250.987 455.5,253C 321.111,253.995 186.778,253.662 52.5,252C 45.7342,248.904 41.5676,243.737 40,236.5C 39.3333,178.833 39.3333,121.167 40,63.5C 42.3493,54.6522 47.8493,48.9855 56.5,46.5 Z M 58.5,62.5 C 189.834,62.3333 321.167,62.5 452.5,63C 453.667,63.5 454.5,64.3333 455,65.5C 455.667,121.833 455.667,178.167 455,234.5C 454.348,236.723 452.848,237.89 450.5,238C 319.444,238.995 188.444,238.661 57.5,237C 56.8742,236.25 56.3742,235.416 56,234.5C 55.3333,178.167 55.3333,121.833 56,65.5C 56.6979,64.3094 57.5313,63.3094 58.5,62.5 Z M 151.5,133.5 C 155.077,142.461 157.744,151.794 159.5,161.5C 154.456,161.827 149.456,161.494 144.5,160.5C 147.306,151.609 149.639,142.609 151.5,133.5 Z"/></g>
<g><path style="opacity:0.935" fill="#000000" d="M 146.5,107.5 C 150.514,107.334 154.514,107.501 158.5,108C 160.587,108.792 162.421,109.959 164,111.5C 171.834,136.839 179.668,162.172 187.5,187.5C 183.361,194.714 177.361,196.881 169.5,194C 167.451,188.975 165.784,183.808 164.5,178.5C 156.521,177.335 148.521,177.168 140.5,178C 138.773,182.735 137.273,187.568 136,192.5C 132.238,195.875 128.072,196.375 123.5,194C 120.943,193.315 119.109,191.815 118,189.5C 117.802,185.404 118.469,181.404 120,177.5C 126.512,155.787 133.178,134.12 140,112.5C 141.805,110.174 143.972,108.508 146.5,107.5 Z M 151.5,133.5 C 149.639,142.609 147.306,151.609 144.5,160.5C 149.456,161.494 154.456,161.827 159.5,161.5C 157.744,151.794 155.077,142.461 151.5,133.5 Z"/></g>
<g><path style="opacity:0.916" fill="#000000" d="M 220.5,107.5 C 238.503,107.333 256.503,107.5 274.5,108C 280.725,113.262 281.059,118.929 275.5,125C 269.509,125.499 263.509,125.666 257.5,125.5C 257.667,147.169 257.5,168.836 257,190.5C 254.972,194.134 251.806,195.8 247.5,195.5C 243.679,195.618 240.513,194.285 238,191.5C 237.5,169.503 237.333,147.503 237.5,125.5C 231.491,125.666 225.491,125.499 219.5,125C 214.042,118.721 214.376,112.888 220.5,107.5 Z"/></g>
<g><path style="opacity:0.955" fill="#000000" d="M 329.5,107.5 C 334.18,107.375 338.346,108.709 342,111.5C 347.181,119.869 352.347,128.203 357.5,136.5C 362.793,127.412 368.459,118.579 374.5,110C 380.779,106.33 386.613,106.83 392,111.5C 393.15,125.076 393.65,138.743 393.5,152.5C 393.333,165.5 393.167,178.5 393,191.5C 387.375,196.439 381.375,196.772 375,192.5C 374.667,177.5 374.333,162.5 374,147.5C 370.415,153.002 367.081,158.669 364,164.5C 360.502,168.563 356.502,169.229 352,166.5C 348.333,159.833 344.667,153.167 341,146.5C 340.667,161.5 340.333,176.5 340,191.5C 334.332,196.448 328.332,196.781 322,192.5C 321.333,165.833 321.333,139.167 322,112.5C 323.913,109.72 326.413,108.053 329.5,107.5 Z"/></g>
<g><path style="opacity:0.942" fill="#000000" d="M 511.5,156.5 C 511.5,258.167 511.5,359.833 511.5,461.5C 508.165,468.997 502.498,473.831 494.5,476C 425.833,476.667 357.167,476.667 288.5,476C 283.311,473.087 282.144,468.92 285,463.5C 286.171,462.107 287.671,461.273 289.5,461C 357.167,460.667 424.833,460.333 492.5,460C 493.416,459.626 494.25,459.126 495,458.5C 496.329,358.248 496.996,257.914 497,157.5C 501.418,151.253 506.251,150.919 511.5,156.5 Z"/></g>
<g><path style="opacity:0.945" fill="#000000" d="M 54.5,292.5 C 127.167,292.333 199.834,292.5 272.5,293C 286.773,299.557 290.607,310.057 284,324.5C 277.219,331.997 268.719,335.164 258.5,334C 264.38,385.257 270.047,436.591 275.5,488C 275.004,496.681 270.67,502.348 262.5,505C 197.833,505.667 133.167,505.667 68.5,505C 60.8594,502.359 56.5261,497.026 55.5,489C 61.2046,437.159 66.8712,385.326 72.5,333.5C 65.7431,333.877 59.0764,333.377 52.5,332C 40.2725,325.32 36.7725,315.486 42,302.5C 45.1908,297.837 49.3575,294.503 54.5,292.5 Z M 59.5,307.5 C 64.8437,307.334 70.1771,307.501 75.5,308C 74.5495,311.057 74.2161,314.223 74.5,317.5C 68.8236,317.666 63.1569,317.499 57.5,317C 54.5227,313.053 55.1894,309.886 59.5,307.5 Z M 90.5,307.5 C 117.5,307.5 144.5,307.5 171.5,307.5C 174.867,368.498 178.2,429.498 181.5,490.5C 145.124,490.827 108.79,490.493 72.5,489.5C 72.1667,488.5 71.8333,487.5 71.5,486.5C 78.2001,426.866 84.5334,367.2 90.5,307.5 Z M 187.5,307.5 C 193.167,307.5 198.833,307.5 204.5,307.5C 209.553,368.47 214.22,429.47 218.5,490.5C 211.167,490.5 203.833,490.5 196.5,490.5C 193.666,429.491 190.666,368.491 187.5,307.5 Z M 220.5,307.5 C 227.167,307.5 233.833,307.5 240.5,307.5C 246.701,366.84 253.034,426.174 259.5,485.5C 259.351,487.32 258.684,488.82 257.5,490C 249.841,490.5 242.174,490.666 234.5,490.5C 229.731,429.508 225.065,368.508 220.5,307.5 Z M 256.5,307.5 C 260.967,307.133 265.3,307.633 269.5,309C 271.984,311.284 272.151,313.784 270,316.5C 265.882,317.798 261.715,317.798 257.5,316.5C 256.593,313.579 256.26,310.579 256.5,307.5 Z"/></g>
<g><path style="opacity:0.948" fill="#000000" d="M 333.5,292.5 C 349.17,292.333 364.837,292.5 380.5,293C 385.876,295.04 389.043,298.873 390,304.5C 390.667,318.5 390.667,332.5 390,346.5C 389.492,351.012 387.325,354.512 383.5,357C 366.591,358.638 349.591,358.971 332.5,358C 327.938,356.373 325.105,353.206 324,348.5C 323.333,333.167 323.333,317.833 324,302.5C 326.048,297.955 329.215,294.622 333.5,292.5 Z M 338.5,307.5 C 350.5,307.5 362.5,307.5 374.5,307.5C 374.5,319.5 374.5,331.5 374.5,343.5C 362.5,343.5 350.5,343.5 338.5,343.5C 338.5,331.5 338.5,319.5 338.5,307.5 Z"/></g>
<g><path style="opacity:0.938" fill="#000000" d="M 414.5,292.5 C 430.17,292.333 445.837,292.5 461.5,293C 466.428,294.927 469.594,298.427 471,303.5C 471.667,318.167 471.667,332.833 471,347.5C 469.702,352.274 466.868,355.774 462.5,358C 446.167,358.667 429.833,358.667 413.5,358C 409.183,355.685 406.35,352.185 405,347.5C 404.333,332.833 404.333,318.167 405,303.5C 406.599,298.406 409.766,294.739 414.5,292.5 Z M 420.5,307.5 C 432.167,307.5 443.833,307.5 455.5,307.5C 455.5,319.5 455.5,331.5 455.5,343.5C 443.833,343.5 432.167,343.5 420.5,343.5C 420.5,331.5 420.5,319.5 420.5,307.5 Z"/></g>
<g><path style="opacity:0.935" fill="#000000" d="M 335.5,371.5 C 349.837,371.333 364.171,371.5 378.5,372C 385.116,373.616 388.949,377.782 390,384.5C 390.667,398.167 390.667,411.833 390,425.5C 389.364,432.132 385.864,436.298 379.5,438C 364.5,438.667 349.5,438.667 334.5,438C 329.427,436.594 325.927,433.428 324,428.5C 323.333,413.167 323.333,397.833 324,382.5C 325.789,376.541 329.622,372.875 335.5,371.5 Z M 338.5,387.5 C 350.5,387.5 362.5,387.5 374.5,387.5C 374.5,399.5 374.5,411.5 374.5,423.5C 362.5,423.5 350.5,423.5 338.5,423.5C 338.5,411.5 338.5,399.5 338.5,387.5 Z"/></g>
<g><path style="opacity:0.923" fill="#000000" d="M 416.5,371.5 C 430.837,371.333 445.171,371.5 459.5,372C 465.588,373.09 469.421,376.59 471,382.5C 471.667,397.5 471.667,412.5 471,427.5C 469.5,433 466,436.5 460.5,438C 445.5,438.667 430.5,438.667 415.5,438C 410,436.5 406.5,433 405,427.5C 404.333,412.5 404.333,397.5 405,382.5C 406.78,376.55 410.614,372.884 416.5,371.5 Z M 420.5,387.5 C 432.167,387.5 443.833,387.5 455.5,387.5C 455.5,399.5 455.5,411.5 455.5,423.5C 443.833,423.5 432.167,423.5 420.5,423.5C 420.5,411.5 420.5,399.5 420.5,387.5 Z"/></g>
</svg>
