<?xml version="1.0" standalone="no"?>
<!DOCTYPE svg PUBLIC "-//W3C//DTD SVG 20010904//EN"
 "http://www.w3.org/TR/2001/REC-SVG-20010904/DTD/svg10.dtd">
<svg version="1.0" xmlns="http://www.w3.org/2000/svg"
 width="96.000000pt" height="96.000000pt" viewBox="0 0 96.000000 96.000000"
 preserveAspectRatio="xMidYMid meet">

<g transform="translate(0.000000,96.000000) scale(0.100000,-0.100000)"
fill="#000000" stroke="none">
<path d="M210 840 c0 -29 4 -40 15 -40 8 0 29 -13 47 -29 31 -27 32 -30 13
-36 -46 -15 -103 -44 -132 -69 -37 -31 -93 -137 -93 -177 0 -15 -7 -29 -14
-32 -8 -3 -22 -20 -32 -38 -28 -55 -14 -90 68 -174 94 -96 143 -119 253 -119
44 1 105 1 135 1 30 0 100 0 155 -1 94 -1 103 1 155 30 30 17 69 49 85 72 17
22 40 45 51 52 58 33 56 137 -3 173 -7 4 -13 16 -13 26 0 39 -34 112 -71 155
-35 39 -82 69 -144 91 -19 6 -18 8 8 21 21 12 27 22 27 49 0 29 -4 35 -20 35
-12 0 -34 -7 -49 -15 -27 -13 -30 -13 -52 12 -25 26 -77 53 -104 53 -11 0 -15
-11 -15 -39 0 -33 4 -40 25 -45 26 -7 63 -52 51 -63 -3 -4 -21 -12 -39 -18
-27 -9 -40 -8 -73 6 -36 16 -37 18 -16 25 18 5 22 14 22 45 0 44 -12 49 -62
23 -29 -15 -31 -15 -45 6 -17 23 -86 59 -115 60 -14 0 -18 -8 -18 -40z m245
-213 c55 -31 95 -99 102 -176 5 -55 8 -61 28 -61 13 0 25 -6 28 -14 7 -17 -1
-26 -24 -26 -10 0 -19 -10 -23 -25 -10 -38 -69 -91 -122 -109 -120 -41 -250
-2 -301 89 -12 21 -31 43 -43 47 -29 11 -20 32 13 36 24 3 27 7 27 44 0 66 22
120 66 164 66 66 162 78 249 31z m261 6 c55 -28 95 -97 103 -176 6 -59 8 -62
34 -65 33 -4 40 -42 7 -42 -11 0 -23 -8 -27 -17 -13 -37 -56 -84 -95 -104 -47
-24 -158 -38 -158 -21 0 6 23 34 50 61 53 53 74 92 65 120 -4 13 1 17 21 16
33 0 53 28 38 53 -16 25 -50 27 -66 4 -20 -29 -42 -8 -57 53 -7 28 -23 67 -37
87 -13 21 -24 43 -24 49 0 18 101 6 146 -18z"/>
<path d="M210 465 c-15 -18 -10 -45 13 -59 34 -22 73 27 47 59 -16 19 -44 19
-60 0z"/>
<path d="M410 465 c-15 -18 -10 -45 13 -59 34 -22 73 27 47 59 -16 19 -44 19
-60 0z"/>
</g>
</svg>
