<?xml version="1.0" standalone="no"?>
<!DOCTYPE svg PUBLIC "-//W3C//DTD SVG 20010904//EN"
 "http://www.w3.org/TR/2001/REC-SVG-20010904/DTD/svg10.dtd">
<svg version="1.0" xmlns="http://www.w3.org/2000/svg"
 width="96.000000pt" height="96.000000pt" viewBox="0 0 96.000000 96.000000"
 preserveAspectRatio="xMidYMid meet">

<g transform="translate(0.000000,96.000000) scale(0.100000,-0.100000)"
fill="#000000" stroke="none">
<path d="M270 761 l-185 -118 -3 -41 -3 -42 381 0 381 0 -3 42 -3 42 -185 117
c-102 65 -187 118 -190 118 -3 0 -88 -53 -190 -118z"/>
<path d="M160 380 l0 -140 60 0 60 0 0 140 0 140 -60 0 -60 0 0 -140z"/>
<path d="M400 433 l0 -88 20 33 c12 20 37 41 60 50 36 16 40 20 40 55 l0 37
-60 0 -60 0 0 -87z"/>
<path d="M640 480 l0 -40 60 0 60 0 0 40 0 40 -60 0 -60 0 0 -40z"/>
<path d="M492 348 c-7 -7 -12 -25 -12 -40 l0 -28 240 0 240 0 0 28 c0 15 -5
33 -12 40 -17 17 -439 17 -456 0z"/>
<path d="M80 140 l0 -60 160 0 160 0 0 60 0 60 -160 0 -160 0 0 -60z"/>
<path d="M480 112 c0 -55 4 -92 12 -100 17 -17 439 -17 456 0 8 8 12 45 12
100 l0 88 -240 0 -240 0 0 -88z"/>
</g>
</svg>
