<?xml version="1.0" encoding="UTF-8"?>
<!DOCTYPE svg PUBLIC "-//W3C//DTD SVG 1.1//EN" "http://www.w3.org/Graphics/SVG/1.1/DTD/svg11.dtd">
<svg xmlns="http://www.w3.org/2000/svg" version="1.1" width="96px" height="96px" style="shape-rendering:geometricPrecision; text-rendering:geometricPrecision; image-rendering:optimizeQuality; fill-rule:evenodd; clip-rule:evenodd" xmlns:xlink="http://www.w3.org/1999/xlink">
<g><path style="opacity:0.976" fill="#000000" d="M 95.5,63.5 C 95.5,72.8333 95.5,82.1667 95.5,91.5C 94.5,93.1667 93.1667,94.5 91.5,95.5C 82.1667,95.5 72.8333,95.5 63.5,95.5C 60.6109,93.7226 59.2776,91.0559 59.5,87.5C 46.1625,87.6666 32.8292,87.4999 19.5,87C 18.5838,86.6258 17.7504,86.1258 17,85.5C 15.8514,72.9248 15.3514,60.2582 15.5,47.5C 15.3514,34.7418 15.8514,22.0752 17,9.5C 17.7504,8.87424 18.5838,8.37424 19.5,8C 31.8333,7.33333 44.1667,7.33333 56.5,8C 64,15.5 71.5,23 79,30.5C 79.4998,40.1609 79.6665,49.8276 79.5,59.5C 83.5138,59.3345 87.5138,59.5012 91.5,60C 93.3502,60.6897 94.6836,61.8564 95.5,63.5 Z M 51.5,14.5 C 58.6315,21.1307 65.6315,27.9641 72.5,35C 65.5079,35.4996 58.5079,35.6663 51.5,35.5C 51.5,28.5 51.5,21.5 51.5,14.5 Z M 47.5,44.5 C 54.1667,45.1667 57.8333,48.8333 58.5,55.5C 54.8333,55.5 51.1667,55.5 47.5,55.5C 47.5,51.8333 47.5,48.1667 47.5,44.5 Z M 35.5,52.5 C 36.8333,52.5 38.1667,52.5 39.5,52.5C 39.5,56.1667 39.5,59.8333 39.5,63.5C 43.1667,63.5 46.8333,63.5 50.5,63.5C 48.6918,73.4066 43.0251,76.5733 33.5,73C 26.391,65.376 27.0577,58.5427 35.5,52.5 Z M 67.5,67.5 C 74.1667,67.5 80.8333,67.5 87.5,67.5C 87.5,74.1667 87.5,80.8333 87.5,87.5C 80.8333,87.5 74.1667,87.5 67.5,87.5C 67.5,80.8333 67.5,74.1667 67.5,67.5 Z"/></g>
</svg>
