<?xml version="1.0" encoding="UTF-8"?>
<!DOCTYPE svg PUBLIC "-//W3C//DTD SVG 1.1//EN" "http://www.w3.org/Graphics/SVG/1.1/DTD/svg11.dtd">
<svg xmlns="http://www.w3.org/2000/svg" version="1.1" width="96px" height="96px" style="shape-rendering:geometricPrecision; text-rendering:geometricPrecision; image-rendering:optimizeQuality; fill-rule:evenodd; clip-rule:evenodd" xmlns:xlink="http://www.w3.org/1999/xlink">
<g><path style="opacity:0.974" fill="#000000" d="M 19.5,7.5 C 38.1696,7.33339 56.8363,7.50005 75.5,8C 76.4162,8.37424 77.2496,8.87424 78,9.5C 79.1486,22.0752 79.6486,34.7418 79.5,47.5C 79.3333,59.5 79.1667,71.5 79,83.5C 78.6258,84.4162 78.1258,85.2496 77.5,86C 67.5948,87.1432 57.5948,87.6432 47.5,87.5C 38.1667,87.3333 28.8333,87.1667 19.5,87C 18.5838,86.6258 17.7504,86.1258 17,85.5C 15.3531,60.9209 15.0198,36.2542 16,11.5C 16.6897,9.64977 17.8564,8.31643 19.5,7.5 Z M 43.5,24.5 C 54.9361,23.1029 59.7695,28.1029 58,39.5C 55.2701,46.053 50.4368,48.2196 43.5,46C 37.1347,42.754 34.968,37.5873 37,30.5C 38.4936,27.6865 40.6603,25.6865 43.5,24.5 Z M 40.5,56.5 C 50.5737,54.4739 59.0737,57.1405 66,64.5C 66.977,66.74 67.477,69.0733 67.5,71.5C 54.1667,71.5 40.8333,71.5 27.5,71.5C 28.6056,63.7262 32.9389,58.7262 40.5,56.5 Z"/></g>
</svg>
