<?xml version="1.0" encoding="UTF-8"?>
<!DOCTYPE svg PUBLIC "-//W3C//DTD SVG 1.1//EN" "http://www.w3.org/Graphics/SVG/1.1/DTD/svg11.dtd">
<svg xmlns="http://www.w3.org/2000/svg" version="1.1" width="512px" height="512px" style="shape-rendering:geometricPrecision; text-rendering:geometricPrecision; image-rendering:optimizeQuality; fill-rule:evenodd; clip-rule:evenodd" xmlns:xlink="http://www.w3.org/1999/xlink">
<g><path style="opacity:0.962" fill="#000000" d="M 411.5,7.5 C 415.839,6.84614 419.673,7.84614 423,10.5C 449.905,42.6491 476.572,74.9825 503,107.5C 503.667,110.167 503.667,112.833 503,115.5C 502.5,117.333 501.333,118.5 499.5,119C 487.505,119.5 475.505,119.667 463.5,119.5C 463.5,236.833 463.5,354.167 463.5,471.5C 458.167,471.5 452.833,471.5 447.5,471.5C 447.832,351.263 447.499,231.096 446.5,111C 447.199,107.92 448.866,105.586 451.5,104C 460.167,103.667 468.833,103.333 477.5,103C 456.992,78.3285 436.325,53.8285 415.5,29.5C 394.675,53.8285 374.008,78.3285 353.5,103C 362.167,103.333 370.833,103.667 379.5,104C 381.333,104.5 382.5,105.667 383,107.5C 383.167,134.667 383.333,161.833 383.5,189C 383.638,218.529 383.138,248.029 382,277.5C 372.841,322.655 347.341,354.822 305.5,374C 257.89,391.818 213.89,385.484 173.5,355C 169.318,350.985 165.318,346.818 161.5,342.5C 164.864,338.301 168.698,334.635 173,331.5C 209.675,366.435 251.842,375.268 299.5,358C 336.841,339.981 359.008,310.481 366,269.5C 367.431,219.517 367.931,169.517 367.5,119.5C 355.495,119.667 343.495,119.5 331.5,119C 327.295,116.054 326.128,112.221 328,107.5C 355.351,73.6593 383.184,40.3259 411.5,7.5 Z"/></g>
<g><path style="opacity:0.962" fill="#000000" d="M 47.5,39.5 C 52.8333,39.5 58.1667,39.5 63.5,39.5C 63.1678,159.737 63.5011,279.904 64.5,400C 63.8005,403.08 62.1339,405.414 59.5,407C 50.8333,407.333 42.1667,407.667 33.5,408C 54.0083,432.672 74.675,457.172 95.5,481.5C 116.325,457.172 136.992,432.672 157.5,408C 148.833,407.667 140.167,407.333 131.5,407C 129.667,406.5 128.5,405.333 128,403.5C 127.333,349.167 127.333,294.833 128,240.5C 135.054,191.875 160.887,157.375 205.5,137C 253.11,119.182 297.11,125.516 337.5,156C 341.682,160.015 345.682,164.182 349.5,168.5C 346.136,172.699 342.302,176.365 338,179.5C 301.34,144.461 259.173,135.627 211.5,153C 174.159,171.019 151.992,200.519 145,241.5C 143.569,291.483 143.069,341.483 143.5,391.5C 155.505,391.333 167.505,391.5 179.5,392C 181.333,392.5 182.5,393.667 183,395.5C 183.667,398.167 183.667,400.833 183,403.5C 155.86,437.302 128.026,470.469 99.5,503C 95.1712,504.151 91.3379,503.318 88,500.5C 61.0946,468.351 34.4279,436.018 8,403.5C 6.11054,398.829 7.2772,394.995 11.5,392C 23.4954,391.5 35.4954,391.333 47.5,391.5C 47.5,274.167 47.5,156.833 47.5,39.5 Z"/></g>
<g><path style="opacity:0.932" fill="#000000" d="M 220.5,202.5 C 243.609,204.795 251.776,217.129 245,239.5C 235.083,252.46 222.916,254.96 208.5,247C 200.057,239.665 197.223,230.498 200,219.5C 203.867,210.163 210.7,204.496 220.5,202.5 Z M 222.5,219.5 C 227.159,219.991 230.159,222.491 231.5,227C 228.325,235.388 223.491,236.554 217,230.5C 215.185,224.855 217.018,221.188 222.5,219.5 Z"/></g>
<g><path style="opacity:0.896" fill="#000000" d="M 293.5,204.5 C 294.552,204.351 295.552,204.517 296.5,205C 299.667,208.167 302.833,211.333 306,214.5C 306.667,215.5 306.667,216.5 306,217.5C 276.5,247 247,276.5 217.5,306C 216.5,306.667 215.5,306.667 214.5,306C 211.333,302.833 208.167,299.667 205,296.5C 204.333,295.5 204.333,294.5 205,293.5C 234.702,263.965 264.202,234.299 293.5,204.5 Z"/></g>
<g><path style="opacity:0.934" fill="#000000" d="M 282.5,259.5 C 303.688,259.185 313.188,269.518 311,290.5C 305.228,304.804 294.728,310.304 279.5,307C 264.203,299.458 259.703,287.625 266,271.5C 269.892,265.151 275.392,261.151 282.5,259.5 Z M 284.5,276.5 C 290.594,275.541 294.261,278.041 295.5,284C 292.11,291.804 287.277,292.971 281,287.5C 279.662,282.96 280.829,279.293 284.5,276.5 Z"/></g>
</svg>
