<?xml version="1.0" encoding="UTF-8"?>
<!DOCTYPE svg PUBLIC "-//W3C//DTD SVG 1.1//EN" "http://www.w3.org/Graphics/SVG/1.1/DTD/svg11.dtd">
<svg xmlns="http://www.w3.org/2000/svg" version="1.1" width="512px" height="512px" style="shape-rendering:geometricPrecision; text-rendering:geometricPrecision; image-rendering:optimizeQuality; fill-rule:evenodd; clip-rule:evenodd" xmlns:xlink="http://www.w3.org/1999/xlink">
<g><path style="opacity:0.942" fill="#000000" d="M 240.5,12.5 C 272.414,10.064 303.414,14.2306 333.5,25C 339.934,27.2939 342.434,31.7939 341,38.5C 338.315,45.0566 333.481,47.2233 326.5,45C 254.607,21.2455 189.941,33.9121 132.5,83C 123.974,85.736 118.641,82.736 116.5,74C 116.974,71.2508 117.974,68.7508 119.5,66.5C 154.06,35.7232 194.393,17.7232 240.5,12.5 Z"/></g>
<g><path style="opacity:0.943" fill="#000000" d="M 366.5,39.5 C 381.077,37.5328 391.243,43.1995 397,56.5C 400.642,76.3561 392.476,87.6894 372.5,90.5C 357.053,88.886 348.386,80.386 346.5,65C 347.804,52.2061 354.47,43.7061 366.5,39.5 Z M 370.5,60.5 C 377.315,61.0931 378.648,63.9265 374.5,69C 369.504,69.6643 367.67,67.4977 369,62.5C 369.717,61.9558 370.217,61.2891 370.5,60.5 Z"/></g>
<g><path style="opacity:0.933" fill="#000000" d="M 439.5,42.5 C 452.644,42.4446 456.477,48.4446 451,60.5C 423.167,92.3333 395.333,124.167 367.5,156C 354.2,159.698 349.033,154.864 352,141.5C 380.04,109.795 407.707,77.7952 435,45.5C 436.652,44.6006 438.152,43.6006 439.5,42.5 Z"/></g>
<g><path style="opacity:0.881" fill="#000000" d="M 98.5,92.5 C 110.517,93.5341 114.017,99.5341 109,110.5C 103.667,114.5 98.3333,114.5 93,110.5C 88.7293,102.485 90.5626,96.4852 98.5,92.5 Z"/></g>
<g><path style="opacity:0.953" fill="#000000" d="M 511.5,413.5 C 511.5,419.833 511.5,426.167 511.5,432.5C 507.29,448.549 497.29,459.382 481.5,465C 435.345,477.122 389.012,488.456 342.5,499C 322.191,501.003 302.525,498.337 283.5,491C 233.5,471.333 183.5,451.667 133.5,432C 120.838,431.5 108.171,431.333 95.5,431.5C 95.6657,435.846 95.499,440.179 95,444.5C 93.3006,448.205 90.4672,450.372 86.5,451C 60.5,451.667 34.5,451.667 8.5,451C 4.84425,450.175 1.84425,448.342 -0.5,445.5C -0.5,383.833 -0.5,322.167 -0.5,260.5C 0.977392,258.193 2.97739,256.36 5.5,255C 21.4965,254.5 37.4965,254.333 53.5,254.5C 47.8666,214.494 52.6999,175.827 68,138.5C 69.4324,131.566 73.5991,127.566 80.5,126.5C 86.7959,127.294 90.1292,130.794 90.5,137C 86.6807,148.458 82.8474,159.958 79,171.5C 71.8762,198.927 70.7095,226.594 75.5,254.5C 93.3456,252.026 100.012,259.693 95.5,277.5C 102.5,277.5 109.5,277.5 116.5,277.5C 116.333,244.498 116.5,211.498 117,178.5C 117.5,172.667 120.667,169.5 126.5,169C 153.165,168.5 179.831,168.333 206.5,168.5C 206.333,148.831 206.5,129.164 207,109.5C 207.785,107.714 208.951,106.214 210.5,105C 227.078,103.847 243.745,103.347 260.5,103.5C 277.564,103.354 294.564,103.854 311.5,105C 313.617,106.731 315.117,108.898 316,111.5C 316.5,147.832 316.667,184.165 316.5,220.5C 343.835,220.333 371.169,220.5 398.5,221C 400.624,222.122 402.457,223.622 404,225.5C 405.315,263.44 405.982,301.44 406,339.5C 443.251,292.1 455.751,238.766 443.5,179.5C 444.176,172.824 447.843,169.157 454.5,168.5C 457.781,168.891 460.615,170.224 463,172.5C 477.986,238.914 464.653,298.914 423,352.5C 417.699,358.802 412.032,364.802 406,370.5C 405.5,377.492 405.334,384.492 405.5,391.5C 424.82,387.337 444.154,383.17 463.5,379C 488.257,378.528 504.257,390.028 511.5,413.5 Z M 227.5,124.5 C 250.167,124.5 272.833,124.5 295.5,124.5C 295.667,189.834 295.5,255.168 295,320.5C 272.891,311.073 250.724,301.74 228.5,292.5C 227.5,236.504 227.167,180.504 227.5,124.5 Z M 137.5,189.5 C 160.5,189.5 183.5,189.5 206.5,189.5C 206.667,220.835 206.5,252.168 206,283.5C 201.328,281.276 196.495,279.442 191.5,278C 173.503,277.5 155.503,277.333 137.5,277.5C 137.5,248.167 137.5,218.833 137.5,189.5 Z M 316.5,241.5 C 339.167,241.5 361.833,241.5 384.5,241.5C 384.667,293.168 384.5,344.834 384,396.5C 370.713,400.196 357.213,403.029 343.5,405C 334.426,405.704 325.426,405.204 316.5,403.5C 316.334,398.156 316.501,392.823 317,387.5C 326.991,370.871 326.991,354.204 317,337.5C 316.5,305.502 316.333,273.502 316.5,241.5 Z M 19.5,275.5 C 37.8333,275.5 56.1667,275.5 74.5,275.5C 74.5,327.167 74.5,378.833 74.5,430.5C 56.1667,430.5 37.8333,430.5 19.5,430.5C 19.5,378.833 19.5,327.167 19.5,275.5 Z M 95.5,298.5 C 126.502,298.333 157.502,298.5 188.5,299C 222.948,313.057 257.281,327.391 291.5,342C 304.729,352.813 306.562,365.313 297,379.5C 289.343,387.496 280.177,389.996 269.5,387C 246.833,378.333 224.167,369.667 201.5,361C 189.865,360.093 185.699,365.26 189,376.5C 190.543,378.378 192.376,379.878 194.5,381C 229.422,394.53 264.422,407.863 299.5,421C 317.213,426.302 335.213,427.635 353.5,425C 391.693,416.628 429.859,408.128 468,399.5C 485.089,402.345 492.422,412.345 490,429.5C 487.5,437.333 482.333,442.5 474.5,445C 433.838,455.332 393.172,465.665 352.5,476C 332.443,480.29 312.776,478.956 293.5,472C 241.579,451.471 189.579,431.137 137.5,411C 123.504,410.5 109.504,410.333 95.5,410.5C 95.5,373.167 95.5,335.833 95.5,298.5 Z"/></g>
<g><path style="opacity:0.945" fill="#000000" d="M 424.5,111.5 C 445.493,111.991 454.993,122.658 453,143.5C 446.127,161.347 433.627,166.847 415.5,160C 401.879,150.012 399.046,137.512 407,122.5C 411.594,116.632 417.427,112.965 424.5,111.5 Z M 426.5,132.5 C 432.335,133.333 433.668,136.166 430.5,141C 423,141.196 421.667,138.363 426.5,132.5 Z"/></g>
</svg>
