<?xml version="1.0" encoding="UTF-8"?>
<!DOCTYPE svg PUBLIC "-//W3C//DTD SVG 1.1//EN" "http://www.w3.org/Graphics/SVG/1.1/DTD/svg11.dtd">
<svg xmlns="http://www.w3.org/2000/svg" version="1.1" width="512px" height="512px" style="shape-rendering:geometricPrecision; text-rendering:geometricPrecision; image-rendering:optimizeQuality; fill-rule:evenodd; clip-rule:evenodd" xmlns:xlink="http://www.w3.org/1999/xlink">
<g><path style="opacity:0.991" fill="#000000" d="M 242.5,-0.5 C 251.167,-0.5 259.833,-0.5 268.5,-0.5C 310.186,7.68073 336.686,32.3474 348,73.5C 348.995,78.4535 349.662,83.4535 350,88.5C 350.388,89.428 351.055,90.0946 352,90.5C 382.347,76.0872 412.514,76.5872 442.5,92C 473.103,110.998 489.103,138.665 490.5,175C 489.101,209.647 474.101,236.481 445.5,255.5C 479.528,278.902 494.028,311.235 489,352.5C 480.942,389.551 459.109,414.385 423.5,427C 398.861,433.851 375.027,431.684 352,420.5C 348.1,455.797 330.933,482.63 300.5,501C 290.137,505.844 279.47,509.344 268.5,511.5C 259.833,511.5 251.167,511.5 242.5,511.5C 200.814,503.319 174.314,478.653 163,437.5C 162.005,432.547 161.338,427.547 161,422.5C 160.612,421.572 159.945,420.905 159,420.5C 128.653,434.913 98.486,434.413 68.5,419C 37.8966,400.002 21.8966,372.335 20.5,336C 21.8985,301.353 36.8985,274.519 65.5,255.5C 31.472,232.098 16.972,199.765 22,158.5C 30.0577,121.449 51.891,96.6153 87.5,84C 112.139,77.149 135.973,79.3157 159,90.5C 162.9,55.2033 180.067,28.3699 210.5,10C 220.863,5.15597 231.53,1.65597 242.5,-0.5 Z M 249.5,169.5 C 289.771,169.202 318.271,187.202 335,223.5C 348.445,264.821 338.279,298.988 304.5,326C 265.993,348.81 229.659,345.81 195.5,317C 165.365,282.743 161.865,245.909 185,206.5C 201.235,184.967 222.735,172.633 249.5,169.5 Z"/></g>
</svg>
