<?xml version="1.0" standalone="no"?>
<!DOCTYPE svg PUBLIC "-//W3C//DTD SVG 20010904//EN"
 "http://www.w3.org/TR/2001/REC-SVG-20010904/DTD/svg10.dtd">
<svg version="1.0" xmlns="http://www.w3.org/2000/svg"
 width="96.000000pt" height="96.000000pt" viewBox="0 0 96.000000 96.000000"
 preserveAspectRatio="xMidYMid meet">

<g transform="translate(0.000000,96.000000) scale(0.100000,-0.100000)"
fill="#000000" stroke="none">
<path d="M342 848 l-21 -32 80 -48 81 -48 78 47 79 47 -19 31 c-11 16 -24 29
-30 28 -5 -2 -32 -19 -60 -39 l-50 -36 -47 35 c-71 50 -69 50 -91 15z"/>
<path d="M145 655 c-17 -16 -25 -35 -25 -60 l0 -35 160 0 160 0 0 60 0 60
-135 0 c-131 0 -137 -1 -160 -25z"/>
<path d="M520 620 l0 -60 160 0 160 0 0 35 c0 25 -8 44 -25 60 -23 24 -29 25
-160 25 l-135 0 0 -60z"/>
<path d="M160 325 c0 -195 0 -196 25 -220 23 -24 30 -25 140 -25 l115 0 0 220
0 220 -140 0 -140 0 0 -195z"/>
<path d="M520 300 l0 -220 115 0 c110 0 117 1 140 25 25 24 25 25 25 220 l0
195 -140 0 -140 0 0 -220z"/>
</g>
</svg>
