<svg width="36" height="36" viewBox="0 0 36 36" fill="none" xmlns="http://www.w3.org/2000/svg">
<path d="M34.6 29.21L20.71 3.65C20.4335 3.1406 20.0247 2.71527 19.5266 2.41889C19.0285 2.12251 18.4596 1.96606 17.88 1.96606C17.3004 1.96606 16.7315 2.12251 16.2335 2.41889C15.7354 2.71527 15.3265 3.1406 15.05 3.65L1.17001 29.21C0.895529 29.7015 0.754689 30.2563 0.761529 30.8192C0.76837 31.3821 0.922653 31.9333 1.20899 32.418C1.49533 32.9026 1.90372 33.3037 2.39344 33.5813C2.88316 33.8589 3.43709 34.0033 4.00001 34H31.77C32.3272 33.9994 32.8747 33.8543 33.359 33.5788C33.8433 33.3032 34.2478 32.9068 34.533 32.4281C34.8182 31.9494 34.9743 31.405 34.986 30.8479C34.9978 30.2908 34.8648 29.7403 34.6 29.25V29.21ZM16.6 10C16.6 9.6287 16.7475 9.2726 17.0101 9.01005C17.2726 8.7475 17.6287 8.6 18 8.6C18.3713 8.6 18.7274 8.7475 18.99 9.01005C19.2525 9.2726 19.4 9.6287 19.4 10V22C19.4 22.3713 19.2525 22.7274 18.99 22.9899C18.7274 23.2525 18.3713 23.4 18 23.4C17.6287 23.4 17.2726 23.2525 17.0101 22.9899C16.7475 22.7274 16.6 22.3713 16.6 22V10ZM18 29.85C17.644 29.85 17.296 29.7444 17 29.5466C16.704 29.3489 16.4733 29.0677 16.337 28.7388C16.2008 28.4099 16.1651 28.048 16.2346 27.6988C16.304 27.3497 16.4755 27.0289 16.7272 26.7772C16.9789 26.5255 17.2997 26.354 17.6488 26.2846C17.998 26.2151 18.3599 26.2508 18.6888 26.387C19.0177 26.5233 19.2989 26.754 19.4967 27.05C19.6944 27.346 19.8 27.694 19.8 28.05C19.8 28.2864 19.7534 28.5204 19.663 28.7388C19.5725 28.9572 19.4399 29.1556 19.2728 29.3228C19.1057 29.4899 18.9072 29.6225 18.6888 29.713C18.4704 29.8034 18.2364 29.85 18 29.85V29.85Z" fill="#8C1277"/>
</svg>
