<?xml version="1.0" encoding="UTF-8"?>
<!DOCTYPE svg PUBLIC "-//W3C//DTD SVG 1.1//EN" "http://www.w3.org/Graphics/SVG/1.1/DTD/svg11.dtd">
<svg xmlns="http://www.w3.org/2000/svg" version="1.1" width="512px" height="512px" style="shape-rendering:geometricPrecision; text-rendering:geometricPrecision; image-rendering:optimizeQuality; fill-rule:evenodd; clip-rule:evenodd" xmlns:xlink="http://www.w3.org/1999/xlink">
<g><path style="opacity:0.946" fill="#000000" d="M 511.5,156.5 C 511.5,161.833 511.5,167.167 511.5,172.5C 504.999,179.133 498.499,179.133 492,172.5C 486.736,116.06 457.902,77.5601 405.5,57C 348.053,41.7052 300.886,57.2052 264,103.5C 243.766,133.333 237.1,166 244,201.5C 246.339,211.347 249.172,221.013 252.5,230.5C 252.406,232.923 251.906,235.256 251,237.5C 245.27,248.291 240.103,259.291 235.5,270.5C 251.837,270.333 268.17,270.5 284.5,271C 330.558,305.82 379.224,309.82 430.5,283C 447.441,272.059 461.774,258.392 473.5,242C 483.686,239.17 488.853,243.003 489,253.5C 463.912,293.318 427.745,315.818 380.5,321C 341.879,324.345 307.212,314.345 276.5,291C 255.5,290.667 234.5,290.333 213.5,290C 207.607,286.179 206.107,281.012 209,274.5C 216.575,259.85 223.742,245.016 230.5,230C 212.595,180.68 218.095,134.18 247,90.5C 284.014,42.9236 332.514,23.4236 392.5,32C 459.342,47.6724 499.009,89.1724 511.5,156.5 Z M 321.5,121.5 C 338.24,121.059 344.074,128.726 339,144.5C 332.467,152.195 324.967,153.361 316.5,148C 307.892,137.261 309.559,128.427 321.5,121.5 Z"/></g>
<g><path style="opacity:0.947" fill="#000000" d="M 109.5,55.5 C 114.9,54.7849 119.4,56.4515 123,60.5C 148.667,90.8333 174.333,121.167 200,151.5C 201.581,157.062 200.081,161.562 195.5,165C 183.242,166.439 170.909,166.939 158.5,166.5C 158.983,206.894 158.483,247.228 157,287.5C 155.269,289.617 153.102,291.117 150.5,292C 125.833,292.667 101.167,292.667 76.5,292C 72.8879,291.111 70.3879,288.945 69,285.5C 68.5,245.835 68.3333,206.168 68.5,166.5C 56.0915,166.939 43.7581,166.439 31.5,165C 28.0108,163.029 26.0108,160.029 25.5,156C 26.2489,154.266 26.7489,152.433 27,150.5C 54.0208,118.32 81.5208,86.6531 109.5,55.5 Z M 112.5,82.5 C 130.821,102.826 148.821,123.493 166.5,144.5C 158.855,145.331 151.188,145.831 143.5,146C 141,147.167 139.167,149 138,151.5C 137.5,191.499 137.333,231.499 137.5,271.5C 121.5,271.5 105.5,271.5 89.5,271.5C 89.6667,232.165 89.5,192.832 89,153.5C 88.496,149.98 86.6626,147.48 83.5,146C 75.5,145.667 67.5,145.333 59.5,145C 77.7524,124.588 95.4191,103.754 112.5,82.5 Z"/></g>
<g><path style="opacity:0.944" fill="#000000" d="M 317.5,100.5 C 340.022,97.8344 354.855,107.168 362,128.5C 364.441,151.481 354.607,165.981 332.5,172C 311.594,174.073 297.761,165.24 291,145.5C 287.518,123.117 296.352,108.117 317.5,100.5 Z M 321.5,121.5 C 309.559,128.427 307.892,137.261 316.5,148C 324.967,153.361 332.467,152.195 339,144.5C 344.074,128.726 338.24,121.059 321.5,121.5 Z"/></g>
<g><path style="opacity:0.933" fill="#000000" d="M 416.5,103.5 C 427.654,103.479 431.82,108.813 429,119.5C 392.5,162.667 356,205.833 319.5,249C 308.665,251.83 303.499,247.664 304,236.5C 304.667,235.167 305.333,233.833 306,232.5C 339.376,193.459 372.376,154.126 405,114.5C 408.422,110.234 412.256,106.567 416.5,103.5 Z"/></g>
<g><path style="opacity:0.944" fill="#000000" d="M 400.5,181.5 C 432.217,182.949 445.383,199.282 440,230.5C 429.467,251.511 412.967,258.345 390.5,251C 373.686,242.205 366.853,228.372 370,209.5C 374.848,194.333 385.014,185 400.5,181.5 Z M 402.5,202.5 C 413.176,202.488 419.51,207.655 421.5,218C 417.851,231.992 409.517,235.992 396.5,230C 388.279,221.326 388.612,212.993 397.5,205C 399.315,204.243 400.981,203.41 402.5,202.5 Z"/></g>
<g><path style="opacity:0.884" fill="#000000" d="M 495.5,200.5 C 506.695,202.249 509.862,208.249 505,218.5C 501.319,221.36 497.152,222.193 492.5,221C 486.614,217.194 485.114,212.028 488,205.5C 489.913,202.72 492.413,201.053 495.5,200.5 Z"/></g>
<g><path style="opacity:0.955" fill="#000000" d="M -0.5,463.5 C -0.5,452.833 -0.5,442.167 -0.5,431.5C 0.669824,428.998 2.00316,426.498 3.5,424C 2.00316,421.502 0.669824,419.002 -0.5,416.5C -0.5,405.833 -0.5,395.167 -0.5,384.5C 3.15774,375.349 9.82441,369.515 19.5,367C 55.4985,366.5 91.4985,366.333 127.5,366.5C 127.334,357.161 127.5,347.827 128,338.5C 131.048,328.118 137.881,321.951 148.5,320C 166.167,319.833 183.833,319.667 201.5,319.5C 220.549,319.358 239.549,319.858 258.5,321C 267.07,323.904 272.57,329.737 275,338.5C 275.667,348.5 275.667,358.5 275,368.5C 273.971,371.39 272.805,374.224 271.5,377C 272.805,379.776 273.971,382.61 275,385.5C 275.5,394.827 275.666,404.161 275.5,413.5C 311.502,413.333 347.502,413.5 383.5,414C 392.688,416.168 398.855,421.668 402,430.5C 403.562,440.439 403.895,450.439 403,460.5C 400.5,471.667 393.667,478.5 382.5,481C 346.833,481.667 311.167,481.667 275.5,481C 271.705,480.186 268.205,478.686 265,476.5C 261.951,478.964 258.451,480.464 254.5,481C 219.167,481.667 183.833,481.667 148.5,481C 144.549,480.464 141.049,478.964 138,476.5C 134.795,478.686 131.295,480.186 127.5,481C 91.8333,481.667 56.1667,481.667 20.5,481C 10.2634,478.921 3.26343,473.088 -0.5,463.5 Z M 151.5,340.5 C 184.835,340.333 218.168,340.5 251.5,341C 252.416,341.374 253.25,341.874 254,342.5C 254.667,349.833 254.667,357.167 254,364.5C 253.5,365 253,365.5 252.5,366C 218.5,366.667 184.5,366.667 150.5,366C 150,365.5 149.5,365 149,364.5C 148.333,357.167 148.333,349.833 149,342.5C 149.995,341.934 150.828,341.267 151.5,340.5 Z M 22.5,387.5 C 56.5016,387.333 90.5016,387.5 124.5,388C 125.701,388.903 126.535,390.069 127,391.5C 127.667,397.5 127.667,403.5 127,409.5C 126.535,410.931 125.701,412.097 124.5,413C 90.5,413.667 56.5,413.667 22.5,413C 22,412.5 21.5,412 21,411.5C 20.3333,404.167 20.3333,396.833 21,389.5C 21.7172,388.956 22.2172,388.289 22.5,387.5 Z M 151.5,387.5 C 184.835,387.333 218.168,387.5 251.5,388C 252.416,388.374 253.25,388.874 254,389.5C 254.667,396.833 254.667,404.167 254,411.5C 253.25,412.126 252.416,412.626 251.5,413C 218.167,413.667 184.833,413.667 151.5,413C 150.584,412.626 149.75,412.126 149,411.5C 148.333,404.167 148.333,396.833 149,389.5C 149.995,388.934 150.828,388.267 151.5,387.5 Z M 22.5,434.5 C 56.5016,434.333 90.5016,434.5 124.5,435C 125.333,435.833 126.167,436.667 127,437.5C 127.667,443.833 127.667,450.167 127,456.5C 126.535,457.931 125.701,459.097 124.5,460C 90.8333,460.667 57.1667,460.667 23.5,460C 22.5838,459.626 21.7504,459.126 21,458.5C 20.3333,451.167 20.3333,443.833 21,436.5C 21.7172,435.956 22.2172,435.289 22.5,434.5 Z M 150.5,434.5 C 184.502,434.333 218.502,434.5 252.5,435C 253,435.5 253.5,436 254,436.5C 254.667,443.833 254.667,451.167 254,458.5C 253.25,459.126 252.416,459.626 251.5,460C 218.167,460.667 184.833,460.667 151.5,460C 150.584,459.626 149.75,459.126 149,458.5C 148.333,451.167 148.333,443.833 149,436.5C 149.717,435.956 150.217,435.289 150.5,434.5 Z M 278.5,434.5 C 312.168,434.333 345.835,434.5 379.5,435C 380.667,435.5 381.5,436.333 382,437.5C 382.667,444.167 382.667,450.833 382,457.5C 381.167,458.333 380.333,459.167 379.5,460C 345.833,460.667 312.167,460.667 278.5,460C 277.299,459.097 276.465,457.931 276,456.5C 275.333,450.5 275.333,444.5 276,438.5C 276.662,437.016 277.496,435.683 278.5,434.5 Z"/></g>
</svg>
