<?xml version="1.0" standalone="no"?>
<!DOCTYPE svg PUBLIC "-//W3C//DTD SVG 20010904//EN"
 "http://www.w3.org/TR/2001/REC-SVG-20010904/DTD/svg10.dtd">
<svg version="1.0" xmlns="http://www.w3.org/2000/svg"
 width="96.000000pt" height="96.000000pt" viewBox="0 0 96.000000 96.000000"
 preserveAspectRatio="xMidYMid meet">

<g transform="translate(0.000000,96.000000) scale(0.100000,-0.100000)"
fill="#000000" stroke="none">
<path d="M251 906 c-49 -27 -50 -36 -51 -424 0 -394 1 -406 55 -430 40 -18
417 -16 454 2 49 26 51 40 51 426 0 386 -2 400 -51 426 -39 19 -422 20 -458 0z
m429 -386 l0 -280 -200 0 -200 0 0 280 0 280 200 0 200 0 0 -280z m-165 -360
c0 -33 -2 -35 -35 -35 -29 0 -36 4 -38 23 -6 40 5 54 40 50 30 -3 33 -6 33
-38z"/>
<path d="M332 628 c-16 -16 -16 -200 0 -216 17 -17 279 -17 296 0 16 16 16
200 0 216 -7 7 -34 12 -60 12 l-48 0 0 -40 0 -40 -40 0 -40 0 0 40 0 40 -48 0
c-26 0 -53 -5 -60 -12z"/>
</g>
</svg>
