<?xml version="1.0" standalone="no"?>
<!DOCTYPE svg PUBLIC "-//W3C//DTD SVG 20010904//EN"
 "http://www.w3.org/TR/2001/REC-SVG-20010904/DTD/svg10.dtd">
<svg version="1.0" xmlns="http://www.w3.org/2000/svg"
 width="96.000000pt" height="96.000000pt" viewBox="0 0 96.000000 96.000000"
 preserveAspectRatio="xMidYMid meet">

<g transform="translate(0.000000,96.000000) scale(0.100000,-0.100000)"
fill="#000000" stroke="none">
<path d="M395 800 l-80 -80 63 0 62 0 0 -40 0 -40 40 0 c40 0 40 0 40 40 l0
39 55 3 56 3 -78 78 -78 77 -80 -80z"/>
<path d="M92 548 c-17 -17 -17 -439 0 -456 17 -17 759 -17 776 0 17 17 17 439
0 456 -17 17 -759 17 -776 0z m688 -88 c18 -18 20 -33 20 -140 0 -173 26 -160
-320 -160 -346 0 -320 -13 -320 160 0 100 3 123 18 139 16 18 34 19 300 20
269 1 283 0 302 -19z"/>
<path d="M435 431 c-45 -20 -70 -60 -70 -112 0 -42 5 -53 33 -81 47 -48 117
-48 164 0 28 28 33 39 33 82 0 42 -5 54 -31 81 -33 33 -92 46 -129 30z"/>
<path d="M250 345 c-15 -18 -10 -45 13 -59 34 -22 73 27 47 59 -16 19 -44 19
-60 0z"/>
<path d="M650 345 c-26 -32 13 -81 48 -59 22 14 27 41 12 59 -16 19 -44 19
-60 0z"/>
</g>
</svg>
