<?xml version="1.0" standalone="no"?>
<!DOCTYPE svg PUBLIC "-//W3C//DTD SVG 20010904//EN"
 "http://www.w3.org/TR/2001/REC-SVG-20010904/DTD/svg10.dtd">
<svg version="1.0" xmlns="http://www.w3.org/2000/svg"
 width="96.000000pt" height="96.000000pt" viewBox="0 0 96.000000 96.000000"
 preserveAspectRatio="xMidYMid meet">

<g transform="translate(0.000000,96.000000) scale(0.100000,-0.100000)"
fill="#000000" stroke="none">
<path d="M355 911 c-44 -19 -70 -60 -70 -110 0 -73 12 -81 115 -81 103 0 115
8 115 81 0 41 -5 54 -31 80 -33 33 -92 46 -129 30z"/>
<path d="M739 683 l-57 -34 -47 23 -47 23 -20 -28 -20 -27 -148 0 c-119 0
-150 3 -160 15 -7 8 -16 15 -21 15 -17 0 -97 -81 -109 -110 -7 -17 -24 -36
-39 -43 -32 -15 -39 -50 -13 -69 11 -7 23 -29 27 -48 4 -19 14 -48 22 -64 8
-15 23 -75 32 -133 11 -62 24 -109 32 -114 8 -5 40 -9 71 -9 58 0 88 16 88 47
0 11 5 13 18 8 9 -4 57 -9 106 -11 76 -3 91 -6 103 -24 12 -16 25 -20 77 -20
76 0 91 13 82 66 -7 33 -4 39 43 85 37 36 58 49 79 49 38 0 47 12 62 81 16 70
12 80 -30 94 -25 8 -41 24 -58 56 -12 24 -27 48 -31 52 -4 4 -2 31 6 60 7 29
12 61 11 73 -3 19 -6 19 -59 -13z m11 -218 c26 -32 -13 -81 -47 -59 -23 14
-28 41 -13 59 16 19 44 19 60 0z"/>
</g>
</svg>
