<?xml version="1.0" standalone="no"?>
<!DOCTYPE svg PUBLIC "-//W3C//DTD SVG 20010904//EN"
 "http://www.w3.org/TR/2001/REC-SVG-20010904/DTD/svg10.dtd">
<svg version="1.0" xmlns="http://www.w3.org/2000/svg"
 width="96.000000pt" height="96.000000pt" viewBox="0 0 96.000000 96.000000"
 preserveAspectRatio="xMidYMid meet">

<g transform="translate(0.000000,96.000000) scale(0.100000,-0.100000)"
fill="#000000" stroke="none">
<path d="M189 833 l-25 -77 -79 -27 c-47 -16 -74 -29 -65 -33 8 -3 44 -16 79
-28 l64 -23 28 -80 c16 -47 29 -74 33 -65 3 8 16 44 28 79 l23 65 78 25 c42
14 77 28 77 31 0 3 -35 17 -77 31 l-77 25 -25 77 c-14 42 -28 77 -31 77 -3 0
-17 -35 -31 -77z"/>
<path d="M571 642 c-24 -59 -49 -112 -55 -118 -6 -6 -59 -31 -118 -55 -59 -24
-108 -46 -108 -49 0 -3 49 -25 108 -49 59 -24 112 -49 118 -55 6 -6 31 -59 55
-118 24 -59 46 -108 49 -108 3 0 25 49 49 108 24 59 49 112 55 118 6 6 59 31
118 55 59 24 108 46 108 49 0 3 -49 25 -108 49 -59 24 -112 49 -118 55 -6 6
-31 59 -55 118 -24 59 -46 108 -49 108 -3 0 -25 -49 -49 -108z"/>
<path d="M199 263 c-13 -43 -18 -48 -64 -64 l-50 -17 30 -11 c17 -6 39 -15 49
-19 11 -5 27 -30 37 -58 18 -54 14 -56 47 27 7 19 22 29 56 39 25 7 46 16 46
20 0 3 -21 13 -47 21 -44 14 -48 18 -62 62 -8 26 -17 47 -21 47 -4 0 -13 -21
-21 -47z"/>
</g>
</svg>
