<svg width="82" height="82" viewBox="0 0 82 82" fill="none" xmlns="http://www.w3.org/2000/svg">
<path fill-rule="evenodd" clip-rule="evenodd" d="M17.5829 30.2772H58.0593C59.3644 30.2818 60.6147 30.8024 61.5376 31.7252C62.4604 32.6481 62.981 33.8984 62.9856 35.2035V41.0645H42.6915C41.3082 41.068 39.9827 41.6193 39.0048 42.5977C38.027 43.5761 37.4765 44.902 37.4737 46.2852V51.9784C37.4761 53.362 38.0264 54.6882 39.0043 55.6669C39.9822 56.6457 41.308 57.1971 42.6915 57.2006H62.9856V64.8175C62.9813 66.1228 62.4609 67.3733 61.538 68.2963C60.6151 69.2192 59.3645 69.7396 58.0593 69.7439H17.5829C14.1034 69.8189 11.6527 68.6915 11.4011 64.9883V30.5318C11.2892 26.0206 12.9877 21.995 16.4613 21.4063L16.7174 21.3518H31.1344L20.9579 25.9411H17.1664C16.2332 26.5563 15.7902 30.1359 17.577 30.2802L17.5829 30.2772ZM17.5417 65.2444C17.3608 65.2448 17.1875 65.3169 17.0597 65.4449C16.932 65.573 16.8602 65.7464 16.8602 65.9273C16.86 66.0169 16.8775 66.1057 16.9117 66.1886C16.9458 66.2714 16.996 66.3467 17.0593 66.4101C17.1226 66.4736 17.1978 66.5239 17.2806 66.5583C17.3633 66.5926 17.4521 66.6103 17.5417 66.6103H21.5467C21.6365 66.6105 21.7256 66.5929 21.8087 66.5587C21.8918 66.5245 21.9673 66.4743 22.031 66.4108C22.0947 66.3474 22.1453 66.2721 22.1799 66.1891C22.2145 66.1062 22.2323 66.0172 22.2325 65.9273C22.2323 65.8374 22.2145 65.7485 22.1799 65.6655C22.1453 65.5826 22.0947 65.5072 22.031 65.4438C21.9673 65.3804 21.8918 65.3301 21.8087 65.2959C21.7256 65.2617 21.6365 65.2442 21.5467 65.2444H17.5417ZM46.2681 45.5405C45.5575 45.5405 44.8629 45.7512 44.2721 46.146C43.6812 46.5408 43.2207 47.1019 42.9488 47.7584C42.6769 48.4149 42.6057 49.1373 42.7444 49.8342C42.883 50.5312 43.2252 51.1713 43.7276 51.6738C44.2301 52.1763 44.8703 52.5185 45.5672 52.6571C46.2642 52.7957 46.9865 52.7246 47.643 52.4526C48.2996 52.1807 48.8607 51.7202 49.2555 51.1294C49.6502 50.5385 49.861 49.8439 49.861 49.1333C49.8612 48.6614 49.7684 48.1942 49.5879 47.7582C49.4074 47.3222 49.1428 46.926 48.8091 46.5924C48.4754 46.2587 48.0793 45.994 47.6433 45.8136C47.2073 45.6331 46.74 45.5403 46.2681 45.5405ZM17.5417 34.6369C17.4521 34.6369 17.3633 34.6546 17.2806 34.6889C17.1978 34.7232 17.1226 34.7736 17.0593 34.837C16.996 34.9004 16.9458 34.9757 16.9117 35.0586C16.8775 35.1414 16.86 35.2302 16.8602 35.3198C16.8606 35.5006 16.9325 35.6738 17.0601 35.8018C17.1878 35.9297 17.3609 36.002 17.5417 36.0028H21.5467C21.7281 36.0028 21.9021 35.9309 22.0306 35.8029C22.1591 35.6749 22.2317 35.5012 22.2325 35.3198C22.2323 35.23 22.2145 35.141 22.1799 35.058C22.1453 34.9751 22.0947 34.8997 22.031 34.8363C21.9673 34.7729 21.8918 34.7226 21.8087 34.6884C21.7256 34.6542 21.6365 34.6367 21.5467 34.6369H17.5417ZM54.4179 34.6369C54.3281 34.6367 54.2391 34.6542 54.1561 34.6884C54.073 34.7227 53.9976 34.7729 53.934 34.8364C53.8704 34.8998 53.82 34.9752 53.7856 35.0581C53.7512 35.1411 53.7335 35.23 53.7335 35.3198C53.7338 35.5011 53.8061 35.6748 53.9344 35.8028C54.0628 35.9309 54.2366 36.0028 54.4179 36.0028H58.4243C58.6053 36.002 58.7787 35.9298 58.9069 35.802C59.035 35.6741 59.1075 35.5009 59.1087 35.3198C59.1079 35.1387 59.0355 34.9652 58.9073 34.8373C58.7791 34.7093 58.6054 34.6373 58.4243 34.6369H54.4179ZM47.0909 34.6369C46.9097 34.6369 46.7358 34.7088 46.6075 34.8368C46.4792 34.9649 46.4069 35.1386 46.4065 35.3198C46.4073 35.501 46.4797 35.6745 46.6079 35.8024C46.7361 35.9304 46.9098 36.0024 47.0909 36.0028H51.0973C51.2784 36.002 51.4518 35.9298 51.5799 35.802C51.7081 35.6741 51.7806 35.5009 51.7818 35.3198C51.781 35.1387 51.7086 34.9652 51.5803 34.8373C51.4521 34.7093 51.2785 34.6373 51.0973 34.6369H47.0909ZM40.0083 34.6369C39.9188 34.6371 39.8302 34.6549 39.7476 34.6893C39.665 34.7237 39.59 34.7741 39.5268 34.8375C39.4637 34.9009 39.4137 34.9762 39.3796 35.0589C39.3455 35.1417 39.3281 35.2303 39.3283 35.3198C39.3287 35.5003 39.4003 35.6734 39.5277 35.8013C39.6551 35.9292 39.8278 36.0016 40.0083 36.0028H44.0177C44.1982 36.0012 44.3708 35.9287 44.4983 35.8009C44.6259 35.6732 44.698 35.5003 44.6991 35.3198C44.6987 35.1391 44.6269 34.9658 44.4992 34.8379C44.3715 34.7099 44.1984 34.6377 44.0177 34.6369H40.0083ZM32.6843 34.6369C32.5944 34.6367 32.5055 34.6542 32.4225 34.6884C32.3394 34.7227 32.264 34.7729 32.2004 34.8364C32.1368 34.8998 32.0864 34.9752 32.052 35.0581C32.0176 35.1411 31.9998 35.23 31.9998 35.3198C32.0002 35.5011 32.0725 35.6748 32.2008 35.8028C32.3291 35.9309 32.503 36.0028 32.6843 36.0028H36.6907C36.8717 36.002 37.0451 35.9298 37.1733 35.802C37.3014 35.6741 37.374 35.5009 37.3751 35.3198C37.3743 35.1387 37.3019 34.9652 37.1737 34.8373C37.0455 34.7093 36.8718 34.6373 36.6907 34.6369H32.6843ZM24.8686 34.6369C24.6878 34.6373 24.5144 34.7094 24.3867 34.8374C24.2589 34.9655 24.1872 35.139 24.1872 35.3198C24.1876 35.5006 24.2594 35.6738 24.3871 35.8018C24.5148 35.9297 24.6879 36.002 24.8686 36.0028H28.8751C29.0561 36.002 29.2295 35.9298 29.3577 35.802C29.4858 35.6741 29.5583 35.5009 29.5595 35.3198C29.5587 35.1387 29.4863 34.9652 29.3581 34.8373C29.2299 34.7093 29.0562 34.6373 28.8751 34.6369H24.8686ZM16.3716 37.9C16.3708 37.7187 16.2984 37.5451 16.1702 37.4169C16.042 37.2887 15.8684 37.2164 15.6871 37.2156C15.5059 37.2164 15.3322 37.2887 15.204 37.4169C15.0758 37.5451 15.0035 37.7187 15.0027 37.9V41.9064C15.0035 42.0876 15.0759 42.2611 15.2041 42.389C15.3323 42.517 15.506 42.589 15.6871 42.5894C15.8683 42.589 16.0419 42.517 16.1701 42.389C16.2984 42.2611 16.3708 42.0876 16.3716 41.9064V37.9ZM16.3716 60.3651C16.3708 60.184 16.2984 60.0105 16.1701 59.8825C16.0419 59.7546 15.8683 59.6826 15.6871 59.6822C15.506 59.6826 15.3323 59.7546 15.2041 59.8825C15.0759 60.0105 15.0035 60.184 15.0027 60.3651V64.3715C15.0035 64.5527 15.0759 64.7262 15.2041 64.8541C15.3323 64.9821 15.506 65.0541 15.6871 65.0545C15.8683 65.0541 16.0419 64.9821 16.1701 64.8541C16.2984 64.7262 16.3708 64.5527 16.3716 64.3715V60.3651ZM16.3716 53.0397C16.3708 52.8584 16.2984 52.6847 16.1702 52.5565C16.042 52.4284 15.8684 52.356 15.6871 52.3552C15.5059 52.356 15.3322 52.4284 15.204 52.5565C15.0758 52.6847 15.0035 52.8584 15.0027 53.0397V57.0461C15.0035 57.2272 15.0759 57.4007 15.2041 57.5287C15.3323 57.6566 15.506 57.7286 15.6871 57.729C15.8683 57.7286 16.0419 57.6566 16.1701 57.5287C16.2984 57.4007 16.3708 57.2272 16.3716 57.0461V53.0397ZM16.3716 45.224C16.3704 45.0431 16.2978 44.87 16.1696 44.7424C16.0414 44.6148 15.868 44.5429 15.6871 44.5425C15.5063 44.5429 15.3328 44.6148 15.2046 44.7424C15.0764 44.87 15.0039 45.0431 15.0027 45.224V49.2305C15.0035 49.4117 15.0758 49.5854 15.204 49.7136C15.3322 49.8417 15.5059 49.9141 15.6871 49.9149C15.8684 49.9141 16.042 49.8417 16.1702 49.7136C16.2984 49.5854 16.3708 49.4117 16.3716 49.2305V45.224ZM54.4179 65.2414C54.2366 65.2414 54.0628 65.3133 53.9344 65.4414C53.8061 65.5694 53.7338 65.7431 53.7335 65.9244C53.7335 66.0142 53.7512 66.1031 53.7856 66.1861C53.82 66.269 53.8704 66.3444 53.934 66.4078C53.9976 66.4712 54.073 66.5215 54.1561 66.5558C54.2391 66.59 54.3281 66.6075 54.4179 66.6073H58.4243C58.6054 66.6069 58.7791 66.5349 58.9073 66.407C59.0355 66.279 59.1079 66.1055 59.1087 65.9244C59.1079 65.7432 59.0355 65.5698 58.9073 65.4418C58.7791 65.3139 58.6054 65.2418 58.4243 65.2414H54.4179ZM47.0909 65.2414C46.9098 65.2418 46.7361 65.3139 46.6079 65.4418C46.4797 65.5698 46.4073 65.7432 46.4065 65.9244C46.4069 66.1056 46.4792 66.2793 46.6075 66.4074C46.7358 66.5354 46.9097 66.6073 47.0909 66.6073H51.0973C51.2785 66.6069 51.4521 66.5349 51.5803 66.407C51.7086 66.279 51.781 66.1055 51.7818 65.9244C51.781 65.7432 51.7086 65.5698 51.5803 65.4418C51.4521 65.3139 51.2785 65.2418 51.0973 65.2414H47.0909ZM40.0083 65.2414C39.8277 65.2422 39.6547 65.3145 39.5273 65.4425C39.3998 65.5705 39.3283 65.7438 39.3283 65.9244C39.3281 66.0139 39.3455 66.1025 39.3796 66.1853C39.4137 66.268 39.4637 66.3433 39.5268 66.4067C39.59 66.4701 39.665 66.5205 39.7476 66.5549C39.8302 66.5893 39.9188 66.6071 40.0083 66.6073H44.0177C44.1984 66.6066 44.3715 66.5343 44.4992 66.4063C44.6269 66.2784 44.6987 66.1051 44.6991 65.9244C44.6984 65.7437 44.6263 65.5707 44.4988 65.4428C44.3712 65.315 44.1983 65.2426 44.0177 65.2414H40.0083ZM32.6843 65.2414C32.503 65.2414 32.3291 65.3133 32.2008 65.4414C32.0725 65.5694 32.0002 65.7431 31.9998 65.9244C31.9998 66.0142 32.0176 66.1031 32.052 66.1861C32.0864 66.269 32.1368 66.3444 32.2004 66.4078C32.264 66.4712 32.3394 66.5215 32.4225 66.5558C32.5055 66.59 32.5944 66.6075 32.6843 66.6073H36.6907C36.8718 66.6069 37.0455 66.5349 37.1737 66.407C37.3019 66.279 37.3743 66.1055 37.3751 65.9244C37.3743 65.7432 37.3019 65.5698 37.1737 65.4418C37.0455 65.3139 36.8718 65.2418 36.6907 65.2414H32.6843ZM24.8686 65.2414C24.6879 65.2422 24.5148 65.3145 24.3871 65.4424C24.2594 65.5704 24.1876 65.7436 24.1872 65.9244C24.1872 66.1053 24.2589 66.2787 24.3867 66.4068C24.5144 66.5348 24.6878 66.6069 24.8686 66.6073H28.8751C29.0562 66.6069 29.2299 66.5349 29.3581 66.407C29.4863 66.279 29.5587 66.1055 29.5595 65.9244C29.5587 65.7432 29.4863 65.5698 29.3581 65.4418C29.2299 65.3139 29.0562 65.2418 28.8751 65.2414H24.8686ZM17.6285 28.7008L25.5222 28.848L57.7782 15.7145L66.995 36.5474L64.5826 37.8411L64.6253 41.7519L71.3959 37.9986L60.2465 12.8047L59.5723 11.2769L58.0269 11.9053L17.6285 28.7008ZM64.481 43.3636H42.6974C41.923 43.3686 41.1818 43.6786 40.6344 44.2263C40.087 44.774 39.7774 45.5153 39.7728 46.2897V51.9828C39.7774 52.7572 40.087 53.4986 40.6344 54.0463C41.1818 54.594 41.923 54.9039 42.6974 54.9089H64.481V43.3636Z" fill="url(#paint0_linear_808_17935)"/>
<defs>
<linearGradient id="paint0_linear_808_17935" x1="70.3227" y1="68.4792" x2="70.3227" y2="11.2769" gradientUnits="userSpaceOnUse">
<stop stop-color="#002D85"/>
<stop offset="1" stop-color="#013AA9"/>
</linearGradient>
</defs>
</svg>
