<svg width="81" height="80" viewBox="0 0 81 80" fill="none" xmlns="http://www.w3.org/2000/svg">
<path fill-rule="evenodd" clip-rule="evenodd" d="M58.7995 36.4435V35.1885C58.8552 34.3081 58.769 33.4244 58.5442 32.5713C58.4479 32.3617 58.287 32.1884 58.0852 32.0767C57.8833 31.965 57.651 31.9209 57.4222 31.9507C57.2179 31.9378 57.0141 31.9808 56.8324 32.075C56.6507 32.1691 56.498 32.311 56.3907 32.4853C56.1239 32.9762 56.0039 33.5334 56.0449 34.0906C55.9548 34.9797 56.2058 35.8698 56.7471 36.5809C58.0264 37.6205 59.3938 38.5467 60.8337 39.3491C62.2076 40.1389 63.5202 41.0309 64.7602 42.0176C65.5356 42.7532 66.1398 43.6504 66.5302 44.6454C67.0436 45.9942 67.2853 47.4313 67.2414 48.8739C67.3753 51.1514 66.689 53.4015 65.3069 55.2167C63.7797 56.865 61.6899 57.8807 59.4504 58.0634V60.9056H55.9618V57.9909C53.987 57.8108 52.1257 56.9886 50.6625 55.6501C49.1523 54.3 48.3973 51.9335 48.3973 48.5522V47.0738H55.9603V48.9252C55.9011 50.1922 55.9811 51.4618 56.1989 52.7113C56.2685 52.9468 56.4192 53.1502 56.6242 53.2853C56.8293 53.4205 57.0756 53.4787 57.3195 53.4498C57.5383 53.4638 57.7572 53.4247 57.9575 53.3358C58.1579 53.2469 58.3338 53.1109 58.4703 52.9393C58.7521 52.4806 58.8826 51.9449 58.8433 51.408C58.896 50.1837 58.7766 48.958 58.4884 47.7669C57.958 46.7263 57.1028 45.887 56.0524 45.3763C54.4267 44.3935 52.8525 43.328 51.3361 42.1837C50.4209 41.3894 49.6892 40.4058 49.1916 39.3008C48.568 37.9943 48.2577 36.5604 48.2855 35.113C48.23 34.1418 48.372 33.1695 48.703 32.2548C49.0339 31.34 49.547 30.5019 50.211 29.7911C51.8035 28.3675 53.8335 27.5291 55.9664 27.414V24.9977H59.461V27.414C61.4352 27.5474 63.2975 28.3787 64.7149 29.7593C65.9384 31.2292 66.5585 33.1086 66.4501 35.0179C66.4501 35.3199 66.4305 35.8017 66.3761 36.4359L58.7995 36.4435ZM44.5327 32.5034H29.5334C28.881 32.5194 28.2607 32.7899 27.8049 33.257C27.3491 33.7241 27.094 34.3509 27.094 35.0035C27.094 35.6561 27.3491 36.2829 27.8049 36.75C28.2607 37.2171 28.881 37.4876 29.5334 37.5036H44.5327C45.1851 37.4876 45.8054 37.2171 46.2612 36.75C46.717 36.2829 46.9721 35.6561 46.9721 35.0035C46.9721 34.3509 46.717 33.7241 46.2612 33.257C45.8054 32.7899 45.1851 32.5194 44.5327 32.5034ZM44.5327 42.5024H29.5334C28.881 42.5184 28.2607 42.7888 27.8049 43.256C27.3491 43.7231 27.094 44.3499 27.094 45.0025C27.094 45.6551 27.3491 46.2819 27.8049 46.749C28.2607 47.2161 28.881 47.4866 29.5334 47.5026H44.5327C45.1851 47.4866 45.8054 47.2161 46.2612 46.749C46.717 46.2819 46.9721 45.6551 46.9721 45.0025C46.9721 44.3499 46.717 43.7231 46.2612 43.256C45.8054 42.7888 45.1851 42.5184 44.5327 42.5024ZM34.5337 51.9819H29.5334C28.8706 51.9819 28.2348 52.2452 27.7661 52.7139C27.2974 53.1826 27.0341 53.8184 27.0341 54.4812C27.0341 55.1441 27.2974 55.7798 27.7661 56.2486C28.2348 56.7173 28.8706 56.9806 29.5334 56.9806H34.5337C35.1966 56.9806 35.8323 56.7173 36.301 56.2486C36.7697 55.7798 37.0331 55.1441 37.0331 54.4812C37.0331 53.8184 36.7697 53.1826 36.301 52.7139C35.8323 52.2452 35.1966 51.9819 34.5337 51.9819ZM59.5304 63.7765V67.5006C59.5304 68.1635 59.2671 68.7992 58.7984 69.2679C58.3296 69.7367 57.6939 70 57.031 70H17.0351C16.3721 70 15.7362 69.7367 15.2672 69.268C14.7983 68.7994 14.5346 68.1636 14.5342 67.5006V18.7485C14.5346 18.0855 14.7983 17.4498 15.2672 16.9811C15.7362 16.5125 16.3721 16.2492 17.0351 16.2492H24.6465C24.9428 14.5037 25.8467 12.9191 27.1984 11.7756C28.55 10.6321 30.2623 10.0032 32.0328 10H42.0318C43.8026 10.0025 45.5155 10.6312 46.8675 11.7748C48.2195 12.9184 49.1235 14.5033 49.4197 16.2492H57.031C57.6939 16.2492 58.3296 16.5125 58.7984 16.9812C59.2671 17.45 59.5304 18.0857 59.5304 18.7485V22.6751H54.5272V21.2494H49.5269V23.7503C49.5265 24.4131 49.263 25.0485 48.7944 25.5172C48.3258 25.9858 47.6903 26.2493 47.0275 26.2497H27.0341C26.3712 26.2493 25.7355 25.9859 25.2667 25.5173C24.7978 25.0487 24.534 24.4132 24.5332 23.7503V21.2494H19.5344V64.9967H54.5272V63.778L59.5304 63.7765ZM27.0341 23.9073H47.032V17.3033C47.0312 16.4196 46.6798 15.5723 46.0549 14.9474C45.4301 14.3225 44.5828 13.9711 43.6991 13.9703H30.3641C29.4803 13.9711 28.6331 14.3225 28.0082 14.9474C27.3833 15.5723 27.0319 16.4196 27.0311 17.3033L27.0341 23.9073Z" fill="url(#paint0_linear_808_17937)"/>
<defs>
<linearGradient id="paint0_linear_808_17937" x1="66.3149" y1="68.6986" x2="66.3149" y2="10" gradientUnits="userSpaceOnUse">
<stop stop-color="#002D85"/>
<stop offset="1" stop-color="#013AA9"/>
</linearGradient>
</defs>
</svg>
