<svg width="82" height="80" viewBox="0 0 82 80" fill="none" xmlns="http://www.w3.org/2000/svg">
<path fill-rule="evenodd" clip-rule="evenodd" d="M45.8647 37.7022C52.6664 37.7022 58.3652 32.1873 58.3652 25.2017C58.3652 18.3999 52.8503 12.7012 45.8647 12.7012C43.1072 12.7012 40.3497 13.6204 38.1438 15.2748C37.868 15.4587 37.6382 15.6884 37.4084 15.9182C37.1787 16.148 36.9489 16.3778 36.6731 16.5616C35.9378 17.2969 35.3863 18.0323 35.0186 18.9514C33.9157 20.7897 33.3642 22.9957 33.3642 25.2017C33.3642 32.1873 38.8791 37.7022 45.8647 37.7022ZM37.0408 20.2382C37.4085 19.5029 37.9599 18.9514 38.5114 18.3999L39.6144 17.2969C41.4527 15.8263 43.4749 15.091 45.8647 15.091C51.3796 15.091 55.9754 19.6868 55.9754 25.2017C55.9754 30.7166 51.3796 35.3124 45.8647 35.3124C40.3497 35.3124 35.754 30.7166 35.754 25.2017C35.754 23.5472 36.1216 21.7089 37.0408 20.2382ZM66.8211 34.7609C68.8432 34.7609 70.6815 36.0477 71.233 37.886C71.6007 39.3567 71.4168 41.0112 69.9462 41.9303L60.387 53.144C60.0193 53.5117 59.4678 54.0632 58.9163 54.4308C57.8133 55.35 56.5265 55.7176 55.0559 55.9015L53.7691 56.0853H53.0337H38.8787C37.9596 56.0853 36.8566 56.0853 35.9374 56.2691L33.9153 56.453C34.0991 56.8206 34.283 57.3721 34.283 57.9236C34.283 59.0266 33.7315 60.1296 32.9961 60.8649L27.1136 66.9313C27.0151 66.9805 26.9299 67.0297 26.8508 67.0754L26.8506 67.0755L26.8505 67.0756C26.6342 67.2005 26.4635 67.299 26.1944 67.299C26.0106 67.299 25.6429 67.1152 25.4591 66.9313L23.2531 64.9092C22.8854 64.5415 22.8854 63.8062 23.2531 63.2547C23.6208 62.8871 24.3561 62.8871 24.9076 63.2547L26.1944 64.5415L31.3417 59.2104C31.7093 58.8428 31.8932 58.4751 31.8932 57.9236C31.8932 57.3721 31.7093 57.0045 31.3417 56.6368L21.9663 47.6291C21.5986 47.2614 21.231 47.0776 20.6795 47.0776C20.128 47.0776 19.7603 47.2614 19.3926 47.6291L14.0615 53.144L18.1058 57.1883C18.4735 57.556 18.4735 58.2913 18.1058 58.8428C17.7382 59.2104 17.0028 59.2104 16.4514 58.8428L11.6717 54.0632C11.3041 53.6955 11.3041 52.9602 11.6717 52.4087L17.7382 46.1584C18.4735 45.4231 19.5765 44.8716 20.6795 44.8716C21.4148 44.8716 22.3339 45.0554 23.0693 45.6069C23.1655 45.4866 23.2649 45.36 23.3683 45.2283C24.0547 44.354 24.9163 43.2566 26.1944 42.298C29.6872 39.5405 33.7315 38.8052 37.9596 39.9082C39.6141 40.4597 41.2685 40.6435 43.1069 40.6435H52.6661C53.9529 40.6435 55.0559 41.195 55.975 42.1141C56.0669 42.2061 56.1589 42.3439 56.2508 42.4818C56.3427 42.6197 56.4346 42.7576 56.5265 42.8495L63.1444 36.2315C64.0636 35.3124 65.1666 34.7609 66.4534 34.7609H66.8211ZM58.9163 52.041L68.4755 40.8273C69.027 40.092 69.2109 39.3567 68.4755 38.6214C68.2917 37.7022 67.3726 37.1507 66.4534 37.1507H66.0857C65.3504 37.1507 64.7989 37.3345 64.2474 37.886L56.7104 45.4231C56.7104 46.5261 56.3427 47.4452 55.6074 48.3644C54.6882 49.4674 53.4014 50.0189 51.9307 50.0189H43.8422C43.2907 50.0189 42.7392 49.6512 42.7392 48.9159C42.7392 48.3644 43.1069 47.8129 43.8422 47.8129H51.9307C52.6661 47.8129 53.4014 47.4452 53.7691 46.8938C54.1367 46.3423 54.3205 45.7908 54.3205 45.2393V44.8716C54.3205 44.5039 54.1367 44.1363 53.7691 43.7686C53.4014 43.2171 52.6661 43.0333 52.1146 43.0333H42.7392C40.9009 43.0333 38.8787 42.8495 37.0404 42.298C33.5476 41.3788 30.2387 41.9303 27.4812 44.3201C26.2963 45.3358 25.4231 46.5074 24.8616 47.2606C24.8134 47.3254 24.7674 47.387 24.7238 47.4452L32.2608 54.6147L35.7536 54.247C36.8566 54.0632 37.9596 54.0632 39.0626 54.0632H53.2176H53.7691L55.0559 53.8793C56.1589 53.8793 57.078 53.5117 57.8133 52.9602C58.181 52.7763 58.5487 52.4087 58.9163 52.041ZM17.5545 53.1441C17.5545 51.4896 18.8413 50.019 20.6796 50.019C22.518 50.019 23.8048 51.3058 23.8048 53.1441C23.8048 54.7986 22.518 56.2692 20.6796 56.2692C19.0252 56.2692 17.5545 54.9824 17.5545 53.1441ZM19.7605 52.9603C19.7605 53.5118 20.312 53.8794 20.6796 53.8794C21.2311 53.8794 21.5988 53.5118 21.5988 52.9603C21.5988 52.4088 21.0473 52.0411 20.6796 52.0411C20.1281 52.0411 19.7605 52.5926 19.7605 52.9603ZM39.2464 47.8129C38.5111 47.9967 38.1434 48.5482 38.3272 49.2835C38.5111 49.835 38.8787 50.2027 39.4302 50.2027H39.6139C40.1654 50.0188 40.7169 49.4673 40.533 48.732C40.533 48.1805 39.9817 47.8129 39.2464 47.8129ZM19.5761 61.784C19.3923 61.0487 19.7599 60.4972 20.4953 60.3134C21.2306 60.1296 21.7821 60.6811 21.7821 61.2326C21.9659 61.9679 21.4144 62.5194 20.8629 62.7032H20.6791C20.1276 62.7032 19.7599 62.3355 19.5761 61.784ZM45.3132 29.6135C45.6809 29.6135 46.2323 29.6135 46.7838 29.2459C47.3353 28.8782 47.5192 28.5105 47.5192 27.959C47.5192 27.0399 46.0485 26.3046 45.6808 26.3046C44.394 26.3046 41.6366 25.3854 41.6366 22.6279C41.6366 20.422 43.1072 19.319 44.394 18.7675C44.394 18.216 44.7617 17.6645 45.497 17.6645C46.0485 17.6645 46.6 18.216 46.6 18.7675C47.3353 18.9513 47.8868 19.319 48.4383 19.8705C49.3575 20.6058 49.3575 21.525 49.3575 22.2603C49.3575 22.8118 48.806 23.3633 48.2545 23.3633C47.703 23.3633 47.1515 22.9956 47.1515 22.2603C47.1515 21.7088 47.1515 21.7088 46.9677 21.525C46.6 21.1573 46.2323 20.9735 45.8647 20.9735C45.8647 20.9735 44.2102 20.9735 44.2102 22.6279C44.2102 23.7309 45.8647 23.9148 45.8647 23.9148C47.1515 23.9148 49.909 25.3854 49.909 27.959C49.909 30.165 48.4383 31.4518 46.7838 31.8195C46.7838 32.371 46.2323 32.9225 45.6808 32.9225C45.1294 32.9225 44.5779 32.371 44.5779 31.8195C42.9234 31.268 41.6366 29.6135 41.6366 27.5914C41.6366 27.0399 42.0042 26.4884 42.7395 26.4884C43.291 26.4884 43.8425 26.8561 43.8425 27.5914C43.8425 28.6944 44.5779 29.6135 45.3132 29.6135Z" fill="url(#paint0_linear_808_17939)"/>
<defs>
<linearGradient id="paint0_linear_808_17939" x1="70.3229" y1="66.1148" x2="70.3229" y2="12.7012" gradientUnits="userSpaceOnUse">
<stop stop-color="#002D85"/>
<stop offset="1" stop-color="#013AA9"/>
</linearGradient>
</defs>
</svg>
