<svg width="81" height="80" viewBox="0 0 81 80" fill="none" xmlns="http://www.w3.org/2000/svg">
<path fill-rule="evenodd" clip-rule="evenodd" d="M44.9687 37.7022C51.7704 37.7022 57.4692 32.1873 57.4692 25.2017C57.4692 18.3999 51.9543 12.7012 44.9687 12.7012C42.2112 12.7012 39.4538 13.6204 37.2478 15.2748C36.972 15.4587 36.7422 15.6884 36.5125 15.9182C36.2827 16.148 36.0529 16.3778 35.7771 16.5616C35.0418 17.2969 34.4903 18.0323 34.1227 18.9514C33.0197 20.7897 32.4682 22.9957 32.4682 25.2017C32.4682 32.1873 37.9831 37.7022 44.9687 37.7022ZM36.1448 20.2382C36.5125 19.5029 37.0639 18.9514 37.6154 18.3999L38.7184 17.2969C40.5567 15.8263 42.5789 15.091 44.9687 15.091C50.4836 15.091 55.0794 19.6868 55.0794 25.2017C55.0794 30.7166 50.4836 35.3124 44.9687 35.3124C39.4538 35.3124 34.858 30.7166 34.858 25.2017C34.858 23.5472 35.2256 21.7089 36.1448 20.2382ZM65.9251 34.7609C67.9472 34.7609 69.7855 36.0477 70.337 37.886C70.7047 39.3567 70.5208 41.0112 69.0502 41.9303L59.491 53.144C59.1233 53.5117 58.5718 54.0632 58.0203 54.4308C56.9173 55.35 55.6305 55.7176 54.1599 55.9015L52.8731 56.0853H52.1377H37.9827C37.0636 56.0853 35.9606 56.0853 35.0414 56.2691L33.0193 56.453C33.2031 56.8206 33.387 57.3721 33.387 57.9236C33.387 59.0266 32.8355 60.1296 32.1002 60.8649L26.2176 66.9313C26.1192 66.9805 26.0339 67.0297 25.9548 67.0754L25.9546 67.0755L25.9545 67.0756C25.7382 67.2005 25.5675 67.299 25.2984 67.299C25.1146 67.299 24.7469 67.1152 24.5631 66.9313L22.3571 64.9092C21.9894 64.5415 21.9894 63.8062 22.3571 63.2547C22.7248 62.8871 23.4601 62.8871 24.0116 63.2547L25.2984 64.5415L30.4457 59.2104C30.8133 58.8428 30.9972 58.4751 30.9972 57.9236C30.9972 57.3721 30.8133 57.0045 30.4457 56.6368L21.0703 47.6291C20.7026 47.2614 20.335 47.0776 19.7835 47.0776C19.232 47.0776 18.8643 47.2614 18.4967 47.6291L13.1656 53.144L17.2098 57.1883C17.5775 57.556 17.5775 58.2913 17.2098 58.8428C16.8422 59.2104 16.1068 59.2104 15.5554 58.8428L10.7757 54.0632C10.4081 53.6955 10.4081 52.9602 10.7757 52.4087L16.8422 46.1584C17.5775 45.4231 18.6805 44.8716 19.7835 44.8716C20.5188 44.8716 21.438 45.0554 22.1733 45.6069C22.2695 45.4866 22.369 45.36 22.4723 45.2283C23.1587 44.354 24.0203 43.2566 25.2984 42.298C28.7912 39.5405 32.8355 38.8052 37.0636 39.9082C38.7181 40.4597 40.3725 40.6435 42.2109 40.6435H51.7701C53.0569 40.6435 54.1599 41.195 55.079 42.1141C55.171 42.2061 55.2629 42.3439 55.3548 42.4818C55.4467 42.6197 55.5386 42.7576 55.6305 42.8495L62.2485 36.2315C63.1676 35.3124 64.2706 34.7609 65.5574 34.7609H65.9251ZM58.0203 52.041L67.5795 40.8273C68.131 40.092 68.3149 39.3567 67.5795 38.6214C67.3957 37.7022 66.4766 37.1507 65.5574 37.1507H65.1897C64.4544 37.1507 63.9029 37.3345 63.3514 37.886L55.8144 45.4231C55.8144 46.5261 55.4467 47.4452 54.7114 48.3644C53.7922 49.4674 52.5054 50.0189 51.0347 50.0189H42.9462C42.3947 50.0189 41.8432 49.6512 41.8432 48.9159C41.8432 48.3644 42.2109 47.8129 42.9462 47.8129H51.0347C51.7701 47.8129 52.5054 47.4452 52.8731 46.8938C53.2407 46.3423 53.4246 45.7908 53.4246 45.2393V44.8716C53.4246 44.5039 53.2407 44.1363 52.8731 43.7686C52.5054 43.2171 51.7701 43.0333 51.2186 43.0333H41.8432C40.0049 43.0333 37.9827 42.8495 36.1444 42.298C32.6516 41.3788 29.3427 41.9303 26.5852 44.3201C25.4003 45.3358 24.5271 46.5074 23.9656 47.2606C23.9174 47.3254 23.8714 47.387 23.8278 47.4452L31.3648 54.6147L34.8576 54.247C35.9606 54.0632 37.0636 54.0632 38.1666 54.0632H52.3216H52.8731L54.1599 53.8793C55.2629 53.8793 56.182 53.5117 56.9173 52.9602C57.285 52.7763 57.6527 52.4087 58.0203 52.041ZM16.6585 53.1441C16.6585 51.4896 17.9453 50.019 19.7836 50.019C21.622 50.019 22.9088 51.3058 22.9088 53.1441C22.9088 54.7986 21.622 56.2692 19.7836 56.2692C18.1292 56.2692 16.6585 54.9824 16.6585 53.1441ZM18.8645 52.9603C18.8645 53.5118 19.416 53.8794 19.7836 53.8794C20.3351 53.8794 20.7028 53.5118 20.7028 52.9603C20.7028 52.4088 20.1513 52.0411 19.7836 52.0411C19.2322 52.0411 18.8645 52.5926 18.8645 52.9603ZM38.3504 47.8129C37.6151 47.9967 37.2474 48.5482 37.4312 49.2835C37.6151 49.835 37.9827 50.2027 38.5342 50.2027H38.7179C39.2694 50.0188 39.8209 49.4673 39.637 48.732C39.637 48.1805 39.0857 47.8129 38.3504 47.8129ZM18.6801 61.784C18.4963 61.0487 18.8639 60.4972 19.5993 60.3134C20.3346 60.1296 20.8861 60.6811 20.8861 61.2326C21.0699 61.9679 20.5184 62.5194 19.9669 62.7032H19.7831C19.2316 62.7032 18.8639 62.3355 18.6801 61.784ZM44.4172 29.6135C44.7849 29.6135 45.3363 29.6135 45.8878 29.2459C46.4393 28.8782 46.6232 28.5105 46.6232 27.959C46.6232 27.0399 45.1525 26.3046 44.7849 26.3046C43.498 26.3046 40.7406 25.3854 40.7406 22.6279C40.7406 20.422 42.2112 19.319 43.498 18.7675C43.498 18.216 43.8657 17.6645 44.601 17.6645C45.1525 17.6645 45.704 18.216 45.704 18.7675C46.4393 18.9513 46.9908 19.319 47.5423 19.8705C48.4615 20.6058 48.4615 21.525 48.4615 22.2603C48.4615 22.8118 47.91 23.3633 47.3585 23.3633C46.807 23.3633 46.2555 22.9956 46.2555 22.2603C46.2555 21.7088 46.2555 21.7088 46.0717 21.525C45.704 21.1573 45.3363 20.9735 44.9687 20.9735C44.9687 20.9735 43.3142 20.9735 43.3142 22.6279C43.3142 23.7309 44.9687 23.9148 44.9687 23.9148C46.2555 23.9148 49.013 25.3854 49.013 27.959C49.013 30.165 47.5423 31.4518 45.8878 31.8195C45.8878 32.371 45.3363 32.9225 44.7849 32.9225C44.2334 32.9225 43.6819 32.371 43.6819 31.8195C42.0274 31.268 40.7406 29.6135 40.7406 27.5914C40.7406 27.0399 41.1082 26.4884 41.8436 26.4884C42.395 26.4884 42.9465 26.8561 42.9465 27.5914C42.9465 28.6944 43.6819 29.6135 44.4172 29.6135Z" fill="url(#paint0_linear_720_19079)"/>
<defs>
<linearGradient id="paint0_linear_720_19079" x1="12.1605" y1="12.7012" x2="73.4355" y2="38.5726" gradientUnits="userSpaceOnUse">
<stop stop-color="#002D85"/>
<stop offset="1" stop-color="#DE0000"/>
</linearGradient>
</defs>
</svg>
