<svg width="81" height="82" viewBox="0 0 81 82" fill="none" xmlns="http://www.w3.org/2000/svg">
<path fill-rule="evenodd" clip-rule="evenodd" d="M16.687 30.2774H57.1634C58.4685 30.2821 59.7188 30.8026 60.6417 31.7255C61.5646 32.6483 62.0851 33.8987 62.0897 35.2038V41.0648H41.7956C40.4124 41.0683 39.0868 41.6195 38.1089 42.5979C37.1311 43.5763 36.5806 44.9022 36.5779 46.2855V51.9787C36.5802 53.3622 37.1305 54.6885 38.1084 55.6672C39.0863 56.6459 40.4121 57.1974 41.7956 57.2009H62.0897V64.8178C62.0855 66.123 61.5651 67.3736 60.6421 68.2965C59.7192 69.2195 58.4686 69.7399 57.1634 69.7441H16.687C13.2075 69.8192 10.7569 68.6917 10.5052 64.9885V30.5321C10.3933 26.0208 12.0919 21.9952 15.5655 21.4065L15.8216 21.352H30.2385L20.062 25.9413H16.2705C15.3373 26.5566 14.8943 30.1362 16.6811 30.2804L16.687 30.2774ZM16.6458 65.2446C16.4649 65.245 16.2916 65.3171 16.1638 65.4452C16.0361 65.5732 15.9643 65.7467 15.9643 65.9276C15.9641 66.0172 15.9816 66.106 16.0158 66.1888C16.05 66.2717 16.1001 66.347 16.1634 66.4104C16.2267 66.4738 16.3019 66.5242 16.3847 66.5585C16.4675 66.5928 16.5562 66.6105 16.6458 66.6105H20.6508C20.7407 66.6107 20.8297 66.5932 20.9128 66.559C20.9959 66.5248 21.0715 66.4745 21.1352 66.4111C21.1988 66.3477 21.2494 66.2723 21.284 66.1894C21.3186 66.1064 21.3365 66.0174 21.3367 65.9276C21.3365 65.8377 21.3186 65.7487 21.284 65.6658C21.2494 65.5828 21.1988 65.5075 21.1352 65.444C21.0715 65.3806 20.9959 65.3304 20.9128 65.2962C20.8297 65.2619 20.7407 65.2444 20.6508 65.2446H16.6458ZM45.3723 45.5407C44.6617 45.5407 43.967 45.7514 43.3762 46.1462C42.7854 46.541 42.3249 47.1021 42.0529 47.7586C41.781 48.4151 41.7098 49.1375 41.8485 49.8345C41.9871 50.5314 42.3293 51.1716 42.8318 51.6741C43.3342 52.1765 43.9744 52.5187 44.6713 52.6574C45.3683 52.796 46.0907 52.7248 46.7472 52.4529C47.4037 52.181 47.9648 51.7205 48.3596 51.1296C48.7544 50.5388 48.9651 49.8441 48.9651 49.1335C48.9653 48.6617 48.8725 48.1944 48.692 47.7584C48.5115 47.3224 48.2469 46.9263 47.9132 46.5926C47.5796 46.2589 47.1834 45.9943 46.7474 45.8138C46.3114 45.6333 45.8441 45.5405 45.3723 45.5407ZM16.6458 34.6371C16.5562 34.6371 16.4675 34.6548 16.3847 34.6891C16.3019 34.7235 16.2267 34.7738 16.1634 34.8373C16.1001 34.9007 16.05 34.976 16.0158 35.0588C15.9816 35.1417 15.9641 35.2305 15.9643 35.3201C15.9647 35.5008 16.0366 35.6741 16.1643 35.802C16.2919 35.93 16.4651 36.0022 16.6458 36.003H20.6508C20.8322 36.003 21.0062 35.9312 21.1347 35.8032C21.2633 35.6752 21.3359 35.5015 21.3367 35.3201C21.3365 35.2302 21.3186 35.1412 21.284 35.0583C21.2494 34.9753 21.1988 34.9 21.1352 34.8365C21.0715 34.7731 20.9959 34.7229 20.9128 34.6887C20.8297 34.6544 20.7407 34.6369 20.6508 34.6371H16.6458ZM53.522 34.6371C53.4322 34.6369 53.3432 34.6545 53.2602 34.6887C53.1772 34.7229 53.1017 34.7732 53.0381 34.8366C52.9745 34.9001 52.9241 34.9754 52.8897 35.0584C52.8553 35.1413 52.8376 35.2303 52.8376 35.3201C52.838 35.5013 52.9103 35.675 53.0386 35.8031C53.1669 35.9311 53.3407 36.003 53.522 36.003H57.5284C57.7094 36.0022 57.8829 35.9301 58.011 35.8022C58.1391 35.6744 58.2117 35.5011 58.2128 35.3201C58.2121 35.1389 58.1396 34.9655 58.0114 34.8375C57.8832 34.7095 57.7096 34.6375 57.5284 34.6371H53.522ZM46.195 34.6371C46.0138 34.6371 45.8399 34.709 45.7116 34.8371C45.5833 34.9651 45.511 35.1388 45.5106 35.3201C45.5114 35.5012 45.5838 35.6747 45.712 35.8026C45.8402 35.9306 46.0139 36.0026 46.195 36.003H50.2015C50.3825 36.0022 50.5559 35.9301 50.684 35.8022C50.8122 35.6744 50.8847 35.5011 50.8859 35.3201C50.8851 35.1389 50.8127 34.9655 50.6845 34.8375C50.5562 34.7095 50.3826 34.6375 50.2015 34.6371H46.195ZM39.1124 34.6371C39.0229 34.6373 38.9343 34.6551 38.8517 34.6896C38.7691 34.724 38.6941 34.7744 38.631 34.8378C38.5678 34.9012 38.5178 34.9764 38.4837 35.0592C38.4497 35.1419 38.4322 35.2306 38.4324 35.3201C38.4328 35.5006 38.5045 35.6736 38.6318 35.8015C38.7592 35.9294 38.9319 36.0018 39.1124 36.003H43.1218C43.3023 36.0015 43.475 35.929 43.6025 35.8012C43.73 35.6734 43.8021 35.5006 43.8033 35.3201C43.8029 35.1393 43.731 34.9661 43.6033 34.8381C43.4756 34.7102 43.3025 34.6379 43.1218 34.6371H39.1124ZM31.7884 34.6371C31.6986 34.6369 31.6096 34.6545 31.5266 34.6887C31.4436 34.7229 31.3681 34.7732 31.3045 34.8366C31.241 34.9001 31.1905 34.9754 31.1561 35.0584C31.1217 35.1413 31.104 35.2303 31.104 35.3201C31.1044 35.5013 31.1766 35.675 31.305 35.8031C31.4333 35.9311 31.6071 36.003 31.7884 36.003H35.7948C35.9758 36.0022 36.1493 35.9301 36.2774 35.8022C36.4056 35.6744 36.4781 35.5011 36.4792 35.3201C36.4785 35.1389 36.4061 34.9655 36.2778 34.8375C36.1496 34.7095 35.976 34.6375 35.7948 34.6371H31.7884ZM23.9728 34.6371C23.7919 34.6375 23.6186 34.7096 23.4908 34.8377C23.363 34.9657 23.2913 35.1392 23.2913 35.3201C23.2917 35.5008 23.3636 35.6741 23.4912 35.802C23.6189 35.93 23.792 36.0022 23.9728 36.003H27.9792C28.1602 36.0022 28.3336 35.9301 28.4618 35.8022C28.5899 35.6744 28.6625 35.5011 28.6636 35.3201C28.6629 35.1389 28.5904 34.9655 28.4622 34.8375C28.334 34.7095 28.1603 34.6375 27.9792 34.6371H23.9728ZM15.4757 37.9002C15.4749 37.719 15.4025 37.5453 15.2744 37.4172C15.1462 37.289 14.9725 37.2166 14.7913 37.2158C14.61 37.2166 14.4363 37.289 14.3082 37.4172C14.18 37.5453 14.1076 37.719 14.1068 37.9002V41.9067C14.1076 42.0878 14.18 42.2613 14.3082 42.3893C14.4365 42.5172 14.6101 42.5892 14.7913 42.5896C14.9724 42.5892 15.146 42.5172 15.2743 42.3893C15.4025 42.2613 15.4749 42.0878 15.4757 41.9067V37.9002ZM15.4757 60.3654C15.4749 60.1842 15.4025 60.0107 15.2743 59.8828C15.146 59.7548 14.9724 59.6828 14.7913 59.6824C14.6101 59.6828 14.4365 59.7548 14.3082 59.8828C14.18 60.0107 14.1076 60.1842 14.1068 60.3654V64.3718C14.1076 64.5529 14.18 64.7264 14.3082 64.8544C14.4365 64.9823 14.6101 65.0544 14.7913 65.0547C14.9724 65.0544 15.146 64.9823 15.2743 64.8544C15.4025 64.7264 15.4749 64.5529 15.4757 64.3718V60.3654ZM15.4757 53.0399C15.4749 52.8586 15.4025 52.685 15.2744 52.5568C15.1462 52.4286 14.9725 52.3562 14.7913 52.3555C14.61 52.3562 14.4363 52.4286 14.3082 52.5568C14.18 52.685 14.1076 52.8586 14.1068 53.0399V57.0463C14.1076 57.2275 14.18 57.4009 14.3082 57.5289C14.4365 57.6568 14.6101 57.7289 14.7913 57.7293C14.9724 57.7289 15.146 57.6568 15.2743 57.5289C15.4025 57.4009 15.4749 57.2275 15.4757 57.0463V53.0399ZM15.4757 45.2243C15.4745 45.0434 15.4019 44.8703 15.2738 44.7426C15.1456 44.615 14.9722 44.5432 14.7913 44.5428C14.6104 44.5432 14.4369 44.615 14.3088 44.7426C14.1806 44.8703 14.108 45.0434 14.1068 45.2243V49.2307C14.1076 49.412 14.18 49.5856 14.3082 49.7138C14.4363 49.842 14.61 49.9143 14.7913 49.9151C14.9725 49.9143 15.1462 49.842 15.2744 49.7138C15.4025 49.5856 15.4749 49.412 15.4757 49.2307V45.2243ZM53.522 65.2417C53.3407 65.2417 53.1669 65.3136 53.0386 65.4416C52.9103 65.5697 52.838 65.7434 52.8376 65.9246C52.8376 66.0144 52.8553 66.1034 52.8897 66.1863C52.9241 66.2693 52.9745 66.3446 53.0381 66.4081C53.1017 66.4715 53.1772 66.5218 53.2602 66.556C53.3432 66.5902 53.4322 66.6078 53.522 66.6076H57.5284C57.7096 66.6072 57.8832 66.5352 58.0114 66.4072C58.1396 66.2792 58.2121 66.1058 58.2128 65.9246C58.2121 65.7435 58.1396 65.57 58.0114 65.4421C57.8832 65.3141 57.7096 65.2421 57.5284 65.2417H53.522ZM46.195 65.2417C46.0139 65.2421 45.8402 65.3141 45.712 65.4421C45.5838 65.57 45.5114 65.7435 45.5106 65.9246C45.511 66.1059 45.5833 66.2796 45.7116 66.4076C45.8399 66.5357 46.0138 66.6076 46.195 66.6076H50.2015C50.3826 66.6072 50.5562 66.5352 50.6845 66.4072C50.8127 66.2792 50.8851 66.1058 50.8859 65.9246C50.8851 65.7435 50.8127 65.57 50.6845 65.4421C50.5562 65.3141 50.3826 65.2421 50.2015 65.2417H46.195ZM39.1124 65.2417C38.9318 65.2425 38.7588 65.3148 38.6314 65.4427C38.504 65.5707 38.4324 65.744 38.4324 65.9246C38.4322 66.0141 38.4497 66.1028 38.4837 66.1855C38.5178 66.2683 38.5678 66.3435 38.631 66.4069C38.6941 66.4703 38.7691 66.5207 38.8517 66.5551C38.9343 66.5896 39.0229 66.6074 39.1124 66.6076H43.1218C43.3025 66.6068 43.4756 66.5345 43.6033 66.4066C43.731 66.2786 43.8029 66.1054 43.8033 65.9246C43.8025 65.744 43.7305 65.571 43.6029 65.4431C43.4753 65.3152 43.3024 65.2428 43.1218 65.2417H39.1124ZM31.7884 65.2417C31.6071 65.2417 31.4333 65.3136 31.305 65.4416C31.1766 65.5697 31.1044 65.7434 31.104 65.9246C31.104 66.0144 31.1217 66.1034 31.1561 66.1863C31.1905 66.2693 31.241 66.3446 31.3045 66.4081C31.3681 66.4715 31.4436 66.5218 31.5266 66.556C31.6096 66.5902 31.6986 66.6078 31.7884 66.6076H35.7948C35.976 66.6072 36.1496 66.5352 36.2778 66.4072C36.4061 66.2792 36.4785 66.1058 36.4792 65.9246C36.4785 65.7435 36.4061 65.57 36.2778 65.4421C36.1496 65.3141 35.976 65.2421 35.7948 65.2417H31.7884ZM23.9728 65.2417C23.792 65.2424 23.6189 65.3147 23.4912 65.4427C23.3636 65.5706 23.2917 65.7439 23.2913 65.9246C23.2913 66.1055 23.363 66.279 23.4908 66.407C23.6186 66.5351 23.7919 66.6072 23.9728 66.6076H27.9792C28.1603 66.6072 28.334 66.5352 28.4622 66.4072C28.5904 66.2792 28.6629 66.1058 28.6636 65.9246C28.6629 65.7435 28.5904 65.57 28.4622 65.4421C28.334 65.3141 28.1603 65.2421 27.9792 65.2417H23.9728ZM16.7327 28.7011L24.6263 28.8483L56.8823 15.7148L66.0991 36.5476L63.6867 37.8414L63.7294 41.7521L70.5 37.9989L59.3506 12.8049L58.6765 11.2771L57.131 11.9056L16.7327 28.7011ZM63.5852 43.3638H41.8015C41.0272 43.3688 40.286 43.6788 39.7385 44.2265C39.1911 44.7742 38.8815 45.5156 38.8769 46.2899V51.9831C38.8815 52.7575 39.1911 53.4988 39.7385 54.0465C40.286 54.5942 41.0272 54.9041 41.8015 54.9092H63.5852V43.3638Z" fill="url(#paint0_linear_720_19075)"/>
<defs>
<linearGradient id="paint0_linear_720_19075" x1="12.1605" y1="11.2771" x2="74.6464" y2="35.9124" gradientUnits="userSpaceOnUse">
<stop stop-color="#002D85"/>
<stop offset="1" stop-color="#DE0000"/>
</linearGradient>
</defs>
</svg>
