<svg width="81" height="80" viewBox="0 0 81 80" fill="none" xmlns="http://www.w3.org/2000/svg">
<path d="M31.0213 57.3302C28.8822 57.1221 26.8674 56.2139 25.2804 54.7422C23.6432 53.2665 22.8244 50.6682 22.8244 46.9474V45.3886H31.0213V47.4308C30.958 48.8238 31.0455 50.2196 31.2822 51.5932C31.3599 51.8538 31.5257 52.0779 31.7505 52.2264C31.9752 52.3747 32.2444 52.4376 32.5102 52.4039C32.7461 52.4137 32.9809 52.3681 33.1965 52.2708C33.4122 52.1734 33.6028 52.027 33.7537 51.8426C34.0591 51.3386 34.199 50.749 34.1527 50.159C34.2303 48.7872 34.1113 47.4114 33.7997 46.0745C33.2293 44.925 32.3011 43.9989 31.1595 43.4398C29.3893 42.3747 27.673 41.2194 26.0173 39.9789C25.0272 39.1227 24.2312 38.0591 23.684 36.861C22.9995 35.4021 22.6629 33.7997 22.7017 32.1841C22.6402 31.1144 22.7936 30.043 23.1525 29.0354C23.5113 28.0277 24.0682 27.1047 24.7893 26.3223C26.5112 24.752 28.7104 23.8279 31.0213 23.7033V20.9907H34.8127V23.6565C36.9589 23.8006 38.9841 24.7183 40.5229 26.2445C41.8466 27.8616 42.5159 29.9289 42.3957 32.0282C42.3957 32.3712 42.3957 32.9011 42.319 33.5872H34.1067V32.1841C34.1532 31.2226 34.0496 30.2597 33.7997 29.3312C33.6966 29.0999 33.5231 28.9086 33.3048 28.7852C33.0864 28.6616 32.8348 28.6126 32.5871 28.6451C32.365 28.6316 32.1433 28.6795 31.9461 28.7838C31.7487 28.8883 31.5829 29.0451 31.4664 29.2376C31.1705 29.7736 31.0369 30.3865 31.0828 30.9993C30.9834 31.9799 31.258 32.9619 31.8503 33.743C33.2369 34.9112 34.7213 35.9545 36.2864 36.861C37.7764 37.7245 39.1979 38.7045 40.5383 39.7918C41.3786 40.6047 42.0335 41.5943 42.457 42.6914C43.0245 44.1812 43.2909 45.7719 43.2399 47.3684C43.3889 49.8823 42.6424 52.3668 41.137 54.3682C39.4739 56.1734 37.2083 57.285 34.7821 57.4861V60.604H31.0213V57.3302ZM48.7505 18.6679C48.2398 19.1198 47.8272 19.6748 47.5392 20.2974C47.2512 20.9201 47.0939 21.5968 47.0773 22.2846L50.1473 22.5809C50.0918 21.9014 50.2828 21.2249 50.6847 20.6788C50.884 20.4755 51.1246 20.3185 51.3897 20.219C51.6547 20.1194 51.938 20.0795 52.2197 20.1022C52.4987 20.0805 52.7793 20.1177 53.0434 20.2117C53.3075 20.3055 53.5498 20.454 53.7547 20.6477C53.9431 20.8573 54.0877 21.1035 54.1802 21.3715C54.2724 21.6393 54.3105 21.9234 54.2919 22.2067C54.2746 22.8784 54.061 23.5295 53.6778 24.0774C52.9215 25.0139 52.0898 25.8847 51.1911 26.681C49.9076 27.8003 48.7725 29.0842 47.8142 30.5005C47.2329 31.4423 46.8804 32.5109 46.7858 33.6183H57.3158V30.7187H51.2832C51.4651 30.4216 51.6704 30.14 51.8973 29.8767C52.1582 29.5806 52.7569 29.0037 53.7086 28.1152C54.4048 27.4823 55.0611 26.8054 55.6733 26.0885C56.1543 25.4692 56.5424 24.7811 56.8247 24.0463C57.0844 23.398 57.2149 22.7038 57.2083 22.004C57.2144 21.4196 57.1001 20.8404 56.8727 20.3033C56.6455 19.7664 56.3101 19.2837 55.8884 18.8862C54.8813 17.9787 53.5642 17.5085 52.2197 17.5766C50.9763 17.5402 49.756 17.924 48.7505 18.6679ZM70.0256 27.6787V30.3601H68.0915V33.556H65.175V30.3601H58.7587V27.6787L65.5588 17.5766H68.0915V27.6787H70.0256ZM65.175 22.2223L61.5678 27.6787H65.175V22.2223ZM27.4141 15.8149C33.7195 12.459 41.0783 11.7806 47.8757 13.9286L47.0313 14.7704H52.9564L48.812 10.4521V11.7772C44.1288 10.2567 39.1432 9.96332 34.3185 10.9243C29.4936 11.8853 24.9865 14.0695 21.2158 17.2738C17.4448 20.4782 14.533 24.5987 12.7505 29.2525C10.968 33.9062 10.3728 38.942 11.0204 43.8919C11.0578 44.1743 11.1954 44.433 11.4074 44.6196C11.6193 44.8062 11.8911 44.9077 12.1716 44.9052H12.3098C12.4595 44.8861 12.604 44.8368 12.7348 44.7604C12.8655 44.6839 12.98 44.5816 13.0715 44.4597C13.1629 44.3378 13.2296 44.1987 13.2674 44.0503C13.3053 43.9019 13.3137 43.7474 13.2922 43.5957C12.5768 38.0552 13.546 32.4249 16.07 27.4596C18.5941 22.4942 22.5523 18.4312 27.4141 15.8149ZM67.5695 35.0682C67.2678 35.1108 66.9946 35.2719 66.8081 35.5165C66.6217 35.7612 66.5369 36.0703 66.5718 36.3776C67.1715 40.9155 66.6349 45.5337 65.0119 49.8051C63.3889 54.0767 60.7317 57.8637 57.2862 60.816C53.8405 63.7684 49.7176 65.791 45.2987 66.6967C40.8797 67.6025 36.3071 67.3623 32.0038 65.9981L32.8634 65.1561H26.9536L31.0982 69.5992V68.1961C34.7865 69.4097 38.6769 69.8599 42.5394 69.5198C46.402 69.1798 50.1582 68.0564 53.5857 66.2163C58.8654 63.3829 63.1654 58.9776 65.9091 53.5911C68.6528 48.2048 69.709 42.095 68.9357 36.0815C68.9176 35.9212 68.8668 35.7664 68.7869 35.6269C68.707 35.4874 68.5995 35.3663 68.4711 35.2712C68.3428 35.176 68.1963 35.1088 68.0412 35.0738C67.8861 35.0389 67.7255 35.037 67.5695 35.0682Z" fill="url(#paint0_linear_808_17576)"/>
<defs>
<linearGradient id="paint0_linear_808_17576" x1="68.9657" y1="68.3446" x2="68.9657" y2="10.3706" gradientUnits="userSpaceOnUse">
<stop stop-color="#002D85"/>
<stop offset="1" stop-color="#013AA9"/>
</linearGradient>
</defs>
</svg>
