<svg width="81" height="80" viewBox="0 0 81 80" fill="none" xmlns="http://www.w3.org/2000/svg">
<path fill-rule="evenodd" clip-rule="evenodd" d="M69.8788 21.9491V22.9835V23.3284H64.0167V22.2939C64.0167 21.2594 64.0167 20.5698 63.8443 20.2249C63.6719 19.8801 63.4995 19.7077 62.9822 19.7077C62.6374 19.7077 62.2926 19.7077 62.1202 20.0525C61.7754 20.2249 61.7754 20.7422 61.7754 21.2594C61.7754 22.1215 61.9478 22.8111 62.2926 23.1559C62.6374 23.5008 63.6719 24.1904 65.396 25.2249C66.9477 26.087 67.9822 26.7766 68.4995 27.2939C69.0167 27.8111 69.5339 28.5007 69.8788 29.3628C70.2236 30.2249 70.396 31.2593 70.396 32.6387C70.396 34.88 69.8788 36.4317 68.8443 37.6386C67.9822 38.8455 66.4305 39.5352 64.3615 39.88V42.1214H61.6029V39.88C60.0512 39.7076 58.6719 39.0179 57.465 37.9834C56.2581 36.949 55.7409 35.0524 55.7409 32.4662V31.2593H61.6029V32.6387V32.6388C61.6029 34.1904 61.6029 35.2249 61.7754 35.5697C61.9478 35.9145 62.1202 36.0869 62.6374 36.0869C62.9822 36.0869 63.3271 36.0869 63.4995 35.7421C63.6719 35.3973 63.8443 35.0524 63.8443 34.5352C63.8443 33.3283 63.6719 32.2938 63.4995 31.7766C63.3271 31.0869 62.6374 30.5697 61.6029 29.88C59.8788 28.8456 58.6719 27.9835 57.9823 27.4663C57.2926 26.949 56.7754 26.2594 56.2581 25.2249C55.7409 24.1904 55.5685 23.1559 55.5685 21.9491C55.5685 20.2249 56.0857 18.8456 57.1202 17.8112C58.1547 16.7767 59.534 16.087 61.6029 15.9146V14.0181H64.3615V15.9146C66.2581 16.2595 67.6374 16.7767 68.4995 17.8112C69.3615 18.8456 69.8788 20.2249 69.8788 21.9491ZM36.9476 44.3626V45.5695C36.9476 45.7419 37.12 45.9144 37.4648 45.9144H46.6027C46.7751 45.9144 46.9475 45.7419 46.9475 45.5695V44.3626C46.9475 44.1902 46.7751 44.0178 46.6027 44.0178H37.2924C37.12 44.0178 36.9476 44.1902 36.9476 44.3626ZM45.3958 47.1212V62.2936C45.3958 62.6384 45.2234 62.8108 45.051 62.6384H39.0165C38.8441 62.6384 38.6717 62.466 38.6717 62.2936V47.1212C38.6717 46.9488 38.8441 46.7764 39.0165 46.7764H45.051C45.2234 46.7764 45.3958 46.9488 45.3958 47.1212ZM10.396 44.3626V45.5695C10.396 45.7419 10.5684 45.9144 10.7408 45.9144H20.0511C20.2235 45.9144 20.3959 45.7419 20.3959 45.5695V44.3626C20.3959 44.1902 20.2235 44.0178 20.0511 44.0178H10.7408C10.5684 44.0178 10.396 44.1902 10.396 44.3626ZM28.1545 32.811L11.0856 40.5696C10.7408 40.742 10.396 41.2592 10.396 41.7764V42.4661C10.396 42.6385 10.5684 42.8109 10.7408 42.8109H46.6027C46.7751 42.8109 46.9475 42.6385 46.9475 42.4661V41.7764C46.9475 41.2592 46.7751 40.742 46.2579 40.5696L29.189 32.811C28.8442 32.6386 28.4993 32.6386 28.1545 32.811ZM41.2579 40.742H16.258C16.258 40.742 16.0856 40.742 16.0856 40.5696L16.258 40.3971L28.6718 35.2248H28.8442L41.2579 40.3971C41.4303 40.3971 41.4303 40.5696 41.4303 40.5696C41.4303 40.742 41.2579 40.742 41.2579 40.742ZM10.396 63.8453V65.5694C10.396 65.9142 10.5684 66.0867 10.7408 65.9142H46.6027C46.7751 65.9142 46.9475 65.7418 46.9475 65.5694V63.8453C46.9475 63.6729 46.7751 63.5005 46.6027 63.5005H10.7408C10.5684 63.5005 10.396 63.6729 10.396 63.8453ZM18.8442 47.1212V62.2936C18.8442 62.6384 18.6718 62.8108 18.4994 62.6384H12.4649C12.2925 62.6384 12.1201 62.466 12.1201 62.2936V47.1212C12.1201 46.9488 12.2925 46.7764 12.4649 46.7764H18.4994C18.6718 46.7764 18.8442 46.9488 18.8442 47.1212ZM23.6718 44.3626V45.5695C23.6718 45.7419 23.8442 45.9144 24.0166 45.9144H33.3269C33.4993 45.9144 33.6717 45.7419 33.6717 45.5695V44.3626C33.6717 44.1902 33.4993 44.0178 33.3269 44.0178H24.0166C23.8442 44.0178 23.6718 44.1902 23.6718 44.3626ZM32.12 47.1212V62.2936C32.12 62.6384 31.9476 62.8108 31.7752 62.6384H25.7407C25.5683 62.6384 25.3959 62.466 25.3959 62.2936V47.1212C25.3959 46.9488 25.5683 46.7764 25.7407 46.7764H31.7752C31.9476 46.7764 32.12 46.9488 32.12 47.1212ZM49.4029 53.2212L49.4028 53.2212C49.2763 53.1996 49.1477 53.1777 49.0163 53.1558C48.4991 52.9834 48.1542 52.4662 48.1542 51.9489C48.3267 51.4317 48.8439 51.0869 49.3611 51.0869C55.1549 52.0525 60.7985 49.5629 64.0482 44.88H62.9819L66.775 41.2594V46.6042L65.9539 45.6918C62.9105 50.5546 57.5064 53.5006 51.9473 53.5006C51.0442 53.5006 50.2726 53.3693 49.4029 53.2212ZM38.4993 28.9383C41.7531 24.1464 47.3675 21.6762 52.9819 22.6387C53.4991 22.6387 54.0164 22.2938 54.1888 21.7766C54.1888 21.2594 53.8439 20.7421 53.3267 20.5697C46.758 19.5844 40.1892 22.5094 36.6001 28.153L35.7409 27.2938L35.5684 32.6386L39.5339 29.0179L38.4993 28.9383Z" fill="url(#paint0_linear_808_17947)"/>
<defs>
<linearGradient id="paint0_linear_808_17947" x1="69.3229" y1="64.8548" x2="69.3229" y2="14.0181" gradientUnits="userSpaceOnUse">
<stop stop-color="#002D85"/>
<stop offset="1" stop-color="#013AA9"/>
</linearGradient>
</defs>
</svg>
