<svg width="81" height="81" viewBox="0 0 81 81" fill="none" xmlns="http://www.w3.org/2000/svg">
<path fill-rule="evenodd" clip-rule="evenodd" d="M25.6905 16.4355H37.1973V21.0383H25.6905V16.4355ZM27.9917 21.0384H34.8958V22.807C39.3719 23.5651 43.3571 25.7723 46.3514 28.9286H64.9781V39.4492H62.5124V47.0108H64.9781V57.2026H46.4112C42.6886 61.1506 37.3961 63.6137 31.4439 63.6137C20.1015 63.6137 10.896 54.4082 10.896 43.0658C10.896 32.8997 18.291 24.4503 27.9917 22.807V21.0384ZM34.8958 24.6428C38.6395 25.3388 41.9907 27.1462 44.5946 29.7104V56.4212C41.2126 59.7516 36.5699 61.8055 31.4439 61.8055C21.0878 61.8055 12.7042 53.4219 12.7042 43.0658C12.7042 33.8891 19.2869 26.2613 27.9917 24.6428V25.6411H34.8958V24.6428ZM33.9095 45.5315C32.5944 46.8466 30.2931 46.8466 28.978 45.5315C27.6629 44.2165 27.6629 41.9151 28.978 40.6C31.4438 38.2987 40.4849 34.0247 40.4849 34.0247C40.4849 34.0247 36.2109 43.2302 33.9095 45.5315ZM56.1014 42.0793C58.2384 42.0793 59.8823 43.7232 59.8823 45.8601C59.8823 47.504 58.896 48.9834 57.4165 49.4766V52.1067H54.9508V49.4766C53.4713 48.9834 52.485 47.504 52.485 45.8601H54.9508C54.9508 46.5177 55.4439 47.1752 56.2658 47.1752C56.9234 47.1752 57.5809 46.6821 57.5809 45.8601C57.5809 45.2026 57.0877 44.5451 56.2658 44.5451C54.1288 44.5451 52.485 42.9012 52.485 40.7643C52.485 39.1204 53.4713 37.641 54.9508 37.1478V34.3533H57.4165V37.1478C58.896 37.641 59.8823 39.1204 59.8823 40.7643H57.4165C57.4165 40.1067 56.9234 39.4492 56.1014 39.4492C55.4439 39.4492 54.7864 39.9423 54.7864 40.7643C54.7864 41.4218 55.4439 42.0793 56.1014 42.0793ZM68.759 44.3809V45.8603L70.896 43.2302L68.759 40.6V42.0795H63.4987V44.5452C63.6534 44.3906 68.4619 44.3814 68.759 44.3809Z" fill="url(#paint0_linear_808_17963)"/>
<defs>
<linearGradient id="paint0_linear_808_17963" x1="69.8229" y1="62.5904" x2="69.8229" y2="16.4355" gradientUnits="userSpaceOnUse">
<stop stop-color="#002D85"/>
<stop offset="1" stop-color="#013AA9"/>
</linearGradient>
</defs>
</svg>
