<svg width="81" height="80" viewBox="0 0 81 80" fill="none" xmlns="http://www.w3.org/2000/svg">
<path fill-rule="evenodd" clip-rule="evenodd" d="M20.2727 26.4501C27.1162 16.429 40.4085 12.55 51.5149 17.5826C52.0522 17.7617 52.7686 17.5825 52.9477 17.0452C53.1268 16.5079 52.9477 15.7915 52.4104 15.6124C39.9612 10.0015 25.4521 14.3467 18.1259 25.455L16.7686 23.851C17.306 25.6421 17.1268 27.9704 16.9477 29.7615C18.3806 28.5078 20.1716 27.254 21.7835 26.7167L20.2727 26.4501ZM61.5448 28.1495V29.2242C61.5448 29.4033 61.7239 29.5824 61.903 29.5824H70.1418C70.3209 29.5824 70.5 29.4033 70.5 29.2242V28.1495C70.5 27.9704 70.3209 27.7913 70.1418 27.7913H61.903C61.7239 27.7913 61.5448 27.9704 61.5448 28.1495ZM69.0672 30.657V44.2689C69.0672 44.448 68.8881 44.6271 68.709 44.6271H63.3358C63.1567 44.6271 62.9776 44.448 62.9776 44.2689V30.657C62.9776 30.4779 63.1567 30.2988 63.3358 30.2988H68.709C68.8881 30.2988 69.0672 30.4779 69.0672 30.657ZM37.724 28.1495V29.2242C37.724 29.4033 37.9031 29.5824 38.0822 29.5824H46.321C46.5001 29.5824 46.6792 29.4033 46.6792 29.2242V28.1495C46.6792 27.9704 46.5001 27.7913 46.321 27.7913H38.0822C37.9031 27.7913 37.724 27.9704 37.724 28.1495ZM53.4851 17.9406L38.2613 24.9257C37.9031 25.1048 37.724 25.463 37.5449 26.0003V26.7167C37.5449 26.8958 37.724 27.0749 37.9031 27.0749H69.9627C70.1418 27.0749 70.3209 26.8958 70.3209 26.7167V26.0003C70.3209 25.463 69.9627 25.1048 69.6045 24.9257L54.3806 17.9406C54.0224 17.7615 53.8433 17.7615 53.4851 17.9406ZM65.306 25.1048H42.918C42.8079 24.8846 42.7655 24.7998 42.7907 24.7671C42.8065 24.7466 42.8489 24.7466 42.918 24.7466L54.0224 20.0898H54.2015L65.306 24.7466C65.4851 24.7466 65.4851 24.9257 65.4851 24.9257C65.4851 25.1048 65.306 25.1048 65.306 25.1048ZM49.5448 28.1495V29.2242C49.5448 29.4033 49.7239 29.5824 49.903 29.5824H58.1418C58.3209 29.5824 58.5 29.4033 58.5 29.2242V28.1495C58.5 27.9704 58.3209 27.7913 58.1418 27.7913H49.903C49.7239 27.7913 49.5448 27.9704 49.5448 28.1495ZM57.0672 30.657V44.2689C57.0672 44.448 56.8881 44.6271 56.709 44.6271H51.3359C51.1568 44.6271 50.9777 44.448 50.9777 44.2689V30.657C50.9777 30.4779 51.1568 30.2988 51.3359 30.2988H56.709C56.8881 30.2988 57.0672 30.4779 57.0672 30.657ZM35.5746 39.075V40.3287C35.5746 40.5078 35.7537 40.6869 35.9328 40.6869H44.7089C44.888 40.6869 45.0671 40.5078 45.0671 40.3287V39.075C45.0671 38.8959 44.888 38.7168 44.7089 38.7168H35.9328C35.7537 38.7168 35.5746 38.8959 35.5746 39.075ZM43.6342 41.7615V56.0899C43.6342 56.269 43.4551 56.4481 43.276 56.4481H37.7238C37.5447 56.4481 37.3656 56.269 37.3656 56.0899V41.7615C37.3656 41.5824 37.5447 41.4033 37.7238 41.4033H43.276C43.4551 41.4033 43.6342 41.5824 43.6342 41.7615ZM10.5 39.075V40.3287C10.5 40.5078 10.6791 40.6869 10.8582 40.6869H19.6343C19.8134 40.6869 19.9925 40.5078 19.9925 40.3287V39.075C19.9925 38.8959 19.8134 38.7168 19.6343 38.7168H10.8582C10.6791 38.7168 10.5 38.8959 10.5 39.075ZM27.3358 28.3287L11.2164 35.672C10.8582 35.8511 10.5 36.2093 10.6791 36.7466V37.463C10.6791 37.6421 10.8582 37.8212 11.0373 37.8212H44.7089C44.888 37.8212 45.0671 37.6421 45.0671 37.463V36.7466C45.0671 36.2093 44.7089 35.8511 44.3506 35.672L28.2313 28.3287C28.0522 28.1496 27.694 28.1496 27.3358 28.3287ZM39.5148 35.8511H16.0522C15.8731 35.4929 15.8731 35.4929 15.694 35.4929L27.5149 30.478H27.694L39.5148 35.4929C39.6939 35.4929 39.6939 35.672 39.6939 35.672C39.6939 35.8511 39.5148 35.8511 39.5148 35.8511ZM10.5 57.5227V59.1346C10.5 59.3137 10.6791 59.4928 10.8582 59.4928H44.5298C44.7089 59.4928 44.888 59.3137 44.888 59.1346V57.5227C44.888 57.3436 44.7089 57.1645 44.5298 57.1645H10.8582C10.6791 57.1645 10.5 57.3436 10.5 57.5227ZM18.5597 41.7615V56.0899C18.5597 56.269 18.3806 56.4481 18.2015 56.4481H12.6492C12.4701 56.4481 12.291 56.269 12.291 56.0899V41.7615C12.291 41.5824 12.4701 41.4033 12.6492 41.4033H18.2015C18.3806 41.4033 18.5597 41.5824 18.5597 41.7615ZM23.0373 39.075V40.3287C23.0373 40.5078 23.2164 40.6869 23.3955 40.6869H32.1716C32.3507 40.6869 32.5298 40.5078 32.5298 40.3287V39.075C32.5298 38.8959 32.3507 38.7168 32.1716 38.7168H23.3955C23.2164 38.7168 23.0373 38.8959 23.0373 39.075ZM31.097 41.7615V56.0899C31.097 56.269 30.9179 56.4481 30.7387 56.4481H25.1865C25.0074 56.4481 24.8283 56.269 24.8283 56.0899V41.7615C24.8283 41.5824 25.0074 41.4033 25.1865 41.4033H30.7387C30.9179 41.4033 31.097 41.5824 31.097 41.7615ZM40.2313 66.8361C36.4701 66.8361 32.7089 66.1197 29.1268 64.5078C28.5895 64.3287 28.4104 63.6123 28.5895 63.0749C28.7686 62.5376 29.485 62.3585 30.0223 62.5376C41.3019 67.57 54.4309 63.6914 61.2643 53.6711L60.1121 53.5825L64.4106 50.0004L63.8733 55.7317L63.1085 54.6801C57.989 62.3586 49.193 66.8361 40.2313 66.8361Z" fill="url(#paint0_linear_720_19093)"/>
<defs>
<linearGradient id="paint0_linear_720_19093" x1="12.1605" y1="13.1641" x2="73.1146" y2="39.3439" gradientUnits="userSpaceOnUse">
<stop stop-color="#002D85"/>
<stop offset="1" stop-color="#DE0000"/>
</linearGradient>
</defs>
</svg>
