<svg width="80" height="80" viewBox="0 0 80 80" fill="none" xmlns="http://www.w3.org/2000/svg">
<path fill-rule="evenodd" clip-rule="evenodd" d="M63.5134 18.744V65.3485V67.4931C63.5155 67.8215 63.4496 68.1473 63.3196 68.4513C63.1897 68.7554 62.998 69.0319 62.7561 69.2648C62.514 69.4978 62.2261 69.6826 61.9091 69.8088C61.5921 69.9351 61.252 70 60.9085 70H19.1069C18.4118 70 17.7454 69.7358 17.2538 69.2657C16.7625 68.7956 16.4863 68.158 16.4863 67.4931V18.744C16.4862 18.4103 16.5561 18.08 16.6919 17.7727C16.8277 17.4653 17.0267 17.1872 17.2769 16.9548C17.5272 16.7224 17.8237 16.5405 18.149 16.4198C18.4741 16.2991 18.8213 16.2421 19.1699 16.2522H27.063C27.3809 14.5103 28.3277 12.9304 29.7384 11.7878C31.149 10.6453 32.9341 10.0126 34.7824 10H45.233C47.0922 9.9984 48.8922 10.6247 50.3159 11.7685C51.7397 12.9123 52.6957 14.5001 53.0155 16.2522H60.9085C61.5994 16.2522 62.2619 16.5147 62.7504 16.982C63.2388 17.4493 63.5134 18.0832 63.5134 18.744ZM21.7115 65.0012H58.288V21.251H53.0628V23.7428C53.0649 24.0713 52.9991 24.3969 52.8692 24.701C52.7391 25.005 52.5476 25.2815 52.3055 25.5145C52.0634 25.7476 51.7756 25.9324 51.4585 26.0586C51.1415 26.1848 50.8015 26.2496 50.4582 26.2496H29.5572C28.8622 26.2496 28.1957 25.9856 27.7042 25.5154C27.2129 25.0452 26.9367 24.4076 26.9367 23.7428V21.2056H21.7115V65.0012ZM29.5572 23.8937H50.4582V17.2942C50.4582 16.4091 50.0905 15.5602 49.4364 14.9343C48.7821 14.3083 47.8947 13.9567 46.9694 13.9567H33.0303C32.1077 13.9607 31.2244 14.3141 30.5735 14.9396C29.9226 15.5651 29.5572 16.4117 29.5572 17.2942V23.8937ZM43.9929 51.7427C42.7621 52.5298 41.3148 52.9502 39.8341 52.9502C37.8523 52.9502 35.9515 52.1981 34.5488 50.8589C33.1459 49.5196 32.3557 47.7028 32.3515 45.8069C32.3484 44.3904 32.7846 43.0051 33.6048 41.8258C34.4252 40.6468 35.5928 39.7268 36.9596 39.1828C38.3267 38.6385 39.8317 38.4947 41.2842 38.7692C42.7368 39.0436 44.0716 39.7242 45.1196 40.7248C46.1677 41.7253 46.8818 43.0007 47.1718 44.3898C47.4619 45.7787 47.3147 47.2189 46.7487 48.5277C46.1828 49.8367 45.2237 50.9554 43.9929 51.7427ZM43.4343 40.6513C42.3679 39.9728 41.1149 39.6122 39.8341 39.6151C38.1215 39.623 36.4817 40.2785 35.2723 41.4384C34.0628 42.5982 33.3817 44.1686 33.3776 45.8069C33.3776 47.0322 33.7576 48.23 34.4695 49.2485C35.1814 50.267 36.1931 51.0607 37.3767 51.5288C38.5603 51.997 39.8625 52.1188 41.1184 51.8786C42.3744 51.6384 43.5275 51.0472 44.4321 50.1798C45.3366 49.3124 45.9518 48.2077 46.1998 47.0056C46.4477 45.8035 46.3174 44.5581 45.825 43.4269C45.3327 42.2958 44.5007 41.3298 43.4343 40.6513ZM39.2974 48.8424C38.8658 48.8035 38.4523 48.6579 38.0977 48.4195C38.0361 48.3894 37.9813 48.3477 37.9367 48.2969C37.8921 48.2462 37.8585 48.1875 37.8381 48.1242C37.8175 48.0608 37.8102 47.9943 37.8168 47.9283C37.8235 47.8623 37.8439 47.7983 37.8767 47.7399C37.9133 47.6857 37.961 47.639 38.0169 47.6027C38.0727 47.5664 38.1356 47.5411 38.2018 47.5284C38.2681 47.5158 38.3362 47.516 38.4024 47.5289C38.4686 47.5419 38.5313 47.5675 38.5871 47.604C38.8026 47.7303 39.0457 47.8078 39.2974 47.8305V45.8522C39.0311 45.7445 38.7814 45.6021 38.5555 45.4294C38.3411 45.2614 38.1802 45.0394 38.091 44.7885C38.0017 44.5377 37.9876 44.268 38.0503 44.0098C38.105 43.7202 38.2412 43.4505 38.4442 43.2297C38.6473 43.0088 38.9095 42.8452 39.2027 42.7563H39.2974V42.4695C39.2974 42.3412 39.3507 42.2183 39.4454 42.1276C39.5401 42.037 39.6686 41.9861 39.8025 41.9861C39.9366 41.9861 40.065 42.037 40.1597 42.1276C40.2544 42.2183 40.3078 42.3412 40.3078 42.4695V42.7563C40.6868 42.8003 41.0521 42.9185 41.3811 43.1037C41.44 43.1348 41.4914 43.1771 41.5323 43.2281C41.5733 43.279 41.6028 43.3375 41.619 43.3998C41.6354 43.4621 41.638 43.5269 41.627 43.5903C41.616 43.6537 41.5915 43.7142 41.5548 43.7682C41.4802 43.8765 41.3656 43.9541 41.2337 43.9849C41.1021 44.0157 40.9629 43.9977 40.8444 43.9343C40.6822 43.8329 40.4993 43.7659 40.3078 43.7379V45.2481L40.5603 45.3388C40.9764 45.4672 41.3299 45.7351 41.5561 46.093C41.7823 46.4509 41.866 46.8748 41.7916 47.287C41.718 47.6467 41.5396 47.9792 41.277 48.2465C41.0145 48.5136 40.6785 48.7044 40.3078 48.797V49.1293C40.3078 49.2576 40.2544 49.3805 40.1597 49.4711C40.065 49.5616 39.9366 49.6125 39.8025 49.6125C39.6686 49.6125 39.5401 49.5616 39.4454 49.4711C39.3507 49.3805 39.2974 49.2576 39.2974 49.1293V48.8424ZM40.7057 46.5761C40.6188 46.4236 40.4776 46.3061 40.3078 46.2449V47.7399C40.4306 47.6668 40.5361 47.5698 40.6177 47.4555C40.6993 47.341 40.7549 47.2116 40.7813 47.0755C40.8194 46.9057 40.7927 46.7285 40.7057 46.5761ZM39.0457 44.5158C39.0653 44.5985 39.1088 44.6744 39.1712 44.7347H39.2974V43.874C39.2328 43.9211 39.1787 43.9802 39.138 44.0475C39.0973 44.1149 39.071 44.1894 39.0606 44.2665C39.0314 44.3467 39.0262 44.4329 39.0457 44.5158ZM52.473 36.9949C52.473 36.8838 52.4364 36.7755 52.3683 36.6853L51.216 35.2054C51.1689 35.1587 51.1125 35.1217 51.0501 35.0964C50.9876 35.0711 50.9207 35.0582 50.8529 35.0582C50.7851 35.0582 50.7181 35.0711 50.6557 35.0964C50.5933 35.1217 50.537 35.1587 50.4898 35.2054C50.3886 35.2876 50.3239 35.4039 50.3093 35.5302C50.2945 35.6565 50.331 35.7834 50.4108 35.8849L50.9318 36.4891H47.7745C47.6539 36.5094 47.5446 36.5697 47.466 36.6595C47.3871 36.7492 47.344 36.8627 47.344 36.9798C47.344 37.097 47.3871 37.2104 47.466 37.3002C47.5446 37.3901 47.6539 37.4504 47.7745 37.4707H50.9318L50.4108 38.0747C50.3573 38.1237 50.3153 38.1832 50.2876 38.2489C50.2598 38.3147 50.2472 38.3854 50.2504 38.4563C50.2535 38.5271 50.2725 38.5965 50.3061 38.66C50.3395 38.7232 50.3867 38.779 50.4445 38.8234C50.5023 38.8678 50.5693 38.9 50.6411 38.9176C50.7129 38.9353 50.7878 38.9381 50.8608 38.9257C50.934 38.9136 51.0034 38.8865 51.0647 38.8466C51.1258 38.8065 51.1774 38.7545 51.216 38.6938L52.3683 37.3046C52.4364 37.2144 52.473 37.1061 52.473 36.9949ZM27.5267 54.6566C27.5267 54.7682 27.5696 54.8757 27.6473 54.9587L28.8313 56.3632C28.8737 56.4128 28.926 56.4538 28.9851 56.4842C29.0442 56.5143 29.1089 56.5331 29.1757 56.5395C29.2423 56.5458 29.3096 56.5395 29.3739 56.5208C29.4379 56.5023 29.4976 56.4718 29.5495 56.4311C29.6014 56.3904 29.6442 56.3405 29.6758 56.2839C29.7074 56.2273 29.7272 56.1655 29.7337 56.1016C29.7403 56.0379 29.7337 55.9734 29.7142 55.9121C29.6949 55.8506 29.663 55.7935 29.6205 55.7441L29.1154 55.1398H32.2568C32.3907 55.1398 32.5193 55.0889 32.614 54.9984C32.7087 54.9078 32.7619 54.7849 32.7619 54.6566C32.764 54.5919 32.7525 54.5275 32.7282 54.467C32.7037 54.4067 32.6669 54.3516 32.6197 54.3052C32.5725 54.2587 32.5162 54.2217 32.4538 54.1964C32.3915 54.1712 32.3246 54.1583 32.2568 54.1583H29.0996L29.6048 53.5542C29.6461 53.5046 29.6771 53.4477 29.6954 53.3867C29.7139 53.3257 29.7197 53.2618 29.7124 53.1988C29.705 53.1357 29.6847 53.0745 29.6528 53.0189C29.6208 52.9633 29.5777 52.9143 29.5258 52.8746C29.4739 52.835 29.4146 52.8055 29.3507 52.7878C29.2869 52.7702 29.2203 52.7647 29.1543 52.7716C29.0883 52.7786 29.0244 52.7981 28.9663 52.8287C28.9081 52.8592 28.8569 52.9005 28.8154 52.9502L27.6473 54.3547C27.5696 54.4377 27.5267 54.5452 27.5267 54.6566ZM25.8317 56.9522V57.1182C25.8317 57.3319 25.9195 57.5371 26.076 57.6897C26.2323 57.8421 26.4452 57.9298 26.6685 57.9337H37.2609C37.3358 57.9464 37.4129 57.9431 37.4863 57.9243C37.5598 57.9055 37.6281 57.8715 37.6863 57.8248C37.7445 57.7779 37.7914 57.7195 37.8235 57.6535C37.8556 57.5877 37.8723 57.5157 37.8723 57.443C37.8723 57.3702 37.8556 57.2984 37.8235 57.2324C37.7914 57.1664 37.7445 57.108 37.6863 57.0613C37.6281 57.0144 37.5598 56.9804 37.4863 56.9616C37.4129 56.9428 37.3358 56.9395 37.2609 56.9522H26.8422V55.7591C26.841 55.6625 26.8107 55.5681 26.7546 55.4877C26.6987 55.4072 26.6194 55.3442 26.5264 55.3061C26.4171 55.277 26.3007 55.2853 26.1969 55.3294C26.0933 55.3735 26.0088 55.4505 25.9581 55.5477L22.8009 58.5681C22.7526 58.6117 22.7142 58.6644 22.6879 58.723C22.6616 58.7814 22.6482 58.8443 22.6482 58.9078C22.6482 58.9714 22.6616 59.0343 22.6879 59.0929C22.7142 59.1512 22.7526 59.204 22.8009 59.2476L25.9581 62.268C26.0202 62.3523 26.1089 62.4152 26.2112 62.4478C26.3134 62.4806 26.4238 62.4809 26.5264 62.4493C26.6194 62.4156 26.6991 62.3556 26.7556 62.2774C26.812 62.1991 26.8422 62.1063 26.8422 62.0113V60.8183H37.2609C37.3991 60.8183 37.5317 60.7657 37.6294 60.6723C37.727 60.5788 37.782 60.4521 37.782 60.32C37.782 60.2551 37.7683 60.191 37.7421 60.1314C37.7156 60.0717 37.677 60.0178 37.6284 59.9728C37.5799 59.9277 37.5223 59.8923 37.4591 59.869C37.396 59.8456 37.3287 59.8346 37.2609 59.8365H26.6685C26.4582 59.8395 26.2564 59.9167 26.1019 60.0532C25.9475 60.1899 25.8512 60.3762 25.8317 60.5767V60.7427L23.8586 58.8399L25.8317 56.9522ZM48.1628 51.0547C49.2364 49.4971 49.8095 47.6726 49.811 45.8069C49.8131 44.3132 49.4486 42.8398 48.7469 41.5054C48.0452 40.171 47.0258 39.0128 45.771 38.124C44.5161 37.235 43.0607 36.6404 41.5217 36.3877C39.9828 36.1351 38.4034 36.2314 36.9105 36.6691C35.4176 37.1069 34.053 37.8738 32.9265 38.9079C31.7998 39.9422 30.9426 41.215 30.424 42.6238C29.9053 44.0327 29.7394 45.5384 29.9398 47.0197C30.1402 48.5012 30.7013 49.9169 31.578 51.1529C31.6534 51.2611 31.7706 51.3362 31.9037 51.3618C32.037 51.3872 32.1754 51.361 32.2884 51.289C32.4014 51.2168 32.4799 51.1048 32.5065 50.9773C32.5331 50.8498 32.5058 50.7175 32.4304 50.6094C31.3058 49.0244 30.7681 47.1248 30.9032 45.2136C31.0381 43.3023 31.8381 41.4892 33.1753 40.0635C34.5124 38.6376 36.3102 37.681 38.2817 37.3459C40.2533 37.0111 42.2854 37.3172 44.0539 38.2155C45.8226 39.1138 47.226 40.5525 48.0405 42.3026C48.855 44.0525 49.0337 46.013 48.5484 47.8714C48.0629 49.73 46.941 51.3795 45.3617 52.5572C43.7824 53.7349 41.8365 54.373 39.8341 54.3697C37.5408 54.3753 35.3343 53.5309 33.6775 52.0138C33.5756 51.9478 33.4527 51.9183 33.3303 51.9308C33.208 51.9433 33.0942 51.9967 33.009 52.0818C32.9239 52.1668 32.873 52.2778 32.8654 52.3954C32.8577 52.5128 32.8937 52.6291 32.9672 52.7236C34.3819 54.0078 36.1592 54.8671 38.079 55.1953C39.9989 55.5235 41.9773 55.3062 43.7695 54.5703C45.5615 53.8344 47.0889 52.6121 48.1628 51.0547ZM54.0733 36.1267L57.2305 33.1062C57.2912 33.0558 57.3394 32.993 57.3713 32.9227C57.4034 32.8521 57.4185 32.7756 57.4154 32.6987C57.4123 32.6218 57.3914 32.5468 57.354 32.4787C57.3163 32.4107 57.2635 32.3517 57.1989 32.3058L54.0416 29.2854C53.9674 29.2177 53.8744 29.1717 53.7737 29.153C53.673 29.1342 53.5688 29.1435 53.4734 29.1796C53.3805 29.2177 53.3012 29.2808 53.2451 29.3612C53.1891 29.4418 53.1587 29.5361 53.1577 29.6327V30.8107H50.8213C50.6873 30.8107 50.5589 30.8616 50.4642 30.9522C50.3693 31.0429 50.3161 31.1658 50.3161 31.2939C50.3161 31.4222 50.3693 31.5451 50.4642 31.6357C50.5589 31.7264 50.6873 31.7771 50.8213 31.7771H53.3628C53.5863 31.7773 53.8007 31.6935 53.9602 31.5438C54.1196 31.3941 54.2113 31.1904 54.2153 30.9769V30.7956L56.1728 32.6984L54.2153 34.6014V34.4201C54.2113 34.2063 54.1196 34.0028 53.9602 33.8531C53.8007 33.7035 53.5863 33.6196 53.3628 33.6196H42.7704C42.6364 33.6196 42.5078 33.6705 42.4131 33.7612C42.3184 33.8518 42.2653 33.9748 42.2653 34.1029C42.2653 34.2311 42.3184 34.3541 42.4131 34.4447C42.5078 34.5352 42.6364 34.5861 42.7704 34.5861H53.1893V35.7793C53.1903 35.876 53.2206 35.9702 53.2767 36.0506C53.3328 36.131 53.4121 36.1943 53.505 36.2322C53.6004 36.2685 53.7045 36.2778 53.8054 36.259C53.9061 36.2403 53.999 36.1943 54.0733 36.1267ZM42.3815 31.0127C42.2868 31.1034 42.2336 31.2263 42.2336 31.3544C42.2336 31.4825 42.2868 31.6054 42.3815 31.6961C42.4764 31.7867 42.6048 31.8376 42.7388 31.8376H48.7848C48.9189 31.8376 49.0474 31.7867 49.1421 31.6961C49.2368 31.6054 49.2901 31.4825 49.2901 31.3544C49.2901 31.2263 49.2368 31.1034 49.1421 31.0127C49.0474 30.9221 48.9189 30.8711 48.7848 30.8711H42.7388C42.6048 30.8711 42.4764 30.9221 42.3815 31.0127Z" fill="url(#paint0_linear_720_18778)"/>
<defs>
<linearGradient id="paint0_linear_720_18778" x1="17.7878" y1="10" x2="69.671" y2="25.6237" gradientUnits="userSpaceOnUse">
<stop stop-color="#002D85"/>
<stop offset="1" stop-color="#DE0000"/>
</linearGradient>
</defs>
</svg>
