<svg width="81" height="80" viewBox="0 0 81 80" fill="none" xmlns="http://www.w3.org/2000/svg">
<path fill-rule="evenodd" clip-rule="evenodd" d="M58.2778 38.0247H67.1667C67.5617 38.0247 68.1543 38.4197 68.1543 39.0123V44.9383C68.1543 45.5309 67.7593 45.9259 67.1667 45.9259H58.2778V61.7284H59.2655C61.4383 61.7284 63.2161 63.5062 63.2161 65.679C63.2161 67.8518 61.4383 69.6296 59.2655 69.6296H26.6729C24.5 69.6296 22.7222 67.8518 22.7222 65.679V45.9259H17.784C17.1914 45.9259 16.7963 45.5309 16.7963 44.9383V34.0741H13.8334C13.2408 34.0741 12.8457 33.679 12.8457 33.0864V27.1605C12.8457 26.5679 13.2408 26.1728 13.8334 26.1728H16.7963V14.321C16.7963 12.1481 18.5741 10.3704 20.7469 10.3704H53.3395C56.105 10.3704 58.2778 12.5432 58.2778 15.3086V38.0247ZM20.7469 12.3457C19.5618 12.3457 18.7716 13.1358 18.7716 14.321V26.1728H22.7222V14.321C22.7222 13.1358 21.9321 12.3457 20.7469 12.3457ZM43.463 27.358C43.463 27.7531 43.0679 28.1481 42.4753 28.1481H14.821V32.0988H42.4753C43.0679 32.0988 43.463 32.4938 43.463 32.8889L46.821 30.1234L43.463 27.358ZM18.7716 34.0741V43.9506H22.7222V34.0741H18.7716ZM59.2655 67.6543C60.4506 67.6543 61.2408 66.8642 61.2408 65.679C61.2408 64.4938 60.2531 63.7037 59.2655 63.7037H30.6235V65.679C30.6235 66.4691 30.4259 67.0617 30.0309 67.6543H59.2655ZM29.6358 61.7284H56.3025V45.9259H39.5124V46.9136C39.5124 47.3086 39.3148 47.7037 38.9198 47.9012C38.7222 48.0988 38.1297 47.9012 37.9321 47.7037L32.0062 42.7654C31.8087 42.5679 31.6111 42.3704 31.6111 41.9753C31.6111 41.5802 31.8087 41.3827 32.0062 41.1852L37.9321 36.2469C38.1297 35.8518 38.5247 35.8518 38.9198 36.0494C39.3148 36.2469 39.5124 36.642 39.5124 37.037V38.0247H56.3025V15.3086C56.3025 13.7284 54.9198 12.3457 53.3395 12.3457H24.105C24.5 12.9383 24.6976 13.5309 24.6976 14.321V26.1728H41.4877V25.1852C41.4877 24.7901 41.6852 24.3951 42.0803 24.1975C42.2778 24 42.8704 24.1975 43.0679 24.3951L48.9939 29.3333C49.1914 29.5309 49.3889 29.7284 49.3889 30.1234C49.3889 30.5185 49.1914 30.716 48.9939 30.9136L43.0679 35.8518C42.8704 36.2469 42.4753 36.2469 42.0803 36.0494C41.6852 35.8518 41.4877 35.4568 41.4877 35.0617V34.0741H24.6976V65.679C24.6976 66.8642 25.4877 67.6543 26.6729 67.6543C27.858 67.6543 28.6482 66.8642 28.6482 65.679V62.716C28.6482 62.1234 29.0432 61.7284 29.6358 61.7284ZM38.5247 43.9506H66.179V40.3951H38.5247H38.1297H37.9321C37.9321 40.1975 37.7346 40.1975 37.7346 40.1975V40C37.5371 40 37.5371 39.8025 37.5371 39.8025V39.6049V39.4074L34.179 42.1728L37.5371 44.9383V44.7407V44.5432C37.7346 44.5432 37.7346 44.3457 37.7346 44.3457V44.1481C37.7346 43.9506 37.9321 43.9506 37.9321 43.9506H38.1297H38.5247ZM28.6482 19.2593H38.5247V21.2346H28.6482V19.2593ZM32.5988 53.8272V55.8025H52.3519V53.8272H32.5988ZM46.426 51.8518V49.8765H52.3519V51.8518H46.426Z" fill="url(#paint0_linear_720_18752)"/>
<defs>
<linearGradient id="paint0_linear_720_18752" x1="14.3764" y1="10.3704" x2="73.3468" y2="31.5166" gradientUnits="userSpaceOnUse">
<stop stop-color="#002D85"/>
<stop offset="1" stop-color="#DE0000"/>
</linearGradient>
</defs>
</svg>
