<svg width="81" height="80" viewBox="0 0 81 80" fill="none" xmlns="http://www.w3.org/2000/svg">
<path fill-rule="evenodd" clip-rule="evenodd" d="M50.8412 64.8088V58.9833H55.8632V67.2193C55.8632 68.4246 54.8588 69.6299 53.4527 69.6299H13.8795C12.6743 69.6299 11.469 68.6255 11.469 67.2193V19.0084C11.469 17.8031 12.4734 16.5979 13.8795 16.5979H21.5129C22.1156 12.982 25.1287 10.3706 28.7446 10.3706H38.5876C42.2034 10.3706 45.2166 13.1829 45.8193 16.5979H53.4527C54.6579 16.5979 55.8632 17.6022 55.8632 19.0084V27.4453H50.8412V21.4189H45.8193V23.8295C45.8193 25.0348 44.8149 26.24 43.4087 26.24H23.5217C22.3164 26.24 21.1112 25.2356 21.1112 23.8295V21.4189H16.0892V64.8088H50.8412ZM26.7358 14.3882C24.9279 14.3882 23.5217 15.7943 23.5217 17.6022H23.3208V24.2312H43.2078V17.6022C43.2078 15.7943 41.8017 14.3882 39.9938 14.3882H26.7358ZM44.2134 30.0566L67.7162 29.8558H69.1224V31.2619L69.3233 48.5375V49.9436H67.9171L60.0832 50.0106V53.3587H63.2973V56.171H49.2358V53.3587H52.4498V50.0758L44.4143 50.1445H43.0081V48.7384L42.8073 31.4628V30.0566H44.2134ZM66.3101 32.6681L45.6196 32.8689L45.8204 47.1313L66.511 46.9305L66.3101 32.6681ZM55.2621 42.9132L50.2402 36.6859L58.2753 37.4894L57.2709 39.0965L61.0876 41.1053L60.0832 43.1141L56.2665 41.1053L55.2621 42.9132ZM36.3795 32.6684H21.5145C20.1083 32.6684 19.1039 33.8736 19.1039 35.0789C19.1039 36.485 20.3092 37.4894 21.5145 37.4894H36.3795C37.7857 37.4894 38.7901 36.2842 38.7901 35.0789C38.7901 33.8736 37.7857 32.6684 36.3795 32.6684ZM21.5145 42.5112H36.3795C37.7857 42.5112 38.7901 43.7165 38.7901 44.9218C38.7901 46.127 37.7857 47.3323 36.3795 47.3323H21.5145C20.3092 47.3323 19.1039 46.3279 19.1039 44.9218C19.1039 43.7165 20.1083 42.5112 21.5145 42.5112ZM26.3344 51.9524H21.3124C19.9063 51.9524 18.9019 53.1577 18.9019 54.363C18.9019 55.7691 20.1072 56.7735 21.3124 56.7735H26.3344C27.7406 56.7735 28.745 55.5682 28.745 54.363C28.9458 53.1577 27.7406 51.9524 26.3344 51.9524Z" fill="url(#paint0_linear_808_17561)"/>
<defs>
<linearGradient id="paint0_linear_808_17561" x1="68.2885" y1="68.3446" x2="68.2885" y2="10.3706" gradientUnits="userSpaceOnUse">
<stop stop-color="#002D85"/>
<stop offset="1" stop-color="#013AA9"/>
</linearGradient>
</defs>
</svg>
