<svg width="81" height="80" viewBox="0 0 81 80" fill="none" xmlns="http://www.w3.org/2000/svg">
<path fill-rule="evenodd" clip-rule="evenodd" d="M64.4096 18.744V65.3485V67.4931C64.4117 67.8215 64.3458 68.1473 64.2158 68.4513C64.0859 68.7554 63.8942 69.0319 63.6523 69.2648C63.4102 69.4978 63.1223 69.6826 62.8053 69.8088C62.4883 69.9351 62.1482 70 61.8048 70H20.0031C19.3081 70 18.6416 69.7358 18.1501 69.2657C17.6587 68.7956 17.3825 68.158 17.3825 67.4931V18.744C17.3824 18.4103 17.4523 18.08 17.5882 17.7727C17.7239 17.4653 17.9229 17.1872 18.1731 16.9548C18.4235 16.7224 18.7199 16.5405 19.0452 16.4198C19.3703 16.2991 19.7175 16.2421 20.0662 16.2522H27.9592C28.2771 14.5103 29.2239 12.9304 30.6346 11.7878C32.0452 10.6453 33.8303 10.0126 35.6786 10H46.1292C47.9884 9.9984 49.7884 10.6247 51.2122 11.7685C52.6359 12.9123 53.5919 14.5001 53.9117 16.2522H61.8048C62.4956 16.2522 63.1582 16.5147 63.6466 16.982C64.135 17.4493 64.4096 18.0832 64.4096 18.744ZM22.6077 65.0012H59.1842V21.251H53.959V23.7428C53.9611 24.0713 53.8953 24.3969 53.7654 24.701C53.6353 25.005 53.4438 25.2815 53.2017 25.5145C52.9596 25.7476 52.6718 25.9324 52.3548 26.0586C52.0377 26.1848 51.6977 26.2496 51.3544 26.2496H30.4535C29.7584 26.2496 29.0919 25.9856 28.6004 25.5154C28.1091 25.0452 27.8329 24.4076 27.8329 23.7428V21.2056H22.6077V65.0012ZM30.4535 23.8937H51.3544V17.2942C51.3544 16.4091 50.9868 15.5602 50.3326 14.9343C49.6783 14.3083 48.7909 13.9567 47.8656 13.9567H33.9265C33.0039 13.9607 32.1206 14.3141 31.4697 14.9396C30.8188 15.5651 30.4535 16.4117 30.4535 17.2942V23.8937ZM44.8891 51.7427C43.6583 52.5298 42.211 52.9502 40.7303 52.9502C38.7485 52.9502 36.8477 52.1981 35.445 50.8589C34.0421 49.5196 33.2519 47.7028 33.2477 45.8069C33.2446 44.3904 33.6808 43.0051 34.501 41.8258C35.3214 40.6468 36.489 39.7268 37.8558 39.1828C39.2229 38.6385 40.7279 38.4947 42.1804 38.7692C43.633 39.0436 44.9678 39.7242 46.0158 40.7248C47.0639 41.7253 47.7781 43.0007 48.068 44.3898C48.3581 45.7787 48.2109 47.2189 47.6449 48.5277C47.079 49.8367 46.1199 50.9554 44.8891 51.7427ZM44.3305 40.6513C43.2641 39.9728 42.0111 39.6122 40.7303 39.6151C39.0177 39.623 37.378 40.2785 36.1685 41.4384C34.959 42.5982 34.2779 44.1686 34.2738 45.8069C34.2738 47.0322 34.6538 48.23 35.3657 49.2485C36.0776 50.267 37.0893 51.0607 38.2729 51.5288C39.4565 51.997 40.7587 52.1188 42.0147 51.8786C43.2706 51.6384 44.4237 51.0472 45.3283 50.1798C46.2328 49.3124 46.8481 48.2077 47.096 47.0056C47.344 45.8035 47.2136 44.5581 46.7212 43.4269C46.2289 42.2958 45.3969 41.3298 44.3305 40.6513ZM40.1936 48.8424C39.7621 48.8035 39.3485 48.6579 38.9939 48.4195C38.9323 48.3894 38.8775 48.3477 38.8329 48.2969C38.7883 48.2462 38.7547 48.1875 38.7343 48.1242C38.7137 48.0608 38.7064 47.9943 38.713 47.9283C38.7197 47.8623 38.7401 47.7983 38.7729 47.7399C38.8095 47.6857 38.8572 47.639 38.9131 47.6027C38.9689 47.5664 39.0318 47.5411 39.098 47.5284C39.1643 47.5158 39.2324 47.516 39.2986 47.5289C39.3648 47.5419 39.4275 47.5675 39.4833 47.604C39.6988 47.7303 39.9419 47.8078 40.1936 47.8305V45.8522C39.9273 45.7445 39.6776 45.6021 39.4517 45.4294C39.2373 45.2614 39.0764 45.0394 38.9872 44.7885C38.8979 44.5377 38.8838 44.268 38.9465 44.0098C39.0012 43.7202 39.1374 43.4505 39.3404 43.2297C39.5435 43.0088 39.8057 42.8452 40.0989 42.7563H40.1936V42.4695C40.1936 42.3412 40.2469 42.2183 40.3416 42.1276C40.4363 42.037 40.5648 41.9861 40.6987 41.9861C40.8328 41.9861 40.9612 42.037 41.0559 42.1276C41.1507 42.2183 41.204 42.3412 41.204 42.4695V42.7563C41.583 42.8003 41.9483 42.9185 42.2774 43.1037C42.3362 43.1348 42.3876 43.1771 42.4285 43.2281C42.4695 43.279 42.499 43.3375 42.5152 43.3998C42.5316 43.4621 42.5342 43.5269 42.5232 43.5903C42.5122 43.6537 42.4877 43.7142 42.451 43.7682C42.3764 43.8765 42.2618 43.9541 42.1299 43.9849C41.9983 44.0157 41.8591 43.9977 41.7406 43.9343C41.5784 43.8329 41.3955 43.7659 41.204 43.7379V45.2481L41.4565 45.3388C41.8726 45.4672 42.2261 45.7351 42.4523 46.093C42.6785 46.4509 42.7622 46.8748 42.6878 47.287C42.6142 47.6467 42.4358 47.9792 42.1732 48.2465C41.9107 48.5136 41.5747 48.7044 41.204 48.797V49.1293C41.204 49.2576 41.1507 49.3805 41.0559 49.4711C40.9612 49.5616 40.8328 49.6125 40.6987 49.6125C40.5648 49.6125 40.4363 49.5616 40.3416 49.4711C40.2469 49.3805 40.1936 49.2576 40.1936 49.1293V48.8424ZM41.6019 46.5761C41.515 46.4236 41.3738 46.3061 41.204 46.2449V47.7399C41.3268 47.6668 41.4323 47.5698 41.5139 47.4555C41.5955 47.341 41.6511 47.2116 41.6775 47.0755C41.7156 46.9057 41.6889 46.7285 41.6019 46.5761ZM39.9419 44.5158C39.9615 44.5985 40.005 44.6744 40.0674 44.7347H40.1936V43.874C40.129 43.9211 40.0749 43.9802 40.0342 44.0475C39.9935 44.1149 39.9672 44.1894 39.9568 44.2665C39.9276 44.3467 39.9224 44.4329 39.9419 44.5158ZM53.3692 36.9949C53.3692 36.8838 53.3326 36.7755 53.2645 36.6853L52.1122 35.2054C52.0651 35.1587 52.0087 35.1217 51.9463 35.0964C51.8838 35.0711 51.8169 35.0582 51.7491 35.0582C51.6813 35.0582 51.6143 35.0711 51.5519 35.0964C51.4895 35.1217 51.4332 35.1587 51.386 35.2054C51.2848 35.2876 51.2201 35.4039 51.2055 35.5302C51.1908 35.6565 51.2272 35.7834 51.307 35.8849L51.8281 36.4891H48.6708C48.5501 36.5094 48.4408 36.5697 48.3622 36.6595C48.2834 36.7492 48.2402 36.8627 48.2402 36.9798C48.2402 37.097 48.2834 37.2104 48.3622 37.3002C48.4408 37.3901 48.5501 37.4504 48.6708 37.4707H51.8281L51.307 38.0747C51.2535 38.1237 51.2115 38.1832 51.1838 38.2489C51.1561 38.3147 51.1434 38.3854 51.1466 38.4563C51.1497 38.5271 51.1687 38.5965 51.2023 38.66C51.2357 38.7232 51.2829 38.779 51.3408 38.8234C51.3985 38.8678 51.4655 38.9 51.5373 38.9176C51.6091 38.9353 51.6841 38.9381 51.757 38.9257C51.8302 38.9136 51.8996 38.8865 51.9609 38.8466C52.022 38.8065 52.0736 38.7545 52.1122 38.6938L53.2645 37.3046C53.3326 37.2144 53.3692 37.1061 53.3692 36.9949ZM28.4229 54.6566C28.4229 54.7682 28.4658 54.8757 28.5435 54.9587L29.7275 56.3632C29.77 56.4128 29.8222 56.4538 29.8814 56.4842C29.9404 56.5143 30.0051 56.5331 30.0719 56.5395C30.1385 56.5458 30.2058 56.5395 30.2701 56.5208C30.3341 56.5023 30.3938 56.4718 30.4457 56.4311C30.4976 56.3904 30.5404 56.3405 30.572 56.2839C30.6036 56.2273 30.6234 56.1655 30.6299 56.1016C30.6365 56.0379 30.6299 55.9734 30.6104 55.9121C30.5911 55.8506 30.5592 55.7935 30.5167 55.7441L30.0116 55.1398H33.153C33.2869 55.1398 33.4155 55.0889 33.5102 54.9984C33.6049 54.9078 33.6581 54.7849 33.6581 54.6566C33.6602 54.5919 33.6487 54.5275 33.6244 54.467C33.5999 54.4067 33.5631 54.3516 33.5159 54.3052C33.4687 54.2587 33.4124 54.2217 33.35 54.1964C33.2877 54.1712 33.2208 54.1583 33.153 54.1583H29.9958L30.501 53.5542C30.5423 53.5046 30.5733 53.4477 30.5916 53.3867C30.6101 53.3257 30.616 53.2618 30.6087 53.1988C30.6012 53.1357 30.5809 53.0745 30.549 53.0189C30.517 52.9633 30.4739 52.9143 30.422 52.8746C30.3701 52.835 30.3108 52.8055 30.2469 52.7878C30.1831 52.7702 30.1165 52.7647 30.0505 52.7716C29.9845 52.7786 29.9206 52.7981 29.8625 52.8287C29.8043 52.8592 29.7531 52.9005 29.7116 52.9502L28.5435 54.3547C28.4658 54.4377 28.4229 54.5452 28.4229 54.6566ZM26.728 56.9522V57.1182C26.728 57.3319 26.8157 57.5371 26.9722 57.6897C27.1285 57.8421 27.3414 57.9298 27.5647 57.9337H38.1571C38.2321 57.9464 38.3091 57.9431 38.3825 57.9243C38.456 57.9055 38.5243 57.8715 38.5825 57.8248C38.6407 57.7779 38.6876 57.7195 38.7197 57.6535C38.7518 57.5877 38.7685 57.5157 38.7685 57.443C38.7685 57.3702 38.7518 57.2984 38.7197 57.2324C38.6876 57.1664 38.6407 57.108 38.5825 57.0613C38.5243 57.0144 38.456 56.9804 38.3825 56.9616C38.3091 56.9428 38.2321 56.9395 38.1571 56.9522H27.7384V55.7591C27.7372 55.6625 27.7069 55.5681 27.6508 55.4877C27.5949 55.4072 27.5156 55.3442 27.4227 55.3061C27.3134 55.277 27.1969 55.2853 27.0931 55.3294C26.9895 55.3735 26.905 55.4505 26.8543 55.5477L23.6971 58.5681C23.6488 58.6117 23.6104 58.6644 23.5841 58.723C23.5578 58.7814 23.5444 58.8443 23.5444 58.9078C23.5444 58.9714 23.5578 59.0343 23.5841 59.0929C23.6104 59.1512 23.6488 59.204 23.6971 59.2476L26.8543 62.268C26.9164 62.3523 27.0051 62.4152 27.1074 62.4478C27.2096 62.4806 27.32 62.4809 27.4227 62.4493C27.5156 62.4156 27.5954 62.3556 27.6518 62.2774C27.7082 62.1991 27.7384 62.1063 27.7384 62.0113V60.8183H38.1571C38.2953 60.8183 38.4279 60.7657 38.5256 60.6723C38.6232 60.5788 38.6782 60.4521 38.6782 60.32C38.6782 60.2551 38.6645 60.191 38.6383 60.1314C38.6118 60.0717 38.5732 60.0178 38.5246 59.9728C38.4761 59.9277 38.4185 59.8923 38.3553 59.869C38.2922 59.8456 38.2249 59.8346 38.1571 59.8365H27.5647C27.3544 59.8395 27.1527 59.9167 26.9981 60.0532C26.8437 60.1899 26.7474 60.3762 26.728 60.5767V60.7427L24.7548 58.8399L26.728 56.9522ZM49.059 51.0547C50.1326 49.4971 50.7057 47.6726 50.7072 45.8069C50.7093 44.3132 50.3448 42.8398 49.6431 41.5054C48.9414 40.171 47.9221 39.0128 46.6672 38.124C45.4123 37.235 43.9569 36.6404 42.4179 36.3877C40.879 36.1351 39.2996 36.2314 37.8067 36.6691C36.3138 37.1069 34.9492 37.8738 33.8227 38.9079C32.696 39.9422 31.8388 41.215 31.3202 42.6238C30.8015 44.0327 30.6356 45.5384 30.836 47.0197C31.0364 48.5012 31.5975 49.9169 32.4742 51.1529C32.5496 51.2611 32.6668 51.3362 32.7999 51.3618C32.9332 51.3872 33.0716 51.361 33.1846 51.289C33.2976 51.2168 33.3761 51.1048 33.4027 50.9773C33.4293 50.8498 33.4021 50.7175 33.3267 50.6094C32.2021 49.0244 31.6643 47.1248 31.7994 45.2136C31.9343 43.3023 32.7343 41.4892 34.0715 40.0635C35.4087 38.6376 37.2064 37.681 39.1779 37.3459C41.1495 37.0111 43.1816 37.3172 44.9501 38.2155C46.7188 39.1138 48.1222 40.5525 48.9367 42.3026C49.7512 44.0525 49.9299 46.013 49.4446 47.8714C48.9591 49.73 47.8372 51.3795 46.2579 52.5572C44.6787 53.7349 42.7327 54.373 40.7303 54.3697C38.437 54.3753 36.2305 53.5309 34.5737 52.0138C34.4718 51.9478 34.3489 51.9183 34.2265 51.9308C34.1042 51.9433 33.9904 51.9967 33.9052 52.0818C33.8201 52.1668 33.7692 52.2778 33.7616 52.3954C33.754 52.5128 33.7899 52.6291 33.8634 52.7236C35.2781 54.0078 37.0554 54.8671 38.9752 55.1953C40.8951 55.5235 42.8735 55.3062 44.6657 54.5703C46.4577 53.8344 47.9851 52.6121 49.059 51.0547ZM54.9695 36.1267L58.1268 33.1062C58.1874 33.0558 58.2356 32.993 58.2675 32.9227C58.2996 32.8521 58.3147 32.7756 58.3116 32.6987C58.3085 32.6218 58.2876 32.5468 58.2502 32.4787C58.2125 32.4107 58.1597 32.3517 58.0951 32.3058L54.9378 29.2854C54.8636 29.2177 54.7707 29.1717 54.6699 29.153C54.5692 29.1342 54.465 29.1435 54.3696 29.1796C54.2767 29.2177 54.1974 29.2808 54.1413 29.3612C54.0854 29.4418 54.0549 29.5361 54.0539 29.6327V30.8107H51.7175C51.5835 30.8107 51.4551 30.8616 51.3604 30.9522C51.2655 31.0429 51.2123 31.1658 51.2123 31.2939C51.2123 31.4222 51.2655 31.5451 51.3604 31.6357C51.4551 31.7264 51.5835 31.7771 51.7175 31.7771H54.259C54.4825 31.7773 54.6969 31.6935 54.8564 31.5438C55.0158 31.3941 55.1075 31.1904 55.1115 30.9769V30.7956L57.069 32.6984L55.1115 34.6014V34.4201C55.1075 34.2063 55.0158 34.0028 54.8564 33.8531C54.6969 33.7035 54.4825 33.6196 54.259 33.6196H43.6666C43.5327 33.6196 43.4041 33.6705 43.3094 33.7612C43.2147 33.8518 43.1615 33.9748 43.1615 34.1029C43.1615 34.2311 43.2147 34.3541 43.3094 34.4447C43.4041 34.5352 43.5327 34.5861 43.6666 34.5861H54.0855V35.7793C54.0865 35.876 54.1168 35.9702 54.1729 36.0506C54.229 36.131 54.3083 36.1943 54.4012 36.2322C54.4966 36.2685 54.6007 36.2778 54.7016 36.259C54.8023 36.2403 54.8952 36.1943 54.9695 36.1267ZM43.2777 31.0127C43.183 31.1034 43.1298 31.2263 43.1298 31.3544C43.1298 31.4825 43.183 31.6054 43.2777 31.6961C43.3726 31.7867 43.501 31.8376 43.635 31.8376H49.681C49.8151 31.8376 49.9436 31.7867 50.0383 31.6961C50.133 31.6054 50.1863 31.4825 50.1863 31.3544C50.1863 31.2263 50.133 31.1034 50.0383 31.0127C49.9436 30.9221 49.8151 30.8711 49.681 30.8711H43.635C43.501 30.8711 43.3726 30.9221 43.2777 31.0127Z" fill="url(#paint0_linear_808_17592)"/>
<defs>
<linearGradient id="paint0_linear_808_17592" x1="63.5685" y1="68.6986" x2="63.5685" y2="10" gradientUnits="userSpaceOnUse">
<stop stop-color="#002D85"/>
<stop offset="1" stop-color="#013AA9"/>
</linearGradient>
</defs>
</svg>
