<svg width="80" height="81" viewBox="0 0 80 81" fill="none" xmlns="http://www.w3.org/2000/svg">
<path fill-rule="evenodd" clip-rule="evenodd" d="M24.7945 16.4353H36.3013V21.0381H24.7945V16.4353ZM27.0957 21.0381H33.9998V22.8067C38.4759 23.5649 42.4611 25.7721 45.4554 28.9284H64.0821V39.4489H61.6164V47.0106H64.0821V57.2024H45.5152C41.7926 61.1503 36.5001 63.6135 30.5479 63.6135C19.2055 63.6135 10 54.408 10 43.0655C10 32.8994 17.395 24.45 27.0957 22.8068V21.0381ZM33.9998 24.6425C37.7435 25.3385 41.0947 27.146 43.6986 29.7102V56.4209C40.3166 59.7513 35.6739 61.8053 30.5479 61.8053C20.1918 61.8053 11.8082 53.4217 11.8082 43.0655C11.8082 33.8889 18.3909 26.2611 27.0957 24.6426V25.6409H33.9998V24.6425ZM33.0135 45.5313C31.6985 46.8464 29.3971 46.8464 28.082 45.5313C26.7669 44.2162 26.7669 41.9149 28.082 40.5998C30.5478 38.2984 39.5889 34.0245 39.5889 34.0245C39.5889 34.0245 35.3149 43.2299 33.0135 45.5313ZM55.2054 42.0791C57.3424 42.0791 58.9863 43.7229 58.9863 45.8599C58.9863 47.5037 58 48.9832 56.5205 49.4763V52.1065H54.0548V49.4763C52.5753 48.9832 51.589 47.5037 51.589 45.8599H54.0548C54.0548 46.5174 54.5479 47.175 55.3698 47.175C56.0274 47.175 56.6849 46.6818 56.6849 45.8599C56.6849 45.2024 56.1917 44.5448 55.3698 44.5448C53.2328 44.5448 51.589 42.901 51.589 40.764C51.589 39.1202 52.5753 37.6407 54.0548 37.1476V34.3531H56.5205V37.1476C58 37.6407 58.9863 39.1202 58.9863 40.764H56.5205C56.5205 40.1065 56.0274 39.4489 55.2054 39.4489C54.5479 39.4489 53.8904 39.9421 53.8904 40.764C53.8904 41.4215 54.5479 42.0791 55.2054 42.0791ZM67.863 44.3806V45.8601L70 43.2299L67.863 40.5998V42.0792H62.6027V44.545C62.7574 44.3904 67.566 44.3812 67.863 44.3806Z" fill="url(#paint0_linear_720_19100)"/>
<defs>
<linearGradient id="paint0_linear_720_19100" x1="11.6605" y1="16.4353" x2="69.9438" y2="44.9137" gradientUnits="userSpaceOnUse">
<stop stop-color="#002D85"/>
<stop offset="1" stop-color="#DE0000"/>
</linearGradient>
</defs>
</svg>
