<svg width="81" height="80" viewBox="0 0 81 80" fill="none" xmlns="http://www.w3.org/2000/svg">
<path fill-rule="evenodd" clip-rule="evenodd" d="M70.0514 15.7489L64.5823 10.1359C64.2945 9.84808 64.0066 9.84807 63.5748 9.99199C63.287 10.1359 62.9992 10.4238 62.9992 10.8555V13.0144H58.9693C58.5375 13.0144 58.1058 13.4461 58.1058 13.8779C58.1058 14.3097 58.5375 14.7414 58.9693 14.7414H63.287C64.1505 14.7414 64.7262 14.0218 64.7262 13.3022V13.0144L68.1804 16.4685L64.7262 19.9227V19.6348C64.7262 18.7713 64.0066 18.1956 63.287 18.1956H44.8649C44.4331 18.1956 44.0013 18.6274 44.0013 19.0591C44.0013 19.4909 44.4331 19.9227 44.8649 19.9227H63.1431V22.0815C63.1431 22.3694 63.4309 22.8011 63.7188 22.9451C64.0066 23.089 64.4384 22.9451 64.7262 22.8011L70.1953 17.1881C70.4831 16.6124 70.4831 16.0368 70.0514 15.7489ZM59.6889 20.9301C59.4011 20.4983 58.8254 20.4983 58.3936 20.7861C57.9618 21.074 57.9618 21.6497 58.2497 22.0815L59.1132 23.2329H53.5002C53.0685 23.2329 52.6367 23.6646 52.6367 24.0964C52.6367 24.5282 53.0685 24.9599 53.5002 24.9599H59.1132L58.2497 26.1113C57.9618 26.5431 57.9618 26.9748 58.3936 27.4066C58.8254 27.6945 59.4011 27.6945 59.6889 27.2627L61.7038 24.6721C61.9917 24.3842 61.9917 23.9525 61.7038 23.5207L59.6889 20.9301ZM52.9246 39.9281C52.9246 47.1242 47.1677 52.8811 39.9715 52.8811C32.9193 52.8811 27.0185 47.1242 27.0185 39.9281C27.0185 32.7319 32.7754 26.975 39.9715 26.975C47.1677 26.975 52.9246 32.7319 52.9246 39.9281ZM51.1975 40.072C51.1975 33.8833 46.1602 28.846 39.9715 28.846C33.7828 28.846 28.7455 33.8833 28.7455 40.072C28.7455 46.2607 33.7828 51.298 39.9715 51.298C46.1602 51.298 51.1975 46.2607 51.1975 40.072ZM38.9655 45.3971C38.2459 45.3971 37.6702 45.2532 36.9506 44.6775C36.5188 44.3896 36.5188 43.9579 36.5188 43.814C36.6628 43.3822 37.2384 43.2383 37.6702 43.5261C38.102 43.814 38.3898 43.9579 38.8216 43.9579V40.3598C38.2459 40.2159 37.8141 39.928 37.5263 39.6402C36.8067 39.0645 36.5188 38.057 36.6628 37.0496C36.9506 35.8982 37.6702 35.0347 38.6777 34.7468H38.8216V34.1711C38.8216 33.7394 39.2534 33.3076 39.6851 33.3076C40.1169 33.3076 40.5487 33.7394 40.5487 34.1711V34.6029C41.5561 34.7468 42.4197 35.1786 42.4197 35.1786C42.8514 35.3225 42.9954 35.8982 42.7075 36.33C42.5636 36.7617 41.9879 36.9057 41.5561 36.6178C41.5561 36.6178 41.2683 36.4739 40.6926 36.33V39.0645C40.7646 39.0645 40.8365 39.1005 40.9085 39.1365L40.9085 39.1365C40.9805 39.1724 41.0524 39.2084 41.1244 39.2084C42.7075 39.6402 43.5711 41.0794 43.2832 42.6626C42.9954 43.814 42.1318 44.9653 40.6926 45.3971V45.9728C40.6926 46.4046 40.2608 46.8363 39.8291 46.8363C39.3973 46.8363 38.9655 46.4046 38.9655 45.9728V45.3971ZM40.8365 43.5261C41.4122 43.2383 41.5561 42.8065 41.7001 42.3747C41.7001 41.943 41.7001 41.2233 40.8365 40.7916V43.5261ZM38.6777 37.1935C38.5338 37.6253 38.6777 37.9131 38.8216 38.057C38.9655 38.057 38.9655 38.057 39.1094 38.201V36.4739C38.8216 36.6178 38.6777 36.9057 38.6777 37.1935ZM22.27 59.2137C21.8382 59.5015 21.2625 59.5015 20.9746 59.0698L18.8158 56.4791C18.528 56.0474 18.528 55.6156 18.8158 55.3278L20.8307 52.7372C21.2625 52.3054 21.6942 52.3054 22.126 52.5932C22.5578 53.025 22.5578 53.4568 22.27 53.8885L21.4064 55.0399H27.1633C27.5951 55.0399 28.0269 55.4717 28.0269 55.9035C28.0269 56.3352 27.5951 56.767 27.1633 56.767H21.5503L22.4139 57.9184C22.7017 58.3501 22.7017 58.9258 22.27 59.2137ZM17.2323 61.9483H35.6544C36.0862 61.9483 36.518 61.5165 36.518 61.0848C36.518 60.653 36.0862 60.2212 35.6544 60.2212H17.6641V58.0624C17.6641 57.7745 17.3762 57.3428 17.0884 57.1988C16.8005 57.0549 16.3688 57.1988 16.0809 57.3428L10.6118 62.9558C10.324 63.2436 10.324 63.8193 10.6118 64.2511L16.0809 69.8641C16.3688 70.1519 16.6566 70.1519 17.0884 70.008C17.3762 69.8641 17.6641 69.5762 17.6641 69.1444V66.9856H35.6544C36.0862 66.9856 36.518 66.5538 36.518 66.1221C36.518 65.6903 36.0862 65.2585 35.6544 65.2585H17.2323C16.3688 65.2585 15.7931 65.9781 15.7931 66.6978V66.9856L12.3389 63.5314L15.7931 60.0773V60.3651C15.7931 61.2287 16.3688 61.9483 17.2323 61.9483ZM22.7008 39.928C22.7008 30.4291 30.4726 22.6572 39.9716 22.6572C49.4705 22.6572 57.2423 30.4291 57.3862 39.928C57.3862 49.4269 49.6144 57.1987 40.1155 57.1987C35.6539 57.1987 31.3362 55.4716 28.1699 52.4493C27.882 52.0175 27.882 51.4418 28.1699 51.1539C28.6017 50.8661 29.1773 50.8661 29.4652 51.1539C32.3436 53.8885 36.0856 55.4716 40.1155 55.4716C48.7509 55.4716 55.6591 48.5633 55.6591 39.928C55.6591 31.2926 48.6069 24.3843 40.1155 24.3843C31.4801 24.3843 24.5718 31.4365 24.5718 39.928C24.5718 42.9503 25.5793 45.9727 27.3063 48.5633C27.5942 48.9951 27.4503 49.5708 27.0185 49.8586C26.5867 50.1465 26.011 50.0026 25.7232 49.5708C23.7083 46.6923 22.7008 43.3821 22.7008 39.928ZM55.5163 14.7416H45.0099C44.5781 14.7416 44.1464 14.3098 44.1464 13.878C44.1464 13.4463 44.5781 13.0145 45.0099 13.0145H55.5163C55.948 13.0145 56.3798 13.4463 56.3798 13.878C56.3798 14.3098 55.948 14.7416 55.5163 14.7416Z" fill="url(#paint0_linear_808_17870)"/>
<defs>
<linearGradient id="paint0_linear_808_17870" x1="69.3228" y1="68.7967" x2="69.3228" y2="9.89746" gradientUnits="userSpaceOnUse">
<stop stop-color="#002D85"/>
<stop offset="1" stop-color="#013AA9"/>
</linearGradient>
</defs>
</svg>
