<svg width="81" height="80" viewBox="0 0 81 80" fill="none" xmlns="http://www.w3.org/2000/svg">
<path fill-rule="evenodd" clip-rule="evenodd" d="M58.1737 38.0249H67.0626C67.4577 38.0249 68.0503 38.42 68.0503 39.0126V44.9385C68.0503 45.5311 67.6552 45.9262 67.0626 45.9262H58.1737V61.7286H59.1614C61.3342 61.7286 63.112 63.5064 63.112 65.6792C63.112 67.8521 61.3342 69.6299 59.1614 69.6299H26.5688C24.396 69.6299 22.6182 67.8521 22.6182 65.6792V45.9262H17.6799C17.0873 45.9262 16.6923 45.5311 16.6923 44.9385V34.0743H13.7293C13.1367 34.0743 12.7416 33.6792 12.7416 33.0867V27.1607C12.7416 26.5681 13.1367 26.1731 13.7293 26.1731H16.6923V14.3212C16.6923 12.1484 18.47 10.3706 20.6429 10.3706H53.2355C56.0009 10.3706 58.1737 12.5434 58.1737 15.3089V38.0249ZM20.6429 12.3459C19.4577 12.3459 18.6676 13.136 18.6676 14.3212V26.1731H22.6182V14.3212C22.6182 13.136 21.8281 12.3459 20.6429 12.3459ZM43.3589 27.3583C43.3589 27.7533 42.9639 28.1484 42.3713 28.1484H14.717V32.099H42.3713C42.9639 32.099 43.3589 32.4941 43.3589 32.8891L46.717 30.1237L43.3589 27.3583ZM18.6676 34.0743V43.9509H22.6182V34.0743H18.6676ZM59.1614 67.6546C60.3466 67.6546 61.1367 66.8644 61.1367 65.6792C61.1367 64.4941 60.1491 63.7039 59.1614 63.7039H30.5194V65.6792C30.5194 66.4694 30.3219 67.062 29.9268 67.6546H59.1614ZM29.5318 61.7286H56.1984V45.9262H39.4083V46.9138C39.4083 47.3089 39.2108 47.7039 38.8157 47.9015C38.6182 48.099 38.0256 47.9015 37.8281 47.7039L31.9021 42.7657C31.7046 42.5681 31.5071 42.3706 31.5071 41.9755C31.5071 41.5805 31.7046 41.383 31.9021 41.1854L37.8281 36.2472C38.0256 35.8521 38.4207 35.8521 38.8157 36.0496C39.2108 36.2471 39.4083 36.6422 39.4083 37.0373V38.0249H56.1984V15.3089C56.1984 13.7286 54.8157 12.3459 53.2355 12.3459H24.0009C24.396 12.9385 24.5935 13.5311 24.5935 14.3212V26.1731H41.3836V25.1854C41.3836 24.7904 41.5812 24.3953 41.9762 24.1978C42.1737 24.0002 42.7663 24.1978 42.9639 24.3953L48.8898 29.3336C49.0873 29.5311 49.2849 29.7286 49.2849 30.1237C49.2849 30.5188 49.0873 30.7163 48.8898 30.9138L42.9639 35.8521C42.7663 36.2471 42.3713 36.2471 41.9762 36.0496C41.5812 35.8521 41.3836 35.457 41.3836 35.062V34.0743H24.5935V65.6792C24.5935 66.8644 25.3836 67.6546 26.5688 67.6546C27.754 67.6546 28.5441 66.8644 28.5441 65.6792V62.7163C28.5441 62.1237 28.9392 61.7286 29.5318 61.7286ZM38.4207 43.9509H66.075V40.3953H38.4207H38.0256H37.8281C37.8281 40.1978 37.6305 40.1978 37.6305 40.1978V40.0002C37.433 40.0002 37.433 39.8027 37.433 39.8027V39.6052V39.4076L34.075 42.1731L37.433 44.9385V44.741V44.5434C37.6305 44.5434 37.6305 44.3459 37.6305 44.3459V44.1484C37.6305 43.9509 37.8281 43.9509 37.8281 43.9509H38.0256H38.4207ZM28.5441 19.2595H38.4207V21.2348H28.5441V19.2595ZM52.2478 53.8274H32.4947V55.8027H52.2478V53.8274ZM46.3219 51.8521V49.8768H52.2478V51.8521H46.3219Z" fill="url(#paint0_linear_808_17570)"/>
<defs>
<linearGradient id="paint0_linear_808_17570" x1="67.061" y1="68.3446" x2="67.061" y2="10.3706" gradientUnits="userSpaceOnUse">
<stop stop-color="#002D85"/>
<stop offset="1" stop-color="#013AA9"/>
</linearGradient>
</defs>
</svg>
