<svg width="81" height="80" viewBox="0 0 81 80" fill="none" xmlns="http://www.w3.org/2000/svg">
<path fill-rule="evenodd" clip-rule="evenodd" d="M20.1687 26.4501C27.0122 16.429 40.3045 12.55 51.4109 17.5826C51.9482 17.7617 52.6646 17.5825 52.8437 17.0452C53.0228 16.5079 52.8437 15.7915 52.3064 15.6124C39.8572 10.0015 25.3481 14.3467 18.0219 25.455L16.6646 23.851C17.2019 25.6421 17.0228 27.9704 16.8437 29.7615C18.2766 28.5078 20.0676 27.254 21.6795 26.7167L20.1687 26.4501ZM61.4408 28.1495V29.2242C61.4408 29.4033 61.6199 29.5824 61.799 29.5824H70.0378C70.2169 29.5824 70.396 29.4033 70.396 29.2242V28.1495C70.396 27.9704 70.2169 27.7913 70.0378 27.7913H61.799C61.6199 27.7913 61.4408 27.9704 61.4408 28.1495ZM68.9632 30.657V44.2689C68.9632 44.448 68.7841 44.6271 68.6049 44.6271H63.2318C63.0527 44.6271 62.8736 44.448 62.8736 44.2689V30.657C62.8736 30.4779 63.0527 30.2988 63.2318 30.2988H68.6049C68.7841 30.2988 68.9632 30.4779 68.9632 30.657ZM37.62 28.1495V29.2242C37.62 29.4033 37.7991 29.5824 37.9782 29.5824H46.217C46.3961 29.5824 46.5752 29.4033 46.5752 29.2242V28.1495C46.5752 27.9704 46.3961 27.7913 46.217 27.7913H37.9782C37.7991 27.7913 37.62 27.9704 37.62 28.1495ZM53.3811 17.9406L38.1573 24.9257C37.7991 25.1048 37.62 25.463 37.4409 26.0003V26.7167C37.4409 26.8958 37.62 27.0749 37.7991 27.0749H69.8587C70.0378 27.0749 70.2169 26.8958 70.2169 26.7167V26.0003C70.2169 25.463 69.8587 25.1048 69.5005 24.9257L54.2766 17.9406C53.9184 17.7615 53.7393 17.7615 53.3811 17.9406ZM65.202 25.1048H42.814C42.7039 24.8846 42.6615 24.7998 42.6867 24.7671C42.7025 24.7466 42.7449 24.7466 42.814 24.7466L53.9184 20.0898H54.0975L65.202 24.7466C65.3811 24.7466 65.3811 24.9257 65.3811 24.9257C65.3811 25.1048 65.202 25.1048 65.202 25.1048ZM49.4408 28.1495V29.2242C49.4408 29.4033 49.6199 29.5824 49.799 29.5824H58.0378C58.2169 29.5824 58.396 29.4033 58.396 29.2242V28.1495C58.396 27.9704 58.2169 27.7913 58.0378 27.7913H49.799C49.6199 27.7913 49.4408 27.9704 49.4408 28.1495ZM56.9632 30.657V44.2689C56.9632 44.448 56.7841 44.6271 56.605 44.6271H51.2319C51.0528 44.6271 50.8737 44.448 50.8737 44.2689V30.657C50.8737 30.4779 51.0528 30.2988 51.2319 30.2988H56.605C56.7841 30.2988 56.9632 30.4779 56.9632 30.657ZM35.4706 39.075V40.3287C35.4706 40.5078 35.6497 40.6869 35.8288 40.6869H44.6049C44.784 40.6869 44.9631 40.5078 44.9631 40.3287V39.075C44.9631 38.8959 44.784 38.7168 44.6049 38.7168H35.8288C35.6497 38.7168 35.4706 38.8959 35.4706 39.075ZM43.5302 41.7615V56.0899C43.5302 56.269 43.3511 56.4481 43.172 56.4481H37.6198C37.4407 56.4481 37.2616 56.269 37.2616 56.0899V41.7615C37.2616 41.5824 37.4407 41.4033 37.6198 41.4033H43.172C43.3511 41.4033 43.5302 41.5824 43.5302 41.7615ZM10.396 39.075V40.3287C10.396 40.5078 10.5751 40.6869 10.7542 40.6869H19.5303C19.7094 40.6869 19.8885 40.5078 19.8885 40.3287V39.075C19.8885 38.8959 19.7094 38.7168 19.5303 38.7168H10.7542C10.5751 38.7168 10.396 38.8959 10.396 39.075ZM27.2318 28.3287L11.1124 35.672C10.7542 35.8511 10.396 36.2093 10.5751 36.7466V37.463C10.5751 37.6421 10.7542 37.8212 10.9333 37.8212H44.6049C44.784 37.8212 44.9631 37.6421 44.9631 37.463V36.7466C44.9631 36.2093 44.6049 35.8511 44.2466 35.672L28.1273 28.3287C27.9482 28.1496 27.59 28.1496 27.2318 28.3287ZM39.4108 35.8511H15.9482C15.7691 35.4929 15.7691 35.4929 15.59 35.4929L27.4109 30.478H27.59L39.4108 35.4929C39.5899 35.4929 39.5899 35.672 39.5899 35.672C39.5899 35.8511 39.4108 35.8511 39.4108 35.8511ZM10.396 57.5227V59.1346C10.396 59.3137 10.5751 59.4928 10.7542 59.4928H44.4257C44.6049 59.4928 44.784 59.3137 44.784 59.1346V57.5227C44.784 57.3436 44.6049 57.1645 44.4257 57.1645H10.7542C10.5751 57.1645 10.396 57.3436 10.396 57.5227ZM18.4557 41.7615V56.0899C18.4557 56.269 18.2766 56.4481 18.0975 56.4481H12.5452C12.3661 56.4481 12.187 56.269 12.187 56.0899V41.7615C12.187 41.5824 12.3661 41.4033 12.5452 41.4033H18.0975C18.2766 41.4033 18.4557 41.5824 18.4557 41.7615ZM22.9333 39.075V40.3287C22.9333 40.5078 23.1124 40.6869 23.2915 40.6869H32.0676C32.2467 40.6869 32.4258 40.5078 32.4258 40.3287V39.075C32.4258 38.8959 32.2467 38.7168 32.0676 38.7168H23.2915C23.1124 38.7168 22.9333 38.8959 22.9333 39.075ZM30.993 41.7615V56.0899C30.993 56.269 30.8138 56.4481 30.6347 56.4481H25.0825C24.9034 56.4481 24.7243 56.269 24.7243 56.0899V41.7615C24.7243 41.5824 24.9034 41.4033 25.0825 41.4033H30.6347C30.8138 41.4033 30.993 41.5824 30.993 41.7615ZM40.1273 66.8361C36.3661 66.8361 32.6049 66.1197 29.0228 64.5078C28.4855 64.3287 28.3064 63.6123 28.4855 63.0749C28.6646 62.5376 29.381 62.3585 29.9183 62.5376C41.1979 67.57 54.3269 63.6914 61.1603 53.6711L60.0081 53.5825L64.3066 50.0004L63.7693 55.7317L63.0045 54.6801C57.885 62.3586 49.089 66.8361 40.1273 66.8361Z" fill="url(#paint0_linear_808_17955)"/>
<defs>
<linearGradient id="paint0_linear_808_17955" x1="69.3229" y1="65.672" x2="69.3229" y2="13.1641" gradientUnits="userSpaceOnUse">
<stop stop-color="#002D85"/>
<stop offset="1" stop-color="#013AA9"/>
</linearGradient>
</defs>
</svg>
