<svg width="80" height="80" viewBox="0 0 80 80" fill="none" xmlns="http://www.w3.org/2000/svg">
<path fill-rule="evenodd" clip-rule="evenodd" d="M47.6071 27.6953H12.7112C11.4345 27.6953 10.3706 28.683 10.3706 29.8682V49.9175C10.3706 51.1027 11.4345 52.0904 12.7112 52.0904H46.2056C46.6948 52.1918 47.1986 52.2587 47.7137 52.288C52.9268 52.5843 57.3952 48.8312 57.7144 43.9917C58.0092 39.521 54.5816 35.6403 49.9477 34.8412V29.8682C49.9477 28.683 48.8838 27.6953 47.6071 27.6953ZM48.3519 34.6925V29.8682C48.3519 29.4731 48.0327 29.1768 47.6071 29.1768H12.7112C12.2856 29.1768 11.9665 29.4731 11.9665 29.8682V49.9175C11.9665 50.3126 12.2856 50.6089 12.7112 50.6089H42.6742C41.1091 49.553 39.9084 48.0719 39.2704 46.362H36.543C36.1174 46.362 35.7982 46.0657 35.7982 45.6706C35.7982 45.2756 36.1174 44.9793 36.543 44.9793H38.8892C38.8013 44.4968 38.7568 44.0018 38.7594 43.4979H30.1596C29.734 43.4979 29.4148 43.2016 29.4148 42.8065C29.4148 42.4115 29.734 42.1152 30.1596 42.1152H38.8837C38.973 41.6051 39.1089 41.11 39.2868 40.6338H30.1596C29.734 40.6338 29.4148 40.3375 29.4148 39.9424C29.4148 39.5474 29.734 39.2511 30.1596 39.2511H39.9512C41.5983 36.4859 44.7745 34.6391 48.3519 34.6925ZM16.541 41.8187V42.8063C16.541 43.2014 16.8601 43.4977 17.2857 43.4977H24.9458C25.3713 43.4977 25.6905 43.2014 25.6905 42.8063V41.8187C25.6905 40.436 24.9458 39.152 23.7755 38.3619C23.9883 38.0656 23.9883 37.6705 23.9883 37.2755V36.2878C23.9883 34.8063 22.7116 33.5224 21.0094 33.5224C19.4135 33.5224 18.0304 34.7076 18.0304 36.2878V37.2755C18.0304 37.6705 18.1368 38.0656 18.2432 38.3619C17.2857 39.152 16.541 40.436 16.541 41.8187ZM19.7327 36.189C19.7327 35.4977 20.3711 34.9051 21.1157 34.9051C21.8605 34.9051 22.4988 35.4977 22.4988 36.189V37.1767C22.4988 37.8681 21.8605 38.4606 21.1157 38.4606C20.3711 38.4606 19.7327 37.8681 19.7327 37.1767V36.189ZM18.1369 41.8187C18.1369 40.9298 18.6688 40.0409 19.4135 39.4483C19.9454 39.7446 20.4774 39.9421 21.1157 39.9421C21.7541 39.9421 22.3924 39.7446 22.818 39.4483C23.6691 39.9421 24.0947 40.831 24.0947 41.8187V42.115H18.0304V41.8187H18.1369ZM25.6905 45.6706C25.6905 46.0657 25.3713 46.362 24.9458 46.362H17.2857C16.8601 46.362 16.541 46.0657 16.541 45.6706C16.541 45.2756 16.8601 44.9793 17.2857 44.9793H24.9458C25.3713 44.9793 25.6905 45.2756 25.6905 45.6706ZM30.1596 34.9051H43.0328C43.4583 34.9051 43.7775 34.6088 43.7775 34.2137C43.7775 33.8187 43.4583 33.5224 43.0328 33.5224H30.1596C29.734 33.5224 29.4148 33.8187 29.4148 34.2137C29.4148 34.6088 29.734 34.9051 30.1596 34.9051ZM30.1596 47.8434C29.734 47.8434 29.4148 48.1397 29.4148 48.5347C29.4148 48.9298 29.734 49.2261 30.1596 49.2261C30.5851 49.2261 30.9043 48.9298 30.9043 48.5347C30.9043 48.1397 30.5851 47.8434 30.1596 47.8434ZM61.2251 39.5472L65.3743 41.5225H65.4807L69.6299 43.4978L65.4807 45.4731H65.3743L61.2251 47.4484V45.4731H58.2461C58.3525 44.9793 58.4589 44.4854 58.5653 43.8928V43.4978C58.5653 42.8064 58.4589 42.2138 58.2461 41.5225H61.2251V39.5472ZM51.118 45.0781C51.118 43.7942 50.0541 42.8065 48.671 42.8065C48.2455 42.8065 47.8199 42.5102 47.8199 42.0164C47.8199 41.5226 48.1391 41.2263 48.671 41.2263C49.203 41.2263 49.5221 41.6213 49.5221 42.0164H51.2244C51.2244 41.0287 50.4797 40.1399 49.5221 39.8436V38.1645H47.8199V39.8436C46.8624 40.1399 46.1177 41.0287 46.1177 42.0164C46.1177 43.3003 47.1816 44.288 48.5646 44.288C49.0966 44.288 49.4158 44.5843 49.4158 45.0781C49.4158 45.572 49.0966 45.8682 48.5646 45.8682C48.0327 45.8682 47.7135 45.4732 47.7135 45.0781H46.0113C46.0113 46.0658 46.756 46.9547 47.7135 47.251V48.8312H49.4158V47.251C50.3733 46.9547 51.118 46.0658 51.118 45.0781Z" fill="url(#paint0_linear_720_18766)"/>
<defs>
<linearGradient id="paint0_linear_720_18766" x1="12.0106" y1="27.6953" x2="50.4316" y2="63.2413" gradientUnits="userSpaceOnUse">
<stop stop-color="#002D85"/>
<stop offset="1" stop-color="#DE0000"/>
</linearGradient>
</defs>
</svg>
