<svg width="81" height="80" viewBox="0 0 81 80" fill="none" xmlns="http://www.w3.org/2000/svg">
<path fill-rule="evenodd" clip-rule="evenodd" d="M59.9486 34.4822C59.8089 34.7581 59.3898 34.896 59.1104 34.896V34.4822H46.261V39.5862H58.8312L68.3287 32.1371C68.8874 31.7233 69.7253 31.8612 70.1443 32.413C70.703 32.9648 70.5634 33.7925 70.0048 34.2063L60.0881 41.9312L60.0877 41.9314C59.8085 42.0693 59.5294 42.2071 59.2502 42.2071H46.261V47.587H58.8312L68.3287 40.8277C68.8874 40.4138 69.7253 40.5518 70.1443 41.1035C70.5633 41.6553 70.4236 42.483 69.865 42.8968L59.9486 49.932C59.8089 50.07 59.5296 50.2079 59.2502 50.2079H46.261V55.4498H58.8312L68.4683 49.2423C69.1666 48.8285 69.865 48.9664 70.284 49.5182C70.5633 50.07 70.4236 50.8976 69.865 51.3115L59.9486 57.6569C59.8089 57.7949 59.5296 57.9328 59.2502 57.9328H11.9023C11.204 57.9328 10.6453 57.381 10.6453 56.6913C10.6453 56.0016 11.204 55.4498 11.9023 55.4498H24.0535V50.2079H11.9023C11.204 50.2079 10.6453 49.6561 10.6453 48.9664C10.6453 48.2767 11.204 47.7249 11.9023 47.7249H24.0535V42.345H11.9023C11.204 42.345 10.6453 41.7933 10.6453 41.1035C10.6453 40.4138 11.204 39.862 11.9023 39.862H24.0535V34.7581H11.9023C11.3436 34.7581 10.785 34.4822 10.6453 33.9304C10.366 33.5166 10.5056 32.9648 10.9246 32.551L20.8412 23.5846C20.9809 23.3086 21.3998 23.1707 21.6791 23.1707H34.2493L35.0875 22.343C35.2272 22.2051 35.646 22.0671 35.9254 22.0671H55.1997C55.7584 22.0671 56.3172 22.481 56.4569 22.8948C56.5965 22.8948 56.5964 23.1707 56.5964 23.1707H68.8873C69.4459 23.1707 70.0046 23.4466 70.1443 23.9984C70.4236 24.4122 70.284 24.964 69.865 25.3778L59.9486 34.4822ZM65.6749 25.7917H54.7807L47.6577 32.413H58.5519L65.6749 25.7917ZM14.975 32.413H24.333L31.3164 25.7917H22.0981L14.975 32.413ZM43.6072 33.2407C43.6072 32.8269 43.7468 32.551 44.0262 32.2751L52.4063 24.6881H36.4842L35.3667 25.6537L26.5675 33.7925V55.5878H43.6072V33.2407ZM37.043 36.6892C37.043 35.5856 36.0653 34.62 34.948 34.62C33.8306 34.62 32.853 35.5856 32.7133 36.5512C32.7133 37.6548 33.691 38.6204 34.8083 38.6204C37.462 38.6204 39.5569 40.6896 39.5569 43.3105C39.5569 45.3797 38.1604 47.173 36.205 47.7248V48.5524C36.205 49.2422 35.6463 49.7939 34.948 49.7939C34.2496 49.7939 33.691 49.2422 33.691 48.5524V47.7248C31.7356 47.173 30.3389 45.3797 30.3389 43.3105C30.3389 42.6208 30.8976 42.069 31.5959 42.069C32.2943 42.069 32.853 42.6208 32.853 43.3105C32.853 44.4141 33.8306 45.3797 34.948 45.3797C36.0653 45.3797 37.043 44.4141 37.043 43.3105C37.043 42.207 36.0653 41.2414 34.948 41.2414C32.853 41.2414 31.0371 39.8619 30.4784 37.9307C29.7801 35.5856 31.1769 32.9647 33.691 32.275V31.4473C33.691 30.7576 34.2496 30.2058 34.948 30.2058C35.6463 30.2058 36.205 30.7576 36.205 31.4473V32.275C38.1604 32.8267 39.5569 34.62 39.5569 36.6892C39.5569 37.3789 38.9984 37.9307 38.3 37.9307C37.6017 37.9307 37.043 37.3789 37.043 36.6892Z" fill="url(#paint0_linear_720_18741)"/>
<defs>
<linearGradient id="paint0_linear_720_18741" x1="12.1605" y1="22.0671" x2="63.2523" y2="54.9057" gradientUnits="userSpaceOnUse">
<stop stop-color="#002D85"/>
<stop offset="1" stop-color="#DE0000"/>
</linearGradient>
</defs>
</svg>
