<svg width="81" height="80" viewBox="0 0 81 80" fill="none" xmlns="http://www.w3.org/2000/svg">
<path fill-rule="evenodd" clip-rule="evenodd" d="M48.5028 27.6953H13.6069C12.3302 27.6953 11.2663 28.683 11.2663 29.8682V49.9175C11.2663 51.1027 12.3302 52.0904 13.6069 52.0904H47.1013C47.5905 52.1918 48.0943 52.2587 48.6095 52.288C53.8226 52.5843 58.291 48.8312 58.6101 43.9917C58.905 39.521 55.4773 35.6403 50.8434 34.8412V29.8682C50.8434 28.683 49.7795 27.6953 48.5028 27.6953ZM49.2476 34.6925V29.8682C49.2476 29.4731 48.9284 29.1768 48.5028 29.1768H13.6069C13.1814 29.1768 12.8622 29.4731 12.8622 29.8682V49.9175C12.8622 50.3126 13.1814 50.6089 13.6069 50.6089H43.5699C42.0048 49.553 40.8041 48.0719 40.1661 46.362H37.4387C37.0131 46.362 36.694 46.0657 36.694 45.6706C36.694 45.2756 37.0131 44.9793 37.4387 44.9793H39.7849C39.697 44.4968 39.6525 44.0018 39.6551 43.4979H31.0553C30.6297 43.4979 30.3106 43.2016 30.3106 42.8065C30.3106 42.4115 30.6297 42.1152 31.0553 42.1152H39.7794C39.8687 41.6051 40.0046 41.11 40.1825 40.6338H31.0553C30.6297 40.6338 30.3106 40.3375 30.3106 39.9424C30.3106 39.5474 30.6297 39.2511 31.0553 39.2511H40.8469C42.494 36.4859 45.6702 34.6391 49.2476 34.6925ZM17.4367 41.8187V42.8063C17.4367 43.2014 17.7559 43.4977 18.1814 43.4977H25.8415C26.2671 43.4977 26.5862 43.2014 26.5862 42.8063V41.8187C26.5862 40.436 25.8415 39.152 24.6712 38.3619C24.884 38.0656 24.884 37.6705 24.884 37.2755V36.2878C24.884 34.8063 23.6073 33.5224 21.9051 33.5224C20.3092 33.5224 18.9262 34.7076 18.9262 36.2878V37.2755C18.9262 37.6705 19.0326 38.0656 19.139 38.3619C18.1814 39.152 17.4367 40.436 17.4367 41.8187ZM20.6284 36.189C20.6284 35.4977 21.2668 34.9051 22.0115 34.9051C22.7562 34.9051 23.3945 35.4977 23.3945 36.189V37.1767C23.3945 37.8681 22.7562 38.4606 22.0115 38.4606C21.2668 38.4606 20.6284 37.8681 20.6284 37.1767V36.189ZM19.0326 41.8187C19.0326 40.9298 19.5645 40.0409 20.3092 39.4483C20.8412 39.7446 21.3732 39.9421 22.0115 39.9421C22.6498 39.9421 23.2881 39.7446 23.7137 39.4483C24.5648 39.9421 24.9904 40.831 24.9904 41.8187V42.115H18.9262V41.8187H19.0326ZM25.8415 46.362H18.1814C17.7559 46.362 17.4367 46.0657 17.4367 45.6706C17.4367 45.2756 17.7559 44.9793 18.1814 44.9793H25.8415C26.2671 44.9793 26.5862 45.2756 26.5862 45.6706C26.5862 46.0657 26.2671 46.362 25.8415 46.362ZM31.0553 34.9051H43.9285C44.354 34.9051 44.6732 34.6088 44.6732 34.2137C44.6732 33.8187 44.354 33.5224 43.9285 33.5224H31.0553C30.6297 33.5224 30.3106 33.8187 30.3106 34.2137C30.3106 34.6088 30.6297 34.9051 31.0553 34.9051ZM31.0553 47.8434C30.6297 47.8434 30.3106 48.1397 30.3106 48.5347C30.3106 48.9298 30.6297 49.2261 31.0553 49.2261C31.4809 49.2261 31.8 48.9298 31.8 48.5347C31.8 48.1397 31.4809 47.8434 31.0553 47.8434ZM62.1208 39.5472L66.27 41.5225H66.3764L70.5256 43.4978L66.3764 45.4731H66.27L62.1208 47.4484V45.4731H59.1419C59.2482 44.9793 59.3546 44.4854 59.461 43.8928V43.4978C59.461 42.8064 59.3546 42.2138 59.1419 41.5225H62.1208V39.5472ZM52.0137 45.0781C52.0137 43.7942 50.9498 42.8065 49.5667 42.8065C49.1412 42.8065 48.7156 42.5102 48.7156 42.0164C48.7156 41.5226 49.0348 41.2263 49.5667 41.2263C50.0987 41.2263 50.4179 41.6213 50.4179 42.0164H52.1201C52.1201 41.0287 51.3754 40.1399 50.4179 39.8436V38.1645H48.7156V39.8436C47.7581 40.1399 47.0134 41.0287 47.0134 42.0164C47.0134 43.3003 48.0773 44.288 49.4604 44.288C49.9923 44.288 50.3115 44.5843 50.3115 45.0781C50.3115 45.572 49.9923 45.8682 49.4604 45.8682C48.9284 45.8682 48.6092 45.4732 48.6092 45.0781H46.907C46.907 46.0658 47.6517 46.9547 48.6092 47.251V48.8312H50.3115V47.251C51.269 46.9547 52.0137 46.0658 52.0137 45.0781Z" fill="url(#paint0_linear_808_17578)"/>
<defs>
<linearGradient id="paint0_linear_808_17578" x1="69.4657" y1="51.7707" x2="69.4657" y2="27.6953" gradientUnits="userSpaceOnUse">
<stop stop-color="#002D85"/>
<stop offset="1" stop-color="#013AA9"/>
</linearGradient>
</defs>
</svg>
