<svg width="81" height="80" viewBox="0 0 81 80" fill="none" xmlns="http://www.w3.org/2000/svg">
<path fill-rule="evenodd" clip-rule="evenodd" d="M59.8446 34.482C59.7049 34.7578 59.2857 34.8958 59.0064 34.8958V34.482H46.157V39.5859H58.7272L68.2247 32.1369C68.7834 31.7231 69.6213 31.861 70.0403 32.4128C70.5989 32.9646 70.4594 33.7922 69.9007 34.2061L59.9841 41.931L59.9837 41.9312C59.7045 42.0691 59.4254 42.2069 59.1462 42.2069H46.157V47.5867H58.7272L68.2247 40.8274C68.7834 40.4136 69.6213 40.5515 70.0403 41.1033C70.4593 41.6551 70.3196 42.4828 69.7609 42.8966L59.8446 49.9318C59.7049 50.0697 59.4255 50.2077 59.1462 50.2077H46.157V55.4496H58.7272L68.3642 49.242C69.0626 48.8282 69.7609 48.9662 70.1799 49.5179C70.4593 50.0697 70.3196 50.8974 69.7609 51.3112L59.8446 57.6567C59.7049 57.7946 59.4255 57.9326 59.1462 57.9326H11.7983C11.0999 57.9326 10.5413 57.3808 10.5413 56.6911C10.5413 56.0013 11.0999 55.4496 11.7983 55.4496H23.9495V50.2077H11.7983C11.0999 50.2077 10.5413 49.6559 10.5413 48.9662C10.5413 48.2764 11.0999 47.7247 11.7983 47.7247H23.9495V42.3448H11.7983C11.0999 42.3448 10.5413 41.793 10.5413 41.1033C10.5413 40.4136 11.0999 39.8618 11.7983 39.8618H23.9495V34.7578H11.7983C11.2396 34.7578 10.681 34.482 10.5413 33.9302C10.262 33.5163 10.4016 32.9646 10.8206 32.5507L20.7372 23.5843C20.8769 23.3084 21.2957 23.1704 21.5751 23.1704H34.1453L34.9834 22.3428C35.1231 22.2048 35.542 22.0669 35.8213 22.0669H55.0957C55.6543 22.0669 56.2132 22.4807 56.3528 22.8946C56.4925 22.8946 56.4924 23.1704 56.4924 23.1704H68.7832C69.3419 23.1704 69.9006 23.4464 70.0403 23.9981C70.3196 24.412 70.1799 24.9638 69.7609 25.3776L59.8446 34.482ZM65.5709 25.7914H54.6767L47.5537 32.4128H58.4479L65.5709 25.7914ZM14.871 32.4128H24.2289L31.2124 25.7914H21.9941L14.871 32.4128ZM43.5031 33.2405C43.5031 32.8266 43.6428 32.5507 43.9221 32.2748L52.3023 24.6879H36.3801L35.2627 25.6535L26.4635 33.7922V55.5875H43.5031V33.2405ZM36.939 36.6889C36.939 35.5854 35.9613 34.6198 34.844 34.6198C33.7266 34.6198 32.7489 35.5854 32.6092 36.551C32.6092 37.6546 33.5869 38.6202 34.7043 38.6202C37.358 38.6202 39.4529 40.6893 39.4529 43.3103C39.4529 45.3795 38.0563 47.1727 36.101 47.7245V48.5522C36.101 49.2419 35.5423 49.7937 34.844 49.7937C34.1456 49.7937 33.5869 49.2419 33.5869 48.5522V47.7245C31.6316 47.1727 30.2349 45.3795 30.2349 43.3103C30.2349 42.6206 30.7936 42.0688 31.4919 42.0688C32.1902 42.0688 32.7489 42.6206 32.7489 43.3103C32.7489 44.4139 33.7266 45.3795 34.844 45.3795C35.9613 45.3795 36.939 44.4139 36.939 43.3103C36.939 42.2067 35.9613 41.2411 34.844 41.2411C32.7489 41.2411 30.9331 39.8617 30.3744 37.9304C29.6761 35.5854 31.0729 32.9644 33.5869 32.2747V31.447C33.5869 30.7573 34.1456 30.2055 34.844 30.2055C35.5423 30.2055 36.101 30.7573 36.101 31.447V32.2747C38.0563 32.8265 39.4529 34.6198 39.4529 36.6889C39.4529 37.3787 38.8944 37.9304 38.196 37.9304C37.4977 37.9304 36.939 37.3787 36.939 36.6889Z" fill="url(#paint0_linear_808_17971)"/>
<defs>
<linearGradient id="paint0_linear_808_17971" x1="69.3228" y1="57.1547" x2="69.3228" y2="22.0669" gradientUnits="userSpaceOnUse">
<stop stop-color="#002D85"/>
<stop offset="1" stop-color="#013AA9"/>
</linearGradient>
</defs>
</svg>
