<svg width="81" height="80" viewBox="0 0 81 80" fill="none" xmlns="http://www.w3.org/2000/svg">
<path fill-rule="evenodd" clip-rule="evenodd" d="M69.9828 21.9491V22.9835V23.3284H64.1207V22.2939C64.1207 21.2594 64.1207 20.5698 63.9483 20.2249C63.7759 19.8801 63.6035 19.7077 63.0863 19.7077C62.7414 19.7077 62.3966 19.7077 62.2242 20.0525C61.8794 20.2249 61.8794 20.7422 61.8794 21.2594C61.8794 22.1215 62.0518 22.8111 62.3966 23.1559C62.7414 23.5008 63.7759 24.1904 65.5 25.2249C67.0518 26.087 68.0862 26.7766 68.6035 27.2939C69.1207 27.8111 69.6379 28.5007 69.9828 29.3628C70.3276 30.2249 70.5 31.2593 70.5 32.6387C70.5 34.88 69.9828 36.4317 68.9483 37.6386C68.0862 38.8455 66.5345 39.5352 64.4656 39.88V42.1214H61.707V39.88C60.1552 39.7076 58.7759 39.0179 57.569 37.9834C56.3621 36.949 55.8449 35.0524 55.8449 32.4662V31.2593H61.707V32.6387V32.6388C61.707 34.1904 61.707 35.2249 61.8794 35.5697C62.0518 35.9145 62.2242 36.0869 62.7414 36.0869C63.0863 36.0869 63.4311 36.0869 63.6035 35.7421C63.7759 35.3973 63.9483 35.0524 63.9483 34.5352C63.9483 33.3283 63.7759 32.2938 63.6035 31.7766C63.4311 31.0869 62.7414 30.5697 61.707 29.88C59.9828 28.8456 58.7759 27.9835 58.0863 27.4663C57.3966 26.949 56.8794 26.2594 56.3621 25.2249C55.8449 24.1904 55.6725 23.1559 55.6725 21.9491C55.6725 20.2249 56.1897 18.8456 57.2242 17.8112C58.2587 16.7767 59.638 16.087 61.707 15.9146V14.0181H64.4656V15.9146C66.3621 16.2595 67.7414 16.7767 68.6035 17.8112C69.4655 18.8456 69.9828 20.2249 69.9828 21.9491ZM37.0516 44.3626V45.5695C37.0516 45.7419 37.224 45.9144 37.5688 45.9144H46.7067C46.8791 45.9144 47.0515 45.7419 47.0515 45.5695V44.3626C47.0515 44.1902 46.8791 44.0178 46.7067 44.0178H37.3964C37.224 44.0178 37.0516 44.1902 37.0516 44.3626ZM45.4998 47.1212V62.2936C45.4998 62.6384 45.3274 62.8108 45.155 62.6384H39.1205C38.9481 62.6384 38.7757 62.466 38.7757 62.2936V47.1212C38.7757 46.9488 38.9481 46.7764 39.1205 46.7764H45.155C45.3274 46.7764 45.4998 46.9488 45.4998 47.1212ZM10.5 44.3626V45.5695C10.5 45.7419 10.6724 45.9144 10.8448 45.9144H20.1551C20.3275 45.9144 20.4999 45.7419 20.4999 45.5695V44.3626C20.4999 44.1902 20.3275 44.0178 20.1551 44.0178H10.8448C10.6724 44.0178 10.5 44.1902 10.5 44.3626ZM28.2585 32.811L11.1897 40.5696C10.8448 40.742 10.5 41.2592 10.5 41.7764V42.4661C10.5 42.6385 10.6724 42.8109 10.8448 42.8109H46.7067C46.8791 42.8109 47.0515 42.6385 47.0515 42.4661V41.7764C47.0515 41.2592 46.8791 40.742 46.3619 40.5696L29.293 32.811C28.9482 32.6386 28.6033 32.6386 28.2585 32.811ZM41.3619 40.742H16.362C16.362 40.742 16.1896 40.742 16.1896 40.5696L16.362 40.3971L28.7758 35.2248H28.9482L41.3619 40.3971C41.5343 40.3971 41.5343 40.5696 41.5343 40.5696C41.5343 40.742 41.3619 40.742 41.3619 40.742ZM10.5 63.8453V65.5694C10.5 65.9142 10.6724 66.0867 10.8448 65.9142H46.7067C46.8791 65.9142 47.0515 65.7418 47.0515 65.5694V63.8453C47.0515 63.6729 46.8791 63.5005 46.7067 63.5005H10.8448C10.6724 63.5005 10.5 63.6729 10.5 63.8453ZM18.9482 47.1212V62.2936C18.9482 62.6384 18.7758 62.8108 18.6034 62.6384H12.569C12.3965 62.6384 12.2241 62.466 12.2241 62.2936V47.1212C12.2241 46.9488 12.3965 46.7764 12.569 46.7764H18.6034C18.7758 46.7764 18.9482 46.9488 18.9482 47.1212ZM23.7758 44.3626V45.5695C23.7758 45.7419 23.9482 45.9144 24.1206 45.9144H33.4309C33.6033 45.9144 33.7757 45.7419 33.7757 45.5695V44.3626C33.7757 44.1902 33.6033 44.0178 33.4309 44.0178H24.1206C23.9482 44.0178 23.7758 44.1902 23.7758 44.3626ZM32.224 47.1212V62.2936C32.224 62.6384 32.0516 62.8108 31.8792 62.6384H25.8447C25.6723 62.6384 25.4999 62.466 25.4999 62.2936V47.1212C25.4999 46.9488 25.6723 46.7764 25.8447 46.7764H31.8792C32.0516 46.7764 32.224 46.9488 32.224 47.1212ZM49.5069 53.2212L49.5068 53.2212C49.3803 53.1996 49.2517 53.1777 49.1203 53.1558C48.6031 52.9834 48.2582 52.4662 48.2582 51.9489C48.4307 51.4317 48.9479 51.0869 49.4651 51.0869C55.2589 52.0525 60.9025 49.5629 64.1522 44.88H63.0859L66.879 41.2594V46.6042L66.0579 45.6918C63.0145 50.5546 57.6104 53.5006 52.0513 53.5006C51.1482 53.5006 50.3766 53.3693 49.5069 53.2212ZM38.6033 28.9383C41.8571 24.1464 47.4715 21.6762 53.0859 22.6387C53.6031 22.6387 54.1204 22.2938 54.2928 21.7766C54.2928 21.2594 53.948 20.7421 53.4307 20.5697C46.862 19.5844 40.2932 22.5094 36.7041 28.153L35.8449 27.2938L35.6724 32.6386L39.6379 29.0179L38.6033 28.9383Z" fill="url(#paint0_linear_720_19086)"/>
<defs>
<linearGradient id="paint0_linear_720_19086" x1="12.1605" y1="14.0181" x2="72.4868" y2="40.78" gradientUnits="userSpaceOnUse">
<stop stop-color="#002D85"/>
<stop offset="1" stop-color="#DE0000"/>
</linearGradient>
</defs>
</svg>
