<svg width="81" height="80" viewBox="0 0 81 80" fill="none" xmlns="http://www.w3.org/2000/svg">
<path fill-rule="evenodd" clip-rule="evenodd" d="M70.1554 15.7489L64.6863 10.1359C64.3985 9.84808 64.1107 9.84807 63.6789 9.99199C63.391 10.1359 63.1032 10.4238 63.1032 10.8555V13.0144H59.0733C58.6416 13.0144 58.2098 13.4461 58.2098 13.8779C58.2098 14.3097 58.6416 14.7414 59.0733 14.7414H63.391C64.2546 14.7414 64.8303 14.0218 64.8303 13.3022V13.0144L68.2844 16.4685L64.8303 19.9227V19.6348C64.8303 18.7713 64.1107 18.1956 63.391 18.1956H44.9689C44.5371 18.1956 44.1054 18.6274 44.1054 19.0591C44.1054 19.4909 44.5371 19.9227 44.9689 19.9227H63.2471V22.0815C63.2471 22.3694 63.535 22.8011 63.8228 22.9451C64.1106 23.089 64.5424 22.9451 64.8303 22.8011L70.2993 17.1881C70.5872 16.6124 70.5872 16.0368 70.1554 15.7489ZM59.7929 20.9301C59.5051 20.4983 58.9294 20.4983 58.4976 20.7861C58.0659 21.074 58.0659 21.6497 58.3537 22.0815L59.2173 23.2329H53.6043C53.1725 23.2329 52.7407 23.6646 52.7407 24.0964C52.7407 24.5282 53.1725 24.9599 53.6043 24.9599H59.2173L58.3537 26.1113C58.0659 26.5431 58.0659 26.9748 58.4976 27.4066C58.9294 27.6945 59.5051 27.6945 59.7929 27.2627L61.8079 24.6721C62.0957 24.3842 62.0957 23.9525 61.8079 23.5207L59.7929 20.9301ZM53.0286 39.9281C53.0286 47.1242 47.2717 52.8811 40.0756 52.8811C33.0233 52.8811 27.1225 47.1242 27.1225 39.9281C27.1225 32.7319 32.8794 26.975 40.0756 26.975C47.2717 26.975 53.0286 32.7319 53.0286 39.9281ZM51.3015 40.072C51.3015 33.8833 46.2642 28.846 40.0756 28.846C33.8869 28.846 28.8496 33.8833 28.8496 40.072C28.8496 46.2607 33.8869 51.298 40.0756 51.298C46.2642 51.298 51.3015 46.2607 51.3015 40.072ZM39.0696 45.3971C38.3499 45.3971 37.7743 45.2532 37.0546 44.6775C36.6229 44.3896 36.6229 43.9579 36.6229 43.814C36.7668 43.3822 37.3425 43.2383 37.7743 43.5261C38.206 43.814 38.4939 43.9579 38.9256 43.9579V40.3598C38.3499 40.2159 37.9182 39.928 37.6303 39.6402C36.9107 39.0645 36.6229 38.057 36.7668 37.0496C37.0546 35.8982 37.7742 35.0347 38.7817 34.7468H38.9256V34.1711C38.9256 33.7394 39.3574 33.3076 39.7892 33.3076C40.2209 33.3076 40.6527 33.7394 40.6527 34.1711V34.6029C41.6602 34.7468 42.5237 35.1786 42.5237 35.1786C42.9555 35.3225 43.0994 35.8982 42.8116 36.33C42.6676 36.7617 42.0919 36.9057 41.6602 36.6178C41.6602 36.6178 41.3723 36.4739 40.7966 36.33V39.0645C40.8686 39.0645 40.9406 39.1005 41.0125 39.1365L41.0125 39.1365C41.0845 39.1724 41.1564 39.2084 41.2284 39.2084C42.8116 39.6402 43.6751 41.0794 43.3872 42.6626C43.0994 43.814 42.2359 44.9653 40.7966 45.3971V45.9728C40.7966 46.4046 40.3649 46.8363 39.9331 46.8363C39.5013 46.8363 39.0696 46.4046 39.0696 45.9728V45.3971ZM40.9406 43.5261C41.5162 43.2383 41.6602 42.8065 41.8041 42.3747C41.8041 41.943 41.8041 41.2233 40.9406 40.7916V43.5261ZM38.7817 37.1935C38.6378 37.6253 38.7817 37.9131 38.9256 38.057C39.0696 38.057 39.0696 38.057 39.2135 38.201V36.4739C38.9256 36.6178 38.7817 36.9057 38.7817 37.1935ZM22.374 59.2137C21.9422 59.5015 21.3665 59.5015 21.0787 59.0698L18.9198 56.4791C18.632 56.0474 18.632 55.6156 18.9198 55.3278L20.9348 52.7372C21.3665 52.3054 21.7983 52.3054 22.23 52.5932C22.6618 53.025 22.6618 53.4568 22.374 53.8885L21.5104 55.0399H27.2674C27.6991 55.0399 28.1309 55.4717 28.1309 55.9035C28.1309 56.3352 27.6991 56.767 27.2674 56.767H21.6544L22.5179 57.9184C22.8058 58.3501 22.8058 58.9258 22.374 59.2137ZM17.3364 61.9483H35.7585C36.1902 61.9483 36.622 61.5165 36.622 61.0848C36.622 60.653 36.1902 60.2212 35.7585 60.2212H17.7681V58.0624C17.7681 57.7745 17.4803 57.3428 17.1924 57.1988C16.9046 57.0549 16.4728 57.1988 16.1849 57.3428L10.7159 62.9558C10.428 63.2436 10.428 63.8193 10.7159 64.2511L16.1849 69.8641C16.4728 70.1519 16.7606 70.1519 17.1924 70.008C17.4803 69.8641 17.7681 69.5762 17.7681 69.1444V66.9856H35.7585C36.1902 66.9856 36.622 66.5538 36.622 66.1221C36.622 65.6903 36.1902 65.2585 35.7585 65.2585H17.3364C16.4728 65.2585 15.8971 65.9781 15.8971 66.6978V66.9856L12.443 63.5314L15.8971 60.0773V60.3651C15.8971 61.2287 16.4728 61.9483 17.3364 61.9483ZM22.8048 39.928C22.8048 30.4291 30.5767 22.6572 40.0756 22.6572C49.5745 22.6572 57.3463 30.4291 57.4903 39.928C57.4903 49.4269 49.7184 57.1987 40.2195 57.1987C35.7579 57.1987 31.4402 55.4716 28.2739 52.4493C27.9861 52.0175 27.9861 51.4418 28.2739 51.1539C28.7057 50.8661 29.2814 50.8661 29.5692 51.1539C32.4477 53.8885 36.1897 55.4716 40.2195 55.4716C48.8549 55.4716 55.7632 48.5633 55.7632 39.928C55.7632 31.2926 48.711 24.3843 40.2195 24.3843C31.5841 24.3843 24.6758 31.4365 24.6758 39.928C24.6758 42.9503 25.6833 45.9727 27.4104 48.5633C27.6982 48.9951 27.5543 49.5708 27.1225 49.8586C26.6908 50.1465 26.1151 50.0026 25.8272 49.5708C23.8123 46.6923 22.8048 43.3821 22.8048 39.928ZM55.6203 14.7416H45.1139C44.6822 14.7416 44.2504 14.3098 44.2504 13.878C44.2504 13.4463 44.6822 13.0145 45.1139 13.0145H55.6203C56.0521 13.0145 56.4838 13.4463 56.4838 13.878C56.4838 14.3098 56.0521 14.7416 55.6203 14.7416Z" fill="url(#paint0_linear_720_19016)"/>
<defs>
<linearGradient id="paint0_linear_720_19016" x1="12.1605" y1="9.89746" x2="75.1274" y2="34.0072" gradientUnits="userSpaceOnUse">
<stop stop-color="#002D85"/>
<stop offset="1" stop-color="#DE0000"/>
</linearGradient>
</defs>
</svg>
