<svg width="81" height="80" viewBox="0 0 81 80" fill="none" xmlns="http://www.w3.org/2000/svg">
<path fill-rule="evenodd" clip-rule="evenodd" d="M38.6472 56.6694C38.8 56.5167 39.0063 56.4294 39.2224 56.4262C39.4395 56.4262 39.6477 56.5124 39.8011 56.6659C39.9547 56.8195 40.0409 57.0276 40.0409 57.2448V60.5188C40.0376 61.6064 39.6042 62.6487 38.835 63.4178C38.0659 64.187 37.0236 64.6205 35.936 64.6237H14.605C13.5173 64.6205 12.4751 64.187 11.7059 63.4178C10.9368 62.6487 10.5033 61.6064 10.5 60.5188V19.4814C10.5 18.3927 10.9325 17.3486 11.7023 16.5788C12.4721 15.809 13.5163 15.3765 14.605 15.3765H35.936C37.0247 15.3765 38.0687 15.809 38.8386 16.5788C39.6084 17.3486 40.0409 18.3927 40.0409 19.4814V22.6935C40.0409 22.9106 39.9547 23.1188 39.8011 23.2723C39.6477 23.4258 39.4395 23.512 39.2224 23.512C39.0053 23.512 38.7972 23.4258 38.6436 23.2723C38.4902 23.1188 38.4039 22.9106 38.4039 22.6935V21.937H12.137V58.0509H38.4039V57.2448C38.4071 57.0286 38.4943 56.8223 38.6472 56.6694ZM35.936 17.0135H14.605C13.9514 17.0167 13.3256 17.2778 12.8635 17.7399C12.4013 18.2021 12.1403 18.8279 12.137 19.4814V20.3372H38.4163V19.4938C38.4163 18.836 38.155 18.2051 37.6899 17.74C37.2246 17.2748 36.5938 17.0135 35.936 17.0135ZM14.605 62.9743H35.936C36.5916 62.971 37.2194 62.7082 37.6818 62.2435C38.1442 61.7787 38.4039 61.1496 38.4039 60.494V59.663H12.1246V60.494C12.1246 61.1518 12.386 61.7827 12.8511 62.2478C13.3163 62.7129 13.9471 62.9743 14.605 62.9743ZM27.7384 19.4814H26.089V19.4938C25.8719 19.4938 25.6637 19.4076 25.5102 19.2541C25.3567 19.1006 25.2705 18.8924 25.2705 18.6753C25.2705 18.4582 25.3567 18.2501 25.5102 18.0965C25.6637 17.943 25.8719 17.8568 26.089 17.8568H27.7384C27.8535 17.8426 27.9703 17.8529 28.0811 17.8872C28.1919 17.9216 28.2941 17.979 28.381 18.0558C28.4679 18.1326 28.5375 18.227 28.5851 18.3328C28.6328 18.4385 28.6575 18.5531 28.6575 18.6691C28.6575 18.7851 28.6328 18.8998 28.5851 19.0055C28.5375 19.1112 28.4679 19.2056 28.381 19.2824C28.2941 19.3592 28.1919 19.4167 28.0811 19.451C27.9703 19.4853 27.8535 19.4957 27.7384 19.4814ZM23.6335 60.5188H26.9199C27.1369 60.5188 27.3452 60.6051 27.4986 60.7585C27.6522 60.912 27.7384 61.1202 27.7384 61.3373C27.7384 61.5543 27.6522 61.7626 27.4986 61.916C27.3452 62.0696 27.1369 62.1558 26.9199 62.1558H23.6335C23.4164 62.1558 23.2082 62.0696 23.0547 61.916C22.9011 61.7626 22.8149 61.5543 22.8149 61.3373C22.8149 61.1202 22.9011 60.912 23.0547 60.7585C23.2082 60.6051 23.4164 60.5188 23.6335 60.5188ZM23.6335 19.4814H22.8149C22.5979 19.4814 22.3896 19.3952 22.2362 19.2417C22.0826 19.0882 21.9964 18.88 21.9964 18.6629C21.9964 18.4458 22.0826 18.2376 22.2362 18.0841C22.3896 17.9306 22.5979 17.8444 22.8149 17.8444H23.6335C23.8505 17.8444 24.0588 17.9306 24.2122 18.0841C24.3657 18.2376 24.452 18.4458 24.452 18.6629C24.452 18.88 24.3657 19.0882 24.2122 19.2417C24.0588 19.3952 23.8505 19.4814 23.6335 19.4814ZM15.4607 25.211V27.6913H13.7865V23.5864H17.941V25.211H15.4607ZM13.7865 56.4138V52.3089L15.4607 52.284V54.7643H17.941V56.4138H13.7865ZM59.5239 50.1011H69.0609C69.2523 50.0994 69.4423 50.1363 69.6193 50.2095C69.7961 50.2828 69.9566 50.3909 70.0909 50.5275C70.2251 50.6641 70.3304 50.8263 70.4007 51.0044C70.4709 51.1826 70.5045 51.3731 70.4995 51.5645V60.5558C70.4979 60.7431 70.4593 60.9282 70.3862 61.1007C70.313 61.273 70.2066 61.4294 70.073 61.5606C69.9394 61.692 69.7813 61.7956 69.6076 61.8659C69.434 61.936 69.2482 61.9713 69.0609 61.9696H57.5025C57.3141 61.9729 57.127 61.9389 56.9519 61.8694C56.7768 61.8 56.6172 61.6966 56.4823 61.5651C56.3474 61.4337 56.2399 61.2768 56.1659 61.1035C56.0919 60.9304 56.0531 60.7441 56.0514 60.5558V51.515C56.0531 51.3266 56.0919 51.1405 56.1659 50.9672C56.2399 50.794 56.3474 50.6371 56.4823 50.5056C56.6172 50.3742 56.7768 50.2708 56.9519 50.2014C57.127 50.1319 57.3141 50.0979 57.5025 50.1011H57.8125V45.9218C57.8796 44.5115 58.487 43.1811 59.5088 42.2067C60.5307 41.2324 61.8883 40.6888 63.3003 40.6888C64.7122 40.6888 66.0699 41.2324 67.0917 42.2067C68.1135 43.1811 68.721 44.5115 68.788 45.9218V47.6208C68.788 47.8527 68.696 48.0751 68.532 48.239C68.368 48.403 68.1456 48.4951 67.9137 48.4951C67.6818 48.4951 67.4594 48.403 67.2955 48.239C67.1315 48.0751 67.0394 47.8527 67.0394 47.6208V45.9218C67.0394 44.9251 66.6436 43.9694 65.9388 43.2646C65.2341 42.56 64.2783 42.164 63.2817 42.164C62.2851 42.164 61.3292 42.56 60.6245 43.2646C59.9199 43.9694 59.5239 44.9251 59.5239 45.9218V50.1011ZM64.1002 58.8568V56.3764C64.3652 56.2234 64.5849 56.0031 64.7374 55.7379C64.8897 55.4726 64.9694 55.1717 64.9681 54.8659C64.9669 54.5599 64.8848 54.2597 64.7301 53.9957C64.5756 53.7316 64.354 53.5132 64.0878 53.3624C63.8217 53.2115 63.5204 53.1337 63.2144 53.1367C62.9085 53.1398 62.6089 53.2237 62.3458 53.3798C62.0827 53.536 61.8655 53.7589 61.7162 54.0259C61.567 54.2929 61.491 54.5948 61.4958 54.9007C61.4969 55.2014 61.5779 55.4966 61.7304 55.7559C61.8829 56.0152 62.1015 56.2294 62.364 56.3764V58.8568H64.1002ZM27.6266 40.6438C27.7408 40.5978 27.8632 40.575 27.9863 40.5766H45.0635C45.1873 40.575 45.3102 40.5977 45.4252 40.6436C45.5402 40.6894 45.645 40.7575 45.7337 40.8438C45.8223 40.9303 45.8932 41.0333 45.942 41.147C45.9909 41.2607 46.0168 41.3829 46.0185 41.5067V47.0627C46.012 47.3117 45.9086 47.5483 45.7302 47.7221C45.5518 47.8957 45.3126 47.9929 45.0635 47.9929H27.9863C27.7385 47.9929 27.5006 47.8953 27.3242 47.7212C27.1478 47.5472 27.0471 47.3106 27.0438 47.0627V41.5067C27.0438 41.3836 27.0682 41.2616 27.1158 41.148C27.1633 41.0343 27.2329 40.9312 27.3206 40.8446C27.4084 40.758 27.5123 40.6899 27.6266 40.6438ZM28.9413 46.1326H44.1087L44.121 42.4121H28.9413V46.1326ZM47.9159 43.3546H49.801L49.8134 41.5067H47.9159V43.3546ZM51.6984 41.5067V43.3546H53.596V41.5067H51.6984ZM49.8134 45.2149H47.9035L47.9159 47.0627H49.8134V45.2149ZM27.9863 52.6559H53.596L53.6083 52.6311C53.7387 52.616 53.8707 52.6286 53.9958 52.6681C54.1208 52.7076 54.2362 52.7732 54.3341 52.8605C54.4322 52.9477 54.5106 53.0548 54.5643 53.1744C54.6179 53.2941 54.6457 53.4239 54.6457 53.555C54.6457 53.6862 54.6179 53.8159 54.5643 53.9356C54.5106 54.0554 54.4322 54.1624 54.3341 54.2496C54.2362 54.3368 54.1208 54.4024 53.9958 54.4419C53.8707 54.4815 53.7387 54.4941 53.6083 54.479H27.9863C26.7452 54.4922 25.5493 54.0127 24.6612 53.1455C23.7731 52.2783 23.2652 51.0943 23.2489 49.8531V29.4151C23.2652 28.1739 23.7731 26.9899 24.6612 26.1227C25.5493 25.2555 26.7452 24.776 27.9863 24.7892H64.0382C64.6539 24.781 65.2651 24.8942 65.8369 25.1222C66.4088 25.3503 66.9302 25.6887 67.3713 26.1183C67.8124 26.5478 68.1645 27.0601 68.4076 27.6258C68.6507 28.1915 68.78 28.7994 68.788 29.4151V40.5766C68.7815 40.8256 68.6781 41.0622 68.4997 41.2359C68.3214 41.4096 68.0821 41.5068 67.8331 41.5067C67.5853 41.5068 67.3474 41.4092 67.171 41.2351C66.9946 41.061 66.8938 40.8245 66.8906 40.5766V38.7164H25.1464V49.8779C25.1561 50.6224 25.4605 51.3326 25.9928 51.8534C26.525 52.374 27.2418 52.6625 27.9863 52.6559ZM25.9928 27.4645C25.4605 27.9851 25.1561 28.6954 25.1464 29.4398V31.3002H66.8906V29.4398C66.8775 28.6942 66.5704 27.984 66.0363 27.4637C65.502 26.9434 64.7839 26.6553 64.0382 26.6618H27.9863C27.2418 26.6553 26.525 26.9439 25.9928 27.4645ZM66.8906 33.1604H25.1464V36.8809H66.8906V33.1604Z" fill="url(#paint0_linear_720_18799)"/>
<defs>
<linearGradient id="paint0_linear_720_18799" x1="12.1605" y1="15.3765" x2="71.3828" y2="43.0979" gradientUnits="userSpaceOnUse">
<stop stop-color="#002D85"/>
<stop offset="1" stop-color="#DE0000"/>
</linearGradient>
</defs>
</svg>
