<svg width="80" height="80" viewBox="0 0 80 80" fill="none" xmlns="http://www.w3.org/2000/svg">
<path fill-rule="evenodd" clip-rule="evenodd" d="M26.6002 10H50.3608H51.4659L52.2027 10.7368L62.8857 21.0514L63.6225 21.7882V22.8934V55.3109C63.6225 57.1528 62.8857 58.8105 61.5964 60.0998C60.3071 61.3892 58.6493 62.1259 56.8074 62.1259H42.809L48.1505 56.9686H56.8074C57.1758 56.9686 57.5442 56.7844 57.9126 56.6002C58.281 56.2318 58.281 55.8634 58.281 55.4951V24.9194L49.0714 24.1827H48.1505V23.2617L48.5189 15.5257H26.416C26.0477 15.5257 25.6793 15.7099 25.311 15.8941L25.3109 15.8941C25.1267 16.0783 24.9425 16.6309 24.9425 16.9993V43.3385L19.7851 48.68V16.9993C19.7851 15.1573 20.5219 13.4996 21.8112 12.2103C22.9164 10.7368 24.7583 10 26.6002 10ZM29.5472 26.7614V28.9716H53.1236V26.7614H29.5472ZM29.5472 20.4989V22.7092H44.4667V20.4989H29.5472ZM56.9916 22.525L50.7291 16.4467L50.545 21.9724L56.9916 22.525ZM29.3623 69.3091C30.4675 70.23 32.1252 70.23 33.0461 69.3091L55.7016 47.2062C56.8067 46.2853 56.8067 44.6275 55.7016 43.5224L54.5964 42.4173L28.2572 68.2039L29.3623 69.3091ZM39.8617 31.5502C40.7827 30.6292 42.4404 30.6292 43.5455 31.5502L52.0183 39.8388L25.6791 65.6254L17.2063 57.3369C16.1012 56.2317 16.1012 54.574 17.2063 53.6531L39.8617 31.5502ZM39.3092 43.891C40.4143 44.8119 42.072 44.9961 43.1772 43.891L45.7558 41.3123C46.861 40.3913 46.861 38.7336 45.7558 37.6285L43.7297 35.6024C42.6246 34.6814 40.9669 34.4972 39.8617 35.6024L37.2831 38.1811C36.1779 39.102 36.1779 40.7597 37.2831 41.8649L39.3092 43.891Z" fill="url(#paint0_linear_720_18788)"/>
<defs>
<linearGradient id="paint0_linear_720_18788" x1="17.685" y1="10" x2="69.7684" y2="25.7567" gradientUnits="userSpaceOnUse">
<stop stop-color="#002D85"/>
<stop offset="1" stop-color="#DE0000"/>
</linearGradient>
</defs>
</svg>
