<svg width="81" height="80" viewBox="0 0 81 80" fill="none" xmlns="http://www.w3.org/2000/svg">
<path fill-rule="evenodd" clip-rule="evenodd" d="M16.9835 51.878H49.4993C50.2417 51.878 50.6871 52.4719 50.6871 53.2143C50.6871 53.8082 50.0932 54.4021 49.4993 54.4021H16.9835C13.5686 54.4021 10.896 51.5811 10.896 48.3146V22.0347C10.896 18.6198 13.717 15.9473 16.9835 15.9473H62.7136C66.1285 15.9473 68.801 18.7682 68.801 22.0347V24.4103V26.7859V31.5371V33.9126V36.2882C68.801 36.8821 68.2071 37.476 67.6132 37.476C67.0193 37.476 66.4254 36.8821 66.4254 36.2882V33.9126H13.4201V48.3146C13.4201 50.2448 15.0533 51.878 16.9835 51.878ZM16.9835 18.3228C15.0533 18.3228 13.4201 19.9561 13.4201 21.8862H13.2716V24.2618H66.2769V21.8862C66.2769 19.9561 64.6437 18.3228 62.7136 18.3228H16.9835ZM66.4254 26.6374H13.4201V31.3886H66.4254V26.6374ZM16.9832 36.2882H38.6604C39.4028 36.2882 39.8482 36.8821 39.8482 37.476V44.7512C39.8482 45.3451 39.2543 45.939 38.6604 45.939H16.9832C16.3893 45.939 15.7954 45.3451 15.7954 44.7512V37.476C15.7954 36.8821 16.3893 36.2882 16.9832 36.2882ZM18.1709 43.5634H37.4726V38.8122H18.1709V43.5634ZM57.0716 48.76H69.0981C70.1374 48.76 71.0282 49.5024 70.8797 50.5417V62.2712C70.8797 63.162 70.1374 64.0529 69.0981 64.0529H54.3991C53.5083 64.0529 52.6174 63.3105 52.6174 62.2712V50.5417C52.6174 49.6509 53.3598 48.76 54.3991 48.76H54.696V43.2665C54.696 39.4061 57.814 36.2882 61.6743 36.2882C65.5347 36.2882 68.6526 39.4061 68.6526 43.2665V45.4936C68.6526 46.0875 68.2072 46.5329 67.6133 46.5329C67.0194 46.5329 66.574 46.0875 66.574 45.4936V43.2665C66.574 40.5939 64.4954 38.5153 61.8228 38.5153C59.1503 38.5153 57.0716 40.5939 57.0716 43.2665V48.76ZM61.8228 52.7688C60.635 52.7688 59.5957 53.8081 59.5957 54.9959C59.5957 55.7383 60.0411 56.4807 60.7835 56.9261V60.1925H63.0106V56.9261C63.6045 56.4807 64.0499 55.7383 64.0499 54.9959C64.0499 53.8081 63.0106 52.7688 61.8228 52.7688ZM44.7477 37.476H42.3721V39.8516H44.7477V37.476ZM47.1236 37.476H49.4992V39.8516H47.1236V37.476ZM44.7477 42.3758H42.3721V44.7513H44.7477V42.3758Z" fill="url(#paint0_linear_808_17609)"/>
<defs>
<linearGradient id="paint0_linear_808_17609" x1="69.8229" y1="63.0096" x2="69.8229" y2="15.9473" gradientUnits="userSpaceOnUse">
<stop stop-color="#002D85"/>
<stop offset="1" stop-color="#013AA9"/>
</linearGradient>
</defs>
</svg>
