<svg width="81" height="80" viewBox="0 0 81 80" fill="none" xmlns="http://www.w3.org/2000/svg">
<path fill-rule="evenodd" clip-rule="evenodd" d="M16.3124 50.3278H45.8014C46.4777 50.3278 47.0188 50.8688 47.0188 51.5452C47.0188 52.0863 46.4777 52.6274 45.9367 52.6274H16.3124C13.2012 52.6274 10.7663 50.0572 10.7663 47.0813V23.0031C10.7663 19.8919 13.3365 17.457 16.3124 17.457H57.9757C61.087 17.457 63.5218 20.0272 63.5218 23.0031V25.1674V27.3318V31.7957V33.96V36.1244C63.5218 36.6654 62.9807 37.2065 62.4397 37.2065C61.8986 37.2065 61.3575 36.6654 61.3575 36.1244V33.96H13.0659V47.0813C13.0659 48.8398 14.5539 50.3278 16.3124 50.3278ZM16.1771 19.6214C14.4186 19.6214 12.9307 21.1093 12.9307 22.8679H12.7954V25.0322H61.087V22.8679C61.087 21.1093 59.599 19.6214 57.8405 19.6214H16.1771ZM61.2222 27.3318H12.9307V31.6604H61.2222V27.3318ZM35.9263 36.1244H16.3121C15.7711 36.1244 15.23 36.6655 15.23 37.2066V43.8348C15.23 44.3759 15.7711 44.917 16.3121 44.917H36.0616C36.6027 44.917 37.1438 44.3759 37.1438 43.8348V37.2066C37.1438 36.5302 36.6027 36.1244 35.9263 36.1244ZM34.8442 42.6174H17.259V38.2888H34.8442V42.6174ZM41.4729 37.2067H39.3085V39.371H41.4729V37.2067ZM43.6368 37.2067H45.8011V39.371H43.6368V37.2067ZM41.4729 41.5352H39.3085V43.6996H41.4729V41.5352ZM61.628 48.434C62.1691 48.434 62.7102 48.2987 63.116 47.8929C63.5218 47.4871 63.7924 47.0813 63.7924 46.4049C63.7924 45.8639 63.5218 45.3228 63.116 44.917C62.7102 44.5112 62.1691 44.3759 61.628 44.3759C61.087 44.3759 60.5459 44.5112 60.1401 44.917C59.7342 45.3228 59.4637 45.7286 59.4637 46.4049C59.4637 46.946 59.7342 47.4871 60.1401 47.8929C60.5459 48.1635 61.087 48.434 61.628 48.434ZM49.724 50.5983C49.9945 45.1875 54.3232 40.8589 59.734 40.7236C65.5506 40.5883 70.2851 45.1875 70.0145 50.8689C70.0145 55.3328 67.1739 59.2556 63.1157 60.6083C62.6403 60.7668 62.2577 60.9253 61.9408 61.0566C61.7166 61.1494 61.5253 61.2287 61.3572 61.2847C60.9514 61.42 60.4103 61.5552 59.8693 61.5552C59.0576 61.5552 58.3813 61.2847 57.8402 60.8789C57.4344 60.4731 57.1638 59.932 57.1638 59.2556V58.444C57.1638 58.1735 57.1638 57.7677 57.2991 57.4971L58.246 54.2506C58.3813 53.9801 58.5165 53.7096 58.5165 53.439C58.6518 53.1685 58.6518 52.8979 58.6518 52.6274C58.6518 52.2216 58.5166 51.951 58.3813 51.8158C58.246 51.6805 57.9755 51.5452 57.4344 51.5452C57.2991 51.5452 57.0286 51.5452 56.758 51.6805L56.758 51.6805C56.4875 51.8158 56.2169 51.951 56.0817 51.951L56.3522 51.0042C56.5541 50.9234 56.7439 50.8427 56.9252 50.7655C57.3515 50.5842 57.7311 50.4227 58.1107 50.3278C58.2036 50.3046 58.2924 50.2814 58.3787 50.2589C58.795 50.1501 59.1505 50.0573 59.5987 50.0573C60.5456 50.0573 61.222 50.3278 61.6278 50.7336C62.0336 51.1394 62.3041 51.6805 62.3041 52.3569V53.0332C62.3041 53.3037 62.3041 53.7096 62.1689 53.9801L61.222 57.2266C61.222 57.3619 61.1881 57.5309 61.1543 57.7C61.1205 57.8691 61.0867 58.0382 61.0867 58.1735C60.9514 58.5793 60.9514 58.8498 60.9514 58.9851C60.9514 59.3909 61.0867 59.6615 61.222 59.7967C61.3572 59.932 61.763 60.0673 62.1689 60.0673C62.4394 60.0673 62.7099 60.0673 62.9805 59.932C63.139 59.932 63.251 59.8856 63.3439 59.8471C63.4095 59.8199 63.4655 59.7967 63.5216 59.7967C66.6328 58.7146 69.4735 55.1975 69.4735 51.0042C69.4735 45.7286 65.2801 41.3999 60.0045 41.3999C54.8643 41.3999 50.6709 45.4581 50.4003 50.5983C50.265 53.7096 51.6178 56.5502 53.9174 58.444C53.9174 58.444 54.0526 58.5793 53.9174 58.7146L53.7821 58.9851C53.7821 58.9851 53.6468 59.1204 53.5115 58.9851C50.9414 56.9561 49.5887 53.8448 49.724 50.5983Z" fill="url(#paint0_linear_808_17880)"/>
<defs>
<linearGradient id="paint0_linear_808_17880" x1="68.9657" y1="60.5988" x2="68.9657" y2="17.457" gradientUnits="userSpaceOnUse">
<stop stop-color="#002D85"/>
<stop offset="1" stop-color="#013AA9"/>
</linearGradient>
</defs>
</svg>
