<svg width="81" height="80" viewBox="0 0 81 80" fill="none" xmlns="http://www.w3.org/2000/svg">
<path fill-rule="evenodd" clip-rule="evenodd" d="M14.7152 58.3875H30.2791C30.5082 58.3875 30.7279 58.2977 30.8899 58.1376C31.0519 57.9776 31.1429 57.7607 31.1429 57.5344V52.4153C31.1429 52.189 31.0519 51.972 30.8899 51.8121C30.7279 51.652 30.5082 51.5622 30.2791 51.5622H14.7152C14.4861 51.5622 14.2663 51.652 14.1043 51.8121C13.9423 51.972 13.8513 52.189 13.8513 52.4153V57.549C13.8552 57.7728 13.9479 57.986 14.1095 58.1428C14.2711 58.2997 14.4886 58.3875 14.7152 58.3875ZM15.579 53.2537H29.4152V56.6812H15.579V53.2537ZM34.5983 54.1217H32.8706V52.4153H34.5983V54.1217ZM38.0537 54.1217H36.326V52.4153H38.0537V54.1217ZM38.0537 57.5344H36.326V55.828H38.0537V57.5344ZM41.6133 57.5344H39.8856V55.828H41.6728L41.6133 57.5344ZM41.6133 54.1217H39.8856V52.4153H41.6728L41.6133 54.1217ZM34.5983 57.5344H32.8706V55.828H34.5983V57.5344ZM47.6303 37.0435H14.7152C13.5696 37.0435 12.471 37.493 11.661 38.2929C10.851 39.0929 10.396 40.1779 10.396 41.3093V60.0939C10.396 61.2252 10.851 62.3103 11.661 63.1102C12.471 63.9103 13.5696 64.3597 14.7152 64.3597H47.6303C48.7758 64.3597 49.8744 63.9103 50.6844 63.1102C51.4945 62.3103 51.9495 61.2252 51.9495 60.0939V41.3093C51.9495 40.1779 51.4945 39.0929 50.6844 38.2929C49.8744 37.493 48.7758 37.0435 47.6303 37.0435ZM50.2218 51.5475V60.0939C50.2298 60.4349 50.1687 60.7741 50.0419 61.0914C49.9152 61.4087 49.7256 61.6979 49.4842 61.9418C49.2427 62.1858 48.9544 62.3797 48.636 62.512C48.3176 62.6442 47.9757 62.7123 47.6303 62.7123H14.7152C14.0278 62.7123 13.3687 62.4426 12.8827 61.9625C12.3967 61.4826 12.1236 60.8315 12.1236 60.1527V49.8558H50.1623L50.2218 51.5475ZM50.2218 48.1347H12.1236V44.722H50.1623L50.2218 48.1347ZM50.2218 43.0157H12.1236V41.3093C12.1236 40.6305 12.3967 39.9795 12.8827 39.4994C13.3687 39.0195 14.0278 38.7498 14.7152 38.7498H47.6303C48.3176 38.7498 48.9768 39.0195 49.4628 39.4994C49.9488 39.9795 50.2218 40.6305 50.2218 41.3093V43.0157ZM70.3731 48.0023C70.5579 51.0913 69.6176 54.1438 67.722 56.6076C65.6268 58.8471 62.7564 60.2278 59.6793 60.4763V64.3303H54.8687V60.4028C54.4815 60.4028 54.1091 60.2703 53.7219 60.2116V45.6046H54.8687V48.12C54.7911 49.838 54.901 51.559 55.1964 53.2537C55.3 53.5583 55.5017 53.8208 55.7706 54.0015C56.0396 54.1821 56.361 54.2707 56.6858 54.2541C56.9857 54.272 57.2857 54.2187 57.5604 54.0984C57.8351 53.9781 58.0766 53.7944 58.2645 53.5627C58.6449 52.9391 58.8217 52.2149 58.7708 51.4886C58.8645 49.8243 58.7192 48.1553 58.3389 46.5313C57.641 45.1282 56.4947 43.9909 55.0772 43.2952L53.7963 42.5009V39.0146C53.7963 38.4995 53.6934 37.9895 53.4934 37.5139C53.2933 37.0382 53.0002 36.6062 52.6307 36.2426C52.2613 35.8791 51.8228 35.5912 51.3404 35.3954C50.858 35.1996 50.3412 35.0999 49.8197 35.1017H45.5899C44.7215 33.3181 44.288 31.3585 44.3239 29.3796C44.2483 28.0625 44.4429 26.7438 44.8958 25.5027C45.3489 24.2616 46.051 23.1236 46.9601 22.1571C49.1483 20.2236 51.9371 19.0825 54.8687 18.9209V15.6406H59.6793V18.9209C62.3904 19.1031 64.9467 20.235 66.8879 22.113C68.5636 24.1098 69.4146 26.6576 69.2709 29.2472C69.2709 29.6592 69.2709 30.3064 69.1816 31.1742H58.7559V29.4679C58.8265 28.2815 58.716 27.0915 58.4283 25.9375C58.2977 25.6633 58.0846 25.4355 57.818 25.2854C57.5514 25.1354 57.2444 25.0703 56.9389 25.0991C56.6581 25.0747 56.3762 25.1295 56.1257 25.2571C55.8754 25.3847 55.6666 25.5798 55.524 25.8199C55.1554 26.49 54.9899 27.251 55.0474 28.0116C54.9241 29.2153 55.2704 30.42 56.0155 31.3801C57.7702 32.7976 59.6493 34.0578 61.6304 35.1459C63.5105 36.2013 65.3033 37.4014 66.9922 38.7351C68.061 39.7303 68.8949 40.9456 69.4348 42.2949C70.1175 44.1197 70.436 46.0579 70.3731 48.0023Z" fill="url(#paint0_linear_808_17625)"/>
<defs>
<linearGradient id="paint0_linear_808_17625" x1="69.3228" y1="63.303" x2="69.3228" y2="15.6406" gradientUnits="userSpaceOnUse">
<stop stop-color="#002D85"/>
<stop offset="1" stop-color="#013AA9"/>
</linearGradient>
</defs>
</svg>
