<svg width="82" height="80" viewBox="0 0 82 80" fill="none" xmlns="http://www.w3.org/2000/svg">
<path fill-rule="evenodd" clip-rule="evenodd" d="M15.9789 19.5H56.1286C56.9484 19.5167 57.7284 19.851 58.2985 20.4299C58.8685 21.0089 59.1826 21.7856 59.1722 22.591V34.6241C59.1722 34.7026 59.1564 34.7803 59.1258 34.8529C59.0952 34.9254 59.0504 34.9913 58.9939 35.0468C58.9373 35.1023 58.8702 35.1464 58.7964 35.1764C58.7225 35.2064 58.6434 35.2219 58.5634 35.2219C58.4835 35.2219 58.4043 35.2064 58.3305 35.1764C58.2566 35.1464 58.1895 35.1023 58.133 35.0468C58.0765 34.9913 58.0316 34.9254 58.001 34.8529C57.9705 34.7803 57.9547 34.7026 57.9547 34.6241V32.7415H14.1138V47.2805C14.1087 47.5204 14.1519 47.759 14.2411 47.9824C14.3302 48.2058 14.4635 48.4098 14.6333 48.5824C14.803 48.755 15.0059 48.8929 15.2302 48.9882C15.4544 49.0835 15.6957 49.1343 15.94 49.1376H40.0946C40.1762 49.1392 40.2568 49.1567 40.3315 49.1889C40.4063 49.2211 40.4739 49.2675 40.5304 49.3254C40.587 49.3832 40.6313 49.4515 40.661 49.5262C40.6906 49.6009 40.705 49.6807 40.7033 49.7609C40.705 49.8404 40.6906 49.9195 40.6607 49.9935C40.6309 50.0676 40.5864 50.135 40.5297 50.1918C40.473 50.2487 40.4053 50.2939 40.3306 50.3247C40.2559 50.3556 40.1756 50.3714 40.0946 50.3714H15.94C15.5335 50.3648 15.1323 50.2796 14.7593 50.1206C14.3863 49.9617 14.0489 49.7322 13.7663 49.4451C13.4836 49.1581 13.2613 48.8192 13.1121 48.4478C12.9628 48.0764 12.8895 47.6797 12.8964 47.2805V22.591C12.8895 22.1885 12.9641 21.7888 13.1158 21.4149C13.2675 21.041 13.4932 20.7004 13.78 20.4128C14.0667 20.1253 14.4087 19.8966 14.7862 19.7399C15.1637 19.5832 15.5691 19.5016 15.9789 19.5ZM56.1286 20.772H15.9789H15.94C15.4544 20.7819 14.9918 20.9775 14.6508 21.3172C14.3098 21.6569 14.1171 22.1139 14.1138 22.591V25.9363H57.9547V22.6291C57.9583 22.1464 57.7691 21.6816 57.4277 21.3344C57.0862 20.9872 56.6198 20.7853 56.1286 20.772ZM58.3174 36.8374C55.1982 36.8942 52.2293 38.1633 50.0613 40.3665C47.8933 42.5696 46.7031 45.5271 46.7517 48.5906C46.6776 50.1275 46.9218 51.6632 47.4697 53.1047C48.0175 54.5462 48.8574 55.8635 49.9387 56.9769C51.02 58.0903 52.32 58.9766 53.7602 59.5822C55.2004 60.1878 56.7507 60.5 58.3174 60.5C59.884 60.5 61.4343 60.1878 62.8745 59.5822C64.3147 58.9766 65.6148 58.0903 66.696 56.9769C67.7773 55.8635 68.6173 54.5462 69.1651 53.1047C69.7129 51.6632 69.9571 50.1275 69.883 48.5906C69.9282 45.5281 68.7369 42.5725 66.5696 40.3701C64.4023 38.1677 61.4354 36.8976 58.3174 36.8374ZM63.1871 49.2139H58.9261V53.5514C58.9261 53.63 58.9103 53.7077 58.8797 53.7802C58.8491 53.8528 58.8043 53.9187 58.7478 53.9742C58.6913 54.0297 58.6242 54.0737 58.5503 54.1038C58.4765 54.1338 58.3973 54.1493 58.3174 54.1493C58.2374 54.1493 58.1583 54.1338 58.0844 54.1038C58.0106 54.0737 57.9435 54.0297 57.8869 53.9742C57.8304 53.9187 57.7856 53.8528 57.755 53.7802C57.7244 53.7077 57.7086 53.63 57.7086 53.5514V49.2139H53.4476C53.2758 49.2139 53.1111 49.1469 52.9897 49.0276C52.8682 48.9084 52.8 48.7466 52.8 48.5779C52.8 48.4092 52.8682 48.2475 52.9897 48.1282C53.1111 48.0089 53.2758 47.9419 53.4476 47.9419H57.7086V43.668C57.7086 43.5895 57.7244 43.5118 57.755 43.4392C57.7856 43.3667 57.8304 43.3008 57.8869 43.2453C57.9435 43.1898 58.0106 43.1457 58.0844 43.1157C58.1583 43.0856 58.2374 43.0702 58.3174 43.0702C58.3973 43.0702 58.4765 43.0856 58.5503 43.1157C58.6242 43.1457 58.6913 43.1898 58.7478 43.2453C58.8043 43.3008 58.8491 43.3667 58.8797 43.4392C58.9103 43.5118 58.9261 43.5895 58.9261 43.668V48.0055H63.1871C63.3589 48.0055 63.5236 48.0725 63.645 48.1918C63.7665 48.3111 63.8347 48.4728 63.8347 48.6415C63.8347 48.8102 63.7665 48.972 63.645 49.0912C63.5236 49.2105 63.3589 49.2775 63.1871 49.2775V49.2139ZM19.6441 38.8344H29.1635C29.3352 38.8344 29.5 38.7674 29.6214 38.6481C29.7428 38.5288 29.8111 38.3671 29.8111 38.1984C29.8111 38.0297 29.7428 37.8679 29.6214 37.7487C29.5 37.6294 29.3352 37.5624 29.1635 37.5624H19.6441C19.4724 37.5624 19.3077 37.6294 19.1862 37.7487C19.0648 37.8679 18.9966 38.0297 18.9966 38.1984C18.9966 38.3671 19.0648 38.5288 19.1862 38.6481C19.3077 38.7674 19.4724 38.8344 19.6441 38.8344ZM19.6441 44.2786H32.8158C32.9876 44.2786 33.1523 44.2116 33.2737 44.0923C33.3952 43.973 33.4634 43.8112 33.4634 43.6426C33.4634 43.4739 33.3952 43.3121 33.2737 43.1928C33.1523 43.0736 32.9876 43.0066 32.8158 43.0066H19.6441C19.4724 43.0066 19.3077 43.0736 19.1862 43.1928C19.0648 43.3121 18.9966 43.4739 18.9966 43.6426C18.9966 43.8112 19.0648 43.973 19.1862 44.0923C19.3077 44.2116 19.4724 44.2786 19.6441 44.2786ZM43.7339 50.5622C44.1702 50.5622 44.5239 50.2034 44.5239 49.7609C44.5239 49.3183 44.1702 48.9595 43.7339 48.9595C43.2975 48.9595 42.9438 49.3183 42.9438 49.7609C42.9438 50.2034 43.2975 50.5622 43.7339 50.5622ZM43.6558 44.8128H45.4432V44.8636C45.6149 44.8636 45.7796 44.7966 45.9011 44.6774C46.0225 44.5581 46.0907 44.3963 46.0907 44.2276C46.0907 44.059 46.0225 43.8972 45.9011 43.7779C45.7796 43.6586 45.6149 43.5916 45.4432 43.5916H43.6558C43.5748 43.5917 43.4946 43.5758 43.4199 43.5449C43.3452 43.5141 43.2775 43.4689 43.2208 43.4121C43.1641 43.3552 43.1195 43.2878 43.0897 43.2138C43.0599 43.1398 43.0455 43.0607 43.0471 42.9811V38.9488C43.0471 38.7891 43.1108 38.6357 43.2246 38.5215C43.3384 38.4074 43.4932 38.3416 43.6558 38.3383H50.3518C50.5235 38.3383 50.6883 38.2713 50.8097 38.152C50.9311 38.0327 50.9993 37.871 50.9993 37.7023C50.9993 37.5336 50.9311 37.3718 50.8097 37.2526C50.6883 37.1333 50.5235 37.0663 50.3518 37.0663H43.6558C43.1635 37.0763 42.6951 37.2772 42.353 37.6251C42.0109 37.9731 41.8227 38.4398 41.8297 38.9234V42.9556C41.8227 43.4393 42.0109 43.906 42.353 44.2539C42.6951 44.6018 43.1635 44.8027 43.6558 44.8128Z" fill="url(#paint0_linear_808_17636)"/>
<defs>
<linearGradient id="paint0_linear_808_17636" x1="68.8765" y1="59.6107" x2="68.8765" y2="19.5" gradientUnits="userSpaceOnUse">
<stop stop-color="#002D85"/>
<stop offset="1" stop-color="#013AA9"/>
</linearGradient>
</defs>
</svg>
