<svg width="81" height="80" viewBox="0 0 81 80" fill="none" xmlns="http://www.w3.org/2000/svg">
<path fill-rule="evenodd" clip-rule="evenodd" d="M18.396 54.0694H22.5664V58.5133C22.6337 59.5553 23.1083 60.5286 23.887 61.222C24.6657 61.9153 25.6857 62.2727 26.7255 62.2165H55.0665C56.1063 62.2727 57.1263 61.9153 57.905 61.222C58.6837 60.5286 59.1582 59.5553 59.2255 58.5133V54.0694H63.396C63.7102 54.0879 64.0248 54.0432 64.3215 53.938C64.6183 53.8328 64.8911 53.6694 65.1239 53.4571C65.3568 53.2449 65.545 52.9881 65.6776 52.7019C65.8102 52.4158 65.8844 52.1058 65.896 51.7906V44.441C65.858 43.8141 65.5733 43.228 65.1045 42.8113C64.6358 42.3947 64.0213 42.1817 63.396 42.2191H59.2255V37.7753C59.1582 36.7332 58.6837 35.7599 57.905 35.0665C57.1263 34.3732 56.1063 34.0159 55.0665 34.0721V30.3688C55.0665 23.4751 48.7255 17.7778 40.896 17.7778C33.0665 17.7778 26.7255 23.4751 26.7255 30.3688V34.0721C25.6857 34.0159 24.6657 34.3732 23.887 35.0665C23.1083 35.7599 22.6337 36.7332 22.5664 37.7753V42.2191H18.396C17.7707 42.1817 17.1562 42.3947 16.6874 42.8113C16.2187 43.228 15.934 43.8141 15.896 44.441V51.8475C15.934 52.4744 16.2187 53.0606 16.6874 53.4772C17.1562 53.8938 17.7707 54.1068 18.396 54.0694ZM57.5665 58.5133C57.5534 58.8281 57.4781 59.1372 57.345 59.4228C57.2119 59.7082 57.0236 59.9643 56.7911 60.1762C56.5586 60.3883 56.2864 60.5519 55.9903 60.6575C55.6943 60.7633 55.3803 60.809 55.0665 60.7923H26.7255C26.4117 60.809 26.0977 60.7633 25.8017 60.6575C25.5056 60.5519 25.2334 60.3883 25.0009 60.1762C24.7684 59.9643 24.5801 59.7082 24.447 59.4228C24.3139 59.1372 24.2386 58.8281 24.2255 58.5133V54.0694H57.5665V58.5133ZM28.396 30.3688C28.396 24.2385 33.9869 19.2591 40.896 19.2591C47.8051 19.2591 53.396 24.2385 53.396 30.3688V34.0721H50.0665V30.3688C50.0665 25.811 45.9642 22.2217 40.896 22.2217C35.8278 22.2217 31.7255 25.868 31.7255 30.3688V34.0721H28.396V30.3688ZM33.396 34.0721V30.3688C33.396 26.6884 36.8051 23.703 40.896 23.703C44.9869 23.703 48.396 26.6884 48.396 30.3688V34.0721H33.396ZM24.2255 37.7753C24.2386 37.4604 24.3139 37.1513 24.447 36.8658C24.5801 36.5804 24.7684 36.3242 25.0009 36.1123C25.2334 35.9003 25.5056 35.7366 25.8017 35.631C26.0977 35.5252 26.4117 35.4795 26.7255 35.4963H55.0665C55.3803 35.4795 55.6943 35.5252 55.9903 35.631C56.2864 35.7366 56.5586 35.9003 56.7911 36.1123C57.0236 36.3242 57.2119 36.5804 57.345 36.8658C57.4781 37.1513 57.5534 37.4604 57.5665 37.7753V42.2191H24.2255V37.7753ZM17.5664 44.441C17.5722 44.3377 17.5983 44.2366 17.6432 44.1435C17.688 44.0502 17.7508 43.9669 17.8279 43.898C17.9049 43.8292 17.9948 43.7763 18.0923 43.7425C18.1898 43.7085 18.293 43.6943 18.396 43.7004H63.396C63.499 43.6943 63.6022 43.7085 63.6997 43.7425C63.7972 43.7763 63.887 43.8292 63.9641 43.898C64.0412 43.9669 64.1039 44.0502 64.1488 44.1435C64.1937 44.2366 64.2197 44.3377 64.2255 44.441V51.8475C64.2197 51.9508 64.1937 52.0519 64.1488 52.1451C64.1039 52.2383 64.0412 52.3217 63.9641 52.3905C63.887 52.4593 63.7972 52.5121 63.6997 52.5461C63.6022 52.58 63.499 52.5943 63.396 52.5881H18.396C18.293 52.5943 18.1898 52.58 18.0923 52.5461C17.9948 52.5121 17.9049 52.4593 17.8279 52.3905C17.7508 52.3217 17.688 52.2383 17.6432 52.1451C17.5983 52.0519 17.5722 51.9508 17.5664 51.8475V44.441ZM19.3734 50.0357C19.503 50.2026 19.6889 50.316 19.8962 50.3549C20.1114 50.3924 20.3329 50.3521 20.5212 50.2409L21.7257 49.523V50.3662C21.7403 50.5759 21.8368 50.7712 21.9943 50.9099C22.1517 51.0486 22.3574 51.1194 22.5666 51.1069C22.6696 51.1131 22.7728 51.0988 22.8703 51.0649C22.9678 51.0309 23.0576 50.9781 23.1347 50.9092C23.2117 50.8404 23.2745 50.757 23.3194 50.6639C23.3642 50.5707 23.3903 50.4695 23.3961 50.3662V49.523L24.6007 50.2409C24.7287 50.3078 24.871 50.3427 25.0154 50.3427C25.1598 50.3427 25.3021 50.3078 25.4302 50.2409C25.5492 50.1959 25.6547 50.1209 25.7363 50.0231C25.8179 49.9252 25.873 49.808 25.8961 49.6826C25.9029 49.548 25.8713 49.4143 25.8048 49.2972C25.7384 49.1801 25.64 49.0845 25.5211 49.0217L24.0666 48.1556L25.5211 47.2897C25.6382 47.2248 25.7351 47.1288 25.8013 47.0121C25.8675 46.8956 25.9003 46.763 25.8961 46.6288C25.88 46.494 25.8284 46.3659 25.7465 46.2577C25.6646 46.1495 25.5554 46.0653 25.4302 46.0135C25.3021 45.9467 25.1598 45.9117 25.0154 45.9117C24.871 45.9117 24.7287 45.9467 24.6007 46.0135L23.3961 46.7313V45.9224C23.3903 45.819 23.3642 45.7179 23.3194 45.6248C23.2745 45.5315 23.2117 45.4482 23.1347 45.3793C23.0576 45.3105 22.9678 45.2577 22.8703 45.2238C22.7728 45.1898 22.6696 45.1756 22.5666 45.1817C22.3574 45.1692 22.1517 45.24 21.9943 45.3787C21.8368 45.5173 21.7403 45.7127 21.7257 45.9224V46.7655L20.5212 46.0477C20.3385 45.9401 20.1235 45.9016 19.9151 45.9392C19.7066 45.9769 19.5185 46.0881 19.3848 46.2528C19.3237 46.3321 19.2807 46.424 19.259 46.5219C19.2372 46.6196 19.2372 46.7211 19.2589 46.819C19.2806 46.9168 19.3234 47.0087 19.3845 47.0881C19.4455 47.1674 19.5232 47.2324 19.6121 47.2783L21.078 48.1443L19.6121 49.0103C19.5243 49.0595 19.4477 49.1264 19.3871 49.2068C19.3265 49.2873 19.2831 49.3794 19.2598 49.4774C19.2376 49.574 19.2373 49.6743 19.2589 49.7709C19.2805 49.8675 19.3236 49.9581 19.3848 50.0357H19.3734ZM29.063 50.3458C28.8552 50.3083 28.6672 50.1985 28.5321 50.0358C28.4751 49.9544 28.436 49.8619 28.4171 49.7643C28.3983 49.6667 28.4002 49.5663 28.4227 49.4695C28.4452 49.3727 28.4879 49.2818 28.5478 49.2026C28.6078 49.1235 28.6837 49.0579 28.7707 49.0102L30.2252 48.1443L28.7707 47.2783C28.6824 47.232 28.6051 47.1671 28.544 47.0881C28.483 47.009 28.4397 46.9177 28.417 46.8204C28.3944 46.723 28.3929 46.622 28.4128 46.524C28.4326 46.426 28.4733 46.3335 28.5321 46.2528C28.6672 46.09 28.8552 45.9803 29.063 45.9428C29.2708 45.9052 29.4852 45.9424 29.6684 46.0477L30.873 46.7655V45.9223C30.8969 45.7171 30.9952 45.5278 31.1491 45.3903C31.3031 45.2529 31.5021 45.177 31.7082 45.177C31.9143 45.177 32.1133 45.2529 32.2672 45.3903C32.4212 45.5278 32.5195 45.7171 32.5434 45.9223V46.6744L33.7366 45.9565C33.8667 45.8895 34.0108 45.8546 34.1571 45.8546C34.3033 45.8546 34.4474 45.8895 34.5775 45.9565C34.7027 46.0068 34.8115 46.0909 34.8918 46.1996C34.9721 46.3082 35.0206 46.4371 35.0321 46.5718C35.0414 46.7054 35.012 46.8389 34.9475 46.9561C34.883 47.0733 34.7861 47.1693 34.6684 47.2327L33.2025 48.0987L34.6684 48.9647C34.7855 49.0296 34.8825 49.1257 34.9486 49.2422C35.0148 49.3589 35.0476 49.4915 35.0434 49.6255C35.0274 49.7605 34.9757 49.8885 34.8938 49.9967C34.8119 50.1048 34.7027 50.1891 34.5775 50.2408C34.4497 50.3087 34.3073 50.3442 34.1627 50.3442C34.0181 50.3442 33.8758 50.3087 33.748 50.2408L32.5434 49.523V50.3662C32.5195 50.5715 32.4212 50.7608 32.2672 50.8982C32.1133 51.0356 31.9143 51.1116 31.7082 51.1116C31.5021 51.1116 31.3031 51.0356 31.1491 50.8982C30.9952 50.7608 30.8969 50.5715 30.873 50.3662V49.523L29.6684 50.2408C29.4852 50.3461 29.2708 50.3834 29.063 50.3458ZM46.8735 50.0358C47.003 50.2025 47.189 50.316 47.3962 50.3548C47.6114 50.3924 47.833 50.3521 48.0212 50.2408L49.2257 49.523V50.3662C49.2497 50.5715 49.3479 50.7608 49.5019 50.8982C49.6559 51.0356 49.8548 51.1116 50.061 51.1116C50.2671 51.1116 50.466 51.0356 50.62 50.8982C50.774 50.7608 50.8723 50.5715 50.8962 50.3662V49.523L52.1007 50.2408C52.2288 50.3078 52.3711 50.3427 52.5155 50.3427C52.6599 50.3427 52.8022 50.3078 52.9303 50.2408C53.0493 50.1959 53.1548 50.1208 53.2364 50.0231C53.318 49.9253 53.3731 49.808 53.3962 49.6825C53.403 49.548 53.3714 49.4143 53.3049 49.2972C53.2385 49.1801 53.14 49.0845 53.0212 49.0217L51.5667 48.1557L53.0212 47.2896C53.1383 47.2247 53.2352 47.1287 53.3014 47.0121C53.3676 46.8956 53.4004 46.7629 53.3962 46.6288C53.3801 46.494 53.3285 46.3659 53.2466 46.2577C53.1647 46.1495 53.0555 46.0652 52.9303 46.0135C52.8022 45.9466 52.6599 45.9117 52.5155 45.9117C52.3711 45.9117 52.2288 45.9466 52.1007 46.0135L50.8962 46.7313V45.9223C50.8723 45.7171 50.774 45.5278 50.62 45.3903C50.466 45.2529 50.2671 45.177 50.061 45.177C49.8548 45.177 49.6559 45.2529 49.5019 45.3903C49.3479 45.5278 49.2497 45.7171 49.2257 45.9223V46.7655L48.0212 46.0477C47.8386 45.9401 47.6236 45.9016 47.4151 45.9392C47.2067 45.9768 47.0186 46.0881 46.8848 46.2528C46.8237 46.3321 46.7808 46.424 46.759 46.5218C46.7373 46.6196 46.7372 46.721 46.7589 46.8189C46.7806 46.9168 46.8235 47.0086 46.8845 47.0881C46.9456 47.1674 47.0233 47.2324 47.1121 47.2783L48.578 48.1443L47.1121 49.0102C47.0244 49.0595 46.9478 49.1264 46.8871 49.2069C46.8265 49.2873 46.7832 49.3794 46.7598 49.4774C46.7376 49.574 46.7373 49.6742 46.7589 49.7708C46.7806 49.8675 46.8236 49.9581 46.8848 50.0358H46.8735ZM38.2338 50.3458C38.026 50.3083 37.838 50.1984 37.7029 50.0358C37.6417 49.958 37.5987 49.8675 37.577 49.7709C37.5554 49.6742 37.5557 49.5739 37.5779 49.4773C37.6012 49.3778 37.6457 49.2844 37.7085 49.2038C37.7713 49.1231 37.8508 49.057 37.9415 49.0102L39.3961 48.1442L37.9302 47.2782C37.8428 47.2309 37.7665 47.1652 37.7066 47.0857C37.6467 47.0062 37.6046 46.9148 37.583 46.8175C37.5615 46.7203 37.561 46.6195 37.5817 46.5221C37.6024 46.4246 37.6437 46.3327 37.7029 46.2527C37.838 46.09 38.026 45.9803 38.2338 45.9427C38.4417 45.9052 38.6561 45.9423 38.8393 46.0476L40.0438 46.7654V45.9223C40.0438 45.7016 40.1312 45.4901 40.2868 45.3341C40.4424 45.1781 40.6534 45.0905 40.8734 45.0905C41.0934 45.0905 41.3044 45.1781 41.4599 45.3341C41.6155 45.4901 41.7029 45.7016 41.7029 45.9223V46.6744L42.9075 45.9565C43.0355 45.8896 43.1778 45.8546 43.3222 45.8546C43.4666 45.8546 43.6089 45.8896 43.737 45.9565C43.8636 46.0061 43.9741 46.0898 44.0563 46.1984C44.1385 46.307 44.1892 46.4362 44.2029 46.5718C44.2098 46.7063 44.1781 46.84 44.1116 46.9571C44.0452 47.0742 43.9468 47.1698 43.8279 47.2327L42.3734 48.0987L43.8393 48.9646C43.9551 49.03 44.0505 49.1265 44.1147 49.2433C44.1789 49.36 44.2095 49.4924 44.2029 49.6255C44.1892 49.7611 44.1385 49.8904 44.0563 49.9989C43.9741 50.1075 43.8636 50.1912 43.737 50.2408C43.6089 50.3078 43.4666 50.3426 43.3222 50.3426C43.1778 50.3426 43.0355 50.3078 42.9075 50.2408L41.7029 49.523V50.3661C41.7029 50.5868 41.6155 50.7983 41.4599 50.9544C41.3044 51.1103 41.0934 51.1979 40.8734 51.1979C40.6534 51.1979 40.4424 51.1103 40.2868 50.9544C40.1312 50.7983 40.0438 50.5868 40.0438 50.3661V49.523L38.8393 50.2408C38.6561 50.3461 38.4417 50.3833 38.2338 50.3458ZM29.2255 37.0346H26.7255C26.6225 37.0284 26.5193 37.0427 26.4218 37.0766C26.3244 37.1106 26.2345 37.1634 26.1574 37.2323C26.0804 37.301 26.0176 37.3845 25.9727 37.4776C25.9279 37.5708 25.9018 37.672 25.896 37.7753V39.9972C25.9199 40.2024 26.0182 40.3918 26.1722 40.5293C26.3262 40.6666 26.5251 40.7425 26.7312 40.7425C26.9374 40.7425 27.1363 40.6666 27.2903 40.5293C27.4442 40.3918 27.5425 40.2024 27.5665 39.9972V38.5159H29.2255C29.3334 38.535 29.4441 38.5301 29.5499 38.5016C29.6556 38.4732 29.7539 38.4219 29.8378 38.3513C29.9216 38.2807 29.9891 38.1926 30.0354 38.093C30.0816 37.9936 30.1056 37.885 30.1056 37.7753C30.1056 37.6655 30.0816 37.557 30.0354 37.4575C29.9891 37.358 29.9216 37.2698 29.8378 37.1992C29.7539 37.1287 29.6556 37.0773 29.5499 37.0489C29.4441 37.0204 29.3334 37.0156 29.2255 37.0346ZM61.7255 51.1069H56.7254C56.5296 51.1069 56.3417 51.0289 56.2032 50.89C56.0646 50.7511 55.9868 50.5627 55.9868 50.3662C55.9868 50.1699 56.0646 49.9814 56.2032 49.8426C56.3417 49.7036 56.5296 49.6256 56.7254 49.6256H61.7255C61.8333 49.6066 61.944 49.6115 62.0498 49.6399C62.1555 49.6684 62.2538 49.7196 62.3377 49.7902C62.4215 49.8609 62.489 49.949 62.5353 50.0485C62.5815 50.148 62.6055 50.2565 62.6055 50.3662C62.6055 50.4761 62.5815 50.5845 62.5353 50.6841C62.489 50.7836 62.4215 50.8717 62.3377 50.9423C62.2538 51.0129 62.1555 51.0642 62.0498 51.0927C61.944 51.1211 61.8333 51.1259 61.7255 51.1069Z" fill="url(#paint0_linear_808_17627)"/>
<defs>
<linearGradient id="paint0_linear_808_17627" x1="65.0017" y1="61.2583" x2="65.0017" y2="17.7778" gradientUnits="userSpaceOnUse">
<stop stop-color="#002D85"/>
<stop offset="1" stop-color="#013AA9"/>
</linearGradient>
</defs>
</svg>
