<svg width="81" height="80" viewBox="0 0 81 80" fill="none" xmlns="http://www.w3.org/2000/svg">
<path fill-rule="evenodd" clip-rule="evenodd" d="M27.4962 10H51.2568H52.3619L53.0987 10.7368L63.7817 21.0514L64.5185 21.7882V22.8934V55.3109C64.5185 57.1528 63.7817 58.8105 62.4924 60.0998C61.203 61.3892 59.5453 62.1259 57.7034 62.1259H43.705L49.0465 56.9686H57.7034C58.0718 56.9686 58.4402 56.7844 58.8086 56.6002C59.177 56.2318 59.1769 55.8634 59.1769 55.4951V24.9194L49.9674 24.1827H49.0465V23.2617L49.4149 15.5257H27.312C26.9437 15.5257 26.5753 15.7099 26.207 15.8941L26.2069 15.8941C26.0227 16.0783 25.8385 16.6309 25.8385 16.9993V43.3385L20.6811 48.68V16.9993C20.6811 15.1573 21.4179 13.4996 22.7072 12.2103C23.8124 10.7368 25.6543 10 27.4962 10ZM30.4432 26.7614V28.9716H54.0196V26.7614H30.4432ZM30.4432 20.4989V22.7092H45.3627V20.4989H30.4432ZM57.8876 22.525L51.6251 16.4467L51.441 21.9724L57.8876 22.525ZM30.2583 69.3091C31.3635 70.23 33.0212 70.23 33.9421 69.3091L56.5976 47.2062C57.7027 46.2853 57.7027 44.6275 56.5976 43.5224L55.4924 42.4173L29.1532 68.2039L30.2583 69.3091ZM40.7577 31.5502C41.6787 30.6292 43.3364 30.6292 44.4415 31.5502L52.9143 39.8388L26.5751 65.6254L18.1023 57.3369C16.9972 56.2317 16.9972 54.574 18.1023 53.6531L40.7577 31.5502ZM40.2051 43.891C41.3103 44.8119 42.968 44.9961 44.0732 43.891L46.6518 41.3123C47.757 40.3913 47.757 38.7336 46.6518 37.6285L44.6257 35.6024C43.5206 34.6814 41.8629 34.4972 40.7577 35.6024L38.1791 38.1811C37.0739 39.102 37.0739 40.7597 38.1791 41.8649L40.2051 43.891Z" fill="url(#paint0_linear_808_17604)"/>
<defs>
<linearGradient id="paint0_linear_808_17604" x1="63.6735" y1="68.6986" x2="63.6735" y2="10" gradientUnits="userSpaceOnUse">
<stop stop-color="#002D85"/>
<stop offset="1" stop-color="#013AA9"/>
</linearGradient>
</defs>
</svg>
