<svg width="81" height="80" viewBox="0 0 81 80" fill="none" xmlns="http://www.w3.org/2000/svg">
<path fill-rule="evenodd" clip-rule="evenodd" d="M36.7997 54.76H14.5659C14.5173 54.7621 14.4688 54.7544 14.4235 54.7371C14.3781 54.7197 14.337 54.6932 14.3026 54.6594C14.2682 54.6254 14.2414 54.5849 14.2238 54.5401C14.2063 54.4953 14.1984 54.4475 14.2006 54.3996V28.8752H55.4921V36.2709H59.256V21.8399C59.2623 21.3098 59.1624 20.7836 58.9621 20.2917C58.7617 19.7997 58.4649 19.3516 58.0887 18.9731C57.7124 18.5946 57.2641 18.2931 56.7695 18.086C56.2748 17.8788 55.7436 17.7701 55.2063 17.766H53.6181V19.6149C53.6181 20.5956 53.2232 21.5362 52.5204 22.2297C51.8175 22.9232 50.8641 23.3128 49.8701 23.3128C48.8761 23.3128 47.9228 22.9232 47.2199 22.2297C46.5171 21.5362 46.1221 20.5956 46.1221 19.6149V17.766H23.65V19.6149C23.65 20.1005 23.5531 20.5814 23.3647 21.03C23.1764 21.4787 22.9003 21.8863 22.5523 22.2297C22.2043 22.5731 21.7911 22.8454 21.3363 23.0313C20.8816 23.2171 20.3943 23.3128 19.902 23.3128C19.4099 23.3128 18.9224 23.2171 18.4677 23.0313C18.0131 22.8454 17.5999 22.5731 17.2519 22.2297C16.9037 21.8863 16.6277 21.4787 16.4393 21.03C16.2509 20.5814 16.154 20.1005 16.154 19.6149V17.766H14.5659C14.0272 17.768 13.4943 17.8753 12.9978 18.0815C12.5013 18.2877 12.0511 18.5889 11.6732 18.9676C11.2952 19.3463 10.997 19.7951 10.7957 20.2881C10.5944 20.781 10.494 21.3084 10.5003 21.8399V54.3996C10.4961 54.9298 10.5981 55.4555 10.8003 55.9466C11.0025 56.4377 11.3011 56.8847 11.6788 57.2617C12.0566 57.6388 12.5061 57.9385 13.0015 58.1437C13.4969 58.349 14.0286 58.4557 14.5659 58.4578H36.7997V54.76ZM47.9961 32.573V39.9686H40.5001V32.573H47.9961ZM50.6019 21.3368C50.3691 21.4269 50.1203 21.4701 49.8701 21.4638C49.3815 21.4516 48.9169 21.2514 48.5757 20.906C48.2345 20.5605 48.0436 20.0973 48.0437 19.6149V12.2193C48.0437 11.7289 48.2412 11.2586 48.5927 10.9119C48.9441 10.5652 49.4208 10.3704 49.9177 10.3704C50.4148 10.3704 50.8915 10.5652 51.2429 10.9119C51.5944 11.2586 51.7917 11.7289 51.7917 12.2193V19.6149C51.7919 19.8617 51.7419 20.1061 51.6447 20.3335C51.5476 20.5609 51.4052 20.7669 51.2261 20.9392C51.0471 21.1115 50.8348 21.2467 50.6019 21.3368ZM20.5899 21.3274C20.3616 21.4195 20.1169 21.4659 19.8703 21.4638C19.3732 21.4638 18.8965 21.269 18.5452 20.9223C18.1937 20.5756 17.9963 20.1053 17.9963 19.6149V12.2193C17.9963 11.7289 18.1937 11.2586 18.5452 10.9119C18.8965 10.5652 19.3732 10.3704 19.8703 10.3704C20.3673 10.3704 20.844 10.5652 21.1953 10.9119C21.5468 11.2586 21.7443 11.7289 21.7443 12.2193V19.6149C21.7464 19.8583 21.6993 20.0997 21.606 20.3249C21.5125 20.5502 21.3745 20.7549 21.2001 20.927C21.0257 21.0991 20.8183 21.2352 20.5899 21.3274ZM17.9963 32.573H25.4923V39.9686H17.9963V32.573ZM25.4923 43.6664V51.1091H17.9963V43.6664H25.4923ZM67.9784 63.0375C69.6256 60.6005 70.5032 57.7361 70.5 54.8069V54.76C70.4832 50.8438 68.8947 47.0936 66.0819 44.3304C63.2692 41.5671 59.4615 40.0157 55.4921 40.0157C52.5232 40.0157 49.6209 40.8845 47.1525 42.5122C44.6841 44.1398 42.7605 46.4533 41.6252 49.1599C40.4897 51.8664 40.1935 54.8444 40.7739 57.717C41.3541 60.5898 42.7851 63.2282 44.8856 65.2983C46.986 67.3684 49.6617 68.7775 52.574 69.347C55.4863 69.9166 58.5044 69.6211 61.2464 68.498C63.9884 67.3749 66.3313 65.4746 67.9784 63.0375ZM64.8544 48.6351C66.0916 50.4619 66.752 52.6098 66.752 54.8069V54.76C66.7561 56.2221 66.4681 57.671 65.9043 59.0233C65.3405 60.3756 64.512 61.605 63.4663 62.6411C62.4205 63.6772 61.1779 64.4999 59.8096 65.0618C58.4413 65.6237 56.9743 65.914 55.4921 65.9162C53.2652 65.9162 51.0881 65.2646 49.2365 64.0438C47.3848 62.8232 45.9416 61.0881 45.0893 59.0583C44.2371 57.0283 44.0141 54.7946 44.4487 52.6397C44.8831 50.4847 45.9555 48.5053 47.5301 46.9516C49.1049 45.398 51.1112 44.3399 53.2955 43.9112C55.4796 43.4826 57.7436 43.7026 59.8011 44.5435C61.8585 45.3843 63.6171 46.8082 64.8544 48.6351ZM36.7521 51.1091H29.2561V43.6664H36.7521V51.1091ZM36.7521 40.0157H29.2561V32.573H36.7521V40.0157ZM60.5895 57.3768C60.6019 56.7403 60.4718 56.109 60.2083 55.5279C59.9838 55.0883 59.6573 54.7072 59.2555 54.4154C58.5763 53.9721 57.8711 53.5692 57.1433 53.2089C56.377 52.855 55.6437 52.4356 54.9517 51.9553C54.809 51.809 54.701 51.6335 54.635 51.4411C54.5691 51.2488 54.5471 51.0446 54.5705 50.8428C54.5509 50.5834 54.6178 50.3248 54.7611 50.1064C54.8266 50.0248 54.9118 49.9605 55.0089 49.9194C55.1059 49.8785 55.2118 49.8619 55.317 49.8714C55.4343 49.8566 55.5535 49.8753 55.6605 49.9254C55.7674 49.9753 55.8577 50.0544 55.9205 50.1535C56.0379 50.5336 56.081 50.9325 56.0475 51.3286V51.8926H60.1607V51.2659C60.1829 50.8262 60.1109 50.3869 59.9494 49.9766C59.7879 49.5663 59.5407 49.1941 59.2238 48.8843C58.4282 48.2386 57.4419 47.8647 56.4127 47.8188V46.7219H54.5229V47.8188C53.4077 47.8584 52.3319 48.2358 51.4419 48.8999C51.0951 49.1948 50.8215 49.5643 50.6426 49.9799C50.4637 50.3956 50.3839 50.8464 50.4097 51.2973C50.395 51.9618 50.5653 52.6175 50.9019 53.1932C51.1746 53.7091 51.5662 54.1545 52.0454 54.4937C52.8639 55.0261 53.7123 55.5126 54.5865 55.9509C55.131 56.1572 55.5895 56.5379 55.8887 57.032C56.0427 57.5665 56.1071 58.1222 56.0793 58.6773C56.0991 58.9243 56.0257 59.1699 55.8727 59.3667C55.7949 59.4503 55.6985 59.5151 55.591 59.5558C55.4835 59.5966 55.3681 59.6123 55.2534 59.6017C55.1287 59.6153 55.0029 59.5892 54.8942 59.5272C54.7857 59.4652 54.7001 59.3705 54.6499 59.257C54.5355 58.6952 54.4927 58.1215 54.5229 57.5491V56.7187H50.4731V57.3768C50.4186 57.9553 50.499 58.5385 50.7082 59.0817C50.9174 59.6249 51.2499 60.1136 51.6801 60.5105C52.5089 61.1079 53.4975 61.4512 54.5229 61.4976V62.8295H56.381V61.5447C57.5582 61.4771 58.6775 61.0188 59.5573 60.2441C59.9138 59.8577 60.1886 59.4053 60.3659 58.9129C60.5431 58.4206 60.6191 57.8984 60.5895 57.3768Z" fill="url(#paint0_linear_720_18808)"/>
<defs>
<linearGradient id="paint0_linear_720_18808" x1="12.1605" y1="10.3704" x2="74.8694" y2="34.7645" gradientUnits="userSpaceOnUse">
<stop stop-color="#002D85"/>
<stop offset="1" stop-color="#DE0000"/>
</linearGradient>
</defs>
</svg>
