<svg width="81" height="80" viewBox="0 0 81 80" fill="none" xmlns="http://www.w3.org/2000/svg">
<path fill-rule="evenodd" clip-rule="evenodd" d="M38.5432 56.6694C38.696 56.5167 38.9023 56.4294 39.1184 56.4262C39.3354 56.4262 39.5437 56.5124 39.6971 56.6659C39.8507 56.8195 39.9369 57.0276 39.9369 57.2448V60.5188C39.9336 61.6064 39.5001 62.6487 38.731 63.4178C37.9619 64.187 36.9196 64.6205 35.832 64.6237H14.5009C13.4132 64.6205 12.371 64.187 11.6019 63.4178C10.8328 62.6487 10.3992 61.6064 10.396 60.5188V19.4814C10.396 18.3927 10.8285 17.3486 11.5983 16.5788C12.3681 15.809 13.4122 15.3765 14.5009 15.3765H35.832C36.9207 15.3765 37.9647 15.809 38.7346 16.5788C39.5044 17.3486 39.9369 18.3927 39.9369 19.4814V22.6935C39.9369 22.9106 39.8507 23.1188 39.6971 23.2723C39.5437 23.4258 39.3354 23.512 39.1184 23.512C38.9013 23.512 38.6931 23.4258 38.5396 23.2723C38.3861 23.1188 38.2999 22.9106 38.2999 22.6935V21.937H12.033V58.0509H38.2999V57.2448C38.3031 57.0286 38.3903 56.8223 38.5432 56.6694ZM35.832 17.0135H14.5009C13.8474 17.0167 13.2216 17.2778 12.7594 17.7399C12.2973 18.2021 12.0363 18.8279 12.033 19.4814V20.3372H38.3123V19.4938C38.3123 18.836 38.0509 18.2051 37.5858 17.74C37.1206 17.2748 36.4898 17.0135 35.832 17.0135ZM14.5009 62.9743H35.832C36.4876 62.971 37.1153 62.7082 37.5777 62.2435C38.0402 61.7787 38.2999 61.1496 38.2999 60.494V59.663H12.0206V60.494C12.0206 61.1518 12.2819 61.7827 12.7471 62.2478C13.2122 62.7129 13.8431 62.9743 14.5009 62.9743ZM27.6344 19.4814H25.9849V19.4938C25.7679 19.4938 25.5596 19.4076 25.4062 19.2541C25.2527 19.1006 25.1664 18.8924 25.1664 18.6753C25.1664 18.4582 25.2527 18.2501 25.4062 18.0965C25.5596 17.943 25.7679 17.8568 25.9849 17.8568H27.6344C27.7495 17.8426 27.8663 17.8529 27.977 17.8872C28.0879 17.9216 28.1901 17.979 28.277 18.0558C28.3639 18.1326 28.4335 18.227 28.4811 18.3328C28.5288 18.4385 28.5534 18.5531 28.5534 18.6691C28.5534 18.7851 28.5288 18.8998 28.4811 19.0055C28.4335 19.1112 28.3639 19.2056 28.277 19.2824C28.1901 19.3592 28.0879 19.4167 27.977 19.451C27.8663 19.4853 27.7495 19.4957 27.6344 19.4814ZM23.5294 60.5188H26.8159C27.0329 60.5188 27.2412 60.6051 27.3946 60.7585C27.5481 60.912 27.6344 61.1202 27.6344 61.3373C27.6344 61.5543 27.5481 61.7626 27.3946 61.916C27.2412 62.0696 27.0329 62.1558 26.8159 62.1558H23.5294C23.3123 62.1558 23.1042 62.0696 22.9506 61.916C22.7971 61.7626 22.7108 61.5543 22.7108 61.3373C22.7108 61.1202 22.7971 60.912 22.9506 60.7585C23.1042 60.6051 23.3123 60.5188 23.5294 60.5188ZM23.5294 19.4814H22.7108C22.4938 19.4814 22.2856 19.3952 22.1321 19.2417C21.9786 19.0882 21.8924 18.88 21.8924 18.6629C21.8924 18.4458 21.9786 18.2376 22.1321 18.0841C22.2856 17.9306 22.4938 17.8444 22.7108 17.8444H23.5294C23.7465 17.8444 23.9547 17.9306 24.1082 18.0841C24.2617 18.2376 24.3479 18.4458 24.3479 18.6629C24.3479 18.88 24.2617 19.0882 24.1082 19.2417C23.9547 19.3952 23.7465 19.4814 23.5294 19.4814ZM15.3567 25.211V27.6913H13.6824V23.5864H17.837V25.211H15.3567ZM13.6824 56.4138V52.3089L15.3567 52.284V54.7643H17.837V56.4138H13.6824ZM59.4199 50.1011H68.9569C69.1483 50.0994 69.3383 50.1363 69.5153 50.2095C69.6921 50.2828 69.8526 50.3909 69.9868 50.5275C70.1211 50.6641 70.2264 50.8263 70.2966 51.0044C70.3669 51.1826 70.4005 51.3731 70.3955 51.5645V60.5558C70.3938 60.7431 70.3553 60.9282 70.2822 61.1007C70.209 61.273 70.1026 61.4294 69.969 61.5606C69.8354 61.692 69.6772 61.7956 69.5035 61.8659C69.33 61.936 69.1442 61.9713 68.9569 61.9696H57.3985C57.2101 61.9729 57.023 61.9389 56.8479 61.8694C56.6728 61.8 56.5132 61.6966 56.3783 61.5651C56.2433 61.4337 56.1359 61.2768 56.0619 61.1035C55.9879 60.9304 55.9491 60.7441 55.9474 60.5558V51.515C55.9491 51.3266 55.9879 51.1405 56.0619 50.9672C56.1359 50.794 56.2433 50.6371 56.3783 50.5056C56.5132 50.3742 56.6728 50.2708 56.8479 50.2014C57.023 50.1319 57.2101 50.0979 57.3985 50.1011H57.7085V45.9218C57.7756 44.5115 58.383 43.1811 59.4048 42.2067C60.4266 41.2324 61.7843 40.6888 63.1963 40.6888C64.6082 40.6888 65.9658 41.2324 66.9877 42.2067C68.0095 43.1811 68.617 44.5115 68.684 45.9218V47.6208C68.684 47.8527 68.5919 48.0751 68.428 48.239C68.2639 48.403 68.0416 48.4951 67.8097 48.4951C67.5778 48.4951 67.3554 48.403 67.1914 48.239C67.0275 48.0751 66.9354 47.8527 66.9354 47.6208V45.9218C66.9354 44.9251 66.5395 43.9694 65.8347 43.2646C65.1301 42.56 64.1742 42.164 63.1777 42.164C62.181 42.164 61.2252 42.56 60.5205 43.2646C59.8158 43.9694 59.4199 44.9251 59.4199 45.9218V50.1011ZM63.9962 58.8568V56.3764C64.2611 56.2234 64.4809 56.0031 64.6333 55.7379C64.7857 55.4726 64.8653 55.1717 64.864 54.8659C64.8628 54.5599 64.7807 54.2597 64.6261 53.9957C64.4716 53.7316 64.25 53.5132 63.9838 53.3624C63.7177 53.2115 63.4164 53.1337 63.1104 53.1367C62.8045 53.1398 62.5049 53.2237 62.2418 53.3798C61.9787 53.536 61.7614 53.7589 61.6122 54.0259C61.463 54.2929 61.3869 54.5948 61.3918 54.9007C61.3929 55.2014 61.4738 55.4966 61.6264 55.7559C61.7788 56.0152 61.9975 56.2294 62.2599 56.3764V58.8568H63.9962ZM27.5225 40.6438C27.6368 40.5978 27.7591 40.575 27.8823 40.5766H44.9595C45.0832 40.575 45.2061 40.5977 45.3212 40.6436C45.4362 40.6894 45.5409 40.7575 45.6297 40.8438C45.7183 40.9303 45.7891 41.0333 45.8379 41.147C45.8869 41.2607 45.9128 41.3829 45.9144 41.5067V47.0627C45.908 47.3117 45.8046 47.5483 45.6262 47.7221C45.4478 47.8957 45.2086 47.9929 44.9595 47.9929H27.8823C27.6345 47.9929 27.3966 47.8953 27.2202 47.7212C27.0438 47.5472 26.9431 47.3106 26.9398 47.0627V41.5067C26.9398 41.3836 26.9642 41.2616 27.0118 41.148C27.0593 41.0343 27.1289 40.9312 27.2166 40.8446C27.3043 40.758 27.4083 40.6899 27.5225 40.6438ZM28.8372 46.1326H44.0046L44.017 42.4121H28.8372V46.1326ZM47.8119 43.3546H49.6969L49.7093 41.5067H47.8119V43.3546ZM51.5944 41.5067V43.3546H53.4919V41.5067H51.5944ZM49.7093 45.2149H47.7995L47.8119 47.0627H49.7093V45.2149ZM27.8823 52.6559H53.4919L53.5043 52.6311C53.6347 52.616 53.7666 52.6286 53.8917 52.6681C54.0168 52.7076 54.1322 52.7732 54.2301 52.8605C54.3282 52.9477 54.4065 53.0548 54.4603 53.1744C54.5139 53.2941 54.5417 53.4239 54.5417 53.555C54.5417 53.6862 54.5139 53.8159 54.4603 53.9356C54.4065 54.0554 54.3282 54.1624 54.2301 54.2496C54.1322 54.3368 54.0168 54.4024 53.8917 54.4419C53.7666 54.4815 53.6347 54.4941 53.5043 54.479H27.8823C26.6411 54.4922 25.4453 54.0127 24.5572 53.1455C23.6691 52.2783 23.1612 51.0943 23.1449 49.8531V29.4151C23.1612 28.1739 23.6691 26.9899 24.5572 26.1227C25.4453 25.2555 26.6411 24.776 27.8823 24.7892H63.9341C64.5498 24.781 65.161 24.8942 65.7328 25.1222C66.3048 25.3503 66.8261 25.6887 67.2673 26.1183C67.7083 26.5478 68.0605 27.0601 68.3036 27.6258C68.5466 28.1915 68.676 28.7994 68.684 29.4151V40.5766C68.6775 40.8256 68.5741 41.0622 68.3957 41.2359C68.2173 41.4096 67.9781 41.5068 67.7291 41.5067C67.4812 41.5068 67.2433 41.4092 67.067 41.2351C66.8906 41.061 66.7898 40.8245 66.7865 40.5766V38.7164H25.0423V49.8779C25.0521 50.6224 25.3564 51.3326 25.8887 51.8534C26.4209 52.374 27.1378 52.6625 27.8823 52.6559ZM25.8887 27.4645C25.3564 27.9851 25.0521 28.6954 25.0423 29.4398V31.3002H66.7865V29.4398C66.7735 28.6942 66.4664 27.984 65.9322 27.4637C65.398 26.9434 64.6798 26.6553 63.9341 26.6618H27.8823C27.1378 26.6553 26.4209 26.9439 25.8887 27.4645ZM66.7865 33.1604H25.0423V36.8809H66.7865V33.1604Z" fill="url(#paint0_linear_808_17617)"/>
<defs>
<linearGradient id="paint0_linear_808_17617" x1="69.3228" y1="63.5556" x2="69.3228" y2="15.3765" gradientUnits="userSpaceOnUse">
<stop stop-color="#002D85"/>
<stop offset="1" stop-color="#013AA9"/>
</linearGradient>
</defs>
</svg>
