<svg width="81" height="80" viewBox="0 0 81 80" fill="none" xmlns="http://www.w3.org/2000/svg">
<path fill-rule="evenodd" clip-rule="evenodd" d="M36.6957 54.7603H14.4619C14.4133 54.7624 14.3648 54.7546 14.3194 54.7373C14.2741 54.72 14.2329 54.6935 14.1986 54.6596C14.1642 54.6257 14.1373 54.5851 14.1198 54.5403C14.1022 54.4956 14.0943 54.4478 14.0966 54.3998V28.8754H55.3881V36.2711H59.152V21.8401C59.1582 21.31 59.0584 20.7839 58.8581 20.2919C58.6577 19.7999 58.3609 19.3519 57.9846 18.9734C57.6084 18.5949 57.1601 18.2934 56.6654 18.0862C56.1708 17.8791 55.6396 17.7703 55.1022 17.7663H53.5141V19.6152C53.5141 20.5959 53.1192 21.5365 52.4164 22.2299C51.7134 22.9234 50.7601 23.313 49.7661 23.313C48.7721 23.313 47.8188 22.9234 47.1158 22.2299C46.413 21.5365 46.0181 20.5959 46.0181 19.6152V17.7663H23.546V19.6152C23.546 20.1008 23.449 20.5816 23.2606 21.0303C23.0724 21.4789 22.7962 21.8866 22.4482 22.2299C22.1002 22.5733 21.687 22.8457 21.2322 23.0315C20.7776 23.2174 20.2902 23.313 19.798 23.313C19.3058 23.313 18.8184 23.2174 18.3637 23.0315C17.909 22.8457 17.4958 22.5733 17.1478 22.2299C16.7997 21.8866 16.5237 21.4789 16.3353 21.0303C16.1469 20.5816 16.05 20.1008 16.05 19.6152V17.7663H14.4619C13.9232 17.7683 13.3902 17.8755 12.8938 18.0817C12.3973 18.288 11.9471 18.5891 11.5691 18.9678C11.1912 19.3466 10.893 19.7953 10.6917 20.2883C10.4904 20.7813 10.39 21.3087 10.3962 21.8401V54.3998C10.3921 54.93 10.494 55.4557 10.6963 55.9469C10.8985 56.438 11.1971 56.8849 11.5748 57.2619C11.9525 57.6391 12.402 57.9388 12.8975 58.144C13.3929 58.3493 13.9245 58.4559 14.4619 58.458H36.6957V54.7603ZM47.8921 32.5732V39.9689H40.3961V32.5732H47.8921ZM50.4978 21.3371C50.265 21.4272 50.0162 21.4704 49.7661 21.4641C49.2774 21.4518 48.8129 21.2516 48.4717 20.9062C48.1305 20.5608 47.9396 20.0975 47.9397 19.6152V12.2195C47.9397 11.7292 48.1372 11.2589 48.4886 10.9121C48.8401 10.5654 49.3168 10.3706 49.8137 10.3706C50.3108 10.3706 50.7874 10.5654 51.1389 10.9121C51.4904 11.2589 51.6877 11.7292 51.6877 12.2195V19.6152C51.6878 19.862 51.6378 20.1063 51.5406 20.3337C51.4436 20.5612 51.3012 20.7671 51.1221 20.9395C50.943 21.1118 50.7308 21.247 50.4978 21.3371ZM20.4858 21.3276C20.2576 21.4198 20.0129 21.4662 19.7662 21.4641C19.2692 21.4641 18.7925 21.2693 18.4412 20.9226C18.0897 20.5758 17.8922 20.1055 17.8922 19.6152V12.2195C17.8922 11.7292 18.0897 11.2589 18.4412 10.9121C18.7925 10.5654 19.2692 10.3706 19.7662 10.3706C20.2633 10.3706 20.74 10.5654 21.0913 10.9121C21.4428 11.2589 21.6402 11.7292 21.6402 12.2195V19.6152C21.6424 19.8586 21.5953 20.0999 21.502 20.3252C21.4085 20.5504 21.2705 20.7551 21.0961 20.9272C20.9217 21.0993 20.7142 21.2354 20.4858 21.3276ZM17.8922 32.5732H25.3882V39.9689H17.8922V32.5732ZM25.3882 43.6667V51.1094H17.8922V43.6667H25.3882ZM67.8744 63.0377C69.5216 60.6007 70.3992 57.7364 70.396 54.8071V54.7603C70.3792 50.844 68.7906 47.0938 65.9778 44.3306C63.1652 41.5673 59.3574 40.0159 55.3881 40.0159C52.4192 40.0159 49.5169 40.8848 47.0485 42.5124C44.5801 44.1401 42.6565 46.4536 41.5212 49.1601C40.3857 51.8667 40.0894 54.8447 40.6698 57.7173C41.2501 60.59 42.681 63.2284 44.7816 65.2985C46.882 67.3686 49.5577 68.7777 52.47 69.3473C55.3822 69.9168 58.4004 69.6213 61.1424 68.4983C63.8844 67.3751 66.2273 65.4749 67.8744 63.0377ZM64.7504 48.6354C65.9876 50.4621 66.648 52.6101 66.648 54.8071V54.7603C66.6521 56.2224 66.3641 57.6712 65.8002 59.0235C65.2365 60.3758 64.408 61.6052 63.3622 62.6413C62.3165 63.6775 61.0738 64.5001 59.7056 65.062C58.3373 65.6239 56.8702 65.9143 55.3881 65.9164C53.1612 65.9164 50.9841 65.2648 49.1325 64.0441C47.2808 62.8235 45.8376 61.0884 44.9853 59.0585C44.133 57.0286 43.9101 54.7949 44.3446 52.64C44.779 50.4849 45.8514 48.5055 47.4261 46.9519C49.0009 45.3982 51.0072 44.3401 53.1914 43.9115C55.3756 43.4828 57.6396 43.7029 59.697 44.5437C61.7545 45.3845 63.513 46.8085 64.7504 48.6354ZM36.6481 51.1094H29.1521V43.6667H36.6481V51.1094ZM36.6481 40.0159H29.1521V32.5732H36.6481V40.0159ZM60.4855 57.377C60.4979 56.7406 60.3678 56.1093 60.1043 55.5281C59.8798 55.0885 59.5532 54.7074 59.1515 54.4156C58.4723 53.9724 57.7671 53.5694 57.0392 53.2091C56.273 52.8553 55.5396 52.4358 54.8476 51.9556C54.705 51.8093 54.597 51.6337 54.531 51.4413C54.4651 51.2491 54.4431 51.0448 54.4664 50.8431C54.4468 50.5837 54.5138 50.325 54.6571 50.1067C54.7226 50.025 54.8078 49.9608 54.9048 49.9197C55.0019 49.8787 55.1078 49.8621 55.213 49.8716C55.3303 49.8569 55.4495 49.8756 55.5564 49.9256C55.6634 49.9755 55.7536 50.0547 55.8164 50.1537C55.9339 50.5339 55.977 50.9328 55.9435 51.3289V51.8929H60.0567V51.2662C60.0788 50.8265 60.0068 50.3872 59.8454 49.9768C59.6839 49.5665 59.4367 49.1944 59.1198 48.8845C58.3242 48.2388 57.3379 47.865 56.3087 47.819V46.7222H54.4188V47.819C53.3036 47.8587 52.2279 48.2361 51.3379 48.9002C50.9911 49.195 50.7175 49.5645 50.5386 49.9801C50.3596 50.3959 50.2799 50.8466 50.3056 51.2975C50.291 51.962 50.4612 52.6177 50.7979 53.1934C51.0706 53.7094 51.4622 54.1548 51.9414 54.494C52.7599 55.0264 53.6083 55.5128 54.4824 55.9511C55.027 56.1574 55.4855 56.5382 55.7847 57.0322C55.9387 57.5668 56.0031 58.1225 55.9752 58.6775C55.9951 58.9246 55.9216 59.1702 55.7687 59.3669C55.6908 59.4506 55.5944 59.5153 55.487 59.556C55.3795 59.5969 55.264 59.6125 55.1494 59.602C55.0247 59.6156 54.8988 59.5895 54.7902 59.5275C54.6816 59.4654 54.596 59.3708 54.5459 59.2572C54.4315 58.6955 54.3887 58.1217 54.4188 57.5494V56.719H50.3691V57.377C50.3146 57.9555 50.395 58.5388 50.6042 59.082C50.8134 59.6252 51.1459 60.1139 51.576 60.5108C52.4048 61.1081 53.3935 61.4514 54.4188 61.4979V62.8298H56.277V61.5449C57.4542 61.4774 58.5735 61.0191 59.4532 60.2444C59.8098 59.858 60.0846 59.4055 60.2619 58.9131C60.4391 58.4209 60.5151 57.8986 60.4855 57.377Z" fill="url(#paint0_linear_808_17621)"/>
<defs>
<linearGradient id="paint0_linear_808_17621" x1="69.3228" y1="68.3445" x2="69.3228" y2="10.3706" gradientUnits="userSpaceOnUse">
<stop stop-color="#002D85"/>
<stop offset="1" stop-color="#013AA9"/>
</linearGradient>
</defs>
</svg>
