<svg width="81" height="80" viewBox="0 0 81 80" fill="none" xmlns="http://www.w3.org/2000/svg">
<path fill-rule="evenodd" clip-rule="evenodd" d="M16.4167 50.3278H45.9057C46.582 50.3278 47.1231 50.8688 47.1231 51.5452C47.1231 52.0863 46.582 52.6274 46.0409 52.6274H16.4167C13.3055 52.6274 10.8706 50.0572 10.8706 47.0813V23.0031C10.8706 19.8919 13.4408 17.457 16.4167 17.457H58.08C61.1912 17.457 63.6261 20.0272 63.6261 23.0031V25.1674V27.3318V31.7957V33.96V36.1244C63.6261 36.6654 63.085 37.2065 62.5439 37.2065C62.0029 37.2065 61.4618 36.6654 61.4618 36.1244V33.96H13.1702V47.0813C13.1702 48.8398 14.6582 50.3278 16.4167 50.3278ZM16.2814 19.6214C14.5229 19.6214 13.0349 21.1093 13.0349 22.8679H12.8997V25.0322H61.1912V22.8679C61.1912 21.1093 59.7033 19.6214 57.9447 19.6214H16.2814ZM61.3265 27.3318H13.0349V31.6604H61.3265V27.3318ZM36.0306 36.1244H16.4164C15.8753 36.1244 15.3343 36.6655 15.3343 37.2066V43.8348C15.3343 44.3759 15.8753 44.917 16.4164 44.917H36.1659C36.707 44.917 37.2481 44.3759 37.2481 43.8348V37.2066C37.2481 36.5302 36.707 36.1244 36.0306 36.1244ZM34.9485 42.6174H17.3633V38.2888H34.9485V42.6174ZM41.5771 37.2067H39.4128V39.371H41.5771V37.2067ZM43.7411 37.2067H45.9054V39.371H43.7411V37.2067ZM41.5771 41.5352H39.4128V43.6996H41.5771V41.5352ZM61.7323 48.434C62.2734 48.434 62.8145 48.2987 63.2203 47.8929C63.6261 47.4871 63.8966 47.0813 63.8966 46.4049C63.8966 45.8639 63.6261 45.3228 63.2203 44.917C62.8145 44.5112 62.2734 44.3759 61.7323 44.3759C61.1912 44.3759 60.6501 44.5112 60.2443 44.917C59.8385 45.3228 59.568 45.7286 59.568 46.4049C59.568 46.946 59.8385 47.4871 60.2443 47.8929C60.6501 48.1635 61.1912 48.434 61.7323 48.434ZM49.8282 50.5983C50.0988 45.1875 54.4274 40.8589 59.8383 40.7236C65.6549 40.5883 70.3894 45.1875 70.1188 50.8689C70.1188 55.3328 67.2781 59.2556 63.22 60.6084C62.7446 60.7668 62.362 60.9253 62.045 61.0566C61.8209 61.1494 61.6296 61.2287 61.4615 61.2847C61.0557 61.42 60.5146 61.5552 59.9735 61.5552C59.1619 61.5552 58.4856 61.2847 57.9445 60.8789C57.5387 60.4731 57.2681 59.932 57.2681 59.2556V58.444C57.2681 58.1735 57.2681 57.7677 57.4034 57.4971L58.3503 54.2506C58.4856 53.9801 58.6208 53.7096 58.6208 53.439C58.7561 53.1685 58.7561 52.8979 58.7561 52.6274C58.7561 52.2216 58.6208 51.951 58.4856 51.8158C58.3503 51.6805 58.0797 51.5452 57.5387 51.5452C57.4034 51.5452 57.1329 51.5452 56.8623 51.6805L56.8623 51.6805C56.5917 51.8158 56.3212 51.951 56.186 51.951L56.4565 51.0041C56.6583 50.9234 56.8481 50.8427 57.0295 50.7655C57.4558 50.5842 57.8354 50.4227 58.215 50.3278C58.3079 50.3046 58.3967 50.2814 58.483 50.2588C58.8993 50.1501 59.2548 50.0573 59.703 50.0573C60.6499 50.0573 61.3262 50.3278 61.732 50.7336C62.1379 51.1394 62.4084 51.6805 62.4084 52.3569V53.0332C62.4084 53.3037 62.4084 53.7096 62.2731 53.9801L61.3262 57.2266C61.3262 57.3619 61.2924 57.5309 61.2586 57.7C61.2248 57.8691 61.191 58.0382 61.191 58.1735C61.0557 58.5793 61.0557 58.8498 61.0557 58.9851C61.0557 59.3909 61.191 59.6615 61.3262 59.7967C61.4615 59.932 61.8673 60.0673 62.2731 60.0673C62.5437 60.0673 62.8142 60.0673 63.0847 59.932C63.2432 59.932 63.3553 59.8856 63.4481 59.8471C63.5138 59.8199 63.5698 59.7967 63.6258 59.7967C66.7371 58.7146 69.5777 55.1975 69.5777 51.0041C69.5777 45.7286 65.3844 41.3999 60.1088 41.3999C54.9685 41.3999 50.7751 45.4581 50.5046 50.5983C50.3693 53.7096 51.722 56.5502 54.0216 58.444C54.0216 58.444 54.1569 58.5793 54.0216 58.7146L53.8864 58.9851C53.8864 58.9851 53.7511 59.1204 53.6158 58.9851C51.0457 56.9561 49.693 53.8448 49.8282 50.5983Z" fill="url(#paint0_linear_720_19025)"/>
<defs>
<linearGradient id="paint0_linear_720_19025" x1="12.5106" y1="17.457" x2="68.8105" y2="46.5243" gradientUnits="userSpaceOnUse">
<stop stop-color="#002D85"/>
<stop offset="1" stop-color="#DE0000"/>
</linearGradient>
</defs>
</svg>
