<svg width="81" height="80" viewBox="0 0 81 80" fill="none" xmlns="http://www.w3.org/2000/svg">
<g clip-path="url(#clip0_808_17644)">
<path fill-rule="evenodd" clip-rule="evenodd" d="M16.0114 50.9569H45.8689C46.5538 50.9569 47.1016 51.5048 47.1016 52.1896C47.1016 52.7374 46.5538 53.2853 46.0059 53.2853H16.0114C12.8612 53.2853 10.3959 50.683 10.3959 47.6699V23.2907C10.3959 20.1406 12.9982 17.6753 16.0114 17.6753H58.1955C61.3456 17.6753 63.8109 20.2776 63.8109 23.2907V25.4821V27.6735V32.1932V34.3846V36.576C63.8109 37.1238 63.2631 37.6717 62.7152 37.6717C62.1674 37.6717 61.6195 37.1238 61.6195 36.576V34.3846H12.7243V47.6699C12.7243 49.4504 14.2309 50.9569 16.0114 50.9569ZM15.8744 19.8667C14.0939 19.8667 12.5873 21.3733 12.5873 23.1538H12.4503V25.3451H61.3456V23.1538C61.3456 21.3733 59.839 19.8667 58.0585 19.8667H15.8744ZM61.4826 27.6735H12.5873V32.0562H61.4826V27.6735ZM35.8707 36.5761H16.0113C15.4635 36.5761 14.9156 37.124 14.9156 37.6718V44.3829C14.9156 44.9308 15.4635 45.4786 16.0113 45.4786H36.0077C36.5555 45.4786 37.1034 44.9308 37.1034 44.3829V37.6718C37.1034 36.987 36.5555 36.5761 35.8707 36.5761ZM34.775 43.1503H16.9701V38.7675H34.775V43.1503ZM41.4855 37.6718H39.2941V39.8631H41.4855V37.6718ZM43.6774 37.6718H45.8688V39.8631H43.6774V37.6718ZM41.4855 42.0544H39.2941V44.2458H41.4855V42.0544ZM61.8933 49.0395C62.4411 49.0395 62.989 48.9025 63.3998 48.4916C63.8107 48.0807 64.0846 47.6698 64.0846 46.985C64.0846 46.4372 63.8107 45.8893 63.3998 45.4785C62.989 45.0676 62.4411 44.9306 61.8933 44.9306C61.3454 44.9306 60.7976 45.0676 60.3867 45.4785C59.9758 45.8893 59.7019 46.3002 59.7019 46.985C59.7019 47.5329 59.9758 48.0807 60.3867 48.4916C60.7976 48.7655 61.3454 49.0395 61.8933 49.0395ZM49.8409 51.2308C50.1148 45.7524 54.4976 41.3696 59.976 41.2326C65.8654 41.0957 70.659 45.7524 70.3851 51.5047C70.3851 56.0245 67.5089 59.9964 63.4001 61.366C62.9187 61.5264 62.5313 61.6869 62.2104 61.8198C61.9835 61.9138 61.7898 61.994 61.6196 62.0508C61.2087 62.1877 60.6609 62.3247 60.113 62.3247C59.2912 62.3247 58.6064 62.0508 58.0586 61.6399C57.6477 61.229 57.3738 60.6812 57.3738 59.9964V59.1746C57.3738 58.9007 57.3738 58.4898 57.5107 58.2159L58.4695 54.9288C58.6064 54.6549 58.7434 54.3809 58.7434 54.107C58.8804 53.8331 58.8804 53.5592 58.8804 53.2852C58.8804 52.8744 58.7434 52.6004 58.6064 52.4635C58.4695 52.3265 58.1955 52.1895 57.6477 52.1895C57.5107 52.1895 57.2368 52.1896 56.9629 52.3265C56.689 52.4635 56.4151 52.6004 56.2781 52.6004L56.552 51.6417C56.7564 51.56 56.9486 51.4782 57.1322 51.4001C57.5638 51.2165 57.9482 51.053 58.3325 50.9569C58.4265 50.9334 58.5165 50.9099 58.6038 50.8871C59.0254 50.777 59.3852 50.683 59.8391 50.683C60.7978 50.683 61.4826 50.9569 61.8935 51.3678C62.3044 51.7787 62.5783 52.3265 62.5783 53.0113V53.6961C62.5783 53.9701 62.5783 54.3809 62.4414 54.6549L61.4826 57.9419C61.4826 58.0789 61.4484 58.2501 61.4141 58.4213C61.3799 58.5925 61.3457 58.7637 61.3457 58.9007C61.2087 59.3115 61.2087 59.5855 61.2087 59.7224C61.2087 60.1333 61.3457 60.4072 61.4826 60.5442C61.6196 60.6812 62.0305 60.8181 62.4414 60.8181C62.7153 60.8181 62.9892 60.8181 63.2631 60.6812C63.4236 60.6812 63.537 60.6342 63.631 60.5952C63.6975 60.5677 63.7542 60.5442 63.811 60.5442C66.9611 59.4485 69.8373 55.8875 69.8373 51.6417C69.8373 46.3002 65.5915 41.9174 60.25 41.9174C55.0454 41.9174 50.7996 46.0263 50.5257 51.2308C50.3887 54.3809 51.7584 57.2571 54.0867 59.1746C54.0867 59.1746 54.2237 59.3115 54.0867 59.4485L53.9497 59.7224C53.9497 59.7224 53.8128 59.8594 53.6758 59.7224C51.0736 57.668 49.7039 54.5179 49.8409 51.2308Z" fill="url(#paint0_linear_808_17644)"/>
</g>
<defs>
<linearGradient id="paint0_linear_808_17644" x1="69.3232" y1="61.3563" x2="69.3232" y2="17.6753" gradientUnits="userSpaceOnUse">
<stop stop-color="#002D85"/>
<stop offset="1" stop-color="#013AA9"/>
</linearGradient>
<clipPath id="clip0_808_17644">
<rect width="80" height="80" fill="white" transform="translate(0.395966)"/>
</clipPath>
</defs>
</svg>
