<svg width="81" height="80" viewBox="0 0 81 80" fill="none" xmlns="http://www.w3.org/2000/svg">
<path fill-rule="evenodd" clip-rule="evenodd" d="M45.2174 53.8529H15.8871C14.146 53.8529 12.6728 52.3797 12.6728 50.6386V37.6475H60.4853V39.7904C60.4853 40.3261 61.021 40.8618 61.5567 40.8618C62.0924 40.8618 62.6281 40.3261 62.6281 39.7904V37.6475V35.5047V31.219V28.8083V26.6654C62.6281 23.719 60.2174 21.1743 57.1371 21.1743H15.8871C12.9406 21.1743 10.396 23.585 10.396 26.6654V50.5047C10.396 53.4511 12.8067 55.9958 15.8871 55.9958H45.2174C45.7531 55.9958 46.2888 55.46 46.2888 54.9243C46.2888 54.2547 45.7531 53.8529 45.2174 53.8529ZM12.5388 26.6654C12.5388 24.9243 14.012 23.4511 15.7531 23.4511H57.0031C58.7442 23.4511 60.2174 24.9243 60.2174 26.6654V28.8083H12.5388V26.6654ZM12.5388 30.9511H60.3513V35.2368H12.5388V30.9511ZM15.8874 39.6565H35.441C35.9767 39.6565 36.5124 40.1922 36.5124 40.728V47.2905C36.5124 47.8262 35.9767 48.3619 35.441 48.3619H15.8874C15.3517 48.3619 14.816 47.8262 14.816 47.2905V40.728C14.816 40.1922 15.3517 39.6565 15.8874 39.6565ZM16.8249 46.219H34.2356V41.9333H16.8249V46.219ZM38.655 40.7277H40.7979V42.8706H38.655V40.7277ZM45.0839 40.7277H42.941V42.8706H45.0839V40.7277ZM38.655 45.1474H40.7979V47.2903H38.655V45.1474ZM43.3424 49.969L51.3781 58.0047C52.3156 59.0762 54.0567 59.0762 54.9942 58.1387L69.5924 43.5405C70.6638 42.469 70.6638 40.8619 69.5924 39.7905C68.521 38.719 66.9138 38.719 65.8424 39.7905L55.1281 50.5047C54.0567 51.5762 52.4495 51.5762 51.3781 50.5047L47.0924 46.219C46.021 45.1476 44.4138 45.1476 43.3424 46.219C42.271 47.2905 42.271 48.8976 43.3424 49.969Z" fill="url(#paint0_linear_808_17596)"/>
<defs>
<linearGradient id="paint0_linear_808_17596" x1="69.3228" y1="58.0091" x2="69.3228" y2="21.1743" gradientUnits="userSpaceOnUse">
<stop stop-color="#002D85"/>
<stop offset="1" stop-color="#013AA9"/>
</linearGradient>
</defs>
</svg>
