<svg width="80" height="80" viewBox="0 0 80 80" fill="none" xmlns="http://www.w3.org/2000/svg">
<path fill-rule="evenodd" clip-rule="evenodd" d="M17.5 54.0694H21.6705V58.5133C21.7378 59.5553 22.2123 60.5286 22.991 61.222C23.7697 61.9153 24.7897 62.2727 25.8295 62.2165H54.1705C55.2103 62.2727 56.2303 61.9153 57.009 61.222C57.7877 60.5286 58.2622 59.5553 58.3295 58.5133V54.0694H62.5C62.8142 54.0879 63.1288 54.0432 63.4255 53.938C63.7223 53.8328 63.9951 53.6694 64.2279 53.4571C64.4608 53.2449 64.649 52.9881 64.7816 52.7019C64.9142 52.4158 64.9884 52.1058 65 51.7906V44.441C64.962 43.8141 64.6773 43.228 64.2085 42.8113C63.7398 42.3947 63.1253 42.1817 62.5 42.2191H58.3295V37.7753C58.2622 36.7332 57.7877 35.7599 57.009 35.0665C56.2303 34.3732 55.2103 34.0159 54.1705 34.0721V30.3688C54.1705 23.4751 47.8295 17.7778 40 17.7778C32.1705 17.7778 25.8295 23.4751 25.8295 30.3688V34.0721C24.7897 34.0159 23.7697 34.3732 22.991 35.0665C22.2123 35.7599 21.7378 36.7332 21.6705 37.7753V42.2191H17.5C16.8747 42.1817 16.2602 42.3947 15.7915 42.8113C15.3227 43.228 15.038 43.8141 15 44.441V51.8475C15.038 52.4744 15.3227 53.0606 15.7915 53.4772C16.2602 53.8938 16.8747 54.1068 17.5 54.0694ZM56.6705 58.5133C56.6574 58.8281 56.5821 59.1372 56.449 59.4228C56.3159 59.7082 56.1276 59.9643 55.8951 60.1762C55.6626 60.3883 55.3904 60.5519 55.0943 60.6575C54.7983 60.7633 54.4843 60.809 54.1705 60.7923H25.8295C25.5157 60.809 25.2017 60.7633 24.9057 60.6575C24.6096 60.5519 24.3374 60.3883 24.1049 60.1762C23.8724 59.9643 23.6841 59.7082 23.551 59.4228C23.4179 59.1372 23.3426 58.8281 23.3295 58.5133V54.0694H56.6705V58.5133ZM27.5 30.3688C27.5 24.2385 33.0909 19.2591 40 19.2591C46.9091 19.2591 52.5 24.2385 52.5 30.3688V34.0721H49.1705V30.3688C49.1705 25.811 45.0682 22.2217 40 22.2217C34.9318 22.2217 30.8295 25.868 30.8295 30.3688V34.0721H27.5V30.3688ZM32.5 34.0721V30.3688C32.5 26.6884 35.9091 23.703 40 23.703C44.0909 23.703 47.5 26.6884 47.5 30.3688V34.0721H32.5ZM23.3295 37.7753C23.3426 37.4604 23.4179 37.1513 23.551 36.8658C23.6841 36.5804 23.8724 36.3242 24.1049 36.1123C24.3374 35.9003 24.6096 35.7366 24.9057 35.631C25.2017 35.5252 25.5157 35.4795 25.8295 35.4963H54.1705C54.4843 35.4795 54.7983 35.5252 55.0943 35.631C55.3904 35.7366 55.6626 35.9003 55.8951 36.1123C56.1276 36.3242 56.3159 36.5804 56.449 36.8658C56.5821 37.1513 56.6574 37.4604 56.6705 37.7753V42.2191H23.3295V37.7753ZM16.6705 44.441C16.6763 44.3377 16.7023 44.2366 16.7472 44.1435C16.7921 44.0502 16.8548 43.9669 16.9319 43.898C17.0089 43.8292 17.0988 43.7763 17.1963 43.7425C17.2938 43.7085 17.397 43.6943 17.5 43.7004H62.5C62.603 43.6943 62.7062 43.7085 62.8037 43.7425C62.9012 43.7763 62.991 43.8292 63.0681 43.898C63.1452 43.9669 63.2079 44.0502 63.2528 44.1435C63.2977 44.2366 63.3237 44.3377 63.3295 44.441V51.8475C63.3237 51.9508 63.2977 52.0519 63.2528 52.1451C63.2079 52.2383 63.1452 52.3217 63.0681 52.3905C62.991 52.4593 62.9012 52.5121 62.8037 52.5461C62.7062 52.58 62.603 52.5943 62.5 52.5881H17.5C17.397 52.5943 17.2938 52.58 17.1963 52.5461C17.0988 52.5121 17.0089 52.4593 16.9319 52.3905C16.8548 52.3217 16.7921 52.2383 16.7472 52.1451C16.7023 52.0519 16.6763 51.9508 16.6705 51.8475V44.441ZM18.4775 50.0357C18.607 50.2026 18.793 50.316 19.0002 50.3549C19.2154 50.3924 19.4369 50.3521 19.6252 50.2409L20.8297 49.523V50.3662C20.8443 50.5759 20.9408 50.7712 21.0983 50.9099C21.2558 51.0486 21.4614 51.1194 21.6706 51.1069C21.7737 51.1131 21.8769 51.0988 21.9743 51.0649C22.0719 51.0309 22.1617 50.9781 22.2388 50.9092C22.3158 50.8404 22.3786 50.757 22.4235 50.6639C22.4683 50.5707 22.4944 50.4695 22.5002 50.3662V49.523L23.7048 50.2409C23.8328 50.3078 23.9751 50.3427 24.1195 50.3427C24.2639 50.3427 24.4062 50.3078 24.5343 50.2409C24.6533 50.1959 24.7588 50.1209 24.8404 50.0231C24.922 49.9252 24.9771 49.808 25.0002 49.6826C25.007 49.548 24.9754 49.4143 24.9089 49.2972C24.8425 49.1801 24.7441 49.0845 24.6252 49.0217L23.1707 48.1556L24.6252 47.2897C24.7423 47.2248 24.8392 47.1288 24.9054 47.0121C24.9716 46.8956 25.0044 46.763 25.0002 46.6288C24.9841 46.494 24.9325 46.3659 24.8506 46.2577C24.7687 46.1495 24.6595 46.0653 24.5343 46.0135C24.4062 45.9467 24.2639 45.9117 24.1195 45.9117C23.9751 45.9117 23.8328 45.9467 23.7048 46.0135L22.5002 46.7313V45.9224C22.4944 45.819 22.4683 45.7179 22.4235 45.6248C22.3786 45.5315 22.3158 45.4482 22.2388 45.3793C22.1617 45.3105 22.0719 45.2577 21.9743 45.2238C21.8769 45.1898 21.7737 45.1756 21.6706 45.1817C21.4614 45.1692 21.2558 45.24 21.0983 45.3787C20.9408 45.5173 20.8443 45.7127 20.8297 45.9224V46.7655L19.6252 46.0477C19.4426 45.9401 19.2276 45.9016 19.0191 45.9392C18.8107 45.9769 18.6226 46.0881 18.4888 46.2528C18.4277 46.3321 18.3848 46.424 18.363 46.5219C18.3413 46.6196 18.3412 46.7211 18.3629 46.819C18.3846 46.9168 18.4275 47.0087 18.4885 47.0881C18.5495 47.1674 18.6272 47.2324 18.7161 47.2783L20.182 48.1443L18.7161 49.0103C18.6284 49.0595 18.5518 49.1264 18.4911 49.2068C18.4305 49.2873 18.3872 49.3794 18.3638 49.4774C18.3416 49.574 18.3413 49.6743 18.3629 49.7709C18.3846 49.8675 18.4276 49.9581 18.4888 50.0357H18.4775ZM28.167 50.3458C27.9592 50.3083 27.7712 50.1985 27.6361 50.0358C27.5791 49.9544 27.54 49.8619 27.5211 49.7643C27.5023 49.6667 27.5042 49.5663 27.5267 49.4695C27.5492 49.3727 27.5919 49.2818 27.6518 49.2026C27.7118 49.1235 27.7877 49.0579 27.8747 49.0102L29.3292 48.1443L27.8747 47.2783C27.7864 47.232 27.7091 47.1671 27.648 47.0881C27.587 47.009 27.5437 46.9177 27.521 46.8204C27.4984 46.723 27.4969 46.622 27.5168 46.524C27.5366 46.426 27.5773 46.3335 27.6361 46.2528C27.7712 46.09 27.9592 45.9803 28.167 45.9428C28.3748 45.9052 28.5892 45.9424 28.7724 46.0477L29.977 46.7655V45.9223C30.0009 45.7171 30.0992 45.5278 30.2531 45.3903C30.4071 45.2529 30.6061 45.177 30.8122 45.177C31.0183 45.177 31.2173 45.2529 31.3712 45.3903C31.5252 45.5278 31.6235 45.7171 31.6474 45.9223V46.6744L32.8406 45.9565C32.9707 45.8895 33.1148 45.8546 33.2611 45.8546C33.4073 45.8546 33.5514 45.8895 33.6815 45.9565C33.8067 46.0068 33.9155 46.0909 33.9958 46.1996C34.0761 46.3082 34.1246 46.4371 34.1361 46.5718C34.1454 46.7054 34.116 46.8389 34.0515 46.9561C33.987 47.0733 33.8901 47.1693 33.7724 47.2327L32.3065 48.0987L33.7724 48.9647C33.8895 49.0296 33.9865 49.1257 34.0526 49.2422C34.1188 49.3589 34.1516 49.4915 34.1474 49.6255C34.1314 49.7605 34.0797 49.8885 33.9978 49.9967C33.9159 50.1048 33.8067 50.1891 33.6815 50.2408C33.5537 50.3087 33.4113 50.3442 33.2667 50.3442C33.1221 50.3442 32.9798 50.3087 32.852 50.2408L31.6474 49.523V50.3662C31.6235 50.5715 31.5252 50.7608 31.3712 50.8982C31.2173 51.0356 31.0183 51.1116 30.8122 51.1116C30.6061 51.1116 30.4071 51.0356 30.2531 50.8982C30.0992 50.7608 30.0009 50.5715 29.977 50.3662V49.523L28.7724 50.2408C28.5892 50.3461 28.3748 50.3834 28.167 50.3458ZM45.9775 50.0358C46.107 50.2025 46.293 50.316 46.5002 50.3548C46.7154 50.3924 46.937 50.3521 47.1252 50.2408L48.3297 49.523V50.3662C48.3537 50.5715 48.4519 50.7608 48.6059 50.8982C48.7599 51.0356 48.9588 51.1116 49.165 51.1116C49.3711 51.1116 49.57 51.0356 49.724 50.8982C49.878 50.7608 49.9763 50.5715 50.0002 50.3662V49.523L51.2047 50.2408C51.3328 50.3078 51.4751 50.3427 51.6195 50.3427C51.7639 50.3427 51.9062 50.3078 52.0343 50.2408C52.1533 50.1959 52.2588 50.1208 52.3404 50.0231C52.422 49.9253 52.4771 49.808 52.5002 49.6825C52.507 49.548 52.4754 49.4143 52.4089 49.2972C52.3425 49.1801 52.244 49.0845 52.1252 49.0217L50.6707 48.1557L52.1252 47.2896C52.2423 47.2247 52.3392 47.1287 52.4054 47.0121C52.4716 46.8956 52.5044 46.7629 52.5002 46.6288C52.4841 46.494 52.4325 46.3659 52.3506 46.2577C52.2687 46.1495 52.1595 46.0652 52.0343 46.0135C51.9062 45.9466 51.7639 45.9117 51.6195 45.9117C51.4751 45.9117 51.3328 45.9466 51.2047 46.0135L50.0002 46.7313V45.9223C49.9763 45.7171 49.878 45.5278 49.724 45.3903C49.57 45.2529 49.3711 45.177 49.165 45.177C48.9588 45.177 48.7599 45.2529 48.6059 45.3903C48.4519 45.5278 48.3537 45.7171 48.3297 45.9223V46.7655L47.1252 46.0477C46.9426 45.9401 46.7276 45.9016 46.5191 45.9392C46.3107 45.9768 46.1226 46.0881 45.9888 46.2528C45.9277 46.3321 45.8848 46.424 45.863 46.5218C45.8413 46.6196 45.8412 46.721 45.8629 46.8189C45.8846 46.9168 45.9275 47.0086 45.9885 47.0881C46.0496 47.1674 46.1273 47.2324 46.2161 47.2783L47.682 48.1443L46.2161 49.0102C46.1284 49.0595 46.0518 49.1264 45.9911 49.2069C45.9305 49.2873 45.8872 49.3794 45.8638 49.4774C45.8416 49.574 45.8413 49.6742 45.8629 49.7708C45.8846 49.8675 45.9276 49.9581 45.9888 50.0358H45.9775ZM37.3378 50.3458C37.13 50.3083 36.942 50.1984 36.8069 50.0358C36.7457 49.958 36.7027 49.8675 36.681 49.7709C36.6594 49.6742 36.6597 49.5739 36.6819 49.4773C36.7052 49.3778 36.7497 49.2844 36.8125 49.2038C36.8753 49.1231 36.9548 49.057 37.0455 49.0102L38.5001 48.1442L37.0342 47.2782C36.9468 47.2309 36.8705 47.1652 36.8106 47.0857C36.7507 47.0062 36.7086 46.9148 36.687 46.8175C36.6655 46.7203 36.665 46.6195 36.6857 46.5221C36.7064 46.4246 36.7477 46.3327 36.8069 46.2527C36.942 46.09 37.13 45.9803 37.3378 45.9427C37.5457 45.9052 37.7601 45.9423 37.9433 46.0476L39.1478 46.7654V45.9223C39.1478 45.7016 39.2352 45.4901 39.3908 45.3341C39.5464 45.1781 39.7574 45.0905 39.9774 45.0905C40.1974 45.0905 40.4084 45.1781 40.5639 45.3341C40.7195 45.4901 40.8069 45.7016 40.8069 45.9223V46.6744L42.0115 45.9565C42.1395 45.8896 42.2818 45.8546 42.4262 45.8546C42.5706 45.8546 42.7129 45.8896 42.841 45.9565C42.9676 46.0061 43.0781 46.0898 43.1603 46.1984C43.2425 46.307 43.2932 46.4362 43.3069 46.5718C43.3138 46.7063 43.2821 46.84 43.2156 46.9571C43.1492 47.0742 43.0508 47.1698 42.9319 47.2327L41.4774 48.0987L42.9433 48.9646C43.0591 49.03 43.1545 49.1265 43.2187 49.2433C43.2829 49.36 43.3135 49.4924 43.3069 49.6255C43.2932 49.7611 43.2425 49.8904 43.1603 49.9989C43.0781 50.1075 42.9676 50.1912 42.841 50.2408C42.7129 50.3078 42.5706 50.3426 42.4262 50.3426C42.2818 50.3426 42.1395 50.3078 42.0115 50.2408L40.8069 49.523V50.3661C40.8069 50.5868 40.7195 50.7983 40.5639 50.9544C40.4084 51.1103 40.1974 51.1979 39.9774 51.1979C39.7574 51.1979 39.5464 51.1103 39.3908 50.9544C39.2352 50.7983 39.1478 50.5868 39.1478 50.3661V49.523L37.9433 50.2408C37.7601 50.3461 37.5457 50.3833 37.3378 50.3458ZM28.3295 37.0346H25.8295C25.7265 37.0284 25.6233 37.0427 25.5258 37.0766C25.4284 37.1106 25.3385 37.1634 25.2614 37.2323C25.1844 37.301 25.1216 37.3845 25.0767 37.4776C25.0319 37.5708 25.0058 37.672 25 37.7753V39.9972C25.0239 40.2024 25.1222 40.3918 25.2762 40.5293C25.4302 40.6666 25.6291 40.7425 25.8352 40.7425C26.0414 40.7425 26.2403 40.6666 26.3943 40.5293C26.5482 40.3918 26.6465 40.2024 26.6705 39.9972V38.5159H28.3295C28.4374 38.535 28.5481 38.5301 28.6539 38.5016C28.7596 38.4732 28.8579 38.4219 28.9418 38.3513C29.0256 38.2807 29.0931 38.1926 29.1394 38.093C29.1856 37.9936 29.2096 37.885 29.2096 37.7753C29.2096 37.6655 29.1856 37.557 29.1394 37.4575C29.0931 37.358 29.0256 37.2698 28.9418 37.1992C28.8579 37.1287 28.7596 37.0773 28.6539 37.0489C28.5481 37.0204 28.4374 37.0156 28.3295 37.0346ZM60.8295 51.1069H55.8294C55.6336 51.1069 55.4457 51.0289 55.3072 50.89C55.1686 50.7511 55.0908 50.5627 55.0908 50.3662C55.0908 50.1699 55.1686 49.9814 55.3072 49.8426C55.4457 49.7036 55.6336 49.6256 55.8294 49.6256H60.8295C60.9373 49.6066 61.048 49.6115 61.1538 49.6399C61.2595 49.6684 61.3578 49.7196 61.4417 49.7902C61.5255 49.8609 61.593 49.949 61.6393 50.0485C61.6855 50.148 61.7095 50.2565 61.7095 50.3662C61.7095 50.4761 61.6855 50.5845 61.6393 50.6841C61.593 50.7836 61.5255 50.8717 61.4417 50.9423C61.3578 51.0129 61.2595 51.0642 61.1538 51.0927C61.048 51.1211 60.9373 51.1259 60.8295 51.1069Z" fill="url(#paint0_linear_720_18813)"/>
<defs>
<linearGradient id="paint0_linear_720_18813" x1="16.3838" y1="17.7778" x2="67.0783" y2="39.6894" gradientUnits="userSpaceOnUse">
<stop stop-color="#002D85"/>
<stop offset="1" stop-color="#DE0000"/>
</linearGradient>
</defs>
</svg>
