<svg width="81" height="80" viewBox="0 0 81 80" fill="none" xmlns="http://www.w3.org/2000/svg">
<path fill-rule="evenodd" clip-rule="evenodd" d="M45.3214 53.8529H15.9911C14.25 53.8529 12.7768 52.3797 12.7768 50.6386V37.6475H60.5893V39.7904C60.5893 40.3261 61.125 40.8618 61.6607 40.8618C62.1964 40.8618 62.7322 40.3261 62.7322 39.7904V37.6475V35.5047V31.219V28.8083V26.6654C62.7322 23.719 60.3214 21.1743 57.2411 21.1743H15.9911C13.0447 21.1743 10.5 23.585 10.5 26.6654V50.5047C10.5 53.4511 12.9107 55.9958 15.9911 55.9958H45.3214C45.8572 55.9958 46.3929 55.46 46.3929 54.9243C46.3929 54.2547 45.8572 53.8529 45.3214 53.8529ZM12.6429 26.6654C12.6429 24.9243 14.1161 23.4511 15.8572 23.4511H57.1072C58.8482 23.4511 60.3214 24.9243 60.3214 26.6654V28.8083H12.6429V26.6654ZM12.6429 30.9511H60.4554V35.2368H12.6429V30.9511ZM15.9915 39.6565H35.545C36.0807 39.6565 36.6164 40.1922 36.6164 40.728V47.2905C36.6164 47.8262 36.0807 48.3619 35.545 48.3619H15.9915C15.4557 48.3619 14.92 47.8262 14.92 47.2905V40.728C14.92 40.1922 15.4557 39.6565 15.9915 39.6565ZM16.9289 46.219H34.3397V41.9333H16.9289V46.219ZM38.7591 40.7277H40.9019V42.8706H38.7591V40.7277ZM45.1879 40.7277H43.045V42.8706H45.1879V40.7277ZM38.7591 45.1474H40.9019V47.2903H38.7591V45.1474ZM43.4464 49.969L51.4821 58.0047C52.4196 59.0762 54.1607 59.0762 55.0982 58.1387L69.6964 43.5405C70.7679 42.469 70.7679 40.8619 69.6964 39.7905C68.625 38.719 67.0179 38.719 65.9464 39.7905L55.2321 50.5047C54.1607 51.5762 52.5536 51.5762 51.4821 50.5047L47.1964 46.219C46.125 45.1476 44.5179 45.1476 43.4464 46.219C42.375 47.2905 42.375 48.8976 43.4464 49.969Z" fill="url(#paint0_linear_720_18781)"/>
<defs>
<linearGradient id="paint0_linear_720_18781" x1="12.1605" y1="21.1743" x2="64.674" y2="53.3259" gradientUnits="userSpaceOnUse">
<stop stop-color="#002D85"/>
<stop offset="1" stop-color="#DE0000"/>
</linearGradient>
</defs>
</svg>
