<svg width="80" height="80" viewBox="0 0 80 80" fill="none" xmlns="http://www.w3.org/2000/svg">
<path fill-rule="evenodd" clip-rule="evenodd" d="M16.0875 51.878H48.6033C49.3457 51.878 49.7911 52.4719 49.7911 53.2143C49.7911 53.8082 49.1972 54.4021 48.6033 54.4021H16.0875C12.6726 54.4021 10 51.5811 10 48.3146V22.0347C10 18.6198 12.821 15.9473 16.0875 15.9473H61.8176C65.2325 15.9473 67.905 18.7682 67.905 22.0347V24.4103V26.7859V31.5371V33.9126V36.2882C67.905 36.8821 67.3111 37.476 66.7172 37.476C66.1233 37.476 65.5294 36.8821 65.5294 36.2882V33.9126H12.5241V48.3146C12.5241 50.2448 14.1573 51.878 16.0875 51.878ZM16.0875 18.3228C14.1573 18.3228 12.5241 19.9561 12.5241 21.8862H12.3756V24.2618H65.3809V21.8862C65.3809 19.9561 63.7477 18.3228 61.8176 18.3228H16.0875ZM65.5294 26.6374H12.5241V31.3886H65.5294V26.6374ZM16.0872 36.2882H37.7644C38.5068 36.2882 38.9522 36.8821 38.9522 37.476V44.7512C38.9522 45.3451 38.3583 45.939 37.7644 45.939H16.0872C15.4933 45.939 14.8994 45.3451 14.8994 44.7512V37.476C14.8994 36.8821 15.4933 36.2882 16.0872 36.2882ZM17.275 43.5634H36.5766V38.8122H17.275V43.5634ZM56.1756 48.76H68.2021C69.2414 48.76 70.1322 49.5024 69.9837 50.5417V62.2712C69.9837 63.162 69.2414 64.0529 68.2021 64.0529H53.5031C52.6123 64.0529 51.7214 63.3105 51.7214 62.2712V50.5417C51.7214 49.6509 52.4638 48.76 53.5031 48.76H53.8001V43.2665C53.8001 39.4061 56.918 36.2882 60.7783 36.2882C64.6387 36.2882 67.7566 39.4061 67.7566 43.2665V45.4936C67.7566 46.0875 67.3112 46.5329 66.7173 46.5329C66.1234 46.5329 65.678 46.0875 65.678 45.4936V43.2665C65.678 40.5939 63.5994 38.5153 60.9268 38.5153C58.2543 38.5153 56.1756 40.5939 56.1756 43.2665V48.76ZM60.9268 52.7688C59.739 52.7688 58.6997 53.8081 58.6997 54.9959C58.6997 55.7383 59.1451 56.4807 59.8875 56.9261V60.1925H62.1146V56.9261C62.7085 56.4807 63.1539 55.7383 63.1539 54.9959C63.1539 53.8081 62.1146 52.7688 60.9268 52.7688ZM43.8517 37.476H41.4761V39.8516H43.8517V37.476ZM46.2276 37.476H48.6032V39.8516H46.2276V37.476ZM43.8517 42.3758H41.4761V44.7513H43.8517V42.3758Z" fill="url(#paint0_linear_720_18792)"/>
<defs>
<linearGradient id="paint0_linear_720_18792" x1="11.6605" y1="15.9473" x2="70.376" y2="44.0836" gradientUnits="userSpaceOnUse">
<stop stop-color="#002D85"/>
<stop offset="1" stop-color="#DE0000"/>
</linearGradient>
</defs>
</svg>
