<svg width="82" height="81" viewBox="0 0 82 81" fill="none" xmlns="http://www.w3.org/2000/svg">
<path fill-rule="evenodd" clip-rule="evenodd" d="M36.0496 10.5H61.9832C64.687 10.5 66.8994 13.0472 67.0223 16.1604V64.8396C67.0223 67.9529 64.8101 70.5 62.1059 70.5H36.0496C33.3456 70.5 31.1332 67.9529 31.1332 64.8396V53.3773H15.7697V27.4811H31.1332V16.1604C31.1332 13.0472 33.3456 10.5 36.0496 10.5ZM17.6134 29.6038V51.113H44.6531V49.9812L18.8425 49.9812V31.019H44.6531V30.8774V29.6038H17.6134ZM44.6531 31.7266H19.4571V49.2738H44.6531V31.7266ZM62.1059 66.5378C62.9664 66.5378 63.7039 65.6886 63.7039 64.698V62.4341H34.4518V64.698C34.4518 65.6886 35.1893 66.5378 36.0496 66.5378H62.1059ZM34.4518 58.6131H63.7039V22.2453H34.4518V27.4811H44.7761V25.217H46.251V55.7832H44.7761V53.2357H34.4518V58.6131ZM34.4518 18.5661H63.7039V16.1604C63.7039 15.0283 62.9664 14.1792 62.1059 14.3208H36.0496C35.1893 14.3208 34.4518 15.1698 34.4518 16.1604V18.5661ZM33.5915 40.0756C33.4116 39.8683 33.1 39.6612 32.705 39.3986C32.5602 39.3024 32.4043 39.1988 32.2395 39.0849C32.0338 38.927 31.8472 38.7911 31.6824 38.6711L31.6822 38.6709L31.6821 38.6709C31.2565 38.3609 30.9764 38.1569 30.8877 37.9529C30.6419 37.6697 30.519 37.3869 30.519 36.9622C30.519 36.6792 30.519 36.5378 30.6419 36.3962C30.7648 36.2546 30.8877 36.2546 31.0107 36.2546C31.2563 36.2546 31.3793 36.3962 31.3793 36.5378C31.3793 36.5896 31.3957 36.6792 31.4166 36.7929C31.4528 36.99 31.5022 37.2592 31.5022 37.5285V37.9529H34.0834V37.3869C34.0834 36.5378 33.8375 35.8302 33.4688 35.2642C33.1 34.6982 32.4854 34.4151 31.6251 34.2735V33.2831H30.396V34.2735C29.5356 34.4151 28.9211 34.6982 28.4295 35.2642C27.9379 35.8302 27.815 36.5378 27.815 37.3869C27.815 37.9529 27.9379 38.5189 28.1836 39.0849C28.4295 39.5095 28.6753 39.934 28.9211 40.2172C29.1012 40.4243 29.4791 40.7076 29.9582 41.0668C30.1332 41.1979 30.3217 41.3392 30.519 41.4906C31.0107 41.7735 31.2563 42.1983 31.3793 42.4811C31.5022 42.7643 31.5022 43.1887 31.5022 43.8961V43.8961C31.5022 44.1793 31.5022 44.3209 31.3793 44.4622C31.2563 44.6038 31.1334 44.6038 31.0107 44.6038C30.7648 44.6038 30.6419 44.4622 30.6419 44.3209C30.6419 44.2799 30.6316 44.2031 30.6169 44.0942L30.6169 44.0942C30.5809 43.8273 30.519 43.3671 30.519 42.7643V42.0567H27.9379V42.6227C27.9379 43.8961 28.1836 44.887 28.6753 45.4528C29.167 46.0188 29.7814 46.302 30.519 46.4432V47.5755H31.748V46.4432C32.6083 46.302 33.3457 45.8774 33.7146 45.3114C34.2061 44.7454 34.3291 43.8961 34.3291 42.7643C34.3291 42.0567 34.2061 41.4906 34.0834 41.066C33.9603 40.6416 33.8375 40.3584 33.5915 40.0756ZM49.9383 38.0941V40.9244C52.2737 40.9244 54.2401 43.1883 54.2401 45.8771H56.6982C56.8211 41.6321 53.7486 38.0941 49.9383 38.0941ZM52.1495 45.0284C52.1495 46.0188 51.4121 46.8679 50.5518 46.8679C49.6913 46.8679 49.0769 46.0188 48.9538 45.0284C48.9538 44.0378 49.6913 43.1885 50.5518 43.1885C51.4121 43.1885 52.1495 44.0378 52.1495 45.0284ZM58.7877 46.0187H61.2458C61.2458 38.8018 56.2067 32.9997 49.9383 32.9997V35.83C54.8547 35.83 58.7877 40.3584 58.7877 46.0187Z" fill="url(#paint0_linear_808_17661)"/>
<defs>
<linearGradient id="paint0_linear_808_17661" x1="66.1056" y1="69.1986" x2="66.1056" y2="10.5" gradientUnits="userSpaceOnUse">
<stop stop-color="#002D85"/>
<stop offset="1" stop-color="#013AA9"/>
</linearGradient>
</defs>
</svg>
