<svg width="80" height="80" viewBox="0 0 80 80" fill="none" xmlns="http://www.w3.org/2000/svg">
<path d="M17.4 19.4V11.7999C17.4 10.7999 18.2 10 19.2 10C20.2 10 21 10.7999 21 11.7999V19.4C21 20.4 20.2 21.2 19.2 21.2C18.4 21.2 17.4 20.4 17.4 19.4ZM49.4 21.2C50.4 21.2 51.2 20.4 51.2 19.4V11.7999C51.2 10.7999 50.4 10 49.4 10C48.4 10 47.6 10.7999 47.6 11.7999V19.4C47.4 20.4 48.4 21.2 49.4 21.2ZM70 55C70 63.2 63.2 70 55 70C46.8 70 40 63.2 40 55C40 46.8 46.8 40 55 40C63.2 40 70 46.6 70 55ZM66.2 55C66.2 48.8 61.2 43.8 55 43.8C48.8 43.8 43.8 48.8 43.8 55C43.8 61.2 48.8 66.2 55 66.2C61.2 66.2 66.2 61.2 66.2 55ZM25 32.4H17.4V40H25V32.4ZM17.4 51.2H25V43.6H17.4V51.2ZM28.8 40H36.4V32.4H28.8V40ZM28.8 51.2H36.4V43.6H28.8V51.2ZM13.8 54.6V28.8H55V36.4H58.8V21.8C58.8 19.6 57 17.6 54.8 17.6H53.2V19.4C53.2 21.4 51.6 23.2 49.4 23.2C47.4 23.2 45.6 21.6 45.6 19.4V17.6H23V19.4C23 21.4 21.4 23.2 19.2 23.2C17.2 23.2 15.4 21.6 15.4 19.4V17.6H14C11.8 17.6 10 19.4 10 21.8V54.8C10 57 11.8 59 14 59H36.2V55.2H14C13.8 55 13.8 54.8 13.8 54.6ZM47.4 40V32.4H40V40H47.4ZM60.6 55H55V49.4C55 48.4 54.2 47.6 53.2 47.6C52.2 47.6 51.4 48.4 51.4 49.4V57C51.4 58 52.2 58.8 53.2 58.8H60.8C61.8 58.8 62.6 58 62.6 57C62.4 55.8 61.6 55 60.6 55Z" fill="url(#paint0_linear_720_18844)"/>
<defs>
<linearGradient id="paint0_linear_720_18844" x1="11.6605" y1="10" x2="74.5723" y2="34.1709" gradientUnits="userSpaceOnUse">
<stop stop-color="#002D85"/>
<stop offset="1" stop-color="#DE0000"/>
</linearGradient>
</defs>
</svg>
