<svg width="82" height="81" viewBox="0 0 82 81" fill="none" xmlns="http://www.w3.org/2000/svg">
<path fill-rule="evenodd" clip-rule="evenodd" d="M51.8001 57.5707H28.5678C28.1637 57.5707 27.9617 57.3687 27.7597 57.1667C27.5577 56.9646 27.3557 56.5606 27.3557 56.3586V15.3485C27.3557 14.9445 27.5577 14.7424 27.7597 14.5404C27.9617 14.3384 28.3658 14.1363 28.5678 14.1363H46.7496V20.197C46.7496 23.0253 48.9718 25.2475 51.8001 25.2475H57.8607V39.3889H61.6991V23.8333L48.3657 10.5H26.7496C24.9314 10.5 23.5173 11.9142 23.5173 13.7324V19.3889H17.8607C16.0425 19.3889 14.6284 20.803 14.6284 22.6212V67.2677C14.6284 69.0859 16.0425 70.5 17.8607 70.5H49.5779C50.386 70.5 51.396 70.096 51.8001 69.4899C52.4062 68.8838 52.8102 68.0758 52.8102 67.2677V63.8333V63.6313C52.6082 63.2273 52.0021 61.6111 51.8001 59.7929V57.5707ZM48.9718 65.2475C48.9718 65.6515 48.7698 65.8535 48.5678 66.0556C48.3657 66.2576 47.9617 66.4596 47.7597 66.4596H19.6789C19.0728 66.4596 18.4668 65.8535 18.4668 65.2475V24.2374C18.4668 23.6313 19.0728 23.0253 19.6789 23.0253H23.5173V23.6313V57.9747C23.5173 59.7929 24.9314 61.2071 26.7496 61.2071H48.9718V65.2475ZM67.3554 48.6817V48.0756C67.3554 46.2575 66.9514 44.8433 65.9413 43.8332C64.9312 42.8231 63.7191 42.2171 61.6989 42.015V40.1969H58.8706V42.015C56.8504 42.2171 55.2342 42.8231 54.4262 43.8332C53.4161 44.8433 52.81 46.2575 52.81 48.0756C52.81 49.2878 53.012 50.4999 53.6181 51.308C54.0221 52.3181 54.6282 53.1261 55.2342 53.5302C55.8403 54.1362 57.0524 54.9443 58.8706 55.9544C59.8807 56.5605 60.6888 57.1665 60.8908 57.7726C61.0928 58.3787 61.0928 59.3887 61.0928 60.6008V60.6009V60.6009C61.0928 61.207 61.0928 61.611 60.8908 61.813C60.6888 62.015 60.4868 62.2171 60.0827 62.2171C59.6787 62.2171 59.2746 62.015 59.2746 61.611C59.0726 61.2069 59.0726 60.1969 59.0726 58.5807V57.1665H53.012V58.3787C53.012 61.0049 53.6181 62.8231 54.8302 64.0352C56.0423 65.0453 57.4565 65.6514 59.0726 65.8534V68.0756H61.9009V65.8534C63.9211 65.6514 65.5373 64.8433 66.5474 63.6312C67.5575 62.4191 68.1635 60.8029 68.1635 58.5807C68.1635 57.1665 67.9615 56.1564 67.5575 55.1463C67.1534 54.3383 66.7494 53.5302 66.1433 53.1261C65.9731 53.0127 65.7711 52.8674 65.5372 52.6992L65.5371 52.6991L65.5371 52.6991C64.938 52.2682 64.13 51.6871 63.113 51.1059C61.2948 50.0958 60.2847 49.2878 59.8807 48.8837C59.4767 48.4797 59.2746 47.8736 59.2746 46.8635V46.8635C59.2746 46.2574 59.2746 45.8534 59.4767 45.6514C59.6787 45.4494 59.8807 45.2474 60.2847 45.2474C60.6888 45.2474 61.0928 45.4494 61.0928 45.6514C61.2948 46.0554 61.2948 46.6615 61.2948 47.6716V48.6817H67.3554ZM54.0225 35.9543H31.1942C30.5882 35.9543 29.9821 35.5503 29.9821 34.7422C29.9821 34.1362 30.5882 33.5301 31.1942 33.5301H54.0225C54.6286 33.5301 55.2346 34.1362 55.2346 34.7422C55.2346 35.3483 54.6286 35.9543 54.0225 35.9543ZM31.1942 42.0149H54.0225C54.6286 42.0149 55.2346 41.4089 55.2346 40.8028C55.2346 40.1968 54.6286 39.5907 54.0225 39.5907H31.1942C30.5882 39.5907 29.9821 40.1968 29.9821 40.8028C29.9821 41.4089 30.5882 42.0149 31.1942 42.0149ZM54.0225 30.2977H31.1942C30.5882 30.2977 29.9821 29.6916 29.9821 29.0856C29.9821 28.4795 30.5882 27.8734 31.1942 27.8734H54.0225C54.6286 27.8734 55.2346 28.4795 55.2346 29.0856C55.2346 29.6916 54.6286 30.2977 54.0225 30.2977Z" fill="url(#paint0_linear_808_17670)"/>
<defs>
<linearGradient id="paint0_linear_808_17670" x1="67.206" y1="69.1986" x2="67.206" y2="10.5" gradientUnits="userSpaceOnUse">
<stop stop-color="#002D85"/>
<stop offset="1" stop-color="#013AA9"/>
</linearGradient>
</defs>
</svg>
