<svg width="81" height="80" viewBox="0 0 81 80" fill="none" xmlns="http://www.w3.org/2000/svg">
<path d="M18.296 19.4V11.7999C18.296 10.7999 19.096 10 20.096 10C21.096 10 21.896 10.7999 21.896 11.7999V19.4C21.896 20.4 21.096 21.2 20.096 21.2C19.296 21.2 18.296 20.4 18.296 19.4ZM50.296 21.2C51.296 21.2 52.096 20.4 52.096 19.4V11.7999C52.096 10.7999 51.296 10 50.296 10C49.296 10 48.496 10.7999 48.496 11.7999V19.4C48.296 20.4 49.296 21.2 50.296 21.2ZM70.896 55C70.896 63.2 64.096 70 55.896 70C47.696 70 40.896 63.2 40.896 55C40.896 46.8 47.696 40 55.896 40C64.096 40 70.896 46.6 70.896 55ZM67.096 55C67.096 48.8 62.096 43.8 55.896 43.8C49.696 43.8 44.696 48.8 44.696 55C44.696 61.2 49.696 66.2 55.896 66.2C62.096 66.2 67.096 61.2 67.096 55ZM25.896 32.4H18.296V40H25.896V32.4ZM18.296 51.2H25.896V43.6H18.296V51.2ZM29.696 40H37.296V32.4H29.696V40ZM29.696 51.2H37.296V43.6H29.696V51.2ZM14.696 54.6V28.8H55.896V36.4H59.696V21.8C59.696 19.6 57.896 17.6 55.696 17.6H54.096V19.4C54.096 21.4 52.496 23.2 50.296 23.2C48.296 23.2 46.496 21.6 46.496 19.4V17.6H23.896V19.4C23.896 21.4 22.296 23.2 20.096 23.2C18.096 23.2 16.296 21.6 16.296 19.4V17.6H14.896C12.696 17.6 10.896 19.4 10.896 21.8V54.8C10.896 57 12.696 59 14.896 59H37.096V55.2H14.896C14.696 55 14.696 54.8 14.696 54.6ZM48.296 40V32.4H40.896V40H48.296ZM61.496 55H55.896V49.4C55.896 48.4 55.096 47.6 54.096 47.6C53.096 47.6 52.296 48.4 52.296 49.4V57C52.296 58 53.096 58.8 54.096 58.8H61.696C62.696 58.8 63.496 58 63.496 57C63.296 55.8 62.496 55 61.496 55Z" fill="url(#paint0_linear_808_17679)"/>
<defs>
<linearGradient id="paint0_linear_808_17679" x1="69.8228" y1="68.6986" x2="69.8228" y2="10" gradientUnits="userSpaceOnUse">
<stop stop-color="#002D85"/>
<stop offset="1" stop-color="#013AA9"/>
</linearGradient>
</defs>
</svg>
