<svg width="81" height="80" viewBox="0 0 81 80" fill="none" xmlns="http://www.w3.org/2000/svg">
<path d="M55.1639 70H26.6281C24.2376 70 22.1461 68.134 22.1461 65.6939V60.9569C22.1461 60.3827 22.5942 59.9522 23.1917 59.9522H58.6002C59.1978 59.9522 59.6461 60.3827 59.6461 60.9569V65.6939C59.6461 68.134 57.7038 70 55.1639 70ZM25.4327 61.9617V65.6939C25.4327 66.9857 26.4786 67.9904 27.8232 67.9904H54.2674C55.6122 67.9904 56.6579 66.9857 56.6579 65.6939V61.9617H25.4327ZM45.0046 64.9761C45.0046 64.402 44.5564 63.9713 43.9587 63.9713H37.6838C37.0863 63.9713 36.6379 64.402 36.6379 64.9761C36.6379 65.5502 37.0863 65.9809 37.6838 65.9809H43.9587C44.5564 65.9809 45.0046 65.5502 45.0046 64.9761ZM58.6002 20.0479H23.1917C22.5942 20.0479 22.1461 19.6172 22.1461 19.0431V14.3062C22.1461 12.0096 24.0882 10 26.6281 10H55.1639C57.5543 10 59.6461 11.866 59.6461 14.3062V19.0431C59.6461 19.6172 59.1978 20.0479 58.6002 20.0479ZM25.4327 18.0383H56.6579V14.3062C56.6579 13.0144 55.6122 12.0096 54.2674 12.0096H27.6739C26.4786 12.0096 25.4327 13.0144 25.4327 14.3062V18.0383ZM47.0961 15.0239C47.0961 14.4498 46.648 14.0191 46.0504 14.0191H35.5922C34.9945 14.0191 34.5464 14.4498 34.5464 15.0239C34.5464 15.5981 34.9945 16.0287 35.5922 16.0287H46.0504C46.648 16.0287 47.0961 15.5981 47.0961 15.0239ZM58.6002 61.9617H23.1917C22.5942 61.9617 22.1461 61.5312 22.1461 60.9569V19.0431C22.1461 18.469 22.5942 18.0383 23.1917 18.0383H58.6002C59.1978 18.0383 59.6461 18.469 59.6461 19.0431V61.1005C59.6461 61.5312 59.1978 61.9617 58.6002 61.9617ZM25.4327 58.6604H56.5086V21.3398H25.4327V58.6604ZM42.913 58.0861H38.7297C38.1321 58.0861 37.6838 57.6556 37.6838 57.0814V54.067H35.7417C35.2934 54.067 34.9945 53.7799 34.8452 53.4929C34.6958 53.2058 34.6958 52.7751 34.9947 52.4881L40.2237 46.4594C40.6718 46.0287 41.4188 46.0287 41.8671 46.4594L47.0961 52.4881C47.395 52.7751 47.395 53.2058 47.2456 53.4929C47.0961 53.7799 46.648 54.067 46.3491 54.067H44.2576V57.0814C43.9587 57.5119 43.5106 58.0861 42.913 58.0861ZM39.7756 56.0766H41.8671V53.0622C41.8671 52.4881 42.3152 52.0574 42.913 52.0574H43.8093L40.8213 48.6124L37.8332 52.0574H38.7297C39.3272 52.0574 39.7756 52.4881 39.7756 53.0622V56.0766ZM40.8213 44.0192C34.5464 44.0192 29.3174 39.1388 29.3174 32.9665C29.3174 26.7942 34.3969 21.9139 40.8213 21.9139C47.2456 21.9139 52.3253 26.7942 52.3253 32.9665C52.3253 39.1388 47.2456 44.0192 40.8213 44.0192ZM40.8213 24.6411C36.0404 24.6411 32.0065 28.3733 32.0065 33.1101C32.0065 37.8469 35.8909 41.5789 40.8213 41.5789C45.7516 41.5789 49.636 37.8469 49.636 33.1101C49.636 28.3733 45.7516 24.6411 40.8213 24.6411ZM44.5564 30.5264C44.5564 30.2393 44.5564 30.0957 44.5564 29.9522C44.5564 29.0909 44.2576 28.3733 43.8093 27.799C43.3611 27.2249 42.6141 26.9378 41.5682 26.7942V25.7895H40.0742V26.7942C39.0284 26.9378 38.1321 27.2249 37.6838 27.799C37.0863 28.3733 36.9368 29.0909 36.9368 29.9522C36.9368 30.5264 37.0862 31.1005 37.3849 31.6746C37.6838 32.2487 37.9827 32.536 38.2814 32.8231C38.5802 33.1101 39.3272 33.5406 40.2237 34.1149C40.8212 34.402 41.1201 34.8325 41.2696 35.1196C41.4188 35.4068 41.4188 35.9809 41.4188 36.5551C41.4188 36.8421 41.4188 36.9857 41.2696 37.1292C41.1201 37.2728 40.9707 37.2728 40.8213 37.2728C40.5226 37.2728 40.3731 37.1292 40.3731 36.9857C40.3731 36.8421 40.0742 36.4114 40.0742 35.5502V34.8325H36.9368V35.4068C36.9368 36.8421 37.2357 37.7033 37.8332 38.2776C38.4308 38.8517 39.1778 39.1388 40.0742 39.2822V40.4307H41.5682V39.2822C42.6141 39.1388 43.5106 38.7081 44.1081 38.134C44.7057 37.5599 44.8551 36.6985 44.8551 35.5502C44.8551 34.8325 44.7057 34.2584 44.5564 33.8277C44.407 33.3972 44.1081 32.9665 43.8093 32.8231C43.5106 32.536 42.913 32.2487 42.166 31.6746C41.2696 31.1005 40.6718 30.6698 40.3731 30.5264C40.2237 30.3827 40.0742 29.9522 40.0742 29.5216C40.0742 29.2345 40.0742 28.9474 40.2237 28.8038C40.3731 28.6604 40.5226 28.5167 40.6718 28.5167C40.9707 28.5167 41.1201 28.6604 41.1201 28.8038C41.1201 28.9474 41.2696 29.3779 41.2696 29.8086V30.3827H44.5564V30.5264Z" fill="url(#paint0_linear_808_17677)"/>
<defs>
<linearGradient id="paint0_linear_808_17677" x1="58.9754" y1="68.6986" x2="58.9754" y2="10" gradientUnits="userSpaceOnUse">
<stop stop-color="#002D85"/>
<stop offset="1" stop-color="#013AA9"/>
</linearGradient>
</defs>
</svg>
