<svg width="80" height="80" viewBox="0 0 80 80" fill="none" xmlns="http://www.w3.org/2000/svg">
<path fill-rule="evenodd" clip-rule="evenodd" d="M33.0851 15.2593V18.8904C33.0851 19.1399 33.1841 19.379 33.3606 19.5555C33.5371 19.732 33.7764 19.8311 34.0258 19.8311C34.2753 19.8311 34.5146 19.732 34.6909 19.5555C34.8674 19.379 34.9665 19.1399 34.9665 18.8904V15.2593C34.9665 15.0098 34.8674 14.7705 34.6909 14.5941C34.5146 14.4177 34.2753 14.3186 34.0258 14.3186C33.7764 14.3186 33.5371 14.4177 33.3606 14.5941C33.1841 14.7705 33.0851 15.0098 33.0851 15.2593ZM49.1512 19.529C48.9819 19.6983 48.7522 19.7935 48.5127 19.7935H48.4563C48.336 19.796 48.2166 19.7745 48.1048 19.7301C47.9931 19.6859 47.8913 19.6199 47.8055 19.5356C47.7197 19.4515 47.6514 19.3512 47.6049 19.2404C47.5583 19.1296 47.5344 19.0107 47.5344 18.8904V15.2593C47.5344 15.0098 47.6335 14.7705 47.8098 14.5941C47.9863 14.4177 48.2256 14.3186 48.4751 14.3186C48.7245 14.3186 48.9639 14.4177 49.1402 14.5941C49.3166 14.7705 49.4158 15.0098 49.4158 15.2593V18.8904C49.4158 19.1299 49.3206 19.3597 49.1512 19.529ZM57.2037 40.1588C58.0018 38.9645 58.4277 37.5604 58.4277 36.1241C58.4302 35.1697 58.2439 34.2243 57.8799 33.3421C57.5158 32.4599 56.9809 31.6582 56.3061 30.9834C55.6312 30.3085 54.8297 29.7736 53.9475 29.4096C53.0653 29.0455 52.1197 28.8595 51.1655 28.8619C49.729 28.8619 48.3249 29.2879 47.1308 30.0858C45.9365 30.8837 45.0057 32.018 44.456 33.3451C43.9064 34.6721 43.7625 36.1322 44.0427 37.5408C44.323 38.9496 45.0146 40.2437 46.0302 41.2593C47.046 42.2749 48.34 42.9666 49.7486 43.2468C51.1574 43.5269 52.6176 43.3832 53.9445 42.8334C55.2717 42.2839 56.4058 41.3532 57.2037 40.1588ZM55.6299 33.1034C56.2274 33.9974 56.5463 35.0487 56.5463 36.1241C56.5463 37.5661 55.9734 38.9493 54.9537 39.9688C53.934 40.9885 52.5511 41.5614 51.109 41.5614C50.0336 41.5614 48.9823 41.2425 48.0883 40.645C47.194 40.0476 46.4971 39.1984 46.0857 38.2048C45.674 37.2112 45.5664 36.1181 45.7762 35.0634C45.986 34.0087 46.5039 33.0398 47.2642 32.2793C48.0247 31.519 48.9936 31.0011 50.0483 30.7913C51.103 30.5815 52.1963 30.6891 53.1897 31.1008C54.1833 31.5122 55.0325 32.2091 55.6299 33.1034ZM32.9722 25.2308H36.6034V28.8619H32.9722V25.2308ZM36.6034 34.2992H32.9722V30.6869H36.6034V34.2992ZM42.0406 28.8619H38.4283V25.2308H42.0406V28.8619ZM42.0406 34.2992H38.4283V30.6869H42.0406V34.2992ZM31.1661 23.4246V35.936L31.2602 35.8608C31.2592 35.9048 31.2739 35.9477 31.3014 35.9821C31.3288 36.0163 31.3674 36.04 31.4107 36.0489H42.1347V37.9303H31.4107C31.1495 37.9303 30.8912 37.8786 30.6502 37.7781C30.4094 37.6776 30.1908 37.5305 30.007 37.345C29.8233 37.1595 29.6783 36.9395 29.5801 36.6978C29.4819 36.4558 29.4328 36.197 29.4352 35.936V19.9816C29.4328 19.7207 29.4819 19.4618 29.5801 19.2199C29.6783 18.9781 29.8233 18.758 30.007 18.5725C30.1908 18.3872 30.4094 18.24 30.6502 18.1396C30.8912 18.0391 31.1495 17.9874 31.4107 17.9874H32.1256V18.8904C32.234 19.2889 32.4703 19.6407 32.7984 19.8917C33.1265 20.1425 33.5282 20.2783 33.9412 20.2783C34.3541 20.2783 34.7556 20.1425 35.0838 19.8917C35.4119 19.6407 35.6484 19.2889 35.7567 18.8904V17.9874H46.6313V18.8904C46.7395 19.2889 46.976 19.6407 47.3041 19.8917C47.6322 20.1425 48.0337 20.2783 48.4468 20.2783C48.8598 20.2783 49.2613 20.1425 49.5894 19.8917C49.9176 19.6407 50.154 19.2889 50.2624 18.8904V17.9874H51.015C51.2759 17.9874 51.5344 18.0391 51.7752 18.1396C52.0163 18.24 52.2349 18.3872 52.4185 18.5725C52.6021 18.758 52.7474 18.9781 52.8456 19.2199C52.9436 19.4618 52.9929 19.7207 52.9905 19.9816V27.0558H51.109V23.4246H31.1661ZM43.9597 25.1555H47.572V28.7866H43.9597V25.1555ZM51.2031 36.0489H53.9312L53.9876 36.1053C54.2371 36.1053 54.4764 36.2045 54.6527 36.3808C54.8292 36.5572 54.9283 36.7964 54.9283 37.046C54.9283 37.2955 54.8292 37.5348 54.6527 37.7111C54.4764 37.8876 54.2371 37.9867 53.9876 37.9867H50.3C50.0605 37.9867 49.8308 37.8915 49.6615 37.7222C49.4922 37.5529 49.397 37.3232 49.397 37.0837V33.4525C49.4017 33.2145 49.4984 32.9875 49.6668 32.8193C49.8351 32.6509 50.062 32.5544 50.3 32.5495C50.5395 32.5495 50.7693 32.6445 50.9386 32.814C51.1079 32.9833 51.2031 33.213 51.2031 33.4525V36.0489ZM10.0376 61.6738V39.5861L10 39.5673C10 39.4346 10.0263 39.3035 10.0777 39.1812C10.1289 39.0591 10.2041 38.9481 10.2986 38.8554C10.3932 38.7626 10.5053 38.6894 10.6286 38.6405C10.7518 38.5916 10.8835 38.5675 11.016 38.5699H21.0062C21.1379 38.5675 21.2687 38.5916 21.3908 38.6407C21.5129 38.69 21.6239 38.7634 21.717 38.8565C21.8102 38.9494 21.8836 39.0604 21.9327 39.1827C21.9819 39.3048 22.0058 39.4356 22.0034 39.5673V40.5644H29.8112C30.7943 40.5639 31.7559 40.8515 32.5769 41.3921L40.3095 46.5659H48.2867C48.9828 46.5646 49.6686 46.7356 50.2825 47.0639C50.8964 47.3923 51.4194 47.8677 51.8049 48.4473C52.1347 48.9392 52.3556 49.4957 52.4529 50.0797C52.5503 50.6638 52.5218 51.2619 52.3694 51.8341L64.7114 48.0713C65.5701 47.77 66.5055 47.77 67.3642 48.0713C68.1087 48.3254 68.7587 48.7992 69.2287 49.43C69.6986 50.0608 69.9666 50.8194 69.997 51.6055C70.0277 52.3915 69.8194 53.1686 69.3997 53.834C68.9801 54.4995 68.3689 55.0221 67.6464 55.3335L45.8221 64.571C44.103 65.3042 42.2536 65.6818 40.3848 65.6813H40.1214C38.6112 65.6811 37.1111 65.4331 35.6812 64.9473L22.0034 60.0933V61.6738C22.0058 61.8022 21.9831 61.9299 21.9362 62.0496C21.8892 62.1692 21.8192 62.2785 21.7302 62.3711C21.641 62.4637 21.5346 62.538 21.417 62.5893C21.2992 62.6407 21.1724 62.6686 21.0439 62.671H11.0536C10.921 62.6734 10.7893 62.6495 10.6662 62.6004C10.543 62.5515 10.4308 62.4785 10.3364 62.3856C10.2418 62.2928 10.1665 62.182 10.1153 62.0597C10.064 61.9374 10.0376 61.8063 10.0376 61.6738ZM29.8112 42.5587H22.0034V57.911L36.3397 63.1225C37.5525 63.5302 38.823 63.7398 40.1026 63.7432H40.366C41.9695 63.7353 43.5553 63.4093 45.0319 62.7839L66.8374 53.565C67.184 53.4226 67.4801 53.1798 67.688 52.8683C67.8957 52.5565 68.0058 52.1898 68.0039 51.8153C68.0206 51.3953 67.8963 50.982 67.6507 50.6411C67.4052 50.3002 67.0526 50.0511 66.6493 49.9339C66.2229 49.7847 65.7586 49.7847 65.3323 49.9339L50.9207 54.4304C50.5504 54.7849 50.1164 55.0658 49.6413 55.2582C49.4276 55.3442 49.2073 55.4135 48.9828 55.4652H48.8323C48.5885 55.493 48.3424 55.493 48.0986 55.4652H33.0473V53.4709H48.0986C48.2799 53.4892 48.4628 53.4892 48.6442 53.4709H48.8323L49.1333 53.3204L49.3403 53.2075C49.4534 53.1354 49.555 53.0466 49.6413 52.9439H49.7542C49.8883 52.7898 50.0022 52.6192 50.0928 52.4361L50.3562 51.9093C50.5312 51.5569 50.6112 51.165 50.588 50.7722C50.5649 50.3796 50.4396 49.9997 50.2246 49.6705C50.0183 49.361 49.7384 49.1079 49.4099 48.9339C49.0816 48.7597 48.7149 48.6703 48.3431 48.6733H40.0461C39.851 48.6748 39.6604 48.6155 39.5005 48.504L31.4669 43.0665C30.9792 42.7335 30.4018 42.5565 29.8112 42.5587ZM19.614 41.5616H12.4082V59.5667H19.614V41.5616Z" fill="url(#paint0_linear_720_18853)"/>
<defs>
<linearGradient id="paint0_linear_720_18853" x1="11.6605" y1="14.3186" x2="71.7541" y2="41.2894" gradientUnits="userSpaceOnUse">
<stop stop-color="#002D85"/>
<stop offset="1" stop-color="#DE0000"/>
</linearGradient>
</defs>
</svg>
