<svg width="81" height="80" viewBox="0 0 81 80" fill="none" xmlns="http://www.w3.org/2000/svg">
<path fill-rule="evenodd" clip-rule="evenodd" d="M33.9811 15.2596V18.8907C33.9811 19.1401 34.0801 19.3793 34.2566 19.5558C34.433 19.7322 34.6724 19.8314 34.9218 19.8314C35.1713 19.8314 35.4106 19.7322 35.5869 19.5558C35.7634 19.3793 35.8625 19.1401 35.8625 18.8907V15.2596C35.8625 15.0101 35.7634 14.7707 35.5869 14.5943C35.4106 14.4179 35.1713 14.3188 34.9218 14.3188C34.6724 14.3188 34.433 14.4179 34.2566 14.5943C34.0801 14.7707 33.9811 15.0101 33.9811 15.2596ZM50.0472 19.5292C49.8779 19.6986 49.6482 19.7938 49.4087 19.7938H49.3523C49.232 19.7962 49.1126 19.7747 49.0008 19.7303C48.8891 19.6861 48.7873 19.6201 48.7015 19.5358C48.6157 19.4517 48.5474 19.3514 48.5009 19.2406C48.4543 19.1298 48.4304 19.0109 48.4304 18.8907V15.2596C48.4304 15.0101 48.5295 14.7707 48.7058 14.5943C48.8823 14.4179 49.1216 14.3188 49.3711 14.3188C49.6205 14.3188 49.8599 14.4179 50.0361 14.5943C50.2126 14.7707 50.3118 15.0101 50.3118 15.2596V18.8907C50.3118 19.1302 50.2166 19.3599 50.0472 19.5292ZM58.0997 40.1591C58.8978 38.9648 59.3237 37.5607 59.3237 36.1244C59.3262 35.17 59.1399 34.2245 58.7759 33.3423C58.4118 32.4602 57.8769 31.6585 57.2021 30.9836C56.5272 30.3088 55.7257 29.7739 54.8435 29.4098C53.9613 29.0458 53.0157 28.8597 52.0615 28.8621C50.625 28.8621 49.2209 29.2881 48.0268 30.086C46.8325 30.8839 45.9017 32.0182 45.352 33.3454C44.8024 34.6723 44.6585 36.1325 44.9387 37.5411C45.219 38.9499 45.9106 40.2439 46.9262 41.2595C47.9419 42.2751 49.236 42.9669 50.6446 43.247C52.0534 43.5272 53.5136 43.3834 54.8405 42.8337C56.1677 42.2841 57.3018 41.3534 58.0997 40.1591ZM56.5259 33.1036C57.1234 33.9976 57.4423 35.049 57.4423 36.1244C57.4423 37.5663 56.8694 38.9495 55.8497 39.9691C54.83 40.9888 53.4471 41.5617 52.005 41.5617C50.9296 41.5617 49.8783 41.2428 48.9842 40.6452C48.09 40.0479 47.3931 39.1986 46.9817 38.205C46.57 37.2115 46.4624 36.1184 46.6722 35.0637C46.882 34.0089 47.3999 33.04 48.1602 32.2795C48.9207 31.5193 49.8896 31.0013 50.9443 30.7915C51.999 30.5818 53.0923 30.6894 54.0857 31.101C55.0793 31.5125 55.9285 32.2094 56.5259 33.1036ZM33.8682 25.231H37.4994V28.8621H33.8682V25.231ZM37.4994 34.2994H33.8682V30.6871H37.4994V34.2994ZM42.9366 28.8621H39.3243V25.231H42.9366V28.8621ZM42.9366 34.2994H39.3243V30.6871H42.9366V34.2994ZM32.0621 23.4249V35.9362L32.1562 35.861C32.1552 35.905 32.1699 35.9479 32.1974 35.9823C32.2248 36.0166 32.2634 36.0403 32.3067 36.0491H43.0307V37.9305H32.3067C32.0455 37.9305 31.7872 37.8788 31.5462 37.7783C31.3054 37.6779 31.0868 37.5307 30.903 37.3452C30.7193 37.1597 30.5743 36.9398 30.4761 36.698C30.3779 36.4561 30.3288 36.1972 30.3312 35.9362V19.9819C30.3288 19.7209 30.3779 19.4621 30.4761 19.2201C30.5743 18.9783 30.7193 18.7582 30.903 18.5727C31.0868 18.3874 31.3054 18.2403 31.5462 18.1398C31.7872 18.0393 32.0455 17.9876 32.3067 17.9876H33.0216V18.8907C33.13 19.2892 33.3663 19.641 33.6944 19.892C34.0225 20.1428 34.4242 20.2786 34.8372 20.2786C35.2501 20.2786 35.6516 20.1428 35.9798 19.892C36.3079 19.641 36.5444 19.2892 36.6527 18.8907V17.9876H47.5273V18.8907C47.6355 19.2892 47.872 19.641 48.2001 19.892C48.5282 20.1428 48.9297 20.2786 49.3428 20.2786C49.7558 20.2786 50.1573 20.1428 50.4854 19.892C50.8135 19.641 51.05 19.2892 51.1584 18.8907V17.9876H51.911C52.1719 17.9876 52.4304 18.0393 52.6712 18.1398C52.9123 18.2403 53.1309 18.3874 53.3145 18.5727C53.4981 18.7582 53.6434 18.9783 53.7416 19.2201C53.8396 19.4621 53.8889 19.7209 53.8865 19.9819V27.056H52.005V23.4249H32.0621ZM44.8557 25.1558H48.468V28.7869H44.8557V25.1558ZM52.0991 36.0491H54.8272L54.8836 36.1056C55.1331 36.1056 55.3724 36.2047 55.5487 36.381C55.7252 36.5575 55.8243 36.7966 55.8243 37.0463C55.8243 37.2958 55.7252 37.5351 55.5487 37.7114C55.3724 37.8878 55.1331 37.987 54.8836 37.987H51.196C50.9565 37.987 50.7268 37.8918 50.5575 37.7225C50.3882 37.5531 50.293 37.3234 50.293 37.0839V33.4528C50.2977 33.2148 50.3944 32.9877 50.5628 32.8195C50.7311 32.6511 50.958 32.5546 51.196 32.5497C51.4355 32.5497 51.6653 32.6447 51.8346 32.8142C52.0039 32.9836 52.0991 33.2133 52.0991 33.4528V36.0491ZM10.9336 61.6741V39.5863L10.896 39.5675C10.896 39.4349 10.9223 39.3038 10.9737 39.1815C11.0249 39.0594 11.1001 38.9484 11.1946 38.8556C11.2892 38.7628 11.4013 38.6897 11.5246 38.6407C11.6478 38.5918 11.7795 38.5677 11.912 38.5702H21.9022C22.0339 38.5677 22.1647 38.5918 22.2868 38.6409C22.4089 38.6902 22.5199 38.7636 22.613 38.8567C22.7062 38.9497 22.7795 39.0607 22.8287 39.183C22.8779 39.3051 22.9018 39.4358 22.8994 39.5675V40.5647H30.7072C31.6903 40.5641 32.6519 40.8518 33.4729 41.3923L41.2055 46.5662H49.1827C49.8788 46.5649 50.5646 46.7359 51.1785 47.0642C51.7924 47.3925 52.3154 47.8679 52.7009 48.4476C53.0307 48.9394 53.2516 49.4959 53.3489 50.0799C53.4463 50.6641 53.4177 51.2622 53.2654 51.8343L65.6074 48.0715C66.4661 47.7703 67.4015 47.7703 68.2602 48.0715C69.0047 48.3257 69.6547 48.7994 70.1247 49.4303C70.5946 50.0611 70.8626 50.8197 70.893 51.6057C70.9237 52.3918 70.7154 53.1688 70.2957 53.8343C69.8761 54.4997 69.2649 55.0224 68.5424 55.3337L46.718 64.5713C44.999 65.3045 43.1496 65.6821 41.2808 65.6815H41.0174C39.5072 65.6813 38.0071 65.4333 36.5772 64.9476L22.8994 60.0935V61.6741C22.9018 61.8024 22.8791 61.9302 22.8322 62.0498C22.7852 62.1695 22.7152 62.2788 22.6262 62.3713C22.537 62.4639 22.4305 62.5382 22.313 62.5896C22.1952 62.641 22.0684 62.6688 21.9399 62.6712H11.9496C11.8169 62.6737 11.6852 62.6498 11.5622 62.6007C11.439 62.5518 11.3268 62.4788 11.2324 62.3858C11.1378 62.2931 11.0625 62.1823 11.0113 62.06C10.96 61.9377 10.9336 61.8065 10.9336 61.6741ZM30.7072 42.559H22.8994V57.9113L37.2357 63.1228C38.4485 63.5305 39.719 63.7401 40.9986 63.7435H41.262C42.8655 63.7356 44.4513 63.4095 45.9278 62.7841L67.7334 53.5652C68.0799 53.4228 68.3761 53.1801 68.584 52.8685C68.7917 52.5568 68.9017 52.1901 68.8999 51.8155C68.9166 51.3956 68.7923 50.9822 68.5467 50.6413C68.3012 50.3004 67.9486 50.0513 67.5453 49.9341C67.1189 49.7849 66.6546 49.7849 66.2283 49.9341L51.8167 54.4307C51.4464 54.7851 51.0124 55.066 50.5373 55.2585C50.3236 55.3445 50.1033 55.4137 49.8788 55.4654H49.7283C49.4845 55.4933 49.2384 55.4933 48.9946 55.4654H33.9433V53.4711H48.9946C49.1759 53.4894 49.3588 53.4894 49.5402 53.4711H49.7283L50.0293 53.3206L50.2363 53.2077C50.3494 53.1357 50.451 53.0469 50.5373 52.9442H50.6502C50.7843 52.7901 50.8982 52.6194 50.9888 52.4364L51.2522 51.9096C51.4272 51.5572 51.5072 51.1653 51.484 50.7725C51.4609 50.3798 51.3356 49.9999 51.1205 49.6707C50.9143 49.3612 50.6344 49.1082 50.3059 48.9341C49.9776 48.7599 49.6109 48.6705 49.2391 48.6735H40.9421C40.747 48.6751 40.5564 48.6158 40.3965 48.5042L32.3629 43.0668C31.8752 42.7337 31.2978 42.5567 30.7072 42.559ZM20.51 41.5618H13.3042V59.5669H20.51V41.5618Z" fill="url(#paint0_linear_808_17690)"/>
<defs>
<linearGradient id="paint0_linear_808_17690" x1="69.8229" y1="64.5675" x2="69.8229" y2="14.3188" gradientUnits="userSpaceOnUse">
<stop stop-color="#002D85"/>
<stop offset="1" stop-color="#013AA9"/>
</linearGradient>
</defs>
</svg>
