<svg width="81" height="80" viewBox="0 0 81 80" fill="none" xmlns="http://www.w3.org/2000/svg">
<path fill-rule="evenodd" clip-rule="evenodd" d="M20.8316 18.6817V11.7364C20.8316 10.7717 21.6033 10 22.5679 10C23.5326 10 24.3043 10.7717 24.3043 11.7364V18.6817C24.3043 19.6464 23.5326 20.4181 22.5679 20.4181C21.7962 20.4181 20.8316 19.6464 20.8316 18.6817ZM50.7352 20.4181C51.6998 20.4181 52.4716 19.6464 52.4716 18.6817V11.7364C52.4716 10.7717 51.6998 10 50.7352 10C49.7706 10 48.9989 10.7717 48.9989 11.7364V18.6817C48.9989 19.6464 49.7706 20.4181 50.7352 20.4181ZM27.9699 31.029H21.0245V37.9744H27.9699V31.029ZM20.8316 48.5853H27.777V41.64H20.8316V48.5853ZM31.4426 37.9744H38.3879V31.029H31.4426V37.9744ZM31.4426 48.5853H38.3879V41.64H31.4426V48.5853ZM17.3589 51.6722V27.3634H55.9442V29.2927H59.4169V20.611C59.4169 18.4888 57.6806 16.7525 55.5584 16.7525H54.015V18.4888C54.015 20.4181 52.4716 21.9615 50.5423 21.9615C48.613 21.9615 47.0696 20.4181 47.0696 18.4888V16.7525H26.0406V18.4888C26.0406 20.4181 24.4972 21.9615 22.5679 21.9615C20.6387 21.9615 19.0953 20.4181 19.0953 18.4888V16.7525H17.7448C15.6226 16.7525 13.8862 18.4888 13.8862 20.611V51.4792C13.8862 53.6014 15.6226 55.3378 17.7448 55.3378H38.5808V51.8651H17.7448C17.5518 52.058 17.3589 51.8651 17.3589 51.6722ZM59.2244 46.8491V46.0774C59.2244 44.9198 58.8385 43.7623 58.2597 43.1835C57.681 42.4118 56.7163 42.0259 55.3658 41.833V40.4825H53.4366V41.833C52.0861 42.0259 50.9285 42.4118 50.1568 43.1835C49.3851 43.9552 48.9993 44.9198 48.9993 46.0774C48.9993 46.8491 49.1922 47.8137 49.578 48.3925C49.9639 49.1642 50.3497 49.5501 50.7356 49.9359C51.1214 50.3218 52.0861 50.9005 53.4366 51.6722C54.2083 52.0581 54.5941 52.6369 54.7871 53.0227C54.98 53.4086 54.98 54.1803 54.98 54.952C54.98 55.3379 54.98 55.5308 54.7871 55.7237C54.5941 55.9166 54.4012 55.9166 54.2083 55.9166C53.8224 55.9166 53.6295 55.7237 53.6295 55.5308C53.6295 55.4748 53.6133 55.3703 53.5903 55.2218C53.5338 54.858 53.4366 54.2306 53.4366 53.4086V52.8298H49.1922V53.6015C49.1922 55.5308 49.578 56.8813 50.5427 57.46C51.3144 58.2318 52.279 58.6176 53.4366 58.8105V60.354H55.3658V58.8105C56.7163 58.6176 57.8739 58.0388 58.6456 57.2671C59.4173 56.4954 59.8031 55.1449 59.8031 53.7944C59.8031 52.8298 59.6102 52.0581 59.4173 51.4793C59.2244 50.9005 58.8385 50.3218 58.4527 49.9359C58.2597 49.743 57.9703 49.5501 57.6086 49.3089C57.2469 49.0677 56.8128 48.7784 56.3305 48.3925C55.5048 47.9207 54.9676 47.521 54.5865 47.2375C54.3444 47.0573 54.1653 46.9241 54.0153 46.8491C53.8224 46.6562 53.6295 46.0774 53.6295 45.4986C53.6295 45.1127 53.6295 44.7269 53.8224 44.534C54.0154 44.341 54.2083 44.1481 54.4012 44.1481C54.7871 44.1481 54.98 44.341 54.98 44.534C54.98 44.5983 55.0014 44.7055 55.03 44.8484C55.0872 45.1342 55.1729 45.5629 55.1729 46.0774V46.8491H59.2244ZM44.5616 31.0288H64.2401C66.1693 31.0288 67.9057 32.5722 67.9057 34.5015V66.3344C67.9057 68.2637 66.3623 70 64.2401 70H44.5616C42.6323 70 40.896 68.4566 40.896 66.3344V59.7749V58.8102V34.6944C40.896 32.7652 42.4394 31.0288 44.5616 31.0288ZM43.404 58.8102V39.5176H65.3976V61.5112H43.404V59.7749V58.8102ZM64.2401 67.6849C64.8189 67.6849 65.3976 67.299 65.3976 66.5273V64.0193H43.404V66.5273C43.404 67.1061 43.7899 67.6849 44.5616 67.6849H64.2401ZM43.404 37.0095H65.3976V34.5015C65.3976 33.9227 65.0118 33.3439 64.2401 33.3439H44.5616C43.9828 33.3439 43.404 33.7298 43.404 34.5015V37.0095Z" fill="url(#paint0_linear_808_17685)"/>
<defs>
<linearGradient id="paint0_linear_808_17685" x1="66.9395" y1="68.6986" x2="66.9395" y2="10" gradientUnits="userSpaceOnUse">
<stop stop-color="#002D85"/>
<stop offset="1" stop-color="#013AA9"/>
</linearGradient>
</defs>
</svg>
