<svg width="80" height="80" viewBox="0 0 80 80" fill="none" xmlns="http://www.w3.org/2000/svg">
<path fill-rule="evenodd" clip-rule="evenodd" d="M23.9871 58.4837H55.8862C63.3251 58.4837 69.6294 52.3225 69.6294 44.9038C69.6294 37.4852 63.5773 31.3238 56.0123 31.3238C55.0037 31.3238 53.995 31.4497 52.9863 31.7011C51.4733 25.6656 46.0517 21.5161 39.7476 21.5161C33.4434 21.5161 28.1479 25.6656 26.5088 31.5754C26.41 31.5613 26.3128 31.5472 26.2168 31.5333C25.4552 31.423 24.7708 31.3238 23.9871 31.3238C16.5482 31.3238 10.3701 37.4852 10.3701 44.9038C10.3701 52.3225 16.4221 58.4837 23.9871 58.4837ZM12.8918 44.778C12.8918 38.7425 17.809 33.713 23.9871 33.713C24.9958 33.713 26.0045 33.8387 27.1393 34.2159L28.5261 34.5931L28.7783 33.21C29.6609 27.8032 34.3259 23.9051 39.7476 23.9051C45.2952 23.9051 49.8342 27.9289 50.7168 33.3357L50.9689 34.8446L52.356 34.3416C53.4907 33.9644 54.7515 33.713 55.8862 33.713C61.9382 33.713 66.9816 38.7425 66.9816 44.778C66.9816 50.8136 62.0644 55.8433 55.8862 55.8433H40.1279V53.957C42.2714 53.7056 44.0365 52.8253 45.0452 51.568C46.1799 50.3105 46.6843 48.4245 46.6843 46.161C46.6843 44.778 46.432 43.5206 46.0539 42.6404C45.6755 41.6344 45.1713 41.0057 44.5409 40.3771C43.9104 39.8741 42.9018 39.1197 41.2627 38.1138C39.3714 36.9821 38.2366 36.2276 37.8584 35.7246C37.4801 35.3475 37.228 34.593 37.228 33.587C37.228 32.9584 37.3541 32.5811 37.4801 32.204C37.6063 31.9524 37.9845 31.701 38.3628 31.701C38.8671 31.701 39.1193 31.8267 39.3714 32.204C39.4975 32.5811 39.6236 33.3356 39.6236 34.4673V35.4732H46.432V34.4673C46.432 32.5811 45.9278 31.0723 44.9192 30.0664C43.9104 29.0604 42.3974 28.306 40.5062 28.0545V26.0426H37.6062V28.0545C35.4629 28.306 33.8238 28.9347 32.689 30.0664C31.5543 31.198 31.05 32.7069 31.05 34.593C31.05 35.8505 31.3021 37.1078 31.8065 38.1138C32.3107 39.1197 32.9413 39.9998 33.5716 40.5028C34.3281 41.1315 35.5889 42.0117 37.6062 43.1433C38.741 43.8977 39.4975 44.5265 39.6236 45.1552C39.8758 45.7839 39.8758 46.7898 39.8758 48.1729C39.8758 48.8016 39.7496 49.1789 39.4975 49.4304C39.2454 49.6818 38.9931 49.8075 38.4889 49.8075C37.9845 49.8075 37.7324 49.5561 37.4801 49.1789C37.3541 48.8017 37.228 47.6699 37.228 46.0353V44.5265H30.7978V45.7839C30.7978 48.6759 31.4281 50.6878 32.689 51.8194C33.9499 52.9511 35.4629 53.5798 37.228 53.8313V55.8433H23.9871C17.9351 55.8433 12.8918 50.8136 12.8918 44.778Z" fill="url(#paint0_linear_725_19525)"/>
<defs>
<linearGradient id="paint0_linear_725_19525" x1="12.0101" y1="21.5161" x2="63.7078" y2="53.3557" gradientUnits="userSpaceOnUse">
<stop stop-color="#002D85"/>
<stop offset="1" stop-color="#DE0000"/>
</linearGradient>
</defs>
</svg>
