<svg width="80" height="80" viewBox="0 0 80 80" fill="none" xmlns="http://www.w3.org/2000/svg">
<path fill-rule="evenodd" clip-rule="evenodd" d="M19.9356 18.6817V11.7364C19.9356 10.7717 20.7073 10 21.6719 10C22.6366 10 23.4083 10.7717 23.4083 11.7364V18.6817C23.4083 19.6464 22.6366 20.4181 21.6719 20.4181C20.9002 20.4181 19.9356 19.6464 19.9356 18.6817ZM49.8392 20.4181C50.8039 20.4181 51.5756 19.6464 51.5756 18.6817V11.7364C51.5756 10.7717 50.8039 10 49.8392 10C48.8746 10 48.1029 10.7717 48.1029 11.7364V18.6817C48.1029 19.6464 48.8746 20.4181 49.8392 20.4181ZM27.0739 31.029H20.1285V37.9744H27.0739V31.029ZM19.9356 48.5853H26.881V41.64H19.9356V48.5853ZM30.5466 37.9744H37.4919V31.029H30.5466V37.9744ZM30.5466 48.5853H37.4919V41.64H30.5466V48.5853ZM16.4629 51.6722V27.3634H55.0482V29.2927H58.5209V20.611C58.5209 18.4888 56.7846 16.7525 54.6624 16.7525H53.119V18.4888C53.119 20.4181 51.5756 21.9615 49.6463 21.9615C47.717 21.9615 46.1736 20.4181 46.1736 18.4888V16.7525H25.1446V18.4888C25.1446 20.4181 23.6012 21.9615 21.6719 21.9615C19.7427 21.9615 18.1993 20.4181 18.1993 18.4888V16.7525H16.8488C14.7266 16.7525 12.9902 18.4888 12.9902 20.611V51.4792C12.9902 53.6014 14.7266 55.3378 16.8488 55.3378H37.6848V51.8651H16.8488C16.6558 52.058 16.4629 51.8651 16.4629 51.6722ZM58.3284 46.8491V46.0774C58.3284 44.9198 57.9425 43.7623 57.3637 43.1835C56.785 42.4118 55.8203 42.0259 54.4698 41.833V40.4825H52.5406V41.833C51.1901 42.0259 50.0325 42.4118 49.2608 43.1835C48.4891 43.9552 48.1033 44.9198 48.1033 46.0774C48.1033 46.8491 48.2962 47.8137 48.682 48.3925C49.0679 49.1642 49.4537 49.5501 49.8396 49.9359C50.2254 50.3218 51.1901 50.9005 52.5406 51.6722C53.3123 52.0581 53.6981 52.6369 53.8911 53.0227C54.084 53.4086 54.084 54.1803 54.084 54.952C54.084 55.3379 54.084 55.5308 53.8911 55.7237C53.6981 55.9166 53.5052 55.9166 53.3123 55.9166C52.9264 55.9166 52.7335 55.7237 52.7335 55.5308C52.7335 55.4748 52.7173 55.3703 52.6943 55.2218C52.6379 54.858 52.5406 54.2306 52.5406 53.4086V52.8298H48.2962V53.6015C48.2962 55.5308 48.682 56.8813 49.6467 57.46C50.4184 58.2318 51.383 58.6176 52.5406 58.8105V60.354H54.4698V58.8105C55.8203 58.6176 56.9779 58.0388 57.7496 57.2671C58.5213 56.4954 58.9072 55.1449 58.9072 53.7944C58.9072 52.8298 58.7142 52.0581 58.5213 51.4793C58.3284 50.9005 57.9425 50.3218 57.5567 49.9359C57.3637 49.743 57.0743 49.5501 56.7126 49.3089C56.3509 49.0677 55.9168 48.7784 55.4345 48.3925C54.6088 47.9207 54.0716 47.521 53.6905 47.2375C53.4484 47.0573 53.2693 46.9241 53.1194 46.8491C52.9264 46.6562 52.7335 46.0774 52.7335 45.4986C52.7335 45.1127 52.7335 44.7269 52.9264 44.534C53.1194 44.341 53.3123 44.1481 53.5052 44.1481C53.8911 44.1481 54.084 44.341 54.084 44.534C54.084 44.5983 54.1054 44.7055 54.134 44.8484C54.1912 45.1342 54.2769 45.5629 54.2769 46.0774V46.8491H58.3284ZM43.6656 31.0288H63.3441C65.2734 31.0288 67.0097 32.5722 67.0097 34.5015V66.3344C67.0097 68.2637 65.4663 70 63.3441 70H43.6656C41.7363 70 40 68.4566 40 66.3344V59.7749V58.8102V34.6944C40 32.7652 41.5434 31.0288 43.6656 31.0288ZM42.508 58.8102V39.5176H64.5017V61.5112H42.508V59.7749V58.8102ZM63.3441 67.6849C63.9229 67.6849 64.5017 67.299 64.5017 66.5273V64.0193H42.508V66.5273C42.508 67.1061 42.8939 67.6849 43.6656 67.6849H63.3441ZM42.508 37.0095H64.5017V34.5015C64.5017 33.9227 64.1158 33.3439 63.3441 33.3439H43.6656C43.0868 33.3439 42.508 33.7298 42.508 34.5015V37.0095Z" fill="url(#paint0_linear_720_18849)"/>
<defs>
<linearGradient id="paint0_linear_720_18849" x1="14.4852" y1="10" x2="72.5407" y2="30.0818" gradientUnits="userSpaceOnUse">
<stop stop-color="#002D85"/>
<stop offset="1" stop-color="#DE0000"/>
</linearGradient>
</defs>
</svg>
