<svg width="81" height="80" viewBox="0 0 81 80" fill="none" xmlns="http://www.w3.org/2000/svg">
<path fill-rule="evenodd" clip-rule="evenodd" d="M24.1831 58.7658H56.481C64.0129 58.7658 70.396 52.5105 70.396 44.9786C70.396 37.4467 64.2682 31.1913 56.6087 31.1913C55.5874 31.1913 54.5662 31.3191 53.5448 31.5743C52.0129 25.4467 46.5236 21.2339 40.1407 21.2339C33.7576 21.2339 28.396 25.4467 26.7364 31.4467C26.6364 31.4324 26.5379 31.4181 26.4407 31.404C25.6696 31.292 24.9767 31.1913 24.1831 31.1913C16.6513 31.1913 10.396 37.4467 10.396 44.9786C10.396 52.5105 16.5236 58.7658 24.1831 58.7658ZM12.9492 44.8508C12.9492 38.7232 17.9279 33.6169 24.1831 33.6169C25.2045 33.6169 26.2257 33.7446 27.3747 34.1275L28.7789 34.5105L29.0343 33.1063C29.9279 27.6169 34.6512 23.6594 40.1407 23.6594C45.7576 23.6594 50.3534 27.7446 51.247 33.2339L51.5022 34.7658L52.9066 34.2551C54.0555 33.8722 55.3321 33.6169 56.481 33.6169C62.6086 33.6169 67.7151 38.7232 67.7151 44.8508C67.7151 50.9786 62.7364 56.085 56.481 56.085H40.5236V54.1701C42.6938 53.9148 44.481 53.0211 45.5024 51.7446C46.6513 50.468 47.1619 48.5532 47.1619 46.2552C47.1619 44.851 46.9065 43.5744 46.5236 42.6808C46.1406 41.6594 45.63 41.0211 44.9917 40.3829C44.3534 39.8723 43.3322 39.1063 41.6726 38.0851C39.7577 36.9361 38.6087 36.1701 38.2258 35.6594C37.8427 35.2765 37.5874 34.5106 37.5874 33.4892C37.5874 32.851 37.7151 32.468 37.8427 32.0851C37.9705 31.8297 38.3534 31.5744 38.7364 31.5744C39.247 31.5744 39.5024 31.702 39.7577 32.0851C39.8853 32.468 40.0129 33.2339 40.0129 34.3829V35.4042H46.9065V34.3829C46.9065 32.468 46.396 30.9361 45.3748 29.9148C44.3534 28.8935 42.8215 28.1275 40.9067 27.8723V25.8297H37.9704V27.8723C35.8003 28.1275 34.1407 28.7658 32.9917 29.9148C31.8428 31.0637 31.3322 32.5956 31.3322 34.5106C31.3322 35.7872 31.5874 37.0637 32.0981 38.0851C32.6087 39.1063 33.2471 39.9999 33.8853 40.5106C34.6513 41.1489 35.9279 42.0425 37.9704 43.1913C39.1194 43.9573 39.8853 44.5956 40.0129 45.2339C40.2684 45.8723 40.2684 46.8935 40.2684 48.2978C40.2684 48.9361 40.1406 49.3191 39.8853 49.5744C39.63 49.8297 39.3746 49.9573 38.8641 49.9573C38.3534 49.9573 38.0981 49.702 37.8427 49.3191C37.7151 48.9361 37.5874 47.7871 37.5874 46.1275V44.5956H31.0769V45.8723C31.0769 48.8084 31.7151 50.851 32.9917 51.9999C34.2684 53.1489 35.8003 53.7872 37.5874 54.0425V56.085H24.1831C18.0555 56.085 12.9492 50.9786 12.9492 44.8508Z" fill="url(#paint0_linear_808_17889)"/>
<defs>
<linearGradient id="paint0_linear_808_17889" x1="69.3228" y1="57.9517" x2="69.3228" y2="21.2339" gradientUnits="userSpaceOnUse">
<stop stop-color="#002D85"/>
<stop offset="1" stop-color="#013AA9"/>
</linearGradient>
</defs>
</svg>
