<svg width="81" height="81" viewBox="0 0 81 81" fill="none" xmlns="http://www.w3.org/2000/svg">
<path fill-rule="evenodd" clip-rule="evenodd" d="M35.1539 10.5H61.0875C63.7912 10.5 66.0037 13.0472 66.1266 16.1604V64.8396C66.1266 67.9529 63.9143 70.5 61.2102 70.5H35.1539C32.4499 70.5 30.2375 67.9529 30.2375 64.8396V53.3773H14.874V27.4811H30.2375V16.1604C30.2375 13.0472 32.4499 10.5 35.1539 10.5ZM16.7177 29.6038V51.113H43.7574V49.9812L17.9468 49.9812V31.019H43.7574V30.8774V29.6038H16.7177ZM43.7574 31.7266H18.5614V49.2738H43.7574V31.7266ZM61.2102 66.5378C62.0707 66.5378 62.8082 65.6886 62.8082 64.698V62.4341H33.556V64.698C33.556 65.6886 34.2936 66.5378 35.1539 66.5378H61.2102ZM33.556 58.6131H62.8082V22.2453H33.556V27.4811H43.8804V25.217H45.3553V55.7832H43.8804V53.2357H33.556V58.6131ZM33.556 18.5661H62.8082V16.1604C62.8082 15.0283 62.0707 14.1792 61.2102 14.3208H35.1539C34.2936 14.3208 33.556 15.1698 33.556 16.1604V18.5661ZM32.6958 40.0756C32.5159 39.8683 32.2043 39.6612 31.8093 39.3986C31.6645 39.3024 31.5086 39.1988 31.3438 39.0849C31.1381 38.927 30.9515 38.7911 30.7867 38.6711L30.7865 38.6709L30.7864 38.6709C30.3607 38.3609 30.0806 38.1569 29.992 37.9529C29.7462 37.6697 29.6233 37.3869 29.6233 36.9622C29.6233 36.6792 29.6233 36.5378 29.7462 36.3962C29.8691 36.2546 29.992 36.2546 30.1149 36.2546C30.3606 36.2546 30.4835 36.3962 30.4835 36.5378C30.4835 36.5896 30.5 36.6792 30.5209 36.7929C30.557 36.99 30.6065 37.2592 30.6065 37.5285V37.9529H33.1877V37.3869C33.1877 36.5378 32.9418 35.8302 32.5731 35.2642C32.2043 34.6982 31.5897 34.4151 30.7294 34.2735V33.2831H29.5003V34.2735C28.6399 34.4151 28.0254 34.6982 27.5337 35.2642C27.0422 35.8302 26.9193 36.5378 26.9193 37.3869C26.9193 37.9529 27.0422 38.5189 27.2879 39.0849C27.5337 39.5095 27.7796 39.934 28.0254 40.2172C28.2055 40.4243 28.5834 40.7076 29.0625 41.0668C29.2375 41.1979 29.426 41.3392 29.6233 41.4906C30.1149 41.7735 30.3606 42.1983 30.4835 42.4811C30.6065 42.7643 30.6065 43.1887 30.6065 43.8961V43.8961C30.6065 44.1793 30.6065 44.3209 30.4835 44.4622C30.3606 44.6038 30.2377 44.6038 30.1149 44.6038C29.8691 44.6038 29.7462 44.4622 29.7462 44.3209C29.7462 44.2799 29.7358 44.2031 29.7212 44.0942L29.7212 44.0942C29.6852 43.8273 29.6233 43.3671 29.6233 42.7643V42.0567H27.0422V42.6227C27.0422 43.8961 27.2879 44.887 27.7796 45.4528C28.2713 46.0188 28.8857 46.302 29.6233 46.4432V47.5755H30.8523V46.4432C31.7126 46.302 32.4499 45.8774 32.8189 45.3114C33.3104 44.7454 33.4333 43.8961 33.4333 42.7643C33.4333 42.0567 33.3104 41.4906 33.1877 41.066C33.0646 40.6416 32.9418 40.3584 32.6958 40.0756ZM49.0426 38.0941V40.9244C51.378 40.9244 53.3444 43.1883 53.3444 45.8771H55.8025C55.9254 41.6321 52.8529 38.0941 49.0426 38.0941ZM51.2537 45.0284C51.2537 46.0188 50.5164 46.8679 49.6561 46.8679C48.7956 46.8679 48.1812 46.0188 48.0581 45.0284C48.0581 44.0378 48.7956 43.1885 49.6561 43.1885C50.5164 43.1885 51.2537 44.0378 51.2537 45.0284ZM57.892 46.0187H60.3501C60.3501 38.8018 55.311 32.9997 49.0426 32.9997V35.83C53.959 35.83 57.892 40.3584 57.892 46.0187Z" fill="url(#paint0_linear_720_18828)"/>
<defs>
<linearGradient id="paint0_linear_720_18828" x1="16.2924" y1="10.5" x2="71.9682" y2="28.7722" gradientUnits="userSpaceOnUse">
<stop stop-color="#002D85"/>
<stop offset="1" stop-color="#DE0000"/>
</linearGradient>
</defs>
</svg>
