<svg width="81" height="80" viewBox="0 0 81 80" fill="none" xmlns="http://www.w3.org/2000/svg">
<path fill-rule="evenodd" clip-rule="evenodd" d="M24.8833 58.4837H56.7824C64.2213 58.4837 70.5256 52.3225 70.5256 44.9038C70.5256 37.4852 64.4735 31.3238 56.9085 31.3238C55.8999 31.3238 54.8912 31.4497 53.8825 31.7011C52.3695 25.6656 46.9479 21.5161 40.6438 21.5161C34.3396 21.5161 29.0441 25.6656 27.4051 31.5754C27.3062 31.5613 27.209 31.5472 27.113 31.5333C26.3514 31.423 25.6671 31.3238 24.8833 31.3238C17.4444 31.3238 11.2663 37.4852 11.2663 44.9038C11.2663 52.3225 17.3183 58.4837 24.8833 58.4837ZM13.788 44.778C13.788 38.7425 18.7052 33.713 24.8833 33.713C25.8921 33.713 26.9007 33.8387 28.0355 34.2159L29.4223 34.5931L29.6745 33.21C30.5571 27.8032 35.2222 23.9051 40.6438 23.9051C46.1914 23.9051 50.7304 27.9289 51.613 33.3357L51.8651 34.8446L53.2522 34.3416C54.3869 33.9644 55.6477 33.713 56.7824 33.713C62.8344 33.713 67.8778 38.7425 67.8778 44.778C67.8778 50.8136 62.9606 55.8433 56.7824 55.8433H41.0241V53.957C43.1676 53.7056 44.9327 52.8253 45.9415 51.568C47.0761 50.3105 47.5805 48.4245 47.5805 46.161C47.5805 44.778 47.3283 43.5206 46.9501 42.6404C46.5718 41.6344 46.0675 41.0057 45.4371 40.3771C44.8066 39.8741 43.798 39.1197 42.159 38.1138C40.2677 36.9821 39.1328 36.2276 38.7547 35.7246C38.3763 35.3475 38.1242 34.593 38.1242 33.587C38.1242 32.9584 38.2503 32.5811 38.3763 32.204C38.5025 31.9524 38.8807 31.701 39.259 31.701C39.7633 31.701 40.0155 31.8267 40.2677 32.204C40.3937 32.5811 40.5198 33.3356 40.5198 34.4673V35.4732H47.3283V34.4673C47.3283 32.5811 46.824 31.0723 45.8154 30.0664C44.8066 29.0604 43.2936 28.306 41.4025 28.0545V26.0426H38.5024V28.0545C36.3591 28.306 34.72 28.9347 33.5852 30.0664C32.4505 31.198 31.9462 32.7069 31.9462 34.593C31.9462 35.8505 32.1983 37.1078 32.7027 38.1138C33.2069 39.1197 33.8375 39.9998 34.4678 40.5028C35.2243 41.1315 36.4852 42.0117 38.5024 43.1433C39.6372 43.8977 40.3937 44.5265 40.5198 45.1552C40.772 45.7839 40.772 46.7898 40.772 48.1729C40.772 48.8016 40.6458 49.1789 40.3937 49.4304C40.1416 49.6818 39.8893 49.8075 39.3851 49.8075C38.8807 49.8075 38.6286 49.5561 38.3763 49.1789C38.2503 48.8016 38.1242 47.6699 38.1242 46.0353V44.5265H31.694V45.7839C31.694 48.6759 32.3244 50.6878 33.5852 51.8194C34.8461 52.9511 36.3591 53.5798 38.1242 53.8313V55.8433H24.8833C18.8313 55.8433 13.788 50.8136 13.788 44.778Z" fill="url(#paint0_linear_808_17975)"/>
<defs>
<linearGradient id="paint0_linear_808_17975" x1="69.4657" y1="57.6819" x2="69.4657" y2="21.5161" gradientUnits="userSpaceOnUse">
<stop stop-color="#002D85"/>
<stop offset="1" stop-color="#013AA9"/>
</linearGradient>
</defs>
</svg>
