<svg width="81" height="80" viewBox="0 0 81 80" fill="none" xmlns="http://www.w3.org/2000/svg">
<path fill-rule="evenodd" clip-rule="evenodd" d="M33.5304 15.3604V18.934C33.5304 19.3102 33.9066 19.8745 34.4708 19.8745C35.0351 19.8745 35.4113 19.4983 35.4113 18.934V15.3604C35.4113 14.7961 35.0351 14.4199 34.4708 14.4199C33.9066 14.4199 33.5304 14.7961 33.5304 15.3604ZM49.894 18.934C49.894 19.4983 49.5179 19.8745 48.9536 19.8745C48.3893 19.8745 48.0132 19.3102 48.0132 18.934V15.3604C48.0132 14.7961 48.3893 14.4199 48.9536 14.4199C49.5179 14.4199 49.894 14.7961 49.894 15.3604V18.934ZM51.5868 43.3855C55.7247 43.3855 58.9222 39.9999 58.9222 36.05C58.9222 32.1002 55.5367 28.9027 51.5868 28.7146C47.4489 28.7146 44.2514 32.1002 44.2514 36.05C44.2514 40.188 47.637 43.3855 51.5868 43.3855ZM51.5868 30.5955C54.5962 30.5955 57.0414 33.0406 57.0414 36.05C57.0414 39.0594 54.5962 41.5046 51.5868 41.5046C48.5774 41.5046 46.1323 39.0594 46.1323 36.05C46.1323 33.0406 48.5774 30.5955 51.5868 30.5955ZM33.5304 25.329H37.1041V28.9027H33.5304V25.329ZM37.1041 34.3572H33.5304V30.7836H37.1041V34.3572ZM42.5586 28.9027H38.9849V25.329H42.5586V28.9027ZM42.5586 34.3572H38.9849V30.7836H42.5586V34.3572ZM31.6495 23.2601V35.8619H42.3705V37.7428H31.6495C30.7091 37.7428 29.7686 36.8024 29.7686 35.6739V19.6864C29.7686 18.5579 30.521 17.6174 31.6495 17.6174H32.4019V18.5579C32.4019 19.6864 33.3423 20.4387 34.2827 20.4387C35.4113 20.4387 36.1636 19.4983 36.1636 18.5579V17.6174H47.0727V18.5579C47.0727 19.6864 48.0132 20.4387 48.9536 20.4387C50.0821 20.4387 50.8345 19.4983 50.8345 18.5579V17.6174H51.5868C52.5273 17.6174 53.4677 18.5579 53.4677 19.6864V26.8337H51.5868V23.2601H31.6495ZM48.0132 25.329V28.9027H44.4395V25.329H48.0132ZM51.7749 36.05H54.4081C54.7843 36.05 55.1605 36.6143 55.3486 36.9905C55.3486 37.5547 54.9724 37.9309 54.4081 37.9309H50.8345C50.2702 37.9309 49.894 37.5547 49.894 36.9905V33.4168C49.894 32.8525 50.2702 32.4764 50.8345 32.4764C51.3987 32.4764 51.7749 32.8525 51.7749 33.4168V36.05ZM10.396 61.6299V39.6237C10.396 39.0594 10.9602 38.4951 11.5245 38.6832H21.4931C22.0574 38.6832 22.4336 39.0594 22.4336 39.6237V40.5641H30.1452C31.2737 40.5641 32.2141 40.7522 32.9665 41.3164L40.6781 46.3948H48.5778C50.0825 46.3948 51.3991 47.1472 52.1514 48.2757C52.9038 49.2161 53.0919 50.5327 52.7157 51.6613L65.1295 47.8995C65.8819 47.7114 66.8223 47.5233 67.7627 47.8995C69.2674 48.4638 70.396 49.9685 70.396 51.6613C70.396 53.166 69.4555 54.6707 67.9508 55.2349L46.1326 64.4512C44.4398 65.2036 42.559 65.5798 40.6781 65.5798H40.49C38.9853 65.5798 37.4806 65.3917 35.9759 64.8274L22.2455 59.9371V61.6299C22.2455 62.1942 21.8693 62.5704 21.3051 62.5704H11.3364C10.7721 62.5704 10.396 62.1942 10.396 61.6299ZM30.1452 42.6331H22.4336H22.2455V58.2443L36.5402 63.3227C37.6687 63.6989 38.9853 63.887 40.3019 63.887H40.49C42.1828 63.887 43.6875 63.5108 45.1922 62.9465L67.0104 53.7302C67.7627 53.5422 68.1389 52.7898 68.1389 52.0374C68.1389 51.097 67.5746 50.3447 66.8223 50.1566C66.4461 49.9685 65.8819 49.9685 65.5057 50.1566L51.0229 54.6707C50.8829 54.7407 50.7428 54.8368 50.5931 54.9395C50.3406 55.1128 50.0605 55.305 49.7063 55.423C49.6123 55.423 49.5182 55.4701 49.4242 55.5171C49.3301 55.5641 49.2361 55.6111 49.142 55.6111H48.954H48.2016H33.1546V53.5422H48.2016H48.7659H48.954C49.048 53.5422 49.095 53.4951 49.142 53.4481C49.1891 53.4011 49.2361 53.3541 49.3301 53.3541C49.3301 53.166 49.5182 53.166 49.5182 53.166C49.5982 53.166 49.6441 53.166 49.685 53.1515C49.7403 53.132 49.7862 53.086 49.8944 52.9779H50.0825C50.2706 52.7898 50.4587 52.6017 50.4587 52.4136L50.6467 51.8494C51.0229 51.097 50.8348 50.3447 50.4587 49.5923C50.0825 49.028 49.3301 48.6519 48.5778 48.6519H40.3019C40.1138 48.6519 39.9257 48.6519 39.7377 48.4638L31.838 43.1973C31.2737 42.8211 30.7094 42.6331 30.1452 42.6331ZM19.9884 41.5045H12.8411V59.561H19.9884V41.5045Z" fill="url(#paint0_linear_808_17681)"/>
<defs>
<linearGradient id="paint0_linear_808_17681" x1="69.3228" y1="64.4701" x2="69.3228" y2="14.4199" gradientUnits="userSpaceOnUse">
<stop stop-color="#002D85"/>
<stop offset="1" stop-color="#013AA9"/>
</linearGradient>
</defs>
</svg>
