<svg width="81" height="80" viewBox="0 0 81 80" fill="none" xmlns="http://www.w3.org/2000/svg">
<path fill-rule="evenodd" clip-rule="evenodd" d="M57.3 38.642V37.6948C57.3452 37.0247 57.2757 36.3519 57.0948 35.7053C56.9994 35.5748 56.8746 35.4687 56.7306 35.3954C56.5866 35.3223 56.4273 35.2841 56.2658 35.2841C56.1041 35.2841 55.9448 35.3223 55.8008 35.3954C55.6568 35.4687 55.5321 35.5748 55.4369 35.7053C55.2283 36.0748 55.1348 36.4981 55.1684 36.9211C55.0933 37.5936 55.2862 38.2686 55.7053 38.8001C56.6935 39.5922 57.7503 40.295 58.8632 40.9001C59.9261 41.4937 60.9445 42.1639 61.9104 42.9053C62.5055 43.4591 62.9694 44.1388 63.2684 44.8948C63.6603 45.9003 63.8482 46.9738 63.8211 48.0527C63.9076 49.7581 63.3812 51.4383 62.3368 52.7895C61.1454 54.0432 59.53 54.8087 57.8053 54.9367V57.0843H55.1684V54.8895C53.6455 54.7559 52.2062 54.1359 51.0632 53.1211C50.4071 52.4016 49.9117 51.5508 49.6096 50.6253C49.3074 49.6997 49.2054 48.7206 49.3106 47.7527V46.6473H55.1684V48.0369C55.1258 48.9929 55.1839 49.9509 55.342 50.8946C55.3964 51.0767 55.5136 51.2335 55.6724 51.3375C55.8314 51.4416 56.022 51.4859 56.2105 51.463C56.3792 51.4766 56.5484 51.4476 56.703 51.3786C56.8574 51.3096 56.9921 51.203 57.0948 51.0683C57.3204 50.7284 57.4259 50.3227 57.3948 49.9158C57.4363 48.9909 57.3406 48.0652 57.1105 47.1685C56.7016 46.3763 56.0405 45.7428 55.2316 45.3683C53.4526 44.2631 52.2368 43.458 51.5842 42.9527C50.8832 42.3522 50.3181 41.6095 49.9263 40.7738C49.4478 39.791 49.2097 38.7086 49.2314 37.6159C49.1899 36.8812 49.3003 36.1459 49.5558 35.4559C49.8111 34.7659 50.206 34.1359 50.7158 33.6052C51.9523 32.5167 53.5227 31.8818 55.1684 31.8053V29.9736H57.8684V31.8053C59.3861 31.9023 60.822 32.528 61.9263 33.5738C62.8666 34.6793 63.3469 36.1034 63.2684 37.5525C63.2684 37.7736 63.2684 38.1369 63.2684 38.6264L57.3 38.642ZM70.5 20.4527V59.5474C70.4978 59.678 70.4702 59.8068 70.4182 59.9268C70.3663 60.0467 70.2913 60.1553 70.1975 60.2463C70.1037 60.337 69.9928 60.4086 69.8713 60.4567C69.7498 60.5047 69.6201 60.5284 69.4895 60.5264H11.4948C11.2337 60.5264 10.9829 60.4237 10.7969 60.2406C10.6108 60.0574 10.5042 59.8084 10.5 59.5474V20.4527C10.5042 20.1916 10.6108 19.9426 10.7969 19.7595C10.9829 19.5763 11.2337 19.4737 11.4948 19.4738H69.4895C69.6201 19.4717 69.7498 19.4953 69.8713 19.5433C69.9928 19.5914 70.1037 19.663 70.1975 19.7539C70.2913 19.8448 70.3663 19.9533 70.4182 20.0732C70.4702 20.1931 70.4978 20.3221 70.5 20.4527ZM12.5369 24.9368L16.121 21.4317H12.5369V24.9368ZM12.5369 30.7948L22.0106 21.4317H18.8527L12.4422 27.7475L12.5369 30.7948ZM68.5421 21.4317H24.8999L12.5369 33.558V58.5683H68.5421V21.4317ZM17.5422 40.0001H31.4843V38.042H17.479L17.5422 40.0001ZM17.5422 35.1211H24.5369V33.1632H17.5422V35.1211ZM48.5367 27.2264H52.5474V25.2685H48.5367V27.2264ZM54.5369 27.2264H58.5316V25.2685H54.5369V27.2264ZM60.5369 27.2264H64.5316V25.2685H60.5369V27.2264ZM16.5001 56.6422H35.4474V54.7H16.5001V56.6422ZM37.5 56.6422H39.4895V54.7H37.5V56.6422ZM41.4948 56.6422H43.4999V54.7H41.4948V56.6422ZM43.4999 45.9053V50.7841C43.4978 50.9148 43.4702 51.0438 43.4182 51.1637C43.3663 51.2835 43.2913 51.392 43.1975 51.4829C43.1037 51.5739 42.9929 51.6454 42.8713 51.6936C42.7499 51.7416 42.6201 51.7653 42.4895 51.763H17.4948C17.2336 51.7632 16.9831 51.6606 16.7969 51.4774C16.6108 51.2943 16.5042 51.0453 16.5001 50.7841V45.9053C16.5001 45.7754 16.5258 45.6467 16.576 45.527C16.6262 45.4072 16.6998 45.2985 16.7923 45.2074C16.8849 45.1163 16.9946 45.0445 17.1152 44.9962C17.2359 44.948 17.3649 44.9243 17.4948 44.9264H42.5369C42.6675 44.9243 42.7972 44.9478 42.9187 44.9958C43.0402 45.044 43.1511 45.1155 43.2449 45.2065C43.3387 45.2974 43.4137 45.4059 43.4656 45.5257C43.5176 45.6457 43.5454 45.7746 43.5474 45.9053H43.4999ZM41.5421 46.8685H18.4894V49.8052H41.4948L41.5421 46.8685Z" fill="url(#paint0_linear_720_18856)"/>
<defs>
<linearGradient id="paint0_linear_720_18856" x1="12.1605" y1="19.4736" x2="67.0513" y2="50.2962" gradientUnits="userSpaceOnUse">
<stop stop-color="#002D85"/>
<stop offset="1" stop-color="#DE0000"/>
</linearGradient>
</defs>
</svg>
