<svg width="81" height="80" viewBox="0 0 81 80" fill="none" xmlns="http://www.w3.org/2000/svg">
<path fill-rule="evenodd" clip-rule="evenodd" d="M14.0971 10.5449H66.9926C68.9974 10.5449 70.5396 12.0871 70.3853 14.2461V54.9587C70.3853 56.9634 68.689 58.6598 66.6842 58.6598H58.3566C56.8145 60.973 54.6555 63.132 52.0338 64.3657V66.3705C52.0338 68.0669 50.6459 69.4548 48.9495 69.4548H45.5568C43.8605 69.4548 42.4725 68.0669 42.4725 66.3705V66.0621H37.2293V66.3705C37.2293 68.0669 35.8413 69.4548 34.145 69.4548H30.7523C29.0559 69.4548 27.668 68.0669 27.668 66.3705V63.5947C25.6632 62.3609 23.9668 60.6646 22.7331 58.6598H14.0971C12.0924 58.6598 10.396 56.9634 10.396 54.9587V14.2461C10.396 12.2413 12.0924 10.5449 14.0971 10.5449ZM66.9926 13.0124H14.0971C13.4803 13.0124 13.0176 13.6292 13.0176 14.0919V22.7279H68.0721V14.0919C68.0721 13.475 67.6095 13.0124 66.9926 13.0124ZM49.7206 63.5947C49.7206 62.9778 50.029 62.5152 50.4917 62.3609C53.7302 60.973 56.3518 58.3514 57.5855 55.1129C57.894 54.6502 58.3566 54.3418 58.8193 54.3418H60.824C61.1325 54.3418 61.4409 54.0334 61.4409 53.7249V46.6311C61.4409 46.3227 61.1325 46.0142 60.824 46.0142H58.8193C58.2024 46.0142 57.7398 45.7058 57.5855 45.2432C56.8145 43.0842 55.2723 41.2336 53.4218 39.6914C53.1133 39.383 52.9591 39.0746 52.9591 38.6119V33.2144C51.8796 33.2144 50.029 33.6771 48.3327 36.2987C48.0243 36.7614 47.5616 36.9156 47.099 36.9156C46.7905 36.7614 46.4821 36.7614 46.1737 36.7614C46.3279 37.224 46.3279 37.6867 46.3279 38.1493V38.3035C46.3279 38.9204 45.8653 39.5372 45.0942 39.5372H33.0655C32.4486 39.5372 31.8318 39.0746 31.8318 38.3035V37.8409C26.5885 39.8457 23.0415 44.7805 23.0415 50.178C23.0415 54.9587 25.509 59.2767 29.6728 61.7441C29.9812 61.8983 30.2896 62.3609 30.2896 62.8236V66.3705C30.2896 66.6789 30.598 66.9874 30.9065 66.9874H34.2992C34.6076 66.9874 34.916 66.6789 34.916 66.3705V64.8284C34.916 64.5199 34.916 64.2115 35.2245 63.9031C35.5329 63.7489 35.8413 63.5947 36.1498 63.5947H36.304H43.8605C44.4773 63.5947 45.0942 64.0573 45.0942 64.8284V66.3705C45.0942 66.6789 45.4026 66.9874 45.711 66.9874H49.1038C49.4122 66.9874 49.7206 66.6789 49.7206 66.3705V63.5947ZM38.9256 33.3687C36.7666 33.3687 34.916 34.9108 34.2992 36.9156H43.552C42.9352 34.9108 41.0846 33.3687 38.9256 33.3687ZM38.7714 30.9012C41.393 30.9012 43.552 32.1349 44.94 34.1397H46.4821C49.7718 29.7059 53.7247 30.5781 54.4039 30.728C54.457 30.7397 54.4901 30.747 54.5013 30.747C55.1181 30.9012 55.4265 31.3639 55.4265 31.9807V37.9951C57.1229 39.383 58.665 41.2336 59.5903 43.3926H60.824C62.5204 43.3926 63.9083 44.7805 63.9083 46.4769V53.5707C63.9083 54.496 63.4457 55.2671 62.8288 55.8839H66.6842C67.301 55.8839 67.7637 55.4213 67.7637 54.8044V25.1953H12.7092V54.8044C12.7092 55.4213 13.1718 55.8839 13.7887 55.8839H21.191C20.5741 54.0334 20.1115 52.0286 20.1115 50.0238C20.1115 47.0937 21.0367 44.3179 22.4247 42.0047C20.8825 41.8504 19.803 40.4625 19.803 38.9204V37.5324C19.803 35.8361 21.1909 34.4482 22.8873 34.4482C23.5042 34.4482 24.121 34.9108 24.121 35.6819C24.121 36.2987 23.6584 36.9156 22.8873 36.9156C22.5789 36.9156 22.2705 37.224 22.2705 37.5324V38.9204C22.2705 39.2288 22.5789 39.5372 22.8873 39.5372H24.2753C26.4343 37.224 29.2101 35.5277 32.2944 34.7566C33.5281 32.4434 35.9955 30.9012 38.7714 30.9012ZM18.2606 21.6483C20.1112 21.6483 21.8075 20.1062 21.8075 18.1014C21.8075 16.2508 20.2654 14.5545 18.2606 14.5545C16.41 14.5545 14.7137 16.0966 14.7137 18.1014C14.7137 19.952 16.2558 21.6483 18.2606 21.6483ZM18.2606 17.1761C18.7232 17.1761 19.1859 17.6387 19.1859 18.1014C19.1859 18.564 18.7232 19.0267 18.2606 19.0267C17.7979 19.0267 17.3353 18.564 17.3353 18.1014C17.3353 17.6387 17.6437 17.1761 18.2606 17.1761ZM26.5888 21.6483C28.4393 21.6483 30.1357 20.1062 30.1357 18.1014C30.1357 16.2508 28.5936 14.5545 26.5888 14.5545C24.7382 14.5545 23.0418 16.0966 23.0418 18.1014C23.0418 19.952 24.584 21.6483 26.5888 21.6483ZM26.5888 17.1761C27.0514 17.1761 27.5141 17.6387 27.5141 18.1014C27.5141 18.564 27.0514 19.0267 26.5888 19.0267C26.1261 19.0267 25.6635 18.564 25.6635 18.1014C25.6635 17.6387 26.1261 17.1761 26.5888 17.1761Z" fill="url(#paint0_linear_808_17893)"/>
<defs>
<linearGradient id="paint0_linear_808_17893" x1="69.3228" y1="68.1771" x2="69.3228" y2="10.5449" gradientUnits="userSpaceOnUse">
<stop stop-color="#002D85"/>
<stop offset="1" stop-color="#013AA9"/>
</linearGradient>
</defs>
</svg>
