<svg width="81" height="80" viewBox="0 0 81 80" fill="none" xmlns="http://www.w3.org/2000/svg">
<path fill-rule="evenodd" clip-rule="evenodd" d="M14.2012 10.545H67.0967C69.1014 10.545 70.6436 12.0872 70.4894 14.2462V54.9588C70.4894 56.9636 68.793 58.6599 66.7882 58.6599H58.4606C56.9185 60.9731 54.7595 63.1321 52.1379 64.3659V66.3706C52.1379 68.067 50.7499 69.4549 49.0536 69.4549H45.6609C43.9645 69.4549 42.5766 68.067 42.5766 66.3706V66.0622H37.3333V66.3706C37.3333 68.067 35.9454 69.4549 34.249 69.4549H30.8563C29.1599 69.4549 27.772 68.067 27.772 66.3706V63.5948C25.7672 62.3611 24.0709 60.6647 22.8371 58.6599H14.2012C12.1964 58.6599 10.5 56.9636 10.5 54.9588V14.2462C10.5 12.2414 12.1964 10.545 14.2012 10.545ZM67.0967 13.0125H14.2012C13.5843 13.0125 13.1217 13.6293 13.1217 14.092V22.728H68.1762V14.092C68.1762 13.4751 67.7135 13.0125 67.0967 13.0125ZM49.8246 63.5948C49.8246 62.9779 50.1331 62.5153 50.5957 62.3611C53.8342 60.9731 56.4559 58.3515 57.6896 55.113C57.998 54.6504 58.4607 54.3419 58.9233 54.3419H60.9281C61.2365 54.3419 61.5449 54.0335 61.5449 53.7251V46.6312C61.5449 46.3228 61.2365 46.0144 60.9281 46.0144H58.9233C58.3064 46.0144 57.8438 45.7059 57.6896 45.2433C56.9185 43.0843 55.3764 41.2337 53.5258 39.6916C53.2174 39.3831 53.0631 39.0747 53.0631 38.6121V33.2146C51.9837 33.2146 50.1331 33.6772 48.4367 36.2988C48.1283 36.7615 47.6656 36.9157 47.203 36.9157C46.8946 36.7615 46.5862 36.7615 46.2777 36.7615C46.4319 37.2241 46.4319 37.6868 46.4319 38.1494V38.3036C46.4319 38.9205 45.9693 39.5374 45.1982 39.5374H33.1695C32.5526 39.5374 31.9358 39.0747 31.9358 38.3036V37.841C26.6925 39.8458 23.1456 44.7806 23.1456 50.1781C23.1456 54.9588 25.613 59.2768 29.7768 61.7442C30.0852 61.8984 30.3936 62.3611 30.3936 62.8237V66.3706C30.3936 66.6791 30.7021 66.9875 31.0105 66.9875H34.4032C34.7116 66.9875 35.0201 66.6791 35.0201 66.3706V64.8285C35.0201 64.5201 35.0201 64.2116 35.3285 63.9032C35.6369 63.749 35.9454 63.5948 36.2538 63.5948H36.408H43.9645C44.5814 63.5948 45.1982 64.0574 45.1982 64.8285V66.3706C45.1982 66.6791 45.5066 66.9875 45.8151 66.9875H49.2078C49.5162 66.9875 49.8246 66.6791 49.8246 66.3706V63.5948ZM39.0296 33.3688C36.8706 33.3688 35.0201 34.9109 34.4032 36.9157H43.6561C43.0392 34.9109 41.1886 33.3688 39.0296 33.3688ZM38.8754 30.9013C41.4971 30.9013 43.6561 32.1351 45.044 34.1399H46.5861C49.8758 29.706 53.8287 30.5782 54.5079 30.7281C54.561 30.7398 54.5941 30.7471 54.6053 30.7471C55.2221 30.9013 55.5306 31.364 55.5306 31.9808V37.9952C57.2269 39.3831 58.7691 41.2337 59.6944 43.3927H60.9281C62.6244 43.3927 64.0124 44.7806 64.0124 46.477V53.5709C64.0124 54.4961 63.5497 55.2672 62.9329 55.8841H66.7882C67.4051 55.8841 67.8677 55.4214 67.8677 54.8046V25.1954H12.8132V54.8046C12.8132 55.4214 13.2759 55.8841 13.8927 55.8841H21.295C20.6781 54.0335 20.2155 52.0287 20.2155 50.0239C20.2155 47.0938 21.1408 44.318 22.5287 42.0048C20.9866 41.8506 19.907 40.4626 19.907 38.9205V37.5326C19.907 35.8362 21.295 34.4483 22.9914 34.4483C23.6082 34.4483 24.2251 34.9109 24.2251 35.682C24.2251 36.2989 23.7624 36.9157 22.9914 36.9157C22.6829 36.9157 22.3745 37.2241 22.3745 37.5326V38.9205C22.3745 39.2289 22.6829 39.5374 22.9914 39.5374H24.3793C26.5383 37.2241 29.3141 35.5278 32.3984 34.7567C33.6321 32.4435 36.0996 30.9013 38.8754 30.9013ZM18.3646 21.6484C20.2152 21.6484 21.9116 20.1063 21.9116 18.1015C21.9116 16.2509 20.3694 14.5546 18.3646 14.5546C16.514 14.5546 14.8177 16.0967 14.8177 18.1015C14.8177 19.9521 16.3598 21.6484 18.3646 21.6484ZM18.3646 17.1762C18.8273 17.1762 19.2899 17.6389 19.2899 18.1015C19.2899 18.5642 18.8273 19.0268 18.3646 19.0268C17.902 19.0268 17.4394 18.5642 17.4394 18.1015C17.4394 17.6389 17.7478 17.1762 18.3646 17.1762ZM26.6928 21.6484C28.5434 21.6484 30.2397 20.1063 30.2397 18.1015C30.2397 16.2509 28.6976 14.5546 26.6928 14.5546C24.8422 14.5546 23.1459 16.0967 23.1459 18.1015C23.1459 19.9521 24.688 21.6484 26.6928 21.6484ZM26.6928 17.1762C27.1554 17.1762 27.6181 17.6389 27.6181 18.1015C27.6181 18.5642 27.1554 19.0268 26.6928 19.0268C26.2302 19.0268 25.7675 18.5642 25.7675 18.1015C25.7675 17.6389 26.2302 17.1762 26.6928 17.1762Z" fill="url(#paint0_linear_720_19036)"/>
<defs>
<linearGradient id="paint0_linear_720_19036" x1="12.1605" y1="10.545" x2="74.7715" y2="35.0456" gradientUnits="userSpaceOnUse">
<stop stop-color="#002D85"/>
<stop offset="1" stop-color="#DE0000"/>
</linearGradient>
</defs>
</svg>
