<svg width="81" height="80" viewBox="0 0 81 80" fill="none" xmlns="http://www.w3.org/2000/svg">
<path fill-rule="evenodd" clip-rule="evenodd" d="M30.0053 35.2308H17.2701V33.4502H30.0053V35.2308ZM23.6313 30.7921H17.2701V29.0114H23.6313V30.7921ZM49.1147 23.6823H45.478V21.9145H49.1147V23.6823ZM54.5764 23.6823H50.9266V21.9145H54.5764V23.6823ZM60.0251 23.6823H56.3882V21.9145H60.0251V23.6823ZM33.6421 50.3913H16.3576V48.6107H33.6421V50.3913ZM38.1913 50.3913H36.3664V48.6107H38.1913V50.3913ZM38.1913 45.0622V40.6235V40.5598C38.1985 40.4495 38.1831 40.339 38.1462 40.2345C38.1095 40.13 38.0518 40.0337 37.9768 39.9509C37.9017 39.8682 37.8105 39.8008 37.7087 39.7525C37.6068 39.7042 37.4962 39.6761 37.3832 39.6695H17.1659C17.0527 39.6761 16.9421 39.7042 16.8402 39.7525C16.7384 39.8008 16.6474 39.8682 16.5723 39.9509C16.4972 40.0337 16.4396 40.13 16.4027 40.2345C16.3659 40.339 16.3506 40.4495 16.3576 40.5598V45.0622C16.3468 45.2841 16.4252 45.5014 16.5762 45.6676C16.7273 45.834 16.9387 45.9362 17.1659 45.9525H37.3832C37.6103 45.9362 37.8218 45.834 37.9728 45.6676C38.1237 45.5014 38.2021 45.2841 38.1913 45.0622ZM17.974 41.501H36.5749V44.1719H17.974V41.501ZM11.8084 53.9398H39.8469V52.0956H12.7209V29.3803L24.0093 18.366H63.6749V33.8954H65.4868V17.4758C65.4868 17.3588 65.4632 17.2431 65.4173 17.135C65.3715 17.027 65.3043 16.9289 65.2196 16.8462C65.1348 16.7635 65.0341 16.698 64.9235 16.6532C64.8127 16.6085 64.6942 16.5854 64.5743 16.5854H11.8084C11.5664 16.5854 11.3343 16.6793 11.1632 16.8462C10.9921 17.0132 10.896 17.2396 10.896 17.4758V53.0494C10.896 53.2855 10.9921 53.512 11.1632 53.679C11.3343 53.846 11.5664 53.9398 11.8084 53.9398ZM15.9796 18.366L12.7209 21.5457V18.366H15.9796ZM21.4414 18.366L12.7209 26.8748V24.0512L18.5475 18.366H21.4414ZM64.3401 42.086V46.3213H69.5925V37.38H41.2021V46.3213H46.5212V42.086H42.1924V40.8141H46.5212H64.3401H68.5884V42.086H64.3401ZM63.0366 42.086H47.8246L47.8899 62.1431H63.0366V42.086ZM70.896 47.5931H64.3401V63.4149H46.5212V47.5931H39.8986V36.1082H70.896V47.5931ZM55.3973 61.7869C55.2211 61.7866 55.0524 61.718 54.928 61.5962L49.5707 56.3689C49.4819 56.2799 49.4212 56.1678 49.3957 56.046C49.3702 55.9243 49.3812 55.798 49.4273 55.6821C49.4771 55.564 49.5621 55.4632 49.6712 55.3928C49.7806 55.3225 49.9091 55.2859 50.0399 55.2878H51.3434V50.9254C51.3434 50.7567 51.4121 50.5949 51.5343 50.4757C51.6565 50.3564 51.8223 50.2894 51.9952 50.2894H58.8776C59.0505 50.2894 59.2163 50.3564 59.3385 50.4757C59.4608 50.5949 59.5294 50.7567 59.5294 50.9254V55.2751H60.8329C60.9605 55.2769 61.0848 55.3151 61.1903 55.385C61.2958 55.4551 61.3779 55.5537 61.4265 55.6688C61.4751 55.7839 61.4879 55.9104 61.4635 56.0326C61.4391 56.1548 61.3785 56.2673 61.2892 56.3561L55.9318 61.5835C55.8645 61.6549 55.7813 61.7104 55.6887 61.7456C55.5961 61.7809 55.4964 61.7951 55.3973 61.7869ZM51.6041 56.5597L55.3973 60.248L59.1775 56.5597H58.8386C58.6657 56.5597 58.4999 56.4927 58.3777 56.3734C58.2555 56.2542 58.1868 56.0924 58.1868 55.9237V51.574H52.6078V55.9237C52.6045 56.0914 52.5347 56.2512 52.4133 56.3698C52.2918 56.4884 52.1279 56.5563 51.9561 56.5597H51.6041ZM55.5799 44.8461V45.0623H57.0008V44.8206C57.0204 44.4914 56.9081 44.1677 56.6879 43.9176C56.4406 43.6764 56.1114 43.5317 55.7624 43.5106V43.0909H55.1367V43.5106C54.7604 43.5303 54.402 43.6738 54.12 43.9176C54.0046 44.0411 53.9153 44.1854 53.8572 44.3425C53.7989 44.4997 53.7732 44.6664 53.7811 44.8334C53.7745 45.0836 53.8281 45.3318 53.9375 45.5582C54.024 45.749 54.1532 45.9185 54.3155 46.0543C54.5836 46.2545 54.8621 46.4414 55.1497 46.6139C55.338 46.7001 55.4933 46.8427 55.593 47.0209C55.6202 47.2321 55.6202 47.4457 55.593 47.6569C55.6025 47.7504 55.5795 47.8445 55.5278 47.924C55.5049 47.953 55.4752 47.9762 55.4411 47.9917C55.4071 48.0071 55.3698 48.0144 55.3322 48.013C55.2884 48.0143 55.2454 48.0029 55.2082 47.9802C55.1711 47.9575 55.1416 47.9247 55.1236 47.8858C55.1008 47.6658 55.1008 47.4443 55.1236 47.2245V46.9065H53.8202V47.1608C53.7869 47.3525 53.7951 47.5488 53.844 47.7372C53.8929 47.9256 53.9814 48.1021 54.1041 48.2552C54.2267 48.4084 54.3807 48.535 54.5563 48.6267C54.7319 48.7186 54.925 48.7738 55.1236 48.7887V49.2976H55.7494V48.8014C56.145 48.7709 56.5136 48.5932 56.7791 48.3055C57.0318 47.9963 57.1572 47.6063 57.131 47.2117C57.1353 46.9641 57.0911 46.7181 57.0008 46.4868C56.9276 46.3158 56.8214 46.1604 56.6879 46.0288C56.464 45.861 56.2288 45.7081 55.984 45.5709C55.7302 45.4319 55.4902 45.2701 55.2671 45.0877C55.1699 44.9645 55.1233 44.8103 55.1367 44.6553C55.1315 44.5619 55.1542 44.4691 55.2019 44.3882C55.2204 44.357 55.247 44.3311 55.2791 44.3133C55.3111 44.2954 55.3474 44.2861 55.3844 44.2865C55.4254 44.2811 55.4673 44.2894 55.5027 44.3102C55.5382 44.331 55.5654 44.363 55.5799 44.4009C55.6108 44.5477 55.6108 44.6992 55.5799 44.8461Z" fill="url(#paint0_linear_808_17700)"/>
<defs>
<linearGradient id="paint0_linear_808_17700" x1="69.8228" y1="62.3992" x2="69.8228" y2="16.5854" gradientUnits="userSpaceOnUse">
<stop stop-color="#002D85"/>
<stop offset="1" stop-color="#013AA9"/>
</linearGradient>
</defs>
</svg>
