<svg width="81" height="80" viewBox="0 0 81 80" fill="none" xmlns="http://www.w3.org/2000/svg">
<path fill-rule="evenodd" clip-rule="evenodd" d="M57.196 38.642V37.6948C57.2411 37.0247 57.1717 36.3519 56.9907 35.7053C56.8953 35.5748 56.7706 35.4687 56.6266 35.3954C56.4826 35.3223 56.3233 35.2841 56.1618 35.2841C56.0001 35.2841 55.8408 35.3223 55.6968 35.3954C55.5528 35.4687 55.428 35.5748 55.3328 35.7053C55.1242 36.0748 55.0308 36.4981 55.0644 36.9211C54.9892 37.5936 55.1822 38.2686 55.6012 38.8001C56.5895 39.5922 57.6463 40.295 58.7591 40.9001C59.8221 41.4937 60.8405 42.1639 61.8063 42.9053C62.4014 43.4591 62.8653 44.1388 63.1644 44.8948C63.5563 45.9003 63.7442 46.9738 63.717 48.0527C63.8036 49.7581 63.2771 51.4383 62.2328 52.7895C61.0413 54.0432 59.4259 54.8087 57.7012 54.9367V57.0843H55.0644V54.8895C53.5415 54.7559 52.1021 54.1359 50.9591 53.1211C50.3031 52.4016 49.8076 51.5508 49.5056 50.6253C49.2034 49.6997 49.1014 48.7206 49.2065 47.7527V46.6473H55.0644V48.0369C55.0218 48.9929 55.0799 49.9509 55.2379 50.8946C55.2924 51.0767 55.4096 51.2335 55.5684 51.3375C55.7274 51.4416 55.918 51.4859 56.1065 51.463C56.2751 51.4766 56.4444 51.4476 56.599 51.3786C56.7534 51.3096 56.8881 51.203 56.9907 51.0683C57.2163 50.7284 57.3218 50.3227 57.2907 49.9158C57.3322 48.9909 57.2366 48.0652 57.0065 47.1685C56.5976 46.3763 55.9365 45.7428 55.1276 45.3683C53.3486 44.2631 52.1328 43.458 51.4802 42.9527C50.7791 42.3522 50.214 41.6095 49.8223 40.7738C49.3437 39.791 49.1056 38.7086 49.1274 37.6159C49.0859 36.8812 49.1963 36.1459 49.4517 35.4559C49.707 34.7659 50.1019 34.1359 50.6118 33.6052C51.8482 32.5167 53.4187 31.8818 55.0644 31.8053V29.9736H57.7644V31.8053C59.2821 31.9023 60.718 32.528 61.8223 33.5738C62.7626 34.6793 63.2429 36.1034 63.1644 37.5525C63.1644 37.7736 63.1644 38.1369 63.1644 38.6264L57.196 38.642ZM70.396 20.4527V59.5474C70.3938 59.678 70.3661 59.8068 70.3142 59.9268C70.2622 60.0467 70.1872 60.1553 70.0934 60.2463C69.9996 60.337 69.8888 60.4086 69.7672 60.4567C69.6458 60.5047 69.516 60.5284 69.3854 60.5264H11.3908C11.1296 60.5264 10.8789 60.4237 10.6928 60.2406C10.5067 60.0574 10.4001 59.8084 10.396 59.5474V20.4527C10.4001 20.1916 10.5067 19.9426 10.6928 19.7595C10.8789 19.5763 11.1296 19.4737 11.3908 19.4738H69.3854C69.516 19.4717 69.6458 19.4953 69.7672 19.5433C69.8888 19.5914 69.9996 19.663 70.0934 19.7539C70.1872 19.8448 70.2622 19.9533 70.3142 20.0732C70.3661 20.1931 70.3938 20.3221 70.396 20.4527ZM12.4329 24.9368L16.0169 21.4317H12.4329V24.9368ZM12.4329 30.7948L21.9066 21.4317H18.7487L12.3381 27.7475L12.4329 30.7948ZM68.4381 21.4317H24.7959L12.4329 33.558V58.5683H68.4381V21.4317ZM17.4381 40.0001H31.3802V38.042H17.375L17.4381 40.0001ZM17.4381 35.1211H24.4329V33.1632H17.4381V35.1211ZM48.4327 27.2264H52.4434V25.2685H48.4327V27.2264ZM54.4328 27.2264H58.4276V25.2685H54.4328V27.2264ZM60.4328 27.2264H64.4275V25.2685H60.4328V27.2264ZM16.396 56.6422H35.3434V54.7H16.396V56.6422ZM37.396 56.6422H39.3855V54.7H37.396V56.6422ZM41.3907 56.6422H43.3958V54.7H41.3907V56.6422ZM43.3958 45.9053V50.7841C43.3938 50.9148 43.3662 51.0438 43.3142 51.1637C43.2623 51.2835 43.1873 51.392 43.0935 51.4829C42.9997 51.5739 42.8888 51.6454 42.7673 51.6936C42.6458 51.7416 42.5161 51.7653 42.3855 51.763H17.3908C17.1296 51.7632 16.879 51.6606 16.6929 51.4774C16.5067 51.2943 16.4001 51.0453 16.396 50.7841V45.9053C16.396 45.7754 16.4218 45.6467 16.472 45.527C16.5222 45.4072 16.5958 45.2985 16.6883 45.2074C16.7808 45.1163 16.8906 45.0445 17.0112 44.9962C17.1318 44.948 17.2608 44.9243 17.3908 44.9264H42.4328C42.5634 44.9243 42.6932 44.9478 42.8146 44.9958C42.9362 45.044 43.0471 45.1155 43.1408 45.2065C43.2346 45.2974 43.3096 45.4059 43.3616 45.5257C43.4135 45.6457 43.4413 45.7746 43.4434 45.9053H43.3958ZM41.4381 46.8685H18.3853V49.8052H41.3907L41.4381 46.8685Z" fill="url(#paint0_linear_808_17694)"/>
<defs>
<linearGradient id="paint0_linear_808_17694" x1="69.3228" y1="59.6361" x2="69.3228" y2="19.4736" gradientUnits="userSpaceOnUse">
<stop stop-color="#002D85"/>
<stop offset="1" stop-color="#013AA9"/>
</linearGradient>
</defs>
</svg>
