<svg width="81" height="80" viewBox="0 0 81 80" fill="none" xmlns="http://www.w3.org/2000/svg">
<path d="M17.4879 26.0836V19.1106C17.4879 18.6493 17.6709 18.2068 17.9972 17.8805C18.3234 17.5543 18.766 17.3711 19.2274 17.3711C19.6887 17.3711 20.1311 17.5543 20.4573 17.8805C20.7836 18.2068 20.9668 18.6493 20.9668 19.1106V26.0836C20.9668 26.5449 20.7836 26.9874 20.4573 27.3136C20.1311 27.6399 19.6887 27.8231 19.2274 27.8231C18.766 27.8231 18.3234 27.6399 17.9972 27.3136C17.6709 26.9874 17.4879 26.5449 17.4879 26.0836ZM47.0748 27.8231C47.5362 27.8231 47.9787 27.6399 48.3049 27.3136C48.6311 26.9874 48.8145 26.5449 48.8145 26.0836V19.1106C48.8145 18.6493 48.6311 18.2068 48.3049 17.8805C47.9787 17.5543 47.5362 17.3711 47.0748 17.3711C46.6134 17.3711 46.171 17.5543 45.8449 17.8805C45.5187 18.2068 45.3353 18.6493 45.3353 19.1106V26.0836C45.3353 26.5449 45.5187 26.9874 45.8449 27.3136C46.171 27.6399 46.6134 27.8231 47.0748 27.8231ZM24.4459 38.2604H17.4879V45.2481H24.4459V38.2604ZM17.4879 55.6707H24.4459V48.6977H17.4879V55.6707ZM27.925 45.2186H34.8832V38.2604H27.925V45.2186ZM27.925 55.6707H34.8832V48.6977H27.925V55.6707ZM14.0086 58.796V34.8108H52.3377V36.7715H55.817V28.1917C55.8208 27.6922 55.7263 27.1969 55.5386 26.7338C55.3511 26.2709 55.0743 25.8495 54.7237 25.4936C54.3733 25.1376 53.9562 24.8542 53.4961 24.6595C53.0362 24.4648 52.5425 24.3626 52.043 24.3588H50.5688V26.0836C50.5112 26.969 50.1187 27.7994 49.4713 28.4062C48.8237 29.013 47.9695 29.3505 47.0822 29.3505C46.1949 29.3505 45.3409 29.013 44.6933 28.4062C44.0458 27.7994 43.6534 26.969 43.5957 26.0836V24.3293H22.7064V26.0836C22.7064 27.0063 22.3399 27.8912 21.6874 28.5436C21.0349 29.196 20.1501 29.5627 19.2274 29.5627C18.3046 29.5627 17.4197 29.196 16.7673 28.5436C16.1148 27.8912 15.7482 27.0063 15.7482 26.0836V24.3293H14.274C13.2665 24.3409 12.3044 24.7503 11.5975 25.4682C10.8906 26.1862 10.4961 27.1546 10.5 28.1622V58.796C10.4961 59.8036 10.8906 60.7719 11.5975 61.4898C12.3044 62.2077 13.2665 62.6171 14.274 62.6289H34.9127V59.1498H14.274C14.1905 59.1387 14.1146 59.0955 14.0624 59.0295C14.0101 58.9635 13.9855 58.8797 13.9939 58.796H14.0086ZM66.3278 49.9508C66.3278 49.6707 66.3278 49.4643 66.3278 49.3317C66.3731 48.4956 66.0992 47.6736 65.5612 47.0319C64.9458 46.4195 64.1282 46.0526 63.2615 46V44.9385H61.7873V46C60.8532 46.0552 59.965 46.4239 59.2664 47.0466C58.9766 47.3581 58.7527 47.7251 58.6083 48.1253C58.4639 48.5256 58.402 48.951 58.4261 49.3759C58.4167 50.0077 58.5529 50.6332 58.8242 51.2039C59.0403 51.6876 59.3568 52.1198 59.7529 52.4717C60.1215 52.7665 60.8143 53.2235 61.8168 53.8574C62.2781 54.0824 62.6553 54.4492 62.8929 54.9041C63.0143 55.4257 63.0638 55.9613 63.0404 56.4962C63.0588 56.7337 63.0022 56.9709 62.8782 57.1744C62.8197 57.25 62.7432 57.3099 62.6556 57.3485C62.5682 57.3871 62.4724 57.4032 62.377 57.3955C62.2704 57.4098 62.162 57.3849 62.0726 57.3252C61.9829 57.2655 61.9184 57.1751 61.8906 57.0712C61.7933 56.5266 61.7587 55.9726 61.7873 55.4201V54.6093H58.4704V55.2579C58.409 55.8143 58.4651 56.3774 58.6353 56.9108C58.8054 57.444 59.0858 57.9357 59.4581 58.3537C60.1007 58.9411 60.9199 59.2987 61.7873 59.3709V60.6535H63.2615V59.4151C64.244 59.336 65.1603 58.8884 65.8266 58.1621C66.4375 57.3721 66.7413 56.3874 66.6818 55.3906C66.6924 54.7577 66.5874 54.1282 66.3721 53.5331C66.1931 53.1003 65.9271 52.709 65.5907 52.3832C65.0426 51.9568 64.4664 51.5677 63.8659 51.2186C63.2353 50.8716 62.6382 50.4669 62.0823 50.0098C61.9611 49.8573 61.8715 49.6825 61.8183 49.4953C61.7652 49.3081 61.7497 49.1121 61.7726 48.9189C61.7532 48.6784 61.8044 48.4377 61.92 48.226C61.9677 48.1491 62.0356 48.0865 62.1159 48.045C62.1964 48.0034 62.2866 47.9844 62.377 47.9901C62.4758 47.9773 62.5758 47.9962 62.6633 48.0438C62.7507 48.0914 62.8207 48.1656 62.8635 48.2555C62.972 48.6285 63.0119 49.0181 62.9814 49.4054V49.9508H66.3278ZM69.9103 38.8501H37.1094C37.0333 38.8481 36.9576 38.8616 36.8869 38.8898C36.8162 38.9179 36.7521 38.9602 36.6982 39.014C36.6444 39.0679 36.6021 39.132 36.574 39.2027C36.5458 39.2734 36.5324 39.349 36.5343 39.4251V62.054C36.5324 62.13 36.5458 62.2057 36.574 62.2763C36.6021 62.347 36.6444 62.4112 36.6982 62.465C36.7521 62.5188 36.8162 62.5611 36.8869 62.5892C36.9576 62.6174 37.0333 62.6308 37.1094 62.6289H69.9249C70.0009 62.6308 70.0766 62.6174 70.1473 62.5892C70.2179 62.5611 70.2822 62.5188 70.336 62.465C70.3898 62.4112 70.4321 62.347 70.4603 62.2763C70.4884 62.2057 70.5019 62.13 70.4998 62.054V39.4545C70.5019 39.3785 70.4884 39.3028 70.4603 39.2321C70.4321 39.1615 70.3898 39.0972 70.336 39.0434C70.2822 38.9896 70.2179 38.9474 70.1473 38.9193C70.0766 38.8911 70.0009 38.8775 69.9249 38.8796L69.9103 38.8501ZM37.6696 40.0147H39.7038L37.6696 42.0491V40.0147ZM37.6696 43.6413L41.296 40.0147H43.0946L37.6696 45.4398V43.6413ZM69.3648 61.4643H37.6696V46.9877L44.6866 39.9558H69.3648V61.4643ZM40.4999 50.7174H48.4163V49.6707H40.4999V50.7174ZM40.4999 47.8869H44.4655V46.7518H40.4999V47.8869ZM58.0428 43.3612H60.3131V42.2997H58.0428V43.3612ZM61.4336 43.3612H63.7038V42.2997H61.4336V43.3612ZM64.839 43.3612H67.0944V42.2997H64.839V43.3612ZM39.9397 60.3292H50.6866V59.194H39.9397V60.3292ZM51.8217 60.3292H52.957V59.194H51.8217V60.3292ZM54.0773 60.3292H55.2124V59.194H54.0773V60.3292ZM54.6522 53.5478H40.4999C40.3515 53.5478 40.2089 53.6068 40.1038 53.7119C39.9987 53.8169 39.9397 53.9594 39.9397 54.108V57.0417C39.9397 57.1903 39.9987 57.3327 40.1038 57.4378C40.2089 57.5428 40.3515 57.6019 40.4999 57.6019H54.6522C54.8008 57.6019 54.9433 57.5428 55.0484 57.4378C55.1534 57.3327 55.2124 57.1903 55.2124 57.0417V54.2112C55.2124 54.0626 55.1534 53.9201 55.0484 53.8151C54.9433 53.71 54.8008 53.651 54.6522 53.651V53.5478ZM54.0773 56.4668H41.0601V54.7714H54.0773V56.4668Z" fill="url(#paint0_linear_720_18860)"/>
<defs>
<linearGradient id="paint0_linear_720_18860" x1="12.1605" y1="17.3711" x2="69.4864" y2="46.5701" gradientUnits="userSpaceOnUse">
<stop stop-color="#002D85"/>
<stop offset="1" stop-color="#DE0000"/>
</linearGradient>
</defs>
</svg>
