<svg width="81" height="80" viewBox="0 0 81 80" fill="none" xmlns="http://www.w3.org/2000/svg">
<path d="M17.3838 26.0836V19.1106C17.3838 18.6493 17.5669 18.2068 17.8932 17.8805C18.2194 17.5543 18.6619 17.3711 19.1234 17.3711C19.5846 17.3711 20.0271 17.5543 20.3533 17.8805C20.6795 18.2068 20.8628 18.6493 20.8628 19.1106V26.0836C20.8628 26.5449 20.6795 26.9874 20.3533 27.3136C20.0271 27.6399 19.5846 27.8231 19.1234 27.8231C18.6619 27.8231 18.2194 27.6399 17.8932 27.3136C17.5669 26.9874 17.3838 26.5449 17.3838 26.0836ZM46.9708 27.8231C47.4322 27.8231 47.8746 27.6399 48.2009 27.3136C48.5271 26.9874 48.7105 26.5449 48.7105 26.0836V19.1106C48.7105 18.6493 48.5271 18.2068 48.2009 17.8805C47.8746 17.5543 47.4322 17.3711 46.9708 17.3711C46.5094 17.3711 46.067 17.5543 45.7409 17.8805C45.4146 18.2068 45.2312 18.6493 45.2312 19.1106V26.0836C45.2312 26.5449 45.4146 26.9874 45.7409 27.3136C46.067 27.6399 46.5094 27.8231 46.9708 27.8231ZM24.3419 38.2604H17.3838V45.2481H24.3419V38.2604ZM17.3838 55.6707H24.3419V48.6977H17.3838V55.6707ZM27.821 45.2186H34.7792V38.2604H27.821V45.2186ZM27.821 55.6707H34.7792V48.6977H27.821V55.6707ZM13.9046 58.796V34.8108H52.2337V36.7715H55.7129V28.1917C55.7167 27.6922 55.6223 27.1969 55.4346 26.7338C55.2471 26.2709 54.9702 25.8495 54.6197 25.4936C54.2692 25.1376 53.8522 24.8542 53.3921 24.6595C52.9321 24.4648 52.4384 24.3626 51.939 24.3588H50.4648V26.0836C50.4071 26.969 50.0147 27.7994 49.3672 28.4062C48.7196 29.013 47.8655 29.3505 46.9782 29.3505C46.0908 29.3505 45.2368 29.013 44.5892 28.4062C43.9418 27.7994 43.5493 26.969 43.4917 26.0836V24.3293H22.6023V26.0836C22.6023 27.0063 22.2358 27.8912 21.5834 28.5436C20.9309 29.196 20.0461 29.5627 19.1234 29.5627C18.2005 29.5627 17.3157 29.196 16.6632 28.5436C16.0108 27.8912 15.6441 27.0063 15.6441 26.0836V24.3293H14.1699C13.1625 24.3409 12.2004 24.7503 11.4934 25.4682C10.7865 26.1862 10.392 27.1546 10.396 28.1622V58.796C10.392 59.8036 10.7865 60.7719 11.4934 61.4898C12.2004 62.2077 13.1625 62.6171 14.1699 62.6289H34.8087V59.1498H14.1699C14.0865 59.1387 14.0106 59.0955 13.9584 59.0295C13.906 58.9635 13.8814 58.8797 13.8898 58.796H13.9046ZM66.2238 49.9508C66.2238 49.6707 66.2238 49.4643 66.2238 49.3317C66.269 48.4956 65.9951 47.6736 65.4572 47.0319C64.8417 46.4195 64.0241 46.0526 63.1575 46V44.9385H61.6833V46C60.7492 46.0552 59.861 46.4239 59.1624 47.0466C58.8726 47.3581 58.6486 47.7251 58.5043 48.1253C58.3598 48.5256 58.2979 48.951 58.3221 49.3759C58.3127 50.0077 58.4489 50.6332 58.7201 51.2039C58.9362 51.6876 59.2528 52.1198 59.6489 52.4717C60.0174 52.7665 60.7103 53.2235 61.7127 53.8574C62.174 54.0824 62.5513 54.4492 62.7889 54.9041C62.9102 55.4257 62.9598 55.9613 62.9363 56.4962C62.9548 56.7337 62.8981 56.9709 62.7742 57.1744C62.7156 57.25 62.6391 57.3099 62.5516 57.3485C62.4641 57.3871 62.3683 57.4032 62.2729 57.3955C62.1664 57.4098 62.058 57.3849 61.9685 57.3252C61.8789 57.2655 61.8143 57.1751 61.7866 57.0712C61.6893 56.5266 61.6547 55.9726 61.6833 55.4201V54.6093H58.3663V55.2579C58.305 55.8143 58.361 56.3774 58.5313 56.9108C58.7014 57.444 58.9818 57.9357 59.354 58.3537C59.9966 58.9411 60.8158 59.2987 61.6833 59.3709V60.6535H63.1575V59.4151C64.14 59.336 65.0562 58.8884 65.7226 58.1621C66.3335 57.3721 66.6373 56.3874 66.5777 55.3906C66.5884 54.7577 66.4834 54.1282 66.268 53.5331C66.089 53.1003 65.8231 52.709 65.4867 52.3832C64.9386 51.9568 64.3623 51.5677 63.7619 51.2186C63.1312 50.8716 62.5342 50.4669 61.9783 50.0098C61.8571 49.8573 61.7674 49.6825 61.7142 49.4953C61.6612 49.3081 61.6457 49.1121 61.6685 48.9189C61.6492 48.6784 61.7004 48.4377 61.8159 48.226C61.8637 48.1491 61.9315 48.0865 62.0119 48.045C62.0924 48.0034 62.1826 47.9844 62.2729 47.9901C62.3717 47.9773 62.4718 47.9962 62.5592 48.0438C62.6467 48.0914 62.7167 48.1656 62.7594 48.2555C62.8679 48.6285 62.9079 49.0181 62.8774 49.4054V49.9508H66.2238ZM69.8062 38.8501H37.0054C36.9293 38.8481 36.8535 38.8616 36.7829 38.8898C36.7121 38.9179 36.648 38.9602 36.5942 39.014C36.5404 39.0679 36.4981 39.132 36.4699 39.2027C36.4418 39.2734 36.4284 39.349 36.4303 39.4251V62.054C36.4284 62.13 36.4418 62.2057 36.4699 62.2763C36.4981 62.347 36.5404 62.4112 36.5942 62.465C36.648 62.5188 36.7121 62.5611 36.7829 62.5892C36.8535 62.6174 36.9293 62.6308 37.0054 62.6289H69.8208C69.8969 62.6308 69.9725 62.6174 70.0433 62.5892C70.1139 62.5611 70.1782 62.5188 70.232 62.465C70.2858 62.4112 70.3281 62.347 70.3563 62.2763C70.3844 62.2057 70.3978 62.13 70.3958 62.054V39.4545C70.3978 39.3785 70.3844 39.3028 70.3563 39.2321C70.3281 39.1615 70.2858 39.0972 70.232 39.0434C70.1782 38.9896 70.1139 38.9474 70.0433 38.9193C69.9725 38.8911 69.8969 38.8775 69.8208 38.8796L69.8062 38.8501ZM37.5656 40.0147H39.5998L37.5656 42.0491V40.0147ZM37.5656 43.6413L41.1919 40.0147H42.9906L37.5656 45.4398V43.6413ZM69.2608 61.4643H37.5656V46.9877L44.5826 39.9558H69.2608V61.4643ZM40.3959 50.7174H48.3123V49.6707H40.3959V50.7174ZM40.3959 47.8869H44.3615V46.7518H40.3959V47.8869ZM57.9388 43.3612H60.2091V42.2997H57.9388V43.3612ZM61.3296 43.3612H63.5997V42.2997H61.3296V43.3612ZM64.735 43.3612H66.9904V42.2997H64.735V43.3612ZM39.8357 60.3292H50.5826V59.194H39.8357V60.3292ZM51.7177 60.3292H52.853V59.194H51.7177V60.3292ZM53.9732 60.3292H55.1083V59.194H53.9732V60.3292ZM54.5482 53.5478H40.3959C40.2474 53.5478 40.1049 53.6068 39.9998 53.7119C39.8946 53.8169 39.8357 53.9594 39.8357 54.108V57.0417C39.8357 57.1903 39.8946 57.3327 39.9998 57.4378C40.1049 57.5428 40.2474 57.6019 40.3959 57.6019H54.5482C54.6968 57.6019 54.8393 57.5428 54.9444 57.4378C55.0494 57.3327 55.1083 57.1903 55.1083 57.0417V54.2112C55.1083 54.0626 55.0494 53.9201 54.9444 53.8151C54.8393 53.71 54.6968 53.651 54.5482 53.651V53.5478ZM53.9732 56.4668H40.9561V54.7714H53.9732V56.4668Z" fill="url(#paint0_linear_808_17698)"/>
<defs>
<linearGradient id="paint0_linear_808_17698" x1="69.3228" y1="61.6475" x2="69.3228" y2="17.3711" gradientUnits="userSpaceOnUse">
<stop stop-color="#002D85"/>
<stop offset="1" stop-color="#013AA9"/>
</linearGradient>
</defs>
</svg>
