<svg width="81" height="80" viewBox="0 0 81 80" fill="none" xmlns="http://www.w3.org/2000/svg">
<path d="M51.1537 60.5272L43.0684 52.3473C42.5668 51.8316 42.2862 51.1404 42.2862 50.4209C42.2862 49.7013 42.5668 49.0101 43.0684 48.4942C43.3171 48.2394 43.6143 48.0368 43.9424 47.8984C44.2706 47.7599 44.623 47.6887 44.9793 47.6887C45.3354 47.6887 45.6878 47.7599 46.016 47.8984C46.3441 48.0368 46.6413 48.2394 46.89 48.4942L51.1537 52.8053C51.4023 53.0603 51.6995 53.2629 52.0276 53.4014C52.3558 53.5397 52.7082 53.6109 53.0645 53.6109C53.4206 53.6109 53.773 53.5397 54.1012 53.4014C54.4295 53.2629 54.7265 53.0603 54.9751 52.8053L65.7923 41.8619C66.0431 41.6108 66.3409 41.4115 66.6687 41.2755C66.9966 41.1397 67.3481 41.0698 67.7029 41.0698C68.0579 41.0698 68.4094 41.1397 68.7372 41.2755C69.0651 41.4115 69.3629 41.6108 69.6137 41.8619C70.1154 42.3778 70.396 43.0689 70.396 43.7886C70.396 44.508 70.1154 45.1992 69.6137 45.7149L54.9751 60.5272C54.7243 60.7785 54.4265 60.9778 54.0986 61.1137C53.7708 61.2497 53.4193 61.3195 53.0645 61.3195C52.7095 61.3195 52.358 61.2497 52.0301 61.1137C51.7023 60.9778 51.4045 60.7785 51.1537 60.5272ZM16.9812 38.6722H30.151V36.7612H16.9812V38.6722ZM16.9812 33.9347H23.6451V32.008H17.06L16.9812 33.9347ZM46.1636 26.3074H49.922V24.4124H46.1636V26.3074ZM51.801 26.3074H55.5753V24.4124H51.801V26.3074ZM57.4545 26.3074H61.2128V24.4124H57.4545V26.3074ZM16.0336 54.8741H33.9253V52.9633H16.0336V54.8741ZM36.7518 54.8741H38.631V52.9633H36.7518V54.8741ZM38.631 44.4044V49.1418C38.6441 49.3781 38.5636 49.6099 38.4069 49.7872C38.2503 49.9644 38.0301 50.073 37.7941 50.0892H16.8705C16.6346 50.073 16.4144 49.9644 16.2578 49.7872C16.1011 49.6099 16.0206 49.3781 16.0336 49.1418V44.4044C16.025 44.2861 16.0399 44.1672 16.0775 44.0548C16.1149 43.9422 16.1741 43.8383 16.2519 43.7488C16.3296 43.6592 16.4244 43.586 16.5305 43.5332C16.6366 43.4803 16.7522 43.449 16.8705 43.441H37.8574C37.9757 43.449 38.0912 43.4803 38.1974 43.5332C38.3035 43.586 38.3982 43.6592 38.4759 43.7488C38.5538 43.8383 38.6132 43.9422 38.6506 44.0548C38.688 44.1672 38.7028 44.2861 38.6943 44.4044H38.631ZM37.0204 45.3517H17.7074V48.21H36.9571L37.0204 45.3517ZM42.342 58.6797H11.3279C11.2041 58.6798 11.0817 58.6552 10.9676 58.6073C10.8535 58.5595 10.7501 58.4895 10.6634 58.4013C10.5766 58.3131 10.5083 58.2084 10.4625 58.0936C10.4166 57.9788 10.394 57.856 10.3961 57.7323V19.6434C10.394 19.519 10.4165 19.3954 10.4622 19.2797C10.5079 19.1639 10.5759 19.0583 10.6624 18.9688C10.7489 18.8794 10.8522 18.8079 10.9664 18.7583C11.0806 18.7088 11.2034 18.6822 11.3279 18.6802H65.9185C66.0443 18.6802 66.1689 18.7052 66.2848 18.7538C66.4009 18.8024 66.5059 18.8736 66.5942 18.9633C66.6823 19.0529 66.7518 19.1592 66.7985 19.276C66.8453 19.3928 66.8682 19.5177 66.866 19.6434V36.7612H64.9712V20.591H23.9136L12.2278 32.4028V56.8005H42.2314L42.342 58.6797ZM12.3384 24.0176L15.7179 20.6068H12.2752L12.3384 24.0176ZM12.3384 29.7341L21.3552 20.6068H18.3708L12.3384 26.7021V29.7341Z" fill="url(#paint0_linear_808_17696)"/>
<defs>
<linearGradient id="paint0_linear_808_17696" x1="69.3228" y1="60.3947" x2="69.3228" y2="18.6802" gradientUnits="userSpaceOnUse">
<stop stop-color="#002D85"/>
<stop offset="1" stop-color="#013AA9"/>
</linearGradient>
</defs>
</svg>
