<svg width="81" height="80" viewBox="0 0 81 80" fill="none" xmlns="http://www.w3.org/2000/svg">
<path d="M50.9187 36.7912H11.0796C10.8969 36.7953 10.723 36.8706 10.5952 37.0013C10.4674 37.1321 10.3959 37.3077 10.396 37.4904V64.9614C10.396 65.1428 10.468 65.3166 10.5962 65.4448C10.7244 65.573 10.8983 65.6451 11.0796 65.6451H50.9187C51.0085 65.6451 51.0974 65.6274 51.1804 65.593C51.2634 65.5587 51.3387 65.5082 51.4021 65.4448C51.4657 65.3813 51.516 65.3061 51.5504 65.2231C51.5848 65.1401 51.6024 65.0512 51.6024 64.9614V37.4904C51.6024 37.3077 51.5309 37.1321 51.4032 37.0013C51.2753 36.8706 51.1015 36.7953 50.9187 36.7912ZM11.7632 38.1741H14.2338L11.7632 40.6291V38.1741ZM11.7632 42.5713L16.176 38.1741H18.3513L11.7632 44.7622V42.5713ZM50.2351 64.3244H11.7632V46.7044L20.2935 38.1741H50.1729L50.2351 64.3244ZM15.1971 49.8897H24.8151V51.2725H15.1971V49.8897ZM15.1971 46.4558H20.0139V47.8387H15.1971V46.4558ZM36.4996 40.9709H39.2964V42.3383H36.4996V40.9709ZM40.6171 40.9709H43.3673V42.3383H40.6171V40.9709ZM44.7347 40.9709H47.4849V42.3383H44.7347V40.9709ZM14.5135 61.5742H27.5653V62.9415H14.5135V61.5742ZM28.9326 61.5742H30.3155V62.9415H28.9326V61.5742ZM31.6828 61.5742H33.0812V62.9415H31.6984L31.6828 61.5742ZM32.3665 54.7064H15.2748C15.185 54.7064 15.0961 54.7241 15.0133 54.7585C14.9303 54.7928 14.855 54.8432 14.7914 54.9067C14.7279 54.9701 14.6775 55.0455 14.6432 55.1284C14.6089 55.2114 14.5911 55.3003 14.5911 55.3901V58.824C14.5911 58.9138 14.6089 59.0026 14.6432 59.0856C14.6775 59.1686 14.7279 59.244 14.7914 59.3073C14.855 59.3709 14.9303 59.4212 15.0133 59.4556C15.0961 59.4899 15.185 59.5076 15.2748 59.5076H32.3665C32.4575 59.5096 32.5481 59.4935 32.6328 59.4601C32.7176 59.4267 32.7949 59.3766 32.86 59.3129C32.9251 59.2492 32.9768 59.1731 33.0122 59.0892C33.0475 59.0053 33.0657 58.915 33.0657 58.824V55.3901C33.0617 55.2074 32.9863 55.0335 32.8555 54.9058C32.7248 54.7779 32.5492 54.7063 32.3665 54.7064ZM31.6828 58.1403H15.8808V56.0738H31.6828V58.1403ZM70.3722 48.398C70.5647 51.6657 69.5838 54.8947 67.6064 57.5032C65.4143 59.8582 62.4224 61.3099 59.216 61.5742V65.6451H54.2128V61.4499C53.8105 61.4053 53.411 61.3378 53.0164 61.2479V45.912H54.2128V48.5689C54.1309 50.3836 54.2456 52.2017 54.5546 53.9917C54.6628 54.3133 54.8731 54.5907 55.1538 54.7815C55.4342 54.9723 55.7697 55.066 56.1084 55.0483C56.4213 55.0672 56.7343 55.0108 57.0209 54.8839C57.3076 54.7568 57.5595 54.5625 57.7554 54.318C58.1522 53.6592 58.3367 52.8942 58.2837 52.1271C58.3553 50.3724 58.1881 48.616 57.7865 46.9064C57.0222 45.4146 55.7958 44.21 54.2905 43.4725C53.8243 43.1773 53.3737 42.9132 52.9542 42.6335V34.8645H44.486C43.5926 32.9933 43.1458 30.9403 43.1809 28.8669C43.1019 27.4756 43.3049 26.0827 43.7775 24.7717C44.25 23.4608 44.9826 22.2588 45.9311 21.2378C48.212 19.1947 51.1237 17.9939 54.1817 17.835V14.3545H59.2004V17.835C62.0288 18.015 64.6981 19.2063 66.7208 21.1912C68.4689 23.3005 69.3568 25.9916 69.2068 28.7271C69.2068 29.1621 69.2068 29.8458 69.1136 30.7625H58.2371V28.8203C58.3185 27.5609 58.1979 26.2968 57.8797 25.0757C57.7459 24.7831 57.5245 24.5391 57.2462 24.3778C56.968 24.2164 56.6465 24.1452 56.3259 24.1745C56.0191 24.1345 55.7072 24.187 55.4303 24.3255C55.1536 24.4638 54.9244 24.6818 54.7721 24.9514C54.3854 25.6529 54.2126 26.4523 54.2749 27.251C54.1432 28.5226 54.5046 29.7964 55.2849 30.8091C57.1156 32.3064 59.0758 33.6375 61.1427 34.7868C63.1123 35.9158 64.9927 37.1935 66.7674 38.6092C67.879 39.6633 68.7485 40.9462 69.3156 42.3693C70.0409 44.3049 70.3838 46.3629 70.3256 48.4291" fill="url(#paint0_linear_808_17708)"/>
<defs>
<linearGradient id="paint0_linear_808_17708" x1="69.3228" y1="64.5326" x2="69.3228" y2="14.3545" gradientUnits="userSpaceOnUse">
<stop stop-color="#002D85"/>
<stop offset="1" stop-color="#013AA9"/>
</linearGradient>
</defs>
</svg>
