<svg width="79" height="80" viewBox="0 0 79 80" fill="none" xmlns="http://www.w3.org/2000/svg">
<path fill-rule="evenodd" clip-rule="evenodd" d="M25.6362 12.4138H53.3625C56.1631 12.4138 58.5436 14.7944 58.5436 17.595V62.4051C58.5436 65.2057 56.1631 67.5862 53.3625 67.5862H25.6362C22.8356 67.5862 20.4551 65.2057 20.4551 62.4051V54.2832V51.7627V17.595C20.4551 14.7944 22.8356 12.4138 25.6362 12.4138ZM23.9559 51.7627V54.2832V55.5435H55.0429V24.4565H23.9559V51.7627ZM53.3625 64.2255C54.2027 64.2255 55.0429 63.5253 55.0429 62.5451V59.0443H23.9559V62.5451C23.9559 63.3853 24.656 64.2255 25.6362 64.2255H53.3625ZM23.9559 21.0958H55.0429V17.595C55.0429 16.7548 54.3427 15.9146 53.3625 15.9146H25.6362C24.7961 15.9146 23.9559 16.6148 23.9559 17.595V21.0958ZM45.3801 33.8386V34.3988H40.199V33.5586C40.199 32.5784 40.199 32.0182 40.0589 31.7382C40.0589 31.4581 39.7789 31.3181 39.3588 31.3181C39.0787 31.3181 38.7987 31.4581 38.6586 31.7382C38.5186 32.0182 38.3786 32.4383 38.3786 32.8584C38.3786 33.6986 38.5186 34.2587 38.7987 34.5388C39.2188 34.8189 40.0589 35.379 41.5993 36.3592C41.9948 36.6229 42.3628 36.859 42.6945 37.0719C43.4197 37.5372 43.9716 37.8914 44.2599 38.1796C44.82 38.5997 45.2401 39.2999 45.5202 40C45.8002 40.7002 45.9403 41.6804 45.9403 42.8007C45.9403 44.6211 45.5202 46.1614 44.68 47.1416C43.8398 48.2619 42.5795 48.822 40.7591 49.1021V51.0625H38.3786V49.1021C37.1183 48.962 35.858 48.5419 34.8778 47.5617C33.8976 46.7215 33.3374 45.0412 33.3374 42.8007V41.8204H38.3786V43.0807C38.3786 44.481 38.3786 45.3212 38.5186 45.6013C38.5186 46.0214 38.7987 46.1614 39.2188 46.1614C39.6388 46.1614 39.9189 46.1614 40.0589 45.8814C40.199 45.7413 40.339 45.3212 40.339 44.9011C40.339 43.6408 40.199 42.9407 40.0589 42.3806C39.9189 41.9605 39.3588 41.4003 38.3786 40.8402C38.1487 40.694 37.9282 40.5539 37.7176 40.4201C36.5164 39.6573 35.6344 39.0972 35.1578 38.7397C34.5977 38.3196 34.1776 37.6195 33.7575 36.7793C33.3374 35.9391 33.1974 35.0989 33.1974 33.9787C33.1974 32.4383 33.6175 31.178 34.4577 30.3379C35.2979 29.4977 36.6982 28.9375 38.3786 28.7975V27.1171H40.7591V28.7975C42.2994 28.9375 43.4197 29.4977 44.2599 30.3379C44.96 31.178 45.3801 32.2983 45.3801 33.8386Z" fill="url(#paint0_linear_725_19532)"/>
<defs>
<linearGradient id="paint0_linear_725_19532" x1="21.5092" y1="12.4138" x2="64.329" y2="23.7712" gradientUnits="userSpaceOnUse">
<stop stop-color="#002D85"/>
<stop offset="1" stop-color="#DE0000"/>
</linearGradient>
</defs>
</svg>
