<svg width="81" height="80" viewBox="0 0 81 80" fill="none" xmlns="http://www.w3.org/2000/svg">
<path fill-rule="evenodd" clip-rule="evenodd" d="M67.4059 10.0996H51.4592C49.8645 10.0996 48.4691 11.495 48.4691 13.0896V39.0032C48.4691 40.5978 49.8645 41.9932 51.4592 41.9932H67.4059C69.0006 41.9932 70.396 40.5978 70.396 39.0032V13.0896C70.396 11.495 69.0006 10.0996 67.4059 10.0996ZM68.4026 39.0032C68.4026 39.6012 68.0039 39.9998 67.4059 39.9998H51.4592C50.8611 39.9998 50.4625 39.6012 50.4625 39.0032V37.0098H68.4026V39.0032ZM68.4026 35.0165H50.4625V17.0763H68.4026V35.0165ZM68.4026 15.083H50.4625V13.0896C50.4625 12.4916 50.8611 12.093 51.4592 12.093H67.4059C68.0039 12.093 68.4026 12.4916 68.4026 13.0896V15.083ZM63.4192 23.0563V22.4583C63.4192 21.6609 63.2199 20.8636 62.8212 20.4649C62.4226 20.0663 61.6252 19.6676 60.8279 19.4683V18.4716H59.4325V19.4683C58.4359 19.6676 57.6385 19.8669 57.2399 20.4649C56.6419 21.0629 56.4425 21.6609 56.4425 22.4583C56.4425 23.0563 56.6419 23.6543 56.8412 24.053C56.9409 24.2523 57.0904 24.4516 57.2399 24.651C57.3894 24.8503 57.5389 25.0496 57.6385 25.249C58.0372 25.4483 58.6352 25.847 59.4325 26.445C60.0306 26.8436 60.2299 27.043 60.4292 27.4416C60.4292 27.5146 60.4559 27.641 60.4898 27.8012C60.5484 28.0788 60.6286 28.4579 60.6286 28.837C60.6286 29.0363 60.6286 29.2357 60.4292 29.435C60.4292 29.6343 60.2299 29.6343 60.0306 29.6343C59.8312 29.6343 59.6319 29.6343 59.6319 29.435V28.0397V27.2423H56.6419V27.8403C56.6419 29.2357 56.8412 30.033 57.4392 30.631C58.0372 31.229 58.6352 31.4283 59.4325 31.6277V32.8237H60.8279V31.6277C61.8246 31.4283 62.6219 31.0297 63.0206 30.4317C63.6186 29.8337 63.8179 29.0363 63.8179 28.0397V28.0396C63.8179 27.4416 63.8179 26.8436 63.6186 26.445C63.4193 26.0463 63.2199 25.6476 63.0206 25.4483C62.8212 25.249 62.2232 24.8503 61.4259 24.4516C60.9677 24.108 60.5754 23.896 60.2867 23.74C60.073 23.6245 59.916 23.5397 59.8312 23.455C59.6319 23.2556 59.6319 22.8569 59.6319 22.4583C59.6319 22.2589 59.6319 22.0596 59.8312 21.8603C59.8312 21.6609 60.0306 21.6609 60.2299 21.6609C60.4292 21.6609 60.6286 21.6609 60.6286 21.8603V22.8569V23.2556H63.4192V23.0563ZM43.4856 50.9633C44.0836 50.9633 44.4822 50.5646 44.4822 49.9666V45.9799C44.4822 45.5812 44.2829 45.1826 43.6849 44.9832L27.7381 39.9998H27.1401L11.1933 44.9832C10.7946 45.1826 10.396 45.5812 10.396 45.9799V49.9666C10.396 50.5646 10.7946 50.9633 11.3926 50.9633H12.3893V63.92H11.3926C10.7946 63.92 10.396 64.3187 10.396 64.9167V68.9034C10.396 69.5014 10.7946 69.9001 11.3926 69.9001H43.2862C43.8842 69.9001 44.2829 69.5014 44.2829 68.9034V64.9167C44.2829 64.3187 43.8842 63.92 43.2862 63.92H42.2896V50.9633H43.4856ZM12.5887 67.9067V65.9134H13.5853H17.572H21.5587H25.5454H29.5321H33.5188H37.5055H41.4922H42.4889V67.9067H12.5887ZM14.582 63.92V50.9633H16.5753V63.92H14.582ZM18.5687 63.92V50.9633H20.562V63.92H18.5687ZM22.5554 63.92V50.9633H24.5487V63.92H22.5554ZM26.5421 63.92V50.9633H28.5354V63.92H26.5421ZM30.5288 63.92V50.9633H32.5221V63.92H30.5288ZM34.5155 63.92V50.9633H36.5088V63.92H34.5155ZM38.5022 63.92V50.9633H40.4955V63.92H38.5022ZM41.4922 48.9699H37.5055H33.5188H29.5321H25.5454H21.5587H17.572H13.5853H12.5887V46.7772L27.5388 42.1925L42.4889 46.7772V48.9699H41.4922ZM26.5423 44.9832H28.5356V46.9766H26.5423V44.9832ZM44.4824 19.0697H46.4758V21.063H44.4824V19.0697ZM42.4891 19.0697H40.4957V21.063H42.4891V19.0697ZM36.509 19.0697H38.5024V21.063H36.509V19.0697ZM34.5157 19.0697H32.5223V21.063H34.5157V19.0697ZM28.5356 19.0697H30.529V21.063H28.5356V19.0697ZM26.5423 19.0697H24.5489V21.063H26.5423V19.0697ZM20.5622 19.0697H22.5556V21.063H20.5622V19.0697ZM18.5689 19.0697H16.5755V21.063H18.5689V19.0697ZM16.5755 23.0564H18.5689V25.0497H16.5755V23.0564ZM18.5689 27.0431H16.5755V29.0364H18.5689V27.0431ZM16.5755 31.0298H18.5689V33.0231H16.5755V31.0298ZM18.5689 35.0165H16.5755V37.0098H18.5689V35.0165ZM16.5755 39.0032H18.5689V40.9965H16.5755V39.0032ZM46.4758 59.9333H44.4824V61.9267H46.4758V59.9333ZM48.4691 59.9333H50.4625V61.9267H48.4691V59.9333ZM54.4492 59.9333H52.4558V61.9267H54.4492V59.9333ZM56.4425 61.9267V59.9333H58.4359V61.9267H56.4425ZM60.4292 59.9333V61.9267H62.4226V59.9333H60.4292ZM64.4159 59.9333H66.4093V61.9267H64.4159V59.9333ZM66.4093 55.9466H64.4159V57.94H66.4093V55.9466ZM64.4159 51.9599H66.4093V53.9533H64.4159V51.9599ZM66.4093 47.9732H64.4159V49.9666H66.4093V47.9732ZM64.4159 43.9865H66.4093V45.9799H64.4159V43.9865Z" fill="url(#paint0_linear_808_17710)"/>
<defs>
<linearGradient id="paint0_linear_808_17710" x1="69.3228" y1="68.603" x2="69.3228" y2="10.0996" gradientUnits="userSpaceOnUse">
<stop stop-color="#002D85"/>
<stop offset="1" stop-color="#013AA9"/>
</linearGradient>
</defs>
</svg>
