<svg width="81" height="80" viewBox="0 0 81 80" fill="none" xmlns="http://www.w3.org/2000/svg">
<path fill-rule="evenodd" clip-rule="evenodd" d="M35.1492 10.1198H64.9301C68.1068 10.1198 70.6878 12.7008 70.4893 15.8774V64.3211C70.4893 67.2992 68.1068 69.8802 64.9301 69.8802H35.1492C32.1711 69.8802 29.5901 67.4977 29.5901 64.3211V52.8058H33.3625V56.7766H66.9155V23.2234H33.3625V27.9883H29.5901V15.679C29.5901 12.7009 31.9725 10.1198 35.1492 10.1198ZM65.1289 65.9094C66.1216 65.9094 66.9155 65.1153 66.9155 64.1226H67.1143V60.3503H33.5609V64.1226C33.5609 65.1153 34.3552 65.9094 35.3479 65.9094H65.1289ZM33.3625 19.4511H66.717V15.679C66.717 14.6863 65.9228 13.892 64.9301 13.892H35.1492C34.1565 13.892 33.3625 14.6863 33.3625 15.679V19.4511ZM57.7819 33.3489V34.3416V34.7387H52.0243V33.746V33.7459C52.0243 32.7533 52.0243 31.9591 51.8257 31.7606C51.6272 31.562 51.4287 31.3635 51.0316 31.3635C50.6347 31.3635 50.4364 31.5618 50.2379 31.7603L50.2376 31.7606C50.0391 31.9591 50.0389 32.3562 50.0389 32.9518C50.0389 33.746 50.2374 34.3416 50.6345 34.7387C50.9794 35.0835 51.7734 35.5781 53.0167 36.3525L53.0169 36.3526L53.017 36.3527L53.0227 36.3562C53.2092 36.4724 53.4059 36.5949 53.6126 36.7241C54.1434 37.1032 54.5874 37.4245 54.9665 37.6988L54.9666 37.6989C55.5801 38.1428 56.0241 38.4641 56.3922 38.7095L56.3922 38.7095C56.7893 39.3051 57.1863 39.9007 57.5834 40.6949C57.9805 41.489 58.1792 42.4817 58.1792 43.673C58.1792 45.6584 57.7819 47.0482 56.7892 48.2394C55.9951 49.2321 54.4068 50.0262 52.6199 50.2248V52.2102H50.0389V50.0262C48.6491 49.8277 47.4581 49.2321 46.2668 48.2394C45.2741 47.2467 44.6783 45.4598 44.6783 43.0774V42.0847H50.2376V43.4744V43.4793C50.2376 45.0644 50.2376 45.8573 50.436 46.254C50.436 46.6511 50.8332 46.8496 51.2303 46.8496C51.6272 46.8496 51.8255 46.6513 52.024 46.4528L52.0243 46.4525C52.2228 46.0555 52.223 45.6584 52.223 45.2613C52.223 44.0701 52.2228 43.2759 52.0243 42.6803C51.8257 42.0847 51.2303 41.489 50.2376 40.8934C48.6509 39.7033 47.4602 38.9096 46.864 38.5121L46.8623 38.5109C46.2666 37.9153 45.6712 37.3197 45.2741 36.327C44.8771 35.5328 44.6783 34.5401 44.6783 33.3489C44.6783 31.7606 45.0754 30.5693 46.0681 29.5766C47.0608 28.584 48.4508 27.9883 50.2376 27.7898V26.0029H52.8184V27.7898C54.4068 28.1869 55.7965 28.584 56.5907 29.5766C57.3849 30.3708 57.7819 31.7606 57.7819 33.3489ZM26.2141 29.1795H18.8681V37.4199H10.5V44.7661H18.8681V53.2028H26.2141V44.7661H34.5233V37.4199H26.2141V29.1795Z" fill="url(#paint0_linear_720_18903)"/>
<defs>
<linearGradient id="paint0_linear_720_18903" x1="12.1605" y1="10.1198" x2="75.0074" y2="34.3625" gradientUnits="userSpaceOnUse">
<stop stop-color="#002D85"/>
<stop offset="1" stop-color="#DE0000"/>
</linearGradient>
</defs>
</svg>
