<svg width="80" height="80" viewBox="0 0 80 80" fill="none" xmlns="http://www.w3.org/2000/svg">
<path fill-rule="evenodd" clip-rule="evenodd" d="M24.9236 10H55.0759C58.1215 10 60.7104 12.5888 60.7104 15.6345V64.3655C60.7104 67.4112 58.1215 70 55.0759 70H24.9236C21.8779 70 19.2891 67.4112 19.2891 64.3655V55.533V52.7919V15.6345C19.2891 12.5888 21.8779 10 24.9236 10ZM23.0962 52.7919V55.533V56.9035H56.9033V23.0964H23.0962V52.7919ZM55.0759 66.3452C55.9896 66.3452 56.9033 65.5838 56.9033 64.5178V60.7107H23.0962V64.5178C23.0962 65.4315 23.8576 66.3452 24.9236 66.3452H55.0759ZM23.0962 19.4416H56.9033V15.6345C56.9033 14.7208 56.1419 13.8071 55.0759 13.8071H24.9236C24.0099 13.8071 23.0962 14.5685 23.0962 15.6345V19.4416ZM46.3951 33.2995V33.9086H40.7605V32.9949C40.7605 31.9289 40.7605 31.3198 40.6083 31.0152C40.6083 30.7107 40.3037 30.5584 39.8468 30.5584C39.5423 30.5584 39.2377 30.7107 39.0854 31.0152C38.9331 31.3198 38.7809 31.7766 38.7809 32.2335C38.7809 33.1472 38.9331 33.7563 39.2377 34.0609L39.2377 34.0609C39.6946 34.3655 40.6083 34.9746 42.2834 36.0406C42.7135 36.3274 43.1137 36.5841 43.4744 36.8156C44.2631 37.3217 44.8633 37.7068 45.1768 38.0203C45.7859 38.4772 46.2428 39.2386 46.5473 40C46.8519 40.7614 47.0042 41.8274 47.0042 43.0457C47.0042 45.0254 46.5473 46.7005 45.6336 47.7665C44.7199 48.9848 43.3494 49.5939 41.3697 49.8985V52.0305H38.7809V49.8985C37.4103 49.7462 36.0397 49.2893 34.9737 48.2233C33.9078 47.3096 33.2986 45.4822 33.2986 43.0457V41.9797H38.7809V43.3503C38.7809 44.8731 38.7809 45.7868 38.9331 46.0914C38.9331 46.5482 39.2377 46.7005 39.6946 46.7005C40.1514 46.7005 40.456 46.7005 40.6083 46.3959C40.7605 46.2437 40.9128 45.7868 40.9128 45.3299C40.9128 43.9594 40.7605 43.198 40.6083 42.5888C40.456 42.132 39.8468 41.5228 38.7809 40.9137C38.5309 40.7547 38.2912 40.6024 38.0621 40.4569C36.7558 39.6273 35.7966 39.0181 35.2783 38.6294C34.6692 38.1726 34.2123 37.4112 33.7555 36.4975C33.2986 35.5838 33.1463 34.67 33.1463 33.4518C33.1463 31.7766 33.6032 30.4061 34.5169 29.4924C35.4306 28.5787 36.9534 27.9695 38.7809 27.8173V25.9898H41.3697V27.8173C43.0448 27.9695 44.2631 28.5787 45.1768 29.4924C45.9382 30.4061 46.3951 31.6244 46.3951 33.2995Z" fill="url(#paint0_linear_720_19040)"/>
<defs>
<linearGradient id="paint0_linear_720_19040" x1="20.4354" y1="10" x2="67.002" y2="22.3512" gradientUnits="userSpaceOnUse">
<stop stop-color="#002D85"/>
<stop offset="1" stop-color="#DE0000"/>
</linearGradient>
</defs>
</svg>
