<svg width="81" height="80" viewBox="0 0 81 80" fill="none" xmlns="http://www.w3.org/2000/svg">
<path fill-rule="evenodd" clip-rule="evenodd" d="M67.51 10.0999H51.5632C49.9685 10.0999 48.5732 11.4952 48.5732 13.0899V39.0034C48.5732 40.5981 49.9685 41.9934 51.5632 41.9934H67.51C69.1047 41.9934 70.5 40.5981 70.5 39.0034V13.0899C70.5 11.4952 69.1047 10.0999 67.51 10.0999ZM68.5067 39.0034C68.5067 39.6014 68.108 40.0001 67.51 40.0001H51.5632C50.9652 40.0001 50.5665 39.6014 50.5665 39.0034V37.0101H68.5067V39.0034ZM68.5067 35.0167H50.5665V17.0766H68.5067V35.0167ZM68.5067 15.0832H50.5665V13.0899C50.5665 12.4919 50.9652 12.0932 51.5632 12.0932H67.51C68.108 12.0932 68.5067 12.4919 68.5067 13.0899V15.0832ZM63.5233 23.0565V22.4585C63.5233 21.6612 63.3239 20.8638 62.9253 20.4652C62.5266 20.0665 61.7293 19.6678 60.9319 19.4685V18.4718H59.5366V19.4685C58.5399 19.6678 57.7426 19.8672 57.3439 20.4652C56.7459 21.0632 56.5466 21.6612 56.5466 22.4585C56.5466 23.0565 56.7459 23.6545 56.9452 24.0532C57.0449 24.2525 57.1944 24.4519 57.3439 24.6512C57.4934 24.8505 57.6429 25.0499 57.7426 25.2492C58.1412 25.4485 58.7392 25.8472 59.5366 26.4452C60.1346 26.8439 60.3339 27.0432 60.5333 27.4419C60.5333 27.5149 60.56 27.6412 60.5938 27.8015C60.6525 28.079 60.7326 28.4581 60.7326 28.8372C60.7326 29.0366 60.7326 29.2359 60.5333 29.4352C60.5333 29.6346 60.3339 29.6346 60.1346 29.6346C59.9353 29.6346 59.7359 29.6346 59.7359 29.4352V28.0399V27.2426H56.7459V27.8406C56.7459 29.2359 56.9452 30.0332 57.5432 30.6313C58.1412 31.2293 58.7392 31.4286 59.5366 31.6279V32.8239H60.9319V31.6279C61.9286 31.4286 62.7259 31.0299 63.1246 30.4319C63.7226 29.8339 63.922 29.0366 63.922 28.0399V28.0399C63.922 27.4419 63.922 26.8439 63.7226 26.4452C63.5233 26.0465 63.324 25.6479 63.1246 25.4485C62.9253 25.2492 62.3273 24.8505 61.5299 24.4519C61.0718 24.1083 60.6794 23.8963 60.3907 23.7403C60.177 23.6248 60.02 23.54 59.9353 23.4552C59.7359 23.2559 59.7359 22.8572 59.7359 22.4585C59.7359 22.2592 59.7359 22.0598 59.9353 21.8605C59.9353 21.6612 60.1346 21.6612 60.3339 21.6612C60.5333 21.6612 60.7326 21.6612 60.7326 21.8605V22.8572V23.2559H63.5233V23.0565ZM43.5896 50.9635C44.1876 50.9635 44.5863 50.5648 44.5863 49.9668V45.9801C44.5863 45.5815 44.3869 45.1828 43.7889 44.9835L27.8421 40.0001H27.2441L11.2973 44.9835C10.8987 45.1828 10.5 45.5815 10.5 45.9801V49.9668C10.5 50.5648 10.8987 50.9635 11.4967 50.9635H12.4933V63.9203H11.4967C10.8987 63.9203 10.5 64.3189 10.5 64.917V68.9037C10.5 69.5017 10.8987 69.9003 11.4967 69.9003H43.3903C43.9883 69.9003 44.3869 69.5017 44.3869 68.9037V64.917C44.3869 64.3189 43.9883 63.9203 43.3903 63.9203H42.3936V50.9635H43.5896ZM12.6927 67.907V65.9136H13.6894H17.6761H21.6628H25.6495H29.6362H33.6229H37.6095H41.5962H42.5929V67.907H12.6927ZM14.686 63.9203V50.9635H16.6794V63.9203H14.686ZM18.6727 63.9203V50.9635H20.6661V63.9203H18.6727ZM22.6594 63.9203V50.9635H24.6528V63.9203H22.6594ZM26.6461 63.9203V50.9635H28.6395V63.9203H26.6461ZM30.6328 63.9203V50.9635H32.6262V63.9203H30.6328ZM34.6195 63.9203V50.9635H36.6129V63.9203H34.6195ZM38.6062 63.9203V50.9635H40.5996V63.9203H38.6062ZM41.5962 48.9702H37.6095H33.6229H29.6362H25.6495H21.6628H17.6761H13.6894H12.6927V46.7775L27.6428 42.1928L42.5929 46.7775V48.9702H41.5962ZM26.6463 44.9835H28.6397V46.9768H26.6463V44.9835ZM44.5865 19.0699H46.5798V21.0633H44.5865V19.0699ZM42.5931 19.0699H40.5998V21.0633H42.5931V19.0699ZM36.6131 19.0699H38.6064V21.0633H36.6131V19.0699ZM34.6197 19.0699H32.6264V21.0633H34.6197V19.0699ZM28.6397 19.0699H30.633V21.0633H28.6397V19.0699ZM26.6463 19.0699H24.653V21.0633H26.6463V19.0699ZM20.6663 19.0699H22.6596V21.0633H20.6663V19.0699ZM18.6729 19.0699H16.6796V21.0633H18.6729V19.0699ZM16.6796 23.0566H18.6729V25.05H16.6796V23.0566ZM18.6729 27.0433H16.6796V29.0367H18.6729V27.0433ZM16.6796 31.03H18.6729V33.0234H16.6796V31.03ZM18.6729 35.0167H16.6796V37.0101H18.6729V35.0167ZM16.6796 39.0034H18.6729V40.9968H16.6796V39.0034ZM46.5798 59.9336H44.5865V61.9269H46.5798V59.9336ZM48.5732 59.9336H50.5665V61.9269H48.5732V59.9336ZM54.5532 59.9336H52.5599V61.9269H54.5532V59.9336ZM56.5466 61.9269V59.9336H58.5399V61.9269H56.5466ZM60.5333 59.9336V61.9269H62.5266V59.9336H60.5333ZM64.52 59.9336H66.5133V61.9269H64.52V59.9336ZM66.5133 55.9469H64.52V57.9402H66.5133V55.9469ZM64.52 51.9602H66.5133V53.9535H64.52V51.9602ZM66.5133 47.9735H64.52V49.9668H66.5133V47.9735ZM64.52 43.9868H66.5133V45.9801H64.52V43.9868Z" fill="url(#paint0_linear_720_18871)"/>
<defs>
<linearGradient id="paint0_linear_720_18871" x1="12.1605" y1="10.0999" x2="75.0183" y2="34.3306" gradientUnits="userSpaceOnUse">
<stop stop-color="#002D85"/>
<stop offset="1" stop-color="#DE0000"/>
</linearGradient>
</defs>
</svg>
