<svg width="81" height="80" viewBox="0 0 81 80" fill="none" xmlns="http://www.w3.org/2000/svg">
<path fill-rule="evenodd" clip-rule="evenodd" d="M25.8198 10H55.9721C59.0178 10 61.6066 12.5888 61.6066 15.6345V64.3655C61.6066 67.4112 59.0178 70 55.9721 70H25.8198C22.7741 70 20.1853 67.4112 20.1853 64.3655V55.533V52.7919V15.6345C20.1853 12.5888 22.7741 10 25.8198 10ZM23.9924 52.7919V55.533V56.9035H57.7995V23.0964H23.9924V52.7919ZM55.9721 66.3452C56.8858 66.3452 57.7995 65.5838 57.7995 64.5178V60.7107H23.9924V64.5178C23.9924 65.4315 24.7538 66.3452 25.8198 66.3452H55.9721ZM23.9924 19.4416H57.7995V15.6345C57.7995 14.7208 57.0381 13.8071 55.9721 13.8071H25.8198C24.9061 13.8071 23.9924 14.5685 23.9924 15.6345V19.4416ZM47.2913 33.2995V33.9086H41.6568V32.9949C41.6568 31.9289 41.6568 31.3198 41.5045 31.0152C41.5045 30.7107 41.1999 30.5584 40.7431 30.5584C40.4385 30.5584 40.1339 30.7107 39.9816 31.0152C39.8293 31.3198 39.6771 31.7766 39.6771 32.2335C39.6771 33.1472 39.8293 33.7563 40.1339 34.0609L40.1339 34.0609C40.5908 34.3655 41.5045 34.9746 43.1796 36.0406C43.6098 36.3274 44.0099 36.5841 44.3706 36.8156C45.1593 37.3217 45.7595 37.7068 46.073 38.0203C46.6821 38.4772 47.139 39.2386 47.4436 40C47.7481 40.7614 47.9004 41.8274 47.9004 43.0457C47.9004 45.0254 47.4436 46.7005 46.5299 47.7665C45.6161 48.9848 44.2456 49.5939 42.2659 49.8985V52.0305H39.6771V49.8985C38.3065 49.7462 36.9359 49.2893 35.87 48.2233C34.804 47.3096 34.1948 45.4822 34.1948 43.0457V41.9797H39.6771V43.3503C39.6771 44.8731 39.6771 45.7868 39.8293 46.0914C39.8293 46.5482 40.1339 46.7005 40.5908 46.7005C41.0476 46.7005 41.3522 46.7005 41.5045 46.3959C41.6568 46.2437 41.809 45.7868 41.809 45.3299C41.809 43.9594 41.6568 43.198 41.5045 42.5888C41.3522 42.132 40.743 41.5228 39.6771 40.9137C39.4271 40.7547 39.1874 40.6024 38.9583 40.4569C37.652 39.6273 36.6928 39.0181 36.1745 38.6294C35.5654 38.1726 35.1085 37.4112 34.6517 36.4975C34.1948 35.5838 34.0425 34.67 34.0425 33.4518C34.0425 31.7766 34.4994 30.4061 35.4131 29.4924C36.3268 28.5787 37.8496 27.9695 39.6771 27.8173V25.9898H42.2659V27.8173C43.941 27.9695 45.1593 28.5787 46.073 29.4924C46.8344 30.4061 47.2913 31.6244 47.2913 33.2995Z" fill="url(#paint0_linear_808_17898)"/>
<defs>
<linearGradient id="paint0_linear_808_17898" x1="60.8657" y1="68.6986" x2="60.8657" y2="10" gradientUnits="userSpaceOnUse">
<stop stop-color="#002D85"/>
<stop offset="1" stop-color="#013AA9"/>
</linearGradient>
</defs>
</svg>
