<svg width="79" height="80" viewBox="0 0 79 80" fill="none" xmlns="http://www.w3.org/2000/svg">
<path fill-rule="evenodd" clip-rule="evenodd" d="M25.5326 12.4136H53.2589C56.0595 12.4136 58.44 14.7941 58.44 17.5947V62.4048C58.44 65.2055 56.0595 67.586 53.2589 67.586H25.5326C22.732 67.586 20.3515 65.2055 20.3515 62.4048V54.283V51.7624V17.5947C20.3515 14.7941 22.732 12.4136 25.5326 12.4136ZM23.8523 51.7624V54.283V55.5433H54.9393V24.4563H23.8523V51.7624ZM53.2589 64.2252C54.0991 64.2252 54.9393 63.5251 54.9393 62.5449V59.0441H23.8523V62.5449C23.8523 63.385 24.5524 64.2252 25.5326 64.2252H53.2589ZM23.8523 21.0955H54.9393V17.5947C54.9393 16.7546 54.2391 15.9144 53.2589 15.9144H25.5326C24.6924 15.9144 23.8523 16.6145 23.8523 17.5947V21.0955ZM45.2765 33.8384V34.3985H40.0954V33.5583C40.0954 32.5781 40.0954 32.018 39.9553 31.7379C39.9553 31.4579 39.6753 31.3178 39.2552 31.3178C38.9751 31.3178 38.695 31.4579 38.555 31.7379C38.415 32.018 38.275 32.4381 38.275 32.8582C38.275 33.6984 38.415 34.2585 38.695 34.5386L38.6951 34.5386C39.1153 34.8187 39.9554 35.3788 41.4957 36.359C41.8912 36.6227 42.2592 36.8588 42.5909 37.0716C43.3161 37.537 43.868 37.8911 44.1563 38.1794C44.7164 38.5995 45.1365 39.2996 45.4166 39.9998C45.6966 40.6999 45.8367 41.6802 45.8367 42.8004C45.8367 44.6208 45.4166 46.1612 44.5764 47.1414C43.7362 48.2616 42.4759 48.8218 40.6555 49.1018V51.0623H38.275V49.1018C37.0147 48.9618 35.7544 48.5417 34.7742 47.5615C33.7939 46.7213 33.2338 45.0409 33.2338 42.8004V41.8202H38.275V43.0805C38.275 44.4808 38.275 45.321 38.415 45.601C38.415 46.0211 38.695 46.1612 39.1151 46.1612C39.5352 46.1612 39.8153 46.1612 39.9553 45.8811C40.0954 45.7411 40.2354 45.321 40.2354 44.9009C40.2354 43.6406 40.0954 42.9404 39.9553 42.3803C39.8153 41.9602 39.2552 41.4001 38.275 40.84C38.0451 40.6937 37.8246 40.5537 37.6139 40.4199C36.4128 39.657 35.5308 39.0969 35.0542 38.7395C34.4941 38.3194 34.074 37.6192 33.6539 36.7791C33.2338 35.9389 33.0938 35.0987 33.0938 33.9784C33.0938 32.4381 33.5139 31.1778 34.3541 30.3376C35.1943 29.4974 36.5946 28.9373 38.275 28.7973V27.1169H40.6555V28.7973C42.1958 28.9373 43.3161 29.4974 44.1563 30.3376C44.8564 31.1778 45.2765 32.298 45.2765 33.8384Z" fill="url(#paint0_linear_808_17657)"/>
<defs>
<linearGradient id="paint0_linear_808_17657" x1="57.7588" y1="66.3893" x2="57.7588" y2="12.4136" gradientUnits="userSpaceOnUse">
<stop stop-color="#002D85"/>
<stop offset="1" stop-color="#013AA9"/>
</linearGradient>
</defs>
</svg>
