<svg width="81" height="80" viewBox="0 0 81 80" fill="none" xmlns="http://www.w3.org/2000/svg">
<path fill-rule="evenodd" clip-rule="evenodd" d="M31.1654 10H61.065C64.0751 10 66.6838 12.6088 66.6838 15.6188V64.3815C66.6838 67.3915 64.0751 70 61.065 70H31.1654C28.1553 70 25.5466 67.3915 25.5466 64.3815V52.7425H29.3594V56.7558H63.0717V23.0435H29.3594V26.455H25.5466V15.6188C25.5466 12.6088 28.1553 10 31.1654 10ZM61.065 65.9866C62.0684 65.9866 62.8711 65.1839 62.8711 64.1806H63.0717V60.3681H29.3594V64.1806C29.3594 65.1839 30.162 65.9866 31.1654 65.9866H61.065ZM29.1587 19.4316H62.6704V15.6188C62.6704 14.6155 61.8677 13.8127 60.8644 13.8127H30.9647C29.9614 13.8127 29.1587 14.6155 29.1587 15.6188V19.4316ZM53.841 34.2811V33.2778C53.841 31.6724 53.4396 30.4684 52.6369 29.4651C51.8343 28.4617 50.4296 28.0602 48.8242 27.8595V26.0535H46.2155V27.8595C44.4095 28.0602 43.0048 28.6622 42.0015 29.6655C40.9981 30.6689 40.5968 31.8731 40.5968 33.4785C40.5968 34.6825 40.7975 35.6858 41.1988 36.4885C41.6002 37.4918 42.2022 38.0938 42.8042 38.4952L42.807 38.497L42.807 38.4971C43.4099 38.899 44.6127 39.7009 46.2155 40.903C47.2189 41.505 47.8209 42.107 48.0216 42.709C48.2222 43.311 48.2222 44.1139 48.2222 45.3179C48.2222 45.7193 48.2222 46.1206 48.0216 46.5219C47.8209 46.7226 47.6202 46.9231 47.2189 46.9231C46.8175 46.9231 46.4162 46.7226 46.4162 46.3213C46.2155 45.9199 46.2155 45.1173 46.2155 43.5119V42.107H40.7975V43.1104C40.7975 45.5184 41.3995 47.3246 42.4028 48.328C43.4062 49.3313 44.8109 49.9331 46.2155 49.9331V52.1405H48.8242V50.1338C50.6302 49.9331 52.2356 49.1304 53.0383 48.1271C54.0416 46.9231 54.443 45.5186 54.443 43.5119C54.443 42.3079 54.2423 41.3045 53.841 40.5019C53.4396 39.6992 53.0383 39.0972 52.6369 38.4952C52.2649 38.2471 51.8161 37.9224 51.196 37.4737C50.8128 37.1964 50.3641 36.8717 49.8276 36.4885C49.6167 36.3567 49.4161 36.2318 49.226 36.1134L49.2256 36.1131C47.9688 35.3303 47.1661 34.8304 46.8175 34.4818C46.4162 34.0805 46.2155 33.4783 46.2155 32.6756C46.2155 32.0736 46.2155 31.6724 46.4162 31.4718L46.4165 31.4715C46.6171 31.2709 46.8177 31.0702 47.2189 31.0702C47.62 31.0702 47.8207 31.2709 48.0213 31.4715L48.0216 31.4718C48.2222 31.6724 48.2222 32.4751 48.2222 33.2778V34.2811H53.841ZM27.7536 37.8929H17.7202V33.2777C17.7202 31.0704 19.5262 29.2644 21.7335 29.2644C23.9409 29.2644 25.7469 31.0704 25.7469 33.2777V35.0836C25.7469 35.6856 26.1483 36.0869 26.7503 36.0869C27.3523 36.0869 27.7536 35.6856 27.7536 35.0836V33.2777C27.7536 30.067 25.1449 27.4583 21.9342 27.4583C18.7235 27.4583 16.1148 30.067 16.1148 33.2777V37.8929H15.7135C14.9108 37.8929 14.1081 38.4951 14.1081 39.4985V49.3312C14.1081 50.1339 14.7101 50.9364 15.7135 50.9364H27.9543C28.757 50.9364 29.5596 50.3346 29.5596 49.3312V39.4985C29.359 38.4951 28.5563 37.8929 27.7536 37.8929ZM19.7269 42.9096C19.7269 41.9063 20.5295 41.1036 21.5329 41.1036C22.5362 41.1036 23.3389 41.9063 23.3389 42.9096C23.3389 43.5117 22.9376 44.1139 22.3355 44.5152V47.1237H20.5295V44.5152C20.1282 44.3145 19.7269 43.7123 19.7269 42.9096Z" fill="url(#paint0_linear_808_17739)"/>
<defs>
<linearGradient id="paint0_linear_808_17739" x1="65.7434" y1="68.6986" x2="65.7434" y2="10" gradientUnits="userSpaceOnUse">
<stop stop-color="#002D85"/>
<stop offset="1" stop-color="#013AA9"/>
</linearGradient>
</defs>
</svg>
