<svg width="81" height="80" viewBox="0 0 81 80" fill="none" xmlns="http://www.w3.org/2000/svg">
<path fill-rule="evenodd" clip-rule="evenodd" d="M35.0451 10.1196H64.8261C68.0027 10.1196 70.5838 12.7007 70.3852 15.8773V64.321C70.3852 67.2991 68.0027 69.8801 64.8261 69.8801H35.0451C32.0671 69.8801 29.486 67.4976 29.486 64.321V52.8057H33.2585V56.7765H66.8115V23.2233H33.2585V27.9882H29.486V15.6788C29.486 12.7007 31.8685 10.1196 35.0451 10.1196ZM65.0249 65.9093C66.0176 65.9093 66.8115 65.1152 66.8115 64.1225H67.0103V60.3502H33.4568V64.1225C33.4568 65.1152 34.2512 65.9093 35.2439 65.9093H65.0249ZM33.2585 19.451H66.613V15.6788C66.613 14.6861 65.8188 13.8919 64.8261 13.8919H35.0451C34.0524 13.8919 33.2585 14.6861 33.2585 15.6788V19.451ZM57.6779 33.3488V34.3415V34.7386H51.9202V33.7459V33.7458C51.9202 32.7531 51.9202 31.959 51.7217 31.7605C51.5232 31.5619 51.3246 31.3634 50.9276 31.3634C50.5307 31.3634 50.3323 31.5617 50.1339 31.7602L50.1336 31.7605C49.9351 31.959 49.9349 32.3561 49.9349 32.9517C49.9349 33.7459 50.1334 34.3415 50.5305 34.7386C50.8753 35.0834 51.6694 35.578 52.9127 36.3524L52.9129 36.3525L52.913 36.3526L52.9186 36.3561C53.1052 36.4723 53.3018 36.5948 53.5086 36.724C54.0394 37.1031 54.4833 37.4243 54.8625 37.6987L54.8626 37.6988C55.4761 38.1427 55.92 38.464 56.2881 38.7094L56.2882 38.7094C56.6852 39.305 57.0823 39.9006 57.4794 40.6948C57.8764 41.4889 58.0752 42.4816 58.0752 43.6729C58.0752 45.6582 57.6779 47.048 56.6852 48.2393C55.891 49.232 54.3027 50.0261 52.5159 50.2247V52.2101H49.9349V50.0261C48.5451 49.8276 47.354 49.232 46.1628 48.2393C45.1701 47.2466 44.5743 45.4597 44.5743 43.0772V42.0845H50.1336V43.4743V43.4792C50.1336 45.0642 50.1336 45.8572 50.3319 46.2539C50.3319 46.651 50.7292 46.8495 51.1263 46.8495C51.5232 46.8495 51.7215 46.6511 51.92 46.4527L51.9202 46.4524C52.1188 46.0553 52.119 45.6583 52.119 45.2612C52.119 44.0699 52.1188 43.2758 51.9202 42.6802C51.7217 42.0845 51.1263 41.4889 50.1336 40.8933C48.5468 39.7032 47.3562 38.9095 46.76 38.512L46.7582 38.5108C46.1626 37.9152 45.5672 37.3196 45.1701 36.3269C44.773 35.5327 44.5743 34.54 44.5743 33.3488C44.5743 31.7605 44.9714 30.5692 45.9641 29.5765C46.9568 28.5838 48.3467 27.9882 50.1336 27.7897V26.0028H52.7144V27.7897C54.3027 28.1867 55.6925 28.5838 56.4867 29.5765C57.2808 30.3707 57.6779 31.7605 57.6779 33.3488ZM26.1101 29.1794H18.7641V37.4198H10.396V44.766H18.7641V53.2027H26.1101V44.766H34.4193V37.4198H26.1101V29.1794Z" fill="url(#paint0_linear_808_17744)"/>
<defs>
<linearGradient id="paint0_linear_808_17744" x1="69.3228" y1="68.5839" x2="69.3228" y2="10.1196" gradientUnits="userSpaceOnUse">
<stop stop-color="#002D85"/>
<stop offset="1" stop-color="#013AA9"/>
</linearGradient>
</defs>
</svg>
