<svg width="81" height="80" viewBox="0 0 81 80" fill="none" xmlns="http://www.w3.org/2000/svg">
<path fill-rule="evenodd" clip-rule="evenodd" d="M56.2795 20.3691L63.1628 20.0857L63.2128 20.1357C63.7648 20.0894 64.3128 20.2632 64.7373 20.6192C65.162 20.9751 65.4287 21.4842 65.4795 22.0357L65.6795 27.0357C65.6818 27.1742 65.6562 27.3119 65.6042 27.4402C65.5522 27.5687 65.475 27.6854 65.377 27.7832C65.279 27.8812 65.1623 27.9586 65.034 28.0106C64.9055 28.0626 64.768 28.0881 64.6295 28.0857H63.5462L64.0628 40.0526C64.0585 40.6066 63.8353 41.1364 63.4418 41.5266C63.0485 41.9167 62.5168 42.1359 61.9628 42.1359L35.8628 43.2357C35.3125 43.2819 34.7665 43.1077 34.3445 42.7516C33.9227 42.3952 33.6595 41.8859 33.6128 41.3357L33.0962 29.3526H32.0128C31.7377 29.3712 31.4662 29.2827 31.2548 29.1057C31.0435 28.9286 30.909 28.6766 30.8795 28.4024L30.6795 23.4024C30.6795 22.8499 30.899 22.3201 31.2897 21.9294C31.6803 21.5387 32.2103 21.3191 32.7628 21.3191L39.6462 21.0359C39.2025 20.7942 38.7838 20.5096 38.3962 20.1859C37.967 19.8347 37.6168 19.3969 37.3687 18.901C37.1205 18.4052 36.98 17.8624 36.9565 17.3084C36.9328 16.7544 37.0267 16.2017 37.2317 15.6865C37.4367 15.1713 37.7483 14.7054 38.1462 14.3191C39.0023 13.5185 40.1172 13.0513 41.2883 13.0024C42.4595 12.9535 43.6095 13.326 44.5295 14.0524C45.4628 14.9191 48.1128 18.3524 47.8628 20.7191H48.0128C47.5795 18.3691 49.9295 14.7357 50.8295 13.819C51.6857 13.0184 52.8005 12.5512 53.9717 12.5023C55.143 12.4534 56.2928 12.8261 57.2128 13.5525C57.6425 13.9051 57.9928 14.3443 58.2412 14.8416C58.4893 15.3389 58.6298 15.883 58.6535 16.4383C58.6772 16.9936 58.5832 17.5475 58.378 18.064C58.1728 18.5806 57.861 19.0482 57.4628 19.4359C57.0955 19.7799 56.6997 20.0921 56.2795 20.3691ZM41.4128 15.0526C40.7865 15.0562 40.1872 15.3078 39.7462 15.7524H39.7795C39.5737 15.9539 39.4125 16.1964 39.3067 16.4643C39.2008 16.7322 39.1527 17.0194 39.1652 17.3072C39.1777 17.595 39.2508 17.8768 39.3797 18.1344C39.5085 18.3921 39.6902 18.6199 39.9128 18.8026C41.495 19.9659 43.3593 20.6852 45.3128 20.8859C45.4512 20.8941 45.5892 20.8652 45.7128 20.8024C46.1962 20.3024 44.5962 16.9025 43.0795 15.6025C42.6133 15.2153 42.0178 15.0189 41.4128 15.0526ZM35.8128 41.2526L47.7795 40.7524L47.2795 28.7859L35.3128 29.2857L35.8128 41.2526ZM33.0462 27.3691L47.1795 26.7857L47.0628 22.8524H45.3962L32.8795 23.3859L33.0462 27.3691ZM54.1545 14.4263C53.5413 14.4509 52.958 14.697 52.5128 15.1191L52.5462 15.1691C51.1462 16.5858 49.8295 20.1024 50.3628 20.5524H50.7628C52.6915 20.1832 54.49 19.3156 55.9795 18.0358C56.1853 17.8343 56.3465 17.5918 56.4523 17.3239C56.5582 17.056 56.6063 16.7688 56.5938 16.481C56.5812 16.1932 56.5082 15.9114 56.3793 15.6538C56.2505 15.3961 56.0688 15.1686 55.8462 14.9858C55.3685 14.6007 54.7675 14.4018 54.1545 14.4263ZM49.9795 40.6692L61.9462 40.1691L61.4462 28.1859L49.4795 28.6857L49.9795 40.6692ZM49.4795 26.6859L63.6128 26.1026L63.4962 22.1857L50.9795 22.7026H49.3128L49.4795 26.6859ZM10.896 63.8354V43.7023C10.9003 43.5759 10.9296 43.4518 10.9825 43.3371C11.0351 43.2223 11.1103 43.1193 11.2035 43.0339C11.2966 42.9486 11.4058 42.8826 11.5246 42.8399C11.6436 42.7973 11.7698 42.7788 11.896 42.7854H21.896C22.0221 42.7788 22.1483 42.7973 22.2671 42.8399C22.3861 42.8826 22.4953 42.9486 22.5885 43.0339C22.6815 43.1193 22.7568 43.2223 22.8095 43.3371C22.8623 43.4518 22.8916 43.5759 22.896 43.7023V44.6189H30.696C31.6706 44.6186 32.6271 44.8834 33.4626 45.3856L41.196 50.1188H49.1793C49.8545 50.1058 50.5233 50.2496 51.1336 50.5388C51.7438 50.8279 52.2786 51.2548 52.696 51.7854C53.0175 52.2296 53.2351 52.7401 53.3331 53.2794C53.4313 53.8188 53.4071 54.3733 53.2626 54.9021L65.596 51.3521C66.4565 51.0686 67.3853 51.0686 68.246 51.3521C68.9848 51.5536 69.6401 51.9856 70.1166 52.5851C70.5933 53.1846 70.8663 53.9203 70.896 54.6854C70.8908 55.4168 70.661 56.1286 70.2376 56.7249C69.8143 57.3211 69.218 57.7728 68.5293 58.0188L46.7126 66.4856C44.9763 67.1651 43.1271 67.5101 41.2626 67.5023H41.0126C39.5041 67.5051 38.004 67.2803 36.5626 66.8356L22.896 62.3854V63.8354C22.883 64.0889 22.7708 64.3273 22.5838 64.4988C22.3966 64.6703 22.1496 64.7613 21.896 64.7523H11.896C11.6423 64.7613 11.3953 64.6703 11.2081 64.4988C11.0211 64.3273 10.909 64.0889 10.896 63.8354ZM30.696 46.4523H22.896V60.5523L37.2126 65.2189C38.4433 65.5991 39.7245 65.7903 41.0126 65.7856H41.2626C42.8641 65.7918 44.4528 65.4978 45.946 64.9188L67.746 56.4523C68.094 56.3393 68.3953 56.1148 68.6031 55.8136C68.811 55.5124 68.9138 55.1511 68.896 54.7856C68.8858 54.4004 68.7501 54.0289 68.5095 53.7281C68.2686 53.4271 67.9363 53.2133 67.5626 53.1189C67.1351 52.9778 66.6735 52.9778 66.246 53.1189L51.8293 57.2356C51.4451 57.5666 51.005 57.8263 50.5293 58.0021C50.3173 58.0786 50.1 58.1401 49.8793 58.1856H49.7293C49.4796 58.2029 49.229 58.2029 48.9793 58.1856H33.9793V56.3354H48.9793C49.1616 56.3619 49.347 56.3619 49.5293 56.3354H49.7126L50.0293 56.2023L50.2293 56.1023C50.3415 56.0341 50.4475 55.9559 50.546 55.8689H50.6293C50.769 55.7383 50.887 55.5864 50.9793 55.4189L51.246 54.9188C51.4226 54.6003 51.5038 54.2378 51.4803 53.8743C51.4566 53.5109 51.329 53.1619 51.1126 52.8689C50.8945 52.5813 50.612 52.3484 50.288 52.1894C49.9638 52.0303 49.607 51.9489 49.246 51.9521H40.9126C40.719 51.9538 40.5286 51.9019 40.3626 51.8023L32.3626 46.9189C31.8646 46.6039 31.2851 46.4416 30.696 46.4523ZM20.496 45.5354H13.296V62.0523H20.496V45.5354Z" fill="url(#paint0_linear_808_17763)"/>
<defs>
<linearGradient id="paint0_linear_808_17763" x1="69.8228" y1="66.3094" x2="69.8228" y2="12.498" gradientUnits="userSpaceOnUse">
<stop stop-color="#002D85"/>
<stop offset="1" stop-color="#013AA9"/>
</linearGradient>
</defs>
</svg>
