<svg width="81" height="80" viewBox="0 0 81 80" fill="none" xmlns="http://www.w3.org/2000/svg">
<path fill-rule="evenodd" clip-rule="evenodd" d="M18.8209 12.2397V20.8185C18.8209 21.3828 19.045 21.924 19.4441 22.3231C19.843 22.722 20.3842 22.9461 20.9485 22.9461C21.5128 22.9461 22.0539 22.722 22.4529 22.3231C22.852 21.924 23.076 21.3828 23.076 20.8185V12.2397C23.076 11.6755 22.852 11.1343 22.4529 10.7353C22.0539 10.3363 21.5128 10.1122 20.9485 10.1122C20.3842 10.1122 19.843 10.3363 19.4441 10.7353C19.045 11.1343 18.8209 11.6755 18.8209 12.2397ZM55.6743 22.8152C55.4139 22.9243 55.1344 22.9806 54.8521 22.9806C54.5712 22.9783 54.2936 22.9205 54.0352 22.8103C53.7768 22.7004 53.5426 22.5401 53.3465 22.3392C53.1502 22.1381 52.9958 21.9003 52.892 21.6393C52.7882 21.3784 52.7371 21.0994 52.7417 20.8185V12.2397C52.7151 11.9454 52.7503 11.6488 52.8447 11.3689C52.9392 11.0889 53.0909 10.8317 53.2903 10.6136C53.4895 10.3955 53.7321 10.2213 54.0025 10.1021C54.2729 9.98295 54.5652 9.92139 54.8607 9.92139C55.1562 9.92139 55.4484 9.98295 55.7188 10.1021C55.9892 10.2213 56.2318 10.3955 56.4311 10.6136C56.6305 10.8317 56.7822 11.0889 56.8766 11.3689C56.9711 11.6488 57.0061 11.9454 56.9797 12.2397V20.8185C56.9841 21.1009 56.9325 21.3813 56.8277 21.6435C56.7227 21.9055 56.5669 22.1439 56.3689 22.3452C56.1709 22.5465 55.9346 22.7062 55.6743 22.8152ZM18.8038 35.9003H27.2968V44.4792H18.8038V35.9003ZM27.2968 57.4331H18.8038V48.8542H27.2968V57.4331ZM40.0107 44.5135H31.5348L31.5519 35.9346H40.0107V44.5135ZM40.0107 57.4331H31.5348L31.5519 48.8542H40.0107V57.4331ZM14.5658 31.5937V61.3107H14.583C14.5778 61.4145 14.6121 61.5164 14.6789 61.5961C14.7458 61.6755 14.8402 61.7268 14.9433 61.7397H40.0793V66.0462H14.9947C14.3819 66.0373 13.7767 65.9078 13.2139 65.6648C12.651 65.4221 12.1416 65.0708 11.7147 64.6311C11.2877 64.1913 10.9514 63.6718 10.7252 63.1022C10.4991 62.5325 10.3874 61.9236 10.3965 61.3107V23.4095C10.3874 22.7965 10.4991 22.1879 10.7252 21.6182C10.9514 21.0486 11.2877 20.5289 11.7147 20.0891C12.1416 19.6494 12.651 19.2982 13.2139 19.0553C13.7767 18.8124 14.3819 18.6828 14.9947 18.6739H16.7105V20.8185C16.7105 21.9425 17.157 23.0205 17.9517 23.8153C18.7465 24.61 19.8245 25.0565 20.9485 25.0565C22.0725 25.0565 23.1503 24.61 23.9451 23.8153C24.7398 23.0205 25.1864 21.9425 25.1864 20.8185V18.6739H50.6828V20.8185C50.6828 21.9425 51.1292 23.0205 51.9242 23.8153C52.7189 24.61 53.7967 25.0565 54.9208 25.0565C56.0448 25.0565 57.1226 24.61 57.9175 23.8153C58.7123 23.0205 59.1587 21.9425 59.1587 20.8185V18.6395H60.8745C61.4874 18.6485 62.0925 18.7781 62.6553 19.0209C63.2181 19.2637 63.7275 19.6151 64.1545 20.0548C64.5816 20.4946 64.9177 21.0143 65.144 21.5839C65.3701 22.1536 65.4818 22.7621 65.4727 23.375V40.1726H61.2348V31.5937H14.5658ZM62.7951 49.6436H68.5772C69.0628 49.6525 69.5252 49.8517 69.8654 50.1981C70.2055 50.5447 70.3961 51.0109 70.396 51.4965V56.1462C70.3961 56.389 70.3007 56.6222 70.1307 56.7955C69.9607 56.9687 69.7294 57.0683 69.4866 57.0727H68.5772V68.2081C68.5795 68.4515 68.5338 68.693 68.4429 68.9186C68.3518 69.1442 68.2171 69.3498 68.0467 69.5234C67.8762 69.6972 67.6732 69.8357 67.4493 69.9309C67.2252 70.0261 66.9848 70.076 66.7414 70.0783H44.8138C44.5705 70.076 44.33 70.0261 44.1061 69.9309C43.882 69.8357 43.679 69.6972 43.5086 69.5234C43.3381 69.3498 43.2034 69.1442 43.1125 68.9186C43.0213 68.693 42.9757 68.4515 42.9779 68.2081V57.0727H42.0686C41.8258 57.0683 41.5947 56.9687 41.4246 56.7955C41.2544 56.6222 41.1592 56.389 41.1592 56.1462V51.4965C41.159 51.0109 41.3497 50.5447 41.6899 50.1981C42.03 49.8517 42.4924 49.6525 42.9779 49.6436H48.7601C48.3974 49.4019 48.0583 49.126 47.7478 48.8199C47.0361 48.0867 46.638 47.1051 46.638 46.0832C46.638 45.0615 47.0361 44.0799 47.7478 43.3465C48.4629 42.6467 49.4237 42.2546 50.4244 42.2546C51.425 42.2546 52.3858 42.6467 53.101 43.3465C53.8902 44.1701 56.0006 47.4474 55.709 49.6436H55.8462C55.5545 47.4474 57.6478 44.1701 58.4542 43.3465C59.1693 42.6467 60.1302 42.2546 61.1308 42.2546C62.1314 42.2546 63.0923 42.6467 63.8074 43.3465C64.5191 44.0799 64.9173 45.0615 64.9173 46.0832C64.9173 47.1051 64.5191 48.0867 63.8074 48.8199C63.4968 49.126 63.158 49.4019 62.7951 49.6436ZM49.6701 44.2336C49.4315 44.3345 49.2153 44.482 49.0346 44.6679V44.6162C48.6716 45.0016 48.4693 45.5108 48.4693 46.0403C48.4693 46.5698 48.6716 47.0792 49.0346 47.4646C50.2926 48.5781 51.8385 49.3154 53.4956 49.5921C53.608 49.6218 53.7264 49.6218 53.8388 49.5921C54.2677 49.146 53.0495 45.9204 51.8142 44.6679C51.6335 44.482 51.4175 44.3345 51.1786 44.2336C50.94 44.1329 50.6835 44.0807 50.4244 44.0807C50.1653 44.0807 49.9088 44.1329 49.6701 44.2336ZM44.8138 68.1566H54.8682V57.0213H44.8138V68.1566ZM42.9779 55.1684H54.8682V51.445H42.9779V55.1684ZM61.1308 44.0507C60.6114 44.0507 60.1128 44.2537 59.741 44.6162V44.6679C58.5057 45.9204 57.2875 49.146 57.7164 49.5921C57.8231 49.6213 57.9357 49.6213 58.0424 49.5921C59.7058 49.3193 61.2583 48.5817 62.5206 47.4646C62.8838 47.0792 63.0859 46.5698 63.0859 46.0403C63.0859 45.5108 62.8838 45.0016 62.5206 44.6162C62.1488 44.2537 61.6502 44.0507 61.1308 44.0507ZM56.6869 68.2081H66.7414V57.0727H56.6869V68.2081ZM56.6869 55.2199H68.5772V51.4965H56.6869V55.2199Z" fill="url(#paint0_linear_808_17767)"/>
<defs>
<linearGradient id="paint0_linear_808_17767" x1="69.3228" y1="68.7735" x2="69.3228" y2="9.92139" gradientUnits="userSpaceOnUse">
<stop stop-color="#002D85"/>
<stop offset="1" stop-color="#013AA9"/>
</linearGradient>
</defs>
</svg>
