<svg width="81" height="80" viewBox="0 0 81 80" fill="none" xmlns="http://www.w3.org/2000/svg">
<path fill-rule="evenodd" clip-rule="evenodd" d="M23.6191 23.7C23.1859 24.1202 22.605 24.3532 22.0015 24.3486C21.3983 24.3532 20.8171 24.1202 20.3841 23.7C19.9511 23.2797 19.7008 22.7059 19.6873 22.1027V13.137C19.6873 12.5232 19.9312 11.9346 20.3653 11.5006C20.7991 11.0665 21.3878 10.8228 22.0015 10.8228C22.6154 10.8228 23.2041 11.0665 23.638 11.5006C24.0721 11.9346 24.316 12.5232 24.316 13.137V22.1027C24.3025 22.7059 24.0522 23.2797 23.6191 23.7ZM58.9273 24.3486C59.5306 24.3532 60.1117 24.1202 60.5448 23.7C60.9778 23.2797 61.2281 22.7059 61.2416 22.1027V13.137C61.2416 12.5232 60.9977 11.9346 60.5638 11.5006C60.1297 11.0665 59.541 10.8228 58.9273 10.8228C58.3134 10.8228 57.7248 11.0665 57.2909 11.5006C56.8568 11.9346 56.613 12.5232 56.613 13.137V22.1027C56.6264 22.7059 56.8767 23.2797 57.3099 23.7C57.7429 24.1202 58.3239 24.3532 58.9273 24.3486ZM28.927 51.2457H19.704V60.2115H28.927V51.2457ZM19.6873 46.7542H28.9274V37.7884H19.6873V46.7542ZM28.4646 46.3084H20.1503V38.2341H28.4646V46.3084ZM45.0751 46.7542H35.8524V37.7884H45.0751V46.7542ZM36.3153 46.3084H44.6124V38.2341H36.3153V46.3084ZM65.3903 19.8572H63.5388V21.9143C63.5496 23.0679 63.131 24.1842 62.3642 25.0462C61.5972 25.9081 60.5373 26.4538 59.3903 26.5772C58.7534 26.6566 58.1069 26.6014 57.4931 26.4147C56.879 26.2282 56.3111 25.9144 55.8261 25.4941C55.3411 25.0739 54.9499 24.5562 54.6779 23.9749C54.406 23.3936 54.2592 22.7617 54.2474 22.12V19.8743H26.6131V21.9143C26.6239 23.0679 26.2053 24.1842 25.4385 25.0462C24.6717 25.9081 23.6116 26.4538 22.4645 26.5772C21.8277 26.6566 21.1812 26.6014 20.5673 26.4147C19.9533 26.2282 19.3853 25.9144 18.9004 25.4941C18.4154 25.0739 18.0242 24.5562 17.7521 23.9749C17.4803 23.3936 17.3335 22.7617 17.3217 22.12V19.8743H15.4017C14.7487 19.8699 14.1014 19.994 13.4966 20.2396C12.8916 20.4853 12.341 20.8477 11.8763 21.3063C11.4113 21.7647 11.0416 22.3102 10.7875 22.9117C10.5335 23.5131 10.4004 24.1585 10.396 24.8113V64.2399C10.4004 64.8928 10.5335 65.5384 10.7875 66.1398C11.0416 66.7414 11.4113 67.2868 11.8763 67.7452C12.341 68.2038 12.8916 68.5662 13.4966 68.8119C14.1014 69.0575 14.7487 69.1816 15.4017 69.177H65.6988C66.3067 69.1861 66.9103 69.0755 67.4753 68.8513C68.0404 68.6271 68.5559 68.2936 68.992 67.8702C69.4281 67.4468 69.7766 66.9416 70.0175 66.3834C70.2585 65.8252 70.3871 65.2251 70.396 64.6172V24.7943C70.3915 24.1415 70.2585 23.4959 70.0044 22.8946C69.7504 22.293 69.3804 21.7475 68.9157 21.289C68.4508 20.8306 67.9003 20.4682 67.2953 20.2225C66.7115 19.9852 66.088 19.8615 65.4583 19.8572C65.4356 19.857 65.4129 19.857 65.3903 19.8572ZM15.4703 64.7715C15.3595 64.7627 15.2567 64.7113 15.1831 64.6282C15.1096 64.545 15.0712 64.4367 15.076 64.3258V33.4686H65.8531V64.7715H15.4703ZM35.8524 51.2457H45.0924V60.2115H35.8524V51.2457ZM61.2421 37.7884H52.0193V46.7542H61.2421V37.7884ZM52.0193 51.2457H61.2421V60.2115H52.0193V51.2457ZM24.3158 39.1943L25.3615 41.2169L27.6585 41.543L25.9958 43.1371L26.3901 45.3659L24.3158 44.32L22.2587 45.3659L22.653 43.1371L20.973 41.543L23.2873 41.2169L24.3158 39.1943ZM41.51 41.2169L40.4643 39.1943L39.4359 41.2169L37.1214 41.543L38.8012 43.1371L38.4071 45.3659L40.4643 44.32L42.5386 45.3659L42.1443 43.1371L43.8243 41.543L41.51 41.2169Z" fill="url(#paint0_linear_808_17750)"/>
<defs>
<linearGradient id="paint0_linear_808_17750" x1="69.3228" y1="67.9118" x2="69.3228" y2="10.8228" gradientUnits="userSpaceOnUse">
<stop stop-color="#002D85"/>
<stop offset="1" stop-color="#013AA9"/>
</linearGradient>
</defs>
</svg>
