<svg width="81" height="80" viewBox="0 0 81 80" fill="none" xmlns="http://www.w3.org/2000/svg">
<path fill-rule="evenodd" clip-rule="evenodd" d="M48.548 29.0444H23.7862C23.4623 29.0444 23.1517 29.1714 22.9227 29.3976C22.6936 29.6238 22.565 29.9306 22.565 30.2505C22.565 30.5704 22.6936 30.8772 22.9227 31.1034C23.1517 31.3296 23.4623 31.4566 23.7862 31.4566H48.548C48.8719 31.4566 49.1825 31.3296 49.4116 31.1034C49.6406 30.8772 49.7692 30.5704 49.7692 30.2505C49.7692 29.9306 49.6406 29.6238 49.4116 29.3976C49.1825 29.1714 48.8719 29.0444 48.548 29.0444ZM48.548 35.202H23.7862C23.4623 35.202 23.1517 35.3291 22.9227 35.5553C22.6936 35.7815 22.565 36.0883 22.565 36.4082C22.565 36.7281 22.6936 37.0348 22.9227 37.261C23.1517 37.4872 23.4623 37.6143 23.7862 37.6143H48.548C48.8719 37.6143 49.1825 37.4872 49.4116 37.261C49.6406 37.0348 49.7692 36.7281 49.7692 36.4082C49.7692 36.0883 49.6406 35.7815 49.4116 35.5553C49.1825 35.3291 48.8719 35.202 48.548 35.202ZM42.3294 10H18.9174C17.9769 10.0042 17.0761 10.375 16.411 11.0319C15.7459 11.6887 15.3704 12.5784 15.3662 13.5073V61.2293C15.3705 62.1568 15.7465 63.0448 16.412 63.6991C17.0775 64.3534 17.9783 64.7208 18.9174 64.7208H43.0204L43.5507 62.372L41.7188 60.5786H20.9581C20.7747 60.5808 20.5926 60.5465 20.4229 60.4777C20.2532 60.4088 20.0993 60.307 19.9703 60.1781C19.8413 60.0492 19.74 59.896 19.6722 59.7276C19.6045 59.5592 19.5719 59.3791 19.5762 59.1979V15.5229C19.5762 15.3444 19.612 15.1676 19.6817 15.0029C19.7513 14.8382 19.8534 14.6888 19.9819 14.5633C20.1104 14.4379 20.2629 14.3388 20.4305 14.272C20.5981 14.2051 20.7774 14.1718 20.9581 14.1739H40.7065V20.522C40.7108 21.9419 41.2849 23.3022 42.3029 24.3048C43.321 25.3073 44.7001 25.8703 46.1377 25.8703H52.5652V34.2816H56.7752V24.2833L42.3294 10Z" fill="url(#paint0_linear_720_19043)"/>
<path d="M44.8839 45.6289C44.99 45.5251 45.0647 45.3941 45.0996 45.2506C45.1345 45.1072 45.1283 44.957 45.0816 44.8169C45.0348 44.6768 44.9495 44.5523 44.8351 44.4575C44.7207 44.3626 44.5818 44.3011 44.434 44.2799L39.983 43.6292C39.8523 43.6164 39.7272 43.5702 39.6201 43.495C39.513 43.4199 39.4276 43.3184 39.3724 43.2007L37.3798 39.2014C37.3141 39.0673 37.2113 38.9541 37.0835 38.8749C36.9556 38.7958 36.8077 38.7538 36.6568 38.7538C36.5058 38.7538 36.358 38.7958 36.2301 38.8749C36.1022 38.9541 35.9995 39.0673 35.9337 39.2014L33.9412 43.2007C33.8859 43.3184 33.8005 43.4199 33.6934 43.495C33.5863 43.5702 33.4613 43.6164 33.3305 43.6292L28.8635 44.2799C28.717 44.3035 28.58 44.3668 28.4676 44.4626C28.3553 44.5584 28.2721 44.6831 28.2272 44.8228C28.1822 44.9625 28.1774 45.1118 28.2131 45.2541C28.2488 45.3964 28.3238 45.5261 28.4296 45.6289L31.6433 48.8029C31.7372 48.8913 31.8071 49.0016 31.8464 49.1236C31.8857 49.2457 31.8933 49.3755 31.8683 49.5012L31.1131 53.8973C31.0849 54.0427 31.0993 54.193 31.1547 54.3305C31.21 54.4681 31.3039 54.5872 31.4254 54.6739C31.5469 54.7605 31.6909 54.8112 31.8405 54.8198C31.9901 54.8284 32.1391 54.7947 32.27 54.7226L36.255 52.5959C36.3679 52.5334 36.4952 52.5005 36.6246 52.5005C36.7541 52.5005 36.8813 52.5334 36.9942 52.5959L41.0756 54.6591C41.2065 54.7312 41.3555 54.7649 41.5051 54.7563C41.6547 54.7477 41.7988 54.6971 41.9202 54.6104C42.0417 54.5237 42.1357 54.4046 42.191 54.2671C42.2463 54.1295 42.2608 53.9792 42.2326 53.8338L41.4774 49.4378C41.4524 49.3121 41.4599 49.1822 41.4992 49.0601C41.5386 48.9381 41.6084 48.8278 41.7023 48.7395L44.8839 45.6289ZM40.4168 48.3427C40.3229 48.431 40.2531 48.5413 40.2137 48.6634C40.1744 48.7854 40.1669 48.9153 40.1919 49.041L40.8828 53.0562C40.8856 53.0817 40.8814 53.1075 40.8705 53.1309C40.8597 53.1542 40.8427 53.1743 40.8214 53.1889C40.8 53.2035 40.775 53.2122 40.749 53.214C40.7231 53.2157 40.6972 53.2106 40.6739 53.199L37.0263 51.2628C36.9096 51.1944 36.7764 51.1583 36.6407 51.1583C36.505 51.1583 36.3717 51.1944 36.255 51.2628L32.6075 53.1514C32.5842 53.163 32.5583 53.1681 32.5323 53.1664C32.5064 53.1646 32.4814 53.1559 32.46 53.1413C32.4386 53.1267 32.4217 53.1066 32.4108 53.0833C32.4 53.0599 32.3958 53.0341 32.3986 53.0086L33.0895 48.9934C33.1145 48.8677 33.107 48.7378 33.0676 48.6158C33.0283 48.4937 32.9585 48.3834 32.8646 48.2951L29.9401 45.5019C29.9202 45.4889 29.9039 45.4712 29.8926 45.4504C29.8813 45.4297 29.8754 45.4065 29.8754 45.3829C29.8754 45.3593 29.8813 45.3361 29.8926 45.3154C29.9039 45.2946 29.9202 45.2769 29.9401 45.2639L34.0215 44.6767C34.1491 44.6543 34.2695 44.6024 34.3729 44.5251C34.4763 44.4479 34.5596 44.3475 34.616 44.2323L36.4479 40.598C36.46 40.5747 36.4785 40.5551 36.5011 40.5415C36.5238 40.5278 36.5499 40.5206 36.5764 40.5206C36.603 40.5206 36.629 40.5278 36.6517 40.5415C36.6744 40.5551 36.6928 40.5747 36.705 40.598L38.5207 44.2323C38.5818 44.3472 38.6685 44.4469 38.7743 44.5239C38.88 44.6008 39.0021 44.6531 39.1313 44.6767L43.2128 45.2639C43.2384 45.2684 43.2623 45.2796 43.282 45.2964C43.3016 45.3132 43.3164 45.3349 43.3246 45.3593C43.3328 45.3837 43.3342 45.4098 43.3287 45.4349C43.3231 45.46 43.3109 45.4831 43.2931 45.5019L40.4168 48.3427Z" fill="url(#paint1_linear_720_19043)"/>
<path d="M65.3073 57.3887C65.4521 57.246 65.5541 57.0664 65.602 56.8699C65.6499 56.6734 65.6418 56.4676 65.5786 56.2754C65.5154 56.0831 65.3995 55.9119 65.2439 55.7807C65.0882 55.6495 64.8988 55.5634 64.6967 55.5319L58.5584 54.659C58.384 54.6337 58.2184 54.5671 58.0757 54.4648C57.9329 54.3626 57.8174 54.2278 57.7389 54.0718L54.9912 48.5807C54.8984 48.4006 54.757 48.2494 54.5826 48.1437C54.4082 48.0381 54.2075 47.9822 54.0029 47.9822C53.7983 47.9822 53.5977 48.0381 53.4233 48.1437C53.2489 48.2494 53.1075 48.4006 53.0147 48.5807L50.2831 54.0718C50.2019 54.2289 50.0836 54.3644 49.9381 54.4666C49.7927 54.5688 49.6243 54.6348 49.4475 54.659L43.3253 55.5319C43.1171 55.5526 42.9193 55.6318 42.7553 55.7603C42.5914 55.8888 42.4682 56.061 42.4006 56.2566C42.3329 56.4522 42.3234 56.6628 42.3734 56.8635C42.4234 57.0642 42.5307 57.2465 42.6826 57.3887L47.1175 61.6578C47.2437 61.783 47.3373 61.9363 47.3905 62.1049C47.4436 62.2735 47.4547 62.4522 47.4228 62.6259L46.4105 68.7201C46.3784 68.9204 46.4032 69.1255 46.4822 69.3126C46.5612 69.4998 46.6912 69.6616 46.8578 69.78C47.0243 69.8985 47.221 69.969 47.4257 69.9836C47.6304 69.9982 47.8353 69.9564 48.0174 69.8628L53.4968 67.022C53.6541 66.9359 53.8311 66.8907 54.011 66.8907C54.1909 66.8907 54.3678 66.9359 54.5252 67.022L60.0046 69.8628C60.186 69.963 60.3927 70.01 60.6002 69.9983C60.8078 69.9866 61.0076 69.9166 61.1763 69.7967C61.345 69.6767 61.4756 69.5117 61.5527 69.321C61.6297 69.1303 61.6501 68.9219 61.6115 68.7201L60.567 62.6894C60.5385 62.5144 60.5528 62.3353 60.6087 62.1668C60.6646 61.9984 60.7605 61.8457 60.8884 61.7213L65.3073 57.3887ZM59.169 61.1183C59.0443 61.2448 58.9505 61.3978 58.8948 61.5655C58.8391 61.7333 58.823 61.9115 58.8477 62.0863L59.8118 67.5933C59.8146 67.6286 59.8081 67.664 59.7931 67.6961C59.778 67.7283 59.7549 67.756 59.7258 67.7767C59.6968 67.7974 59.6628 67.8104 59.6272 67.8145C59.5916 67.8185 59.5556 67.8134 59.5225 67.7996L54.5252 65.1969C54.3678 65.1108 54.1909 65.0656 54.011 65.0656C53.8311 65.0656 53.6541 65.1108 53.4968 65.1969L48.4834 67.7996C48.4513 67.8149 48.4155 67.8211 48.3801 67.8175C48.3447 67.8139 48.311 67.8007 48.2827 67.7793C48.2544 67.7579 48.2326 67.7293 48.2198 67.6964C48.207 67.6636 48.2037 67.6279 48.2102 67.5933L49.11 62.0863C49.1385 61.9114 49.1242 61.7322 49.0683 61.5638C49.0124 61.3954 48.9165 61.2426 48.7887 61.1183L44.7394 57.2142C44.7156 57.1888 44.6993 57.1575 44.6922 57.1236C44.6851 57.0898 44.6875 57.0547 44.6991 57.0221C44.7106 56.9895 44.7309 56.9606 44.7579 56.9385C44.7848 56.9164 44.8173 56.902 44.8518 56.8968L50.4919 56.0239C50.6718 56.0022 50.843 55.9354 50.9893 55.8299C51.1355 55.7243 51.252 55.5835 51.3275 55.4208L53.8342 50.4217C53.8492 50.3877 53.8739 50.3588 53.9053 50.3385C53.9367 50.3182 53.9735 50.3073 54.011 50.3073C54.0485 50.3073 54.0852 50.3182 54.1166 50.3385C54.148 50.3588 54.1727 50.3877 54.1877 50.4217L56.6784 55.4208C56.7563 55.5817 56.8735 55.721 57.0193 55.8263C57.1651 55.9315 57.3351 55.9994 57.514 56.0239L63.1059 56.8333C63.1404 56.8385 63.1729 56.8529 63.1998 56.875C63.2268 56.8971 63.2471 56.926 63.2586 56.9586C63.2702 56.9912 63.2725 57.0263 63.2654 57.0602C63.2583 57.094 63.2421 57.1253 63.2183 57.1507L59.169 61.1183Z" fill="url(#paint2_linear_720_19043)"/>
<path d="M60.3587 40.1535C60.4128 40.1 60.451 40.0328 60.4691 39.9593C60.4872 39.8858 60.4845 39.8088 60.4613 39.7368C60.438 39.6647 60.3952 39.6003 60.3375 39.5507C60.2797 39.501 60.2092 39.468 60.1338 39.4552L56.8397 38.9791C56.7714 38.9723 56.7059 38.9483 56.6497 38.9094C56.5934 38.8705 56.5482 38.818 56.5183 38.7569L55.0561 35.805C55.0182 35.739 54.9634 35.6841 54.897 35.6459C54.8307 35.6077 54.7553 35.5875 54.6785 35.5875C54.6016 35.5875 54.5262 35.6077 54.4599 35.6459C54.3935 35.6841 54.3387 35.739 54.3008 35.805L52.8386 38.7569C52.8087 38.818 52.7635 38.8705 52.7072 38.9094C52.651 38.9483 52.5855 38.9723 52.5172 38.9791L49.2231 39.4552C49.1477 39.468 49.0772 39.501 49.0194 39.5507C48.9617 39.6003 48.9189 39.6647 48.8956 39.7368C48.8724 39.8088 48.8697 39.8858 48.8878 39.9593C48.9059 40.0328 48.9441 40.1 48.9982 40.1535L51.3763 42.4388C51.4263 42.4847 51.4641 42.5419 51.4866 42.6055C51.509 42.6692 51.5153 42.7372 51.5049 42.8038L50.9425 45.9779C50.9256 46.0532 50.9313 46.1317 50.9589 46.2039C50.9865 46.276 51.0348 46.3387 51.0979 46.3841C51.161 46.4296 51.2361 46.4559 51.3141 46.4599C51.3921 46.4638 51.4696 46.4452 51.537 46.4064L54.4937 44.8194C54.5503 44.7888 54.6139 44.7728 54.6785 44.7728C54.743 44.7728 54.8066 44.7888 54.8632 44.8194L57.8199 46.4064C57.8873 46.4452 57.9648 46.4638 58.0428 46.4599C58.1208 46.4559 58.1959 46.4296 58.259 46.3841C58.3221 46.3387 58.3704 46.276 58.398 46.2039C58.4256 46.1317 58.4313 46.0532 58.4144 45.9779L57.852 42.8038C57.8416 42.7372 57.8479 42.6692 57.8703 42.6055C57.8928 42.5419 57.9306 42.4847 57.9806 42.4388L60.3587 40.1535ZM56.7433 42.0421C56.6933 42.0879 56.6555 42.1452 56.6331 42.2088C56.6106 42.2724 56.6044 42.3405 56.6147 42.4071L56.9843 44.5654C56.9863 44.5851 56.9829 44.6049 56.9746 44.6228C56.9663 44.6407 56.9532 44.6561 56.9369 44.6674C56.9205 44.6787 56.9014 44.6855 56.8815 44.6871C56.8616 44.6887 56.8416 44.6851 56.8236 44.6765L54.8632 43.6608C54.8066 43.6303 54.743 43.6143 54.6785 43.6143C54.6139 43.6143 54.5503 43.6303 54.4937 43.6608L52.5333 44.6765C52.5153 44.6851 52.4953 44.6887 52.4754 44.6871C52.4555 44.6855 52.4364 44.6787 52.42 44.6674C52.4037 44.6561 52.3906 44.6407 52.3823 44.6228C52.374 44.6049 52.3706 44.5851 52.3726 44.5654L52.7422 42.4071C52.7525 42.3405 52.7463 42.2724 52.7238 42.2088C52.7014 42.1452 52.6636 42.0879 52.6136 42.0421L51.0068 40.455C50.9901 40.4452 50.9764 40.4312 50.9668 40.4145C50.9572 40.3978 50.9522 40.379 50.9522 40.3598C50.9522 40.3406 50.9572 40.3218 50.9668 40.3051C50.9764 40.2884 50.9901 40.2745 51.0068 40.2646L53.1921 39.963C53.2587 39.9508 53.3213 39.9227 53.3745 39.8813C53.4277 39.8398 53.4699 39.7862 53.4974 39.725L54.4776 37.7729C54.4895 37.7566 54.5052 37.7432 54.5233 37.734C54.5415 37.7248 54.5616 37.72 54.582 37.72C54.6025 37.72 54.6226 37.7248 54.6407 37.734C54.6589 37.7432 54.6746 37.7566 54.6865 37.7729L55.6667 39.725C55.6942 39.7862 55.7364 39.8398 55.7896 39.8813C55.8428 39.9227 55.9054 39.9508 55.972 39.963L58.1573 40.2646C58.174 40.2745 58.1877 40.2884 58.1973 40.3051C58.2068 40.3218 58.2119 40.3406 58.2119 40.3598C58.2119 40.379 58.2068 40.3978 58.1973 40.4145C58.1877 40.4312 58.174 40.4452 58.1573 40.455L56.7433 42.0421Z" fill="url(#paint3_linear_720_19043)"/>
<defs>
<linearGradient id="paint0_linear_720_19043" x1="16.5122" y1="10" x2="62.4563" y2="23.3577" gradientUnits="userSpaceOnUse">
<stop stop-color="#002D85"/>
<stop offset="1" stop-color="#DE0000"/>
</linearGradient>
<linearGradient id="paint1_linear_720_19043" x1="28.6581" y1="38.7538" x2="46.1632" y2="45.8415" gradientUnits="userSpaceOnUse">
<stop stop-color="#002D85"/>
<stop offset="1" stop-color="#DE0000"/>
</linearGradient>
<linearGradient id="paint2_linear_720_19043" x1="42.9864" y1="47.9822" x2="67.0396" y2="57.7579" gradientUnits="userSpaceOnUse">
<stop stop-color="#002D85"/>
<stop offset="1" stop-color="#DE0000"/>
</linearGradient>
<linearGradient id="paint3_linear_720_19043" x1="49.1971" y1="35.5875" x2="61.1513" y2="40.4896" gradientUnits="userSpaceOnUse">
<stop stop-color="#002D85"/>
<stop offset="1" stop-color="#DE0000"/>
</linearGradient>
</defs>
</svg>
