<svg width="81" height="80" viewBox="0 0 81 80" fill="none" xmlns="http://www.w3.org/2000/svg">
<path fill-rule="evenodd" clip-rule="evenodd" d="M52.5703 23.1724L56.6038 25.1724H56.5373C56.6275 25.2242 56.7307 25.2495 56.8347 25.245C56.9387 25.2405 57.0394 25.2067 57.1249 25.1474C57.2104 25.088 57.2774 25.0057 57.3179 24.9097C57.3585 24.8138 57.3711 24.7085 57.354 24.6058L56.5872 20.3387C56.57 20.2545 56.5748 20.1675 56.6012 20.0858C56.6275 20.004 56.6743 19.9303 56.7373 19.872L60.0709 16.8551C60.1448 16.7846 60.1968 16.6943 60.2209 16.5951C60.2449 16.4958 60.2401 16.3917 60.2068 16.2952C60.1734 16.1986 60.1131 16.1136 60.0328 16.0504C59.9526 15.9871 59.8559 15.9481 59.7542 15.9383L55.2537 15.3216C55.1642 15.3056 55.0792 15.2706 55.0044 15.2188C54.9297 15.167 54.8669 15.0998 54.8204 15.0217L52.8204 11.1379C52.7695 11.0477 52.6957 10.9728 52.6063 10.9206C52.517 10.8684 52.4153 10.8408 52.3118 10.8408C52.2083 10.8408 52.1068 10.8684 52.0175 10.9206C51.9281 10.9728 51.8543 11.0477 51.8034 11.1379L49.7868 15.0217C49.7438 15.0994 49.6841 15.1665 49.6121 15.2184C49.5399 15.2703 49.4574 15.3055 49.3701 15.3216L44.8531 15.9383C44.7527 15.9509 44.658 15.9918 44.58 16.0561C44.502 16.1204 44.444 16.2056 44.4125 16.3017C44.3812 16.3977 44.3777 16.5007 44.4025 16.5987C44.4274 16.6967 44.4795 16.7856 44.553 16.8551L47.8033 19.872C47.8691 19.9285 47.9191 20.0015 47.9485 20.0833C47.9776 20.1651 47.985 20.2532 47.9698 20.3387L47.2031 24.6058C47.1861 24.7085 47.1987 24.8138 47.2392 24.9097C47.2798 25.0057 47.3468 25.088 47.4323 25.1474C47.5178 25.2067 47.6184 25.2405 47.7225 25.245C47.8265 25.2495 47.9296 25.2242 48.02 25.1724L52.0536 23.1724C52.1335 23.1314 52.222 23.1099 52.3118 23.1099C52.4017 23.1099 52.4903 23.1314 52.5703 23.1724ZM49.4368 19.3552L47.2699 17.3385H47.3533C47.3276 17.3291 47.3056 17.3118 47.2901 17.2895C47.2746 17.2671 47.2663 17.2406 47.2663 17.2134C47.2663 17.1862 47.2746 17.1597 47.2901 17.1373C47.3056 17.115 47.3276 17.0979 47.3533 17.0885L50.3367 16.6885C50.4263 16.6725 50.5113 16.6375 50.5862 16.5857C50.661 16.5339 50.7237 16.4665 50.77 16.3883L52.1035 13.8049C52.1161 13.7804 52.1353 13.7599 52.1588 13.7455C52.1823 13.7312 52.2093 13.7235 52.2368 13.7235C52.2645 13.7235 52.2915 13.7312 52.315 13.7455C52.3385 13.7599 52.3577 13.7804 52.3703 13.8049L53.7204 16.3883C53.7633 16.4661 53.8229 16.5334 53.8949 16.5853C53.9669 16.6372 54.0498 16.6724 54.1371 16.6885L57.1372 17.0885C57.1639 17.0932 57.1885 17.105 57.209 17.1227C57.2294 17.1403 57.2447 17.1632 57.2532 17.1888C57.2617 17.2144 57.2632 17.2418 57.2575 17.2681C57.2517 17.2945 57.239 17.3188 57.2205 17.3385L55.0537 19.3552C54.9879 19.4119 54.9379 19.4846 54.9087 19.5664C54.8794 19.6483 54.872 19.7364 54.8872 19.8221L55.4039 22.6555C55.4067 22.6823 55.4024 22.7095 55.3911 22.734C55.3799 22.7585 55.3622 22.7795 55.3401 22.7949C55.3179 22.8102 55.2921 22.8195 55.2651 22.8214C55.2382 22.8232 55.2112 22.8177 55.1872 22.8055L52.5037 21.4721C52.4237 21.4312 52.3351 21.4099 52.2453 21.4099C52.1555 21.4099 52.067 21.4312 51.987 21.4721L49.3032 22.8055C49.2792 22.8177 49.2522 22.8232 49.2254 22.8214C49.1984 22.8195 49.1726 22.8102 49.1504 22.7949C49.1282 22.7795 49.1106 22.7585 49.0994 22.734C49.0881 22.7095 49.0837 22.6823 49.0866 22.6555L49.5868 19.8221C49.6039 19.7379 49.5991 19.6506 49.5728 19.5689C49.5466 19.4873 49.4996 19.4136 49.4368 19.3552ZM28.1689 33.3063L33.6193 36.0399H33.486C33.6645 36.1506 33.871 36.2076 34.081 36.2046C34.2909 36.2016 34.4957 36.1384 34.6711 36.0227C34.8462 35.9071 34.9847 35.7435 35.0703 35.5517C35.1556 35.3597 35.1841 35.1475 35.1528 34.9398L34.1027 29.156C34.07 28.9888 34.082 28.8162 34.1377 28.6551C34.1933 28.4941 34.2904 28.3506 34.4194 28.2393L38.8364 24.139C38.9839 24.0048 39.0887 23.8303 39.1379 23.6369C39.1869 23.4436 39.1779 23.24 39.1122 23.0517C39.0466 22.8634 38.9269 22.6983 38.768 22.5777C38.6094 22.4568 38.4187 22.3853 38.2197 22.3721L32.119 21.5222C31.9477 21.4997 31.784 21.4364 31.642 21.3379C31.4998 21.2392 31.3835 21.1082 31.3025 20.9554L28.5687 15.6884C28.4696 15.5152 28.3264 15.3712 28.1537 15.2711C27.981 15.171 27.785 15.1185 27.5855 15.1185C27.3858 15.1185 27.1898 15.171 27.0171 15.2711C26.8444 15.3712 26.7013 15.5152 26.6021 15.6884L23.8684 20.9554C23.7874 21.1082 23.671 21.2392 23.529 21.3379C23.3868 21.4364 23.2231 21.4997 23.0516 21.5222L16.9513 22.3721C16.7523 22.3853 16.5615 22.4568 16.4028 22.5777C16.2439 22.6983 16.1243 22.8634 16.0586 23.0517C15.9927 23.24 15.9839 23.4436 16.0331 23.6369C16.0821 23.8303 16.1869 24.0048 16.3346 24.139L20.7515 28.2393C20.8805 28.3506 20.9776 28.4941 21.0331 28.6551C21.0888 28.8162 21.1008 28.9888 21.0681 29.156L20.0181 34.9398C19.9867 35.1475 20.0154 35.3597 20.1007 35.5517C20.1861 35.7435 20.3246 35.9071 20.4998 36.0227C20.6751 36.1384 20.88 36.2016 21.0898 36.2046C21.2998 36.2076 21.5063 36.1506 21.6849 36.0399L27.1355 33.3063C27.2953 33.2245 27.4725 33.1817 27.6522 33.1817C27.8318 33.1817 28.0089 33.2245 28.1689 33.3063ZM22.3851 27.7059L18.3513 23.9723H18.4348C18.4091 23.9488 18.3906 23.9183 18.3816 23.8846C18.3726 23.8509 18.3734 23.8154 18.3839 23.7821C18.3944 23.7489 18.4143 23.7193 18.4409 23.6969C18.4676 23.6744 18.5003 23.6601 18.5348 23.6556L24.1019 22.8889C24.2754 22.8664 24.4412 22.8033 24.5861 22.705C24.7308 22.6065 24.8504 22.4755 24.9353 22.3223L27.4186 17.5218C27.4383 17.4909 27.4653 17.4653 27.4973 17.4476C27.5295 17.4299 27.5655 17.4205 27.6022 17.4205C27.6388 17.4205 27.6748 17.4299 27.7068 17.4476C27.7388 17.4653 27.766 17.4909 27.7855 17.5218L30.269 22.3223C30.3537 22.4755 30.4734 22.6065 30.6181 22.705C30.7629 22.8033 30.9288 22.8664 31.1024 22.8889L36.6362 23.6556C36.6707 23.6601 36.7032 23.6744 36.7299 23.6969C36.7567 23.7193 36.7764 23.7489 36.7869 23.7821C36.7974 23.8154 36.7982 23.8509 36.7892 23.8846C36.7802 23.9183 36.7619 23.9488 36.7362 23.9723L32.7026 27.7059C32.5792 27.8246 32.4872 27.9719 32.4347 28.1349C32.3824 28.2978 32.3714 28.471 32.4025 28.6393L33.3525 33.9064C33.3558 33.9414 33.3498 33.9767 33.3351 34.0087C33.3204 34.0407 33.2974 34.0682 33.2688 34.0886C33.2401 34.1087 33.2064 34.1211 33.1714 34.1242C33.1364 34.1274 33.1011 34.1212 33.0693 34.1064L28.0689 31.6229C27.9089 31.541 27.7318 31.4984 27.5522 31.4984C27.3725 31.4984 27.1953 31.541 27.0354 31.6229L22.0351 34.1064C22.0021 34.1201 21.9662 34.1256 21.9307 34.1221C21.8952 34.1186 21.861 34.1064 21.8314 34.0867C21.8017 34.0669 21.7774 34.0402 21.7605 34.0087C21.7437 33.9772 21.735 33.9421 21.735 33.9064L22.6851 28.6393C22.7163 28.471 22.7051 28.2978 22.6528 28.1349C22.6004 27.9719 22.5084 27.8246 22.3851 27.7059ZM65.1877 52.4412C66.0527 52.149 66.9897 52.149 67.8546 52.4412V52.4245C68.5916 52.6327 69.244 53.0687 69.7185 53.67C70.1931 54.2712 70.4656 55.0069 70.4969 55.7721C70.5284 56.5374 70.3171 57.2931 69.8935 57.9311C69.4698 58.5692 68.8553 59.0571 68.1379 59.3251L46.3195 68.1091C44.5874 68.8072 42.7366 69.1639 40.8691 69.1592H40.6191C39.1081 69.1602 37.6063 68.9238 36.1687 68.4591L22.501 63.8588V65.3589C22.499 65.4872 22.4711 65.6141 22.4194 65.7316C22.3679 65.8493 22.2933 65.9553 22.2003 66.0438C22.1071 66.1321 21.9974 66.2013 21.8772 66.2468C21.7572 66.2923 21.6292 66.3135 21.5009 66.3091H11.5001C11.3717 66.3135 11.2439 66.2923 11.1237 66.2468C11.0037 66.2013 10.8939 66.1321 10.8007 66.0438C10.7077 65.9553 10.6332 65.8493 10.5815 65.7316C10.5298 65.6141 10.5022 65.4872 10.5 65.3589V44.4407C10.5022 44.3122 10.5298 44.1855 10.5815 44.0679C10.6332 43.9504 10.7077 43.8442 10.8007 43.7558C10.8939 43.6673 11.0037 43.5983 11.1237 43.5527C11.2439 43.5072 11.3717 43.486 11.5001 43.4905H21.5009C21.6292 43.486 21.7572 43.5072 21.8772 43.5527C21.9974 43.5983 22.1071 43.6673 22.2003 43.7558C22.2933 43.8442 22.3679 43.9504 22.4194 44.0679C22.4711 44.1855 22.499 44.3122 22.501 44.4407V45.3906H30.3016C31.2825 45.3801 32.2446 45.6583 33.0685 46.1907L40.8024 51.0911H41.9393L42.8031 46.3244C42.8276 46.1843 42.8161 46.0405 42.7695 45.9062C42.7228 45.772 42.6425 45.652 42.5363 45.5575L35.7524 39.257C35.6296 39.1438 35.5419 38.9976 35.5002 38.8358C35.4584 38.6739 35.4644 38.5037 35.5171 38.3452C35.5699 38.1867 35.6676 38.0469 35.7981 37.9425C35.9284 37.8382 36.0863 37.7737 36.2526 37.757L45.6532 36.4569C45.7987 36.4406 45.9377 36.3876 46.0572 36.3031C46.1767 36.2185 46.2729 36.105 46.3368 35.9734L50.5369 27.8894C50.6188 27.7399 50.7394 27.6152 50.8859 27.5284C51.0326 27.4414 51.2 27.3957 51.3703 27.3957C51.5408 27.3957 51.7082 27.4414 51.8549 27.5284C52.0014 27.6152 52.1219 27.7399 52.2037 27.8894L56.3874 35.9734C56.4564 36.1045 56.5561 36.217 56.6779 36.3012C56.7999 36.3854 56.9404 36.4389 57.0876 36.4569L66.4715 37.757C66.6392 37.7708 66.799 37.8332 66.9319 37.9365C67.0647 38.0397 67.1646 38.1795 67.2192 38.3386C67.2741 38.4976 67.2814 38.6689 67.2404 38.8321C67.1994 38.9953 67.1119 39.1428 66.9884 39.257L60.1879 45.5575C60.0817 45.652 60.0013 45.772 59.9547 45.9062C59.908 46.0405 59.8965 46.1843 59.921 46.3244L61.235 53.6252L61.2374 53.6245L65.1877 52.4412ZM44.4177 51.0911H47.5711L47.6035 51.0747L50.9371 49.4079C51.072 49.3418 51.2201 49.3073 51.3703 49.3073C51.5207 49.3073 51.6688 49.3418 51.8037 49.4079L58.2377 52.5248C58.2942 52.556 58.3582 52.571 58.4229 52.5682C58.4874 52.5652 58.5499 52.5445 58.6034 52.5083C58.6569 52.472 58.6992 52.4217 58.7259 52.3628C58.7526 52.304 58.7624 52.2388 58.7544 52.1746L57.5541 45.5075C57.5296 45.3674 57.5411 45.2238 57.5878 45.0896C57.6345 44.9552 57.7148 44.8352 57.821 44.7407L62.9047 40.0239C62.9572 39.983 62.9956 39.9267 63.0142 39.8628C63.0329 39.799 63.0311 39.731 63.0089 39.6683C62.9867 39.6056 62.9456 39.5515 62.8909 39.5135C62.8362 39.4756 62.7712 39.4558 62.7047 39.457L55.6873 38.4736C55.542 38.4572 55.403 38.4046 55.2835 38.3201C55.164 38.2354 55.0679 38.122 55.0041 37.9904L51.8539 31.9564C51.8215 31.901 51.7752 31.8552 51.7197 31.8234C51.6642 31.7914 51.6012 31.7747 51.5372 31.7747C51.473 31.7747 51.41 31.7914 51.3545 31.8234C51.299 31.8552 51.2526 31.901 51.2205 31.9564L48.0701 37.9904C48.0062 38.122 47.9102 38.2354 47.7907 38.3201C47.6712 38.4046 47.5322 38.4572 47.3868 38.4736L40.3528 39.457C40.2878 39.4591 40.2249 39.4815 40.1729 39.5206C40.1209 39.5598 40.0824 39.6142 40.0624 39.6762C40.0424 39.738 40.0418 39.8047 40.0609 39.867C40.0801 39.9292 40.1181 39.9838 40.1694 40.0239L45.1698 44.7407C45.276 44.8352 45.3562 44.9552 45.4028 45.0896C45.4495 45.2238 45.4612 45.3674 45.4365 45.5075L44.4198 51.0747L44.4177 51.0911ZM42.3091 52.936C42.3006 52.9323 42.2921 52.9285 42.2837 52.9246H40.519C40.3257 52.9237 40.136 52.8721 39.969 52.7747L31.9684 47.7743C31.4718 47.4543 30.8925 47.2861 30.3016 47.2908H22.501V61.8253L36.8188 66.6757C38.0487 67.0614 39.3301 67.258 40.6191 67.259H40.8691C42.4735 67.262 44.0637 66.9564 45.5528 66.359L67.3545 57.5751V57.4416C67.694 57.3151 67.9864 57.0874 68.1921 56.7892C68.3978 56.4912 68.5069 56.137 68.5046 55.7748C68.4866 55.3918 68.3479 55.0242 68.1084 54.7249C67.8689 54.4255 67.5409 54.2095 67.1712 54.108C66.7451 53.958 66.2804 53.958 65.8544 54.108L61.5874 55.3748L61.2575 55.4704C61.1443 55.6068 60.9927 55.7074 60.8212 55.7583L60.3045 55.8418C60.1414 55.9078 59.9643 55.9258 59.7935 55.8959L51.4032 58.3918C51.0204 58.733 50.5803 59.0039 50.1031 59.1917C49.8918 59.2704 49.6744 59.3317 49.4531 59.3751H49.3031C49.0589 59.3916 48.8139 59.3916 48.5697 59.3751H33.5685V57.4749H48.5697C48.7465 57.5003 48.9262 57.5003 49.1031 57.4749H49.2864L49.6031 57.3416L49.8031 57.2416L50.1198 56.9749C50.153 56.9794 50.1866 56.9794 50.2198 56.9749C50.3532 56.8364 50.4655 56.6794 50.5532 56.5082L50.8199 56.0082C50.996 55.6746 51.0769 55.2991 51.0532 54.9227C51.0297 54.5462 50.9029 54.1835 50.6865 53.8746C50.4752 53.5853 50.1996 53.3489 49.8815 53.1841C49.5957 53.0359 49.2824 52.9492 48.9618 52.9289L48.8035 53.008H42.6865C42.5568 53.0121 42.4279 52.9874 42.3091 52.936ZM52.87 56.1083L57.4329 54.7642L51.3703 51.7248L51.1848 51.8174C51.6222 52.1012 52.0017 52.4657 52.3033 52.8912C52.6288 53.3526 52.8485 53.8803 52.9464 54.4364C53.0444 54.9924 53.0184 55.5634 52.87 56.1083ZM12.9002 63.4587H20.1008V46.3405H12.9002V63.4587Z" fill="url(#paint0_linear_720_18926)"/>
<defs>
<linearGradient id="paint0_linear_720_18926" x1="12.1605" y1="10.8408" x2="74.6025" y2="35.523" gradientUnits="userSpaceOnUse">
<stop stop-color="#002D85"/>
<stop offset="1" stop-color="#DE0000"/>
</linearGradient>
</defs>
</svg>
