<svg width="81" height="80" viewBox="0 0 81 80" fill="none" xmlns="http://www.w3.org/2000/svg">
<path fill-rule="evenodd" clip-rule="evenodd" d="M18.925 12.24V20.8188C18.925 21.3831 19.149 21.9242 19.5481 22.3233C19.947 22.7222 20.4882 22.9463 21.0525 22.9463C21.6168 22.9463 22.158 22.7222 22.5569 22.3233C22.956 21.9242 23.1801 21.3831 23.1801 20.8188V12.24C23.1801 11.6757 22.956 11.1345 22.5569 10.7355C22.158 10.3365 21.6168 10.1124 21.0525 10.1124C20.4882 10.1124 19.947 10.3365 19.5481 10.7355C19.149 11.1345 18.925 11.6757 18.925 12.24ZM55.7784 22.8154C55.5179 22.9245 55.2384 22.9808 54.9562 22.9808C54.6753 22.9786 54.3977 22.9207 54.1393 22.8106C53.8809 22.7006 53.6467 22.5404 53.4506 22.3394C53.2543 22.1384 53.0999 21.9005 52.9961 21.6396C52.8923 21.3786 52.8411 21.0996 52.8458 20.8188V12.24C52.8192 11.9457 52.8543 11.6491 52.9487 11.3691C53.0432 11.0891 53.1949 10.832 53.3943 10.6138C53.5935 10.3957 53.8361 10.2216 54.1065 10.1024C54.3769 9.98319 54.6693 9.92163 54.9647 9.92163C55.2602 9.92163 55.5524 9.98319 55.8228 10.1024C56.0932 10.2216 56.3358 10.3957 56.5352 10.6138C56.7346 10.832 56.8862 11.0891 56.9806 11.3691C57.0751 11.6491 57.1101 11.9457 57.0837 12.24V20.8188C57.0882 21.1012 57.0365 21.3815 56.9317 21.6437C56.8267 21.9057 56.6709 22.1442 56.4729 22.3454C56.2749 22.5467 56.0386 22.7064 55.7784 22.8154ZM18.9078 35.9006H27.4009V44.4794H18.9078V35.9006ZM27.4009 57.4333H18.9078V48.8545H27.4009V57.4333ZM40.1147 44.5137H31.6388L31.656 35.9349H40.1147V44.5137ZM40.1147 57.4333H31.6388L31.656 48.8545H40.1147V57.4333ZM14.6698 31.594V61.311H14.687C14.6819 61.4148 14.7162 61.5167 14.7829 61.5963C14.8498 61.6757 14.9442 61.727 15.0473 61.7399H40.1834V66.0465H15.0988C14.4859 66.0376 13.8808 65.908 13.318 65.6651C12.755 65.4223 12.2456 65.0711 11.8187 64.6313C11.3917 64.1916 11.0554 63.672 10.8293 63.1024C10.6031 62.5328 10.4914 61.9238 10.5005 61.311V23.4097C10.4914 22.7967 10.6031 22.1881 10.8293 21.6185C11.0554 21.0488 11.3917 20.5291 11.8187 20.0894C12.2456 19.6496 12.755 19.2984 13.318 19.0555C13.8808 18.8127 14.4859 18.6831 15.0988 18.6741H16.8146V20.8188C16.8146 21.9428 17.261 23.0208 18.0557 23.8155C18.8505 24.6103 19.9285 25.0567 21.0525 25.0567C22.1765 25.0567 23.2544 24.6103 24.0491 23.8155C24.8438 23.0208 25.2905 21.9428 25.2905 20.8188V18.6741H50.7868V20.8188C50.7868 21.9428 51.2333 23.0208 52.0282 23.8155C52.8229 24.6103 53.9008 25.0567 55.0248 25.0567C56.1488 25.0567 57.2266 24.6103 58.0216 23.8155C58.8163 23.0208 59.2627 21.9428 59.2627 20.8188V18.6398H60.9785C61.5914 18.6487 62.1965 18.7783 62.7593 19.0212C63.3221 19.2639 63.8315 19.6153 64.2586 20.0551C64.6856 20.4948 65.0217 21.0145 65.248 21.5842C65.4742 22.1538 65.5859 22.7624 65.5768 23.3753V40.1728H61.3388V31.594H14.6698ZM62.8991 49.6438H68.6813C69.1668 49.6528 69.6292 49.852 69.9695 50.1984C70.3095 50.545 70.5002 51.0111 70.5 51.4967V56.1465C70.5002 56.3892 70.4048 56.6224 70.2347 56.7957C70.0647 56.969 69.8334 57.0685 69.5906 57.073H68.6813V68.2083C68.6835 68.4518 68.6379 68.6932 68.5469 68.9188C68.4558 69.1445 68.3211 69.35 68.1508 69.5236C67.9802 69.6974 67.7772 69.8359 67.5533 69.9311C67.3293 70.0264 67.0889 70.0763 66.8454 70.0785H44.9178C44.6745 70.0763 44.434 70.0264 44.2101 69.9311C43.986 69.8359 43.783 69.6974 43.6127 69.5236C43.4421 69.35 43.3074 69.1445 43.2165 68.9188C43.1254 68.6932 43.0797 68.4518 43.082 68.2083V57.073H42.1726C41.9298 57.0685 41.6987 56.969 41.5287 56.7957C41.3585 56.6224 41.2633 56.3892 41.2633 56.1465V51.4967C41.2631 51.0111 41.4537 50.545 41.7939 50.1984C42.134 49.852 42.5964 49.6528 43.082 49.6438H48.8641C48.5014 49.4021 48.1624 49.1262 47.8518 48.8201C47.1401 48.087 46.7421 47.1054 46.7421 46.0835C46.7421 45.0617 47.1401 44.0801 47.8518 43.3468C48.5669 42.6469 49.5278 42.2549 50.5284 42.2549C51.5291 42.2549 52.4899 42.6469 53.205 43.3468C53.9943 44.1704 56.1047 47.4477 55.813 49.6438H55.9503C55.6586 47.4477 57.7518 44.1704 58.5582 43.3468C59.2734 42.6469 60.2342 42.2549 61.2348 42.2549C62.2355 42.2549 63.1963 42.6469 63.9114 43.3468C64.6231 44.0801 65.0214 45.0617 65.0214 46.0835C65.0214 47.1054 64.6231 48.087 63.9114 48.8201C63.6009 49.1262 63.262 49.4021 62.8991 49.6438ZM49.7742 44.2338C49.5355 44.3347 49.3193 44.4823 49.1386 44.6681V44.6165C48.7756 45.0018 48.5733 45.5111 48.5733 46.0406C48.5733 46.57 48.7756 47.0795 49.1386 47.4648C50.3966 48.5784 51.9426 49.3156 53.5997 49.5924C53.712 49.6221 53.8304 49.6221 53.9428 49.5924C54.3717 49.1463 53.1535 45.9206 51.9182 44.6681C51.7375 44.4823 51.5215 44.3347 51.2827 44.2338C51.044 44.1331 50.7875 44.081 50.5284 44.081C50.2693 44.081 50.0128 44.1331 49.7742 44.2338ZM44.9178 68.1568H54.9723V57.0215H44.9178V68.1568ZM43.082 55.1686H54.9723V51.4452H43.082V55.1686ZM61.2348 44.0509C60.7155 44.0509 60.2169 44.2539 59.8451 44.6165V44.6681C58.6097 45.9206 57.3915 49.1463 57.8204 49.5924C57.9272 49.6215 58.0397 49.6215 58.1464 49.5924C59.8099 49.3196 61.3623 48.582 62.6246 47.4648C62.9878 47.0795 63.19 46.57 63.19 46.0406C63.19 45.5111 62.9878 45.0018 62.6246 44.6165C62.2528 44.2539 61.7542 44.0509 61.2348 44.0509ZM56.791 68.2083H66.8454V57.073H56.791V68.2083ZM56.791 55.2201H68.6813V51.4967H56.791V55.2201Z" fill="url(#paint0_linear_720_18923)"/>
<defs>
<linearGradient id="paint0_linear_720_18923" x1="12.1605" y1="9.92163" x2="75.1145" y2="34.0457" gradientUnits="userSpaceOnUse">
<stop stop-color="#002D85"/>
<stop offset="1" stop-color="#DE0000"/>
</linearGradient>
</defs>
</svg>
