<svg width="81" height="80" viewBox="0 0 81 80" fill="none" xmlns="http://www.w3.org/2000/svg">
<path fill-rule="evenodd" clip-rule="evenodd" d="M52.4663 23.1724L56.4998 25.1724H56.4333C56.5235 25.2242 56.6266 25.2495 56.7306 25.245C56.8347 25.2405 56.9353 25.2067 57.0208 25.1474C57.1063 25.088 57.1733 25.0057 57.2138 24.9097C57.2545 24.8138 57.267 24.7085 57.25 24.6058L56.4831 20.3387C56.466 20.2545 56.4708 20.1675 56.4971 20.0858C56.5235 20.004 56.5703 19.9303 56.6333 19.872L59.9669 16.8551C60.0407 16.7846 60.0927 16.6943 60.1169 16.5951C60.1409 16.4958 60.1361 16.3917 60.1027 16.2952C60.0694 16.1986 60.0091 16.1136 59.9287 16.0504C59.8486 15.9871 59.7519 15.9481 59.6502 15.9383L55.1497 15.3216C55.0602 15.3056 54.9752 15.2706 54.9003 15.2188C54.8257 15.167 54.7628 15.0998 54.7163 15.0217L52.7163 11.1379C52.6655 11.0477 52.5916 10.9728 52.5023 10.9206C52.413 10.8684 52.3113 10.8408 52.2078 10.8408C52.1043 10.8408 52.0028 10.8684 51.9134 10.9206C51.8241 10.9728 51.7502 11.0477 51.6994 11.1379L49.6827 15.0217C49.6397 15.0994 49.5801 15.1665 49.5081 15.2184C49.4359 15.2703 49.3534 15.3055 49.266 15.3216L44.749 15.9383C44.6487 15.9509 44.554 15.9918 44.476 16.0561C44.398 16.1204 44.34 16.2056 44.3085 16.3017C44.2772 16.3977 44.2737 16.5007 44.2985 16.5987C44.3233 16.6967 44.3755 16.7856 44.449 16.8551L47.6993 19.872C47.7651 19.9285 47.8151 20.0015 47.8444 20.0833C47.8736 20.1651 47.8809 20.2532 47.8658 20.3387L47.099 24.6058C47.082 24.7085 47.0947 24.8138 47.1352 24.9097C47.1757 25.0057 47.2427 25.088 47.3282 25.1474C47.4137 25.2067 47.5144 25.2405 47.6184 25.245C47.7224 25.2495 47.8256 25.2242 47.9159 25.1724L51.9496 23.1724C52.0294 23.1314 52.1179 23.1099 52.2078 23.1099C52.2976 23.1099 52.3863 23.1314 52.4663 23.1724ZM49.3327 19.3552L47.1659 17.3385H47.2492C47.2236 17.3291 47.2016 17.3118 47.1861 17.2895C47.1706 17.2671 47.1622 17.2406 47.1622 17.2134C47.1622 17.1862 47.1706 17.1597 47.1861 17.1373C47.2016 17.115 47.2236 17.0979 47.2492 17.0885L50.2326 16.6885C50.3223 16.6725 50.4073 16.6375 50.4821 16.5857C50.557 16.5339 50.6197 16.4665 50.666 16.3883L51.9994 13.8049C52.0121 13.7804 52.0313 13.7599 52.0548 13.7455C52.0783 13.7312 52.1053 13.7235 52.1328 13.7235C52.1604 13.7235 52.1874 13.7312 52.2109 13.7455C52.2345 13.7599 52.2536 13.7804 52.2663 13.8049L53.6164 16.3883C53.6592 16.4661 53.7189 16.5334 53.7909 16.5853C53.8629 16.6372 53.9458 16.6724 54.0331 16.6885L57.0332 17.0885C57.0598 17.0932 57.0845 17.105 57.105 17.1227C57.1253 17.1403 57.1407 17.1632 57.1492 17.1888C57.1577 17.2144 57.1592 17.2418 57.1535 17.2681C57.1477 17.2945 57.135 17.3188 57.1165 17.3385L54.9497 19.3552C54.8838 19.4119 54.8338 19.4846 54.8047 19.5664C54.7753 19.6483 54.768 19.7364 54.7832 19.8221L55.2999 22.6555C55.3027 22.6823 55.2984 22.7095 55.287 22.734C55.2759 22.7585 55.2582 22.7795 55.236 22.7949C55.2139 22.8102 55.188 22.8195 55.161 22.8214C55.1342 22.8232 55.1072 22.8177 55.0832 22.8055L52.3996 21.4721C52.3196 21.4312 52.2311 21.4099 52.1413 21.4099C52.0514 21.4099 51.9629 21.4312 51.8829 21.4721L49.1992 22.8055C49.1752 22.8177 49.1482 22.8232 49.1214 22.8214C49.0944 22.8195 49.0685 22.8102 49.0464 22.7949C49.0242 22.7795 49.0065 22.7585 48.9954 22.734C48.984 22.7095 48.9797 22.6823 48.9825 22.6555L49.4827 19.8221C49.4999 19.7379 49.4951 19.6506 49.4687 19.5689C49.4426 19.4873 49.3956 19.4136 49.3327 19.3552ZM28.0648 33.3063L33.5153 36.0399H33.3819C33.5604 36.1506 33.767 36.2076 33.977 36.2046C34.1868 36.2016 34.3917 36.1384 34.567 36.0227C34.7422 35.9071 34.8807 35.7435 34.9662 35.5517C35.0516 35.3597 35.0801 35.1475 35.0487 34.9398L33.9986 29.156C33.966 28.9888 33.978 28.8162 34.0336 28.6551C34.0893 28.4941 34.1863 28.3506 34.3153 28.2393L38.7324 24.139C38.8799 24.0048 38.9847 23.8303 39.0339 23.6369C39.0829 23.4436 39.0739 23.24 39.0082 23.0517C38.9425 22.8634 38.8229 22.6983 38.664 22.5777C38.5053 22.4568 38.3147 22.3853 38.1156 22.3721L32.015 21.5222C31.8436 21.4997 31.68 21.4364 31.5379 21.3379C31.3958 21.2392 31.2794 21.1082 31.1984 20.9554L28.4647 15.6884C28.3655 15.5152 28.2224 15.3712 28.0497 15.2711C27.877 15.171 27.681 15.1185 27.4815 15.1185C27.2818 15.1185 27.0858 15.171 26.9131 15.2711C26.7404 15.3712 26.5972 15.5152 26.498 15.6884L23.7643 20.9554C23.6833 21.1082 23.567 21.2392 23.425 21.3379C23.2828 21.4364 23.1191 21.4997 22.9476 21.5222L16.8473 22.3721C16.6483 22.3853 16.4574 22.4568 16.2987 22.5777C16.1399 22.6983 16.0202 22.8634 15.9545 23.0517C15.8887 23.24 15.8799 23.4436 15.929 23.6369C15.978 23.8303 16.0829 24.0048 16.2306 24.139L20.6474 28.2393C20.7764 28.3506 20.8736 28.4941 20.9291 28.6551C20.9848 28.8162 20.9968 28.9888 20.9641 29.156L19.914 34.9398C19.8827 35.1475 19.9114 35.3597 19.9967 35.5517C20.082 35.7435 20.2205 35.9071 20.3957 36.0227C20.5711 36.1384 20.7759 36.2016 20.9858 36.2046C21.1958 36.2076 21.4023 36.1506 21.5808 36.0399L27.0314 33.3063C27.1913 33.2245 27.3684 33.1817 27.5481 33.1817C27.7278 33.1817 27.9048 33.2245 28.0648 33.3063ZM22.281 27.7059L18.2472 23.9723H18.3307C18.3051 23.9488 18.2866 23.9183 18.2776 23.8846C18.2686 23.8509 18.2694 23.8154 18.2799 23.7821C18.2904 23.7489 18.3102 23.7193 18.3369 23.6969C18.3636 23.6744 18.3962 23.6601 18.4307 23.6556L23.9978 22.8889C24.1714 22.8664 24.3372 22.8033 24.4821 22.705C24.6267 22.6065 24.7464 22.4755 24.8312 22.3223L27.3146 17.5218C27.3343 17.4909 27.3613 17.4653 27.3933 17.4476C27.4255 17.4299 27.4615 17.4205 27.4981 17.4205C27.5348 17.4205 27.5708 17.4299 27.6028 17.4476C27.6348 17.4653 27.662 17.4909 27.6815 17.5218L30.165 22.3223C30.2497 22.4755 30.3694 22.6065 30.514 22.705C30.6589 22.8033 30.8247 22.8664 30.9984 22.8889L36.5322 23.6556C36.5667 23.6601 36.5992 23.6744 36.6259 23.6969C36.6527 23.7193 36.6724 23.7489 36.6829 23.7821C36.6934 23.8154 36.6942 23.8509 36.6852 23.8846C36.6762 23.9183 36.6579 23.9488 36.6322 23.9723L32.5985 27.7059C32.4752 27.8246 32.3832 27.9719 32.3307 28.1349C32.2783 28.2978 32.2673 28.471 32.2985 28.6393L33.2484 33.9064C33.2518 33.9414 33.2457 33.9767 33.2311 34.0087C33.2164 34.0407 33.1934 34.0682 33.1647 34.0886C33.1361 34.1087 33.1024 34.1211 33.0674 34.1242C33.0324 34.1274 32.9971 34.1212 32.9652 34.1064L27.9648 31.6229C27.8048 31.541 27.6278 31.4984 27.4481 31.4984C27.2684 31.4984 27.0913 31.541 26.9314 31.6229L21.931 34.1064C21.898 34.1201 21.8622 34.1256 21.8267 34.1221C21.7912 34.1186 21.757 34.1064 21.7273 34.0867C21.6977 34.0669 21.6733 34.0402 21.6565 34.0087C21.6397 33.9772 21.631 33.9421 21.631 33.9064L22.5811 28.6393C22.6122 28.471 22.6011 28.2978 22.5487 28.1349C22.4964 27.9719 22.4044 27.8246 22.281 27.7059ZM65.0836 52.4412C65.9487 52.149 66.8856 52.149 67.7505 52.4412V52.4245C68.4876 52.6327 69.14 53.0687 69.6145 53.67C70.089 54.2712 70.3616 55.0069 70.3929 55.7721C70.4244 56.5374 70.213 57.2931 69.7895 57.9311C69.3658 58.5692 68.7513 59.0571 68.0339 59.3251L46.2155 68.1091C44.4833 68.8072 42.6325 69.1639 40.765 69.1592H40.515C39.0041 69.1602 37.5023 68.9238 36.0647 68.4591L22.3969 63.8588V65.3589C22.3949 65.4872 22.3671 65.6141 22.3154 65.7316C22.2639 65.8493 22.1892 65.9553 22.0962 66.0438C22.0031 66.1321 21.8934 66.2013 21.7732 66.2468C21.6532 66.2923 21.5252 66.3135 21.3968 66.3091H11.396C11.2677 66.3135 11.1399 66.2923 11.0197 66.2468C10.8997 66.2013 10.7898 66.1321 10.6967 66.0438C10.6036 65.9553 10.5291 65.8493 10.4775 65.7316C10.4258 65.6141 10.3981 65.4872 10.396 65.3589V44.4407C10.3981 44.3122 10.4258 44.1855 10.4775 44.0679C10.5291 43.9504 10.6036 43.8442 10.6967 43.7558C10.7898 43.6673 10.8997 43.5983 11.0197 43.5527C11.1399 43.5072 11.2677 43.486 11.396 43.4905H21.3968C21.5252 43.486 21.6532 43.5072 21.7732 43.5527C21.8934 43.5983 22.0031 43.6673 22.0962 43.7558C22.1892 43.8442 22.2639 43.9504 22.3154 44.0679C22.3671 44.1855 22.3949 44.3122 22.3969 44.4407V45.3906H30.1975C31.1784 45.3801 32.1405 45.6583 32.9644 46.1907L40.6984 51.0911H41.8353L42.6991 46.3244C42.7236 46.1843 42.7121 46.0405 42.6654 45.9062C42.6188 45.772 42.5384 45.652 42.4322 45.5575L35.6484 39.257C35.5255 39.1438 35.4379 38.9976 35.3962 38.8358C35.3544 38.6739 35.3604 38.5037 35.413 38.3452C35.4659 38.1867 35.5635 38.0469 35.694 37.9425C35.8244 37.8382 35.9822 37.7737 36.1486 37.757L45.5492 36.4569C45.6947 36.4406 45.8337 36.3876 45.9532 36.3031C46.0727 36.2185 46.1689 36.105 46.2327 35.9734L50.4329 27.8894C50.5147 27.7399 50.6354 27.6152 50.7819 27.5284C50.9286 27.4414 51.0959 27.3957 51.2663 27.3957C51.4368 27.3957 51.6041 27.4414 51.7508 27.5284C51.8973 27.6152 52.0178 27.7399 52.0997 27.8894L56.2834 35.9734C56.3524 36.1045 56.452 36.217 56.5739 36.3012C56.6959 36.3854 56.8364 36.4389 56.9836 36.4569L66.3675 37.757C66.5352 37.7708 66.695 37.8332 66.8279 37.9365C66.9607 38.0397 67.0605 38.1795 67.1152 38.3386C67.17 38.4976 67.1774 38.6689 67.1364 38.8321C67.0954 38.9953 67.0079 39.1428 66.8844 39.257L60.0838 45.5575C59.9776 45.652 59.8973 45.772 59.8506 45.9062C59.804 46.0405 59.7925 46.1843 59.817 46.3244L61.131 53.6252L61.1333 53.6245L65.0836 52.4412ZM44.3137 51.0911H47.467L47.4995 51.0747L50.8331 49.4079C50.9679 49.3418 51.1161 49.3073 51.2663 49.3073C51.4166 49.3073 51.5648 49.3418 51.6997 49.4079L58.1337 52.5248C58.1902 52.556 58.2542 52.571 58.3188 52.5682C58.3834 52.5652 58.4459 52.5445 58.4994 52.5083C58.5529 52.472 58.5952 52.4217 58.6219 52.3628C58.6485 52.304 58.6584 52.2388 58.6504 52.1746L57.4501 45.5075C57.4256 45.3674 57.4371 45.2238 57.4838 45.0896C57.5304 44.9552 57.6108 44.8352 57.717 44.7407L62.8007 40.0239C62.8532 39.983 62.8915 39.9267 62.9102 39.8628C62.9289 39.799 62.927 39.731 62.9049 39.6683C62.8827 39.6056 62.8415 39.5515 62.7869 39.5135C62.7322 39.4756 62.6672 39.4558 62.6007 39.457L55.5833 38.4736C55.4379 38.4572 55.2989 38.4046 55.1794 38.3201C55.0599 38.2354 54.9639 38.122 54.9001 37.9904L51.7498 31.9564C51.7175 31.901 51.6712 31.8552 51.6156 31.8234C51.5601 31.7914 51.4971 31.7747 51.4331 31.7747C51.369 31.7747 51.306 31.7914 51.2505 31.8234C51.1949 31.8552 51.1486 31.901 51.1164 31.9564L47.966 37.9904C47.9022 38.122 47.8062 38.2354 47.6867 38.3201C47.5672 38.4046 47.4281 38.4572 47.2828 38.4736L40.2487 39.457C40.1837 39.4591 40.1209 39.4815 40.0689 39.5206C40.0169 39.5598 39.9784 39.6142 39.9584 39.6762C39.9384 39.738 39.9377 39.8047 39.9569 39.867C39.9761 39.9292 40.0141 39.9838 40.0654 40.0239L45.0658 44.7407C45.172 44.8352 45.2521 44.9552 45.2988 45.0896C45.3455 45.2238 45.3571 45.3674 45.3325 45.5075L44.3157 51.0747L44.3137 51.0911ZM42.2051 52.936C42.1965 52.9323 42.1881 52.9285 42.1796 52.9246H40.415C40.2217 52.9237 40.032 52.8721 39.865 52.7747L31.8643 47.7743C31.3678 47.4543 30.7884 47.2861 30.1975 47.2908H22.3969V61.8253L36.7147 66.6757C37.9447 67.0614 39.2261 67.258 40.515 67.259H40.765C42.3695 67.262 43.9596 66.9564 45.4487 66.359L67.2505 57.5751V57.4416C67.59 57.3151 67.8824 57.0874 68.088 56.7892C68.2937 56.4912 68.4029 56.137 68.4006 55.7748C68.3826 55.3918 68.2439 55.0242 68.0044 54.7249C67.7649 54.4255 67.4368 54.2095 67.0671 54.108C66.6411 53.958 66.1764 53.958 65.7504 54.108L61.4834 55.3748L61.1535 55.4704C61.0402 55.6068 60.8886 55.7074 60.7172 55.7583L60.2005 55.8418C60.0374 55.9078 59.8603 55.9258 59.6895 55.8959L51.2992 58.3918C50.9164 58.733 50.4763 59.0039 49.9991 59.1917C49.7878 59.2704 49.5704 59.3317 49.3491 59.3751H49.199C48.9549 59.3916 48.7098 59.3916 48.4657 59.3751H33.4645V57.4749H48.4657C48.6425 57.5003 48.8222 57.5003 48.999 57.4749H49.1824L49.4991 57.3416L49.6991 57.2416L50.0158 56.9749C50.0489 56.9794 50.0826 56.9794 50.1158 56.9749C50.2491 56.8364 50.3615 56.6794 50.4491 56.5082L50.7158 56.0082C50.892 55.6746 50.9729 55.2991 50.9492 54.9227C50.9257 54.5462 50.7988 54.1835 50.5825 53.8746C50.3711 53.5853 50.0956 53.3489 49.7774 53.1841C49.4916 53.0359 49.1784 52.9492 48.8577 52.9289L48.6994 53.008H42.5824C42.4528 53.0121 42.3239 52.9874 42.2051 52.936ZM52.766 56.1083L57.3288 54.7642L51.2663 51.7248L51.0807 51.8174C51.5182 52.1012 51.8977 52.4657 52.1993 52.8912C52.5248 53.3526 52.7445 53.8803 52.8423 54.4364C52.9403 54.9924 52.9143 55.5634 52.766 56.1083ZM12.7962 63.4587H19.9967V46.3405H12.7962V63.4587Z" fill="url(#paint0_linear_808_17771)"/>
<defs>
<linearGradient id="paint0_linear_808_17771" x1="69.3228" y1="67.8943" x2="69.3228" y2="10.8408" gradientUnits="userSpaceOnUse">
<stop stop-color="#002D85"/>
<stop offset="1" stop-color="#013AA9"/>
</linearGradient>
</defs>
</svg>
