<svg width="81" height="80" viewBox="0 0 81 80" fill="none" xmlns="http://www.w3.org/2000/svg">
<path fill-rule="evenodd" clip-rule="evenodd" d="M48.444 29.0444H23.6822C23.3583 29.0444 23.0477 29.1714 22.8187 29.3976C22.5897 29.6238 22.461 29.9306 22.461 30.2505C22.461 30.5704 22.5897 30.8772 22.8187 31.1034C23.0477 31.3296 23.3583 31.4566 23.6822 31.4566H48.444C48.7679 31.4566 49.0785 31.3296 49.3076 31.1034C49.5366 30.8772 49.6653 30.5704 49.6653 30.2505C49.6653 29.9306 49.5366 29.6238 49.3076 29.3976C49.0785 29.1714 48.7679 29.0444 48.444 29.0444ZM48.444 35.202H23.6822C23.3583 35.202 23.0477 35.3291 22.8187 35.5553C22.5897 35.7815 22.461 36.0883 22.461 36.4082C22.461 36.7281 22.5897 37.0348 22.8187 37.261C23.0477 37.4872 23.3583 37.6143 23.6822 37.6143H48.444C48.7679 37.6143 49.0785 37.4872 49.3076 37.261C49.5366 37.0348 49.6653 36.7281 49.6653 36.4082C49.6653 36.0883 49.5366 35.7815 49.3076 35.5553C49.0785 35.3291 48.7679 35.202 48.444 35.202ZM42.2255 10H18.8134C17.8729 10.0042 16.9721 10.375 16.307 11.0319C15.6419 11.6887 15.2664 12.5784 15.2622 13.5073V61.2293C15.2665 62.1568 15.6425 63.0448 16.308 63.6991C16.9735 64.3534 17.8743 64.7208 18.8134 64.7208H42.9164L43.4467 62.372L41.6148 60.5786H20.8541C20.6707 60.5808 20.4887 60.5465 20.3189 60.4777C20.1492 60.4088 19.9953 60.307 19.8663 60.1781C19.7373 60.0492 19.636 59.896 19.5683 59.7276C19.5005 59.5592 19.4679 59.3791 19.4722 59.1979V15.5229C19.4722 15.3444 19.5081 15.1676 19.5777 15.0029C19.6473 14.8382 19.7494 14.6888 19.8779 14.5633C20.0065 14.4379 20.1589 14.3388 20.3265 14.272C20.4941 14.2051 20.6734 14.1718 20.8541 14.1739H40.6025V20.522C40.6068 21.9419 41.1809 23.3022 42.199 24.3048C43.217 25.3073 44.5961 25.8703 46.0337 25.8703H52.4612V34.2816H56.6712V24.2833L42.2255 10Z" fill="url(#paint0_linear_808_17902)"/>
<path d="M44.7804 45.629C44.8865 45.5252 44.9612 45.3942 44.9961 45.2508C45.031 45.1073 45.0248 44.9571 44.978 44.817C44.9313 44.6769 44.846 44.5524 44.7316 44.4576C44.6172 44.3627 44.4783 44.3012 44.3305 44.28L39.8795 43.6293C39.7487 43.6165 39.6237 43.5703 39.5166 43.4951C39.4095 43.42 39.3241 43.3186 39.2688 43.2009L37.2763 39.2015C37.2105 39.0674 37.1078 38.9542 36.9799 38.8751C36.8521 38.7959 36.7042 38.7539 36.5532 38.7539C36.4023 38.7539 36.2544 38.7959 36.1266 38.8751C35.9987 38.9542 35.8959 39.0674 35.8302 39.2015L33.8376 43.2009C33.7824 43.3186 33.697 43.42 33.5899 43.4951C33.4828 43.5703 33.3577 43.6165 33.227 43.6293L28.7599 44.28C28.6134 44.3036 28.4765 44.3669 28.3641 44.4627C28.2518 44.5585 28.1686 44.6832 28.1236 44.823C28.0787 44.9627 28.0738 45.1119 28.1096 45.2542C28.1453 45.3965 28.2202 45.5262 28.3261 45.629L31.5398 48.8031C31.6337 48.8914 31.7036 49.0017 31.7429 49.1237C31.7822 49.2458 31.7897 49.3757 31.7648 49.5014L31.0096 53.8974C30.9814 54.0428 30.9958 54.1931 31.0511 54.3307C31.1065 54.4682 31.2004 54.5873 31.3219 54.674C31.4434 54.7607 31.5874 54.8113 31.737 54.8199C31.8866 54.8285 32.0356 54.7948 32.1665 54.7227L36.1515 52.5961C36.2644 52.5335 36.3917 52.5007 36.5211 52.5007C36.6505 52.5007 36.7778 52.5335 36.8907 52.5961L40.9721 54.6592C41.103 54.7313 41.252 54.765 41.4016 54.7564C41.5512 54.7478 41.6952 54.6972 41.8167 54.6105C41.9382 54.5239 42.0322 54.4047 42.0875 54.2672C42.1428 54.1296 42.1572 53.9793 42.1291 53.8339L41.3738 49.4379C41.3489 49.3122 41.3564 49.1823 41.3957 49.0603C41.435 48.9382 41.5049 48.8279 41.5988 48.7396L44.7804 45.629ZM40.3133 48.3428C40.2194 48.4312 40.1496 48.5414 40.1102 48.6635C40.0709 48.7856 40.0634 48.9154 40.0884 49.0411L40.7793 53.0563C40.7821 53.0818 40.7778 53.1077 40.767 53.131C40.7562 53.1544 40.7392 53.1744 40.7178 53.189C40.6965 53.2037 40.6715 53.2123 40.6455 53.2141C40.6196 53.2159 40.5936 53.2107 40.5704 53.1991L36.9228 51.263C36.8061 51.1945 36.6729 51.1584 36.5372 51.1584C36.4014 51.1584 36.2682 51.1945 36.1515 51.263L32.5039 53.1515C32.4807 53.1631 32.4548 53.1683 32.4288 53.1665C32.4029 53.1647 32.3779 53.156 32.3565 53.1414C32.3351 53.1268 32.3181 53.1068 32.3073 53.0834C32.2965 53.06 32.2923 53.0342 32.295 53.0087L32.986 48.9935C33.011 48.8678 33.0034 48.7379 32.9641 48.6159C32.9248 48.4938 32.855 48.3835 32.761 48.2952L29.8365 45.502C29.8167 45.489 29.8003 45.4713 29.7891 45.4506C29.7778 45.4298 29.7719 45.4066 29.7719 45.383C29.7719 45.3594 29.7778 45.3362 29.7891 45.3155C29.8003 45.2947 29.8167 45.277 29.8365 45.264L33.918 44.6768C34.0456 44.6544 34.166 44.6025 34.2694 44.5252C34.3727 44.448 34.4561 44.3476 34.5125 44.2324L36.3444 40.5981C36.3565 40.5748 36.3749 40.5553 36.3976 40.5416C36.4203 40.5279 36.4463 40.5207 36.4729 40.5207C36.4995 40.5207 36.5255 40.5279 36.5482 40.5416C36.5709 40.5553 36.5893 40.5748 36.6014 40.5981L38.4172 44.2324C38.4783 44.3473 38.565 44.447 38.6708 44.524C38.7765 44.601 38.8986 44.6532 39.0278 44.6768L43.1093 45.264C43.1349 45.2685 43.1588 45.2797 43.1784 45.2965C43.1981 45.3133 43.2128 45.3351 43.2211 45.3594C43.2293 45.3838 43.2307 45.4099 43.2252 45.435C43.2196 45.4601 43.2073 45.4833 43.1896 45.502L40.3133 48.3428Z" fill="url(#paint1_linear_808_17902)"/>
<path d="M65.2037 57.3885C65.3486 57.2457 65.4506 57.0661 65.4985 56.8696C65.5464 56.6731 65.5383 56.4673 65.475 56.2751C65.4118 56.0829 65.296 55.9117 65.1403 55.7805C64.9846 55.6492 64.7953 55.5631 64.5931 55.5317L58.4549 54.6588C58.2804 54.6335 58.1148 54.5669 57.9721 54.4646C57.8294 54.3624 57.7139 54.2275 57.6354 54.0716L54.8876 48.5805C54.7949 48.4004 54.6534 48.2491 54.479 48.1435C54.3046 48.0378 54.104 47.9819 53.8994 47.9819C53.6948 47.9819 53.4942 48.0378 53.3198 48.1435C53.1454 48.2491 53.0039 48.4004 52.9112 48.5805L50.1795 54.0716C50.0984 54.2287 49.9801 54.3641 49.8346 54.4663C49.6891 54.5686 49.5208 54.6346 49.3439 54.6588L43.2218 55.5317C43.0135 55.5523 42.8157 55.6316 42.6518 55.76C42.4878 55.8885 42.3647 56.0608 42.297 56.2563C42.2293 56.4519 42.2199 56.6626 42.2699 56.8633C42.3199 57.064 42.4272 57.2463 42.579 57.3885L47.014 61.6576C47.1401 61.7827 47.2337 61.9361 47.2869 62.1046C47.3401 62.2732 47.3512 62.452 47.3193 62.6257L46.3069 68.7199C46.2748 68.9201 46.2997 69.1252 46.3786 69.3124C46.4576 69.4995 46.5876 69.6613 46.7542 69.7798C46.9208 69.8983 47.1174 69.9687 47.3221 69.9833C47.5269 69.9979 47.7317 69.9561 47.9138 69.8625L53.3932 67.0218C53.5506 66.9356 53.7275 66.8904 53.9074 66.8904C54.0873 66.8904 54.2643 66.9356 54.4216 67.0218L59.901 69.8625C60.0825 69.9628 60.2891 70.0098 60.4967 69.998C60.7042 69.9863 60.9041 69.9164 61.0728 69.7964C61.2415 69.6764 61.372 69.5114 61.4491 69.3207C61.5262 69.1301 61.5466 68.9216 61.5079 68.7199L60.4634 62.6892C60.4349 62.5142 60.4492 62.335 60.5052 62.1666C60.5611 61.9982 60.657 61.8454 60.7848 61.7211L65.2037 57.3885ZM59.0655 61.118C58.9408 61.2445 58.847 61.3975 58.7913 61.5653C58.7356 61.7331 58.7194 61.9112 58.7441 62.0861L59.7082 67.5931C59.711 67.6284 59.7046 67.6638 59.6895 67.6959C59.6745 67.728 59.6513 67.7558 59.6223 67.7765C59.5932 67.7972 59.5593 67.8102 59.5237 67.8142C59.4881 67.8182 59.452 67.8131 59.419 67.7994L54.4216 65.1967C54.2643 65.1105 54.0873 65.0653 53.9074 65.0653C53.7275 65.0653 53.5506 65.1105 53.3932 65.1967L48.3798 67.7994C48.3477 67.8146 48.312 67.8208 48.2765 67.8172C48.2411 67.8136 48.2074 67.8004 48.1791 67.7791C48.1508 67.7577 48.1291 67.729 48.1163 67.6962C48.1035 67.6634 48.1002 67.6277 48.1066 67.5931L49.0065 62.0861C49.035 61.9111 49.0207 61.7319 48.9648 61.5635C48.9089 61.3951 48.813 61.2424 48.6851 61.118L44.6358 57.2139C44.6121 57.1885 44.5958 57.1572 44.5887 57.1234C44.5816 57.0896 44.5839 57.0545 44.5955 57.0218C44.6071 56.9892 44.6274 56.9603 44.6543 56.9383C44.6812 56.9162 44.7137 56.9018 44.7483 56.8965L50.3884 56.0236C50.5682 56.002 50.7394 55.9352 50.8857 55.8296C51.032 55.724 51.1484 55.5832 51.224 55.4206L53.7307 50.4214C53.7457 50.3875 53.7704 50.3585 53.8018 50.3382C53.8332 50.3179 53.8699 50.3071 53.9074 50.3071C53.945 50.3071 53.9817 50.3179 54.0131 50.3382C54.0445 50.3585 54.0692 50.3875 54.0842 50.4214L56.5748 55.4206C56.6528 55.5815 56.7699 55.7208 56.9157 55.826C57.0616 55.9313 57.2315 55.9992 57.4104 56.0236L63.0023 56.833C63.0369 56.8383 63.0694 56.8527 63.0963 56.8748C63.1232 56.8969 63.1435 56.9258 63.1551 56.9584C63.1666 56.991 63.169 57.0261 63.1619 57.0599C63.1548 57.0938 63.1385 57.125 63.1148 57.1504L59.0655 61.118Z" fill="url(#paint2_linear_808_17902)"/>
<path d="M60.2546 40.1534C60.3088 40.0999 60.3469 40.0327 60.365 39.9592C60.3831 39.8857 60.3804 39.8087 60.3572 39.7367C60.334 39.6646 60.2911 39.6002 60.2334 39.5505C60.1756 39.5009 60.1052 39.4679 60.0297 39.4551L56.7356 38.979C56.6673 38.9722 56.6019 38.9481 56.5456 38.9093C56.4893 38.8704 56.4441 38.8179 56.4142 38.7568L54.952 35.8049C54.9142 35.7389 54.8593 35.684 54.7929 35.6458C54.7266 35.6075 54.6512 35.5874 54.5744 35.5874C54.4976 35.5874 54.4221 35.6075 54.3558 35.6458C54.2895 35.684 54.2346 35.7389 54.1968 35.8049L52.7345 38.7568C52.7046 38.8179 52.6594 38.8704 52.6031 38.9093C52.5469 38.9481 52.4815 38.9722 52.4131 38.979L49.1191 39.4551C49.0436 39.4679 48.9731 39.5009 48.9154 39.5505C48.8576 39.6002 48.8148 39.6646 48.7916 39.7367C48.7683 39.8087 48.7656 39.8857 48.7837 39.9592C48.8018 40.0327 48.84 40.0999 48.8941 40.1534L51.2723 42.4387C51.3222 42.4845 51.3601 42.5418 51.3825 42.6054C51.4049 42.669 51.4112 42.7371 51.4008 42.8037L50.8384 45.9778C50.8215 46.0531 50.8272 46.1316 50.8548 46.2037C50.8825 46.2759 50.9308 46.3385 50.9938 46.384C51.0569 46.4295 51.132 46.4558 51.21 46.4597C51.288 46.4637 51.3655 46.4451 51.4329 46.4063L54.3896 44.8192C54.4463 44.7887 54.5098 44.7727 54.5744 44.7727C54.6389 44.7727 54.7025 44.7887 54.7592 44.8192L57.7158 46.4063C57.7833 46.4451 57.8607 46.4637 57.9387 46.4597C58.0167 46.4558 58.0918 46.4295 58.1549 46.384C58.218 46.3385 58.2663 46.2759 58.2939 46.2037C58.3215 46.1316 58.3272 46.0531 58.3103 45.9778L57.7479 42.8037C57.7376 42.7371 57.7439 42.669 57.7663 42.6054C57.7887 42.5418 57.8265 42.4845 57.8765 42.4387L60.2546 40.1534ZM56.6392 42.0419C56.5892 42.0878 56.5514 42.145 56.529 42.2087C56.5066 42.2723 56.5003 42.3404 56.5106 42.407L56.8802 44.5653C56.8822 44.5849 56.8788 44.6047 56.8705 44.6227C56.8622 44.6406 56.8492 44.656 56.8328 44.6673C56.8164 44.6786 56.7973 44.6854 56.7774 44.687C56.7575 44.6886 56.7375 44.685 56.7195 44.6764L54.7592 43.6607C54.7025 43.6301 54.6389 43.6141 54.5744 43.6141C54.5098 43.6141 54.4463 43.6301 54.3896 43.6607L52.4292 44.6764C52.4112 44.685 52.3912 44.6886 52.3713 44.687C52.3514 44.6854 52.3323 44.6786 52.3159 44.6673C52.2996 44.656 52.2866 44.6406 52.2782 44.6227C52.2699 44.6047 52.2665 44.5849 52.2685 44.5653L52.6381 42.407C52.6485 42.3404 52.6422 42.2723 52.6198 42.2087C52.5974 42.145 52.5595 42.0878 52.5095 42.0419L50.9027 40.4549C50.886 40.445 50.8723 40.4311 50.8627 40.4144C50.8532 40.3977 50.8481 40.3789 50.8481 40.3597C50.8481 40.3405 50.8532 40.3217 50.8627 40.305C50.8723 40.2883 50.886 40.2743 50.9027 40.2645L53.088 39.9629C53.1546 39.9507 53.2172 39.9226 53.2704 39.8811C53.3236 39.8397 53.3658 39.786 53.3933 39.7249L54.3735 37.7728C54.3854 37.7564 54.4011 37.7431 54.4193 37.7339C54.4374 37.7247 54.4575 37.7199 54.478 37.7199C54.4984 37.7199 54.5185 37.7247 54.5367 37.7339C54.5548 37.7431 54.5705 37.7564 54.5824 37.7728L55.5626 39.7249C55.5901 39.786 55.6323 39.8397 55.6855 39.8811C55.7387 39.9226 55.8013 39.9507 55.8679 39.9629L58.0532 40.2645C58.0699 40.2743 58.0836 40.2883 58.0932 40.305C58.1028 40.3217 58.1078 40.3405 58.1078 40.3597C58.1078 40.3789 58.1028 40.3977 58.0932 40.4144C58.0836 40.4311 58.0699 40.445 58.0532 40.4549L56.6392 42.0419Z" fill="url(#paint3_linear_808_17902)"/>
<defs>
<linearGradient id="paint0_linear_808_17902" x1="55.9306" y1="63.5339" x2="55.9306" y2="10" gradientUnits="userSpaceOnUse">
<stop stop-color="#002D85"/>
<stop offset="1" stop-color="#013AA9"/>
</linearGradient>
<linearGradient id="paint1_linear_808_17902" x1="44.7155" y1="54.4727" x2="44.7155" y2="38.7539" gradientUnits="userSpaceOnUse">
<stop stop-color="#002D85"/>
<stop offset="1" stop-color="#013AA9"/>
</linearGradient>
<linearGradient id="paint2_linear_808_17902" x1="65.1127" y1="69.5222" x2="65.1127" y2="47.9819" gradientUnits="userSpaceOnUse">
<stop stop-color="#002D85"/>
<stop offset="1" stop-color="#013AA9"/>
</linearGradient>
<linearGradient id="paint3_linear_808_17902" x1="60.1693" y1="46.2244" x2="60.1693" y2="35.5874" gradientUnits="userSpaceOnUse">
<stop stop-color="#002D85"/>
<stop offset="1" stop-color="#013AA9"/>
</linearGradient>
</defs>
</svg>
