<svg width="80" height="80" viewBox="0 0 80 80" fill="none" xmlns="http://www.w3.org/2000/svg">
<path fill-rule="evenodd" clip-rule="evenodd" d="M54.8992 66.035V59.1265L58.7354 59.1447V67.4896C58.7236 67.8311 58.6447 68.1667 58.5031 68.4776C58.3614 68.7886 58.16 69.0684 57.91 69.3015C57.6602 69.5344 57.3668 69.7158 57.0466 69.8355C56.7267 69.9549 56.3862 70.0103 56.0447 69.9983H12.7572C12.0656 70.0229 11.3928 69.7729 10.8852 69.3028C10.3776 68.8326 10.0767 68.1809 10.0483 67.4896V18.7479C10.0623 18.4064 10.1434 18.0708 10.2872 17.7607C10.431 17.4507 10.6347 17.1718 10.8863 16.9405C11.1379 16.7091 11.4326 16.53 11.7537 16.4127C12.0745 16.2954 12.4156 16.2423 12.7572 16.2569H20.9746C21.368 14.4479 22.3806 12.8333 23.8378 11.6914C25.2951 10.5496 27.1052 9.95226 28.9559 10.003H39.7369C41.5851 9.95302 43.3928 10.5507 44.8471 11.6928C46.3013 12.8348 47.3103 14.4494 47.6999 16.2569H55.9356C56.2762 16.2423 56.6161 16.2952 56.9361 16.4127C57.2561 16.5303 57.5497 16.7103 57.7999 16.9418C58.05 17.1734 58.2518 17.4521 58.3936 17.7621C58.5356 18.072 58.6145 18.4072 58.6263 18.7479V27.2561H54.881V19.7661H47.8272V22.2748C47.7986 22.9611 47.4998 23.6084 46.9956 24.0751C46.4915 24.5417 45.823 24.7903 45.1365 24.7657H23.5564C22.8679 24.7905 22.1976 24.5427 21.6905 24.0763C21.1833 23.6102 20.8804 22.9628 20.8475 22.2748V19.7479H13.9751V66.035H54.8992ZM23.8771 15.9889C23.684 16.4043 23.5749 16.8538 23.5564 17.3115V22.4385H45.1365V17.3115C45.1178 16.8538 45.0087 16.4043 44.8156 15.9889C44.6223 15.5734 44.3489 15.2004 44.0109 14.8912C43.673 14.5819 43.2772 14.3424 42.8461 14.1868C42.4152 14.0312 41.9578 13.9624 41.5004 13.9844H27.1924C26.7348 13.9624 26.2774 14.0312 25.8466 14.1868C25.4157 14.3424 25.0197 14.5819 24.6817 14.8912C24.3438 15.2004 24.0703 15.5734 23.8771 15.9889ZM21.2111 32.3831H37.4098C37.7559 32.3535 38.1046 32.396 38.4333 32.5082C38.7622 32.6203 39.0642 32.7996 39.3202 33.0347C39.576 33.2696 39.7803 33.5554 39.9201 33.8735C40.0599 34.1917 40.1321 34.5353 40.1321 34.8829C40.1321 35.2303 40.0599 35.5741 39.9201 35.8921C39.7803 36.2102 39.576 36.4957 39.3202 36.7306C39.0642 36.9656 38.7622 37.1449 38.4333 37.2571C38.1046 37.3693 37.7559 37.4122 37.4098 37.3827H21.2111C20.8649 37.4122 20.5164 37.3693 20.1875 37.2571C19.8586 37.1449 19.5566 36.9656 19.3008 36.7306C19.0449 36.4957 18.8405 36.2102 18.7007 35.8921C18.5609 35.5741 18.4887 35.2303 18.4887 34.8829C18.4887 34.5353 18.5609 34.1917 18.7007 33.8735C18.8405 33.5554 19.0449 33.2696 19.3008 33.0347C19.5566 32.7996 19.8586 32.6203 20.1875 32.5082C20.5164 32.396 20.8649 32.3535 21.2111 32.3831ZM21.2111 42.3823H37.4098C37.7559 42.3527 38.1046 42.3952 38.4333 42.5074C38.7622 42.6196 39.0642 42.7988 39.3202 43.0339C39.576 43.2688 39.7803 43.5546 39.9201 43.8727C40.0599 44.1909 40.1321 44.5345 40.1321 44.8821C40.1321 45.2295 40.0599 45.5733 39.9201 45.8913C39.7803 46.2095 39.576 46.4949 39.3202 46.7298C39.0642 46.9649 38.7622 47.1441 38.4333 47.2563C38.1046 47.3685 37.7559 47.4114 37.4098 47.3819H21.2111C20.8649 47.4114 20.5164 47.3685 20.1875 47.2563C19.8586 47.1441 19.5566 46.9649 19.3008 46.7298C19.0449 46.4949 18.8405 46.2095 18.7007 45.8913C18.5609 45.5733 18.4887 45.2295 18.4887 44.8821C18.4887 44.5345 18.5609 44.1909 18.7007 43.8727C18.8405 43.5546 19.0449 43.2688 19.3008 43.0339C19.5566 42.7988 19.8586 42.6196 20.1875 42.5074C20.5164 42.3952 20.8649 42.3527 21.2111 42.3823ZM26.6101 51.9634H21.156C20.8099 51.9338 20.4612 51.9763 20.1325 52.0885C19.8036 52.2008 19.5016 52.3799 19.2456 52.615C18.9898 52.8499 18.7855 53.1357 18.6457 53.4538C18.5059 53.772 18.4337 54.1158 18.4337 54.4632C18.4337 54.8106 18.5059 55.1539 18.6457 55.472C18.7855 55.7902 18.9898 56.076 19.2456 56.3109C19.5016 56.546 19.8036 56.7252 20.1325 56.8374C20.4612 56.9496 20.8099 56.9925 21.156 56.963H26.6101C26.9563 56.9925 27.3048 56.9496 27.6337 56.8374C27.9626 56.7252 28.2645 56.546 28.5203 56.3109C28.7763 56.076 28.9807 55.7902 29.1205 55.472C29.2603 55.1539 29.3325 54.8106 29.3325 54.4632C29.3325 54.1158 29.2603 53.772 29.1205 53.4538C28.9807 53.1357 28.7763 52.8499 28.5203 52.615C28.2645 52.3799 27.9626 52.2008 27.6337 52.0885C27.3048 51.9763 26.9563 51.9338 26.6101 51.9634ZM56.3887 57.9628C51.9316 56.6896 48.0679 53.8824 45.4804 50.0363C42.5352 45.4003 43.317 32.8561 43.3533 32.3288V31.7105L56.6068 28.6562L69.8422 31.7105V32.3288C69.8422 32.3709 69.8475 32.4893 69.8558 32.674V32.674C69.9515 34.8062 70.4436 45.77 67.7332 50.0363C65.1456 53.8824 61.2821 56.6896 56.825 57.9628H56.5705H56.3887ZM45.1168 33.0375V33.2924C45.1168 33.4058 45.1128 33.6004 45.1075 33.8632C45.0543 36.4643 44.8643 45.7492 47.0439 49.2002C49.3216 52.5541 52.6659 55.0398 56.5341 56.254H56.6614H56.7886C60.6549 55.0359 63.9981 52.5512 66.2788 49.2002C68.6786 45.4005 68.2605 34.5286 68.1877 33.2924V33.0375L56.6614 30.3652L45.1168 33.0375ZM55.8987 47.2184L66.3524 38.4553L66.425 38.4735C66.5673 38.3573 66.6835 38.2124 66.766 38.0482C66.8486 37.8842 66.8957 37.705 66.9042 37.5215C66.9128 37.3379 66.8826 37.1545 66.8159 36.9836C66.749 36.8125 66.6468 36.6576 66.5161 36.5285C66.2301 36.2754 65.8616 36.1356 65.4798 36.1356C65.098 36.1356 64.7293 36.2754 64.4435 36.5285L56.1714 43.4731C55.8694 43.7129 55.4904 43.8341 55.1053 43.8139C54.7203 43.7939 54.3559 43.6343 54.0807 43.3643L50.5537 39.7283C50.2761 39.461 49.9105 39.3043 49.5254 39.2876C49.1405 39.2708 48.7626 39.3952 48.4628 39.6374C48.3199 39.7504 48.2026 39.8926 48.1186 40.0546C48.0344 40.2164 47.9857 40.394 47.9753 40.576C47.965 40.7582 47.9935 40.9405 48.0588 41.1109C48.1239 41.2812 48.2244 41.4359 48.3537 41.5645L53.8078 47.2184C54.0967 47.4727 54.4685 47.6129 54.8533 47.6129C55.2382 47.6129 55.6098 47.4727 55.8987 47.2184Z" fill="url(#paint0_linear_720_18931)"/>
<defs>
<linearGradient id="paint0_linear_720_18931" x1="11.7062" y1="10" x2="74.5428" y2="34.1032" gradientUnits="userSpaceOnUse">
<stop stop-color="#002D85"/>
<stop offset="1" stop-color="#DE0000"/>
</linearGradient>
</defs>
</svg>
