<svg width="81" height="80" viewBox="0 0 81 80" fill="none" xmlns="http://www.w3.org/2000/svg">
<path fill-rule="evenodd" clip-rule="evenodd" d="M18.3006 53.6727C23.9396 62.5818 33.4369 67.9089 40.4279 69.8544L40.8731 70L41.4007 69.8544C48.3918 67.9089 57.8891 62.6182 63.5446 53.6727C69.0099 44.9341 68.0453 22.5545 67.858 18.2101L67.858 18.2098C67.8419 17.836 67.8315 17.5958 67.8315 17.5093V16.2726L40.9555 10L14.0795 16.2726L13.9971 17.5093L13.995 17.5432C13.9037 19.0431 12.3672 44.2642 18.3006 53.6727ZM17.5586 19.4909V18.9453L40.9885 13.4908L64.3855 18.9453V19.4909C64.5009 22 65.4407 44.2002 60.4942 51.9456C54.41 61.6184 44.2037 65.4364 41.2194 66.3636L40.972 66.4547L40.7247 66.3636C37.7403 65.4364 27.5505 61.6184 21.4498 51.9456C16.5693 44.2002 17.4432 22 17.5586 19.4909ZM48.8026 25.3454C48.8026 29.4 45.2576 32.7091 40.9047 32.7091C36.5353 32.6182 32.9903 29.3273 32.9903 25.3454C32.9903 21.3636 36.5518 18.0726 40.9047 18.0726C45.2576 18.0726 48.8026 21.2909 48.8026 25.3454ZM43.2506 19.5676C42.4856 19.3416 41.6849 19.3027 40.9047 19.4545C37.4092 19.4545 34.5732 22.0909 34.5732 25.3454C34.5732 28.6 37.4092 31.2362 40.9047 31.2362C41.6849 31.388 42.4856 31.3496 43.2506 31.1234C44.0159 30.8974 44.7268 30.4896 45.3336 29.9282C45.9405 29.3667 46.4284 28.6654 46.7631 27.8738C47.098 27.0822 47.2715 26.2189 47.2715 25.3454C47.2715 24.4718 47.098 23.6091 46.7631 22.8174C46.4284 22.0258 45.9405 21.3245 45.3336 20.7631C44.7268 20.2016 44.0159 19.7938 43.2506 19.5676ZM41.6882 37.8547H40.105V39.3274H41.6882V37.8547ZM46.3786 32.7091H47.9943C52.3637 32.7091 55.9088 35.9273 55.9088 39.9818V48.8184C55.8086 49.8735 55.339 50.8435 54.6 51.5225C53.8608 52.2016 52.9107 52.5364 51.9516 52.4547H49.5773V59.0727H32.2149V52.4547H29.8406C28.8815 52.5364 27.9312 52.2016 27.1922 51.5225C26.4532 50.8435 25.9836 49.8735 25.8836 48.8184V39.9818C25.8836 36 29.4284 32.7091 33.7978 32.7091H35.4466C35.5954 32.7082 35.7421 32.7456 35.8755 32.8184C37.2236 33.5798 38.6999 34.0255 40.2119 34.1273C42.1963 34.2649 44.1777 33.8129 45.9497 32.8184C46.0831 32.7456 46.2298 32.7082 46.3786 32.7091ZM34.0946 34.182H33.7978H33.7485C32.4683 34.1702 31.209 34.5406 30.1046 35.2544L38.9588 51.1093H43.5426L34.0946 34.182ZM45.2738 51.1093H45.5871C45.8765 51.1596 46.1723 51.14 46.4544 51.052C46.7364 50.9642 46.9977 50.8102 47.2205 50.6002C47.4432 50.3902 47.6221 50.1293 47.7448 49.8358C47.8673 49.5424 47.9309 49.2233 47.9309 48.9C47.9309 48.5769 47.8673 48.2578 47.7448 47.9644C47.6221 47.6709 47.4432 47.41 47.2205 47.2C46.9977 46.99 46.7364 46.836 46.4544 46.748C46.1723 46.6602 45.8765 46.6405 45.5871 46.6909H42.8171L45.2738 51.1093ZM28.1899 50.5395C28.6346 50.9549 29.2101 51.1596 29.7913 51.1093H37.211L34.7378 46.6909H32.1986V45.2184H33.8474L28.9009 36.2727C27.9769 37.2709 27.444 38.6285 27.417 40.0545V48.8907C27.4673 49.5311 27.7451 50.1238 28.1899 50.5395ZM33.7485 52.5816V57.7273H47.945V51.8364C47.2381 52.3244 46.4209 52.5826 45.5871 52.5816H33.7485ZM53.4992 50.5336C53.9429 50.1191 54.2219 49.5293 54.2763 48.8907L54.3589 40.0911C54.3683 39.3807 54.2409 38.6762 53.9851 38.0244C53.7292 37.3724 53.3508 36.7876 52.875 36.3091C52.2379 35.6162 51.4794 35.0736 50.6461 34.7142C49.8128 34.3547 48.9217 34.186 48.0274 34.2184H46.6918L45.6036 34.6729C42.5427 35.9778 39.1506 35.9778 36.0898 34.6729L41.9927 45.2544H45.5871C46.5462 45.1729 47.4965 45.5075 48.2355 46.1866C48.9745 46.8656 49.4439 47.8356 49.5442 48.8907C49.5318 49.7146 49.2441 50.5049 48.7362 51.1093H51.902C52.4822 51.1549 53.0554 50.9482 53.4992 50.5336Z" fill="url(#paint0_linear_808_17796)"/>
<defs>
<linearGradient id="paint0_linear_808_17796" x1="67.0708" y1="68.6986" x2="67.0708" y2="10" gradientUnits="userSpaceOnUse">
<stop stop-color="#002D85"/>
<stop offset="1" stop-color="#013AA9"/>
</linearGradient>
</defs>
</svg>
