<svg width="81" height="80" viewBox="0 0 81 80" fill="none" xmlns="http://www.w3.org/2000/svg">
<path fill-rule="evenodd" clip-rule="evenodd" d="M15.9799 53.6727C22.198 62.5818 32.6708 67.9089 40.3799 69.8544L40.8708 70L41.4526 69.8544C49.1617 67.9089 59.6344 62.6182 65.8708 53.6727C71.8974 44.9341 70.8337 22.5545 70.6273 18.2101C70.6095 17.8361 70.5981 17.5958 70.5981 17.5093L70.5071 16.2726L40.8708 10L11.2344 16.2726V17.5093C11.2338 17.5188 11.233 17.5301 11.2321 17.5432C11.1314 19.0431 9.43714 44.2642 15.9799 53.6727ZM15.1617 19.4909V18.9453L40.998 13.4908L66.7981 18.9453V19.4909C66.9253 22 67.9617 44.2002 62.5071 51.9456C55.798 61.6184 44.5435 65.4364 41.2526 66.3636L40.9799 66.4547L40.7071 66.3636C37.4162 65.4364 26.1799 61.6184 19.4526 51.9456C14.0708 44.2002 15.0344 22 15.1617 19.4909ZM44.8757 26.0666C46.368 25.4099 47.9866 25.0892 49.6166 25.1274H49.6893C55.5257 25.1274 60.2711 29.1272 60.2711 34.0545C60.2649 35.5376 59.836 36.9883 59.0347 38.2363H61.562C61.7109 38.2166 61.8622 38.2286 62.006 38.2723C62.1497 38.3157 62.2824 38.3899 62.3953 38.4888C62.5082 38.5879 62.5988 38.7094 62.6608 38.8463C62.7228 38.983 62.7548 39.1316 62.7548 39.2817C62.7548 39.4317 62.7228 39.5803 62.6608 39.7172C62.5988 39.8539 62.5082 39.9759 62.3953 40.0748C62.2824 40.1739 62.1497 40.2476 62.006 40.291C61.8622 40.3347 61.7109 40.3466 61.562 40.327H57.2166L41.9257 53.2181C41.6757 53.4417 41.352 53.5652 41.0166 53.5652C40.6813 53.5652 40.3575 53.4417 40.1075 53.2181L24.7438 40.2725H20.4347C20.28 40.3014 20.1206 40.2961 19.9682 40.2565C19.8156 40.2168 19.6738 40.1441 19.5526 40.0434C19.4315 39.9426 19.334 39.8163 19.2671 39.6736C19.2 39.531 19.1653 39.3757 19.1653 39.2183C19.1653 39.0606 19.2 38.905 19.2671 38.7623C19.334 38.6197 19.4315 38.4937 19.5526 38.393C19.6738 38.2923 19.8156 38.2196 19.9682 38.1799C20.1206 38.1403 20.28 38.1346 20.4347 38.1636H22.9438C22.1784 36.929 21.7693 35.5068 21.762 34.0545C21.762 29.1272 26.5075 25.1274 32.3257 25.1274C33.9584 25.089 35.5797 25.4096 37.0749 26.0661C38.5704 26.7226 39.9035 27.6992 40.9802 28.927C42.0535 27.6996 43.3833 26.7232 44.8757 26.0666ZM28.3257 40.2725L41.0529 50.9999L53.6166 40.2725H48.6529C48.4267 40.2806 48.2026 40.2277 48.004 40.1188C47.8057 40.0101 47.6404 39.8497 47.5257 39.6545L46.0711 36.8363L42.0893 44.109C41.9657 44.3005 41.7962 44.4577 41.596 44.5667C41.3958 44.6756 41.1717 44.7327 40.9438 44.7327C40.716 44.7327 40.4918 44.6756 40.2918 44.5667C40.0917 44.4577 39.922 44.3005 39.7984 44.109L35.9984 35.909L34.5257 39.5454C34.4202 39.7679 34.2524 39.9552 34.0426 40.0843C33.8329 40.2134 33.5902 40.2786 33.3438 40.2725H28.3257ZM49.562 38.2726H56.0893V38.3274C57.158 37.1952 57.7617 35.7023 57.7802 34.1454C57.7802 30.3817 54.162 27.309 49.6893 27.309C48.1722 27.2836 46.6762 27.6665 45.3582 28.4183C44.04 29.1701 42.9487 30.263 42.1984 31.5819C42.1133 31.8174 41.9575 32.0205 41.7526 32.1643C41.5477 32.3081 41.3033 32.3854 41.0529 32.3854C40.8026 32.3854 40.5584 32.3081 40.3533 32.1643C40.1484 32.0205 39.9927 31.8174 39.9075 31.5819C39.1573 30.259 38.0633 29.1634 36.7415 28.4112C35.4197 27.659 33.9189 27.2783 32.3984 27.309C27.9438 27.309 24.3075 30.3817 24.3075 34.1454C24.3224 35.671 24.9058 37.1363 25.9438 38.2545H32.4529L34.7438 32.527C34.8298 32.2874 34.9878 32.0805 35.1962 31.9339C35.4044 31.7874 35.6529 31.7085 35.9075 31.7085C36.1622 31.7085 36.4106 31.7874 36.6189 31.9339C36.8271 32.0805 36.9851 32.2874 37.0711 32.527L41.1438 41.2179L45.0529 33.9452C45.1744 33.7537 45.3422 33.5959 45.5409 33.4866C45.7395 33.3774 45.9626 33.3203 46.1893 33.3203C46.416 33.3203 46.6391 33.3774 46.8378 33.4866C47.0366 33.5959 47.2044 33.7537 47.3257 33.9452L49.562 38.2726Z" fill="url(#paint0_linear_808_17785)"/>
<defs>
<linearGradient id="paint0_linear_808_17785" x1="69.7592" y1="68.6986" x2="69.7592" y2="10" gradientUnits="userSpaceOnUse">
<stop stop-color="#002D85"/>
<stop offset="1" stop-color="#013AA9"/>
</linearGradient>
</defs>
</svg>
