<svg width="81" height="80" viewBox="0 0 81 80" fill="none" xmlns="http://www.w3.org/2000/svg">
<path d="M43.5036 51.6452C37.5311 49.7441 32.4491 45.7445 29.1974 40.3863C25.3347 33.7911 26.3362 15.98 26.422 15.2217V14.3634L43.8469 10L61.2718 14.3634V15.2217C61.2718 15.98 62.3591 33.8197 58.4964 40.3863C55.2447 45.7445 50.1627 49.7441 44.1903 51.6452L43.8469 51.7453L43.5036 51.6452ZM28.6824 16.2375V16.6094C28.6109 18.3548 28.0529 33.7768 31.2146 39.1845C34.1022 43.8596 38.513 47.3963 43.7038 49.1989H43.8612H44.0186C49.2094 47.3963 53.6203 43.8596 56.5079 39.1845C59.6695 33.8054 59.1116 18.3548 59.04 16.6094V16.2375L43.8469 12.432L28.6824 16.2375ZM48.9399 20.5293C47.9439 20.5264 46.962 20.7642 46.0777 21.2225C45.1934 21.6809 44.433 22.3461 43.8612 23.1617C43.099 22.0853 42.0144 21.2789 40.7641 20.8589C39.5138 20.4389 38.1624 20.427 36.9049 20.8249C35.6474 21.2229 34.5489 22.0101 33.7678 23.0729C32.9868 24.1357 32.5636 25.4192 32.5594 26.7382C32.5573 27.7347 32.7979 28.7167 33.2604 29.5994H31.8297C31.6645 29.6326 31.5158 29.722 31.4091 29.8524C31.3023 29.9828 31.2439 30.1462 31.2439 30.3147C31.2439 30.4833 31.3023 30.6466 31.4091 30.777C31.5158 30.9074 31.6645 30.9968 31.8297 31.03H34.2618L43.3462 40.0429C43.4829 40.1792 43.6681 40.2557 43.8612 40.2557C44.0543 40.2557 44.2395 40.1792 44.3762 40.0429L53.3462 31.073H55.907C56.0129 31.0942 56.1222 31.0918 56.227 31.0657C56.3318 31.0396 56.4295 30.9906 56.5131 30.9221C56.5966 30.8537 56.6639 30.7675 56.7102 30.6699C56.7564 30.5723 56.7804 30.4657 56.7804 30.3577C56.7804 30.2496 56.7564 30.143 56.7102 30.0454C56.6639 29.9478 56.5966 29.8616 56.5131 29.7932C56.4295 29.7248 56.3318 29.6757 56.227 29.6496C56.1222 29.6236 56.0129 29.6211 55.907 29.6423H54.4764C54.9483 28.762 55.1987 27.7799 55.206 26.7811C55.2022 25.1356 54.5469 23.5585 53.3833 22.395C52.2197 21.2314 50.6427 20.576 48.9971 20.5722L48.9399 20.5293ZM43.8612 38.5265L36.3791 31.0587H39.3262C39.4791 31.0596 39.6283 31.0115 39.7519 30.9213C39.8755 30.8312 39.967 30.7039 40.0129 30.5579L40.8855 27.9685L43.1745 33.691C43.2303 33.8233 43.3238 33.9362 43.4434 34.0156C43.563 34.095 43.7034 34.1374 43.8469 34.1374C43.9905 34.1374 44.1308 34.095 44.2504 34.0156C44.37 33.9362 44.4636 33.8233 44.5193 33.691L46.8512 28.6123L47.7096 30.5722C47.7693 30.7002 47.8643 30.8086 47.9834 30.8846C48.1024 30.9606 48.2407 31.0011 48.382 31.0014H51.2432L43.8612 38.5265ZM52.6881 29.6423H48.8541L47.5379 26.6381C47.4802 26.5099 47.3867 26.4012 47.2687 26.3249C47.1507 26.2487 47.0132 26.2081 46.8727 26.2081C46.7321 26.2081 46.5946 26.2487 46.4766 26.3249C46.3586 26.4012 46.2651 26.5099 46.2074 26.6381L43.9041 31.6452L41.515 25.5937C41.2003 24.8498 40.4707 24.8355 40.0844 25.5937L38.7396 29.5708H34.9771C34.445 28.8658 34.12 28.0264 34.0387 27.1468C33.9574 26.2673 34.123 25.3825 34.5168 24.5919C34.9106 23.8012 35.5171 23.1361 36.2681 22.6712C37.0192 22.2062 37.8849 21.9599 38.7682 21.9599C39.7122 21.9748 40.6315 22.2641 41.4139 22.7924C42.1964 23.3208 42.8081 24.0655 43.1745 24.9356C43.5036 25.6366 44.1616 25.7368 44.5336 24.9356C44.9015 24.0666 45.5136 23.3229 46.2957 22.7947C47.0778 22.2666 47.9963 21.9766 48.9399 21.9599C50.1996 21.9599 51.4077 22.4603 52.2984 23.3511C53.1891 24.2418 53.6895 25.4499 53.6895 26.7096C53.6804 27.7477 53.3283 28.7536 52.6881 29.5708V29.6423ZM65.5636 53.7911C64.7721 53.5119 63.9088 53.5119 63.1173 53.7911L59.4835 54.9356L55.9928 56.0229L51.7868 57.3391C51.9183 56.8108 51.9392 56.2611 51.8481 55.7244C51.757 55.1877 51.5559 54.6756 51.2575 54.2203C50.8965 53.6907 50.4125 53.2565 49.8469 52.955C49.2813 52.6535 48.6509 52.4937 48.01 52.4893H40.6996L33.5465 47.7253C32.792 47.2248 31.9054 46.9608 31 46.9671H23.8469V46.0372C23.8469 45.7944 23.7504 45.5615 23.5787 45.3898C23.407 45.2181 23.1741 45.1216 22.9313 45.1216H13.7182C13.4753 45.1216 13.2424 45.2181 13.0707 45.3898C12.899 45.5615 12.8026 45.7944 12.8026 46.0372V66.309C12.8062 66.5507 12.9039 66.7814 13.0748 66.9524C13.2457 67.1233 13.4765 67.2209 13.7182 67.2246H22.9313C23.1755 67.2208 23.4083 67.1212 23.5796 66.9472C23.7509 66.7732 23.8469 66.5389 23.8469 66.2947V64.8641L36.422 69.3276C37.7406 69.7713 39.1224 69.9984 40.5136 70H40.7568C42.4772 70.0016 44.1802 69.6562 45.7639 68.9843L65.7925 60.4864C66.4648 60.2052 67.0351 59.7254 67.4272 59.1112C67.8192 58.4969 68.0143 57.7776 67.9863 57.0494C67.9583 56.3213 67.7085 55.6191 67.2704 55.0368C66.8324 54.4545 66.2269 54.0199 65.535 53.7911H65.5636ZM21.6438 64.4778H15.0057V47.9113H21.6438V64.4778ZM65.1202 58.7554L45.0486 67.2246C43.6925 67.8051 42.2319 68.1021 40.7568 68.0973H40.5136C39.3277 68.0982 38.1493 67.9099 37.0229 67.5393L23.8469 62.9328V48.8269H31C31.5459 48.8278 32.0791 48.9922 32.5307 49.299L39.8841 54.206C40.0391 54.3008 40.2175 54.3504 40.3991 54.3491H48.0243C48.3591 54.3519 48.6881 54.4368 48.9825 54.5965C49.2768 54.7561 49.5275 54.9855 49.7124 55.2647C49.9174 55.5646 50.0376 55.9144 50.0603 56.277C50.0829 56.6396 50.0072 57.0016 49.8412 57.3247L49.598 57.8255C49.5148 57.9919 49.4089 58.146 49.2832 58.2833H49.1974C49.1125 58.3759 49.0164 58.4576 48.9113 58.5265L48.7253 58.6266L48.4392 58.7554H48.2675C48.1013 58.7773 47.933 58.7773 47.7668 58.7554H33.9757V60.6009H47.7811C48.0095 60.6219 48.2394 60.6219 48.4678 60.6009H48.6109C48.8125 60.5601 49.0091 60.4978 49.1974 60.4149C49.6396 60.2434 50.0432 59.9856 50.3848 59.6566L58.3104 57.2103L59.8126 56.7382L63.7325 55.5222C64.1265 55.387 64.5544 55.387 64.9485 55.5222C65.307 55.6352 65.6198 55.8601 65.8412 56.1639C66.0626 56.4677 66.1809 56.8344 66.1788 57.2103C66.1783 57.548 66.0774 57.878 65.8889 58.1582C65.7004 58.4384 65.4328 58.6563 65.1202 58.784V58.7554Z" fill="url(#paint0_linear_808_17909)"/>
<defs>
<linearGradient id="paint0_linear_808_17909" x1="67.0019" y1="68.6986" x2="67.0019" y2="10" gradientUnits="userSpaceOnUse">
<stop stop-color="#002D85"/>
<stop offset="1" stop-color="#013AA9"/>
</linearGradient>
</defs>
</svg>
