<svg width="81" height="80" viewBox="0 0 81 80" fill="none" xmlns="http://www.w3.org/2000/svg">
<path fill-rule="evenodd" clip-rule="evenodd" d="M55.7952 66.035V59.1265L59.6314 59.1447V67.4896C59.6196 67.8311 59.5407 68.1667 59.3991 68.4776C59.2574 68.7886 59.056 69.0684 58.806 69.3015C58.5562 69.5344 58.2628 69.7158 57.9426 69.8355C57.6227 69.9549 57.2821 70.0103 56.9407 69.9983H13.6532C12.9616 70.0229 12.2888 69.7729 11.7812 69.3028C11.2736 68.8326 10.9727 68.1809 10.9443 67.4896V18.7479C10.9583 18.4064 11.0394 18.0708 11.1832 17.7607C11.327 17.4507 11.5307 17.1718 11.7823 16.9405C12.0339 16.7091 12.3286 16.53 12.6497 16.4127C12.9705 16.2954 13.3116 16.2423 13.6532 16.2569H21.8706C22.264 14.4479 23.2766 12.8333 24.7338 11.6914C26.1911 10.5496 28.0012 9.95226 29.8519 10.003H40.6329C42.4811 9.95302 44.2888 10.5507 45.7431 11.6928C47.1973 12.8348 48.2063 14.4494 48.5959 16.2569H56.8316C57.1721 16.2423 57.5121 16.2952 57.8321 16.4127C58.1521 16.5303 58.4457 16.7103 58.6959 16.9418C58.946 17.1734 59.1478 17.4521 59.2896 17.7621C59.4316 18.072 59.5105 18.4072 59.5223 18.7479V27.2561H55.777V19.7661H48.7232V22.2748C48.6946 22.9611 48.3958 23.6084 47.8916 24.0751C47.3875 24.5417 46.719 24.7903 46.0325 24.7657H24.4524C23.7639 24.7905 23.0936 24.5427 22.5865 24.0763C22.0793 23.6102 21.7764 22.9628 21.7435 22.2748V19.7479H14.8711V66.035H55.7952ZM24.7731 15.9889C24.58 16.4043 24.4709 16.8538 24.4524 17.3115V22.4385H46.0325V17.3115C46.0138 16.8538 45.9047 16.4043 45.7116 15.9889C45.5183 15.5734 45.2449 15.2004 44.9069 14.8912C44.569 14.5819 44.1732 14.3424 43.7421 14.1868C43.3112 14.0312 42.8538 13.9624 42.3964 13.9844H28.0884C27.6308 13.9624 27.1734 14.0312 26.7425 14.1868C26.3117 14.3424 25.9157 14.5819 25.5777 14.8912C25.2398 15.2004 24.9663 15.5734 24.7731 15.9889ZM22.1071 32.3831H38.3058C38.6519 32.3535 39.0006 32.396 39.3293 32.5082C39.6582 32.6203 39.9602 32.7996 40.2162 33.0347C40.472 33.2696 40.6763 33.5554 40.8161 33.8735C40.9559 34.1917 41.0281 34.5353 41.0281 34.8829C41.0281 35.2303 40.9559 35.5741 40.8161 35.8921C40.6763 36.2102 40.472 36.4957 40.2162 36.7306C39.9602 36.9656 39.6582 37.1449 39.3293 37.2571C39.0006 37.3693 38.6519 37.4122 38.3058 37.3827H22.1071C21.7609 37.4122 21.4124 37.3693 21.0835 37.2571C20.7546 37.1449 20.4526 36.9656 20.1968 36.7306C19.9409 36.4957 19.7365 36.2102 19.5967 35.8921C19.4569 35.5741 19.3847 35.2303 19.3847 34.8829C19.3847 34.5353 19.4569 34.1917 19.5967 33.8735C19.7365 33.5554 19.9409 33.2696 20.1968 33.0347C20.4526 32.7996 20.7546 32.6203 21.0835 32.5082C21.4124 32.396 21.7609 32.3535 22.1071 32.3831ZM22.1071 42.3823H38.3058C38.6519 42.3527 39.0006 42.3952 39.3293 42.5074C39.6582 42.6196 39.9602 42.7988 40.2162 43.0339C40.472 43.2688 40.6763 43.5546 40.8161 43.8727C40.9559 44.1909 41.0281 44.5345 41.0281 44.8821C41.0281 45.2295 40.9559 45.5733 40.8161 45.8913C40.6763 46.2095 40.472 46.4949 40.2162 46.7298C39.9602 46.9649 39.6582 47.1441 39.3293 47.2563C39.0006 47.3685 38.6519 47.4114 38.3058 47.3819H22.1071C21.7609 47.4114 21.4124 47.3685 21.0835 47.2563C20.7546 47.1441 20.4526 46.9649 20.1968 46.7298C19.9409 46.4949 19.7365 46.2095 19.5967 45.8913C19.4569 45.5733 19.3847 45.2295 19.3847 44.8821C19.3847 44.5345 19.4569 44.1909 19.5967 43.8727C19.7365 43.5546 19.9409 43.2688 20.1968 43.0339C20.4526 42.7988 20.7546 42.6196 21.0835 42.5074C21.4124 42.3952 21.7609 42.3527 22.1071 42.3823ZM27.5061 51.9634H22.052C21.7059 51.9338 21.3572 51.9763 21.0285 52.0885C20.6996 52.2008 20.3976 52.3799 20.1416 52.615C19.8858 52.8499 19.6815 53.1357 19.5417 53.4538C19.4019 53.772 19.3297 54.1158 19.3297 54.4632C19.3297 54.8106 19.4019 55.1539 19.5417 55.472C19.6815 55.7902 19.8858 56.076 20.1416 56.3109C20.3976 56.546 20.6996 56.7252 21.0285 56.8374C21.3572 56.9496 21.7059 56.9925 22.052 56.963H27.5061C27.8523 56.9925 28.2008 56.9496 28.5297 56.8374C28.8586 56.7252 29.1605 56.546 29.4163 56.3109C29.6723 56.076 29.8767 55.7902 30.0165 55.472C30.1563 55.1539 30.2285 54.8106 30.2285 54.4632C30.2285 54.1158 30.1563 53.772 30.0165 53.4538C29.8767 53.1357 29.6723 52.8499 29.4163 52.615C29.1605 52.3799 28.8586 52.2008 28.5297 52.0885C28.2008 51.9763 27.8523 51.9338 27.5061 51.9634ZM57.2847 57.9628C52.8276 56.6896 48.9639 53.8824 46.3764 50.0363C43.4312 45.4003 44.213 32.8561 44.2493 32.3288V31.7105L57.5028 28.6562L70.7381 31.7105V32.3288C70.7381 32.3709 70.7435 32.4893 70.7518 32.674V32.674C70.8475 34.8062 71.3396 45.77 68.6292 50.0363C66.0416 53.8824 62.1781 56.6896 57.721 57.9628H57.4665H57.2847ZM46.0128 33.0375V33.2924C46.0128 33.4058 46.0088 33.6004 46.0035 33.8632C45.9503 36.4643 45.7603 45.7492 47.9399 49.2002C50.2176 52.5541 53.5619 55.0398 57.4301 56.254H57.5574H57.6846C61.5509 55.0359 64.8941 52.5512 67.1748 49.2002C69.5746 45.4005 69.1564 34.5286 69.0837 33.2924V33.0375L57.5574 30.3652L46.0128 33.0375ZM56.7947 47.2184L67.2484 38.4553L67.321 38.4735C67.4633 38.3573 67.5795 38.2124 67.662 38.0482C67.7446 37.8842 67.7917 37.705 67.8002 37.5215C67.8088 37.3379 67.7786 37.1545 67.7119 36.9836C67.645 36.8125 67.5428 36.6576 67.4121 36.5285C67.1261 36.2754 66.7576 36.1356 66.3758 36.1356C65.994 36.1356 65.6253 36.2754 65.3395 36.5285L57.0674 43.4731C56.7654 43.7129 56.3864 43.8341 56.0013 43.8139C55.6163 43.7939 55.2519 43.6343 54.9767 43.3643L51.4497 39.7283C51.1721 39.461 50.8065 39.3043 50.4214 39.2876C50.0365 39.2708 49.6586 39.3952 49.3588 39.6374C49.2159 39.7504 49.0986 39.8926 49.0146 40.0546C48.9304 40.2164 48.8817 40.394 48.8713 40.576C48.861 40.7582 48.8895 40.9405 48.9548 41.1109C49.0199 41.2812 49.1204 41.4359 49.2497 41.5645L54.7038 47.2184C54.9927 47.4727 55.3645 47.6129 55.7493 47.6129C56.1342 47.6129 56.5058 47.4727 56.7947 47.2184Z" fill="url(#paint0_linear_808_17777)"/>
<defs>
<linearGradient id="paint0_linear_808_17777" x1="69.7764" y1="68.6986" x2="69.7764" y2="10" gradientUnits="userSpaceOnUse">
<stop stop-color="#002D85"/>
<stop offset="1" stop-color="#013AA9"/>
</linearGradient>
</defs>
</svg>
