<svg width="81" height="80" viewBox="0 0 81 80" fill="none" xmlns="http://www.w3.org/2000/svg">
<path fill-rule="evenodd" clip-rule="evenodd" d="M40.0108 69.8544C32.7013 67.9089 22.7715 62.5818 16.8757 53.6727C10.6722 44.2642 12.2786 19.0431 12.3741 17.5432L12.3763 17.5093L12.4625 16.2726L40.5624 10L68.6623 16.2726V17.5093C68.6623 17.5958 68.6731 17.8361 68.69 18.2101C68.8858 22.5545 69.8943 44.9341 64.1801 53.6727C58.2671 62.6182 48.3373 67.9089 41.0279 69.8544L40.4762 70L40.0108 69.8544ZM16.1 18.9453V19.4909C15.9793 22 15.0656 44.2002 20.1684 51.9456C26.5469 61.6184 37.2008 65.4364 40.3211 66.3636L40.5796 66.4547L40.8382 66.3636C43.9585 65.4364 54.6296 61.6184 60.9909 51.9456C66.1626 44.2002 65.18 22 65.0593 19.4909V18.9453L40.5969 13.4908L16.1 18.9453ZM38.1351 41.3818L29.3536 53.3275L31.408 60.0546L41.6263 46.1638L38.1351 41.3818ZM50.2088 22.8547C50.2108 22.1073 50.0688 21.3665 49.7906 20.6729L49.9179 20.6365C50.9756 21.4355 51.8379 22.4645 52.4396 23.6456C53.0412 24.8269 53.3665 26.1295 53.3907 27.4547C53.3868 29.2471 52.7996 30.9893 51.7179 32.4184L46.2634 39.7998L42.7725 35.0182L48.9907 26.4911C49.7823 25.4442 50.2103 24.1673 50.2088 22.8547ZM32.6448 32.4547L52.8448 60.0546L54.8993 53.3275L35.2448 26.4547C34.4529 25.4078 34.0253 24.1309 34.0266 22.8184C34.0264 22.0711 34.1682 21.3307 34.4448 20.6365C33.39 21.4384 32.5299 22.4678 31.9286 23.6484C31.3271 24.8289 31.0002 26.1302 30.972 27.4547C30.9839 29.2456 31.57 30.9856 32.6448 32.4184V32.4547ZM36.4629 23.6182C36.4451 23.364 36.4451 23.1089 36.4629 22.8547H36.3902C36.6064 21.5107 37.2944 20.2876 38.3305 19.4047C39.3667 18.5219 40.6835 18.0371 42.0447 18.0371C43.406 18.0371 44.7227 18.5219 45.7589 19.4047C46.7951 20.2876 47.4831 21.5107 47.6993 22.8547C47.7262 23.1085 47.7262 23.3643 47.6993 23.6182L47.5356 23.3456C46.9027 22.4956 46.08 21.8051 45.1329 21.3294C44.1858 20.8538 43.1409 20.606 42.0811 20.606C41.0213 20.606 39.9762 20.8538 39.0293 21.3294C38.0822 21.8051 37.2593 22.4956 36.6266 23.3456L36.4629 23.6182Z" fill="url(#paint0_linear_720_18941)"/>
<defs>
<linearGradient id="paint0_linear_720_18941" x1="13.6891" y1="10" x2="74.0225" y2="31.9301" gradientUnits="userSpaceOnUse">
<stop stop-color="#002D85"/>
<stop offset="1" stop-color="#DE0000"/>
</linearGradient>
</defs>
</svg>
