<svg width="80" height="80" viewBox="0 0 80 80" fill="none" xmlns="http://www.w3.org/2000/svg">
<path fill-rule="evenodd" clip-rule="evenodd" d="M17.4048 53.6727C23.0439 62.5818 32.5411 67.9089 39.5322 69.8544L39.9774 70L40.505 69.8544C47.4961 67.9089 56.9933 62.6182 62.6488 53.6727C68.1142 44.9341 67.1495 22.5545 66.9623 18.2101L66.9623 18.2098C66.9462 17.836 66.9358 17.5958 66.9358 17.5093V16.2726L40.0598 10L13.1838 16.2726L13.1014 17.5093L13.0993 17.5432C13.008 19.0431 11.4715 44.2642 17.4048 53.6727ZM16.6629 19.4909V18.9453L40.0928 13.4908L63.4898 18.9453V19.4909C63.6052 22 64.545 44.2002 59.5985 51.9456C53.5143 61.6184 43.308 65.4364 40.3236 66.3636L40.0763 66.4547L39.829 66.3636C36.8446 65.4364 26.6548 61.6184 20.5541 51.9456C15.6736 44.2002 16.5474 22 16.6629 19.4909ZM47.9069 25.3454C47.9069 29.4 44.3619 32.7091 40.009 32.7091C35.6395 32.6182 32.0946 29.3273 32.0946 25.3454C32.0946 21.3636 35.656 18.0726 40.009 18.0726C44.3619 18.0726 47.9069 21.2909 47.9069 25.3454ZM42.3549 19.5676C41.5899 19.3416 40.7892 19.3027 40.009 19.4545C36.5134 19.4545 33.6774 22.0909 33.6774 25.3454C33.6774 28.6 36.5134 31.2362 40.009 31.2362C40.7892 31.388 41.5899 31.3496 42.3549 31.1234C43.1201 30.8974 43.8311 30.4896 44.4379 29.9282C45.0448 29.3667 45.5327 28.6654 45.8674 27.8738C46.2023 27.0822 46.3758 26.2189 46.3758 25.3454C46.3758 24.4718 46.2023 23.6091 45.8674 22.8174C45.5327 22.0258 45.0448 21.3245 44.4379 20.7631C43.8311 20.2016 43.1201 19.7938 42.3549 19.5676ZM40.7925 37.8547H39.2093V39.3274H40.7925V37.8547ZM45.4828 32.7091H47.0985C51.4679 32.7091 55.0131 35.9273 55.0131 39.9818V48.8184C54.9129 49.8735 54.4433 50.8435 53.7043 51.5225C52.9651 52.2016 52.015 52.5364 51.0559 52.4547H48.6816V59.0727H31.3192V52.4547H28.9449C27.9857 52.5364 27.0355 52.2016 26.2965 51.5225C25.5575 50.8435 25.0879 49.8735 24.9878 48.8184V39.9818C24.9878 36 28.5327 32.7091 32.9021 32.7091H34.5509C34.6996 32.7082 34.8464 32.7456 34.9798 32.8184C36.3279 33.5798 37.8042 34.0255 39.3162 34.1273C41.3006 34.2649 43.282 33.8129 45.054 32.8184C45.1874 32.7456 45.3341 32.7082 45.4828 32.7091ZM33.1989 34.182H32.9021H32.8528C31.5726 34.1702 30.3132 34.5406 29.2089 35.2544L38.0631 51.1093H42.6468L33.1989 34.182ZM44.3781 51.1093H44.6914C44.9808 51.1596 45.2766 51.14 45.5587 51.052C45.8406 50.9642 46.102 50.8102 46.3247 50.6002C46.5475 50.3902 46.7264 50.1293 46.8491 49.8358C46.9716 49.5424 47.0352 49.2233 47.0352 48.9C47.0352 48.5769 46.9716 48.2578 46.8491 47.9644C46.7264 47.6709 46.5475 47.41 46.3247 47.2C46.102 46.99 45.8406 46.836 45.5587 46.748C45.2766 46.6602 44.9808 46.6405 44.6914 46.6909H41.9214L44.3781 51.1093ZM27.2942 50.5395C27.7389 50.9549 28.3144 51.1596 28.8956 51.1093H36.3153L33.8421 46.6909H31.3029V45.2184H32.9517L28.0052 36.2727C27.0812 37.2709 26.5483 38.6285 26.5213 40.0545V48.8907C26.5715 49.5311 26.8494 50.1238 27.2942 50.5395ZM32.8528 52.5816V57.7273H47.0492V51.8364C46.3424 52.3244 45.5252 52.5826 44.6914 52.5816H32.8528ZM52.6035 50.5336C53.0472 50.1191 53.3262 49.5293 53.3806 48.8907L53.4632 40.0911C53.4726 39.3807 53.3451 38.6762 53.0894 38.0244C52.8335 37.3724 52.4551 36.7876 51.9792 36.3091C51.3421 35.6162 50.5837 35.0736 49.7504 34.7142C48.917 34.3547 48.026 34.186 47.1317 34.2184H45.7961L44.7079 34.6729C41.647 35.9778 38.2548 35.9778 35.1941 34.6729L41.0969 45.2544H44.6914C45.6505 45.1729 46.6008 45.5075 47.3398 46.1866C48.0788 46.8656 48.5482 47.8356 48.6484 48.8907C48.6361 49.7146 48.3484 50.5049 47.8405 51.1093H51.0063C51.5865 51.1549 52.1596 50.9482 52.6035 50.5336Z" fill="url(#paint0_linear_720_18947)"/>
<defs>
<linearGradient id="paint0_linear_720_18947" x1="14.357" y1="10" x2="72.6421" y2="30.2628" gradientUnits="userSpaceOnUse">
<stop stop-color="#002D85"/>
<stop offset="1" stop-color="#DE0000"/>
</linearGradient>
</defs>
</svg>
