<svg width="81" height="80" viewBox="0 0 81 80" fill="none" xmlns="http://www.w3.org/2000/svg">
<path fill-rule="evenodd" clip-rule="evenodd" d="M39.9065 69.8544C32.597 67.9089 22.6673 62.5818 16.7715 53.6727C10.5679 44.2642 12.1743 19.0431 12.2699 17.5432L12.272 17.5093L12.3582 16.2726L40.4581 10L68.558 16.2726V17.5093C68.558 17.5958 68.5689 17.8361 68.5857 18.2101C68.7815 22.5545 69.79 44.9341 64.0758 53.6727C58.1628 62.6182 48.233 67.9089 40.9236 69.8544L40.3719 70L39.9065 69.8544ZM15.9957 18.9453V19.4909C15.875 22 14.9613 44.2002 20.0641 51.9456C26.4426 61.6184 37.0965 65.4364 40.2168 66.3636L40.4754 66.4547L40.734 66.3636C43.8543 65.4364 54.5253 61.6184 60.8866 51.9456C66.0583 44.2002 65.0757 22 64.955 19.4909V18.9453L40.4926 13.4908L15.9957 18.9453ZM38.0308 41.3818L29.2493 53.3275L31.3037 60.0546L41.5221 46.1638L38.0308 41.3818ZM50.1046 22.8547C50.1066 22.1073 49.9646 21.3665 49.6864 20.6729L49.8136 20.6365C50.8713 21.4355 51.7336 22.4645 52.3353 23.6456C52.9369 24.8269 53.2622 26.1295 53.2864 27.4547C53.2826 29.2471 52.6953 30.9893 51.6136 32.4184L46.1591 39.7998L42.6682 35.0182L48.8864 26.4911C49.678 25.4442 50.106 24.1673 50.1046 22.8547ZM32.5405 32.4547L52.7405 60.0546L54.795 53.3275L35.1405 26.4547C34.3487 25.4078 33.921 24.1309 33.9223 22.8184C33.9221 22.0711 34.0639 21.3307 34.3405 20.6365C33.2858 21.4384 32.4256 22.4678 31.8243 23.6484C31.2229 24.8289 30.8959 26.1302 30.8678 27.4547C30.8796 29.2456 31.4658 30.9856 32.5405 32.4184V32.4547ZM36.3586 23.6182C36.3408 23.364 36.3408 23.1089 36.3586 22.8547H36.2859C36.5021 21.5107 37.1901 20.2876 38.2263 19.4047C39.2625 18.5219 40.5792 18.0371 41.9405 18.0371C43.3017 18.0371 44.6185 18.5219 45.6546 19.4047C46.6908 20.2876 47.3788 21.5107 47.595 22.8547C47.6219 23.1085 47.6219 23.3643 47.595 23.6182L47.4314 23.3456C46.7985 22.4956 45.9757 21.8051 45.0286 21.3294C44.0815 20.8538 43.0366 20.606 41.9768 20.606C40.917 20.606 39.8719 20.8538 38.925 21.3294C37.9779 21.8051 37.155 22.4956 36.5223 23.3456L36.3586 23.6182Z" fill="url(#paint0_linear_808_17789)"/>
<defs>
<linearGradient id="paint0_linear_808_17789" x1="67.7627" y1="68.6986" x2="67.7627" y2="10" gradientUnits="userSpaceOnUse">
<stop stop-color="#002D85"/>
<stop offset="1" stop-color="#013AA9"/>
</linearGradient>
</defs>
</svg>
