<svg width="81" height="80" viewBox="0 0 81 80" fill="none" xmlns="http://www.w3.org/2000/svg">
<path d="M43.6073 51.6452C37.6348 49.7441 32.5528 45.7445 29.3011 40.3863C25.4384 33.7911 26.4399 15.98 26.5257 15.2217V14.3634L43.9506 10L61.3755 14.3634V15.2217C61.3755 15.98 62.4628 33.8197 58.6001 40.3863C55.3484 45.7445 50.2664 49.7441 44.2939 51.6452L43.9506 51.7453L43.6073 51.6452ZM28.7861 16.2375V16.6094C28.7145 18.3548 28.1566 33.7768 31.3183 39.1845C34.2059 43.8596 38.6167 47.3963 43.8075 49.1989H43.9649H44.1223C49.3131 47.3963 53.724 43.8596 56.6115 39.1845C59.7732 33.8054 59.2153 18.3548 59.1437 16.6094V16.2375L43.9506 12.432L28.7861 16.2375ZM49.0436 20.5293C48.0476 20.5264 47.0656 20.7642 46.1814 21.2225C45.2971 21.6809 44.5367 22.3461 43.9649 23.1617C43.2027 22.0853 42.1181 21.2789 40.8678 20.8589C39.6175 20.4389 38.2661 20.427 37.0086 20.8249C35.7511 21.2229 34.6526 22.0101 33.8715 23.0729C33.0904 24.1357 32.6673 25.4192 32.663 26.7382C32.661 27.7347 32.9016 28.7167 33.364 29.5994H31.9334C31.7682 29.6326 31.6195 29.722 31.5127 29.8524C31.4059 29.9828 31.3476 30.1462 31.3476 30.3147C31.3476 30.4833 31.4059 30.6466 31.5127 30.777C31.6195 30.9074 31.7682 30.9968 31.9334 31.03H34.3655L43.4499 40.0429C43.5866 40.1792 43.7718 40.2557 43.9649 40.2557C44.158 40.2557 44.3432 40.1792 44.4799 40.0429L53.4499 31.073H56.0107C56.1166 31.0942 56.2259 31.0918 56.3307 31.0657C56.4355 31.0396 56.5332 30.9906 56.6168 30.9221C56.7003 30.8537 56.7676 30.7675 56.8139 30.6699C56.8601 30.5723 56.8841 30.4657 56.8841 30.3577C56.8841 30.2496 56.8601 30.143 56.8139 30.0454C56.7676 29.9478 56.7003 29.8616 56.6168 29.7932C56.5332 29.7248 56.4355 29.6757 56.3307 29.6496C56.2259 29.6236 56.1166 29.6211 56.0107 29.6423H54.5801C55.052 28.762 55.3024 27.7799 55.3097 26.7811C55.3059 25.1356 54.6505 23.5585 53.487 22.395C52.3234 21.2314 50.7463 20.576 49.1008 20.5722L49.0436 20.5293ZM43.9649 38.5265L36.4828 31.0587H39.4299C39.5828 31.0596 39.732 31.0115 39.8556 30.9213C39.9792 30.8312 40.0707 30.7039 40.1166 30.5579L40.9892 27.9685L43.2782 33.691C43.3339 33.8233 43.4275 33.9362 43.5471 34.0156C43.6667 34.095 43.807 34.1374 43.9506 34.1374C44.0942 34.1374 44.2345 34.095 44.3541 34.0156C44.4737 33.9362 44.5673 33.8233 44.623 33.691L46.9549 28.6123L47.8133 30.5722C47.873 30.7002 47.968 30.8086 48.0871 30.8846C48.2061 30.9606 48.3444 31.0011 48.4857 31.0014H51.3469L43.9649 38.5265ZM52.7918 29.6423H48.9578L47.6416 26.6381C47.5839 26.5099 47.4904 26.4012 47.3724 26.3249C47.2544 26.2487 47.1169 26.2081 46.9764 26.2081C46.8358 26.2081 46.6983 26.2487 46.5803 26.3249C46.4623 26.4012 46.3688 26.5099 46.3111 26.6381L44.0078 31.6452L41.6187 25.5937C41.304 24.8498 40.5743 24.8355 40.1881 25.5937L38.8433 29.5708H35.0808C34.5487 28.8658 34.2237 28.0264 34.1424 27.1468C34.0611 26.2673 34.2267 25.3825 34.6205 24.5919C35.0143 23.8012 35.6208 23.1361 36.3718 22.6712C37.1228 22.2062 37.9886 21.9599 38.8719 21.9599C39.8159 21.9748 40.7352 22.2641 41.5176 22.7924C42.3 23.3208 42.9118 24.0655 43.2782 24.9356C43.6073 25.6366 44.2653 25.7368 44.6373 24.9356C45.0052 24.0666 45.6173 23.3229 46.3994 22.7947C47.1815 22.2666 48.1 21.9766 49.0436 21.9599C50.3033 21.9599 51.5114 22.4603 52.4021 23.3511C53.2928 24.2418 53.7932 25.4499 53.7932 26.7096C53.7841 27.7477 53.432 28.7536 52.7918 29.5708V29.6423ZM65.6673 53.7911C64.8758 53.5119 64.0125 53.5119 63.221 53.7911L59.5872 54.9356L56.0965 56.0229L51.8905 57.3391C52.022 56.8108 52.0429 56.2611 51.9518 55.7244C51.8607 55.1877 51.6596 54.6756 51.3612 54.2203C51.0002 53.6907 50.5162 53.2565 49.9506 52.955C49.3849 52.6535 48.7546 52.4937 48.1137 52.4893H40.8032L33.6502 47.7253C32.8957 47.2248 32.009 46.9608 31.1037 46.9671H23.9506V46.0372C23.9506 45.7944 23.8541 45.5615 23.6824 45.3898C23.5107 45.2181 23.2778 45.1216 23.035 45.1216H13.8218C13.579 45.1216 13.3461 45.2181 13.1744 45.3898C13.0027 45.5615 12.9062 45.7944 12.9062 46.0372V66.309C12.9099 66.5507 13.0076 66.7814 13.1785 66.9524C13.3494 67.1233 13.5802 67.2209 13.8218 67.2246H23.035C23.2791 67.2208 23.512 67.1212 23.6833 66.9472C23.8546 66.7732 23.9506 66.5389 23.9506 66.2947V64.8641L36.5257 69.3276C37.8443 69.7713 39.226 69.9984 40.6173 70H40.8605C42.5809 70.0016 44.2839 69.6562 45.8676 68.9843L65.8962 60.4864C66.5685 60.2052 67.1388 59.7254 67.5308 59.1112C67.9229 58.4969 68.118 57.7776 68.09 57.0494C68.062 56.3213 67.8122 55.6191 67.3741 55.0368C66.9361 54.4545 66.3306 54.0199 65.6387 53.7911H65.6673ZM21.7475 64.4778H15.1094V47.9113H21.7475V64.4778ZM65.2238 58.7554L45.1523 67.2246C43.7962 67.8051 42.3356 68.1021 40.8605 68.0973H40.6173C39.4314 68.0982 38.253 67.9099 37.1266 67.5393L23.9506 62.9328V48.8269H31.1037C31.6496 48.8278 32.1828 48.9922 32.6344 49.299L39.9878 54.206C40.1427 54.3008 40.3212 54.3504 40.5028 54.3491H48.128C48.4628 54.3519 48.7918 54.4368 49.0862 54.5965C49.3805 54.7561 49.6312 54.9855 49.8161 55.2647C50.0211 55.5646 50.1413 55.9144 50.164 56.277C50.1866 56.6396 50.1109 57.0016 49.9449 57.3247L49.7017 57.8255C49.6185 57.9919 49.5126 58.146 49.3869 58.2833H49.3011C49.2162 58.3759 49.1201 58.4576 49.015 58.5265L48.829 58.6266L48.5429 58.7554H48.3712C48.205 58.7773 48.0367 58.7773 47.8705 58.7554H34.0794V60.6009H47.8848C48.1132 60.6219 48.3431 60.6219 48.5715 60.6009H48.7145C48.9162 60.5601 49.1128 60.4978 49.3011 60.4149C49.7433 60.2434 50.1469 59.9856 50.4885 59.6566L58.4141 57.2103L59.9163 56.7382L63.8361 55.5222C64.2302 55.387 64.6581 55.387 65.0522 55.5222C65.4107 55.6352 65.7235 55.8601 65.9449 56.1639C66.1663 56.4677 66.2846 56.8344 66.2825 57.2103C66.282 57.548 66.1811 57.878 65.9926 58.1582C65.8041 58.4384 65.5365 58.6563 65.2238 58.784V58.7554Z" fill="url(#paint0_linear_720_19050)"/>
<defs>
<linearGradient id="paint0_linear_720_19050" x1="14.4335" y1="10" x2="73.4676" y2="30.8614" gradientUnits="userSpaceOnUse">
<stop stop-color="#002D85"/>
<stop offset="1" stop-color="#DE0000"/>
</linearGradient>
</defs>
</svg>
