<svg width="81" height="80" viewBox="0 0 81 80" fill="none" xmlns="http://www.w3.org/2000/svg">
<path d="M57.3198 69.9288C53.1398 68.5786 49.5812 65.7239 47.3047 61.8946C44.6033 57.1921 45.3299 44.4892 45.3618 43.9499L45.3994 43.3348L57.556 40.2224L69.7129 43.3348L69.7491 43.9499C69.7809 44.4892 70.5088 57.1919 67.8061 61.8961C65.5292 65.7245 61.9706 68.5788 57.7909 69.9288L57.556 70L57.3198 69.9288ZM46.9741 44.667L46.9623 44.9384C46.9102 46.1819 46.5187 57.201 48.7257 61.0424C50.7359 64.385 53.8151 66.9141 57.4416 68.2008L57.556 68.2393L57.6692 68.2008C61.2957 66.9146 64.3751 64.3854 66.3851 61.0424C68.5919 57.201 68.2005 46.1819 68.1483 44.9384L68.1367 44.667L57.5519 41.9581L46.9741 44.667ZM66.562 48.2879C66.4427 48.153 66.2982 48.0435 66.1375 47.9657C65.9765 47.8877 65.8023 47.843 65.6244 47.8341C65.4467 47.8252 65.2689 47.8521 65.1013 47.9134C64.934 47.9746 64.7798 48.0692 64.648 48.1914L57.056 55.2195C56.924 55.3418 56.77 55.4361 56.6025 55.4974C56.4349 55.5586 56.2571 55.5857 56.0794 55.5768C55.9017 55.5679 55.7273 55.523 55.5663 55.4452C55.4056 55.3674 55.2614 55.258 55.142 55.1231L51.8953 51.4594C51.6539 51.1873 51.3167 51.0243 50.9579 51.0063C50.5989 50.9883 50.2476 51.1166 49.9814 51.3632C49.8494 51.485 49.742 51.6323 49.6656 51.7968C49.5895 51.9611 49.5456 52.1392 49.5367 52.3211C49.5278 52.5028 49.5541 52.6844 49.6141 52.8557C49.6739 53.027 49.7662 53.1845 49.8858 53.3194L54.9518 59.0357C55.1931 59.308 55.5301 59.4712 55.8891 59.4894C56.248 59.5079 56.5993 59.38 56.866 59.1336L66.4677 50.2412C66.7329 49.9945 66.8918 49.6505 66.9094 49.2843C66.9272 48.9183 66.8022 48.5599 66.562 48.2879ZM19.9592 20.2532V12.0512C19.9592 11.5072 20.1709 10.9855 20.5472 10.6008C20.9236 10.2161 21.434 10 21.9661 10C22.4985 10 23.0089 10.2161 23.3852 10.6008C23.7616 10.9855 23.9728 11.5072 23.9728 12.0512V20.2532C23.9728 20.7971 23.7616 21.3189 23.3852 21.7035C23.0089 22.0881 22.4985 22.3041 21.9661 22.3041C21.434 22.3041 20.9236 22.0881 20.5472 21.7035C20.1709 21.3189 19.9592 20.7971 19.9592 20.2532ZM54.0632 22.3041C54.3268 22.3043 54.5877 22.2516 54.8314 22.1486C55.0749 22.0455 55.2961 21.8943 55.4825 21.7039C55.6689 21.5134 55.8169 21.2872 55.9176 21.0383C56.0184 20.7892 56.0699 20.5226 56.0697 20.2532V12.0512C56.0697 11.5074 55.8585 10.9859 55.4823 10.6014C55.1062 10.2168 54.596 10.0009 54.0638 10.0009C53.5319 10.0009 53.0215 10.2168 52.6453 10.6014C52.2692 10.9859 52.0578 11.5074 52.0578 12.0512V20.2532C52.0576 20.5223 52.1093 20.789 52.21 21.0379C52.3106 21.2868 52.4585 21.5128 52.6447 21.7033C52.8309 21.8939 53.0519 22.0449 53.2952 22.1479C53.5387 22.2512 53.7996 22.3041 54.0632 22.3041ZM27.9835 34.6054H19.9592V42.8072H27.9835V34.6054ZM19.9592 55.1097H27.9835V46.9066H19.9592V55.1097ZM31.9942 42.8086H40.0185V34.6068H31.9942V42.8086ZM31.9942 55.1097H40.0185V46.9066H31.9942V55.1097ZM15.9456 58.8017V30.5059H60.0791V38.7063H64.0913V22.7103C64.0958 22.1221 63.987 21.5386 63.7708 20.9937C63.5546 20.4485 63.2354 19.9523 62.8313 19.5334C62.4272 19.1144 61.9464 18.7811 61.4161 18.5525C60.8858 18.3237 60.3169 18.2041 59.7413 18.2003H58.0693V20.2515C58.0693 21.339 57.6467 22.3823 56.8942 23.1514C56.1419 23.9204 55.1213 24.3524 54.0572 24.3524C52.9931 24.3524 51.9727 23.9204 51.2203 23.1514C50.468 22.3823 50.0453 21.339 50.0453 20.2515V18.2003H25.9751V20.2515C25.9751 21.339 25.5525 22.3823 24.8002 23.1514C24.0477 23.9204 23.0273 24.3524 21.9632 24.3524C20.8991 24.3524 19.8785 23.9204 19.1262 23.1514C18.3738 22.3823 17.9511 21.339 17.9511 20.2515V18.2003H16.2806C15.7052 18.2043 15.1362 18.3241 14.6062 18.5529C14.0759 18.7817 13.5951 19.1148 13.1912 19.5338C12.7871 19.9526 12.4679 20.4487 12.2517 20.9937C12.0353 21.5388 11.9262 22.1221 11.9308 22.7103V58.8017C11.9229 59.9891 12.3767 61.131 13.1925 61.9768C14.008 62.8223 15.1189 63.3026 16.2806 63.3114H40.0185V59.2108H16.2806C16.1844 59.1992 16.0958 59.1501 16.0336 59.074C15.9713 58.9981 15.9398 58.9006 15.9456 58.8017Z" fill="url(#paint0_linear_808_17802)"/>
<defs>
<linearGradient id="paint0_linear_808_17802" x1="68.8254" y1="68.6986" x2="68.8254" y2="10" gradientUnits="userSpaceOnUse">
<stop stop-color="#002D85"/>
<stop offset="1" stop-color="#013AA9"/>
</linearGradient>
</defs>
</svg>
