<svg width="81" height="80" viewBox="0 0 81 80" fill="none" xmlns="http://www.w3.org/2000/svg">
<path d="M62.2298 34.8522V18.6739C62.2298 17.368 61.7106 16.1155 60.7864 15.1922C59.8622 14.2688 58.6088 13.75 57.3017 13.75H15.4281C14.121 13.75 12.8676 14.2688 11.9434 15.1922C11.0192 16.1155 10.5 17.368 10.5 18.6739V54.5476C10.5 55.8535 11.0192 57.1058 11.9434 58.0293C12.8676 58.9527 14.121 59.4715 15.4281 59.4715H40.068C41.5633 61.4716 43.4843 63.1156 45.6923 64.2847C47.9001 65.4539 50.34 66.1192 52.8364 66.2326C55.3326 66.346 57.823 65.9048 60.1279 64.9409C62.433 63.9768 64.4953 62.5139 66.1663 60.6576C67.8373 58.8012 69.0754 56.5977 69.7915 54.2058C70.5075 51.8136 70.6836 49.2927 70.3071 46.8246C69.9306 44.3564 69.0109 42.0023 67.614 39.932C66.2173 37.8618 64.3785 36.1268 62.2298 34.8522ZM13.0907 54.5476V29.6892L19.7927 33.2626V33.361C19.7873 33.6751 19.8437 33.9871 19.9588 34.2794C20.0739 34.5717 20.2457 34.8385 20.4639 35.0645C20.9049 35.5208 21.5093 35.7835 22.1441 35.7948C22.779 35.806 23.3921 35.5647 23.8491 35.1241C24.0752 34.906 24.2561 34.6454 24.3816 34.3574C24.507 34.0694 24.5745 33.7594 24.5799 33.4454L29.5361 30.8427C29.9488 31.3146 30.5321 31.6034 31.158 31.6456C31.7837 31.6879 32.4006 31.48 32.8731 31.0679C32.992 30.9372 33.0915 30.7904 33.1688 30.6318L35.337 31.2929L36.7451 31.729C36.7693 32.3558 37.0418 32.9474 37.5026 33.3736C37.9633 33.7996 38.5746 34.0253 39.202 34.0011C39.8293 33.9768 40.4215 33.7045 40.8478 33.2442C41.2742 32.7839 41.5001 32.173 41.476 31.5462C41.4853 31.2353 41.4375 30.9254 41.3351 30.6318L45.7703 26.4113C46.2958 26.7535 46.9354 26.8746 47.5496 26.7481C48.1641 26.6217 48.7035 26.2579 49.051 25.7361C49.2923 25.3709 49.4269 24.9456 49.4393 24.508C49.4516 24.0706 49.3416 23.6384 49.1213 23.26L51.8106 20.7841V21.3327C51.8106 21.5418 51.8936 21.742 52.0416 21.8898C52.1893 22.0375 52.39 22.1206 52.599 22.1206C52.8083 22.1206 53.0087 22.0375 53.1566 21.8898C53.3046 21.742 53.3877 21.5418 53.3877 21.3327V19.0114C53.3877 18.8026 53.3046 18.6021 53.1566 18.4544C53.0087 18.3066 52.8083 18.2238 52.599 18.2238H50.2337C50.0245 18.2238 49.824 18.3066 49.6761 18.4544C49.5283 18.6021 49.4453 18.8026 49.4453 19.0114C49.4453 19.2205 49.5283 19.4208 49.6761 19.5685C49.824 19.7163 50.0245 19.7993 50.2337 19.7993H50.6138L47.9245 22.3315C47.6306 22.2214 47.3179 22.1704 47.0042 22.1817C46.6905 22.1928 46.3821 22.2659 46.0967 22.3966C45.8115 22.5274 45.5548 22.7133 45.3418 22.9435C45.1286 23.1738 44.9633 23.4439 44.8551 23.7383C44.6723 24.2429 44.6723 24.7954 44.8551 25.3L40.2932 29.5908C39.7916 29.3307 39.2134 29.2587 38.6635 29.3877C38.1133 29.5169 37.6275 29.8383 37.2941 30.2941L35.3794 29.7173L33.6334 29.2249C33.5753 28.6274 33.2929 28.0739 32.8431 27.6756C32.3933 27.2774 31.8094 27.064 31.2086 27.0783C30.6077 27.0925 30.0347 27.3333 29.6042 27.7523C29.1739 28.1716 28.9181 28.7378 28.8885 29.3374V29.4359L24.0591 31.9542C23.9616 31.8149 23.8481 31.6874 23.721 31.5743C23.4864 31.366 23.2127 31.2063 22.9157 31.1046C22.6187 31.003 22.3044 30.9614 21.9913 30.9824C21.6782 31.0034 21.3722 31.0864 21.0915 31.2267C20.8106 31.3669 20.5607 31.5616 20.3559 31.7995L13.0907 27.9869V18.6739C13.0944 18.0556 13.3418 17.4638 13.7794 17.0266C14.2168 16.5895 14.8093 16.3422 15.4281 16.3386H57.3017C57.9205 16.3422 58.513 16.5895 58.9504 17.0266C59.388 17.4638 59.6353 18.0556 59.6391 18.6739V33.5298C57.6409 32.7149 55.5036 32.2945 53.3453 32.2919C49.3052 32.3009 45.402 33.7564 42.3435 36.394C39.2852 39.0318 37.2739 42.6773 36.6746 46.6694H35.6327V43.5464C35.6492 43.4101 35.6366 43.2717 35.5958 43.1406C35.5547 43.0096 35.4865 42.8886 35.3953 42.7859C35.3042 42.6831 35.1923 42.6008 35.0668 42.5444C34.9416 42.4881 34.8056 42.4589 34.6682 42.4589C34.5308 42.4589 34.395 42.4881 34.2696 42.5444C34.1443 42.6008 34.0324 42.6831 33.9413 42.7859C33.85 42.8886 33.7817 43.0096 33.7408 43.1406C33.7 43.2717 33.6872 43.4101 33.7037 43.5464V46.6694H32.5915C32.1583 46.6694 31.7428 46.8413 31.4366 47.1473C31.1303 47.4535 30.9581 47.8685 30.9581 48.3014V54.0271C30.9581 54.4598 31.1303 54.875 31.4366 55.181C31.7428 55.487 32.1583 55.6589 32.5915 55.6589H33.7037V56.8548H19.2859V53.6472H20.3559C20.5729 53.651 20.7883 53.6116 20.9897 53.5311C21.1911 53.4509 21.3744 53.3313 21.5291 53.1794C21.6838 53.0273 21.8066 52.8462 21.8904 52.6463C21.9743 52.4465 22.0174 52.232 22.0174 52.0154V46.3036C22.0138 46.0893 21.9679 45.8778 21.8824 45.6813C21.7969 45.4848 21.6735 45.3068 21.5192 45.158C21.3649 45.0089 21.1828 44.8919 20.9831 44.8133C20.7836 44.7348 20.5704 44.6961 20.3559 44.6999H19.2859V42.0269C19.2859 41.8994 19.2608 41.7732 19.212 41.6555C19.1631 41.5377 19.0916 41.4306 19.0013 41.3406C18.9111 41.2505 18.804 41.179 18.6863 41.1301C18.5683 41.0813 18.4419 41.0562 18.3144 41.0562C18.1868 41.0562 18.0604 41.0813 17.9426 41.1301C17.8247 41.179 17.7176 41.2505 17.6274 41.3406C17.5373 41.4306 17.4656 41.5377 17.4169 41.6555C17.3679 41.7732 17.3428 41.8994 17.3428 42.0269V44.6999H16.2446C15.8115 44.6999 15.396 44.8718 15.0898 45.1778C14.7834 45.4838 14.6113 45.899 14.6113 46.3319V52.0154C14.6113 52.4481 14.7834 52.8633 15.0898 53.1693C15.396 53.4753 15.8115 53.6472 16.2446 53.6472H17.3428V56.8548H15.4281C14.8129 56.8548 14.2226 56.6127 13.7852 56.1807C13.3476 55.7489 13.0982 55.162 13.0907 54.5476ZM21.3698 33.4454C21.3698 33.2896 21.4161 33.1373 21.5027 33.0078C21.5893 32.8782 21.7123 32.7771 21.8565 32.7175C22.0005 32.6579 22.1591 32.6423 22.3119 32.6727C22.4649 32.7031 22.6056 32.7781 22.7158 32.8883C22.8261 32.9986 22.9011 33.1388 22.9314 33.2916C22.962 33.4444 22.9463 33.6029 22.8866 33.7469C22.827 33.8909 22.7259 34.0139 22.5962 34.1005C22.4666 34.1869 22.3142 34.2333 22.1582 34.2333C22.0472 34.2338 21.9371 34.211 21.8357 34.1663C21.7341 34.1215 21.6429 34.0559 21.5685 33.9734C21.4941 33.8911 21.4378 33.7939 21.4037 33.6884C21.3694 33.5828 21.3578 33.4713 21.3698 33.361V33.4454ZM30.4654 29.2249C30.4691 29.0148 30.5552 28.8143 30.7054 28.6669C30.8556 28.5196 31.0575 28.4371 31.2679 28.4371C31.4771 28.4371 31.6776 28.5201 31.8255 28.6679C31.9733 28.8156 32.0565 29.0161 32.0565 29.2249C32.0565 29.4338 31.9733 29.6343 31.8255 29.782C31.6776 29.9298 31.4771 30.0128 31.2679 30.0128C31.0575 30.0128 30.8556 29.9303 30.7054 29.7829C30.5552 29.6356 30.4691 29.4351 30.4654 29.2249ZM38.3783 31.5884C38.3783 31.4326 38.4246 31.2803 38.5112 31.1508C38.5978 31.0212 38.721 30.9201 38.865 30.8605C39.0092 30.8009 39.1676 30.7853 39.3206 30.8157C39.4736 30.8461 39.6141 30.9211 39.7243 31.0313C39.8346 31.1416 39.9098 31.2818 39.9401 31.4346C39.9705 31.5874 39.955 31.7459 39.8953 31.8899C39.8355 32.0339 39.7345 32.1569 39.6049 32.2435C39.4751 32.3299 39.3227 32.3763 39.1669 32.3763C38.967 32.3766 38.7746 32.3014 38.6282 32.1657C38.482 32.0299 38.3925 31.8438 38.3783 31.6446V31.5884ZM46.2773 24.484C46.2773 24.3282 46.3234 24.1759 46.41 24.0464C46.4966 23.9168 46.6198 23.8158 46.764 23.7561C46.908 23.6965 47.0665 23.6809 47.2195 23.7113C47.3725 23.7417 47.5129 23.8167 47.6231 23.9269C47.7334 24.037 47.8086 24.1774 47.839 24.3303C47.8693 24.4831 47.8538 24.6415 47.7941 24.7855C47.7345 24.9295 47.6335 25.0525 47.5037 25.1389C47.3741 25.2256 47.2215 25.2719 47.0657 25.2719C46.866 25.2723 46.6735 25.1971 46.5272 25.0613C46.3808 24.9256 46.2915 24.7394 46.2773 24.5403V24.484ZM37.083 53.5769V54.0271C37.083 54.1167 37.0474 54.2026 36.984 54.2658C36.9206 54.3291 36.8348 54.3648 36.7451 54.3648H32.5211C32.4315 54.3648 32.3454 54.3291 32.2821 54.2658C32.2187 54.2026 32.1831 54.1167 32.1831 54.0271V48.3014C32.1831 48.2118 32.2187 48.1259 32.2821 48.0625C32.3454 47.9993 32.4315 47.9637 32.5211 47.9637H36.4635C36.4635 48.3576 36.4635 48.7516 36.4635 49.1596C36.4669 50.6534 36.6752 52.1397 37.083 53.5769ZM16.2446 52.3529C16.155 52.3529 16.0691 52.3175 16.0058 52.2541C15.9424 52.1907 15.9068 52.1048 15.9068 52.0154V46.3036C15.9049 46.2582 15.9122 46.2126 15.9283 46.1701C15.9444 46.1275 15.969 46.0887 16.0005 46.0557C16.0322 46.0229 16.0701 45.9968 16.1121 45.979C16.1539 45.961 16.1991 45.9518 16.2446 45.952H20.3559C20.4469 45.9556 20.5328 45.9942 20.5958 46.0598C20.6588 46.1255 20.694 46.2128 20.6938 46.3036V52.0154C20.6938 52.0596 20.6852 52.1035 20.6681 52.1446C20.6513 52.1855 20.6263 52.2228 20.595 52.2541C20.5635 52.2854 20.5264 52.3103 20.4853 52.3272C20.4443 52.3443 20.4004 52.3529 20.3559 52.3529H16.2446ZM35.6327 56.8548V55.6589H36.7451C37.0759 55.6463 37.395 55.5335 37.6603 55.3355C37.8715 55.856 38.0966 56.3624 38.3501 56.8548H35.6327ZM63.1731 59.57C62.9901 57.2487 62.3847 54.1818 60.4416 52.5359H58.372C58.1027 52.5816 57.8263 52.5593 57.5682 52.4708C57.3098 52.3823 57.0778 52.2305 56.8935 52.0295C56.5975 51.5481 56.4011 51.0123 56.3162 50.4537C56.8759 49.8441 57.294 49.1189 57.5412 48.3295C57.864 48.1653 58.1112 47.8831 58.2312 47.5416C58.3827 47.0215 58.4305 46.4765 58.372 45.938V45.7409L58.2169 45.6284H58.1185C58.4845 42.9835 58.1185 41.7456 57.0203 40.8031C55.9901 40.0917 54.7733 39.6991 53.5213 39.6741C52.2696 39.649 51.0379 39.9927 49.9802 40.6623C48.7412 41.5626 48.3047 43.1665 48.5723 45.5721L48.3893 45.6846L48.2201 45.7971V45.9942C48.2121 46.5156 48.3128 47.0331 48.5158 47.5135C48.6353 47.8503 48.8696 48.1341 49.1777 48.3155C49.4143 49.0576 49.8027 49.7427 50.3181 50.3271C50.2416 51.0308 49.9684 51.6987 49.5296 52.2545C49.1095 52.4388 48.6463 52.502 48.192 52.4375H46.2068C44.5131 54.442 43.5503 56.9617 43.4753 59.584C41.3929 57.6134 39.9499 55.0641 39.3332 52.2655C38.7165 49.4669 38.9541 46.5477 40.0155 43.8856C41.077 41.2233 42.9133 38.9405 45.2873 37.3323C47.661 35.7241 50.4632 34.8644 53.3312 34.8644C56.1994 34.8644 59.0014 35.7241 61.3753 37.3323C63.7491 38.9405 65.5855 41.2233 66.6469 43.8856C67.7083 46.5477 67.9461 49.4669 67.3292 52.2655C66.7125 55.0641 65.2697 57.6134 63.1872 59.584L63.1731 59.57ZM24.4251 50.1303H25.5233V52.9439C25.5233 53.2013 25.6256 53.4481 25.8079 53.6301C25.9901 53.8122 26.2373 53.9146 26.4949 53.9146C26.7525 53.9146 26.9996 53.8122 27.1819 53.6301C27.3639 53.4481 27.4663 53.2013 27.4663 52.9439V50.1303H28.5645C28.7803 50.1321 28.9941 50.0913 29.1939 50.0101C29.3938 49.9289 29.5755 49.8089 29.7287 49.6572C29.8817 49.5055 30.0034 49.325 30.0863 49.126C30.1693 48.9271 30.2119 48.7137 30.2119 48.4983V42.7866C30.2119 42.3539 30.0399 41.9388 29.7336 41.6328C29.4272 41.3266 29.0119 41.1546 28.5788 41.1546H27.4804V38.0176C27.4804 37.7601 27.378 37.5132 27.1959 37.3311C27.0137 37.1491 26.7666 37.0469 26.5089 37.0469C26.2513 37.0469 26.0042 37.1491 25.8219 37.3311C25.6397 37.5132 25.5373 37.7601 25.5373 38.0176V41.1546H24.4251C23.9906 41.1546 23.5736 41.3262 23.2652 41.6318C22.9566 41.9375 22.7814 42.3526 22.7777 42.7866V48.4983C22.7814 48.9323 22.9566 49.3475 23.2652 49.6531C23.5736 49.9587 23.9906 50.1303 24.4251 50.1303ZM24.0731 42.7866C24.0767 42.6959 24.1153 42.61 24.1809 42.547C24.2466 42.484 24.3341 42.449 24.4251 42.449H28.5645C28.6541 42.449 28.7402 42.4846 28.8036 42.548C28.8669 42.6111 28.9026 42.697 28.9026 42.7866V48.4983C28.9026 48.5892 28.8675 48.6766 28.8045 48.7422C28.7415 48.8076 28.6554 48.8465 28.5645 48.85H24.4251C24.3317 48.85 24.2423 48.8129 24.1763 48.7471C24.1103 48.6811 24.0731 48.5916 24.0731 48.4983V42.7866Z" fill="url(#paint0_linear_720_18954)"/>
<defs>
<linearGradient id="paint0_linear_720_18954" x1="12.1605" y1="13.75" x2="72.689" y2="40.3274" gradientUnits="userSpaceOnUse">
<stop stop-color="#002D85"/>
<stop offset="1" stop-color="#DE0000"/>
</linearGradient>
</defs>
</svg>
