<svg width="81" height="80" viewBox="0 0 81 80" fill="none" xmlns="http://www.w3.org/2000/svg">
<path d="M62.1257 34.8522V18.6739C62.1257 17.368 61.6066 16.1155 60.6824 15.1922C59.7582 14.2688 58.5047 13.75 57.1977 13.75H15.324C14.017 13.75 12.7635 14.2688 11.8393 15.1922C10.9152 16.1155 10.396 17.368 10.396 18.6739V54.5476C10.396 55.8535 10.9152 57.1058 11.8393 58.0293C12.7635 58.9527 14.017 59.4715 15.324 59.4715H39.964C41.4593 61.4716 43.3802 63.1156 45.5882 64.2847C47.796 65.4539 50.236 66.1192 52.7324 66.2326C55.2286 66.346 57.7189 65.9048 60.0239 64.9409C62.329 63.9768 64.3913 62.5139 66.0623 60.6576C67.7333 58.8012 68.9714 56.5977 69.6874 54.2058C70.4035 51.8136 70.5796 49.2927 70.2031 46.8246C69.8266 44.3564 68.9069 42.0023 67.51 39.932C66.1133 37.8618 64.2745 36.1268 62.1257 34.8522ZM12.9867 54.5476V29.6892L19.6887 33.2626V33.361C19.6832 33.6751 19.7397 33.9871 19.8548 34.2794C19.9699 34.5717 20.1417 34.8385 20.3599 35.0645C20.8009 35.5208 21.4052 35.7835 22.0401 35.7948C22.675 35.806 23.2881 35.5647 23.745 35.1241C23.9712 34.906 24.1521 34.6454 24.2775 34.3574C24.403 34.0694 24.4705 33.7594 24.4759 33.4454L29.4321 30.8427C29.8448 31.3146 30.4281 31.6034 31.054 31.6456C31.6797 31.6879 32.2965 31.48 32.769 31.0679C32.8879 30.9372 32.9875 30.7904 33.0647 30.6318L35.233 31.2929L36.6411 31.729C36.6653 32.3558 36.9377 32.9474 37.3986 33.3736C37.8593 33.7996 38.4705 34.0253 39.0979 34.0011C39.7253 33.9768 40.3174 33.7045 40.7438 33.2442C41.1702 32.7839 41.3961 32.173 41.3719 31.5462C41.3813 31.2353 41.3335 30.9254 41.2311 30.6318L45.6662 26.4113C46.1918 26.7535 46.8314 26.8746 47.4456 26.7481C48.06 26.6217 48.5995 26.2579 48.9469 25.7361C49.1882 25.3709 49.3229 24.9456 49.3352 24.508C49.3476 24.0706 49.2375 23.6384 49.0172 23.26L51.7065 20.7841V21.3327C51.7065 21.5418 51.7896 21.742 51.9375 21.8898C52.0853 22.0375 52.2859 22.1206 52.495 22.1206C52.7042 22.1206 52.9047 22.0375 53.0526 21.8898C53.2005 21.742 53.2836 21.5418 53.2836 21.3327V19.0114C53.2836 18.8026 53.2005 18.6021 53.0526 18.4544C52.9047 18.3066 52.7042 18.2238 52.495 18.2238H50.1297C49.9204 18.2238 49.72 18.3066 49.5721 18.4544C49.4243 18.6021 49.3412 18.8026 49.3412 19.0114C49.3412 19.2205 49.4243 19.4208 49.5721 19.5685C49.72 19.7163 49.9204 19.7993 50.1297 19.7993H50.5097L47.8204 22.3315C47.5266 22.2214 47.2139 22.1704 46.9002 22.1817C46.5865 22.1928 46.278 22.2659 45.9927 22.3966C45.7075 22.5274 45.4508 22.7133 45.2378 22.9435C45.0246 23.1738 44.8592 23.4439 44.751 23.7383C44.5682 24.2429 44.5682 24.7954 44.751 25.3L40.1892 29.5908C39.6876 29.3307 39.1094 29.2587 38.5594 29.3877C38.0093 29.5169 37.5235 29.8383 37.1901 30.2941L35.2754 29.7173L33.5294 29.2249C33.4712 28.6274 33.1889 28.0739 32.739 27.6756C32.2892 27.2774 31.7054 27.064 31.1046 27.0783C30.5037 27.0925 29.9307 27.3333 29.5002 27.7523C29.0699 28.1716 28.8141 28.7378 28.7845 29.3374V29.4359L23.955 31.9542C23.8575 31.8149 23.7441 31.6874 23.617 31.5743C23.3824 31.366 23.1087 31.2063 22.8117 31.1046C22.5147 31.003 22.2004 30.9614 21.8873 30.9824C21.5742 31.0034 21.2682 31.0864 20.9875 31.2267C20.7066 31.3669 20.4567 31.5616 20.2519 31.7995L12.9867 27.9869V18.6739C12.9904 18.0556 13.2377 17.4638 13.6753 17.0266C14.1128 16.5895 14.7053 16.3422 15.324 16.3386H57.1977C57.8164 16.3422 58.4089 16.5895 58.8464 17.0266C59.284 17.4638 59.5313 18.0556 59.5351 18.6739V33.5298C57.5369 32.7149 55.3996 32.2945 53.2412 32.2919C49.2012 32.3009 45.298 33.7564 42.2395 36.394C39.1812 39.0318 37.1699 42.6773 36.5706 46.6694H35.5287V43.5464C35.5452 43.4101 35.5326 43.2717 35.4917 43.1406C35.4507 43.0096 35.3824 42.8886 35.2913 42.7859C35.2002 42.6831 35.0882 42.6008 34.9628 42.5444C34.8375 42.4881 34.7016 42.4589 34.5642 42.4589C34.4267 42.4589 34.291 42.4881 34.1655 42.5444C34.0403 42.6008 33.9284 42.6831 33.8372 42.7859C33.7459 42.8886 33.6777 43.0096 33.6368 43.1406C33.5959 43.2717 33.5832 43.4101 33.5997 43.5464V46.6694H32.4874C32.0543 46.6694 31.6388 46.8413 31.3326 47.1473C31.0262 47.4535 30.8541 47.8685 30.8541 48.3014V54.0271C30.8541 54.4598 31.0262 54.875 31.3326 55.181C31.6388 55.487 32.0543 55.6589 32.4874 55.6589H33.5997V56.8548H19.1818V53.6472H20.2519C20.4688 53.651 20.6843 53.6116 20.8857 53.5311C21.087 53.4509 21.2704 53.3313 21.4251 53.1794C21.5798 53.0273 21.7026 52.8462 21.7864 52.6463C21.8702 52.4465 21.9133 52.232 21.9133 52.0154V46.3036C21.9098 46.0893 21.8638 45.8778 21.7783 45.6813C21.6928 45.4848 21.5695 45.3068 21.4152 45.158C21.2608 45.0089 21.0788 44.8919 20.8791 44.8133C20.6796 44.7348 20.4664 44.6961 20.2519 44.6999H19.1818V42.0269C19.1818 41.8994 19.1567 41.7732 19.108 41.6555C19.059 41.5377 18.9876 41.4306 18.8972 41.3406C18.807 41.2505 18.7 41.179 18.5822 41.1301C18.4643 41.0813 18.3379 41.0562 18.2104 41.0562C18.0827 41.0562 17.9563 41.0813 17.8386 41.1301C17.7207 41.179 17.6136 41.2505 17.5234 41.3406C17.4332 41.4306 17.3616 41.5377 17.3128 41.6555C17.2639 41.7732 17.2388 41.8994 17.2388 42.0269V44.6999H16.1406C15.7075 44.6999 15.292 44.8718 14.9858 45.1778C14.6794 45.4838 14.5073 45.899 14.5073 46.3319V52.0154C14.5073 52.4481 14.6794 52.8633 14.9858 53.1693C15.292 53.4753 15.7075 53.6472 16.1406 53.6472H17.2388V56.8548H15.324C14.7088 56.8548 14.1186 56.6127 13.6812 56.1807C13.2435 55.7489 12.9942 55.162 12.9867 54.5476ZM21.2657 33.4454C21.2657 33.2896 21.312 33.1373 21.3987 33.0078C21.4853 32.8782 21.6083 32.7771 21.7525 32.7175C21.8965 32.6579 22.0551 32.6423 22.2079 32.6727C22.3609 32.7031 22.5015 32.7781 22.6118 32.8883C22.722 32.9986 22.797 33.1388 22.8274 33.2916C22.858 33.4444 22.8422 33.6029 22.7826 33.7469C22.723 33.8909 22.6219 34.0139 22.4922 34.1005C22.3626 34.1869 22.2102 34.2333 22.0542 34.2333C21.9432 34.2338 21.8331 34.211 21.7317 34.1663C21.63 34.1215 21.5389 34.0559 21.4645 33.9734C21.39 33.8911 21.3338 33.7939 21.2997 33.6884C21.2653 33.5828 21.2537 33.4713 21.2657 33.361V33.4454ZM30.3614 29.2249C30.3651 29.0148 30.4512 28.8143 30.6014 28.6669C30.7515 28.5196 30.9535 28.4371 31.1639 28.4371C31.3731 28.4371 31.5735 28.5201 31.7215 28.6679C31.8692 28.8156 31.9525 29.0161 31.9525 29.2249C31.9525 29.4338 31.8692 29.6343 31.7215 29.782C31.5735 29.9298 31.3731 30.0128 31.1639 30.0128C30.9535 30.0128 30.7515 29.9303 30.6014 29.7829C30.4512 29.6356 30.3651 29.4351 30.3614 29.2249ZM38.2742 31.5884C38.2742 31.4326 38.3205 31.2803 38.4072 31.1508C38.4938 31.0212 38.617 30.9201 38.761 30.8605C38.9052 30.8009 39.0636 30.7853 39.2166 30.8157C39.3696 30.8461 39.51 30.9211 39.6203 31.0313C39.7305 31.1416 39.8057 31.2818 39.8361 31.4346C39.8665 31.5874 39.8509 31.7459 39.7913 31.8899C39.7315 32.0339 39.6304 32.1569 39.5009 32.2435C39.3711 32.3299 39.2187 32.3763 39.0629 32.3763C38.863 32.3766 38.6706 32.3014 38.5242 32.1657C38.3779 32.0299 38.2885 31.8438 38.2742 31.6446V31.5884ZM46.1732 24.484C46.1732 24.3282 46.2194 24.1759 46.306 24.0464C46.3926 23.9168 46.5158 23.8158 46.66 23.7561C46.804 23.6965 46.9624 23.6809 47.1154 23.7113C47.2684 23.7417 47.4089 23.8167 47.5191 23.9269C47.6294 24.037 47.7046 24.1774 47.7349 24.3303C47.7653 24.4831 47.7497 24.6415 47.6901 24.7855C47.6305 24.9295 47.5294 25.0525 47.3997 25.1389C47.2701 25.2256 47.1175 25.2719 46.9617 25.2719C46.762 25.2723 46.5694 25.1971 46.4232 25.0613C46.2767 24.9256 46.1875 24.7394 46.1732 24.5403V24.484ZM36.979 53.5769V54.0271C36.979 54.1167 36.9434 54.2026 36.88 54.2658C36.8166 54.3291 36.7307 54.3648 36.6411 54.3648H32.4171C32.3275 54.3648 32.2414 54.3291 32.178 54.2658C32.1147 54.2026 32.079 54.1167 32.079 54.0271V48.3014C32.079 48.2118 32.1147 48.1259 32.178 48.0625C32.2414 47.9993 32.3275 47.9637 32.4171 47.9637H36.3595C36.3595 48.3576 36.3595 48.7516 36.3595 49.1596C36.3629 50.6534 36.5712 52.1397 36.979 53.5769ZM16.1406 52.3529C16.051 52.3529 15.9651 52.3175 15.9017 52.2541C15.8383 52.1907 15.8027 52.1048 15.8027 52.0154V46.3036C15.8008 46.2582 15.8082 46.2126 15.8243 46.1701C15.8404 46.1275 15.865 46.0887 15.8965 46.0557C15.9282 46.0229 15.966 45.9968 16.008 45.979C16.0498 45.961 16.095 45.9518 16.1406 45.952H20.2519C20.3428 45.9556 20.4287 45.9942 20.4917 46.0598C20.5547 46.1255 20.59 46.2128 20.5898 46.3036V52.0154C20.5898 52.0596 20.5812 52.1035 20.5641 52.1446C20.5472 52.1855 20.5223 52.2228 20.491 52.2541C20.4595 52.2854 20.4223 52.3103 20.3813 52.3272C20.3402 52.3443 20.2963 52.3529 20.2519 52.3529H16.1406ZM35.5287 56.8548V55.6589H36.6411C36.9719 55.6463 37.291 55.5335 37.5563 55.3355C37.7674 55.856 37.9926 56.3624 38.2461 56.8548H35.5287ZM63.0691 59.57C62.8861 57.2487 62.2806 54.1818 60.3376 52.5359H58.2679C57.9987 52.5816 57.7223 52.5593 57.4641 52.4708C57.2057 52.3823 56.9738 52.2305 56.7895 52.0295C56.4934 51.5481 56.2971 51.0123 56.2122 50.4537C56.7719 49.8441 57.19 49.1189 57.4371 48.3295C57.76 48.1653 58.0071 47.8831 58.1271 47.5416C58.2786 47.0215 58.3264 46.4765 58.2679 45.938V45.7409L58.1129 45.6284H58.0144C58.3804 42.9835 58.0144 41.7456 56.9162 40.8031C55.8861 40.0917 54.6692 39.6991 53.4173 39.6741C52.1655 39.649 50.9339 39.9927 49.8762 40.6623C48.6372 41.5626 48.2007 43.1665 48.4682 45.5721L48.2852 45.6846L48.1161 45.7971V45.9942C48.1081 46.5156 48.2087 47.0331 48.4118 47.5135C48.5312 47.8503 48.7656 48.1341 49.0737 48.3155C49.3103 49.0576 49.6986 49.7427 50.2141 50.3271C50.1376 51.0308 49.8644 51.6987 49.4256 52.2545C49.0054 52.4388 48.5423 52.502 48.088 52.4375H46.1027C44.409 54.442 43.4462 56.9617 43.3712 59.584C41.2889 57.6134 39.8459 55.0641 39.2292 52.2655C38.6125 49.4669 38.85 46.5477 39.9115 43.8856C40.9729 41.2233 42.8093 38.9405 45.1832 37.3323C47.557 35.7241 50.3592 34.8644 53.2272 34.8644C56.0954 34.8644 58.8974 35.7241 61.2713 37.3323C63.6451 38.9405 65.4814 41.2233 66.5429 43.8856C67.6043 46.5477 67.8421 49.4669 67.2252 52.2655C66.6085 55.0641 65.1657 57.6134 63.0831 59.584L63.0691 59.57ZM24.321 50.1303H25.4192V52.9439C25.4192 53.2013 25.5216 53.4481 25.7038 53.6301C25.8861 53.8122 26.1332 53.9146 26.3908 53.9146C26.6485 53.9146 26.8956 53.8122 27.0778 53.6301C27.2599 53.4481 27.3623 53.2013 27.3623 52.9439V50.1303H28.4605C28.6763 50.1321 28.89 50.0913 29.0899 50.0101C29.2898 49.9289 29.4715 49.8089 29.6247 49.6572C29.7777 49.5055 29.8994 49.325 29.9822 49.126C30.0653 48.9271 30.1079 48.7137 30.1079 48.4983V42.7866C30.1079 42.3539 29.9359 41.9388 29.6295 41.6328C29.3232 41.3266 28.9079 41.1546 28.4747 41.1546H27.3764V38.0176C27.3764 37.7601 27.274 37.5132 27.0919 37.3311C26.9097 37.1491 26.6625 37.0469 26.4049 37.0469C26.1473 37.0469 25.9002 37.1491 25.7179 37.3311C25.5357 37.5132 25.4333 37.7601 25.4333 38.0176V41.1546H24.321C23.8866 41.1546 23.4696 41.3262 23.1612 41.6318C22.8525 41.9375 22.6774 42.3526 22.6737 42.7866V48.4983C22.6774 48.9323 22.8525 49.3475 23.1612 49.6531C23.4696 49.9587 23.8866 50.1303 24.321 50.1303ZM23.9691 42.7866C23.9727 42.6959 24.0113 42.61 24.0769 42.547C24.1425 42.484 24.2301 42.449 24.321 42.449H28.4605C28.5501 42.449 28.6362 42.4846 28.6995 42.548C28.7629 42.6111 28.7985 42.697 28.7985 42.7866V48.4983C28.7985 48.5892 28.7635 48.6766 28.7005 48.7422C28.6375 48.8076 28.5514 48.8465 28.4605 48.85H24.321C24.2277 48.85 24.1382 48.8129 24.0722 48.7471C24.0062 48.6811 23.9691 48.5916 23.9691 48.4983V42.7866Z" fill="url(#paint0_linear_808_17804)"/>
<defs>
<linearGradient id="paint0_linear_808_17804" x1="69.3228" y1="65.1113" x2="69.3228" y2="13.75" gradientUnits="userSpaceOnUse">
<stop stop-color="#002D85"/>
<stop offset="1" stop-color="#013AA9"/>
</linearGradient>
</defs>
</svg>
