<svg width="80" height="80" viewBox="0 0 80 80" fill="none" xmlns="http://www.w3.org/2000/svg">
<path fill-rule="evenodd" clip-rule="evenodd" d="M23.169 23.7685C22.734 24.1857 22.1439 24.4202 21.5287 24.4202C20.9164 24.4158 20.3307 24.1795 19.8994 23.7627C19.4684 23.3459 19.2263 22.7824 19.2263 22.1951V13.3451C19.2764 12.7901 19.5415 12.2736 19.9693 11.8972C20.3972 11.5209 20.9568 11.312 21.5372 11.312C22.1178 11.312 22.6772 11.5209 23.105 11.8972C23.5331 12.2736 23.7983 12.7901 23.8484 13.3451V22.1951C23.8484 22.7854 23.604 23.3513 23.169 23.7685ZM60.1101 23.7685C59.6751 24.1857 59.085 24.4202 58.4698 24.4202C57.8576 24.4158 57.2721 24.1795 56.8408 23.7627C56.4095 23.3459 56.1674 22.7824 56.1674 22.1951V13.3451C56.2177 12.7901 56.4829 12.2736 56.9107 11.8972C57.3386 11.5209 57.898 11.312 58.4786 11.312C59.0592 11.312 59.6186 11.5209 60.0464 11.8972C60.4743 12.2736 60.7394 12.7901 60.7895 13.3451V22.1951C60.7895 22.7854 60.5451 23.3513 60.1101 23.7685ZM69.8961 23.8725C69.6725 22.7818 69.0623 21.7992 68.1695 21.0912C67.2766 20.383 66.1558 19.9928 64.9971 19.987H63.0757V22.1952C63.1143 22.7992 63.0236 23.4042 62.8092 23.9733C62.5948 24.5424 62.2611 25.0632 61.8291 25.504C61.3969 25.9448 60.8751 26.296 60.2961 26.536C59.7171 26.776 59.0931 26.8999 58.4622 26.8999C57.8315 26.8999 57.2073 26.776 56.6283 26.536C56.0493 26.296 55.5277 25.9448 55.0955 25.504C54.6633 25.0632 54.3298 24.5424 54.1154 23.9733C53.901 23.4042 53.8103 22.7992 53.8489 22.1952V19.987H26.1512V22.1952C26.1898 22.7992 26.0991 23.4042 25.8847 23.9733C25.6703 24.5424 25.3368 25.0632 24.9046 25.504C24.4724 25.9448 23.9508 26.296 23.3718 26.536C22.7928 26.776 22.1686 26.8999 21.5379 26.8999C20.907 26.8999 20.283 26.776 19.704 26.536C19.125 26.296 18.6032 25.9448 18.171 25.504C17.739 25.0632 17.4053 24.5424 17.1909 23.9733C16.9765 23.4042 16.8858 22.7992 16.9244 22.1952V19.987H15.003C13.6698 20.0043 12.3974 20.5247 11.4611 21.4351C10.5247 22.3457 9.99989 23.5732 10.0001 24.8521V63.8228C9.99551 64.4574 10.1213 65.0865 10.3703 65.6745C10.619 66.2623 10.9864 66.7974 11.451 67.2493C11.9155 67.7011 12.4682 68.0607 13.0777 68.3076C13.6871 68.5543 14.3414 68.6835 15.003 68.6879H64.9971C66.3319 68.6748 67.6069 68.156 68.544 67.2444C69.4814 66.3331 70.0048 65.1031 70 63.8228V24.8521C70.0007 24.523 69.9658 24.1946 69.8961 23.8725ZM26.4801 64.2712H23.4681V52.7477H26.4801V64.2712ZM33.993 64.2712H30.981V49.8751H33.993V64.2712ZM41.5062 64.2712H38.4939V46.9859H41.5062V64.2712ZM49.0191 64.2712H46.0069V49.1611H49.0191V64.2712ZM56.532 64.2712H53.52V43.3826H56.532V64.2712ZM65.3954 35.7779V63.8228C65.4005 63.9276 65.364 64.0305 65.2934 64.1106C65.2228 64.1907 65.1231 64.2421 65.0144 64.2546H58.0902V42.6853C58.0902 42.4916 58.0099 42.3056 57.867 42.1688C57.7242 42.0317 57.5303 41.9546 57.3284 41.9546H52.8275C52.6256 41.9546 52.4317 42.0317 52.2889 42.1688C52.146 42.3056 52.0659 42.4916 52.0659 42.6853V64.2712H50.577V48.4305C50.5819 48.3317 50.5655 48.2332 50.5292 48.1406C50.4932 48.0481 50.4379 47.9636 50.3666 47.8923C50.2955 47.8208 50.2099 47.764 50.115 47.7253C50.0204 47.6865 49.9184 47.6666 49.8155 47.6666H45.3145C45.2144 47.6666 45.1154 47.6856 45.0231 47.7223C44.9306 47.759 44.8468 47.8127 44.7759 47.8806C44.7053 47.9484 44.649 48.029 44.6109 48.1176C44.5726 48.2062 44.5528 48.3013 44.5528 48.3973V64.2712H43.0641V46.2719C43.0641 46.078 42.9838 45.8923 42.8409 45.7552C42.6981 45.6183 42.5045 45.5413 42.3023 45.5413H37.6978C37.4956 45.5413 37.302 45.6183 37.1592 45.7552C37.0163 45.8923 36.936 46.078 36.936 46.2719V64.2712H35.43V49.1611C35.43 48.9716 35.3515 48.79 35.2119 48.6562C35.0723 48.5223 34.8831 48.4471 34.6855 48.4471H30.1846C29.9857 48.4471 29.7944 48.5216 29.6522 48.655C29.5098 48.7886 29.4275 48.9703 29.4231 49.1611V64.2712H27.9168V52.0337C27.9171 51.8427 27.8391 51.6594 27.6999 51.5228C27.561 51.3862 27.3715 51.3073 27.1726 51.3031H22.7236C22.5217 51.3031 22.3278 51.38 22.185 51.517C22.0421 51.6541 21.9618 51.8399 21.9618 52.0337V64.2712H15.0376C14.9289 64.2587 14.8292 64.2073 14.7586 64.1272C14.688 64.0471 14.6515 63.9442 14.6566 63.8394V30.6303H65.3954V35.7779ZM20.0053 50.5889C19.9088 50.6134 19.8073 50.6134 19.711 50.5889V50.5557C19.5357 50.5605 19.3644 50.5061 19.2269 50.4018C19.0896 50.2975 18.995 50.15 18.9597 49.9852C18.9246 49.8205 18.9511 49.6492 19.0347 49.5015C19.1182 49.3536 19.2534 49.2389 19.4166 49.1775L22.723 47.816V47.6665C22.7191 47.3535 22.7851 47.0434 22.9164 46.757C23.0477 46.4706 23.2416 46.2145 23.4848 46.0061C23.7137 45.8148 23.981 45.6698 24.2699 45.5803C24.5588 45.4905 24.8637 45.458 25.1662 45.4843C25.4685 45.5106 25.7623 45.5955 26.0297 45.7338C26.2972 45.8718 26.5326 46.0605 26.7218 46.2883L30.2879 44.9101V44.8271C30.2858 44.3868 30.4243 43.9564 30.6846 43.5936C30.9449 43.2308 31.3146 42.953 31.7441 42.7977C32.1738 42.6421 32.6424 42.6165 33.0878 42.7241C33.533 42.8316 33.9334 43.0672 34.235 43.3991L37.853 41.9545V41.8714C37.8391 41.2991 38.063 40.7448 38.4754 40.3305C38.8875 39.9163 39.4545 39.6763 40.0513 39.6631C40.6483 39.6498 41.2261 39.8646 41.6579 40.2601C42.0897 40.6555 42.3401 41.1994 42.3537 41.7719L45.8159 42.7681C46.1325 42.3502 46.5948 42.0551 47.1188 41.9362C47.6432 41.8174 48.1942 41.8827 48.6724 42.1206L53 38.2019C52.8352 37.739 52.8352 37.2368 53 36.7739C53.2169 36.2374 53.6464 35.8051 54.1947 35.5716C54.743 35.3383 55.3654 35.3228 55.9257 35.5284L58.4704 33.2205H58.0375C57.8386 33.2205 57.6475 33.146 57.5051 33.0124C57.3627 32.879 57.2803 32.6974 57.2759 32.5065C57.2759 32.3127 57.3562 32.1269 57.4991 31.9898C57.6419 31.853 57.8356 31.7759 58.0375 31.7759H60.2879C60.4871 31.7803 60.6763 31.8592 60.8155 31.9956C60.9546 32.1322 61.0324 32.3157 61.0324 32.5065V34.6651C61.0324 34.8544 60.9539 35.036 60.8143 35.1701C60.6747 35.3039 60.4855 35.3791 60.2879 35.3791C60.089 35.3791 59.8977 35.3044 59.7556 35.171C59.6132 35.0376 59.5308 34.856 59.5264 34.6651V34.1669L56.9817 36.4751C57.2381 36.8958 57.3385 37.3875 57.2665 37.8703C57.1945 38.3528 56.9542 38.7978 56.585 39.1328C56.2158 39.4677 55.739 39.6728 55.2327 39.7148C54.7264 39.7568 54.2201 39.6334 53.7964 39.3643L49.5724 43.2331C49.6864 43.4736 49.751 43.733 49.763 43.9968C49.7778 44.2804 49.7342 44.5638 49.6347 44.8312C49.5352 45.0985 49.3818 45.3445 49.1833 45.5549C48.9848 45.7654 48.7451 45.9361 48.4776 46.0578C48.2102 46.1794 47.9205 46.2491 47.6249 46.2634C47.3295 46.2775 47.0339 46.2357 46.7552 46.1404C46.4766 46.0451 46.2202 45.8978 46.0008 45.7075C45.7813 45.5171 45.6032 45.287 45.4765 45.0306C45.3495 44.774 45.2768 44.4961 45.2621 44.2128L41.7998 43.2165C41.7038 43.3439 41.5935 43.4609 41.471 43.5652C41.0198 43.9414 40.4321 44.1313 39.8355 44.0942C39.239 44.0568 38.6821 43.7951 38.2857 43.3658L34.7196 44.7274V44.8271C34.7217 45.2674 34.5832 45.6978 34.3229 46.0605C34.0626 46.4233 33.6929 46.7011 33.2634 46.8565C32.834 47.012 32.3651 47.0376 31.9199 46.9301C31.4745 46.8225 31.0744 46.5869 30.7728 46.2551L27.3105 47.6665C27.3128 47.984 27.2408 48.2978 27.1001 48.5852C26.9593 48.8725 26.7532 49.1261 26.4968 49.3268C26.0611 49.7175 25.4826 49.928 24.8865 49.9123C24.2902 49.8969 23.7246 49.6566 23.3117 49.2438L20.0053 50.5889ZM55.5355 37.1099C55.3965 36.9733 55.2071 36.8944 55.0082 36.8902C54.8092 36.8944 54.6198 36.9733 54.4806 37.1099C54.3417 37.2465 54.2637 37.4298 54.2637 37.6206C54.2637 37.8101 54.3422 37.9917 54.4818 38.1255C54.6214 38.2594 54.8106 38.3346 55.0082 38.3346C55.2055 38.3346 55.3949 38.2594 55.5345 38.1255C55.6742 37.9917 55.7526 37.8101 55.7526 37.6206C55.7526 37.4298 55.6746 37.2465 55.5355 37.1099ZM48.0216 43.5915C47.882 43.4577 47.6925 43.3825 47.4952 43.3825H47.5125C47.4133 43.3804 47.3145 43.397 47.2222 43.4321C47.1299 43.4669 47.0459 43.5191 46.9748 43.5855C46.904 43.6522 46.8475 43.7316 46.8092 43.8193C46.7706 43.907 46.7508 44.0014 46.7508 44.0965C46.7508 44.2859 46.8292 44.4675 46.9688 44.6014C47.1085 44.7352 47.2977 44.8105 47.4952 44.8105C47.6925 44.8105 47.882 44.7352 48.0216 44.6014C48.161 44.4675 48.2395 44.2859 48.2395 44.0965C48.2395 43.907 48.161 43.7256 48.0216 43.5915ZM40.5085 41.4329C40.3688 41.2991 40.1796 41.2238 39.9821 41.2238C39.8736 41.2081 39.7631 41.2148 39.6576 41.2439C39.5521 41.273 39.4543 41.3235 39.3712 41.3921C39.2879 41.4606 39.2212 41.5458 39.1755 41.6413C39.1296 41.7371 39.1061 41.8409 39.1061 41.9461C39.1061 42.0514 39.1296 42.1555 39.1755 42.251C39.2212 42.3468 39.2879 42.4317 39.3712 42.5002C39.4543 42.5688 39.5521 42.6193 39.6576 42.6484C39.7631 42.6775 39.8736 42.6844 39.9821 42.6685C40.1812 42.6641 40.3705 42.5851 40.5096 42.4488C40.6488 42.3121 40.7265 42.1289 40.7265 41.9378C40.7265 41.7486 40.6481 41.567 40.5085 41.4329ZM33.0313 44.3161C32.8921 44.1798 32.7029 44.1008 32.5038 44.0965C32.3018 44.0965 32.108 44.1735 31.9651 44.3104C31.8223 44.4475 31.7422 44.6332 31.7422 44.8271C31.7466 45.0179 31.829 45.1995 31.9711 45.3329C32.1135 45.4665 32.3048 45.5411 32.5038 45.5411C32.7013 45.5411 32.8905 45.4658 33.0301 45.332C33.1698 45.1982 33.2482 45.0165 33.2482 44.8271C33.2482 44.6362 33.1704 44.4528 33.0313 44.3161ZM25.4999 47.1948C25.3603 47.0609 25.1708 46.9857 24.9735 46.9857C24.7801 46.9852 24.5939 47.0554 24.4524 47.1818C24.311 47.3081 24.2249 47.4814 24.2117 47.6665C24.2071 47.7652 24.2233 47.8638 24.2595 47.9563C24.2957 48.0488 24.3511 48.1333 24.4222 48.2046C24.4935 48.2762 24.5791 48.3329 24.6737 48.3717C24.7686 48.4105 24.8706 48.4303 24.9735 48.4303C25.1724 48.4259 25.3619 48.347 25.5008 48.2104C25.64 48.074 25.718 47.8905 25.718 47.6997C25.718 47.5102 25.6395 47.3286 25.4999 47.1948Z" fill="url(#paint0_linear_720_18964)"/>
<defs>
<linearGradient id="paint0_linear_720_18964" x1="11.6605" y1="11.312" x2="73.8242" y2="36.2878" gradientUnits="userSpaceOnUse">
<stop stop-color="#002D85"/>
<stop offset="1" stop-color="#DE0000"/>
</linearGradient>
</defs>
</svg>
