<svg width="81" height="80" viewBox="0 0 81 80" fill="none" xmlns="http://www.w3.org/2000/svg">
<path fill-rule="evenodd" clip-rule="evenodd" d="M20.9348 20.8271H65.9345C67.1169 20.8303 68.2498 21.3198 69.0859 22.1883C69.9218 23.0569 70.3928 24.2339 70.396 25.4621V54.5378C70.3928 55.766 69.9218 56.9431 69.0859 57.8117C68.2498 58.6801 67.1169 59.1696 65.9345 59.1728H20.9348C19.7537 59.1696 18.6218 58.6798 17.7877 57.8109C16.9536 56.9421 16.4852 55.7649 16.4852 54.5378V49.1241H18.8271V54.5378C18.8271 55.1197 19.0488 55.6778 19.4438 56.0905C19.8387 56.5031 20.3747 56.7365 20.9348 56.7397H65.9345C66.213 56.7397 66.4885 56.6827 66.7456 56.5721C67.0029 56.4614 67.2365 56.2992 67.4333 56.0948C67.6301 55.8902 67.7861 55.6475 67.8927 55.3804C67.9992 55.1132 68.054 54.8269 68.054 54.5378V25.4621C68.054 25.173 67.9992 24.8868 67.8927 24.6195C67.7861 24.3524 67.6301 24.1097 67.4333 23.9051C67.2365 23.7007 67.0029 23.5385 66.7456 23.4278C66.4885 23.3173 66.213 23.2603 65.9345 23.2603H20.9348C20.3747 23.2634 19.8387 23.4968 19.4438 23.9095C19.0488 24.3221 18.8271 24.8803 18.8271 25.4621V30.8759H16.4852V25.4621C16.4852 24.2351 16.9536 23.0579 17.7877 22.1891C18.6218 21.3201 19.7537 20.8303 20.9348 20.8271ZM32.0352 24.2578V26.3868C30.2336 26.4812 28.5181 27.2156 27.1756 28.4672C26.6133 29.0902 26.1788 29.8258 25.8991 30.6289C25.6193 31.4321 25.4998 32.2861 25.5479 33.1387C25.5284 34.4012 25.793 35.651 26.3209 36.7883C26.7377 37.758 27.353 38.6216 28.1241 39.3188C29.4047 40.321 30.7334 41.2549 32.1054 42.1169C32.995 42.5659 33.7187 43.3051 34.1662 44.2214C34.4115 45.2637 34.514 46.3367 34.4706 47.4087C34.5018 47.8782 34.3913 48.3459 34.1545 48.747C34.0383 48.8964 33.8896 49.0151 33.7207 49.0935C33.5517 49.1716 33.3673 49.2072 33.1827 49.1972C32.9767 49.2233 32.7684 49.173 32.5949 49.0549C32.4213 48.9371 32.2934 48.7588 32.2343 48.5524C32.053 47.4559 31.9863 46.3424 32.0352 45.2312V43.6254H25.6183V44.9149C25.6183 47.8711 26.2507 49.9514 27.5269 51.1314C28.7601 52.3087 30.3321 53.0312 32 53.1874V55.7423H34.986V53.2483C36.8677 53.1069 38.6305 52.239 39.9274 50.8152C41.1114 49.1965 41.6896 47.1863 41.5549 45.1582C41.5824 43.9131 41.3797 42.6742 40.9577 41.5085C40.629 40.6359 40.117 39.8503 39.4589 39.2093C38.4196 38.33 37.3156 37.5369 36.1569 36.837C34.9413 36.129 33.7858 35.3149 32.7026 34.4039C32.2509 33.7755 32.042 32.9945 32.1171 32.214C32.0824 31.7282 32.1841 31.2422 32.4098 30.8151C32.5148 30.6634 32.6544 30.541 32.8161 30.4588C32.9777 30.3768 33.1564 30.3376 33.3361 30.3449C33.516 30.3521 33.6912 30.4055 33.8463 30.5003C34.0013 30.595 34.1314 30.7284 34.2247 30.8881C34.4091 31.6343 34.4801 32.4061 34.4356 33.1752V34.2822H40.8407C40.8407 33.9451 40.8619 33.6609 40.8788 33.435C40.89 33.286 40.8992 33.1624 40.8992 33.0656C40.9924 31.3914 40.4691 29.7431 39.4356 28.455C38.2429 27.2278 36.6615 26.4927 34.986 26.3868V24.2578H32.0352ZM19.8455 47.5303V42.287H24.8925V37.7128H19.8455V32.4695H15.4428V37.7128H10.396V42.287H15.4428V47.5303H19.8455ZM59.9382 55.5475H65.5939V36.2166H59.9382V55.5475ZM61.1093 37.433H64.423V54.3309H61.1093V37.433ZM48.2409 34.9149L51.3789 35.9002C51.6708 35.4826 52.0975 35.1877 52.581 35.0693C53.0646 34.9509 53.5729 35.0171 54.0136 35.2555L57.9597 31.3991C57.8438 31.015 57.8343 30.6047 57.9325 30.2152C58.0307 29.8258 58.2326 29.4732 58.515 29.1974C58.7975 28.9218 59.1489 28.7346 59.5292 28.6571C59.9093 28.5796 60.3029 28.6149 60.6647 28.7591L63.0066 26.472H62.6787C62.5812 26.4852 62.4821 26.4769 62.3881 26.447C62.2941 26.4174 62.2072 26.3672 62.1332 26.2998C62.0593 26.2325 62.0002 26.1494 61.9596 26.0564C61.9191 25.9634 61.8981 25.8625 61.8981 25.7603C61.8981 25.6583 61.9191 25.5573 61.9596 25.4642C62.0002 25.3712 62.0593 25.2882 62.1332 25.2208C62.2072 25.1535 62.2941 25.1033 62.3881 25.0736C62.4821 25.0439 62.5812 25.0354 62.6787 25.0486H64.7162C64.8064 25.0486 64.8956 25.0673 64.9788 25.1034C65.062 25.1398 65.1373 25.1928 65.2005 25.2597C65.2639 25.3263 65.3136 25.4057 65.3471 25.4927C65.3804 25.5798 65.3969 25.6728 65.3952 25.7665V27.8953C65.4081 27.9967 65.3999 28.0996 65.3714 28.1973C65.3427 28.295 65.2944 28.3853 65.2295 28.462C65.1647 28.5389 65.0848 28.6004 64.9953 28.6424C64.9058 28.6846 64.8086 28.7064 64.7104 28.7064C64.612 28.7064 64.5148 28.6846 64.4253 28.6424C64.3357 28.6004 64.2559 28.5389 64.191 28.462C64.1262 28.3853 64.0778 28.295 64.0493 28.1973C64.0206 28.0996 64.0125 27.9967 64.0253 27.8953V27.4088L61.6834 29.6837C61.9216 30.1002 62.016 30.5889 61.9508 31.0687C61.8856 31.5483 61.6649 31.9908 61.3249 32.3226C60.9852 32.6544 60.5465 32.8559 60.0815 32.8936C59.6166 32.9315 59.1531 32.8032 58.7678 32.5305L54.9271 36.3017C55.0306 36.5394 55.0901 36.7954 55.1026 37.0559C55.1325 37.346 55.1048 37.6391 55.0216 37.9177C54.9384 38.1961 54.8013 38.4541 54.6188 38.6756C54.4362 38.897 54.2122 39.0776 53.9601 39.2058C53.708 39.3342 53.4334 39.4075 53.1532 39.4217C52.8727 39.4357 52.5926 39.3902 52.3297 39.2878C52.067 39.1855 51.8271 39.0284 51.6248 38.8262C51.4224 38.6241 51.262 38.3812 51.1533 38.1123C51.0446 37.8435 50.99 37.5544 50.9926 37.2628L47.8428 36.2895C47.7571 36.4174 47.6546 36.5319 47.5382 36.6301C47.1249 36.9911 46.5934 37.1721 46.0545 37.136C45.5157 37.0996 45.0112 36.8489 44.6461 36.4356C44.3221 36.0413 44.1401 35.5426 44.1308 35.0243C44.1544 34.4833 44.3745 33.9716 44.7466 33.5925C45.1189 33.2132 45.6156 32.9948 46.1367 32.9808C46.6579 32.967 47.1647 33.1589 47.5552 33.5176C47.9456 33.8766 48.1906 34.3757 48.2409 34.9149ZM45.9282 35.6798C46.0119 35.7145 46.1016 35.7315 46.1917 35.73H46.2268C46.4008 35.7207 46.5645 35.6422 46.6844 35.5108C46.8043 35.3796 46.8711 35.2053 46.8708 35.0243C46.8836 34.9231 46.8755 34.8202 46.8468 34.7225C46.8183 34.6247 46.7699 34.5345 46.7051 34.4578C46.6402 34.3809 46.5604 34.3194 46.4708 34.2772C46.3813 34.2352 46.2841 34.2134 46.1857 34.2134C46.0876 34.2134 45.9903 34.2352 45.9008 34.2772C45.8113 34.3194 45.7314 34.3809 45.6666 34.4578C45.6017 34.5345 45.5534 34.6247 45.5249 34.7225C45.4962 34.8202 45.488 34.9231 45.5009 35.0243C45.5009 35.118 45.5187 35.2108 45.5535 35.2972C45.5884 35.3836 45.6396 35.4619 45.7039 35.5276C45.7681 35.5933 45.8445 35.645 45.9282 35.6798ZM52.6918 37.737C52.8057 37.8165 52.9398 37.8589 53.077 37.8589C53.167 37.8605 53.2567 37.8435 53.3404 37.8087C53.4241 37.774 53.5004 37.7223 53.5648 37.6566C53.629 37.591 53.6801 37.5126 53.715 37.4262C53.7498 37.3397 53.7677 37.247 53.7677 37.1533C53.77 37.0109 53.7315 36.8709 53.657 36.7513C53.5826 36.6316 53.4754 36.5378 53.3495 36.4816C53.2235 36.4254 53.0841 36.4094 52.9494 36.4357C52.8147 36.4621 52.6905 36.5294 52.5926 36.6293C52.4949 36.7292 52.4279 36.857 52.4002 36.9966C52.3727 37.1361 52.3856 37.281 52.4376 37.4129C52.4894 37.5448 52.578 37.6576 52.6918 37.737ZM60.3224 30.1454C60.2089 30.0664 60.0754 30.0244 59.9387 30.0244V30.0365C59.8485 30.0349 59.7589 30.052 59.6752 30.0867C59.5914 30.1214 59.5152 30.1731 59.4508 30.2388C59.3865 30.3044 59.3355 30.3828 59.3006 30.4693C59.2658 30.5557 59.2478 30.6484 59.2478 30.7421C59.2478 30.8841 59.2883 31.0228 59.3643 31.1409C59.4402 31.2589 59.548 31.3509 59.6742 31.4053C59.8005 31.4596 59.9395 31.4738 60.0734 31.4461C60.2074 31.4185 60.3306 31.3501 60.4272 31.2496C60.5238 31.1492 60.5895 31.0213 60.6162 30.8821C60.6429 30.7429 60.6292 30.5985 60.5769 30.4675C60.5247 30.3363 60.4362 30.2243 60.3224 30.1454ZM46.0519 55.5476H51.7076V43.9417H46.0519V55.5476ZM47.2228 45.1095H50.5367V54.331H47.2228V45.1095ZM58.6516 55.5474H52.9959V40.0972H58.6516V55.5474ZM57.4807 41.3138H54.1668V54.3308H57.4807V41.3138Z" fill="url(#paint0_linear_808_17806)"/>
<defs>
<linearGradient id="paint0_linear_808_17806" x1="69.3228" y1="58.3411" x2="69.3228" y2="20.8271" gradientUnits="userSpaceOnUse">
<stop stop-color="#002D85"/>
<stop offset="1" stop-color="#013AA9"/>
</linearGradient>
</defs>
</svg>
