<svg width="81" height="81" viewBox="0 0 81 81" fill="none" xmlns="http://www.w3.org/2000/svg">
<mask id="mask0_808_17913" style="mask-type:luminance" maskUnits="userSpaceOnUse" x="10" y="14" width="61" height="53">
<path d="M70.396 14.8438H10.396V66.1566H70.396V14.8438Z" fill="white"/>
</mask>
<g mask="url(#mask0_808_17913)">
<path d="M48.782 60.0578C48.921 60.0601 49.059 60.0345 49.1879 59.9827C49.3171 59.9309 49.4344 59.8541 49.5335 59.7566C49.6325 59.659 49.7111 59.5428 49.7648 59.4145C49.8184 59.2863 49.8461 59.1488 49.8461 59.0097V55.9445H51.0372C51.5089 55.9445 51.9613 55.7571 52.295 55.4236C52.6285 55.0901 52.8159 54.6377 52.8159 54.1658V46.908C52.8159 46.4363 52.6285 45.9839 52.295 45.6504C51.9613 45.3167 51.5089 45.1293 51.0372 45.1293H49.8461V41.7148C49.8461 41.5758 49.8184 41.4383 49.7648 41.31C49.7111 41.1818 49.6325 41.0656 49.5335 40.968C49.4344 40.8705 49.3171 40.7937 49.1879 40.7419C49.059 40.6901 48.921 40.6646 48.782 40.6666C48.6439 40.6646 48.5065 40.6901 48.3783 40.7421C48.2503 40.794 48.1339 40.8712 48.0361 40.9688C47.9384 41.0667 47.8612 41.1831 47.8093 41.3112C47.7574 41.4394 47.7318 41.5766 47.7338 41.7148V45.1293H46.5269C46.0552 45.1293 45.6027 45.3167 45.2691 45.6504C44.9355 45.9839 44.7481 46.4363 44.7481 46.908V54.1658C44.7523 54.6364 44.9411 55.0863 45.2737 55.419C45.6064 55.7517 46.0565 55.9404 46.5269 55.9445H47.7338V59.0097C47.7318 59.148 47.7574 59.2852 47.8093 59.4134C47.8612 59.5415 47.9384 59.6579 48.0361 59.7556C48.1339 59.8534 48.2503 59.9306 48.3783 59.9826C48.5065 60.0343 48.6439 60.0601 48.782 60.0578ZM46.5269 54.547C46.43 54.547 46.3371 54.5085 46.2686 54.4401C46.2 54.3715 46.1616 54.2786 46.1616 54.1817V46.908C46.1595 46.8588 46.1673 46.8096 46.1848 46.7635C46.2021 46.7173 46.2286 46.675 46.2628 46.6395C46.2969 46.6039 46.3379 46.5755 46.3833 46.5562C46.4287 46.5369 46.4775 46.5269 46.5269 46.5269H51.0372C51.0866 46.5269 51.1353 46.5369 51.1808 46.5562C51.2262 46.5755 51.2671 46.6039 51.3013 46.6395C51.3354 46.675 51.362 46.7173 51.3794 46.7635C51.3967 46.8096 51.4047 46.8588 51.4025 46.908V54.1658C51.4025 54.2627 51.364 54.3556 51.2954 54.4242C51.227 54.4927 51.1341 54.5311 51.0372 54.5311L46.5269 54.547Z" fill="url(#paint0_linear_808_17913)"/>
<path d="M58.9933 63.0118C59.2756 63.0118 59.5462 62.8996 59.7458 62.7C59.9453 62.5005 60.0574 62.2299 60.0574 61.9477V58.8826H61.2167C61.6886 58.8826 62.141 58.6952 62.4746 58.3615C62.8081 58.028 62.9955 57.5756 62.9955 57.1039V37.6174C62.9955 37.1455 62.8081 36.6931 62.4746 36.3596C62.141 36.0261 61.6886 35.8387 61.2167 35.8387H60.0256V32.44C60.0256 32.1578 59.9135 31.8872 59.714 31.6876C59.5146 31.4881 59.2438 31.376 58.9616 31.376C58.8226 31.376 58.6851 31.4036 58.5568 31.4571C58.4286 31.5108 58.3124 31.5894 58.2148 31.6885C58.1173 31.7875 58.0405 31.905 57.9887 32.0339C57.9369 32.1631 57.9113 32.3011 57.9134 32.44V35.8387H56.7064C56.2347 35.8387 55.7823 36.0261 55.4488 36.3596C55.1151 36.6931 54.9277 37.1455 54.9277 37.6174V57.1039C54.9277 57.5756 55.1151 58.028 55.4488 58.3615C55.7823 58.6952 56.2347 58.8826 56.7064 58.8826H57.9134V61.9477C57.9112 62.0894 57.9379 62.2301 57.9915 62.3611C58.0452 62.4923 58.1249 62.6112 58.2258 62.7107C58.3268 62.8101 58.4469 62.888 58.5788 62.9398C58.7107 62.9916 58.8517 63.0161 58.9933 63.0118ZM56.7382 57.4691C56.6413 57.4691 56.5484 57.4306 56.48 57.3621C56.4115 57.2937 56.3729 57.2008 56.3729 57.1039V37.6174C56.3729 37.5205 56.4115 37.4276 56.48 37.359C56.5484 37.2905 56.6413 37.2521 56.7382 37.2521H61.2167C61.3136 37.2521 61.4065 37.2905 61.4751 37.359C61.5436 37.4276 61.582 37.5205 61.582 37.6174V57.1039C61.582 57.1518 61.5726 57.1993 61.5542 57.2436C61.536 57.2879 61.509 57.3281 61.4751 57.3621C61.4411 57.3961 61.401 57.4229 61.3567 57.4414C61.3122 57.4596 61.2647 57.4691 61.2167 57.4691H56.7382Z" fill="url(#paint1_linear_808_17913)"/>
<path d="M28.358 54.6424C28.6403 54.6424 28.9109 54.5302 29.1105 54.3306C29.31 54.1311 29.4221 53.8605 29.4221 53.5783V50.1479H30.6132C31.085 50.1479 31.5373 49.9605 31.871 49.6268C32.2045 49.2933 32.3919 48.8409 32.3919 48.3692V42.1437C32.3919 41.9101 32.3459 41.6787 32.2566 41.463C32.1672 41.2472 32.0362 41.051 31.871 40.8859C31.7058 40.7207 31.5097 40.5897 31.2939 40.5003C31.078 40.4109 30.8468 40.365 30.6132 40.365H29.4539V37.5063C29.4723 37.3567 29.4586 37.2049 29.414 37.061C29.3694 36.9171 29.2946 36.7843 29.1947 36.6714C29.0949 36.5587 28.9722 36.4683 28.8348 36.4064C28.6974 36.3444 28.5485 36.3125 28.3977 36.3125C28.247 36.3125 28.0981 36.3444 27.9607 36.4064C27.8233 36.4683 27.7007 36.5587 27.6008 36.6714C27.5009 36.7843 27.4263 36.9171 27.3815 37.061C27.3369 37.2049 27.3232 37.3567 27.3416 37.5063V40.365H26.1029C25.6324 40.3691 25.1824 40.5578 24.8497 40.8905C24.5171 41.2232 24.3283 41.6731 24.3242 42.1437V48.3692C24.3242 48.8409 24.5116 49.2933 24.8452 49.6268C25.1787 49.9605 25.6312 50.1479 26.1029 50.1479H27.3099V53.5783C27.3099 53.8577 27.4198 54.1261 27.6159 54.325C27.812 54.5242 28.0787 54.6381 28.358 54.6424ZM26.1029 48.7504C26.0046 48.7462 25.9117 48.7043 25.8436 48.6331C25.7755 48.5622 25.7376 48.4675 25.7376 48.3692V42.1437C25.7527 42.0581 25.7978 41.9807 25.8647 41.9255C25.9316 41.8702 26.0161 41.8405 26.1029 41.8419H30.6132C30.7101 41.8419 30.803 41.8804 30.8716 41.9488C30.94 42.0174 30.9785 42.1103 30.9785 42.2072V48.4327C30.9807 48.482 30.9728 48.5312 30.9554 48.5774C30.938 48.6235 30.9115 48.6657 30.8773 48.7013C30.8432 48.7369 30.8022 48.7653 30.7568 48.7847C30.7113 48.8039 30.6626 48.8139 30.6132 48.8139L26.1029 48.7504Z" fill="url(#paint2_linear_808_17913)"/>
<path d="M38.5695 55.4358C38.8518 55.4358 39.1224 55.3237 39.322 55.124C39.5215 54.9246 39.6336 54.6539 39.6336 54.3717V51.3701H40.8247C41.2964 51.3701 41.7488 51.1827 42.0825 50.8491C42.416 50.5156 42.6034 50.0631 42.6034 49.5914V35.3775C42.6034 34.9057 42.416 34.4534 42.0825 34.1197C41.7488 33.7862 41.2964 33.5988 40.8247 33.5988H39.6336V30.1843C39.602 29.9265 39.477 29.6892 39.2825 29.5171C39.0879 29.345 38.8371 29.25 38.5775 29.25C38.3177 29.25 38.0671 29.345 37.8725 29.5171C37.678 29.6892 37.553 29.9265 37.5214 30.1843V33.5988H36.3144C35.8427 33.5988 35.3902 33.7862 35.0566 34.1197C34.7231 34.4534 34.5357 34.9057 34.5357 35.3775V49.5279C34.5271 49.7667 34.5668 50.005 34.6524 50.2281C34.738 50.4512 34.8676 50.655 35.0337 50.8268C35.1997 50.9988 35.3987 51.1356 35.6186 51.2289C35.8387 51.3222 36.0754 51.3703 36.3144 51.3701H37.5214V54.4352C37.5374 54.7035 37.6543 54.9558 37.8488 55.1415C38.0432 55.3271 38.3007 55.4323 38.5695 55.4358ZM36.3144 49.8932C36.2664 49.8932 36.2189 49.8836 36.1746 49.8654C36.1303 49.8469 36.09 49.8201 36.0561 49.7861C36.0222 49.7523 35.9953 49.712 35.9769 49.6676C35.9585 49.6233 35.9491 49.5758 35.9491 49.5279V35.3775C35.9491 35.2807 35.9875 35.1878 36.0561 35.1193C36.1246 35.0507 36.2175 35.0123 36.3144 35.0123H40.8247C40.9216 35.0123 41.0145 35.0507 41.0829 35.1193C41.1515 35.1878 41.19 35.2807 41.19 35.3775V49.5279C41.19 49.5758 41.1804 49.6233 41.1622 49.6676C41.1438 49.712 41.1169 49.7523 41.0829 49.7861C41.0491 49.8201 41.0088 49.8469 40.9645 49.8654C40.9201 49.8836 40.8727 49.8932 40.8247 49.8932H36.3144Z" fill="url(#paint3_linear_808_17913)"/>
<path d="M69.3801 64.0759H19.1631C19.1721 64.0073 19.1721 63.9379 19.1631 63.8694V59.0415H20.4019C20.8736 59.0415 21.3261 58.8541 21.6596 58.5204C21.9932 58.1869 22.1806 57.7344 22.1806 57.2628V51.0372C22.1806 50.5654 21.9932 50.1129 21.6596 49.7794C21.3261 49.4459 20.8736 49.2585 20.4019 49.2585H19.2108V46.3999C19.2292 46.2503 19.2156 46.0984 19.1709 45.9545C19.1262 45.8107 19.0515 45.6779 18.9516 45.565C18.8518 45.4522 18.7291 45.3619 18.5917 45.2999C18.4543 45.238 18.3054 45.2061 18.1547 45.2061C18.004 45.2061 17.855 45.238 17.7176 45.2999C17.5802 45.3619 17.4576 45.4522 17.3577 45.565C17.2579 45.6779 17.1831 45.8107 17.1385 45.9545C17.0938 46.0984 17.0802 46.2503 17.0986 46.3999V49.2585H15.9075C15.6739 49.2585 15.4426 49.3044 15.2268 49.3938C15.011 49.4832 14.8149 49.6143 14.6497 49.7794C14.4845 49.9446 14.3535 50.1407 14.2641 50.3566C14.1747 50.5722 14.1287 50.8036 14.1287 51.0372V57.2628C14.1287 57.7344 14.3161 58.1869 14.6497 58.5204C14.9833 58.8541 15.4357 59.0415 15.9075 59.0415H17.0986V63.9012C17.0896 63.9696 17.0896 64.039 17.0986 64.1076H11.413C11.1633 64.1388 10.9336 64.2601 10.767 64.4486C10.6004 64.6373 10.5085 64.8803 10.5085 65.132C10.5085 65.3836 10.6004 65.6265 10.767 65.8152C10.9336 66.0039 11.1633 66.1251 11.413 66.1563H69.3801C69.63 66.1251 69.8596 66.0039 70.0262 65.8152C70.1928 65.6265 70.2848 65.3836 70.2848 65.132C70.2848 64.8803 70.1928 64.6373 70.0262 64.4486C69.8596 64.2601 69.63 64.1388 69.3801 64.1076V64.0759ZM15.9075 57.628C15.8582 57.6301 15.809 57.6223 15.7628 57.6048C15.7166 57.5875 15.6745 57.5608 15.6388 57.5267C15.6032 57.4926 15.5749 57.4516 15.5555 57.4063C15.5362 57.3609 15.5263 57.312 15.5263 57.2628V51.0372C15.5263 50.9878 15.5362 50.9391 15.5555 50.8937C15.5749 50.8482 15.6032 50.8073 15.6388 50.7731C15.6745 50.739 15.7166 50.7125 15.7628 50.695C15.809 50.6777 15.8582 50.6697 15.9075 50.672H20.4019C20.4512 50.6697 20.5004 50.6777 20.5466 50.695C20.5927 50.7125 20.6349 50.739 20.6705 50.7731C20.7061 50.8073 20.7345 50.8482 20.7538 50.8937C20.7731 50.9391 20.7831 50.9878 20.7831 51.0372V57.2628C20.7831 57.312 20.7731 57.3609 20.7538 57.4063C20.7345 57.4516 20.7061 57.4926 20.6705 57.5267C20.6349 57.5608 20.5927 57.5875 20.5466 57.6048C20.5004 57.6223 20.4512 57.6301 20.4019 57.628H15.9075Z" fill="url(#paint4_linear_808_17913)"/>
<path d="M11.5874 38.0779C11.7682 38.0811 11.9475 38.0432 12.1115 37.9668L37.5217 25.3569C37.724 25.2471 37.9507 25.1896 38.1808 25.1896C38.4111 25.1896 38.6375 25.2471 38.8399 25.3569L47.0823 29.7879C47.376 29.952 47.7068 30.0382 48.0431 30.0382C48.3795 30.0382 48.7103 29.952 49.004 29.7879L66.2194 19.6079L65.203 22.0377C65.1384 22.1843 65.1039 22.3425 65.1018 22.5028C65.0996 22.663 65.13 22.822 65.1908 22.9703C65.2516 23.1186 65.3417 23.2531 65.4557 23.3657C65.5696 23.4784 65.7052 23.5668 65.8541 23.6259C66.0161 23.6893 66.1885 23.7217 66.3624 23.7212C66.5869 23.7061 66.8032 23.6302 66.9879 23.5014C67.1726 23.3727 67.3187 23.1961 67.4105 22.9906L69.7927 17.2574C69.8704 17.0936 69.9107 16.9146 69.9107 16.7333C69.9107 16.5521 69.8704 16.373 69.7927 16.2092C69.6973 16.0368 69.5599 15.8912 69.3935 15.7857C69.2269 15.6803 69.0366 15.6184 68.8399 15.6057L62.4873 14.8593C62.1846 14.8403 61.8857 14.9359 61.6503 15.1272C61.4148 15.3185 61.2601 15.5914 61.2168 15.8916C61.181 16.2054 61.2714 16.5205 61.468 16.7677C61.6645 17.0149 61.9511 17.1739 62.265 17.2098L65.076 17.5433L48.7022 27.1674C48.488 27.2931 48.244 27.3593 47.9955 27.3593C47.7471 27.3593 47.5032 27.2931 47.2888 27.1674L39.1575 22.7842C38.8838 22.6472 38.5821 22.5759 38.2761 22.5759C37.97 22.5759 37.6683 22.6472 37.3946 22.7842L11.0633 35.8228C10.782 35.9629 10.5675 36.2082 10.4663 36.5057C10.3652 36.8031 10.3857 37.1286 10.5233 37.4109C10.6194 37.6114 10.7704 37.7805 10.9588 37.8985C11.1471 38.0165 11.3651 38.0787 11.5874 38.0779Z" fill="url(#paint5_linear_808_17913)"/>
</g>
<defs>
<linearGradient id="paint0_linear_808_17913" x1="52.6716" y1="59.6374" x2="52.6716" y2="40.6665" gradientUnits="userSpaceOnUse">
<stop stop-color="#002D85"/>
<stop offset="1" stop-color="#013AA9"/>
</linearGradient>
<linearGradient id="paint1_linear_808_17913" x1="62.8512" y1="62.3261" x2="62.8512" y2="31.376" gradientUnits="userSpaceOnUse">
<stop stop-color="#002D85"/>
<stop offset="1" stop-color="#013AA9"/>
</linearGradient>
<linearGradient id="paint2_linear_808_17913" x1="32.2476" y1="54.2448" x2="32.2476" y2="36.3125" gradientUnits="userSpaceOnUse">
<stop stop-color="#002D85"/>
<stop offset="1" stop-color="#013AA9"/>
</linearGradient>
<linearGradient id="paint3_linear_808_17913" x1="42.4591" y1="54.8678" x2="42.4591" y2="29.25" gradientUnits="userSpaceOnUse">
<stop stop-color="#002D85"/>
<stop offset="1" stop-color="#013AA9"/>
</linearGradient>
<linearGradient id="paint4_linear_808_17913" x1="69.2156" y1="65.7019" x2="69.2156" y2="45.2061" gradientUnits="userSpaceOnUse">
<stop stop-color="#002D85"/>
<stop offset="1" stop-color="#013AA9"/>
</linearGradient>
<linearGradient id="paint5_linear_808_17913" x1="68.8464" y1="37.5745" x2="68.8464" y2="14.8569" gradientUnits="userSpaceOnUse">
<stop stop-color="#002D85"/>
<stop offset="1" stop-color="#013AA9"/>
</linearGradient>
</defs>
</svg>
