<svg width="81" height="81" viewBox="0 0 81 81" fill="none" xmlns="http://www.w3.org/2000/svg">
<mask id="mask0_720_19054" style="mask-type:luminance" maskUnits="userSpaceOnUse" x="10" y="14" width="61" height="53">
<path d="M70.5 14.8435H10.5V66.1564H70.5V14.8435Z" fill="white"/>
</mask>
<g mask="url(#mask0_720_19054)">
<path d="M48.8859 60.0576C49.0249 60.0598 49.1629 60.0342 49.2919 59.9825C49.421 59.9307 49.5383 59.8538 49.6374 59.7563C49.7364 59.6588 49.815 59.5426 49.8687 59.4142C49.9224 59.2861 49.95 59.1485 49.95 59.0094V55.9443H51.1411C51.6128 55.9443 52.0652 55.7569 52.3989 55.4234C52.7324 55.0899 52.9198 54.6374 52.9198 54.1656V46.9078C52.9198 46.4361 52.7324 45.9836 52.3989 45.6501C52.0652 45.3165 51.6128 45.1291 51.1411 45.1291H49.95V41.7145C49.95 41.5756 49.9224 41.4381 49.8687 41.3097C49.815 41.1816 49.7364 41.0653 49.6374 40.9678C49.5383 40.8703 49.421 40.7934 49.2919 40.7417C49.1629 40.6899 49.0249 40.6643 48.8859 40.6664C48.7478 40.6643 48.6104 40.6899 48.4822 40.7418C48.3542 40.7937 48.2378 40.8709 48.14 40.9686C48.0423 41.0664 47.9651 41.1828 47.9132 41.311C47.8613 41.4392 47.8357 41.5764 47.8378 41.7145V45.1291H46.6308C46.1591 45.1291 45.7066 45.3165 45.373 45.6501C45.0395 45.9836 44.8521 46.4361 44.8521 46.9078V54.1656C44.8562 54.6361 45.045 55.0861 45.3776 55.4188C45.7103 55.7515 46.1604 55.9402 46.6308 55.9443H47.8378V59.0094C47.8357 59.1477 47.8613 59.285 47.9132 59.4131C47.9651 59.5413 48.0423 59.6577 48.14 59.7554C48.2378 59.8532 48.3542 59.9304 48.4822 59.9823C48.6104 60.0341 48.7478 60.0598 48.8859 60.0576ZM46.6308 54.5467C46.5339 54.5467 46.441 54.5083 46.3725 54.4399C46.3039 54.3712 46.2655 54.2783 46.2655 54.1815V46.9078C46.2634 46.8585 46.2712 46.8093 46.2887 46.7633C46.306 46.717 46.3325 46.6748 46.3667 46.6392C46.4008 46.6036 46.4418 46.5752 46.4872 46.556C46.5326 46.5366 46.5814 46.5266 46.6308 46.5266H51.1411C51.1905 46.5266 51.2392 46.5366 51.2847 46.556C51.3301 46.5752 51.3711 46.6036 51.4052 46.6392C51.4393 46.6748 51.4659 46.717 51.4833 46.7633C51.5006 46.8093 51.5086 46.8585 51.5064 46.9078V54.1656C51.5064 54.2625 51.4679 54.3554 51.3993 54.424C51.3309 54.4924 51.238 54.5309 51.1411 54.5309L46.6308 54.5467Z" fill="url(#paint0_linear_720_19054)"/>
<path d="M59.0974 63.0113C59.3796 63.0113 59.6502 62.8992 59.8498 62.6995C60.0493 62.5001 60.1614 62.2294 60.1614 61.9472V58.8821H61.3208C61.7926 58.8821 62.2451 58.6947 62.5786 58.361C62.9121 58.0275 63.0995 57.5751 63.0995 57.1034V37.6169C63.0995 37.145 62.9121 36.6926 62.5786 36.3591C62.2451 36.0256 61.7926 35.8382 61.3208 35.8382H60.1297V32.4395C60.1297 32.1573 60.0176 31.8867 59.8181 31.6871C59.6186 31.4876 59.3478 31.3755 59.0656 31.3755C58.9267 31.3755 58.7891 31.4031 58.6608 31.4566C58.5326 31.5103 58.4164 31.5889 58.3189 31.688C58.2214 31.787 58.1445 31.9045 58.0927 32.0335C58.0409 32.1626 58.0154 32.3006 58.0174 32.4395V35.8382H56.8105C56.3388 35.8382 55.8863 36.0256 55.5528 36.3591C55.2191 36.6926 55.0317 37.145 55.0317 37.6169V57.1034C55.0317 57.5751 55.2191 58.0275 55.5528 58.361C55.8863 58.6947 56.3388 58.8821 56.8105 58.8821H58.0174V61.9472C58.0152 62.0889 58.0419 62.2296 58.0956 62.3606C58.1493 62.4918 58.229 62.6107 58.3298 62.7102C58.4308 62.8096 58.5509 62.8876 58.6829 62.9393C58.8147 62.9911 58.9557 63.0156 59.0974 63.0113ZM56.8422 57.4687C56.7453 57.4687 56.6524 57.4301 56.584 57.3616C56.5155 57.2932 56.4769 57.2003 56.4769 57.1034V37.6169C56.4769 37.52 56.5155 37.4271 56.584 37.3585C56.6524 37.29 56.7453 37.2516 56.8422 37.2516H61.3208C61.4177 37.2516 61.5106 37.29 61.5792 37.3585C61.6476 37.4271 61.6861 37.52 61.6861 37.6169V57.1034C61.6861 57.1513 61.6767 57.1988 61.6583 57.2431C61.64 57.2875 61.613 57.3276 61.5792 57.3616C61.5452 57.3956 61.505 57.4224 61.4607 57.4409C61.4162 57.4591 61.3687 57.4687 61.3208 57.4687H56.8422Z" fill="url(#paint1_linear_720_19054)"/>
<path d="M28.4621 54.6419C28.7443 54.6419 29.0149 54.5297 29.2145 54.3301C29.414 54.1306 29.5261 53.86 29.5261 53.5778V50.1474H30.7172C31.1891 50.1474 31.6414 49.96 31.975 49.6264C32.3086 49.2928 32.496 48.8404 32.496 48.3687V42.1432C32.496 41.9096 32.4499 41.6782 32.3606 41.4625C32.2712 41.2467 32.1402 41.0506 31.975 40.8854C31.8099 40.7202 31.6137 40.5892 31.3979 40.4998C31.1821 40.4104 30.9508 40.3645 30.7172 40.3645H29.5579V37.5058C29.5763 37.3562 29.5627 37.2044 29.518 37.0605C29.4734 36.9166 29.3986 36.7838 29.2987 36.6709C29.199 36.5582 29.0762 36.4678 28.9388 36.4059C28.8015 36.3439 28.6525 36.312 28.5018 36.312C28.3511 36.312 28.2021 36.3439 28.0647 36.4059C27.9273 36.4678 27.8047 36.5582 27.7048 36.6709C27.605 36.7838 27.5303 36.9166 27.4855 37.0605C27.4409 37.2044 27.4272 37.3562 27.4457 37.5058V40.3645H26.2069C25.7365 40.3686 25.2865 40.5573 24.9538 40.89C24.6211 41.2227 24.4324 41.6726 24.4282 42.1432V48.3687C24.4282 48.8404 24.6156 49.2928 24.9492 49.6264C25.2828 49.96 25.7352 50.1474 26.2069 50.1474H27.4139V53.5778C27.4139 53.8572 27.5238 54.1256 27.7199 54.3246C27.9161 54.5237 28.1827 54.6376 28.4621 54.6419ZM26.2069 48.7499C26.1086 48.7457 26.0157 48.7038 25.9476 48.6327C25.8795 48.5617 25.8416 48.467 25.8417 48.3687V42.1432C25.8568 42.0576 25.9018 41.9803 25.9688 41.925C26.0357 41.8697 26.1201 41.84 26.2069 41.8414H30.7172C30.8141 41.8414 30.907 41.8799 30.9756 41.9483C31.0441 42.0169 31.0825 42.1098 31.0825 42.2067V48.4322C31.0847 48.4815 31.0768 48.5307 31.0595 48.5769C31.042 48.623 31.0155 48.6652 30.9813 48.7008C30.9472 48.7364 30.9062 48.7648 30.8608 48.7842C30.8154 48.8034 30.7666 48.8134 30.7172 48.8134L26.2069 48.7499Z" fill="url(#paint2_linear_720_19054)"/>
<path d="M38.6737 55.4358C38.9559 55.4358 39.2265 55.3237 39.4262 55.124C39.6256 54.9246 39.7378 54.6539 39.7378 54.3717V51.3701H40.9289C41.4005 51.3701 41.853 51.1827 42.1867 50.8491C42.5202 50.5156 42.7076 50.0631 42.7076 49.5914V35.3775C42.7076 34.9057 42.5202 34.4534 42.1867 34.1197C41.853 33.7862 41.4005 33.5988 40.9289 33.5988H39.7378V30.1843C39.7061 29.9265 39.5812 29.6892 39.3866 29.5171C39.1921 29.345 38.9413 29.25 38.6816 29.25C38.4218 29.25 38.1712 29.345 37.9767 29.5171C37.7821 29.6892 37.6571 29.9265 37.6255 30.1843V33.5988H36.4185C35.9469 33.5988 35.4944 33.7862 35.1607 34.1197C34.8272 34.4534 34.6398 34.9057 34.6398 35.3775V49.5279C34.6312 49.7667 34.6709 50.005 34.7565 50.2281C34.8421 50.4512 34.9717 50.655 35.1379 50.8268C35.3038 50.9988 35.5028 51.1356 35.7228 51.2289C35.9429 51.3222 36.1795 51.3703 36.4185 51.3701H37.6255V54.4352C37.6416 54.7035 37.7585 54.9558 37.953 55.1415C38.1474 55.3271 38.4048 55.4323 38.6737 55.4358ZM36.4185 49.8932C36.3706 49.8932 36.3231 49.8836 36.2788 49.8654C36.2345 49.8469 36.1941 49.8201 36.1603 49.7861C36.1263 49.7523 36.0995 49.712 36.0811 49.6676C36.0626 49.6233 36.0533 49.5758 36.0533 49.5279V35.3775C36.0533 35.2807 36.0917 35.1878 36.1603 35.1193C36.2288 35.0507 36.3217 35.0123 36.4185 35.0123H40.9289C41.0257 35.0123 41.1186 35.0507 41.1871 35.1193C41.2557 35.1878 41.2941 35.2807 41.2941 35.3775V49.5279C41.2941 49.5758 41.2846 49.6233 41.2663 49.6676C41.2479 49.712 41.2211 49.7523 41.1871 49.7861C41.1533 49.8201 41.1129 49.8469 41.0686 49.8654C41.0243 49.8836 40.9768 49.8932 40.9289 49.8932H36.4185Z" fill="url(#paint3_linear_720_19054)"/>
<path d="M69.4839 64.0756H19.2669C19.2759 64.007 19.2759 63.9376 19.2669 63.8692V59.0412H20.5057C20.9774 59.0412 21.4299 58.8538 21.7634 58.5202C22.097 58.1866 22.2844 57.7342 22.2844 57.2625V51.037C22.2844 50.5652 22.097 50.1127 21.7634 49.7792C21.4299 49.4457 20.9774 49.2583 20.5057 49.2583H19.3146V46.3996C19.333 46.25 19.3193 46.0982 19.2747 45.9543C19.23 45.8104 19.1553 45.6776 19.0554 45.5647C18.9556 45.452 18.8329 45.3616 18.6955 45.2997C18.5581 45.2377 18.4092 45.2058 18.2585 45.2058C18.1078 45.2058 17.9588 45.2377 17.8214 45.2997C17.684 45.3616 17.5614 45.452 17.4615 45.5647C17.3617 45.6776 17.2869 45.8104 17.2422 45.9543C17.1976 46.0982 17.184 46.25 17.2024 46.3996V49.2583H16.0112C15.7777 49.2583 15.5464 49.3042 15.3306 49.3936C15.1148 49.483 14.9187 49.614 14.7535 49.7792C14.5883 49.9443 14.4573 50.1405 14.3679 50.3563C14.2785 50.572 14.2325 50.8034 14.2325 51.037V57.2625C14.2325 57.7342 14.4199 58.1866 14.7535 58.5202C15.0871 58.8538 15.5395 59.0412 16.0112 59.0412H17.2024V63.9009C17.1934 63.9694 17.1934 64.0388 17.2024 64.1074H11.5168C11.2671 64.1385 11.0374 64.2599 10.8708 64.4484C10.7042 64.637 10.6123 64.88 10.6123 65.1317C10.6123 65.3833 10.7042 65.6263 10.8708 65.815C11.0374 66.0036 11.2671 66.1248 11.5168 66.1561H69.4839C69.7338 66.1248 69.9634 66.0036 70.13 65.815C70.2966 65.6263 70.3885 65.3833 70.3885 65.1317C70.3885 64.88 70.2966 64.637 70.13 64.4484C69.9634 64.2599 69.7338 64.1385 69.4839 64.1074V64.0756ZM16.0112 57.6278C15.962 57.6298 15.9128 57.6221 15.8666 57.6046C15.8204 57.5873 15.7783 57.5606 15.7426 57.5265C15.707 57.4923 15.6787 57.4513 15.6593 57.4061C15.64 57.3607 15.63 57.3117 15.6301 57.2625V51.037C15.63 50.9876 15.64 50.9388 15.6593 50.8934C15.6787 50.848 15.707 50.807 15.7426 50.7729C15.7783 50.7387 15.8204 50.7122 15.8666 50.6947C15.9128 50.6774 15.962 50.6695 16.0112 50.6717H20.5057C20.555 50.6695 20.6042 50.6774 20.6504 50.6947C20.6965 50.7122 20.7387 50.7387 20.7743 50.7729C20.8099 50.807 20.8383 50.848 20.8576 50.8934C20.8769 50.9388 20.8869 50.9876 20.8868 51.037V57.2625C20.8869 57.3117 20.8769 57.3607 20.8576 57.4061C20.8383 57.4513 20.8099 57.4923 20.7743 57.5265C20.7387 57.5606 20.6965 57.5873 20.6504 57.6046C20.6042 57.6221 20.555 57.6298 20.5057 57.6278H16.0112Z" fill="url(#paint4_linear_720_19054)"/>
<path d="M11.6913 38.0777C11.8722 38.0809 12.0514 38.0429 12.2154 37.9665L37.6256 25.3567C37.8279 25.2469 38.0546 25.1894 38.2847 25.1894C38.515 25.1894 38.7414 25.2469 38.9438 25.3567L47.1862 29.7876C47.4799 29.9517 47.8107 30.0379 48.1471 30.0379C48.4834 30.0379 48.8142 29.9517 49.1079 29.7876L66.3233 19.6076L65.3069 22.0375C65.2423 22.1841 65.2078 22.3423 65.2058 22.5025C65.2035 22.6628 65.2339 22.8218 65.2947 22.9701C65.3555 23.1184 65.4456 23.2528 65.5596 23.3655C65.6735 23.4781 65.8091 23.5666 65.9581 23.6256C66.1201 23.6891 66.2924 23.7214 66.4663 23.7209C66.6908 23.7059 66.9071 23.6299 67.0918 23.5012C67.2765 23.3725 67.4227 23.1959 67.5144 22.9904L69.8967 17.2572C69.9743 17.0934 70.0147 16.9144 70.0147 16.7331C70.0147 16.5518 69.9743 16.3728 69.8967 16.209C69.8012 16.0366 69.6638 15.8909 69.4974 15.7855C69.3308 15.68 69.1405 15.6181 68.9438 15.6055L62.5912 14.8591C62.2885 14.84 61.9896 14.9356 61.7542 15.1269C61.5187 15.3182 61.364 15.5911 61.3207 15.8914C61.285 16.2052 61.3753 16.5203 61.5719 16.7675C61.7684 17.0147 62.055 17.1737 62.3689 17.2095L65.1799 17.543L48.8061 27.1672C48.5919 27.2928 48.348 27.359 48.0994 27.359C47.851 27.359 47.6071 27.2928 47.3927 27.1672L39.2614 22.7839C38.9878 22.647 38.686 22.5756 38.38 22.5756C38.0739 22.5756 37.7722 22.647 37.4986 22.7839L11.1672 35.8225C10.8859 35.9626 10.6714 36.208 10.5702 36.5054C10.4691 36.8029 10.4896 37.1283 10.6272 37.4107C10.7233 37.6111 10.8743 37.7802 11.0627 37.8982C11.251 38.0162 11.469 38.0785 11.6913 38.0777Z" fill="url(#paint5_linear_720_19054)"/>
</g>
<defs>
<linearGradient id="paint0_linear_720_19054" x1="45.0753" y1="40.6663" x2="54.5414" y2="42.1794" gradientUnits="userSpaceOnUse">
<stop stop-color="#002D85"/>
<stop offset="1" stop-color="#DE0000"/>
</linearGradient>
<linearGradient id="paint1_linear_720_19054" x1="55.255" y1="31.3755" x2="64.8707" y2="32.3176" gradientUnits="userSpaceOnUse">
<stop stop-color="#002D85"/>
<stop offset="1" stop-color="#DE0000"/>
</linearGradient>
<linearGradient id="paint2_linear_720_19054" x1="24.6515" y1="36.312" x2="34.0896" y2="37.908" gradientUnits="userSpaceOnUse">
<stop stop-color="#002D85"/>
<stop offset="1" stop-color="#DE0000"/>
</linearGradient>
<linearGradient id="paint3_linear_720_19054" x1="34.862" y1="29.25" x2="44.4371" y2="30.3836" gradientUnits="userSpaceOnUse">
<stop stop-color="#002D85"/>
<stop offset="1" stop-color="#DE0000"/>
</linearGradient>
<linearGradient id="paint4_linear_720_19054" x1="12.2666" y1="45.2058" x2="44.9363" y2="81.0191" gradientUnits="userSpaceOnUse">
<stop stop-color="#002D85"/>
<stop offset="1" stop-color="#DE0000"/>
</linearGradient>
<linearGradient id="paint5_linear_720_19054" x1="12.1537" y1="14.8567" x2="48.5132" y2="50.6554" gradientUnits="userSpaceOnUse">
<stop stop-color="#002D85"/>
<stop offset="1" stop-color="#DE0000"/>
</linearGradient>
</defs>
</svg>
