<svg width="81" height="80" viewBox="0 0 81 80" fill="none" xmlns="http://www.w3.org/2000/svg">
<path fill-rule="evenodd" clip-rule="evenodd" d="M24.0649 23.7685C23.6299 24.1857 23.0399 24.4202 22.4246 24.4202C21.8124 24.4158 21.2267 24.1795 20.7954 23.7627C20.3643 23.3459 20.1222 22.7824 20.1222 22.1951V13.3451C20.1723 12.7901 20.4375 12.2736 20.8653 11.8972C21.2932 11.5209 21.8528 11.312 22.4332 11.312C23.0138 11.312 23.5732 11.5209 24.001 11.8972C24.4291 12.2736 24.6942 12.7901 24.7443 13.3451V22.1951C24.7443 22.7854 24.4999 23.3513 24.0649 23.7685ZM61.0061 23.7685C60.5711 24.1857 59.981 24.4202 59.3658 24.4202C58.7535 24.4158 58.1681 24.1795 57.7368 23.7627C57.3055 23.3459 57.0634 22.7824 57.0634 22.1951V13.3451C57.1137 12.7901 57.3788 12.2736 57.8067 11.8972C58.2345 11.5209 58.7939 11.312 59.3745 11.312C59.9552 11.312 60.5145 11.5209 60.9424 11.8972C61.3702 12.2736 61.6354 12.7901 61.6855 13.3451V22.1951C61.6855 22.7854 61.4411 23.3513 61.0061 23.7685ZM70.7921 23.8725C70.5685 22.7818 69.9583 21.7992 69.0655 21.0912C68.1726 20.383 67.0518 19.9928 65.8931 19.987H63.9717V22.1952C64.0102 22.7992 63.9195 23.4042 63.7052 23.9733C63.4908 24.5424 63.1571 25.0632 62.7251 25.504C62.2928 25.9448 61.7711 26.296 61.1921 26.536C60.6131 26.776 59.9891 26.8999 59.3582 26.8999C58.7275 26.8999 58.1032 26.776 57.5242 26.536C56.9452 26.296 56.4237 25.9448 55.9915 25.504C55.5592 25.0632 55.2258 24.5424 55.0114 23.9733C54.797 23.4042 54.7063 22.7992 54.7448 22.1952V19.987H27.0472V22.1952C27.0857 22.7992 26.995 23.4042 26.7806 23.9733C26.5663 24.5424 26.2328 25.0632 25.8006 25.504C25.3683 25.9448 24.8468 26.296 24.2678 26.536C23.6888 26.776 23.0646 26.8999 22.4339 26.8999C21.8029 26.8999 21.1789 26.776 20.5999 26.536C20.0209 26.296 19.4992 25.9448 19.0669 25.504C18.6349 25.0632 18.3013 24.5424 18.0869 23.9733C17.8725 23.4042 17.7818 22.7992 17.8203 22.1952V19.987H15.8989C14.5658 20.0043 13.2933 20.5247 12.3571 21.4351C11.4206 22.3457 10.8959 23.5732 10.8961 24.8521V63.8228C10.8915 64.4574 11.0172 65.0865 11.2662 65.6745C11.515 66.2623 11.8824 66.7974 12.3469 67.2493C12.8115 67.7011 13.3642 68.0607 13.9736 68.3076C14.5831 68.5543 15.2373 68.6835 15.8989 68.6879H65.8931C67.2278 68.6748 68.5028 68.156 69.44 67.2444C70.3774 66.3331 70.9008 65.1031 70.8959 63.8228V24.8521C70.8966 24.523 70.8618 24.1946 70.7921 23.8725ZM27.376 64.2712H24.364V52.7477H27.376V64.2712ZM34.889 64.2712H31.877V49.8751H34.889V64.2712ZM42.4021 64.2712H39.3899V46.9859H42.4021V64.2712ZM49.9151 64.2712H46.9028V49.1611H49.9151V64.2712ZM57.428 64.2712H54.416V43.3826H57.428V64.2712ZM66.2914 35.7779V63.8228C66.2965 63.9276 66.26 64.0305 66.1894 64.1106C66.1188 64.1907 66.0191 64.2421 65.9104 64.2546H58.9861V42.6853C58.9861 42.4916 58.9058 42.3056 58.763 42.1688C58.6201 42.0317 58.4263 41.9546 58.2244 41.9546H53.7234C53.5215 41.9546 53.3277 42.0317 53.1848 42.1688C53.042 42.3056 52.9619 42.4916 52.9619 42.6853V64.2712H51.473V48.4305C51.4778 48.3317 51.4614 48.2332 51.4252 48.1406C51.3892 48.0481 51.3338 47.9636 51.2625 47.8923C51.1914 47.8208 51.1058 47.764 51.011 47.7253C50.9164 47.6865 50.8144 47.6666 50.7114 47.6666H46.2105C46.1104 47.6666 46.0114 47.6856 45.9191 47.7223C45.8265 47.759 45.7427 47.8127 45.6719 47.8806C45.6013 47.9484 45.545 48.029 45.5069 48.1176C45.4686 48.2062 45.4487 48.3013 45.4487 48.3973V64.2712H43.9601V46.2719C43.9601 46.078 43.8797 45.8923 43.7369 45.7552C43.5941 45.6183 43.4004 45.5413 43.1983 45.5413H38.5937C38.3916 45.5413 38.198 45.6183 38.0551 45.7552C37.9123 45.8923 37.832 46.078 37.832 46.2719V64.2712H36.326V49.1611C36.326 48.9716 36.2475 48.79 36.1079 48.6562C35.9683 48.5223 35.779 48.4471 35.5815 48.4471H31.0806C30.8817 48.4471 30.6903 48.5216 30.5482 48.655C30.4058 48.7886 30.3234 48.9703 30.319 49.1611V64.2712H28.8128V52.0337C28.813 51.8427 28.735 51.6594 28.5959 51.5228C28.457 51.3862 28.2675 51.3073 28.0686 51.3031H23.6196C23.4176 51.3031 23.2238 51.38 23.0809 51.517C22.9381 51.6541 22.8578 51.8399 22.8578 52.0337V64.2712H15.9336C15.8249 64.2587 15.7252 64.2073 15.6546 64.1272C15.5839 64.0471 15.5475 63.9442 15.5526 63.8394V30.6303H66.2914V35.7779ZM20.9012 50.5889C20.8048 50.6134 20.7032 50.6134 20.607 50.5889V50.5557C20.4316 50.5605 20.2604 50.5061 20.1229 50.4018C19.9855 50.2975 19.8909 50.15 19.8556 49.9852C19.8205 49.8205 19.8471 49.6492 19.9306 49.5015C20.0142 49.3536 20.1494 49.2389 20.3125 49.1775L23.619 47.816V47.6665C23.6151 47.3535 23.6811 47.0434 23.8124 46.757C23.9437 46.4706 24.1376 46.2145 24.3808 46.0061C24.6097 45.8148 24.8769 45.6698 25.1659 45.5803C25.4548 45.4905 25.7596 45.458 26.0622 45.4843C26.3645 45.5106 26.6582 45.5955 26.9257 45.7338C27.1932 45.8718 27.4286 46.0605 27.6178 46.2883L31.1839 44.9101V44.8271C31.1818 44.3868 31.3203 43.9564 31.5806 43.5936C31.8409 43.2308 32.2106 42.953 32.64 42.7977C33.0697 42.6421 33.5384 42.6165 33.9838 42.7241C34.4289 42.8316 34.8293 43.0672 35.131 43.3991L38.749 41.9545V41.8714C38.7351 41.2991 38.959 40.7448 39.3713 40.3305C39.7835 39.9163 40.3505 39.6763 40.9473 39.6631C41.5443 39.6498 42.1221 39.8646 42.5539 40.2601C42.9857 40.6555 43.236 41.1994 43.2497 41.7719L46.7119 42.7681C47.0285 42.3502 47.4907 42.0551 48.0148 41.9362C48.5391 41.8174 49.0902 41.8827 49.5684 42.1206L53.896 38.2019C53.7312 37.739 53.7312 37.2368 53.896 36.7739C54.1129 36.2374 54.5424 35.8051 55.0907 35.5716C55.639 35.3383 56.2614 35.3228 56.8217 35.5284L59.3664 33.2205H58.9334C58.7345 33.2205 58.5434 33.146 58.4011 33.0124C58.2587 32.879 58.1763 32.6974 58.1719 32.5065C58.1719 32.3127 58.2522 32.1269 58.3951 31.9898C58.5379 31.853 58.7315 31.7759 58.9334 31.7759H61.1839C61.3831 31.7803 61.5723 31.8592 61.7114 31.9956C61.8506 32.1322 61.9284 32.3157 61.9284 32.5065V34.6651C61.9284 34.8544 61.8499 35.036 61.7103 35.1701C61.5707 35.3039 61.3814 35.3791 61.1839 35.3791C60.985 35.3791 60.7937 35.3044 60.6515 35.171C60.5091 35.0376 60.4268 34.856 60.4224 34.6651V34.1669L57.8777 36.4751C58.1341 36.8958 58.2344 37.3875 58.1624 37.8703C58.0904 38.3528 57.8502 38.7978 57.481 39.1328C57.1117 39.4677 56.635 39.6728 56.1287 39.7148C55.6224 39.7568 55.1161 39.6334 54.6924 39.3643L50.4684 43.2331C50.5824 43.4736 50.647 43.733 50.659 43.9968C50.6737 44.2804 50.6301 44.5638 50.5307 44.8312C50.4312 45.0985 50.2777 45.3445 50.0793 45.5549C49.8808 45.7654 49.641 45.9361 49.3736 46.0578C49.1061 46.1794 48.8165 46.2491 48.5209 46.2634C48.2255 46.2775 47.9299 46.2357 47.6511 46.1404C47.3726 46.0451 47.1162 45.8978 46.8967 45.7075C46.6773 45.5171 46.4991 45.287 46.3724 45.0306C46.2455 44.774 46.1728 44.4961 46.158 44.2128L42.6958 43.2165C42.5998 43.3439 42.4895 43.4609 42.367 43.5652C41.9158 43.9414 41.328 44.1313 40.7315 44.0942C40.135 44.0568 39.5781 43.7951 39.1816 43.3658L35.6156 44.7274V44.8271C35.6176 45.2674 35.4792 45.6978 35.2189 46.0605C34.9586 46.4233 34.5889 46.7011 34.1594 46.8565C33.7299 47.012 33.261 47.0376 32.8159 46.9301C32.3705 46.8225 31.9703 46.5869 31.6687 46.2551L28.2065 47.6665C28.2088 47.984 28.1368 48.2978 27.996 48.5852C27.8552 48.8725 27.6492 49.1261 27.3928 49.3268C26.9571 49.7175 26.3786 49.928 25.7825 49.9123C25.1862 49.8969 24.6206 49.6566 24.2077 49.2438L20.9012 50.5889ZM56.4314 37.1099C56.2925 36.9733 56.1031 36.8944 55.9041 36.8902C55.7052 36.8944 55.5157 36.9733 55.3766 37.1099C55.2377 37.2465 55.1597 37.4298 55.1597 37.6206C55.1597 37.8101 55.2381 37.9917 55.3777 38.1255C55.5174 38.2594 55.7066 38.3346 55.9041 38.3346C56.1014 38.3346 56.2909 38.2594 56.4305 38.1255C56.5701 37.9917 56.6486 37.8101 56.6486 37.6206C56.6486 37.4298 56.5706 37.2465 56.4314 37.1099ZM48.9176 43.5915C48.778 43.4577 48.5885 43.3825 48.3912 43.3825H48.4085C48.3093 43.3804 48.2105 43.397 48.1182 43.4321C48.0259 43.4669 47.9419 43.5191 47.8708 43.5855C47.8 43.6522 47.7434 43.7316 47.7051 43.8193C47.6666 43.907 47.6467 44.0014 47.6467 44.0965C47.6467 44.2859 47.7252 44.4675 47.8648 44.6014C48.0044 44.7352 48.1937 44.8105 48.3912 44.8105C48.5885 44.8105 48.778 44.7352 48.9176 44.6014C49.057 44.4675 49.1354 44.2859 49.1354 44.0965C49.1354 43.907 49.057 43.7256 48.9176 43.5915ZM41.4044 41.4329C41.2648 41.2991 41.0756 41.2238 40.878 41.2238C40.7696 41.2081 40.659 41.2148 40.5536 41.2439C40.4481 41.273 40.3503 41.3235 40.2672 41.3921C40.1839 41.4606 40.1172 41.5458 40.0715 41.6413C40.0256 41.7371 40.002 41.8409 40.002 41.9461C40.002 42.0514 40.0256 42.1555 40.0715 42.251C40.1172 42.3468 40.1839 42.4317 40.2672 42.5002C40.3503 42.5688 40.4481 42.6193 40.5536 42.6484C40.659 42.6775 40.7696 42.6844 40.878 42.6685C41.0772 42.6641 41.2664 42.5851 41.4056 42.4488C41.5447 42.3121 41.6225 42.1289 41.6225 41.9378C41.6225 41.7486 41.544 41.567 41.4044 41.4329ZM33.9273 44.3161C33.7881 44.1798 33.5989 44.1008 33.3997 44.0965C33.1978 44.0965 33.0039 44.1735 32.8611 44.3104C32.7183 44.4475 32.6382 44.6332 32.6382 44.8271C32.6426 45.0179 32.7249 45.1995 32.8671 45.3329C33.0095 45.4665 33.2008 45.5411 33.3997 45.5411C33.5973 45.5411 33.7865 45.4658 33.9261 45.332C34.0657 45.1982 34.1442 45.0165 34.1442 44.8271C34.1442 44.6362 34.0664 44.4528 33.9273 44.3161ZM26.3959 47.1948C26.2562 47.0609 26.0668 46.9857 25.8695 46.9857C25.6761 46.9852 25.4899 47.0554 25.3484 47.1818C25.2069 47.3081 25.1209 47.4814 25.1077 47.6665C25.1031 47.7652 25.1192 47.8638 25.1555 47.9563C25.1917 48.0488 25.2471 48.1333 25.3182 48.2046C25.3895 48.2762 25.4751 48.3329 25.5697 48.3717C25.6646 48.4105 25.7666 48.4303 25.8695 48.4303C26.0684 48.4259 26.2579 48.347 26.3968 48.2104C26.5359 48.074 26.6139 47.8905 26.6139 47.6997C26.6139 47.5102 26.5355 47.3286 26.3959 47.1948Z" fill="url(#paint0_linear_808_17815)"/>
<defs>
<linearGradient id="paint0_linear_808_17815" x1="69.8228" y1="67.4434" x2="69.8228" y2="11.312" gradientUnits="userSpaceOnUse">
<stop stop-color="#002D85"/>
<stop offset="1" stop-color="#013AA9"/>
</linearGradient>
</defs>
</svg>
