<svg width="82" height="80" viewBox="0 0 82 80" fill="none" xmlns="http://www.w3.org/2000/svg">
<path d="M60.7512 23.7502C62.5965 25.278 63.0925 27.2422 62.4973 31.5081H62.656L62.9139 31.6669V32.0042C62.9435 32.8472 62.8157 33.6883 62.537 34.4843C62.3366 35.0355 61.9413 35.494 61.4258 35.7738C61.0296 37.0403 60.3512 38.2006 59.4417 39.1669C59.5911 40.0734 59.9145 40.9424 60.3941 41.7262C60.6876 42.0486 61.0584 42.2909 61.4717 42.4298C61.8848 42.5686 62.3266 42.5996 62.7552 42.5198H65.3147C65.8766 42.5288 66.4149 42.7482 66.8227 43.1351C69.9973 46.528 70.6124 52.4206 70.6917 55.9524C67.0409 59.504 43.8068 59.3055 38.9457 55.9524C38.6627 51.4157 39.929 46.9173 42.5369 43.1944C42.7485 42.9288 43.0169 42.7143 43.3227 42.5667C43.6282 42.419 43.9633 42.3421 44.3028 42.3415H46.5052C47.2332 42.4325 47.9725 42.33 48.6481 42.0436C49.3586 41.1546 49.7993 40.0805 49.9179 38.9486C49.1098 38.0101 48.5022 36.9161 48.1322 35.7341C47.6413 35.4355 47.2643 34.9817 47.0608 34.4446C46.7832 33.6553 46.6619 32.8198 46.7036 31.9843V31.6468L46.9616 31.4883L47.279 31.2897C46.7433 27.3214 47.4576 24.8413 49.4417 23.3532C51.1383 22.2881 53.1096 21.7432 55.1122 21.7857C57.1149 21.828 59.0616 22.4555 60.7116 23.5913L60.7512 23.7502ZM53.1719 63.8095C53.1719 64.399 52.9378 64.9643 52.5209 65.3809C52.1042 65.7976 51.5389 66.0317 50.9497 66.0317H18.2909C17.7014 66.0317 17.1363 65.7976 16.7195 65.3809C16.3028 64.9643 16.0687 64.399 16.0687 63.8095V16.1905C16.0687 15.6011 16.3028 15.0361 16.7195 14.6193C17.1363 14.2026 17.7014 13.9683 18.2909 13.9683H51.029C51.6183 13.9683 52.1836 14.2026 52.6005 14.6193C53.0171 15.0361 53.2512 15.6011 53.2512 16.1905V19.6627H57.2195V16.1905C57.2195 14.5487 56.5673 12.9741 55.4064 11.8131C54.2455 10.6522 52.6709 10 51.029 10H18.2909C16.649 10 15.0744 10.6522 13.9135 11.8131C12.7526 12.9741 12.1004 14.5487 12.1004 16.1905V63.8095C12.1004 65.4514 12.7526 67.026 13.9135 68.1869C15.0744 69.3478 16.649 70 18.2909 70H51.029C51.8419 70 52.6469 69.8401 53.3981 69.529C54.1491 69.2179 54.8314 68.7617 55.4064 68.1869C55.9812 67.6121 56.4372 66.9296 56.7483 66.1786C57.0594 65.4274 57.2195 64.6224 57.2195 63.8095V60.4764H53.2512L53.1719 63.8095ZM19.6401 22.6786H43.6877C43.9493 22.6736 44.1987 22.5674 44.3836 22.3823C44.5685 22.1974 44.6747 21.948 44.6798 21.6865C44.6798 21.4234 44.5752 21.1712 44.3893 20.9851C44.2032 20.799 43.9508 20.6944 43.6877 20.6944H19.6798C19.4167 20.6944 19.1643 20.799 18.9782 20.9851C18.7923 21.1712 18.6877 21.4234 18.6877 21.6865C18.6929 21.948 18.7988 22.1974 18.984 22.3823C19.1689 22.5674 19.4183 22.6736 19.6798 22.6786H19.6401ZM19.6798 31.0714H43.7274C43.9905 31.0714 44.2429 30.9671 44.4288 30.7809C44.6149 30.595 44.7195 30.3424 44.7195 30.0794C44.7143 29.8178 44.6082 29.5684 44.4233 29.3835C44.2383 29.1986 43.9889 29.0924 43.7274 29.0873H19.6798C19.4183 29.0924 19.1689 29.1986 18.984 29.3835C18.7988 29.5684 18.6929 29.8178 18.6877 30.0794C18.6877 30.3424 18.7923 30.595 18.9782 30.7809C19.1643 30.9671 19.4167 31.0714 19.6798 31.0714ZM44.7195 38.1153C44.7143 37.8538 44.6082 37.6044 44.4233 37.4194C44.2383 37.2343 43.9889 37.1282 43.7274 37.1232H19.6798C19.4183 37.1282 19.1689 37.2343 18.984 37.4194C18.7988 37.6044 18.6929 37.8538 18.6877 38.1153C18.6877 38.3784 18.7923 38.6305 18.9782 38.8167C19.1643 39.0026 19.4167 39.1073 19.6798 39.1073H43.7274C43.9905 39.1073 44.2429 39.0026 44.4288 38.8167C44.6149 38.6305 44.7195 38.3784 44.7195 38.1153ZM19.6798 44.8415C19.4167 44.8415 19.1643 44.9458 18.9782 45.1317C18.7923 45.3178 18.6877 45.5704 18.6877 45.8335C18.6929 46.095 18.7988 46.3444 18.984 46.5294C19.1689 46.7143 19.4183 46.8204 19.6798 46.8256H32.9933C33.2564 46.8256 33.5088 46.721 33.6947 46.5349C33.8808 46.3488 33.9854 46.0966 33.9854 45.8335C33.9854 45.5704 33.8808 45.3178 33.6947 45.1317C33.5088 44.9458 33.2564 44.8415 32.9933 44.8415H19.6798Z" fill="url(#paint0_linear_808_17821)"/>
<defs>
<linearGradient id="paint0_linear_808_17821" x1="69.6438" y1="68.6986" x2="69.6438" y2="10" gradientUnits="userSpaceOnUse">
<stop stop-color="#002D85"/>
<stop offset="1" stop-color="#013AA9"/>
</linearGradient>
</defs>
</svg>
