<svg width="81" height="80" viewBox="0 0 81 80" fill="none" xmlns="http://www.w3.org/2000/svg">
<path d="M47.4373 24.6202C47.9053 24.6202 48.3542 24.4344 48.6851 24.1035C49.016 23.7725 49.202 23.3235 49.202 22.8555C49.202 22.3875 49.3878 21.9388 49.7188 21.6079C50.0497 21.2768 50.4987 21.0908 50.9667 21.0908C51.4347 21.0908 51.8836 21.2768 52.2145 21.6079C52.5454 21.9388 52.7314 22.3875 52.7314 22.8555C52.7407 23.1707 52.6654 23.4825 52.5133 23.7589C52.3613 24.0351 52.1379 24.2655 51.8667 24.4261C51.0539 24.9179 50.3826 25.6124 49.9186 26.4414C49.4547 27.2705 49.2138 28.2056 49.2196 29.1557C49.2196 29.6237 49.4054 30.0725 49.7365 30.4034C50.0674 30.7344 50.5163 30.9204 50.9843 30.9204C51.4523 30.9204 51.9013 30.7344 52.2321 30.4034C52.563 30.0725 52.749 29.6237 52.749 29.1557C52.7414 28.8388 52.8194 28.5255 52.9747 28.2492C53.13 27.9728 53.3568 27.7434 53.6314 27.5851C54.4394 27.0882 55.107 26.3927 55.5703 25.5649C56.0337 24.7371 56.2774 23.8042 56.2784 22.8555C56.2784 21.4515 55.7206 20.1049 54.7278 19.1121C53.735 18.1192 52.3885 17.5614 50.9843 17.5614C49.5803 17.5614 48.2337 18.1192 47.2409 19.1121C46.248 20.1049 45.6902 21.4515 45.6902 22.8555C45.6902 23.3235 45.876 23.7725 46.2071 24.1035C46.538 24.4344 46.9869 24.6202 47.4549 24.6202H47.4373ZM52.749 35.5263C52.749 35.8752 52.6454 36.2165 52.4517 36.5066C52.2577 36.7969 51.9821 37.0229 51.6597 37.1565C51.3371 37.2901 50.9824 37.3251 50.64 37.2569C50.2977 37.1888 49.9832 37.0208 49.7365 36.7739C49.4896 36.5271 49.3216 36.2128 49.2535 35.8704C49.1854 35.5282 49.2203 35.1734 49.3539 34.8509C49.4875 34.5285 49.7137 34.2527 50.0039 34.0588C50.2941 33.8648 50.6353 33.7616 50.9843 33.7616C51.4523 33.7616 51.9013 33.9474 52.2321 34.2783C52.563 34.6094 52.749 35.0583 52.749 35.5263ZM68.6314 10.0791H33.3373C32.8693 10.0791 32.4203 10.2652 32.0894 10.5961C31.7584 10.9271 31.5726 11.3758 31.5726 11.8438V33.6555H12.1608C11.6928 33.6555 11.2439 33.8415 10.913 34.1726C10.5819 34.5035 10.3961 34.9522 10.3961 35.4202V68.1557C10.3961 68.6237 10.5819 69.0725 10.913 69.4034C11.2439 69.7342 11.6928 69.9204 12.1608 69.9204C12.6288 69.9204 13.0777 69.7342 13.4086 69.4034C13.7395 69.0725 13.9255 68.6237 13.9255 68.1557C13.9255 67.6875 14.1113 67.2386 14.4424 66.9077C14.7733 66.5768 15.2222 66.391 15.6902 66.391H47.4549C47.9229 66.391 48.3719 66.2048 48.7027 65.874C49.0336 65.5431 49.2196 65.0943 49.2196 64.6263V44.6145H65.102C65.57 44.6145 66.0189 44.8004 66.3498 45.1312C66.6807 45.4623 66.8667 45.9112 66.8667 46.3792C66.8667 46.8472 67.0525 47.296 67.3836 47.6269C67.7144 47.9579 68.1634 48.1439 68.6314 48.1439C69.0994 48.1439 69.5483 47.9579 69.8792 47.6269C70.2101 47.296 70.3961 46.8472 70.3961 46.3792V11.8438C70.3961 11.3758 70.2101 10.9271 69.8792 10.5961C69.5483 10.2652 69.0994 10.0791 68.6314 10.0791ZM45.6902 62.8085H15.6902C15.0891 62.8076 14.4925 62.9092 13.9255 63.1087V37.3439H31.5726V40.9791H19.2196C18.7375 40.9791 18.2751 41.1705 17.9344 41.5115C17.5934 41.8522 17.402 42.3148 17.402 42.7969C17.402 43.2788 17.5934 43.7412 17.9344 44.0819C18.2751 44.4229 18.7375 44.6145 19.2196 44.6145H45.6902V62.8085ZM66.8667 41.2969C66.303 41.083 65.7048 40.9754 65.102 40.9791H35.102V13.7145H66.8667V41.2969ZM40.3961 55.5202H19.2196C18.7375 55.5202 18.2751 55.7119 17.9344 56.0528C17.5934 56.3936 17.402 56.8559 17.402 57.3381C17.402 57.82 17.5934 58.2824 17.9344 58.6231C18.2751 58.9641 18.7375 59.1557 19.2196 59.1557H40.3961C40.8782 59.1557 41.3404 58.9641 41.6813 58.6231C42.0223 58.2824 42.2137 57.82 42.2137 57.3381C42.2137 56.8559 42.0223 56.3936 41.6813 56.0528C41.3404 55.7119 40.8782 55.5202 40.3961 55.5202ZM17.4549 50.0675C17.4549 50.5355 17.6407 50.9842 17.9718 51.3151C18.3027 51.646 18.7516 51.8322 19.2196 51.8322H40.3961C40.8782 51.8322 41.3404 51.6407 41.6813 51.2998C42.0223 50.959 42.2137 50.4965 42.2137 50.0144C42.2137 49.5324 42.0223 49.0701 41.6813 48.7293C41.3404 48.3884 40.8782 48.1967 40.3961 48.1967H19.2196C18.7516 48.1967 18.3027 48.3827 17.9718 48.7138C17.6407 49.0447 17.4549 49.4934 17.4549 49.9614" fill="url(#paint0_linear_808_17823)"/>
<defs>
<linearGradient id="paint0_linear_808_17823" x1="69.3229" y1="68.6225" x2="69.3229" y2="10.0791" gradientUnits="userSpaceOnUse">
<stop stop-color="#002D85"/>
<stop offset="1" stop-color="#013AA9"/>
</linearGradient>
</defs>
</svg>
