<svg width="81" height="80" viewBox="0 0 81 80" fill="none" xmlns="http://www.w3.org/2000/svg">
<path d="M52.6817 38.3925C49.6124 34.0258 46.2777 29.8519 42.6962 25.8943C43.1757 25.306 43.5185 24.6186 43.7001 23.882C43.8817 23.1453 43.8973 22.3772 43.746 21.6336C43.5947 20.89 43.2804 20.1894 42.8254 19.5821C42.3705 18.9749 41.7864 18.4762 41.1153 18.1221C41.5882 17.4207 42.2289 16.8486 42.9791 16.4578C43.6843 15.9604 44.1684 15.2086 44.3298 14.3611C44.4913 13.5134 44.3174 12.6362 43.8445 11.9144C43.4886 11.3214 42.983 10.8323 42.3783 10.4964C41.7736 10.1605 41.0912 9.98942 40.3997 10.0005H29.0826C28.3938 9.99235 27.7149 10.1647 27.1135 10.5005C26.512 10.8363 26.0089 11.3238 25.6543 11.9144C25.1798 12.6342 25.0032 13.51 25.1615 14.3574C25.3199 15.2048 25.8007 15.9579 26.503 16.4578C27.2554 16.8456 27.8968 17.4183 28.367 18.1221C27.6981 18.4784 27.1163 18.9782 26.6631 19.5856C26.21 20.193 25.8967 20.893 25.7456 21.6356C25.5945 22.3782 25.6095 23.1451 25.7892 23.8814C25.9691 24.6175 26.3095 25.305 26.7859 25.8943C22.0928 31.636 13.5718 39.8407 13.5718 47.5296C13.5718 60.3277 25.0385 63.6893 38.3525 62.8239C39.8896 65.0455 41.9445 66.8596 44.3395 68.1092C46.7345 69.3589 49.3978 70.0068 52.0992 69.997C54.1756 70.0374 56.2394 69.6685 58.1731 68.9112C60.1068 68.154 61.8724 67.0233 63.3692 65.5837C64.8659 64.1442 66.0643 62.424 66.8963 60.5214C67.7281 58.6187 68.1771 56.5706 68.2175 54.4943C68.258 52.418 67.8892 50.3541 67.132 48.4206C66.3747 46.4869 65.244 44.7211 63.8046 43.2245C62.365 41.7277 60.6447 40.5294 58.742 39.6974C56.8392 38.8655 54.7913 38.4166 52.715 38.3762L52.6817 38.3925ZM38.3858 24.4129H31.0964C30.6374 24.4615 30.1779 24.3257 29.8189 24.0355C29.4599 23.7452 29.2311 23.3242 29.1825 22.8652C29.1339 22.4062 29.2698 21.9467 29.5601 21.5877C29.8503 21.2287 30.2712 20.9997 30.7302 20.9513C30.9236 20.9752 31.1193 20.9752 31.3127 20.9513H38.2693C38.4404 20.9761 38.6141 20.9761 38.7852 20.9513C39.2465 20.9975 39.6704 21.2254 39.9638 21.5842C40.2573 21.9432 40.3961 22.4038 40.3496 22.8652C40.3034 23.3263 40.0757 23.7502 39.7167 24.0436C39.3579 24.337 38.8971 24.476 38.4357 24.4297L38.3858 24.4129ZM29.1325 13.5787C41.0985 13.5787 40.5826 13.4289 40.7823 13.7451C39.3486 14.6331 38.1949 15.908 37.4538 17.423H32.1116C31.3706 15.908 30.2168 14.6331 28.7831 13.7451C28.807 13.6914 28.8473 13.6465 28.8979 13.6167C28.9486 13.5869 29.0074 13.5736 29.066 13.5787H29.1325ZM17.2 47.5128C17.2 41.1886 25.5211 33.2002 29.8482 27.7914C30.2511 27.8912 30.6647 27.9416 31.0797 27.9411C38.4191 27.9411 38.5356 28.041 39.6007 27.808C42.1637 30.9867 45.8252 34.7979 48.6045 38.7422C44.7902 39.5295 41.377 41.6398 38.9683 44.7002C37.1709 42.5367 34.1087 42.4701 33.5095 41.3717C33.4398 41.1755 33.4416 40.9609 33.5147 40.7661C33.5878 40.5712 33.7274 40.4084 33.909 40.3066C34.2505 40.1483 34.6262 40.0792 35.0017 40.1053C35.377 40.1316 35.7396 40.2523 36.0558 40.4565C36.4173 40.772 36.886 40.9376 37.3654 40.919C37.8451 40.9005 38.2994 40.6991 38.6354 40.3565C38.8027 40.1924 38.9335 39.9948 39.019 39.7767C39.1048 39.5585 39.1432 39.3246 39.1322 39.0906C39.1212 38.8565 39.0608 38.6273 38.9551 38.4181C38.8495 38.2089 38.701 38.0245 38.5191 37.8767C37.9293 37.3668 37.2281 37.002 36.4719 36.8116V36.6618C36.4286 36.2087 36.2179 35.7878 35.8809 35.4815C35.5439 35.1753 35.1049 35.0056 34.6495 35.0056C34.1942 35.0056 33.7552 35.1753 33.4183 35.4815C33.0813 35.7878 32.8706 36.2087 32.8272 36.6618V36.9283C32.2259 37.1222 31.6745 37.4454 31.2115 37.8754C30.7485 38.3053 30.3852 38.8314 30.1474 39.4167C29.9094 40.002 29.8026 40.6324 29.8342 41.2633C29.866 41.8944 30.0354 42.5107 30.3308 43.0692C31.2114 44.3637 32.5291 45.2971 34.0423 45.6987C35.0408 46.0815 36.5052 46.5974 36.3887 47.6459C36.3394 47.9164 36.2241 48.1703 36.0527 48.3852C35.8814 48.6 35.6596 48.7693 35.407 48.8775C34.8772 49.0241 34.323 49.06 33.7788 48.9826C33.2348 48.9054 32.7125 48.7165 32.2447 48.4281C31.8381 48.171 31.3475 48.0809 30.876 48.1771C30.4045 48.2733 29.9886 48.5483 29.715 48.944C29.5769 49.1343 29.4807 49.3514 29.4326 49.5814C29.3845 49.8114 29.3857 50.0489 29.4359 50.2784C29.4862 50.5079 29.5846 50.7243 29.7244 50.913C29.8643 51.1019 30.0427 51.2588 30.2476 51.3738C31.0426 51.8548 31.9157 52.1927 32.8272 52.3724V52.5887C32.8377 52.9149 32.935 53.2326 33.1094 53.5086C33.2839 53.7845 33.529 54.0089 33.8193 54.1583C34.1097 54.3078 34.4345 54.3767 34.7606 54.3582C35.0864 54.3397 35.4016 54.2345 35.6731 54.0533C35.6649 55.8427 35.9806 57.6188 36.605 59.2957C26.1202 59.6119 17.2165 57.6314 17.2165 47.4462L17.2 47.5128ZM52.1658 66.4021C49.7538 66.3138 47.4209 65.518 45.458 64.1134C43.4951 62.7087 41.9889 60.7574 41.1272 58.5028C40.2652 56.2481 40.0858 53.79 40.6114 51.4341C41.1368 49.0783 42.3439 46.9293 44.082 45.2545C45.8202 43.5798 48.0128 42.4536 50.3866 42.0162C52.7603 41.5789 55.2102 41.8496 57.4312 42.7948C59.6521 43.7399 61.5459 45.3176 62.8765 47.3314C64.207 49.3453 64.9157 51.7062 64.914 54.1199C64.8441 57.4364 63.4638 60.5903 61.0749 62.892C58.6859 65.1936 55.4827 66.4556 52.1658 66.4021ZM54.6955 49.1271L46.9733 56.5663C46.7991 56.7224 46.6596 56.9136 46.5641 57.1272C46.4686 57.3409 46.4193 57.5722 46.4193 57.8062C46.4193 58.0402 46.4686 58.2717 46.5641 58.4854C46.6596 58.6989 46.7991 58.8899 46.9733 59.046C47.3155 59.3814 47.7757 59.5693 48.2548 59.5693C48.7341 59.5693 49.1941 59.3814 49.5363 59.046L57.2751 51.6068C57.4495 51.4507 57.589 51.2595 57.6843 51.046C57.7798 50.8323 57.8293 50.601 57.8293 50.367C57.8293 50.133 57.7798 49.9016 57.6843 49.6881C57.589 49.4744 57.4495 49.2832 57.2751 49.1271C56.9261 48.7982 56.4649 48.6152 55.9853 48.6152C55.5058 48.6152 55.0445 48.7982 54.6955 49.1271ZM49.4531 51.5068C49.6275 51.3509 49.767 51.1598 49.8625 50.9461C49.9578 50.7326 50.0071 50.5011 50.0071 50.2671C50.0071 50.0329 49.9578 49.8018 49.8625 49.5881C49.767 49.3744 49.6275 49.1833 49.4531 49.0272C49.1041 48.6984 48.6428 48.5152 48.1633 48.5152C47.6838 48.5152 47.2225 48.6984 46.8735 49.0272C46.6992 49.1833 46.5598 49.3744 46.4643 49.5881C46.3687 49.8018 46.3195 50.0329 46.3195 50.2671C46.3195 50.5011 46.3687 50.7326 46.4643 50.9461C46.5598 51.1598 46.6992 51.3509 46.8735 51.5068C47.2225 51.8357 47.6838 52.0191 48.1633 52.0191C48.6428 52.0191 49.1041 51.8357 49.4531 51.5068ZM54.6289 56.4996C54.4547 56.6557 54.3152 56.8469 54.2197 57.0606C54.1243 57.2743 54.0749 57.5054 54.0749 57.7394C54.0749 57.9736 54.1243 58.2051 54.2197 58.4186C54.3152 58.6323 54.4547 58.8235 54.6289 58.9796C54.9752 59.3073 55.4337 59.4899 55.9104 59.4899C56.387 59.4899 56.8457 59.3073 57.1919 58.9796C57.3663 58.8235 57.5057 58.6323 57.6011 58.4186C57.6966 58.2051 57.7461 57.9736 57.7461 57.7394C57.7461 57.5054 57.6966 57.2743 57.6011 57.0606C57.5057 56.8469 57.3663 56.6557 57.1919 56.4996C56.8457 56.1719 56.387 55.9893 55.9104 55.9893C55.4337 55.9893 54.9752 56.1719 54.6289 56.4996Z" fill="url(#paint0_linear_808_17831)"/>
<defs>
<linearGradient id="paint0_linear_808_17831" x1="67.2431" y1="68.6986" x2="67.2431" y2="10" gradientUnits="userSpaceOnUse">
<stop stop-color="#002D85"/>
<stop offset="1" stop-color="#013AA9"/>
</linearGradient>
</defs>
</svg>
