<svg width="81" height="80" viewBox="0 0 81 80" fill="none" xmlns="http://www.w3.org/2000/svg">
<path fill-rule="evenodd" clip-rule="evenodd" d="M33.8978 10.8955H69.4176C70.3565 10.8955 71.1388 11.6779 70.8259 12.6167V46.2589C70.8259 47.1977 70.0435 47.9801 69.1047 47.9801C68.1658 47.9801 67.3834 47.1977 67.3834 46.2589C67.3834 45.32 66.6011 44.5376 65.6622 44.5376H49.7018V63.9405C49.7018 64.8794 48.9194 65.6617 47.9805 65.6617H16.0596C15.1208 65.6617 14.3384 66.4441 14.3384 67.383C14.3384 68.3218 13.5561 69.1042 12.6173 69.1042C11.6784 69.1042 10.896 68.3218 10.896 67.383V35.6186C10.896 34.6797 11.6784 33.8973 12.6173 33.8973H32.1766V12.6167C32.1766 11.6779 32.9589 10.8955 33.8978 10.8955ZM16.0596 62.0628H46.2593V44.3812H19.6586C18.7198 44.3812 17.9373 43.5988 17.9373 42.6599C17.9373 41.7211 18.7198 40.9387 19.6586 40.9387H32.1766V37.3398H14.3384V62.3758C14.8079 62.2193 15.4337 62.0628 16.0596 62.0628ZM67.23 41.1719C67.3297 41.198 67.4325 41.2248 67.5399 41.2517V14.4944H35.619V40.9387H65.8187C66.3372 40.9387 66.7483 41.0461 67.23 41.1719ZM47.9804 24.9783C48.9192 24.9783 49.7016 24.1959 49.7016 23.257C49.7016 22.3182 50.484 21.5358 51.4228 21.5358C52.3617 21.5358 53.1441 22.3182 53.1441 23.257C53.1441 23.8829 52.8311 24.5088 52.2052 24.8218C50.6405 25.7606 49.5451 27.4819 49.5451 29.3596C49.5451 30.2984 50.3275 31.0808 51.2664 31.0808C52.2052 31.0808 52.9876 30.2984 52.9876 29.3596C52.9876 28.7337 53.3005 28.1078 53.9264 27.7948C55.4912 26.856 56.5865 25.1347 56.5865 23.257C56.5865 20.284 54.2394 17.9369 51.2664 17.9369C48.2933 17.9369 45.9462 20.284 45.9462 23.257C46.2592 24.1959 47.0415 24.9783 47.9804 24.9783ZM53.3005 35.6185C53.3005 36.5574 52.5182 37.3398 51.5793 37.3398C50.6405 37.3398 49.8581 36.5574 49.8581 35.6185C49.8581 34.6797 50.6405 33.8973 51.5793 33.8973C52.5182 33.7408 53.3005 34.5232 53.3005 35.6185ZM40.9392 55.0214H19.6586C18.7198 55.0214 17.9373 55.8037 17.9373 56.7426C17.9373 57.6814 18.7198 58.4638 19.6586 58.4638H40.9392C41.878 58.4638 42.6604 57.6814 42.6604 56.7426C42.6604 55.8037 41.878 55.0214 40.9392 55.0214ZM19.6586 51.4225C18.7198 51.4225 17.9373 50.6401 17.9373 49.7012C17.9373 48.7624 18.7198 47.98 19.6586 47.98H40.9392C41.878 47.98 42.6604 48.7624 42.6604 49.7012C42.6604 50.6401 41.878 51.4225 40.9392 51.4225H19.6586Z" fill="url(#paint0_linear_808_17924)"/>
<defs>
<linearGradient id="paint0_linear_808_17924" x1="69.8228" y1="67.8417" x2="69.8228" y2="10.8955" gradientUnits="userSpaceOnUse">
<stop stop-color="#002D85"/>
<stop offset="1" stop-color="#013AA9"/>
</linearGradient>
</defs>
</svg>
