<svg width="81" height="80" viewBox="0 0 81 80" fill="none" xmlns="http://www.w3.org/2000/svg">
<path d="M56.3207 70H12.2965V44.7794L29.7237 46.2328C30.577 43.9642 32.1669 42.0473 34.239 40.7897C35.2282 40.1937 36.0467 39.3525 36.6156 38.3476C37.1845 37.3425 37.4844 36.2077 37.4863 35.0529V31.5892C37.4905 30.3082 38.0022 29.081 38.9094 28.1767C39.8166 27.2724 41.0454 26.7646 42.3263 26.7646C42.7619 26.7691 43.1966 26.8104 43.6253 26.8881C43.2684 25.6886 43.086 24.444 43.084 23.1924C43.087 20.2989 44.0401 17.4865 45.7971 15.1874C47.554 12.8883 50.0175 11.2298 52.8086 10.467C55.5999 9.70429 58.5643 9.8795 61.2464 10.9656C63.9283 12.0516 66.1794 13.9884 67.6535 16.4784C69.1274 18.9683 69.7429 21.8735 69.4052 24.7472C69.0674 27.6209 67.7951 30.3045 65.7838 32.3847C63.7726 34.465 61.1338 35.8272 58.2731 36.2617C55.4124 36.6962 52.4881 36.1791 49.9498 34.7899V41.3928C49.9498 41.9669 50.1779 42.5177 50.5838 42.9236C50.9898 43.3297 51.5405 43.5578 52.1146 43.5578H59.1196C60.581 48.9409 62.1898 54.2829 63.9441 59.5777C63.9393 60.5233 63.6568 61.4464 63.1317 62.2327C62.6067 63.0189 61.8621 63.6336 60.9906 64.0002C61.0962 64.3829 61.1482 64.7785 61.1452 65.1754C61.1452 66.455 60.637 67.6822 59.7322 68.587C58.8274 69.4917 57.6003 70 56.3207 70ZM13.6418 68.7476H56.3207C57.2653 68.7436 58.1699 68.3652 58.8364 67.6958C59.503 67.0264 59.8773 66.1202 59.8773 65.1754C59.8814 64.7189 59.7921 64.2663 59.6144 63.8457L59.3515 63.1963L60.0319 63.0106C60.6217 62.8561 61.1616 62.5518 61.5994 62.1273C62.037 61.7028 62.3579 61.1726 62.5305 60.5878C62.703 60.0031 62.7217 59.3836 62.5847 58.7895C62.4477 58.1953 62.1596 57.6466 61.7483 57.1965L61.3772 56.779L61.7483 56.3615C62.3438 55.7114 62.6741 54.8617 62.6741 53.9801C62.6741 53.0984 62.3438 52.249 61.7483 51.5987L61.3772 51.1812L61.7483 50.7637C62.213 50.2542 62.5196 49.6205 62.6308 48.94C62.7418 48.2593 62.6528 47.5613 62.3741 46.9304C62.0956 46.2995 61.6396 45.763 61.0617 45.3866C60.4839 45.0103 59.8092 44.8102 59.1196 44.8103H52.1146C51.2068 44.8103 50.336 44.4508 49.6926 43.8103C49.0493 43.1698 48.6858 42.3006 48.6818 41.3928V34.388C48.6969 34.2286 48.6969 34.0681 48.6818 33.9087L48.4962 32.3623L49.6405 33.151C52.0107 34.761 54.88 35.4672 57.7266 35.1414C60.5734 34.8156 63.2088 33.4794 65.154 31.3754C67.0991 29.2715 68.2248 26.5394 68.3267 23.6758C68.4286 20.8123 67.4998 18.0073 65.7091 15.7705C63.9183 13.5336 61.3846 12.0134 58.5681 11.4862C55.7518 10.9589 52.8396 11.4596 50.3609 12.8972C47.8823 14.3347 46.0017 16.6137 45.0607 19.3201C44.1198 22.0266 44.1812 24.9807 45.2334 27.6458L45.7437 28.9295L44.4448 28.4654C43.7802 28.2232 43.08 28.0927 42.3727 28.0788C41.4253 28.0788 40.5168 28.4553 39.8469 29.1252C39.1771 29.7951 38.8007 30.7037 38.8007 31.651V35.1148C38.7931 36.4872 38.4337 37.8347 37.7571 39.0286C37.0802 40.2225 36.1085 41.2228 34.9348 41.9341C32.9939 43.0985 31.5346 44.9198 30.8216 47.068L30.667 47.5319H30.1412L13.6109 46.1556L13.6418 68.7476ZM56.398 67.2013H31.8886V48.4133L32.1978 47.4855C32.8065 45.6874 34.0341 44.1638 35.6616 43.1867C37.0688 42.3439 38.2349 41.1526 39.0475 39.728C39.8601 38.3032 40.2917 36.693 40.3006 35.0529V31.5892C40.3047 31.0504 40.5216 30.5353 40.9039 30.1559C41.2863 29.7764 41.8031 29.5635 42.3418 29.5635C43.6214 29.5635 44.8486 30.0717 45.7533 30.9766C46.6581 31.8814 47.1664 33.1086 47.1664 34.388V41.3928C47.1664 42.7093 47.6893 43.9719 48.6202 44.9028C49.5511 45.8337 50.8137 46.3567 52.1301 46.3567H59.135C59.6722 46.3567 60.1874 46.5701 60.5674 46.95C60.9473 47.3299 61.1607 47.845 61.1607 48.3824C61.1607 48.9196 60.9473 49.4348 60.5674 49.8146C60.1874 50.1945 59.6722 50.4081 59.135 50.4081H49.9652V51.9544H59.135C59.6722 51.9544 60.1874 52.1678 60.5674 52.5477C60.9473 52.9277 61.1607 53.4428 61.1607 53.9801C61.1607 54.5173 60.9473 55.0327 60.5674 55.4125C60.1874 55.7924 59.6722 56.0058 59.135 56.0058H49.9652V57.5521H59.135C59.401 57.5521 59.6645 57.6046 59.9102 57.7063C60.1561 57.8082 60.3794 57.9573 60.5674 58.1455C60.7554 58.3335 60.9046 58.5568 61.0065 58.8025C61.1083 59.0482 61.1607 59.3117 61.1607 59.5777C61.1607 59.8438 61.1083 60.1073 61.0065 60.353C60.9046 60.5987 60.7554 60.8222 60.5674 61.0102C60.3794 61.1984 60.1561 61.3475 59.9102 61.4494C59.6645 61.5511 59.401 61.6035 59.135 61.6035H49.9652V63.1499H56.3361C56.6021 63.1499 56.8656 63.2023 57.1113 63.3041C57.3572 63.406 57.5805 63.555 57.7685 63.7432C57.9567 63.9312 58.1058 64.1547 58.2077 64.4004C58.3094 64.6463 58.3618 64.9095 58.3618 65.1754C58.3618 65.4415 58.3094 65.7049 58.2077 65.9508C58.1058 66.1965 57.9567 66.4199 57.7685 66.608C57.5805 66.7961 57.3572 66.9452 57.1113 67.0471C56.8656 67.1489 56.6021 67.2013 56.3361 67.2013H56.398ZM33.1411 65.9486H56.3361C56.5412 65.9486 56.7379 65.8673 56.8829 65.7224C57.0278 65.5773 57.1093 65.3805 57.1093 65.1754C57.1093 64.9704 57.0278 64.7738 56.8829 64.6288C56.7379 64.4839 56.5412 64.4023 56.3361 64.4023H48.6972V60.3974H59.135C59.3401 60.3974 59.5368 60.3159 59.6816 60.1709C59.8267 60.0258 59.9082 59.8293 59.9082 59.6242C59.9082 59.4192 59.8267 59.2225 59.6816 59.0776C59.5368 58.9326 59.3401 58.8511 59.135 58.8511H48.6972V54.7997H59.135C59.3401 54.7997 59.5368 54.7182 59.6816 54.5731C59.8267 54.4281 59.9082 54.2315 59.9082 54.0265C59.9082 53.8214 59.8267 53.6248 59.6816 53.4799C59.5368 53.3348 59.3401 53.2533 59.135 53.2533H48.6972V49.2019H59.135C59.3401 49.2019 59.5368 49.1204 59.6816 48.9754C59.8267 48.8303 59.9082 48.6338 59.9082 48.4288C59.9082 48.2237 59.8267 48.027 59.6816 47.8821C59.5368 47.7371 59.3401 47.6556 59.135 47.6556H52.1301C51.3113 47.6582 50.5001 47.4983 49.7436 47.1852C48.987 46.8719 48.3003 46.4116 47.723 45.8308C47.1443 45.2554 46.685 44.5713 46.3719 43.8174C46.0586 43.0637 45.8978 42.2555 45.8984 41.4393V34.4343C45.8984 33.491 45.5237 32.5864 44.8566 31.9195C44.1897 31.2525 43.2851 30.8778 42.3418 30.8778C42.241 30.8758 42.1408 30.8938 42.0471 30.9309C41.9534 30.968 41.868 31.0237 41.7959 31.0942C41.724 31.1647 41.6668 31.2491 41.6277 31.342C41.5887 31.435 41.5686 31.5347 41.5686 31.6355V35.0993C41.5725 36.9636 41.0948 38.7974 40.1819 40.4229C39.2689 42.0484 37.9516 43.4106 36.3575 44.3774C34.9871 45.1972 33.9557 46.4808 33.4504 47.9958L33.172 48.8153L33.1411 65.9486ZM30.3422 67.2013H15.0799V47.8257L30.3422 49.0935V67.2013ZM16.3479 65.9486H29.1052V50.2533L16.3788 49.1865L16.3479 65.9486ZM56.3052 10.6054C53.8113 10.6023 51.3726 11.3391 49.2977 12.7228C47.2228 14.1064 45.6052 16.0746 44.6494 18.378C43.6936 20.6814 43.4428 23.2167 43.9285 25.6627C44.4144 28.1088 45.6149 30.3559 47.3784 32.1194C49.1418 33.8828 51.3888 35.0834 53.8349 35.5691C56.2809 36.055 58.8163 35.804 61.1197 34.8482C63.4232 33.8924 65.3913 32.2748 66.7748 30.2001C68.1585 28.1252 68.8955 25.6863 68.8924 23.1924C68.8884 19.8554 67.5608 16.6563 65.2011 14.2966C62.8414 11.937 59.6422 10.6095 56.3052 10.6054ZM56.3052 32.9963C54.4091 33.0133 52.5495 32.476 50.9549 31.45C51.2931 30.2949 51.9964 29.2806 52.9596 28.559C53.9228 27.8373 55.094 27.4471 56.2975 27.4471C57.501 27.4471 58.6722 27.8373 59.6354 28.559C60.5985 29.2806 61.3019 30.2949 61.6401 31.45C60.0498 32.473 58.1959 33.0104 56.3052 32.9963ZM53.5063 21.8008C53.5063 21.2473 53.6706 20.7062 53.978 20.2458C54.2855 19.7856 54.7227 19.4269 55.2341 19.215C55.7456 19.0032 56.3083 18.9477 56.8512 19.0557C57.3942 19.1637 57.8928 19.4303 58.2844 19.8217C58.6758 20.2131 58.9423 20.7119 59.0503 21.2548C59.1584 21.7978 59.1029 22.3605 58.891 22.8718C58.6792 23.3834 58.3204 23.8204 57.8602 24.1279C57.3999 24.4355 56.8588 24.5996 56.3052 24.5996C55.5628 24.5996 54.851 24.3047 54.3261 23.7798C53.8012 23.255 53.5063 22.5432 53.5063 21.8008ZM63.8513 29.4087C63.0989 27.8215 61.8652 26.5122 60.3257 25.6667C61.326 24.6292 61.8808 23.2419 61.872 21.8008C61.9119 21.0421 61.7969 20.283 61.534 19.5701C61.2711 18.8571 60.8658 18.2052 60.3429 17.654C59.8199 17.1027 59.1901 16.6636 58.4919 16.3636C57.7939 16.0636 57.0419 15.909 56.282 15.909C55.5222 15.909 54.7702 16.0636 54.072 16.3636C53.3738 16.6636 52.7442 17.1027 52.2212 17.654C51.6982 18.2052 51.2929 18.8571 51.0299 19.5701C50.767 20.283 50.6521 21.0421 50.692 21.8008C50.683 23.2419 51.238 24.6292 52.2384 25.6667C50.6943 26.5138 49.4597 27.8295 48.7127 29.4241C47.5268 27.9908 46.7733 26.2497 46.5401 24.4039C46.3069 22.5582 46.6037 20.6841 47.3958 19.0008C48.1879 17.3174 49.4426 15.8943 51.0133 14.8975C52.5841 13.9006 54.4062 13.3711 56.2666 13.3711C58.127 13.3711 59.9488 13.9006 61.5196 14.8975C63.0905 15.8943 64.3452 17.3174 65.1373 19.0008C65.9295 20.6841 66.2262 22.5582 65.993 24.4039C65.7598 26.2497 65.0063 27.9908 63.8204 29.4241" fill="url(#paint0_linear_808_17835)"/>
<defs>
<linearGradient id="paint0_linear_808_17835" x1="68.4724" y1="68.6986" x2="68.4724" y2="10" gradientUnits="userSpaceOnUse">
<stop stop-color="#002D85"/>
<stop offset="1" stop-color="#013AA9"/>
</linearGradient>
</defs>
</svg>
