<svg width="81" height="80" viewBox="0 0 81 80" fill="none" xmlns="http://www.w3.org/2000/svg">
<path d="M47.5412 24.6205C48.0092 24.6205 48.4581 24.4347 48.789 24.1038C49.1199 23.7727 49.3059 23.3238 49.3059 22.8558C49.3059 22.3878 49.4917 21.939 49.8228 21.6081C50.1536 21.2771 50.6026 21.0911 51.0706 21.0911C51.5386 21.0911 51.9875 21.2771 52.3184 21.6081C52.6493 21.939 52.8353 22.3878 52.8353 22.8558C52.8446 23.171 52.7693 23.4828 52.6172 23.7591C52.4652 24.0353 52.2418 24.2658 51.9706 24.4264C51.1578 24.9182 50.4865 25.6126 50.0225 26.4417C49.5586 27.2707 49.3177 28.2058 49.3235 29.156C49.3235 29.624 49.5094 30.0727 49.8404 30.4036C50.1713 30.7347 50.6202 30.9207 51.0882 30.9207C51.5562 30.9207 52.0052 30.7347 52.3361 30.4036C52.6669 30.0727 52.8529 29.624 52.8529 29.156C52.8454 28.839 52.9234 28.5258 53.0786 28.2494C53.2339 27.9731 53.4607 27.7437 53.7353 27.5854C54.5434 27.0884 55.2109 26.393 55.6742 25.5651C56.1376 24.7373 56.3813 23.8045 56.3824 22.8558C56.3824 21.4518 55.8245 20.1051 54.8317 19.1123C53.8389 18.1194 52.4924 17.5617 51.0882 17.5617C49.6842 17.5617 48.3376 18.1194 47.3448 19.1123C46.3519 20.1051 45.7941 21.4518 45.7941 22.8558C45.7941 23.3238 45.9799 23.7727 46.311 24.1038C46.6419 24.4347 47.0908 24.6205 47.5588 24.6205H47.5412ZM52.8529 35.5265C52.8529 35.8754 52.7493 36.2167 52.5556 36.5068C52.3616 36.7971 52.086 37.0232 51.7636 37.1568C51.441 37.2904 51.0863 37.3253 50.7439 37.2572C50.4016 37.1891 50.0871 37.0211 49.8404 36.7742C49.5935 36.5273 49.4255 36.213 49.3574 35.8707C49.2893 35.5285 49.3242 35.1736 49.4578 34.8512C49.5914 34.5288 49.8176 34.253 50.1078 34.059C50.3981 33.8651 50.7392 33.7618 51.0882 33.7618C51.5562 33.7618 52.0052 33.9477 52.3361 34.2785C52.6669 34.6096 52.8529 35.0585 52.8529 35.5265ZM68.7353 10.0793H33.4412C32.9732 10.0793 32.5242 10.2654 32.1934 10.5964C31.8623 10.9273 31.6765 11.376 31.6765 11.8441V33.6558H12.2647C11.7967 33.6558 11.3478 33.8418 11.0169 34.1728C10.6858 34.5037 10.5 34.9525 10.5 35.4205V68.156C10.5 68.624 10.6858 69.0727 11.0169 69.4036C11.3478 69.7345 11.7967 69.9207 12.2647 69.9207C12.7327 69.9207 13.1816 69.7345 13.5125 69.4036C13.8434 69.0727 14.0294 68.624 14.0294 68.156C14.0294 67.6878 14.2152 67.2388 14.5463 66.908C14.8772 66.5771 15.3261 66.3913 15.7941 66.3913H47.5588C48.0268 66.3913 48.4758 66.2051 48.8066 65.8742C49.1375 65.5433 49.3235 65.0945 49.3235 64.6265V44.6148H65.2059C65.6739 44.6148 66.1228 44.8006 66.4537 45.1315C66.7846 45.4625 66.9706 45.9115 66.9706 46.3795C66.9706 46.8475 67.1564 47.2962 67.4875 47.6271C67.8184 47.9582 68.2673 48.1442 68.7353 48.1442C69.2033 48.1442 69.6522 47.9582 69.9831 47.6271C70.314 47.2962 70.5 46.8475 70.5 46.3795V11.8441C70.5 11.376 70.314 10.9273 69.9831 10.5964C69.6522 10.2654 69.2033 10.0793 68.7353 10.0793ZM45.7941 62.8087H15.7941C15.1931 62.8078 14.5964 62.9095 14.0294 63.1089V37.3442H31.6765V40.9793H19.3235C18.8414 40.9793 18.3791 41.1708 18.0383 41.5117C17.6974 41.8525 17.5059 42.315 17.5059 42.7971C17.5059 43.2791 17.6974 43.7414 18.0383 44.0822C18.3791 44.4231 18.8414 44.6148 19.3235 44.6148H45.7941V62.8087ZM66.9706 41.2971C66.4069 41.0832 65.8087 40.9756 65.2059 40.9793H35.2059V13.7147H66.9706V41.2971ZM40.5 55.5205H19.3235C18.8414 55.5205 18.3791 55.7121 18.0383 56.0531C17.6974 56.3938 17.5059 56.8562 17.5059 57.3383C17.5059 57.8202 17.6974 58.2826 18.0383 58.6234C18.3791 58.9643 18.8414 59.156 19.3235 59.156H40.5C40.9821 59.156 41.4443 58.9643 41.7852 58.6234C42.1262 58.2826 42.3176 57.8202 42.3176 57.3383C42.3176 56.8562 42.1262 56.3938 41.7852 56.0531C41.4443 55.7121 40.9821 55.5205 40.5 55.5205ZM17.5588 50.0677C17.5588 50.5357 17.7446 50.9845 18.0757 51.3154C18.4066 51.6462 18.8555 51.8324 19.3235 51.8324H40.5C40.9821 51.8324 41.4443 51.641 41.7852 51.3C42.1262 50.9593 42.3176 50.4967 42.3176 50.0146C42.3176 49.5327 42.1262 49.0703 41.7852 48.7295C41.4443 48.3886 40.9821 48.197 40.5 48.197H19.3235C18.8555 48.197 18.4066 48.383 18.0757 48.714C17.7446 49.0449 17.5588 49.4937 17.5588 49.9617" fill="url(#paint0_linear_720_18971)"/>
<defs>
<linearGradient id="paint0_linear_720_18971" x1="12.1605" y1="10.0793" x2="75.0294" y2="34.2978" gradientUnits="userSpaceOnUse">
<stop stop-color="#002D85"/>
<stop offset="1" stop-color="#DE0000"/>
</linearGradient>
</defs>
</svg>
