<svg width="81" height="80" viewBox="0 0 81 80" fill="none" xmlns="http://www.w3.org/2000/svg">
<path d="M45.1931 41.5425C44.965 41.5295 44.7457 41.4498 44.5622 41.3136C44.3789 41.1774 44.2396 40.9904 44.1612 40.7758C44.0828 40.5613 44.069 40.3285 44.1213 40.1063C44.1737 39.8839 44.29 39.6818 44.456 39.5249C44.6219 39.3679 44.8303 39.2629 45.0552 39.223C45.2799 39.1831 45.5117 39.2098 45.7216 39.2999C45.9315 39.3901 46.1103 39.5396 46.2361 39.7303C46.3619 39.921 46.4291 40.1442 46.4296 40.3726C46.4252 40.5307 46.3898 40.6863 46.3253 40.8305C46.2608 40.9749 46.1684 41.1052 46.0536 41.2138C45.9388 41.3224 45.8038 41.4073 45.6561 41.4636C45.5084 41.5201 45.351 41.5468 45.1931 41.5425ZM36.6041 40.3726C36.6175 40.1257 36.5565 39.8804 36.429 39.6685C36.3015 39.4566 36.1134 39.2878 35.889 39.1839C35.6645 39.08 35.4141 39.0457 35.1699 39.0855C34.9258 39.1254 34.6994 39.2377 34.5196 39.4076C34.34 39.5776 34.2153 39.7975 34.162 40.0389C34.1085 40.2804 34.1289 40.5324 34.2201 40.7621C34.3115 40.9921 34.4696 41.1894 34.6741 41.3284C34.8787 41.4675 35.1203 41.5422 35.3676 41.5425C35.5255 41.5468 35.6829 41.5201 35.8306 41.4636C35.9784 41.4073 36.1134 41.3224 36.2282 41.2138C36.343 41.1052 36.4354 40.9749 36.4999 40.8305C36.5644 40.6863 36.5998 40.5307 36.6041 40.3726ZM40.2803 45.0683C45.1095 45.0683 48.8858 47.6583 48.8858 50.9502C48.8858 54.242 45.1095 56.8154 40.2803 56.8154C35.4512 56.8154 31.6747 54.242 31.6747 50.9502C31.6747 47.6583 35.4679 45.0683 40.2803 45.0683ZM34.1979 50.8999C34.1979 52.8048 37.0219 54.4257 40.3472 54.4257C43.6724 54.4257 46.4964 52.7547 46.4964 50.8999C46.4964 49.0451 43.6724 47.3743 40.3472 47.3743C37.0219 47.3743 34.1979 49.0451 34.1979 50.8999ZM55.8373 58.6535C55.6083 58.6632 55.3873 58.74 55.2016 58.8744C55.016 59.0087 54.8738 59.1947 54.7929 59.4091C54.712 59.6235 54.696 59.8569 54.7466 60.0805C54.7973 60.3039 54.9124 60.5076 55.0778 60.6662C55.2432 60.8249 55.4516 60.9314 55.677 60.9726C55.9024 61.0139 56.1349 60.988 56.3458 60.8981C56.5566 60.8084 56.7364 60.6585 56.8628 60.4673C56.9893 60.2763 57.0568 60.0523 57.0571 59.823C57.0482 59.5068 56.9154 59.2069 56.6871 58.988C56.4589 58.7689 56.1534 58.649 55.8373 58.6535ZM61.2346 32.1012C61.2296 34.5161 60.3647 36.85 58.7948 38.6849C60.3627 41.7372 61.198 45.1126 61.2346 48.5438C61.2361 51.0078 60.7771 53.4505 59.8811 55.7459C59.8172 55.9012 59.723 56.042 59.6039 56.1602C59.4846 56.2783 59.3429 56.3714 59.1869 56.4337C59.031 56.4961 58.8643 56.5265 58.6965 56.5231C58.5287 56.5198 58.3633 56.4829 58.2101 56.4143C58.062 56.3657 57.9255 56.2875 57.8086 56.1846C57.6916 56.0818 57.5965 55.9563 57.5293 55.8158C57.4621 55.6753 57.4242 55.5225 57.4177 55.367C57.4112 55.2112 57.4363 55.056 57.4916 54.9104C58.2881 52.8824 58.6962 50.7226 58.6945 48.5438C58.6481 45.2184 57.7753 41.9569 56.1548 39.0527C56.0418 38.8347 56.0004 38.5863 56.0365 38.3434C56.0724 38.1006 56.184 37.875 56.3553 37.6991C57.8395 36.2124 58.6796 34.202 58.6945 32.1012V30.915H57.4748C55.6267 30.9203 53.8267 31.5047 52.328 32.586C52.1108 32.7553 51.8433 32.8473 51.5679 32.8473C51.2923 32.8473 51.0248 32.7553 50.8076 32.586C49.9266 31.8786 48.9875 31.2468 48.0003 30.6978C45.7802 32.3997 43.0609 33.3221 40.2636 33.3221C37.4662 33.3221 34.7468 32.3997 32.5269 30.6978C31.5395 31.2468 30.6004 31.8786 29.7197 32.586C29.5024 32.7553 29.2347 32.8473 28.9594 32.8473C28.6838 32.8473 28.4161 32.7553 28.1989 32.586C26.7064 31.5048 24.912 30.9203 23.0691 30.915H21.8324V32.1012C21.8474 34.202 22.6878 36.2124 24.172 37.6991C24.3477 37.8723 24.4625 38.0981 24.4988 38.3422C24.5349 38.5865 24.4906 38.836 24.3725 39.0527C22.7556 41.9584 21.883 45.219 21.8324 48.5438C21.7642 52.3702 23.0953 56.0898 25.5756 59.0042C27.6812 61.4048 28.948 64.4256 29.1849 67.6098H34.1979V65.9388C34.2008 65.7599 34.2437 65.5837 34.3234 65.4235C34.4031 65.2631 34.5176 65.1227 34.6584 65.0123C34.7993 64.9018 34.9631 64.8239 35.1379 64.7848C35.3125 64.7456 35.4938 64.7462 35.6684 64.786C38.7606 65.3652 41.9336 65.3652 45.0258 64.786C45.2004 64.7462 45.3817 64.7456 45.5565 64.7848C45.7311 64.8239 45.8949 64.9018 46.0357 65.0123C46.1766 65.1227 46.2911 65.2631 46.3708 65.4235C46.4505 65.5837 46.4934 65.7599 46.4964 65.9388V67.6098H51.5094C51.6117 66.4752 51.8358 65.3547 52.1778 64.2678C52.2812 63.9619 52.4988 63.7076 52.7854 63.558C53.0718 63.4086 53.4048 63.3757 53.7151 63.4659C53.8668 63.5062 54.009 63.5767 54.133 63.6731C54.257 63.7695 54.3603 63.89 54.4366 64.0272C54.513 64.1644 54.561 64.3156 54.5777 64.4719C54.5944 64.6281 54.5795 64.786 54.5337 64.9364C54.1364 66.1965 53.9282 67.5084 53.9156 68.8297C53.9113 68.9877 53.8759 69.1433 53.8114 69.2877C53.7469 69.4319 53.6546 69.5622 53.5397 69.6708C53.4249 69.7796 53.2897 69.8643 53.1421 69.9208C52.9944 69.9771 52.837 70.004 52.6791 69.9995H45.31C44.9937 70.004 44.6884 69.8837 44.4602 69.6648C44.2319 69.4459 44.0989 69.1458 44.09 68.8297V67.4093C42.865 67.5617 41.6318 67.6399 40.3973 67.6434C39.1683 67.6404 37.9406 67.5622 36.7211 67.4093V68.8297C36.7168 68.9877 36.6813 69.1433 36.6168 69.2877C36.5523 69.4319 36.4599 69.5622 36.3451 69.6708C36.2303 69.7796 36.0953 69.8643 35.9476 69.9208C35.7999 69.9771 35.6425 70.004 35.4846 69.9995H28.1155C27.9574 70.004 27.8 69.9771 27.6525 69.9208C27.5048 69.8643 27.3697 69.7796 27.2548 69.6708C27.14 69.5622 27.0476 69.4319 26.9831 69.2877C26.9186 69.1433 26.8833 68.9877 26.879 68.8297C26.8776 65.8332 25.8184 62.9334 23.8879 60.6418C20.985 57.3142 19.4245 53.0256 19.5099 48.6106C19.5463 45.1796 20.3816 41.804 21.9494 38.7518C20.386 36.9132 19.5221 34.5816 19.5099 32.1682V29.812C19.5142 29.6541 19.5497 29.4985 19.6142 29.3541C19.6787 29.2097 19.7709 29.0797 19.8857 28.9711C20.0005 28.8623 20.1357 28.7773 20.2834 28.721C20.4311 28.6647 20.5883 28.6379 20.7464 28.6424H23.2026C25.2518 28.66 27.2569 29.2378 29.0011 30.3134C29.6027 29.8623 30.2377 29.4445 30.8726 29.0602C29.1017 26.9995 28.124 24.3746 28.1155 21.6575C28.2796 18.5111 29.6453 15.5476 31.9305 13.3785C34.2158 11.2094 37.2465 10 40.3973 10C43.5481 10 46.5788 11.2094 48.8641 13.3785C51.1493 15.5476 52.5148 18.5111 52.6791 21.6575C52.6692 24.3714 51.6984 26.9942 49.9385 29.0602C50.5735 29.439 51.1919 29.8567 51.7935 30.3134C53.5445 29.2396 55.5545 28.662 57.6085 28.6424H60.0647C60.381 28.6379 60.6863 28.7581 60.9148 28.977C61.143 29.1959 61.2759 29.4958 61.2847 29.812L61.2346 32.1012ZM50.1726 21.524C50.2627 19.5599 49.7626 17.614 48.7366 15.9368C47.7106 14.2596 46.2058 12.9281 44.4162 12.114C42.6266 11.2999 40.6341 11.0405 38.6957 11.3691C36.7572 11.6977 34.9616 12.5993 33.5404 13.9578C32.119 15.3163 31.1372 17.0692 30.7214 18.9908C30.3055 20.9124 30.4746 22.9144 31.207 24.7392C31.9394 26.5637 33.2015 28.1271 34.8306 29.2278C36.4596 30.3286 38.3811 30.9162 40.3472 30.915C42.8943 30.9688 45.3588 30.0103 47.2007 28.2499C49.0425 26.4897 50.1111 24.0709 50.1726 21.524ZM42.3357 17.8142L36.4705 23.4289C36.3408 23.5479 36.2372 23.6923 36.1665 23.8534C36.0957 24.0145 36.0591 24.1886 36.0591 24.3645C36.0591 24.5405 36.0957 24.7146 36.1665 24.8757C36.2372 25.0368 36.3408 25.1815 36.4705 25.3004C36.7343 25.5508 37.0842 25.6903 37.448 25.6903C37.8118 25.6903 38.1617 25.5508 38.4255 25.3004L44.2905 19.6857C44.4202 19.5668 44.5238 19.4224 44.5947 19.2612C44.6655 19.1002 44.7021 18.926 44.7021 18.7501C44.7021 18.5741 44.6655 18.4 44.5947 18.2389C44.5238 18.0778 44.4202 17.9332 44.2905 17.8142C44.0267 17.5639 43.677 17.4244 43.3132 17.4244C42.9494 17.4244 42.5995 17.5639 42.3357 17.8142ZM38.3418 19.6024C38.4711 19.4849 38.5744 19.3417 38.6451 19.1819C38.7158 19.0222 38.7522 18.8494 38.7522 18.6748C38.7522 18.5002 38.7158 18.3274 38.6451 18.1677C38.5744 18.008 38.4711 17.865 38.3418 17.7475C38.0808 17.4983 37.7337 17.3592 37.3728 17.3592C37.0119 17.3592 36.6646 17.4983 36.4036 17.7475C36.2743 17.865 36.1712 18.008 36.1005 18.1677C36.0298 18.3274 35.9932 18.5002 35.9932 18.6748C35.9932 18.8494 36.0298 19.0222 36.1005 19.1819C36.1712 19.3417 36.2743 19.4849 36.4036 19.6024C36.6646 19.8515 37.0119 19.9907 37.3728 19.9907C37.7337 19.9907 38.0808 19.8515 38.3418 19.6024ZM42.2855 23.3621C42.158 23.4822 42.0564 23.6273 41.9871 23.7882C41.9177 23.9491 41.882 24.1224 41.882 24.2977C41.882 24.473 41.9177 24.6463 41.9871 24.8072C42.0564 24.9681 42.158 25.1133 42.2855 25.2336C42.5494 25.4839 42.8993 25.6233 43.2631 25.6233C43.6267 25.6233 43.9766 25.4839 44.2406 25.2336C44.3679 25.1133 44.4695 24.9681 44.5389 24.8072C44.6082 24.6463 44.6441 24.473 44.6441 24.2977C44.6441 24.1224 44.6082 23.9491 44.5389 23.7882C44.4695 23.6273 44.3679 23.4822 44.2406 23.3621C43.9766 23.1116 43.6267 22.9721 43.2631 22.9721C42.8993 22.9721 42.5494 23.1116 42.2855 23.3621Z" fill="url(#paint0_linear_808_17833)"/>
<defs>
<linearGradient id="paint0_linear_808_17833" x1="60.5375" y1="68.6986" x2="60.5375" y2="10" gradientUnits="userSpaceOnUse">
<stop stop-color="#002D85"/>
<stop offset="1" stop-color="#013AA9"/>
</linearGradient>
</defs>
</svg>
