<svg width="80" height="80" viewBox="0 0 80 80" fill="none" xmlns="http://www.w3.org/2000/svg">
<path d="M62.6703 17.1313H17.3297C15.3841 17.1359 13.52 17.9119 12.1458 19.2892C10.7718 20.6666 10 22.5327 10 24.4782V55.5216C10 57.4672 10.7718 59.3334 12.1458 60.7107C13.52 62.088 15.3841 62.8641 17.3297 62.8686H62.6532C64.6017 62.8686 66.4703 62.0947 67.8482 60.7169C69.226 59.3391 70 57.4703 70 55.5216V24.4782C70.0022 23.5143 69.8144 22.5592 69.4471 21.6679C69.0797 20.7767 68.5403 19.9666 67.8594 19.2842C67.1785 18.6017 66.3696 18.0604 65.4792 17.6909C64.5888 17.3215 63.6344 17.1313 62.6703 17.1313ZM62.6703 59.4367H17.3297C16.2732 59.4367 15.2598 59.0168 14.5127 58.2697C13.7656 57.5225 13.3458 56.5093 13.3458 55.4526V24.4092C13.3504 23.3541 13.7716 22.3433 14.5177 21.5972C15.2639 20.8512 16.2746 20.43 17.3297 20.4255H62.6532C63.7113 20.4255 64.7264 20.8444 65.4763 21.5912C66.2261 22.3378 66.6497 23.351 66.6544 24.4092V55.4526C66.6566 55.9764 66.555 56.4957 66.3557 56.98C66.1563 57.4644 65.8629 57.9044 65.4925 58.2748C65.122 58.6451 64.6821 58.9385 64.1976 59.1378C63.7133 59.3374 63.1941 59.439 62.6703 59.4367ZM62.5668 53.5728C62.8676 53.8927 63.035 54.3152 63.035 54.7543C63.035 55.1934 62.8676 55.6158 62.5668 55.9355C62.4144 56.1044 62.2281 56.2392 62.0201 56.3313C61.8121 56.4234 61.587 56.4709 61.3597 56.4703C60.93 56.4645 60.5178 56.2984 60.2041 56.0047L45.2687 41.8282L41.0953 45.5705C40.7828 45.8376 40.3853 45.9846 39.9741 45.9846C39.5631 45.9846 39.1654 45.8376 38.8531 45.5705L34.783 41.9315L19.7787 55.97C19.4624 56.2575 19.0507 56.4174 18.6232 56.4186C18.3938 56.4153 18.1673 56.3664 17.9571 56.2746C17.7469 56.1827 17.557 56.0499 17.3987 55.8838C17.0979 55.5639 16.9306 55.1415 16.9306 54.7026C16.9306 54.2635 17.0979 53.841 17.3987 53.521L32.1788 39.724L17.3297 26.4617C17.0048 26.1591 16.809 25.7427 16.7833 25.2993C16.7576 24.8559 16.9039 24.4198 17.1917 24.0817C17.4937 23.7616 17.9066 23.569 18.3457 23.5433C18.7849 23.5178 19.2173 23.6611 19.5545 23.9438L35.628 38.3272L35.904 38.5514L39.8534 42.0007L60.1006 23.8401C60.4355 23.5552 60.8668 23.4091 61.3059 23.4316C61.7452 23.454 62.1591 23.6433 62.4633 23.9608C62.7534 24.2968 62.9026 24.7319 62.8802 25.1752C62.8578 25.6184 62.6653 26.0359 62.3428 26.3408L47.666 39.4998L62.5668 53.5728Z" fill="url(#paint0_linear_720_18976)"/>
<defs>
<linearGradient id="paint0_linear_720_18976" x1="11.6605" y1="17.1313" x2="69.2336" y2="46.149" gradientUnits="userSpaceOnUse">
<stop stop-color="#002D85"/>
<stop offset="1" stop-color="#DE0000"/>
</linearGradient>
</defs>
</svg>
