<svg width="80" height="80" viewBox="0 0 80 80" fill="none" xmlns="http://www.w3.org/2000/svg">
<path fill-rule="evenodd" clip-rule="evenodd" d="M33.0018 10.8956H68.5216C69.4605 10.8956 70.2429 11.678 69.9299 12.6168V46.259C69.9299 47.1978 69.1475 47.9802 68.2087 47.9802C67.2698 47.9802 66.4875 47.1978 66.4875 46.259C66.4875 45.3201 65.7051 44.5378 64.7662 44.5378H48.8058V63.9406C48.8058 64.8795 48.0234 65.6619 47.0846 65.6619H15.1637C14.2248 65.6619 13.4425 66.4442 13.4425 67.3831C13.4425 68.3219 12.6601 69.1043 11.7213 69.1043C10.7824 69.1043 10 68.3219 10 67.3831V35.6187C10 34.6798 10.7824 33.8974 11.7213 33.8974H31.2806V12.6168C31.2806 11.678 32.063 10.8956 33.0018 10.8956ZM15.1637 62.0629H45.3633V44.3813H18.7627C17.8238 44.3813 17.0414 43.5989 17.0414 42.6601C17.0414 41.7212 17.8238 40.9388 18.7627 40.9388H31.2806V37.3399H13.4425V62.3759C13.9119 62.2194 14.5378 62.0629 15.1637 62.0629ZM66.334 41.172C66.4338 41.1981 66.5365 41.2249 66.6439 41.2518V14.4946H34.723V40.9388H64.9227C65.4412 40.9388 65.8523 41.0462 66.334 41.172ZM47.0844 24.9784C48.0233 24.9784 48.8056 24.196 48.8056 23.2572C48.8056 22.3183 49.588 21.5359 50.5269 21.5359C51.4657 21.5359 52.2481 22.3183 52.2481 23.2572C52.2481 23.8831 51.9351 24.509 51.3092 24.8219C49.7445 25.7608 48.6492 27.482 48.6492 29.3597C48.6492 30.2985 49.4315 31.0809 50.3704 31.0809C51.3092 31.0809 52.0916 30.2985 52.0916 29.3597C52.0916 28.7338 52.4046 28.1079 53.0305 27.7949C54.5952 26.8561 55.6905 25.1349 55.6905 23.2572C55.6905 20.2841 53.3434 17.937 50.3704 17.937C47.3974 17.937 45.0502 20.2841 45.0502 23.2572C45.3632 24.196 46.1456 24.9784 47.0844 24.9784ZM52.4046 35.6187C52.4046 36.5575 51.6222 37.3399 50.6833 37.3399C49.7445 37.3399 48.9621 36.5575 48.9621 35.6187C48.9621 34.6798 49.7445 33.8974 50.6833 33.8974C51.6222 33.741 52.4046 34.5233 52.4046 35.6187ZM40.0432 55.0215H18.7627C17.8238 55.0215 17.0414 55.8039 17.0414 56.7427C17.0414 57.6816 17.8238 58.4639 18.7627 58.4639H40.0432C40.982 58.4639 41.7644 57.6816 41.7644 56.7427C41.7644 55.8039 40.982 55.0215 40.0432 55.0215ZM18.7627 51.4226C17.8238 51.4226 17.0414 50.6402 17.0414 49.7013C17.0414 48.7625 17.8238 47.9801 18.7627 47.9801H40.0432C40.982 47.9801 41.7644 48.7625 41.7644 49.7013C41.7644 50.6402 40.982 51.4226 40.0432 51.4226H18.7627Z" fill="url(#paint0_linear_720_19065)"/>
<defs>
<linearGradient id="paint0_linear_720_19065" x1="11.6605" y1="10.8956" x2="74.0707" y2="35.6117" gradientUnits="userSpaceOnUse">
<stop stop-color="#002D85"/>
<stop offset="1" stop-color="#DE0000"/>
</linearGradient>
</defs>
</svg>
