<svg width="81" height="80" viewBox="0 0 81 80" fill="none" xmlns="http://www.w3.org/2000/svg">
<path fill-rule="evenodd" clip-rule="evenodd" d="M41.4377 67.8994C39.8061 69.2631 37.7661 70.0054 35.6632 70C33.567 69.9976 31.5361 69.2518 29.9132 67.8883C28.2905 66.5247 27.1752 64.6276 26.7559 62.5167H44.615C44.1917 64.6338 43.0692 66.5356 41.4377 67.8994ZM53.8655 46.3389H54.0443C55.0395 48.6658 56.5401 50.7274 58.431 52.3654C58.8995 52.7791 59.2754 53.2918 59.533 53.8689C59.7904 54.4458 59.9234 55.0734 59.9228 55.7083C59.9228 56.8633 59.4764 57.9709 58.6817 58.7878C57.8872 59.6043 56.8094 60.0631 55.6857 60.0631H15.6556C14.7883 60.0651 13.9414 59.7934 13.229 59.2849C12.5168 58.7763 11.9734 58.0554 11.6725 57.2194C11.3716 56.3836 11.3274 55.4727 11.5461 54.6103C11.7648 53.7474 12.2357 52.9747 12.8954 52.396C14.7101 50.8245 16.1685 48.864 17.1685 46.6522C18.1685 44.4405 18.6857 42.0307 18.6843 39.5916V32.6453C18.6919 28.4504 20.167 24.398 22.8405 21.2282C25.5137 18.0584 29.207 15.9821 33.2461 15.3787V12.6951C33.2199 12.3515 33.263 12.0059 33.373 11.6803C33.483 11.3546 33.6572 11.0558 33.885 10.8027C34.1126 10.5495 34.3888 10.3476 34.6961 10.2094C35.0034 10.0713 35.3352 10 35.6706 10C36.0059 10 36.3377 10.0713 36.645 10.2094C36.9523 10.3476 37.2286 10.5495 37.4563 10.8027C37.6839 11.0558 37.8583 11.3546 37.9681 11.6803C38.0781 12.0059 38.1214 12.3515 38.095 12.6951V14.7959C35.7266 18.176 34.4577 22.2387 34.4695 26.4042C34.4695 31.6913 36.513 36.7618 40.1505 40.5C43.7879 44.2387 48.7214 46.3389 53.8655 46.3389ZM45.0915 12.9049C47.6912 11.1294 50.7445 10.1865 53.8655 10.1956C58.039 10.2118 62.0364 11.9262 64.9832 14.9637C67.9304 18.0011 69.587 22.1145 69.591 26.4042C69.591 29.6118 68.6648 32.7474 66.9299 35.4138C65.1952 38.0803 62.7294 40.1578 59.8452 41.3833C56.961 42.6085 53.7879 42.9267 50.7274 42.2976C47.6672 41.6685 44.8572 40.1203 42.6534 37.8489C40.4497 35.5774 38.9514 32.6851 38.3479 29.5382C37.7445 26.3907 38.0632 23.1304 39.2637 20.1694C40.4641 17.2085 42.4923 14.6803 45.0915 12.9049ZM47.461 34.0006H49.3939V18.9991H49.0926L43.5842 21.0397V22.7624L47.461 21.3575V34.0006ZM63.3624 32.5855C64.1319 31.5055 64.5162 29.8546 64.5162 27.6329V25.172C64.4955 23.0255 64.1004 21.4397 63.3315 20.4142C62.5624 19.382 61.3637 18.8659 59.7355 18.8659C58.0931 18.8659 56.8877 19.3991 56.1184 20.4655C55.3493 21.5318 54.9648 23.1622 54.9648 25.3566V27.8893C54.9924 29.9878 55.3944 31.5671 56.1704 32.6266C56.9464 33.6793 58.1417 34.2058 59.756 34.2058C61.3915 34.2058 62.5935 33.6655 63.3624 32.5855ZM61.9075 21.5318C62.3648 22.2633 62.5935 23.4322 62.5935 25.0388V28.1455C62.5728 29.7044 62.3302 30.8458 61.866 31.5704C61.4088 32.2951 60.7055 32.6573 59.756 32.6573C58.7931 32.6573 58.0724 32.2744 57.5944 31.5088C57.1231 30.7364 56.8877 29.5435 56.8877 27.9304V24.8951C56.9013 23.3777 57.1333 22.2531 57.584 21.5217C58.0344 20.7902 58.7515 20.4244 59.7355 20.4244C60.726 20.4244 61.45 20.7937 61.9075 21.5318Z" fill="url(#paint0_linear_720_18973)"/>
<defs>
<linearGradient id="paint0_linear_720_18973" x1="13.0194" y1="10" x2="74.4968" y2="32.9041" gradientUnits="userSpaceOnUse">
<stop stop-color="#002D85"/>
<stop offset="1" stop-color="#DE0000"/>
</linearGradient>
</defs>
</svg>
