<svg width="81" height="80" viewBox="0 0 81 80" fill="none" xmlns="http://www.w3.org/2000/svg">
<path d="M63.5663 17.1313H18.2257C16.2801 17.1359 14.416 17.9119 13.0418 19.2892C11.6678 20.6666 10.896 22.5327 10.896 24.4782V55.5216C10.896 57.4672 11.6678 59.3334 13.0418 60.7107C14.416 62.088 16.2801 62.8641 18.2257 62.8686H63.5492C65.4977 62.8686 67.3663 62.0947 68.7442 60.7169C70.122 59.3391 70.896 57.4703 70.896 55.5216V24.4782C70.8982 23.5143 70.7104 22.5592 70.3431 21.6679C69.9757 20.7767 69.4362 19.9666 68.7554 19.2842C68.0745 18.6017 67.2656 18.0604 66.3752 17.6909C65.4848 17.3215 64.5304 17.1313 63.5663 17.1313ZM63.5663 59.4367H18.2257C17.1692 59.4367 16.1558 59.0168 15.4087 58.2697C14.6616 57.5225 14.2418 56.5093 14.2418 55.4526V24.4092C14.2464 23.3541 14.6676 22.3433 15.4137 21.5972C16.1599 20.8512 17.1706 20.43 18.2257 20.4255H63.5492C64.6073 20.4255 65.6224 20.8444 66.3723 21.5912C67.1221 22.3378 67.5457 23.351 67.5504 24.4092V55.4526C67.5526 55.9764 67.451 56.4957 67.2517 56.98C67.0523 57.4644 66.7589 57.9044 66.3885 58.2748C66.018 58.6451 65.5781 58.9385 65.0936 59.1378C64.6093 59.3374 64.0901 59.439 63.5663 59.4367ZM63.4628 53.5728C63.7636 53.8927 63.931 54.3152 63.931 54.7543C63.931 55.1934 63.7636 55.6158 63.4628 55.9355C63.3103 56.1044 63.1241 56.2392 62.9161 56.3313C62.7081 56.4234 62.483 56.4709 62.2557 56.4703C61.826 56.4645 61.4138 56.2984 61.1001 56.0047L46.1647 41.8282L41.9913 45.5705C41.6788 45.8376 41.2813 45.9846 40.8701 45.9846C40.4591 45.9846 40.0614 45.8376 39.7491 45.5705L35.679 41.9315L20.6747 55.97C20.3584 56.2575 19.9467 56.4174 19.5192 56.4186C19.2898 56.4153 19.0633 56.3664 18.8531 56.2746C18.6429 56.1827 18.453 56.0499 18.2947 55.8838C17.9939 55.5639 17.8266 55.1415 17.8266 54.7026C17.8266 54.2635 17.9939 53.841 18.2947 53.521L33.0748 39.724L18.2257 26.4617C17.9008 26.1591 17.705 25.7427 17.6793 25.2993C17.6536 24.8559 17.7999 24.4198 18.0877 24.0817C18.3897 23.7616 18.8026 23.569 19.2417 23.5433C19.6809 23.5178 20.1133 23.6611 20.4505 23.9438L36.524 38.3272L36.8 38.5514L40.7494 42.0007L60.9966 23.8401C61.3315 23.5552 61.7628 23.4091 62.2019 23.4316C62.6412 23.454 63.0551 23.6433 63.3593 23.9608C63.6494 24.2968 63.7986 24.7319 63.7762 25.1752C63.7538 25.6184 63.5613 26.0359 63.2388 26.3408L48.562 39.4998L63.4628 53.5728Z" fill="url(#paint0_linear_808_17829)"/>
<defs>
<linearGradient id="paint0_linear_808_17829" x1="69.8229" y1="61.8765" x2="69.8229" y2="17.1313" gradientUnits="userSpaceOnUse">
<stop stop-color="#002D85"/>
<stop offset="1" stop-color="#013AA9"/>
</linearGradient>
</defs>
</svg>
