<svg width="81" height="80" viewBox="0 0 81 80" fill="none" xmlns="http://www.w3.org/2000/svg">
<path fill-rule="evenodd" clip-rule="evenodd" d="M41.3337 67.8994C39.7021 69.2631 37.6621 70.0054 35.5592 70C33.463 69.9976 31.4321 69.2518 29.8092 67.8883C28.1864 66.5247 27.0712 64.6276 26.6519 62.5167H44.511C44.0877 64.6338 42.9651 66.5356 41.3337 67.8994ZM53.7615 46.3389H53.9402C54.9355 48.6658 56.4361 50.7274 58.327 52.3654C58.7955 52.7791 59.1713 53.2918 59.429 53.8689C59.6864 54.4458 59.8193 55.0734 59.8188 55.7083C59.8188 56.8633 59.3724 57.9709 58.5777 58.7878C57.7831 59.6043 56.7053 60.0631 55.5817 60.0631H15.5515C14.6843 60.0651 13.8373 59.7934 13.125 59.2849C12.4128 58.7763 11.8693 58.0554 11.5684 57.2194C11.2675 56.3836 11.2233 55.4727 11.4421 54.6103C11.6608 53.7474 12.1317 52.9747 12.7913 52.396C14.6061 50.8245 16.0644 48.864 17.0644 46.6522C18.0644 44.4405 18.5817 42.0307 18.5803 39.5916V32.6453C18.5879 28.4504 20.063 24.398 22.7364 21.2282C25.4097 18.0584 29.103 15.9821 33.1421 15.3787V12.6951C33.1159 12.3515 33.159 12.0059 33.269 11.6803C33.379 11.3546 33.5532 11.0558 33.781 10.8027C34.0086 10.5495 34.2848 10.3476 34.5921 10.2094C34.8993 10.0713 35.2311 10 35.5666 10C35.9019 10 36.2337 10.0713 36.541 10.2094C36.8482 10.3476 37.1246 10.5495 37.3522 10.8027C37.5799 11.0558 37.7542 11.3546 37.8641 11.6803C37.9741 12.0059 38.0173 12.3515 37.991 12.6951V14.7959C35.6226 18.176 34.3537 22.2387 34.3655 26.4042C34.3655 31.6913 36.409 36.7618 40.0464 40.5C43.6839 44.2387 48.6173 46.3389 53.7615 46.3389ZM44.9875 12.9049C47.5871 11.1294 50.6404 10.1865 53.7615 10.1956C57.935 10.2118 61.9324 11.9262 64.8791 14.9637C67.8264 18.0011 69.4829 22.1145 69.4869 26.4042C69.4869 29.6118 68.5608 32.7474 66.8259 35.4138C65.0911 38.0803 62.6253 40.1578 59.7411 41.3833C56.857 42.6085 53.6839 42.9267 50.6233 42.2976C47.5631 41.6685 44.7531 40.1203 42.5493 37.8489C40.3457 35.5774 38.8473 32.6851 38.2439 29.5382C37.6404 26.3907 37.9591 23.1304 39.1597 20.1694C40.3601 17.2085 42.3882 14.6803 44.9875 12.9049ZM47.3569 34.0006H49.2898V18.9991H48.9886L43.4802 21.0397V22.7624L47.3569 21.3575V34.0006ZM63.2584 32.5855C64.0278 31.5055 64.4122 29.8546 64.4122 27.6329V25.172C64.3915 23.0255 63.9964 21.4397 63.2275 20.4142C62.4584 19.382 61.2596 18.8659 59.6315 18.8659C57.9891 18.8659 56.7836 19.3991 56.0144 20.4655C55.2453 21.5318 54.8607 23.1622 54.8607 25.3566V27.8893C54.8884 29.9878 55.2904 31.5671 56.0664 32.6266C56.8424 33.6793 58.0377 34.2058 59.652 34.2058C61.2875 34.2058 62.4895 33.6655 63.2584 32.5855ZM61.8035 21.5318C62.2607 22.2633 62.4895 23.4322 62.4895 25.0388V28.1455C62.4687 29.7044 62.2262 30.8458 61.762 31.5704C61.3047 32.2951 60.6015 32.6573 59.652 32.6573C58.6891 32.6573 57.9684 32.2744 57.4904 31.5088C57.0191 30.7364 56.7836 29.5435 56.7836 27.9304V24.8951C56.7973 23.3777 57.0293 22.2531 57.48 21.5217C57.9304 20.7902 58.6475 20.4244 59.6315 20.4244C60.622 20.4244 61.346 20.7937 61.8035 21.5318Z" fill="url(#paint0_linear_808_17825)"/>
<defs>
<linearGradient id="paint0_linear_808_17825" x1="68.4463" y1="68.6986" x2="68.4463" y2="10" gradientUnits="userSpaceOnUse">
<stop stop-color="#002D85"/>
<stop offset="1" stop-color="#013AA9"/>
</linearGradient>
</defs>
</svg>
