<svg width="80" height="80" viewBox="0 0 80 80" fill="none" xmlns="http://www.w3.org/2000/svg">
<path d="M69.169 35.4342L64.7307 34.9312C64.5188 34.0054 64.2571 33.0917 63.9466 32.1942L67.6896 29.6495L67.4824 28.7175C66.8677 26.1981 65.5429 23.9081 63.6655 22.1191L62.9997 21.4386L58.8129 23.3175C58.4874 22.9624 58.1471 22.6074 57.8069 22.2671C57.4666 21.9268 57.1855 21.6457 56.86 21.3646L58.8129 17.1778L58.1619 16.4824C56.3714 14.607 54.082 13.2826 51.5636 12.6655L50.6463 12.414L47.9241 16.1126C47.0464 15.8192 46.1523 15.5771 45.2463 15.3877L44.8765 10.831L44.0184 10.5499C41.5305 9.82452 38.8872 9.82452 36.3993 10.5499L35.482 10.8014L34.9642 15.3581C34.0765 15.5504 33.1741 15.7871 32.2864 16.0682L29.6234 12.2956L28.6913 12.5175C26.1758 13.1336 23.8874 14.4522 22.093 16.3197L21.4272 17.0003L23.3061 21.2019C22.9363 21.5274 22.5812 21.8676 22.2557 22.2079C21.9303 22.5482 21.6344 22.8293 21.3385 23.1548L17.1664 21.1871L16.4711 21.838C14.5937 23.627 13.2689 25.917 12.6541 28.4364L12.4026 29.3684L16.1012 32.0906C15.808 32.9634 15.566 33.8526 15.3763 34.7536L10.8196 35.1531L10.5385 36.0555C9.82049 38.5445 9.82049 41.1857 10.5385 43.6747L10.79 44.6067L15.3615 45.1097C15.5428 46.0147 15.7749 46.9087 16.0569 47.7876L12.2843 50.3766L12.5062 51.3086C13.1129 53.8279 14.433 56.1188 16.3084 57.907L16.9889 58.5875L21.1905 56.7382C21.516 57.1081 21.8563 57.4631 22.1966 57.8034L23.1434 58.7059L21.1757 62.8335L21.8415 63.5437C23.6345 65.4084 25.9159 66.7311 28.425 67.3606L29.3571 67.6121L32.0793 63.9135C32.9541 64.2001 33.8429 64.442 34.7423 64.6385L35.1417 69.1804L36.059 69.4467C37.2727 69.8133 38.5341 69.9978 39.802 69.994C41.1119 69.9889 42.4154 69.8098 43.6781 69.4614L44.6102 69.2099L45.0836 64.742C45.988 64.5524 46.8819 64.3154 47.7614 64.0319L50.3652 67.7009L51.2973 67.4938C53.8131 66.8785 56.1017 65.5597 57.8956 63.6916L58.5762 63.0111L56.7269 58.8242C57.0967 58.4987 57.4518 58.1585 57.7921 57.8182C58.1323 57.4779 58.3986 57.1968 58.6945 56.8714L62.837 58.8242L63.5323 58.1585C65.4045 56.3654 66.7283 54.077 67.3493 51.5601L67.6008 50.6429L63.9022 47.9207C64.1906 47.0414 64.4326 46.1476 64.6271 45.2429L69.169 44.8878L69.4501 43.9854C70.1833 41.4935 70.1833 38.8433 69.4501 36.3514L69.169 35.4342ZM66.9498 42.2544L62.2008 42.6391L62.0085 43.7191C61.7757 45.165 61.394 46.583 60.8693 47.9503L60.4847 48.9415L64.3164 51.7673C63.8643 53.121 63.1505 54.3727 62.2156 55.4511L57.8956 53.4094L57.2003 54.2527C56.7417 54.8001 56.2682 55.3179 55.7208 55.8209C55.1734 56.324 54.626 56.8566 54.0491 57.3004L53.2206 57.9809L55.1291 62.3453C54.0705 63.2993 52.8265 64.0245 51.4748 64.4757L48.7526 60.5552L47.717 60.9398C46.3471 61.4532 44.9298 61.8298 43.4858 62.0642L42.4354 62.2417L41.9176 66.9464C40.5169 67.2346 39.0722 67.2346 37.6716 66.9464L37.2869 62.1974L36.2069 62.005C34.7618 61.7684 33.3443 61.3868 31.9757 60.8659L30.9697 60.496L28.1587 64.313C26.8034 63.8645 25.551 63.1503 24.4749 62.2122L26.5165 57.8922L25.6733 57.1968C25.1259 56.7382 24.5933 56.2648 24.0903 55.7174C23.5662 55.1934 23.0723 54.6402 22.6108 54.0604L21.9303 53.2171L17.6399 55.2292C16.6896 54.1654 15.9603 52.9232 15.4947 51.5749L19.4152 48.8528L19.0305 47.8319C18.5264 46.4602 18.1548 45.0433 17.921 43.6007L17.7582 42.5503L13.024 42.0325C12.7507 40.6304 12.7507 39.1886 13.024 37.7865L17.7878 37.4018L17.9653 36.3218C18.2139 34.8778 18.6004 33.4609 19.1193 32.0906L19.504 31.0994L15.6426 28.2588C16.092 26.907 16.8005 25.6558 17.7286 24.575L22.0486 26.6167L22.7588 25.7734C23.6885 24.6415 24.7293 23.6056 25.8656 22.6813L26.6793 22.0008L24.7856 17.6512C25.8583 16.7055 27.1043 15.977 28.4546 15.506L31.1472 19.4265L32.1828 19.0567C33.557 18.5409 34.9795 18.1642 36.4288 17.9323L37.4793 17.7696L38.0119 13.0353C39.4036 12.7319 40.8416 12.7067 42.2431 12.9614L42.6277 17.7104L43.7077 17.8879C45.1513 18.1384 46.568 18.5248 47.9389 19.0419L48.945 19.4265L51.7559 15.5948C53.1097 16.0469 54.3613 16.7607 55.4397 17.6956L53.3981 22.0748L54.2414 22.7701C54.8074 23.2154 55.3459 23.6947 55.854 24.2052C56.3866 24.7378 56.8896 25.2852 57.3334 25.8769L57.9992 26.6906L62.3488 24.7969C63.308 25.8541 64.0384 27.0983 64.494 28.4512L60.5586 31.1734L60.9581 32.1942C61.4693 33.5698 61.8458 34.9918 62.0825 36.4402L62.2452 37.4906L66.9646 38.0084C67.2554 39.4078 67.2654 40.8511 66.9942 42.2544H66.9498ZM39.9943 19.3082C35.2018 19.3051 30.5565 20.9641 26.8502 24.0024C23.1438 27.0406 20.6058 31.2702 19.6686 35.9702C18.7314 40.6701 19.4531 45.5497 21.7107 49.7772C23.9682 54.0046 27.622 57.3184 32.0491 59.1537C36.4763 60.9891 41.4029 61.2323 45.9893 59.8421C50.5757 58.4519 54.5381 55.5142 57.2012 51.5297C59.8643 47.5452 61.0632 42.7605 60.5936 37.991C60.124 33.2216 58.015 28.7626 54.626 25.3739C52.7092 23.4458 50.4291 21.917 47.9176 20.8758C45.4061 19.8347 42.7131 19.3018 39.9943 19.3082ZM52.2293 52.2407C49.39 55.0642 45.6596 56.8159 41.6736 57.1975C37.6875 57.5792 33.6925 56.567 30.369 54.3335C27.0456 52.1 24.5992 48.7834 23.4468 44.9486C22.2944 41.1138 22.5071 36.998 24.0488 33.3024C25.5905 29.6069 28.3657 26.5601 31.9017 24.6812C35.4378 22.8023 39.5159 22.2074 43.4413 22.998C47.3667 23.7885 50.8967 25.9156 53.4298 29.0167C55.9629 32.1179 57.3424 36.0014 57.3334 40.0057C57.334 42.2812 56.8832 44.5343 56.0071 46.6345C55.1309 48.7346 53.8469 50.6401 52.2293 52.2407ZM47.3768 37.4462H35.1417V31.8539C35.1417 30.5826 35.6467 29.3634 36.5457 28.4645C37.4446 27.5655 38.6638 27.0605 39.9351 27.0605C41.2064 27.0605 42.4256 27.5655 43.3246 28.4645C44.2235 29.3634 44.7285 30.5826 44.7285 31.8539V34.0583C44.7285 34.3526 44.8454 34.6348 45.0535 34.8429C45.2616 35.051 45.5438 35.1679 45.8381 35.1679C46.1324 35.1679 46.4146 35.051 46.6227 34.8429C46.8308 34.6348 46.9477 34.3526 46.9477 34.0583V31.8539C46.9912 30.9069 46.8423 29.9609 46.5099 29.073C46.1775 28.1852 45.6685 27.374 45.0137 26.6884C44.359 26.0029 43.572 25.4572 42.7004 25.0844C41.8287 24.7115 40.8905 24.5193 39.9425 24.5193C38.9945 24.5193 38.0563 24.7115 37.1847 25.0844C36.3131 25.4572 35.5261 26.0029 34.8713 26.6884C34.2165 27.374 33.7076 28.1852 33.3752 29.073C33.0428 29.9609 32.8938 30.9069 32.9373 31.8539V37.387H32.6267C32.3845 37.3851 32.1444 37.4311 31.9201 37.5224C31.6958 37.6137 31.4918 37.7485 31.3199 37.9191C31.148 38.0896 31.0115 38.2925 30.9184 38.5161C30.8253 38.7396 30.7773 38.9794 30.7774 39.2216V51.0571C30.7774 51.3 30.8252 51.5405 30.9181 51.7648C31.0111 51.9892 31.1473 52.1931 31.319 52.3648C31.4907 52.5365 31.6946 52.6727 31.919 52.7657C32.1433 52.8586 32.3838 52.9064 32.6267 52.9064H47.4211C47.9116 52.9064 48.382 52.7116 48.7288 52.3648C49.0756 52.018 49.2704 51.5476 49.2704 51.0571V39.2216C49.2706 38.9756 49.2212 38.7321 49.1254 38.5056C49.0295 38.279 48.889 38.0741 48.7124 37.903C48.5357 37.7318 48.3264 37.598 48.097 37.5093C47.8675 37.4207 47.6226 37.3791 47.3768 37.387V37.4462ZM37.7899 43.7191C37.7609 43.3211 37.8397 42.9227 38.018 42.5658C38.1963 42.2089 38.4675 41.9066 38.8031 41.6909C39.1388 41.4751 39.5263 41.3538 39.9251 41.3398C40.3238 41.3257 40.719 41.4194 41.069 41.611C41.4189 41.8026 41.7108 42.0851 41.9137 42.4286C42.1167 42.7721 42.2233 43.1639 42.2224 43.5629C42.2214 43.9619 42.1129 44.3533 41.9083 44.6958C41.7036 45.0383 41.4104 45.3193 41.0595 45.5092V48.764H38.8403V45.5092C38.5244 45.3135 38.2627 45.0417 38.0792 44.7186C37.8956 44.3955 37.7962 44.0314 37.7899 43.6599V43.7191Z" fill="url(#paint0_linear_720_19071)"/>
<defs>
<linearGradient id="paint0_linear_720_19071" x1="11.6605" y1="10.0059" x2="74.5692" y2="34.1803" gradientUnits="userSpaceOnUse">
<stop stop-color="#002D85"/>
<stop offset="1" stop-color="#DE0000"/>
</linearGradient>
</defs>
</svg>
