<svg width="81" height="80" viewBox="0 0 81 80" fill="none" xmlns="http://www.w3.org/2000/svg">
<path fill-rule="evenodd" clip-rule="evenodd" d="M53.4982 61.8644V65.1186H19.6832V21.1864H24.5698V23.6271C24.5698 25.0508 25.7424 26.0678 26.9153 26.0678H46.2662C47.6344 26.0678 48.6118 24.8474 48.6118 23.6271V21.1864H53.4982V23.6271H58.3849V18.7458C58.3849 17.3221 57.2121 16.3051 56.0393 16.3051H48.6118C48.0253 12.8474 45.0934 10 41.5751 10H31.9973C28.479 10 25.5471 12.644 24.9608 16.3051H17.5331C16.1647 16.3051 15.1875 17.5255 15.1875 18.7458V67.5593C15.1875 68.983 16.3603 70 17.5331 70H56.0393C57.4076 70 58.3849 68.7797 58.3849 67.5593V61.8644H53.4982ZM26.9153 17.3221C26.9153 15.4915 28.2836 14.0678 30.0428 14.0678H42.9433C44.7024 14.0678 46.0706 15.4915 46.0706 17.3221V24.0338H26.7199V17.3221H26.9153ZM43.0842 32.373H27.7882C26.3412 32.373 25.3077 33.5934 25.3077 34.8137C25.3077 36.2373 26.5479 37.2543 27.7882 37.2543H43.0842C44.5312 37.2543 45.5649 36.0339 45.5649 34.8137C45.5649 33.5934 44.5312 32.373 43.0842 32.373ZM43.0842 42.5424H27.7882C26.3412 42.5424 25.3077 43.7629 25.3077 44.9831C25.3077 46.4068 26.5479 47.4238 27.7882 47.4238H43.0842C44.5312 47.4238 45.5649 46.2035 45.5649 44.9831C45.5649 43.7629 44.5312 42.5424 43.0842 42.5424ZM27.6532 52.7119H32.5398C33.908 52.7119 35.0808 53.9321 34.8854 55.1526C34.8854 56.3728 33.908 57.5932 32.5398 57.5932H27.6532C26.4806 57.5932 25.3077 56.5762 25.3077 55.1526C25.3077 53.9321 26.285 52.7119 27.6532 52.7119ZM57.9038 35.5084V36.6443H65.0555V35.3578C65.1586 33.6302 64.5886 31.9286 63.46 30.5955C62.1453 29.3438 60.4199 28.5874 58.5895 28.4606V26.2712H55.3426V28.4606C53.3646 28.5641 51.4827 29.3273 50.0105 30.6229C49.396 31.2662 48.9216 32.025 48.6162 32.853C48.3106 33.681 48.1803 34.5611 48.233 35.44C48.2099 36.75 48.4973 38.0473 49.0728 39.2306C49.5128 40.2223 50.1668 41.1092 50.9901 41.8307C52.3938 42.8704 53.8512 43.8386 55.3566 44.7319C56.3328 45.1924 57.1287 45.9514 57.6239 46.8941C57.878 47.9749 57.9815 49.0841 57.9318 50.1921C57.9657 50.673 57.8433 51.1519 57.5819 51.5606C57.4578 51.718 57.2956 51.8428 57.11 51.924C56.9243 52.0052 56.7211 52.0403 56.5182 52.0258C56.2921 52.054 56.0631 52.0016 55.8732 51.8786C55.6831 51.7555 55.5445 51.5698 55.4826 51.3553C55.2815 50.2262 55.2065 49.0791 55.2588 47.9342V46.2508H48.2611V47.6194C48.2611 50.6756 48.9608 52.8195 50.3603 54.0512C51.7206 55.2581 53.444 56.0023 55.2726 56.1724V58.8135H58.5895V56.2271C60.6618 56.0666 62.5958 55.1479 64.0058 53.6543C65.2895 52.0058 65.9251 49.9613 65.7972 47.8931C65.8409 46.5902 65.6172 45.292 65.1395 44.0751C64.7789 43.1734 64.2198 42.3604 63.502 41.6938C62.3558 40.7944 61.1391 39.9844 59.8632 39.2717C58.5284 38.5438 57.2596 37.7059 56.0705 36.7673C55.5636 36.1491 55.3094 35.3689 55.3566 34.5778C55.3006 34.0511 55.4131 33.5203 55.6786 33.0587C55.7746 32.8982 55.9145 32.767 56.0826 32.68C56.2508 32.593 56.4404 32.5534 56.6301 32.5661C56.8416 32.5386 57.0563 32.5783 57.2429 32.6794C57.4293 32.7805 57.5776 32.9374 57.6659 33.1271C57.8787 33.9026 57.9591 34.7072 57.9038 35.5084Z" fill="url(#paint0_linear_720_18988)"/>
<defs>
<linearGradient id="paint0_linear_720_18988" x1="16.5886" y1="10" x2="71.7138" y2="27.8703" gradientUnits="userSpaceOnUse">
<stop stop-color="#002D85"/>
<stop offset="1" stop-color="#DE0000"/>
</linearGradient>
</defs>
</svg>
