<svg width="80" height="80" viewBox="0 0 80 80" fill="none" xmlns="http://www.w3.org/2000/svg">
<path d="M54.8316 47.6361C55.3464 47.6361 55.8495 47.777 56.2776 48.0414C56.7056 48.3057 57.0392 48.6813 57.2362 49.1209C57.4334 49.5604 57.485 50.044 57.3845 50.5106C57.2841 50.9773 57.036 51.4058 56.6721 51.7422C56.3079 52.0785 55.8442 52.3077 55.3394 52.4005C54.8345 52.4932 54.3111 52.4457 53.8356 52.2637C53.3599 52.0816 52.9534 51.7732 52.6673 51.3777C52.3814 50.9822 52.2286 50.5171 52.2286 50.0414C52.2286 49.7255 52.296 49.4128 52.4268 49.1209C52.5576 48.8291 52.7494 48.5639 52.9911 48.3405C53.2328 48.1171 53.5196 47.9401 53.8356 47.8192C54.1514 47.6982 54.4898 47.6361 54.8316 47.6361ZM63.9372 49.5602V40.6648C63.9372 39.3889 63.3888 38.1654 62.4125 37.2631C61.4362 36.3609 60.1121 35.854 58.7314 35.854H21.269C19.8883 35.854 18.5642 36.3609 17.5879 37.2631C16.6116 38.1654 16.0634 39.3889 16.0634 40.6648V60.3786C16.0634 61.6545 16.6116 62.8782 17.5879 63.7804C18.5642 64.6825 19.8883 65.1894 21.269 65.1894H58.7314C60.1121 65.1894 61.4362 64.6825 62.4125 63.7804C63.3888 62.8782 63.9372 61.6545 63.9372 60.3786C63.9372 59.7407 64.2115 59.1289 64.6997 58.6778C65.1878 58.2268 65.8498 57.9733 66.5402 57.9733C67.2305 57.9733 67.8926 58.2268 68.3808 58.6778C68.8689 59.1289 69.1431 59.7407 69.1431 60.3786C69.1431 62.9305 68.0462 65.3776 66.0936 67.1821C64.141 68.9863 61.4926 70 58.7314 70H21.269C18.5076 70 15.8595 68.9863 13.907 67.1821C11.9544 65.3776 10.8574 62.9305 10.8574 60.3786V40.6648C10.8574 38.1131 11.9544 35.6658 13.907 33.8615C15.8595 32.057 18.5076 31.0434 21.269 31.0434H24.3849V23.9802C24.5119 20.2327 26.2123 16.6779 29.1259 14.0685C32.0393 11.4592 35.9376 10 39.995 10C44.0523 10 47.9503 11.4592 50.8639 14.0685C53.7775 16.6779 55.4777 20.2327 55.6047 23.9802V31.0434H58.7314C61.4926 31.0434 64.141 32.057 66.0936 33.8615C68.0462 35.6658 69.1431 38.1131 69.1431 40.6648V49.5602C69.1431 50.1983 68.8689 50.8101 68.3808 51.2611C67.8926 51.7122 67.2305 51.9657 66.5402 51.9657C65.8498 51.9657 65.1878 51.7122 64.6997 51.2611C64.2115 50.8101 63.9372 50.1983 63.9372 49.5602ZM50.4036 23.9845C50.3169 21.4874 49.1825 19.1195 47.2404 17.3815C45.2983 15.6435 42.7008 14.6718 39.9972 14.6718C37.2936 14.6718 34.6961 15.6435 32.754 17.3815C30.8119 19.1195 29.6775 21.4874 29.5908 23.9845V31.0477H50.4036V23.9845ZM32.5874 50.0399C32.5874 50.5156 32.7399 50.9807 33.0261 51.3762C33.312 51.7718 33.7185 52.0802 34.1942 52.2623C34.6697 52.4443 35.1931 52.4918 35.6979 52.3991C36.203 52.3063 36.6667 52.0771 37.0306 51.7408C37.3946 51.4045 37.6426 50.9757 37.7431 50.5093C37.8435 50.0426 37.7919 49.559 37.595 49.1195C37.3978 48.6799 37.0642 48.3042 36.6362 48.04C36.2083 47.7757 35.705 47.6346 35.1902 47.6346C34.8483 47.6346 34.5099 47.6968 34.1942 47.8177C33.8784 47.9387 33.5914 48.1158 33.3497 48.3391C33.108 48.5625 32.9162 48.8275 32.7854 49.1195C32.6546 49.4113 32.5874 49.7241 32.5874 50.0399ZM22.8309 50.0399C22.8309 50.5156 22.9834 50.9807 23.2695 51.3762C23.5555 51.7718 23.9619 52.0802 24.4377 52.2623C24.9132 52.4443 25.4367 52.4918 25.9416 52.3991C26.4466 52.3063 26.9103 52.0771 27.2743 51.7408C27.6384 51.4045 27.8861 50.9757 27.9866 50.5093C28.087 50.0426 28.0356 49.559 27.8386 49.1195C27.6417 48.6799 27.3081 48.3042 26.88 48.04C26.4519 47.7757 25.9486 47.6346 25.4338 47.6346C25.092 47.6346 24.7534 47.6968 24.4377 47.8177C24.1219 47.9387 23.8349 48.1158 23.5932 48.3391C23.3515 48.5625 23.1598 48.8275 23.0289 49.1195C22.8981 49.4113 22.8309 49.7241 22.8309 50.0399ZM42.3435 50.0399C42.3435 50.5156 42.4963 50.9807 42.7822 51.3762C43.0683 51.7718 43.4748 52.0802 43.9505 52.2623C44.4261 52.4443 44.9494 52.4918 45.4543 52.3991C45.9591 52.3063 46.423 52.0771 46.7871 51.7408C47.1511 51.4045 47.399 50.9757 47.4994 50.5093C47.5999 50.0426 47.5485 49.559 47.3513 49.1195C47.1543 48.6799 46.8207 48.3042 46.3927 48.04C45.9646 47.7757 45.4613 47.6346 44.9465 47.6346C44.6047 47.6346 44.2663 47.6968 43.9505 47.8177C43.6346 47.9387 43.3478 48.1158 43.1061 48.3391C42.8643 48.5625 42.6725 48.8275 42.5417 49.1195C42.4109 49.4113 42.3435 49.7241 42.3435 50.0399Z" fill="url(#paint0_linear_720_18984)"/>
<defs>
<linearGradient id="paint0_linear_720_18984" x1="12.4705" y1="10" x2="74.0308" y2="32.9759" gradientUnits="userSpaceOnUse">
<stop stop-color="#002D85"/>
<stop offset="1" stop-color="#DE0000"/>
</linearGradient>
</defs>
</svg>
