<svg width="81" height="80" viewBox="0 0 81 80" fill="none" xmlns="http://www.w3.org/2000/svg">
<path fill-rule="evenodd" clip-rule="evenodd" d="M53.3937 61.8644V65.1186H19.5787V21.1864H24.4653V23.6271C24.4653 25.0508 25.6379 26.0678 26.8107 26.0678H46.1617C47.5299 26.0678 48.5073 24.8474 48.5073 23.6271V21.1864H53.3937V23.6271H58.2804V18.7458C58.2804 17.3221 57.1075 16.3051 55.9347 16.3051H48.5073C47.9208 12.8474 44.9888 10 41.4706 10H31.8927C28.3745 10 25.4425 12.644 24.8562 16.3051H17.4286C16.0602 16.3051 15.083 17.5255 15.083 18.7458V67.5593C15.083 68.983 16.2558 70 17.4286 70H55.9347C57.3031 70 58.2804 68.7797 58.2804 67.5593V61.8644H53.3937ZM26.8107 17.3221C26.8107 15.4915 28.1791 14.0678 29.9382 14.0678H42.8388C44.5979 14.0678 45.9661 15.4915 45.9661 17.3221V24.0338H26.6154V17.3221H26.8107ZM42.9797 32.373H27.6837C26.2367 32.373 25.2032 33.5934 25.2032 34.8137C25.2032 36.2373 26.4433 37.2543 27.6837 37.2543H42.9797C44.4267 37.2543 45.4603 36.0339 45.4603 34.8137C45.4603 33.5934 44.4267 32.373 42.9797 32.373ZM42.9797 42.5424H27.6837C26.2367 42.5424 25.2032 43.7629 25.2032 44.9831C25.2032 46.4068 26.4433 47.4238 27.6837 47.4238H42.9797C44.4267 47.4238 45.4603 46.2035 45.4603 44.9831C45.4603 43.7629 44.4267 42.5424 42.9797 42.5424ZM27.5487 52.7119H32.4353C33.8035 52.7119 34.9763 53.9321 34.7809 55.1526C34.7809 56.3728 33.8035 57.5932 32.4353 57.5932H27.5487C26.376 57.5932 25.2032 56.5762 25.2032 55.1526C25.2032 53.9321 26.1805 52.7119 27.5487 52.7119ZM57.7993 35.5084V36.6443H64.9509V35.3578C65.0541 33.6302 64.4841 31.9286 63.3555 30.5955C62.0407 29.3438 60.3154 28.5874 58.485 28.4606V26.2712H55.2381V28.4606C53.2601 28.5641 51.3782 29.3273 49.9059 30.6229C49.2915 31.2662 48.8171 32.025 48.5117 32.853C48.2061 33.681 48.0757 34.5611 48.1284 35.44C48.1054 36.75 48.3928 38.0473 48.9683 39.2306C49.4083 40.2223 50.0623 41.1092 50.8856 41.8307C52.2892 42.8704 53.7467 43.8386 55.2521 44.7319C56.2282 45.1924 57.0242 45.9514 57.5194 46.8941C57.7734 47.9749 57.8769 49.0841 57.8273 50.1921C57.8612 50.673 57.7388 51.1519 57.4774 51.5606C57.3533 51.718 57.1911 51.8428 57.0054 51.924C56.8198 52.0052 56.6166 52.0403 56.4137 52.0258C56.1876 52.054 55.9586 52.0016 55.7687 51.8786C55.5786 51.7555 55.44 51.5698 55.3781 51.3553C55.1769 50.2262 55.1019 49.0791 55.1542 47.9342V46.2508H48.1566V47.6194C48.1566 50.6756 48.8563 52.8195 50.2558 54.0512C51.6161 55.2581 53.3394 56.0023 55.1681 56.1724V58.8135H58.485V56.2271C60.5573 56.0666 62.4913 55.1479 63.9013 53.6543C65.1849 52.0058 65.8206 49.9613 65.6927 47.8931C65.7364 46.5902 65.5127 45.292 65.0349 44.0751C64.6744 43.1734 64.1152 42.3604 63.3975 41.6938C62.2513 40.7944 61.0346 39.9844 59.7587 39.2717C58.4239 38.5438 57.1551 37.7059 55.9659 36.7673C55.4591 36.1491 55.2049 35.3689 55.2521 34.5778C55.1961 34.0511 55.3086 33.5203 55.5741 33.0587C55.6701 32.8982 55.8099 32.767 55.9781 32.68C56.1463 32.593 56.3359 32.5534 56.5256 32.5661C56.7371 32.5386 56.9518 32.5783 57.1384 32.6794C57.3247 32.7805 57.4731 32.9374 57.5614 33.1271C57.7742 33.9026 57.8546 34.7072 57.7993 35.5084Z" fill="url(#paint0_linear_808_17841)"/>
<defs>
<linearGradient id="paint0_linear_808_17841" x1="64.8033" y1="68.6986" x2="64.8033" y2="10" gradientUnits="userSpaceOnUse">
<stop stop-color="#002D85"/>
<stop offset="1" stop-color="#013AA9"/>
</linearGradient>
</defs>
</svg>
