<svg width="81" height="80" viewBox="0 0 81 80" fill="none" xmlns="http://www.w3.org/2000/svg">
<path d="M68.5684 48.8165H56.4546V43.2834C56.4546 42.6529 56.578 42.0288 56.8176 41.4464C57.0573 40.8639 57.4087 40.3348 57.8516 39.889C58.2945 39.4432 58.8202 39.0896 59.3989 38.8484C59.9775 38.6071 60.5978 38.4831 61.2241 38.4831C61.8503 38.4831 62.4706 38.6071 63.0492 38.8484C63.628 39.0896 64.1537 39.4432 64.5966 39.889C65.0394 40.3348 65.3908 40.8639 65.6305 41.4464C65.8702 42.0288 65.9936 42.6529 65.9936 43.2834V45.4997C65.9936 45.7935 66.1095 46.0753 66.316 46.2832C66.5224 46.491 66.8025 46.6077 67.0945 46.6077C67.3866 46.6077 67.6666 46.491 67.873 46.2832C68.0795 46.0753 68.1954 45.7935 68.1954 45.4997V43.2834C68.1687 41.4404 67.4226 39.6819 66.1183 38.3882C64.8139 37.0943 63.0562 36.3691 61.2247 36.3691C59.3934 36.3691 57.6358 37.0943 56.3313 38.3882C55.027 39.6819 54.2808 41.4404 54.2542 43.2834V48.8165H53.8872C53.6462 48.8165 53.4075 48.8644 53.1849 48.9571C52.9622 49.0499 52.76 49.1861 52.5896 49.3575C52.4192 49.5291 52.2841 49.7326 52.1918 49.9567C52.0997 50.1808 52.0522 50.421 52.0522 50.6634V62.4776C52.0522 62.7202 52.0997 62.9602 52.1918 63.1843C52.2841 63.4084 52.4192 63.6121 52.5896 63.7835C52.76 63.955 52.9622 64.0911 53.1849 64.1838C53.4075 64.2768 53.6462 64.3244 53.8872 64.3244H68.5626C68.8034 64.3244 69.0419 64.2768 69.2644 64.1838C69.487 64.0911 69.6893 63.955 69.8595 63.7835C70.0298 63.6119 70.1647 63.4082 70.2568 63.1843C70.3489 62.9602 70.3961 62.72 70.396 62.4776V50.6634C70.3963 50.1748 70.2041 49.706 69.8616 49.3598C69.519 49.0136 69.0539 48.8182 68.5684 48.8165ZM62.3281 57.0117V60.2628H60.1275V57.0117C59.708 56.768 59.3801 56.3916 59.1948 55.9411C59.0094 55.4906 58.9768 54.9913 59.1023 54.5204C59.2277 54.0495 59.5039 53.6334 59.8882 53.3365C60.2725 53.0397 60.7434 52.8789 61.2278 52.8789C61.7122 52.8789 62.1831 53.0397 62.5673 53.3365C62.9516 53.6334 63.2279 54.0495 63.3533 54.5204C63.4786 54.9913 63.4462 55.4906 63.2608 55.9411C63.0753 56.3916 62.7476 56.768 62.3281 57.0117ZM16.4164 36.2937C16.0969 36.2937 15.7905 36.4213 15.5644 36.6489C15.3383 36.8762 15.2115 37.1848 15.2115 37.5065V44.7789C15.2115 45.1004 15.3383 45.409 15.5644 45.6364C15.7905 45.8639 16.0969 45.9917 16.4164 45.9917H38.1004C38.2587 45.9917 38.4153 45.9602 38.5616 45.8992C38.7077 45.8384 38.8405 45.7491 38.9524 45.6364C39.0643 45.5238 39.1532 45.3901 39.2136 45.243C39.2743 45.0959 39.3054 44.9381 39.3054 44.7789V37.5051C39.3054 37.3457 39.2743 37.1881 39.2136 37.0408C39.1532 36.8937 39.0643 36.7599 38.9524 36.6474C38.8405 36.5347 38.7077 36.4455 38.5616 36.3845C38.4153 36.3236 38.2587 36.2921 38.1004 36.2921L16.4164 36.2937ZM36.8954 43.5675H17.6243V38.7177H36.8983L36.8954 43.5675ZM44.1239 39.9305H41.7139V37.5065H44.1225L44.1239 39.9305ZM46.5323 39.9305V37.5065H48.9424V39.9305H46.5323ZM41.7139 42.3562H44.1225V44.7789H41.7124L41.7139 42.3562ZM48.9424 52.0557H16.4195C15.4611 52.0557 14.542 51.6725 13.8643 50.9905C13.1866 50.3084 12.8059 49.3833 12.8059 48.4188V33.8619H65.8152V36.2877C65.8095 36.4504 65.8364 36.6127 65.8945 36.7646C65.9524 36.9168 66.0401 37.0556 66.1525 37.1726C66.2649 37.2899 66.3996 37.383 66.5485 37.4465C66.6975 37.5103 66.8576 37.543 67.0194 37.543C67.1813 37.543 67.3415 37.5103 67.4903 37.4465C67.6394 37.383 67.774 37.2899 67.8863 37.1726C67.9987 37.0556 68.0864 36.9168 68.1445 36.7646C68.2024 36.6127 68.2295 36.4504 68.2238 36.2877V21.7384C68.2238 20.1305 67.5891 18.5885 66.4595 17.4515C65.3299 16.3146 63.7977 15.6758 62.2003 15.6758H16.4195C14.8219 15.6758 13.2898 16.3146 12.1602 17.4515C11.0306 18.5885 10.396 20.1305 10.396 21.7384V48.4129C10.3964 50.0204 11.0311 51.5621 12.1607 52.6987C13.2903 53.8353 14.8222 54.4739 16.4195 54.4739H48.9453C49.2648 54.4739 49.5709 54.3461 49.7968 54.1189C50.0227 53.8916 50.1495 53.5833 50.1495 53.2619C50.1495 52.9403 50.0227 52.632 49.7968 52.4049C49.5709 52.1775 49.2648 52.0497 48.9453 52.0497L48.9424 52.0557ZM12.803 21.7444C12.8042 20.78 13.1852 19.8555 13.8625 19.1735C14.5399 18.4914 15.4583 18.1075 16.4164 18.1059H62.1928C63.1512 18.1071 64.07 18.4908 64.7477 19.1729C65.4254 19.855 65.8066 20.7798 65.8078 21.7444V24.1685H12.8059L12.803 21.7444ZM12.803 26.5942H65.8152V31.4439H12.8059L12.803 26.5942Z" fill="url(#paint0_linear_808_17839)"/>
<defs>
<linearGradient id="paint0_linear_808_17839" x1="69.3228" y1="63.2693" x2="69.3228" y2="15.6758" gradientUnits="userSpaceOnUse">
<stop stop-color="#002D85"/>
<stop offset="1" stop-color="#013AA9"/>
</linearGradient>
</defs>
</svg>
