<svg width="81" height="80" viewBox="0 0 81 80" fill="none" xmlns="http://www.w3.org/2000/svg">
<path d="M55.7273 47.6361C56.2421 47.6361 56.7453 47.777 57.1733 48.0414C57.6014 48.3057 57.935 48.6813 58.1319 49.1209C58.3291 49.5604 58.3807 50.044 58.2802 50.5106C58.1798 50.9773 57.9317 51.4058 57.5678 51.7422C57.2037 52.0785 56.7399 52.3077 56.2351 52.4005C55.7302 52.4932 55.2069 52.4457 54.7313 52.2637C54.2556 52.0816 53.8491 51.7732 53.563 51.3777C53.2771 50.9822 53.1243 50.5171 53.1243 50.0414C53.1243 49.7255 53.1917 49.4128 53.3225 49.1209C53.4533 48.8291 53.6451 48.5639 53.8869 48.3405C54.1286 48.1171 54.4154 47.9401 54.7313 47.8192C55.0471 47.6982 55.3855 47.6361 55.7273 47.6361ZM64.8329 49.5602V40.6648C64.8329 39.3889 64.2845 38.1654 63.3082 37.2631C62.3319 36.3609 61.0078 35.854 59.6271 35.854H22.1647C20.784 35.854 19.4599 36.3609 18.4836 37.2631C17.5073 38.1654 16.9591 39.3889 16.9591 40.6648V60.3786C16.9591 61.6545 17.5073 62.8782 18.4836 63.7804C19.4599 64.6825 20.784 65.1894 22.1647 65.1894H59.6271C61.0078 65.1894 62.3319 64.6825 63.3082 63.7804C64.2845 62.8782 64.8329 61.6545 64.8329 60.3786C64.8329 59.7407 65.1072 59.1289 65.5954 58.6778C66.0835 58.2268 66.7455 57.9733 67.4359 57.9733C68.1262 57.9733 68.7883 58.2268 69.2765 58.6778C69.7646 59.1289 70.0389 59.7407 70.0389 60.3786C70.0389 62.9305 68.9419 65.3776 66.9893 67.1821C65.0367 68.9863 62.3883 70 59.6271 70H22.1647C19.4033 70 16.7553 68.9863 14.8027 67.1821C12.8501 65.3776 11.7531 62.9305 11.7531 60.3786V40.6648C11.7531 38.1131 12.8501 35.6658 14.8027 33.8615C16.7553 32.057 19.4033 31.0434 22.1647 31.0434H25.2806V23.9802C25.4076 20.2327 27.108 16.6779 30.0216 14.0685C32.935 11.4592 36.8333 10 40.8907 10C44.9481 10 48.846 11.4592 51.7596 14.0685C54.6732 16.6779 56.3734 20.2327 56.5005 23.9802V31.0434H59.6271C62.3883 31.0434 65.0367 32.057 66.9893 33.8615C68.9419 35.6658 70.0389 38.1131 70.0389 40.6648V49.5602C70.0389 50.1983 69.7646 50.8101 69.2765 51.2611C68.7883 51.7122 68.1262 51.9657 67.4359 51.9657C66.7455 51.9657 66.0835 51.7122 65.5954 51.2611C65.1072 50.8101 64.8329 50.1983 64.8329 49.5602ZM51.2993 23.9845C51.2126 21.4874 50.0782 19.1195 48.1361 17.3815C46.194 15.6435 43.5965 14.6718 40.8929 14.6718C38.1893 14.6718 35.5918 15.6435 33.6497 17.3815C31.7076 19.1195 30.5733 21.4874 30.4865 23.9845V31.0477H51.2993V23.9845ZM33.4831 50.0399C33.4831 50.5156 33.6357 50.9807 33.9218 51.3762C34.2077 51.7718 34.6142 52.0802 35.0899 52.2623C35.5654 52.4443 36.0888 52.4918 36.5937 52.3991C37.0987 52.3063 37.5624 52.0771 37.9263 51.7408C38.2903 51.4045 38.5383 50.9757 38.6388 50.5093C38.7393 50.0426 38.6877 49.559 38.4907 49.1195C38.2935 48.6799 37.9599 48.3042 37.5319 48.04C37.104 47.7757 36.6007 47.6346 36.0859 47.6346C35.7441 47.6346 35.4057 47.6968 35.0899 47.8177C34.7741 47.9387 34.4871 48.1158 34.2454 48.3391C34.0037 48.5625 33.8119 48.8275 33.6811 49.1195C33.5503 49.4113 33.4831 49.7241 33.4831 50.0399ZM23.7266 50.0399C23.7266 50.5156 23.8791 50.9807 24.1653 51.3762C24.4512 51.7718 24.8577 52.0802 25.3334 52.2623C25.8089 52.4443 26.3325 52.4918 26.8373 52.3991C27.3423 52.3063 27.8061 52.0771 28.17 51.7408C28.5341 51.4045 28.7818 50.9757 28.8823 50.5093C28.9827 50.0426 28.9313 49.559 28.7343 49.1195C28.5374 48.6799 28.2038 48.3042 27.7757 48.04C27.3477 47.7757 26.8443 47.6346 26.3295 47.6346C25.9877 47.6346 25.6491 47.6968 25.3334 47.8177C25.0176 47.9387 24.7306 48.1158 24.4889 48.3391C24.2472 48.5625 24.0555 48.8275 23.9246 49.1195C23.7938 49.4113 23.7266 49.7241 23.7266 50.0399ZM43.2393 50.0399C43.2393 50.5156 43.392 50.9807 43.6779 51.3762C43.9641 51.7718 44.3705 52.0802 44.8462 52.2623C45.3218 52.4443 45.8451 52.4918 46.35 52.3991C46.8549 52.3063 47.3187 52.0771 47.6829 51.7408C48.0468 51.4045 48.2947 50.9757 48.3951 50.5093C48.4956 50.0426 48.4442 49.559 48.247 49.1195C48.0501 48.6799 47.7165 48.3042 47.2884 48.04C46.8603 47.7757 46.357 47.6346 45.8422 47.6346C45.5004 47.6346 45.162 47.6968 44.8462 47.8177C44.5303 47.9387 44.2435 48.1158 44.0018 48.3391C43.7601 48.5625 43.5682 48.8275 43.4374 49.1195C43.3066 49.4113 43.2393 49.7241 43.2393 50.0399Z" fill="url(#paint0_linear_808_17837)"/>
<defs>
<linearGradient id="paint0_linear_808_17837" x1="68.9964" y1="68.6986" x2="68.9964" y2="10" gradientUnits="userSpaceOnUse">
<stop stop-color="#002D85"/>
<stop offset="1" stop-color="#013AA9"/>
</linearGradient>
</defs>
</svg>
