<svg width="81" height="80" viewBox="0 0 81 80" fill="none" xmlns="http://www.w3.org/2000/svg">
<path d="M70.0651 35.4342L65.6268 34.9312C65.4149 34.0054 65.1532 33.0917 64.8426 32.1942L68.5856 29.6495L68.3785 28.7175C67.7637 26.1981 66.439 23.9081 64.5616 22.1191L63.8958 21.4386L59.709 23.3175C59.3835 22.9624 59.0432 22.6074 58.7029 22.2671C58.3627 21.9268 58.0816 21.6457 57.7561 21.3646L59.709 17.1778L59.058 16.4824C57.2675 14.607 54.9781 13.2826 52.4597 12.6655L51.5424 12.414L48.8202 16.1126C47.9425 15.8192 47.0484 15.5771 46.1424 15.3877L45.7726 10.831L44.9145 10.5499C42.4266 9.82452 39.7833 9.82452 37.2953 10.5499L36.3781 10.8014L35.8603 15.3581C34.9726 15.5504 34.0701 15.7871 33.1825 16.0682L30.5195 12.2956L29.5874 12.5175C27.0719 13.1336 24.7835 14.4522 22.9891 16.3197L22.3233 17.0003L24.2022 21.2019C23.8324 21.5274 23.4773 21.8676 23.1518 22.2079C22.8263 22.5482 22.5305 22.8293 22.2346 23.1548L18.0625 21.1871L17.3672 21.838C15.4897 23.627 14.165 25.917 13.5502 28.4364L13.2987 29.3684L16.9973 32.0906C16.7041 32.9634 16.462 33.8526 16.2724 34.7536L11.7157 35.1531L11.4346 36.0555C10.7166 38.5445 10.7166 41.1857 11.4346 43.6747L11.6861 44.6067L16.2576 45.1097C16.4389 46.0147 16.671 46.9087 16.9529 47.7876L13.1804 50.3766L13.4023 51.3086C14.009 53.8279 15.3291 56.1188 17.2045 57.907L17.885 58.5875L22.0866 56.7382C22.4121 57.1081 22.7524 57.4631 23.0927 57.8034L24.0395 58.7059L22.0718 62.8335L22.7376 63.5437C24.5306 65.4084 26.812 66.7311 29.3211 67.3606L30.2532 67.6121L32.9754 63.9135C33.8502 64.2001 34.739 64.442 35.6384 64.6385L36.0378 69.1804L36.9551 69.4467C38.1688 69.8133 39.4302 69.9978 40.6981 69.994C42.008 69.9889 43.3114 69.8098 44.5742 69.4614L45.5063 69.2099L45.9797 64.742C46.8841 64.5524 47.778 64.3154 48.6575 64.0319L51.2613 67.7009L52.1934 67.4938C54.7092 66.8785 56.9978 65.5597 58.7917 63.6916L59.4723 63.0111L57.6229 58.8242C57.9928 58.4987 58.3479 58.1585 58.6881 57.8182C59.0284 57.4779 59.2947 57.1968 59.5906 56.8714L63.7331 58.8242L64.4284 58.1585C66.3006 56.3654 67.6244 54.077 68.2454 51.5601L68.4969 50.6429L64.7983 47.9207C65.0867 47.0414 65.3287 46.1476 65.5232 45.2429L70.0651 44.8878L70.3462 43.9854C71.0794 41.4935 71.0794 38.8433 70.3462 36.3514L70.0651 35.4342ZM67.8459 42.2544L63.0969 42.6391L62.9046 43.7191C62.6718 45.165 62.29 46.583 61.7654 47.9503L61.3807 48.9415L65.2125 51.7673C64.7604 53.121 64.0466 54.3727 63.1117 55.4511L58.7917 53.4094L58.0964 54.2527C57.6377 54.8001 57.1643 55.3179 56.6169 55.8209C56.0695 56.324 55.5221 56.8566 54.9451 57.3004L54.1167 57.9809L56.0251 62.3453C54.9666 63.2993 53.7226 64.0245 52.3709 64.4757L49.6487 60.5552L48.6131 60.9398C47.2432 61.4532 45.8259 61.8298 44.3819 62.0642L43.3315 62.2417L42.8137 66.9464C41.413 67.2346 39.9683 67.2346 38.5677 66.9464L38.183 62.1974L37.103 62.005C35.6579 61.7684 34.2403 61.3868 32.8718 60.8659L31.8658 60.496L29.0548 64.313C27.6995 63.8645 26.4471 63.1503 25.371 62.2122L27.4126 57.8922L26.5694 57.1968C26.022 56.7382 25.4894 56.2648 24.9863 55.7174C24.4623 55.1934 23.9684 54.6402 23.5069 54.0604L22.8263 53.2171L18.536 55.2292C17.5856 54.1654 16.8564 52.9232 16.3908 51.5749L20.3113 48.8528L19.9266 47.8319C19.4224 46.4602 19.0509 45.0433 18.817 43.6007L18.6543 42.5503L13.9201 42.0325C13.6468 40.6304 13.6468 39.1886 13.9201 37.7865L18.6839 37.4018L18.8614 36.3218C19.11 34.8778 19.4964 33.4609 20.0154 32.0906L20.4001 31.0994L16.5387 28.2588C16.9881 26.907 17.6966 25.6558 18.6247 24.575L22.9447 26.6167L23.6548 25.7734C24.5846 24.6415 25.6254 23.6056 26.7617 22.6813L27.5754 22.0008L25.6817 17.6512C26.7544 16.7055 28.0004 15.977 29.3507 15.506L32.0433 19.4265L33.0789 19.0567C34.4531 18.5409 35.8756 18.1642 37.3249 17.9323L38.3753 17.7696L38.9079 13.0353C40.2997 12.7319 41.7377 12.7067 43.1392 12.9614L43.5238 17.7104L44.6038 17.8879C46.0474 18.1384 47.4641 18.5248 48.835 19.0419L49.8411 19.4265L52.652 15.5948C54.0058 16.0469 55.2574 16.7607 56.3358 17.6956L54.2942 22.0748L55.1375 22.7701C55.7035 23.2154 56.242 23.6947 56.7501 24.2052C57.2827 24.7378 57.7857 25.2852 58.2295 25.8769L58.8953 26.6906L63.2448 24.7969C64.2041 25.8541 64.9345 27.0983 65.39 28.4512L61.4547 31.1734L61.8542 32.1942C62.3654 33.5698 62.7419 34.9918 62.9785 36.4402L63.1413 37.4906L67.8607 38.0084C68.1515 39.4078 68.1615 40.8511 67.8903 42.2544H67.8459ZM40.8904 19.3082C36.0979 19.3051 31.4526 20.9641 27.7463 24.0024C24.0399 27.0406 21.5019 31.2702 20.5647 35.9702C19.6275 40.6701 20.3492 45.5497 22.6068 49.7772C24.8643 54.0046 28.518 57.3184 32.9452 59.1537C37.3724 60.9891 42.299 61.2323 46.8854 59.8421C51.4718 58.4519 55.4342 55.5142 58.0973 51.5297C60.7604 47.5452 61.9593 42.7605 61.4897 37.991C61.0201 33.2216 58.9111 28.7626 55.5221 25.3739C53.6053 23.4458 51.3252 21.917 48.8137 20.8758C46.3022 19.8347 43.6092 19.3018 40.8904 19.3082ZM53.1254 52.2407C50.2861 55.0642 46.5557 56.8159 42.5697 57.1975C38.5836 57.5792 34.5886 56.567 31.2651 54.3335C27.9417 52.1 25.4953 48.7834 24.3429 44.9486C23.1904 41.1138 23.4032 36.998 24.9449 33.3024C26.4865 29.6069 29.2618 26.5601 32.7978 24.6812C36.3339 22.8023 40.412 22.2074 44.3374 22.998C48.2628 23.7885 51.7928 25.9156 54.3259 29.0167C56.8589 32.1179 58.2385 36.0014 58.2295 40.0057C58.2301 42.2812 57.7793 44.5343 56.9031 46.6345C56.027 48.7346 54.743 50.6401 53.1254 52.2407ZM48.2728 37.4462H36.0378V31.8539C36.0378 30.5826 36.5428 29.3634 37.4418 28.4645C38.3407 27.5655 39.5599 27.0605 40.8312 27.0605C42.1025 27.0605 43.3217 27.5655 44.2207 28.4645C45.1196 29.3634 45.6246 30.5826 45.6246 31.8539V34.0583C45.6246 34.3526 45.7415 34.6348 45.9496 34.8429C46.1577 35.051 46.4399 35.1679 46.7342 35.1679C47.0285 35.1679 47.3107 35.051 47.5188 34.8429C47.7269 34.6348 47.8438 34.3526 47.8438 34.0583V31.8539C47.8873 30.9069 47.7384 29.9609 47.406 29.073C47.0736 28.1852 46.5646 27.374 45.9098 26.6884C45.2551 26.0029 44.4681 25.4572 43.5964 25.0844C42.7248 24.7115 41.7866 24.5193 40.8386 24.5193C39.8906 24.5193 38.9524 24.7115 38.0808 25.0844C37.2092 25.4572 36.4222 26.0029 35.7674 26.6884C35.1126 27.374 34.6037 28.1852 34.2712 29.073C33.9388 29.9609 33.7899 30.9069 33.8334 31.8539V37.387H33.5228C33.2806 37.3851 33.0405 37.4311 32.8162 37.5224C32.5919 37.6137 32.3879 37.7485 32.216 37.9191C32.0441 38.0896 31.9076 38.2925 31.8145 38.5161C31.7214 38.7396 31.6734 38.9794 31.6734 39.2216V51.0571C31.6734 51.3 31.7213 51.5405 31.8142 51.7648C31.9071 51.9892 32.0434 52.1931 32.2151 52.3648C32.3868 52.5365 32.5907 52.6727 32.8151 52.7657C33.0394 52.8586 33.2799 52.9064 33.5228 52.9064H48.3172C48.8077 52.9064 49.2781 52.7116 49.6249 52.3648C49.9717 52.018 50.1665 51.5476 50.1665 51.0571V39.2216C50.1667 38.9756 50.1173 38.7321 50.0214 38.5056C49.9256 38.279 49.7851 38.0741 49.6085 37.903C49.4318 37.7318 49.2225 37.598 48.9931 37.5093C48.7636 37.4207 48.5187 37.3791 48.2728 37.387V37.4462ZM38.686 43.7191C38.657 43.3211 38.7358 42.9227 38.9141 42.5658C39.0924 42.2089 39.3636 41.9066 39.6992 41.6909C40.0349 41.4751 40.4224 41.3538 40.8212 41.3398C41.2199 41.3257 41.6151 41.4194 41.965 41.611C42.315 41.8026 42.6069 42.0851 42.8098 42.4286C43.0128 42.7721 43.1194 43.1639 43.1185 43.5629C43.1175 43.9619 43.009 44.3533 42.8043 44.6958C42.5997 45.0383 42.3065 45.3193 41.9556 45.5092V48.764H39.7364V45.5092C39.4205 45.3135 39.1588 45.0417 38.9753 44.7186C38.7917 44.3955 38.6923 44.0314 38.686 43.6599V43.7191Z" fill="url(#paint0_linear_808_17931)"/>
<defs>
<linearGradient id="paint0_linear_808_17931" x1="69.8229" y1="68.693" x2="69.8229" y2="10.0059" gradientUnits="userSpaceOnUse">
<stop stop-color="#002D85"/>
<stop offset="1" stop-color="#013AA9"/>
</linearGradient>
</defs>
</svg>
