<svg width="81" height="80" viewBox="0 0 81 80" fill="none" xmlns="http://www.w3.org/2000/svg">
<mask id="mask0_808_17848" style="mask-type:luminance" maskUnits="userSpaceOnUse" x="13" y="10" width="55" height="60">
<path d="M67.2618 10H13.53V70H67.2618V10Z" fill="white"/>
</mask>
<g mask="url(#mask0_808_17848)">
<path d="M54.0759 47.6941C54.5492 47.6996 55.0105 47.8452 55.4015 48.1123C55.7924 48.3792 56.0957 48.756 56.273 49.1951C56.4503 49.634 56.4938 50.1157 56.3981 50.5793C56.3022 51.0431 56.0716 51.468 55.7347 51.8009C55.398 52.1337 54.9704 52.3594 54.5056 52.4498C54.0409 52.5401 53.5597 52.491 53.1228 52.3086C52.6859 52.1261 52.3127 51.8186 52.0503 51.4244C51.7877 51.0304 51.6476 50.5676 51.6476 50.0941C51.6476 49.7765 51.7106 49.4621 51.833 49.1691C51.9554 48.876 52.1347 48.6102 52.3606 48.387C52.5865 48.1638 52.8543 47.9876 53.1488 47.8686C53.4433 47.7497 53.7584 47.6903 54.0759 47.6941ZM62.4618 49.6141V40.7341C62.4618 39.4611 61.9561 38.2401 61.0559 37.34C60.1556 36.4398 58.9348 35.9341 57.6618 35.9341H23.13C21.857 35.9341 20.6361 36.4398 19.7359 37.34C18.8357 38.2401 18.33 39.4611 18.33 40.7341V60.4C18.33 61.673 18.8357 62.8939 19.7359 63.7942C20.6361 64.6943 21.857 65.2 23.13 65.2H57.6618C58.9348 65.2 60.1556 64.6943 61.0559 63.7942C61.9561 62.8939 62.4618 61.673 62.4618 60.4C62.4618 59.7634 62.7146 59.153 63.1647 58.7029C63.6148 58.2528 64.2252 58 64.8618 58C65.4983 58 66.1088 58.2528 66.5588 58.7029C67.0089 59.153 67.2618 59.7634 67.2618 60.4C67.2581 62.9448 66.2454 65.3845 64.4459 67.1841C62.6463 68.9837 60.2068 69.9962 57.6618 70H23.13C20.5851 69.9962 18.1454 68.9837 16.3459 67.1841C14.5464 65.3845 13.5337 62.9448 13.53 60.4V40.7341C13.5449 38.1965 14.5625 35.7678 16.3608 33.9773C18.1591 32.1869 20.5924 31.1801 23.13 31.1765H25.9535V24.1176C26.0706 20.3784 27.6384 16.8315 30.3248 14.228C33.0112 11.6244 36.6054 10.1685 40.3465 10.1685C44.0875 10.1685 47.6817 11.6244 50.3682 14.228C53.0546 16.8315 54.6222 20.3784 54.7394 24.1176V31.1765H57.5629C60.1079 31.1801 62.5475 32.1928 64.347 33.9924C66.1466 35.792 67.1593 38.2315 67.1629 40.7765V49.6565C67.1629 50.293 66.9101 50.9035 66.46 51.3536C66.01 51.8036 65.3995 52.0565 64.7629 52.0565C64.1264 52.0565 63.5159 51.8036 63.0659 51.3536C62.6158 50.9035 62.3629 50.293 62.3629 49.6565L62.4618 49.6141ZM49.9818 24.1176C49.9652 22.8725 49.7027 21.6429 49.2091 20.4996C48.7156 19.3563 48.0008 18.3219 47.106 17.4559C46.2111 16.5899 45.1538 15.9094 43.9949 15.4536C42.8361 14.9978 41.5986 14.7757 40.3535 14.8C37.8522 14.7736 35.442 15.7391 33.6509 17.4854C31.8596 19.2316 30.833 21.6163 30.7959 24.1176V31.1765H49.9818V24.1176ZM33.5629 50.0941C33.5629 50.5688 33.7037 51.0328 33.9674 51.4275C34.2311 51.8221 34.606 52.1297 35.0444 52.3114C35.4831 52.4931 35.9656 52.5406 36.4312 52.448C36.8967 52.3553 37.3243 52.1268 37.66 51.7912C37.9956 51.4555 38.2242 51.0279 38.3168 50.5623C38.4094 50.0968 38.362 49.6143 38.1803 49.1756C37.9986 48.7371 37.6909 48.3623 37.2964 48.0986C36.9016 47.8349 36.4376 47.6941 35.9629 47.6941C35.3264 47.6941 34.7159 47.947 34.2659 48.397C33.8158 48.8471 33.5629 49.4576 33.5629 50.0941ZM24.57 50.0941C24.57 50.5688 24.7108 51.0328 24.9745 51.4275C25.2382 51.8221 25.613 52.1297 26.0516 52.3114C26.4901 52.4931 26.9727 52.5406 27.4382 52.448C27.9037 52.3553 28.3314 52.1268 28.6671 51.7912C29.0027 51.4555 29.2312 51.0279 29.3238 50.5623C29.4164 50.0968 29.369 49.6143 29.1873 49.1756C29.0056 48.7371 28.698 48.3623 28.3034 48.0986C27.9087 47.8349 27.4447 47.6941 26.97 47.6941C26.3335 47.6941 25.723 47.947 25.2729 48.397C24.8229 48.8471 24.57 49.4576 24.57 50.0941ZM42.5559 50.0941C42.5559 50.5688 42.6966 51.0328 42.9604 51.4275C43.2241 51.8221 43.5989 52.1297 44.0374 52.3114C44.476 52.4931 44.9586 52.5406 45.4242 52.448C45.8896 52.3553 46.3172 52.1268 46.653 51.7912C46.9885 51.4555 47.2171 51.0279 47.3097 50.5623C47.4023 50.0968 47.3549 49.6143 47.1732 49.1756C46.9915 48.7371 46.6839 48.3623 46.2893 48.0986C45.8946 47.8349 45.4305 47.6941 44.9559 47.6941C44.3193 47.6941 43.7089 47.947 43.2588 48.397C42.8087 48.8471 42.5559 49.4576 42.5559 50.0941Z" fill="url(#paint0_linear_808_17848)"/>
</g>
<defs>
<linearGradient id="paint0_linear_808_17848" x1="66.3007" y1="68.7023" x2="66.3007" y2="10.1685" gradientUnits="userSpaceOnUse">
<stop stop-color="#002D85"/>
<stop offset="1" stop-color="#013AA9"/>
</linearGradient>
</defs>
</svg>
