<svg width="81" height="80" viewBox="0 0 81 80" fill="none" xmlns="http://www.w3.org/2000/svg">
<mask id="mask0_720_18994" style="mask-type:luminance" maskUnits="userSpaceOnUse" x="13" y="10" width="55" height="60">
<path d="M67.3656 10H13.6338V70H67.3656V10Z" fill="white"/>
</mask>
<g mask="url(#mask0_720_18994)">
<path d="M54.1797 47.6942C54.653 47.6997 55.1143 47.8453 55.5053 48.1124C55.8962 48.3794 56.1995 48.7562 56.3768 49.1952C56.5541 49.6341 56.5976 50.1158 56.5019 50.5795C56.406 51.0432 56.1753 51.4682 55.8385 51.8011C55.5018 52.1338 55.0742 52.3596 54.6094 52.4499C54.1447 52.5403 53.6635 52.4911 53.2266 52.3087C52.7897 52.1262 52.4165 51.8187 52.1541 51.4245C51.8915 51.0305 51.7514 50.5677 51.7514 50.0942C51.7514 49.7766 51.8144 49.4622 51.9368 49.1693C52.0592 48.8762 52.2385 48.6103 52.4644 48.3871C52.6903 48.1639 52.9581 47.9877 53.2526 47.8687C53.5471 47.7499 53.8622 47.6904 54.1797 47.6942ZM62.5656 49.6142V40.7342C62.5656 39.4613 62.0599 38.2402 61.1597 37.3401C60.2594 36.4399 59.0385 35.9342 57.7656 35.9342H23.2338C21.9607 35.9342 20.7399 36.4399 19.8397 37.3401C18.9395 38.2402 18.4338 39.4613 18.4338 40.7342V60.4001C18.4338 61.6731 18.9395 62.894 19.8397 63.7943C20.7399 64.6944 21.9607 65.2001 23.2338 65.2001H57.7656C59.0385 65.2001 60.2594 64.6944 61.1597 63.7943C62.0599 62.894 62.5656 61.6731 62.5656 60.4001C62.5656 59.7636 62.8184 59.1531 63.2685 58.703C63.7185 58.253 64.329 58.0001 64.9656 58.0001C65.6021 58.0001 66.2126 58.253 66.6626 58.703C67.1127 59.1531 67.3656 59.7636 67.3656 60.4001C67.3619 62.945 66.3492 65.3846 64.5496 67.1842C62.7501 68.9838 60.3105 69.9963 57.7656 70.0001H23.2338C20.6889 69.9963 18.2492 68.9838 16.4497 67.1842C14.6501 65.3846 13.6375 62.945 13.6338 60.4001V40.7342C13.6487 38.1966 14.6662 35.7679 16.4646 33.9774C18.2629 32.187 20.6962 31.1803 23.2338 31.1766H26.0573V24.1178C26.1744 20.3785 27.7422 16.8317 30.4286 14.2281C33.115 11.6245 36.7092 10.1686 40.4503 10.1686C44.1913 10.1686 47.7855 11.6245 50.472 14.2281C53.1584 16.8317 54.726 20.3785 54.8432 24.1178V31.1766H57.6667C60.2117 31.1803 62.6512 32.1929 64.4508 33.9925C66.2504 35.7921 67.2631 38.2316 67.2667 40.7766V49.6566C67.2667 50.2932 67.0139 50.9036 66.5638 51.3537C66.1137 51.8037 65.5033 52.0566 64.8667 52.0566C64.2302 52.0566 63.6197 51.8037 63.1696 51.3537C62.7196 50.9036 62.4667 50.2932 62.4667 49.6566L62.5656 49.6142ZM50.0856 24.1178C50.069 22.8726 49.8064 21.643 49.3129 20.4997C48.8193 19.3564 48.1046 18.322 47.2098 17.456C46.3149 16.59 45.2576 15.9096 44.0987 15.4538C42.9399 14.9979 41.7024 14.7758 40.4573 14.8001C37.956 14.7737 35.5458 15.7393 33.7547 17.4855C31.9634 19.2317 30.9368 21.6165 30.8997 24.1178V31.1766H50.0856V24.1178ZM33.6667 50.0942C33.6667 50.5689 33.8075 51.0329 34.0712 51.4277C34.3349 51.8222 34.7097 52.1299 35.1482 52.3116C35.5869 52.4933 36.0694 52.5407 36.535 52.4481C37.0005 52.3555 37.4281 52.1269 37.7638 51.7913C38.0994 51.4556 38.328 51.028 38.4206 50.5624C38.5132 50.0969 38.4657 49.6144 38.284 49.1757C38.1024 48.7373 37.7947 48.3624 37.4001 48.0987C37.0054 47.835 36.5414 47.6942 36.0667 47.6942C35.4302 47.6942 34.8197 47.9471 34.3696 48.3972C33.9196 48.8472 33.6667 49.4577 33.6667 50.0942ZM24.6738 50.0942C24.6738 50.5689 24.8145 51.0329 25.0783 51.4277C25.342 51.8222 25.7168 52.1299 26.1554 52.3116C26.5939 52.4933 27.0765 52.5407 27.542 52.4481C28.0075 52.3555 28.4352 52.1269 28.7709 51.7913C29.1064 51.4556 29.335 51.028 29.4276 50.5624C29.5202 50.0969 29.4728 49.6144 29.2911 49.1757C29.1094 48.7373 28.8018 48.3624 28.4072 48.0987C28.0125 47.835 27.5485 47.6942 27.0738 47.6942C26.4373 47.6942 25.8268 47.9471 25.3767 48.3972C24.9267 48.8472 24.6738 49.4577 24.6738 50.0942ZM42.6597 50.0942C42.6597 50.5689 42.8004 51.0329 43.0641 51.4277C43.3279 51.8222 43.7027 52.1299 44.1412 52.3116C44.5798 52.4933 45.0624 52.5407 45.528 52.4481C45.9934 52.3555 46.421 52.1269 46.7568 51.7913C47.0923 51.4556 47.3209 51.028 47.4135 50.5624C47.5061 50.0969 47.4587 49.6144 47.277 49.1757C47.0953 48.7373 46.7877 48.3624 46.3931 48.0987C45.9984 47.835 45.5343 47.6942 45.0597 47.6942C44.4231 47.6942 43.8127 47.9471 43.3626 48.3972C42.9125 48.8472 42.6597 49.4577 42.6597 50.0942Z" fill="url(#paint0_linear_720_18994)"/>
</g>
<defs>
<linearGradient id="paint0_linear_720_18994" x1="15.1208" y1="10.1686" x2="72.8983" y2="30.1038" gradientUnits="userSpaceOnUse">
<stop stop-color="#002D85"/>
<stop offset="1" stop-color="#DE0000"/>
</linearGradient>
</defs>
</svg>
