<svg width="80" height="80" viewBox="0 0 80 80" fill="none" xmlns="http://www.w3.org/2000/svg">
<mask id="mask0_720_19000" style="mask-type:luminance" maskUnits="userSpaceOnUse" x="10" y="21" width="60" height="38">
<path d="M70 21.2183H10V58.7818H70V21.2183Z" fill="white"/>
</mask>
<g mask="url(#mask0_720_19000)">
<path d="M15.4216 39.6654C15.1351 39.6689 14.8613 39.7843 14.6587 39.9868C14.4561 40.1895 14.3408 40.4633 14.3373 40.7497V47.2691C14.3373 47.5567 14.4515 47.8325 14.6549 48.036C14.8582 48.2393 15.134 48.3535 15.4216 48.3535H34.9665C35.2541 48.3535 35.5299 48.2393 35.7332 48.036C35.9365 47.8325 36.0507 47.5567 36.0507 47.2691V40.7497C36.0507 40.4622 35.9365 40.1863 35.7332 39.9829C35.5299 39.7796 35.2541 39.6654 34.9665 39.6654H15.4216ZM33.8822 46.1848H16.4792V41.8341H33.8822V46.1848ZM40.3882 42.9318H38.2195V40.7497H40.3882V42.9318ZM42.5569 42.9318V40.7497H44.7256V42.9318H42.5569ZM38.2195 45.1005H40.3882V47.2691H38.2195V45.1005ZM44.7256 53.7752H15.4216C14.5589 53.7752 13.7314 53.4325 13.1214 52.8224C12.5113 52.2123 12.1686 51.3849 12.1686 50.5222V37.4967H59.9329V39.6654C59.9329 39.8078 59.961 39.9488 60.0155 40.0804C60.07 40.2119 60.1499 40.3314 60.2506 40.4322C60.3513 40.5329 60.4708 40.6127 60.6024 40.6671C60.734 40.7216 60.875 40.7497 61.0174 40.7497C61.1597 40.7497 61.3008 40.7216 61.4323 40.6671C61.5639 40.6127 61.6834 40.5329 61.7841 40.4322C61.8847 40.3314 61.9647 40.2119 62.0191 40.0804C62.0736 39.9488 62.1016 39.8078 62.1016 39.6654V26.64C62.0841 25.2113 61.5032 23.8474 60.4854 22.8447C59.4677 21.842 58.0953 21.2816 56.6667 21.2852H15.4216C14.7128 21.2763 14.0093 21.4083 13.3519 21.6734C12.6945 21.9386 12.0962 22.3316 11.5919 22.8297C11.0876 23.3278 10.6871 23.9211 10.4138 24.5752C10.1406 25.2293 9.99988 25.9311 9.99994 26.64V50.5222C9.99095 51.2366 10.125 51.9457 10.3943 52.6076C10.6636 53.2694 11.0626 53.8706 11.5679 54.3758C12.0731 54.8812 12.6744 55.2801 13.3362 55.5495C13.9981 55.8187 14.7072 55.9528 15.4216 55.9438H44.7256C45.0131 55.9438 45.2889 55.8297 45.4922 55.6263C45.6956 55.4228 45.8099 55.1471 45.8099 54.8595C45.8099 54.572 45.6956 54.2961 45.4922 54.0927C45.2889 53.8894 45.0131 53.7752 44.7256 53.7752ZM12.1686 26.64C12.1686 25.7772 12.5113 24.9498 13.1214 24.3397C13.7314 23.7297 14.5589 23.387 15.4216 23.387H56.6667C57.5307 23.3869 58.3594 23.7292 58.9716 24.3389C59.5838 24.9486 59.9295 25.776 59.9329 26.64V28.822H12.1686V26.64ZM12.1686 30.9907H59.9329V35.3281H12.1686V30.9907ZM69.2236 43.4673L54.6854 57.992C54.4367 58.2409 54.1414 58.4385 53.8163 58.5732C53.4913 58.708 53.143 58.7773 52.7912 58.7773C52.4392 58.7773 52.0909 58.708 51.7659 58.5732C51.4408 58.4385 51.1455 58.2409 50.8968 57.992L42.8647 49.9599C42.6158 49.7112 42.4183 49.416 42.2835 49.091C42.1489 48.7659 42.0795 48.4175 42.0795 48.0657C42.0795 47.7139 42.1489 47.3654 42.2835 47.0404C42.4183 46.7153 42.6158 46.42 42.8647 46.1714C43.3664 45.6728 44.045 45.3928 44.7522 45.3928C45.4596 45.3928 46.1382 45.6728 46.6399 46.1714L50.8835 50.4151C51.1321 50.6639 51.4274 50.8615 51.7525 50.9962C52.0775 51.131 52.4258 51.2003 52.7778 51.2003C53.1296 51.2003 53.4779 51.131 53.8029 50.9962C54.128 50.8615 54.4233 50.6639 54.6719 50.4151L65.3814 39.7056C65.6303 39.4568 65.9256 39.2595 66.2506 39.1248C66.5755 38.9902 66.924 38.921 67.2758 38.921C67.6274 38.921 67.9759 38.9902 68.3008 39.1248C68.6258 39.2595 68.9212 39.4568 69.17 39.7056C69.4187 39.9543 69.6161 40.2496 69.7506 40.5746C69.8853 40.8997 69.9546 41.248 69.9546 41.5998C69.9546 41.9516 69.8853 42.2999 69.7506 42.625C69.6161 42.95 69.4187 43.2453 69.17 43.494L69.2236 43.4673Z" fill="url(#paint0_linear_720_19000)"/>
</g>
<defs>
<linearGradient id="paint0_linear_720_19000" x1="11.6588" y1="21.2848" x2="64.0332" y2="53.463" gradientUnits="userSpaceOnUse">
<stop stop-color="#002D85"/>
<stop offset="1" stop-color="#DE0000"/>
</linearGradient>
</defs>
</svg>
