<svg width="81" height="80" viewBox="0 0 81 80" fill="none" xmlns="http://www.w3.org/2000/svg">
<mask id="mask0_808_17854" style="mask-type:luminance" maskUnits="userSpaceOnUse" x="10" y="21" width="61" height="38">
<path d="M70.896 21.2183H10.896V58.7818H70.896V21.2183Z" fill="white"/>
</mask>
<g mask="url(#mask0_808_17854)">
<path d="M16.3174 39.6653C16.0309 39.6688 15.7571 39.7842 15.5545 39.9867C15.3519 40.1894 15.2366 40.4631 15.2331 40.7496V47.269C15.2331 47.5566 15.3473 47.8323 15.5507 48.0358C15.754 48.2392 16.0299 48.3534 16.3174 48.3534H35.8623C36.1499 48.3534 36.4257 48.2392 36.629 48.0358C36.8324 47.8323 36.9466 47.5566 36.9466 47.269V40.7496C36.9466 40.4621 36.8324 40.1862 36.629 39.9828C36.4257 39.7795 36.1499 39.6653 35.8623 39.6653H16.3174ZM34.778 46.1847H17.375V41.834H34.778V46.1847ZM41.284 42.9317H39.1154V40.7496H41.284V42.9317ZM43.4527 42.9317V40.7496H45.6214V42.9317H43.4527ZM39.1154 45.1004H41.284V47.269H39.1154V45.1004ZM45.6214 53.7751H16.3174C15.4547 53.7751 14.6273 53.4323 14.0172 52.8223C13.4072 52.2121 13.0644 51.3848 13.0644 50.522V37.4966H60.8287V39.6653C60.8287 39.8077 60.8569 39.9487 60.9113 40.0803C60.9658 40.2117 61.0458 40.3313 61.1464 40.4321C61.2471 40.5327 61.3666 40.6125 61.4982 40.667C61.6298 40.7215 61.7708 40.7496 61.9132 40.7496C62.0555 40.7496 62.1966 40.7215 62.3281 40.667C62.4597 40.6125 62.5792 40.5327 62.6799 40.4321C62.7806 40.3313 62.8605 40.2117 62.915 40.0803C62.9694 39.9487 62.9974 39.8077 62.9974 39.6653V26.6398C62.9799 25.2112 62.399 23.8473 61.3812 22.8446C60.3636 21.8419 58.9911 21.2814 57.5625 21.2851H16.3174C15.6086 21.2762 14.9051 21.4082 14.2477 21.6733C13.5903 21.9385 12.9921 22.3315 12.4877 22.8296C11.9834 23.3277 11.5829 23.921 11.3097 24.5751C11.0364 25.2291 10.8957 25.931 10.8957 26.6398V50.522C10.8868 51.2365 11.0209 51.9456 11.2901 52.6074C11.5594 53.2693 11.9584 53.8705 12.4637 54.3757C12.9689 54.8811 13.5702 55.28 14.2321 55.5493C14.8939 55.8186 15.603 55.9527 16.3174 55.9437H45.6214C45.9089 55.9437 46.1847 55.8295 46.3881 55.6262C46.5914 55.4227 46.7057 55.1469 46.7057 54.8594C46.7057 54.5718 46.5914 54.2959 46.3881 54.0926C46.1847 53.8892 45.9089 53.7751 45.6214 53.7751ZM13.0644 26.6398C13.0644 25.7771 13.4072 24.9497 14.0172 24.3396C14.6273 23.7296 15.4547 23.3868 16.3174 23.3868H57.5625C58.4265 23.3868 59.2553 23.7291 59.8674 24.3388C60.4796 24.9485 60.8253 25.7759 60.8287 26.6398V28.8219H13.0644V26.6398ZM13.0644 30.9906H60.8287V35.3279H13.0644V30.9906ZM70.1194 43.4672L55.5812 57.9919C55.3325 58.2408 55.0372 58.4384 54.7121 58.573C54.3871 58.7078 54.0388 58.7772 53.687 58.7772C53.335 58.7772 52.9867 58.7078 52.6617 58.573C52.3366 58.4384 52.0413 58.2408 51.7926 57.9919L43.7605 49.9598C43.5116 49.7111 43.3142 49.4159 43.1794 49.0908C43.0447 48.7658 42.9753 48.4174 42.9753 48.0655C42.9753 47.7137 43.0447 47.3653 43.1794 47.0402C43.3142 46.7152 43.5116 46.4199 43.7605 46.1713C44.2622 45.6726 44.9408 45.3927 45.648 45.3927C46.3554 45.3927 47.034 45.6726 47.5357 46.1713L51.7794 50.4149C52.0279 50.6638 52.3233 50.8614 52.6483 50.9961C52.9733 51.1309 53.3217 51.2002 53.6736 51.2002C54.0254 51.2002 54.3737 51.1309 54.6988 50.9961C55.0238 50.8614 55.3191 50.6638 55.5677 50.4149L66.2772 39.7054C66.5261 39.4567 66.8214 39.2594 67.1464 39.1247C67.4713 38.99 67.8198 38.9208 68.1716 38.9208C68.5233 38.9208 68.8717 38.99 69.1966 39.1247C69.5217 39.2594 69.817 39.4567 70.0658 39.7054C70.3146 39.9542 70.5119 40.2495 70.6464 40.5745C70.7811 40.8995 70.8504 41.2479 70.8504 41.5997C70.8504 41.9515 70.7811 42.2998 70.6464 42.6249C70.5119 42.9499 70.3146 43.2452 70.0658 43.4939L70.1194 43.4672Z" fill="url(#paint0_linear_808_17854)"/>
</g>
<defs>
<linearGradient id="paint0_linear_808_17854" x1="69.7781" y1="57.964" x2="69.7781" y2="21.2847" gradientUnits="userSpaceOnUse">
<stop stop-color="#002D85"/>
<stop offset="1" stop-color="#013AA9"/>
</linearGradient>
</defs>
</svg>
