<svg width="81" height="80" viewBox="0 0 81 80" fill="none" xmlns="http://www.w3.org/2000/svg">
<mask id="mask0_808_17860" style="mask-type:luminance" maskUnits="userSpaceOnUse" x="10" y="15" width="61" height="50">
<path d="M70.896 15.8379H10.896V64.1617H70.896V15.8379Z" fill="white"/>
</mask>
<g mask="url(#mask0_808_17860)">
<path d="M69.0539 48.7569H56.947V43.2456C56.947 41.981 57.4494 40.7681 58.3437 39.8738C59.2379 38.9795 60.4509 38.4771 61.7155 38.4771C62.9801 38.4771 64.193 38.9795 65.0873 39.8738C65.9816 40.7681 66.484 41.981 66.484 43.2456V45.4442C66.484 45.5886 66.5124 45.7315 66.5676 45.8649C66.6229 45.9983 66.7038 46.1194 66.8059 46.2216C66.9081 46.3236 67.0292 46.4046 67.1626 46.4598C67.296 46.5151 67.4389 46.5435 67.5833 46.5435C67.7277 46.5435 67.8706 46.5151 68.004 46.4598C68.1374 46.4046 68.2584 46.3236 68.3606 46.2216C68.4627 46.1194 68.5437 45.9983 68.5989 45.8649C68.6542 45.7315 68.6826 45.5886 68.6826 45.4442V43.2456C68.6826 41.3978 67.9486 39.6257 66.6419 38.3192C65.3354 37.0126 63.5633 36.2786 61.7155 36.2786C59.8676 36.2786 58.0956 37.0126 56.7891 38.3192C55.4824 39.6257 54.7484 41.3978 54.7484 43.2456V48.7569H54.377C54.1321 48.7489 53.8881 48.7903 53.6595 48.8786C53.4309 48.9668 53.2225 49.1002 53.0465 49.2706C52.8704 49.4411 52.7305 49.6452 52.635 49.8709C52.5394 50.0965 52.4903 50.3391 52.4904 50.5841V62.3197C52.4904 62.8056 52.6825 63.2719 53.0246 63.617C53.3669 63.962 53.8317 64.1578 54.3176 64.1617H68.9945C69.4819 64.1578 69.9481 63.9625 70.2927 63.6178C70.6373 63.2732 70.8327 62.8071 70.8365 62.3197V50.5841C70.833 50.1083 70.6454 49.6522 70.3131 49.3116C69.9807 48.971 69.5296 48.7722 69.0539 48.7569ZM62.889 56.8975V60.1211H60.6162V56.8975C60.2823 56.7013 60.0051 56.4213 59.8124 56.0852C59.6196 55.7491 59.5178 55.3686 59.5169 54.9812C59.5269 54.6015 59.635 54.231 59.8308 53.9055C60.0264 53.5801 60.3032 53.3109 60.634 53.1243C60.9647 52.9376 61.3382 52.8397 61.7179 52.8403C62.0977 52.8409 62.4709 52.9398 62.8009 53.1274C63.1312 53.3151 63.407 53.585 63.6019 53.9109C63.7967 54.237 63.9038 54.6079 63.9127 54.9874C63.9216 55.3671 63.8319 55.7427 63.6526 56.0774C63.4731 56.4121 63.2101 56.6947 62.889 56.8975ZM16.9123 36.3083C16.5944 36.3121 16.2906 36.4402 16.0657 36.6649C15.8409 36.8898 15.7129 37.1936 15.709 37.5115V44.746C15.709 45.0651 15.8358 45.3713 16.0615 45.5969C16.2871 45.8226 16.5932 45.9493 16.9123 45.9493H38.6008C38.9199 45.9493 39.2261 45.8226 39.4517 45.5969C39.6774 45.3713 39.8041 45.0651 39.8041 44.746V37.5115C39.8041 37.1924 39.6774 36.8863 39.4517 36.6606C39.2261 36.435 38.9199 36.3083 38.6008 36.3083H16.9123ZM37.3976 43.5427H18.0859V38.7148H37.3976V43.5427ZM44.6172 39.9329H42.2106V37.5115H44.6172V39.9329ZM47.0237 39.9329V37.5115H49.4303V39.9329H47.0237ZM42.2106 42.3395H44.6172V44.746H42.2106V42.3395ZM49.4303 51.9656H16.9123C15.9549 51.9656 15.0368 51.5853 14.3598 50.9084C13.6828 50.2314 13.3025 49.3132 13.3025 48.3558V33.9017H66.3057V36.3083C66.3057 36.4663 66.3368 36.6228 66.3974 36.7688C66.4578 36.9147 66.5464 37.0473 66.6581 37.1592C66.7699 37.2709 66.9026 37.3594 67.0485 37.4199C67.1945 37.4803 67.3509 37.5115 67.509 37.5115C67.6671 37.5115 67.8235 37.4803 67.9695 37.4199C68.1154 37.3594 68.248 37.2709 68.3599 37.1592C68.4716 37.0473 68.5601 36.9147 68.6206 36.7688C68.6811 36.6228 68.7123 36.4663 68.7123 36.3083V21.8542C68.6926 20.2689 68.0482 18.7554 66.9188 17.6427C65.7894 16.53 64.2666 15.9081 62.6811 15.9121H16.9123C15.3295 15.912 13.8103 16.5357 12.6842 17.6479C11.558 18.7602 10.9155 20.2715 10.896 21.8542V48.3558C10.896 49.9514 11.5298 51.4818 12.6581 52.61C13.7864 53.7383 15.3167 54.3721 16.9123 54.3721H49.4303C49.7493 54.3721 50.0555 54.2454 50.2812 54.0198C50.5068 53.7941 50.6335 53.488 50.6335 53.1689C50.6335 52.8498 50.5068 52.5436 50.2812 52.318C50.0555 52.0923 49.7493 51.9656 49.4303 51.9656ZM13.3025 21.8542C13.3025 20.8968 13.6828 19.9786 14.3598 19.3017C15.0368 18.6247 15.9549 18.2444 16.9123 18.2444H62.6811C63.6398 18.2444 64.5595 18.6242 65.2388 19.3008C65.9182 19.9773 66.3019 20.8955 66.3057 21.8542V24.2756H13.3025V21.8542ZM13.3025 26.6821H66.3057V31.4952H13.3025V26.6821Z" fill="url(#paint0_linear_808_17860)"/>
</g>
<defs>
<linearGradient id="paint0_linear_808_17860" x1="69.7645" y1="63.1152" x2="69.7645" y2="15.9121" gradientUnits="userSpaceOnUse">
<stop stop-color="#002D85"/>
<stop offset="1" stop-color="#013AA9"/>
</linearGradient>
</defs>
</svg>
