<svg width="80" height="80" viewBox="0 0 80 80" fill="none" xmlns="http://www.w3.org/2000/svg">
<mask id="mask0_720_19006" style="mask-type:luminance" maskUnits="userSpaceOnUse" x="10" y="15" width="60" height="50">
<path d="M70 15.8381H10V64.162H70V15.8381Z" fill="white"/>
</mask>
<g mask="url(#mask0_720_19006)">
<path d="M68.158 48.7571H56.051V43.2459C56.051 41.9813 56.5534 40.7683 57.4477 39.874C58.342 38.9798 59.5549 38.4774 60.8195 38.4774C62.0841 38.4774 63.2971 38.9798 64.1913 39.874C65.0856 40.7683 65.588 41.9813 65.588 43.2459V45.4444C65.588 45.5888 65.6164 45.7317 65.6717 45.8651C65.7269 45.9985 65.8079 46.1196 65.9099 46.2218C66.0121 46.3239 66.1332 46.4048 66.2666 46.4601C66.4 46.5153 66.5429 46.5437 66.6873 46.5437C66.8317 46.5437 66.9746 46.5153 67.108 46.4601C67.2414 46.4048 67.3625 46.3239 67.4647 46.2218C67.5667 46.1196 67.6477 45.9985 67.703 45.8651C67.7582 45.7317 67.7866 45.5888 67.7866 45.4444V43.2459C67.7866 41.398 67.0526 39.626 65.7459 38.3195C64.4394 37.0128 62.6673 36.2788 60.8195 36.2788C58.9717 36.2788 57.1996 37.0128 55.8931 38.3195C54.5864 39.626 53.8524 41.398 53.8524 43.2459V48.7571H53.4811C53.2361 48.7491 52.9922 48.7906 52.7636 48.8788C52.5349 48.967 52.3265 49.1004 52.1505 49.2708C51.9745 49.4414 51.8345 49.6455 51.739 49.8711C51.6435 50.0968 51.5943 50.3394 51.5945 50.5843V62.3199C51.5945 62.8058 51.7865 63.2721 52.1286 63.6172C52.4709 63.9623 52.9357 64.1581 53.4216 64.1619H68.0985C68.5859 64.1581 69.0521 63.9627 69.3967 63.6181C69.7414 63.2735 69.9367 62.8073 69.9406 62.3199V50.5843C69.937 50.1085 69.7494 49.6525 69.4171 49.3118C69.0848 48.9712 68.6336 48.7724 68.158 48.7571ZM61.9931 56.8978V60.1213H59.7202V56.8978C59.3863 56.7015 59.1091 56.4215 58.9164 56.0855C58.7236 55.7493 58.6218 55.3689 58.6209 54.9815C58.6309 54.6018 58.739 54.2313 58.9348 53.9058C59.1305 53.5803 59.4072 53.3111 59.7381 53.1246C60.0687 52.9378 60.4422 52.8399 60.8219 52.8405C61.2017 52.8411 61.5749 52.9401 61.905 53.1277C62.2352 53.3153 62.5111 53.5852 62.706 53.9111C62.9007 54.2372 63.0078 54.6081 63.0167 54.9877C63.0257 55.3674 62.9359 55.7429 62.7566 56.0776C62.5772 56.4123 62.3141 56.695 61.9931 56.8978ZM16.0163 36.3085C15.6984 36.3124 15.3946 36.4404 15.1698 36.6652C14.9449 36.8901 14.8169 37.1939 14.8131 37.5118V44.7462C14.8131 45.0653 14.9398 45.3715 15.1655 45.5971C15.3912 45.8228 15.6972 45.9495 16.0163 45.9495H37.7049C38.024 45.9495 38.3301 45.8228 38.5558 45.5971C38.7814 45.3715 38.9081 45.0653 38.9081 44.7462V37.5118C38.9081 37.1927 38.7814 36.8865 38.5558 36.6609C38.3301 36.4352 38.024 36.3085 37.7049 36.3085H16.0163ZM36.5016 43.543H17.1899V38.715H36.5016V43.543ZM43.7212 39.9332H41.3147V37.5118H43.7212V39.9332ZM46.1278 39.9332V37.5118H48.5343V39.9332H46.1278ZM41.3147 42.3397H43.7212V44.7462H41.3147V42.3397ZM48.5343 51.9659H16.0163C15.059 51.9659 14.1408 51.5856 13.4638 50.9086C12.7869 50.2317 12.4065 49.3135 12.4065 48.356V33.902H65.4098V36.3085C65.4098 36.4666 65.4408 36.623 65.5014 36.769C65.5619 36.9149 65.6504 37.0476 65.7621 37.1594C65.874 37.2711 66.0066 37.3597 66.1525 37.4201C66.2985 37.4806 66.455 37.5118 66.613 37.5118C66.7711 37.5118 66.9275 37.4806 67.0735 37.4201C67.2194 37.3597 67.3521 37.2711 67.4639 37.1594C67.5756 37.0476 67.6642 36.9149 67.7246 36.769C67.7851 36.623 67.8163 36.4666 67.8163 36.3085V21.8544C67.7967 20.2691 67.1523 18.7556 66.0228 17.643C64.8934 16.5303 63.3706 15.9083 61.7851 15.9124H16.0163C14.4335 15.9123 12.9144 16.5359 11.7882 17.6482C10.662 18.7604 10.0195 20.2717 10 21.8544V48.356C10 49.9516 10.6339 51.482 11.7621 52.6103C12.8904 53.7385 14.4207 54.3724 16.0163 54.3724H48.5343C48.8534 54.3724 49.1595 54.2457 49.3852 54.02C49.6108 53.7944 49.7376 53.4882 49.7376 53.1691C49.7376 52.85 49.6108 52.5439 49.3852 52.3182C49.1595 52.0926 48.8534 51.9659 48.5343 51.9659ZM12.4065 21.8544C12.4065 20.8971 12.7869 19.9789 13.4638 19.3019C14.1408 18.625 15.059 18.2446 16.0163 18.2446H61.7851C62.7439 18.2446 63.6635 18.6245 64.3429 19.301C65.0222 19.9776 65.4059 20.8957 65.4098 21.8544V24.2758H12.4065V21.8544ZM12.4065 26.6824H65.4098V31.4954H12.4065V26.6824Z" fill="url(#paint0_linear_720_19006)"/>
</g>
<defs>
<linearGradient id="paint0_linear_720_19006" x1="11.6589" y1="15.9124" x2="70.4031" y2="43.9508" gradientUnits="userSpaceOnUse">
<stop stop-color="#002D85"/>
<stop offset="1" stop-color="#DE0000"/>
</linearGradient>
</defs>
</svg>
