<svg width="81" height="80" viewBox="0 0 81 80" fill="none" xmlns="http://www.w3.org/2000/svg">
<path d="M54.6015 47.1482C55.0772 47.1482 55.5422 47.2893 55.9378 47.5536C56.3333 47.8179 56.6416 48.1936 56.8236 48.6331C57.0057 49.0726 57.0534 49.5562 56.9606 50.0228C56.8678 50.4894 56.6386 50.918 56.3022 51.2544C55.9658 51.5907 55.5373 51.8199 55.0707 51.9127C54.6041 52.0055 54.1206 51.9578 53.681 51.7758C53.2415 51.5937 52.8659 51.2855 52.6016 50.8899C52.3373 50.4944 52.1962 50.0293 52.1962 49.5536C52.1962 49.2377 52.2584 48.9249 52.3793 48.6331C52.5001 48.3413 52.6773 48.0761 52.9007 47.8528C53.1241 47.6294 53.3892 47.4522 53.681 47.3313C53.9729 47.2104 54.2856 47.1482 54.6015 47.1482ZM63.0159 49.0725V40.177C63.0159 38.9011 62.5091 37.6775 61.6069 36.7753C60.7047 35.8731 59.4811 35.3663 58.2052 35.3663H23.5867C22.3108 35.3663 21.0871 35.8731 20.185 36.7753C19.2828 37.6775 18.7761 38.9011 18.7761 40.177V59.8909C18.7761 61.1667 19.2828 62.3904 20.185 63.2925C21.0871 64.1947 22.3108 64.7016 23.5867 64.7016H58.2052C59.4811 64.7016 60.7047 64.1947 61.6069 63.2925C62.5091 62.3904 63.0159 61.1667 63.0159 59.8909C63.0159 59.2529 63.2694 58.6411 63.7205 58.19C64.1715 57.7389 64.7833 57.4855 65.4212 57.4855C66.0591 57.4855 66.671 57.7389 67.1221 58.19C67.5732 58.6411 67.8266 59.2529 67.8266 59.8909C67.8266 62.4426 66.8129 64.8899 65.0086 66.6942C63.2042 68.4986 60.757 69.5122 58.2052 69.5122H23.5867C21.0349 69.5122 18.5878 68.4986 16.7835 66.6942C14.9791 64.8899 13.9654 62.4426 13.9654 59.8909V40.177C13.9654 37.6253 14.9791 35.178 16.7835 33.3736C18.5878 31.5693 21.0349 30.5557 23.5867 30.5557H26.466V23.4924C26.5834 19.7449 28.1546 16.1901 30.847 13.5808C33.5394 10.9714 37.1417 9.51221 40.8911 9.51221C44.6405 9.51221 48.2426 10.9714 50.935 13.5808C53.6274 16.1901 55.1986 19.7449 55.316 23.4924V30.5557H58.2052C60.757 30.5557 63.2042 31.5693 65.0086 33.3736C66.8129 35.178 67.8266 37.6253 67.8266 40.177V49.0725C67.8266 49.7104 67.5732 50.3222 67.1221 50.7733C66.671 51.2244 66.0591 51.4779 65.4212 51.4779C64.7833 51.4779 64.1715 51.2244 63.7205 50.7733C63.2694 50.3222 63.0159 49.7104 63.0159 49.0725ZM50.5096 23.4967C50.4294 20.9997 49.3812 18.6317 47.5865 16.8937C45.7918 15.1557 43.3915 14.184 40.8932 14.184C38.3949 14.184 35.9945 15.1557 34.1998 16.8937C32.4052 18.6317 31.3569 20.9997 31.2767 23.4967V30.5599H50.5096V23.4967ZM34.0458 49.5521C34.0458 50.0279 34.1868 50.4929 34.4511 50.8885C34.7154 51.284 35.0911 51.5924 35.5306 51.7744C35.9701 51.9565 36.4537 52.0041 36.9203 51.9113C37.3869 51.8185 37.8154 51.5894 38.1518 51.253C38.4882 50.9166 38.7174 50.488 38.8102 50.0214C38.903 49.5548 38.8553 49.0712 38.6732 48.6316C38.4912 48.1921 38.1829 47.8164 37.7874 47.5521C37.3918 47.2878 36.9268 47.1468 36.451 47.1468C36.1352 47.1468 35.8225 47.2091 35.5306 47.3299C35.2388 47.4508 34.9736 47.6279 34.7503 47.8513C34.5269 48.0746 34.3497 48.3398 34.2288 48.6316C34.108 48.9235 34.0458 49.2363 34.0458 49.5521ZM25.0299 49.5521C25.0299 50.0279 25.171 50.4929 25.4353 50.8885C25.6996 51.284 26.0752 51.5924 26.5147 51.7744C26.9543 51.9565 27.438 52.0041 27.9046 51.9113C28.3712 51.8185 28.7997 51.5894 29.1361 51.253C29.4725 50.9166 29.7015 50.488 29.7943 50.0214C29.8871 49.5548 29.8396 49.0712 29.6575 48.6316C29.4755 48.1921 29.1672 47.8164 28.7716 47.5521C28.3761 47.2878 27.9111 47.1468 27.4353 47.1468C27.1195 47.1468 26.8066 47.2091 26.5147 47.3299C26.2229 47.4508 25.9578 47.6279 25.7344 47.8513C25.511 48.0746 25.3338 48.3398 25.213 48.6316C25.0921 48.9235 25.0299 49.2363 25.0299 49.5521ZM43.0615 49.5521C43.0615 50.0279 43.2025 50.4929 43.4668 50.8885C43.7311 51.284 44.1068 51.5924 44.5463 51.7744C44.9858 51.9565 45.4694 52.0041 45.936 51.9113C46.4026 51.8185 46.8313 51.5894 47.1677 51.253C47.5041 50.9166 47.7331 50.488 47.8259 50.0214C47.9187 49.5548 47.8712 49.0712 47.6891 48.6316C47.5071 48.1921 47.1988 47.8164 46.8032 47.5521C46.4077 47.2878 45.9425 47.1468 45.4667 47.1468C45.1509 47.1468 44.8382 47.2091 44.5463 47.3299C44.2545 47.4508 43.9893 47.6279 43.766 47.8513C43.5426 48.0746 43.3654 48.3398 43.2446 48.6316C43.1237 48.9235 43.0615 49.2363 43.0615 49.5521Z" fill="url(#paint0_linear_808_17868)"/>
<defs>
<linearGradient id="paint0_linear_808_17868" x1="66.8633" y1="68.2108" x2="66.8633" y2="9.51221" gradientUnits="userSpaceOnUse">
<stop stop-color="#002D85"/>
<stop offset="1" stop-color="#013AA9"/>
</linearGradient>
</defs>
</svg>
