<svg width="81" height="80" viewBox="0 0 81 80" fill="none" xmlns="http://www.w3.org/2000/svg">
<path d="M68.7206 48.6514H56.7564V43.2218C56.7564 42.6032 56.8782 41.9907 57.1149 41.4191C57.3517 40.8476 57.6986 40.3284 58.1361 39.891C58.5735 39.4535 59.0928 39.1065 59.6643 38.8698C60.2358 38.6331 60.8484 38.5113 61.467 38.5113C62.0856 38.5113 62.6981 38.6331 63.2696 38.8698C63.8411 39.1065 64.3604 39.4535 64.7978 39.891C65.2352 40.3284 65.5822 40.8476 65.819 41.4191C66.0557 41.9907 66.1775 42.6032 66.1775 43.2218V45.3966C66.1775 45.6849 66.2921 45.9616 66.496 46.1655C66.6999 46.3694 66.9765 46.484 67.2649 46.484C67.5533 46.484 67.8299 46.3694 68.0338 46.1655C68.2377 45.9616 68.3523 45.6849 68.3523 45.3966V43.2218C68.3259 41.4133 67.5889 39.6878 66.3007 38.4182C65.0124 37.1486 63.2764 36.437 61.4677 36.437C59.659 36.437 57.9229 37.1486 56.6347 38.4182C55.3464 39.6878 54.6095 41.4133 54.583 43.2218V48.6514H54.2206C53.9826 48.6514 53.7469 48.6983 53.5271 48.7894C53.3072 48.8804 53.1074 49.014 52.9391 49.1823C52.7708 49.3506 52.6373 49.5503 52.5462 49.7702C52.4551 49.9901 52.4083 50.2257 52.4083 50.4637V62.0568C52.4083 62.2948 52.4551 62.5304 52.5462 62.7503C52.6373 62.9702 52.7708 63.17 52.9391 63.3383C53.1074 63.5066 53.3072 63.64 53.5271 63.7311C53.7469 63.8222 53.9826 63.8691 54.2206 63.8691H68.7148C68.9527 63.8691 69.1883 63.8222 69.4081 63.7311C69.6279 63.64 69.8276 63.5065 69.9958 63.3382C70.1639 63.1699 70.2973 62.9701 70.3882 62.7502C70.4791 62.5303 70.5258 62.2947 70.5256 62.0568V50.4637C70.526 49.9842 70.3362 49.5242 69.9978 49.1844C69.6594 48.8447 69.2001 48.653 68.7206 48.6514ZM62.5573 56.6932V59.8834H60.384V56.6932C59.9696 56.454 59.6458 56.0847 59.4627 55.6427C59.2796 55.2007 59.2475 54.7107 59.3714 54.2486C59.4952 53.7864 59.768 53.378 60.1476 53.0868C60.5271 52.7955 60.9922 52.6377 61.4706 52.6377C61.949 52.6377 62.4141 52.7955 62.7936 53.0868C63.1732 53.378 63.4461 53.7864 63.5699 54.2486C63.6937 54.7107 63.6616 55.2007 63.4785 55.6427C63.2954 56.0847 62.9716 56.454 62.5573 56.6932ZM17.2125 36.3629C16.8969 36.3629 16.5942 36.4882 16.371 36.7114C16.1478 36.9346 16.0224 37.2373 16.0224 37.553V44.6892C16.0224 45.0049 16.1478 45.3076 16.371 45.5308C16.5942 45.754 16.8969 45.8794 17.2125 45.8794H38.6288C38.785 45.8794 38.9398 45.8486 39.0842 45.7888C39.2286 45.729 39.3598 45.6413 39.4703 45.5308C39.5808 45.4203 39.6685 45.2891 39.7283 45.1447C39.7881 45.0003 39.8189 44.8455 39.8189 44.6892V37.5516C39.8189 37.3953 39.7881 37.2405 39.7283 37.0961C39.6685 36.9517 39.5808 36.8205 39.4703 36.71C39.3598 36.5995 39.2286 36.5118 39.0842 36.452C38.9398 36.3922 38.785 36.3614 38.6288 36.3614L17.2125 36.3629ZM37.4386 43.5006H18.4056V38.7416H37.4416L37.4386 43.5006ZM44.5779 39.9317H42.1976V37.553H44.5764L44.5779 39.9317ZM46.9566 39.9317V37.553H49.3369V39.9317H46.9566ZM42.1976 42.312H44.5764V44.6892H42.1962L42.1976 42.312ZM49.3369 51.83H17.2154C16.2689 51.83 15.3612 51.4539 14.6919 50.7846C14.0226 50.1153 13.6466 49.2076 13.6466 48.2611V33.9767H66.0014V36.357C65.9958 36.5167 66.0224 36.6759 66.0797 36.8251C66.1369 36.9743 66.2236 37.1105 66.3346 37.2254C66.4456 37.3404 66.5786 37.4318 66.7257 37.4942C66.8728 37.5567 67.031 37.5889 67.1908 37.5889C67.3506 37.5889 67.5088 37.5567 67.6559 37.4942C67.803 37.4318 67.936 37.3404 68.047 37.2254C68.158 37.1105 68.2447 36.9743 68.3019 36.8251C68.3592 36.6759 68.3858 36.5167 68.3802 36.357V22.08C68.3802 20.5022 67.7534 18.9891 66.6377 17.8734C65.5221 16.7577 64.0089 16.1309 62.4311 16.1309H17.2154C15.6376 16.1309 14.1245 16.7577 13.0088 17.8734C11.8931 18.9891 11.2664 20.5022 11.2664 22.08V48.2553C11.2667 49.8328 11.8937 51.3455 13.0093 52.4609C14.1249 53.5762 15.6379 54.2029 17.2154 54.2029H49.3398C49.6552 54.2029 49.9578 54.0775 50.1808 53.8545C50.4039 53.6314 50.5292 53.329 50.5292 53.0135C50.5292 52.6981 50.4039 52.3955 50.1808 52.1725C49.9578 51.9494 49.6552 51.8241 49.3398 51.8241L49.3369 51.83ZM13.6436 22.0859C13.6448 21.1396 14.0211 20.2323 14.6901 19.5631C15.3592 18.8938 16.2662 18.517 17.2125 18.5155H62.4237C63.3703 18.5167 64.2777 18.8932 64.9471 19.5625C65.6164 20.2319 65.9929 21.1394 65.9941 22.0859V24.4646H13.6466L13.6436 22.0859ZM13.6436 26.8449H66.0014V31.6038H13.6466L13.6436 26.8449Z" fill="url(#paint0_linear_808_17866)"/>
<defs>
<linearGradient id="paint0_linear_808_17866" x1="69.4657" y1="62.8336" x2="69.4657" y2="16.1309" gradientUnits="userSpaceOnUse">
<stop stop-color="#002D85"/>
<stop offset="1" stop-color="#013AA9"/>
</linearGradient>
</defs>
</svg>
