<svg width="80" height="80" viewBox="0 0 80 80" fill="none" xmlns="http://www.w3.org/2000/svg">
<path d="M53.7054 47.1482C54.1811 47.1482 54.6462 47.2893 55.0417 47.5536C55.4373 47.8179 55.7455 48.1936 55.9276 48.6331C56.1096 49.0726 56.1574 49.5562 56.0646 50.0228C55.9717 50.4894 55.7425 50.918 55.4062 51.2544C55.0698 51.5907 54.6413 51.8199 54.1747 51.9127C53.7081 52.0055 53.2245 51.9578 52.785 51.7758C52.3455 51.5937 51.9698 51.2855 51.7055 50.8899C51.4412 50.4944 51.3001 50.0293 51.3001 49.5536C51.3001 49.2377 51.3623 48.9249 51.4832 48.6331C51.6041 48.3413 51.7813 48.0761 52.0046 47.8528C52.228 47.6294 52.4932 47.4522 52.785 47.3313C53.0768 47.2104 53.3895 47.1482 53.7054 47.1482ZM62.1199 49.0725V40.177C62.1199 38.9011 61.613 37.6775 60.7108 36.7753C59.8087 35.8731 58.585 35.3663 57.3092 35.3663H22.6906C21.4147 35.3663 20.1911 35.8731 19.2889 36.7753C18.3867 37.6775 17.8801 38.9011 17.8801 40.177V59.8909C17.8801 61.1667 18.3867 62.3904 19.2889 63.2925C20.1911 64.1947 21.4147 64.7016 22.6906 64.7016H57.3092C58.585 64.7016 59.8087 64.1947 60.7108 63.2925C61.613 62.3904 62.1199 61.1667 62.1199 59.8909C62.1199 59.2529 62.3733 58.6411 62.8244 58.19C63.2755 57.7389 63.8872 57.4855 64.5251 57.4855C65.1631 57.4855 65.775 57.7389 66.2261 58.19C66.6772 58.6411 66.9306 59.2529 66.9306 59.8909C66.9306 62.4426 65.9169 64.8899 64.1125 66.6942C62.3082 68.4986 59.8609 69.5122 57.3092 69.5122H22.6906C20.1389 69.5122 17.6918 68.4986 15.8874 66.6942C14.083 64.8899 13.0693 62.4426 13.0693 59.8909V40.177C13.0693 37.6253 14.083 35.178 15.8874 33.3736C17.6918 31.5693 20.1389 30.5557 22.6906 30.5557H25.57V23.4924C25.6874 19.7449 27.2586 16.1901 29.951 13.5808C32.6434 10.9714 36.2457 9.51221 39.995 9.51221C43.7444 9.51221 47.3465 10.9714 50.0389 13.5808C52.7313 16.1901 54.3026 19.7449 54.4199 23.4924V30.5557H57.3092C59.8609 30.5557 62.3082 31.5693 64.1125 33.3736C65.9169 35.178 66.9306 37.6253 66.9306 40.177V49.0725C66.9306 49.7104 66.6772 50.3222 66.2261 50.7733C65.775 51.2244 65.1631 51.4779 64.5251 51.4779C63.8872 51.4779 63.2755 51.2244 62.8244 50.7733C62.3733 50.3222 62.1199 49.7104 62.1199 49.0725ZM49.6135 23.4967C49.5334 20.9997 48.4851 18.6317 46.6905 16.8937C44.8958 15.1557 42.4954 14.184 39.9971 14.184C37.4988 14.184 35.0984 15.1557 33.3038 16.8937C31.5091 18.6317 30.4608 20.9997 30.3807 23.4967V30.5599H49.6135V23.4967ZM33.1497 49.5521C33.1497 50.0279 33.2908 50.4929 33.5551 50.8885C33.8194 51.284 34.195 51.5924 34.6346 51.7744C35.0741 51.9565 35.5577 52.0041 36.0243 51.9113C36.4908 51.8185 36.9193 51.5894 37.2557 51.253C37.5921 50.9166 37.8213 50.488 37.9141 50.0214C38.0069 49.5548 37.9592 49.0712 37.7772 48.6316C37.5951 48.1921 37.2869 47.8164 36.8913 47.5521C36.4957 47.2878 36.0307 47.1468 35.555 47.1468C35.2391 47.1468 34.9264 47.2091 34.6346 47.3299C34.3427 47.4508 34.0776 47.6279 33.8542 47.8513C33.6309 48.0746 33.4537 48.3398 33.3328 48.6316C33.2119 48.9235 33.1497 49.2363 33.1497 49.5521ZM24.1338 49.5521C24.1338 50.0279 24.2749 50.4929 24.5392 50.8885C24.8035 51.284 25.1792 51.5924 25.6187 51.7744C26.0582 51.9565 26.542 52.0041 27.0085 51.9113C27.4751 51.8185 27.9036 51.5894 28.24 51.253C28.5764 50.9166 28.8054 50.488 28.8983 50.0214C28.9911 49.5548 28.9435 49.0712 28.7615 48.6316C28.5794 48.1921 28.2711 47.8164 27.8756 47.5521C27.48 47.2878 27.015 47.1468 26.5393 47.1468C26.2234 47.1468 25.9105 47.2091 25.6187 47.3299C25.3269 47.4508 25.0617 47.6279 24.8383 47.8513C24.615 48.0746 24.4378 48.3398 24.3169 48.6316C24.196 48.9235 24.1338 49.2363 24.1338 49.5521ZM42.1654 49.5521C42.1654 50.0279 42.3065 50.4929 42.5708 50.8885C42.8351 51.284 43.2108 51.5924 43.6503 51.7744C44.0898 51.9565 44.5734 52.0041 45.04 51.9113C45.5066 51.8185 45.9352 51.5894 46.2716 51.253C46.608 50.9166 46.837 50.488 46.9298 50.0214C47.0227 49.5548 46.9751 49.0712 46.7931 48.6316C46.611 48.1921 46.3027 47.8164 45.9072 47.5521C45.5116 47.2878 45.0464 47.1468 44.5707 47.1468C44.2548 47.1468 43.9421 47.2091 43.6503 47.3299C43.3584 47.4508 43.0933 47.6279 42.8699 47.8513C42.6466 48.0746 42.4694 48.3398 42.3485 48.6316C42.2276 48.9235 42.1654 49.2363 42.1654 49.5521Z" fill="url(#paint0_linear_720_19014)"/>
<defs>
<linearGradient id="paint0_linear_720_19014" x1="14.56" y1="9.51221" x2="72.4816" y2="29.4891" gradientUnits="userSpaceOnUse">
<stop stop-color="#002D85"/>
<stop offset="1" stop-color="#DE0000"/>
</linearGradient>
</defs>
</svg>
