<svg width="80" height="80" viewBox="0 0 80 80" fill="none" xmlns="http://www.w3.org/2000/svg">
<path fill-rule="evenodd" clip-rule="evenodd" d="M57.9035 36.4435V35.1885C57.9592 34.3081 57.873 33.4244 57.6482 32.5713C57.5519 32.3617 57.391 32.1884 57.1892 32.0767C56.9873 31.965 56.755 31.9209 56.5262 31.9507C56.3219 31.9378 56.1181 31.9808 55.9364 32.075C55.7547 32.1691 55.602 32.311 55.4947 32.4853C55.228 32.9762 55.1079 33.5334 55.1489 34.0906C55.0588 34.9797 55.3098 35.8698 55.8511 36.5809C57.1304 37.6205 58.4978 38.5467 59.9377 39.3491C61.3116 40.1389 62.6242 41.0309 63.8642 42.0176C64.6396 42.7532 65.2438 43.6504 65.6342 44.6454C66.1476 45.9942 66.3893 47.4313 66.3454 48.8739C66.4793 51.1514 65.793 53.4015 64.4109 55.2167C62.8837 56.865 60.794 57.8807 58.5544 58.0634V60.9056H55.0658V57.9909C53.091 57.8108 51.2297 56.9886 49.7665 55.6501C48.2564 54.3 47.5013 51.9335 47.5013 48.5522V47.0738H55.0643V48.9252C55.0051 50.1922 55.0851 51.4618 55.3029 52.7113C55.3725 52.9468 55.5232 53.1502 55.7282 53.2853C55.9333 53.4205 56.1796 53.4787 56.4235 53.4498C56.6423 53.4638 56.8612 53.4247 57.0615 53.3358C57.2619 53.2469 57.4378 53.1109 57.5743 52.9393C57.8561 52.4806 57.9866 51.9449 57.9473 51.408C58.0001 50.1837 57.8806 48.958 57.5924 47.7669C57.062 46.7263 56.2068 45.887 55.1564 45.3763C53.5307 44.3935 51.9565 43.328 50.4401 42.1837C49.5249 41.3894 48.7932 40.4058 48.2956 39.3008C47.672 37.9943 47.3617 36.5604 47.3895 35.113C47.334 34.1418 47.476 33.1695 47.807 32.2548C48.138 31.34 48.651 30.5019 49.315 29.7911C50.9075 28.3675 52.9375 27.5291 55.0704 27.414V24.9977H58.565V27.414C60.5392 27.5474 62.4015 28.3787 63.8189 29.7593C65.0424 31.2292 65.6625 33.1086 65.5541 35.0179C65.5541 35.3199 65.5345 35.8017 65.4801 36.4359L57.9035 36.4435ZM43.6367 32.5034H28.6374C27.985 32.5194 27.3647 32.7899 26.9089 33.257C26.4531 33.7241 26.198 34.3509 26.198 35.0035C26.198 35.6561 26.4531 36.2829 26.9089 36.75C27.3647 37.2171 27.985 37.4876 28.6374 37.5036H43.6367C44.2891 37.4876 44.9094 37.2171 45.3652 36.75C45.821 36.2829 46.0761 35.6561 46.0761 35.0035C46.0761 34.3509 45.821 33.7241 45.3652 33.257C44.9094 32.7899 44.2891 32.5194 43.6367 32.5034ZM43.6367 42.5024H28.6374C27.985 42.5184 27.3647 42.7888 26.9089 43.256C26.4531 43.7231 26.198 44.3499 26.198 45.0025C26.198 45.6551 26.4531 46.2819 26.9089 46.749C27.3647 47.2161 27.985 47.4866 28.6374 47.5026H43.6367C44.2891 47.4866 44.9094 47.2161 45.3652 46.749C45.821 46.2819 46.0761 45.6551 46.0761 45.0025C46.0761 44.3499 45.821 43.7231 45.3652 43.256C44.9094 42.7888 44.2891 42.5184 43.6367 42.5024ZM33.6377 51.9819H28.6374C27.9746 51.9819 27.3388 52.2452 26.8701 52.7139C26.4014 53.1826 26.1381 53.8184 26.1381 54.4812C26.1381 55.1441 26.4014 55.7798 26.8701 56.2486C27.3388 56.7173 27.9746 56.9806 28.6374 56.9806H33.6377C34.3006 56.9806 34.9363 56.7173 35.405 56.2486C35.8737 55.7798 36.1371 55.1441 36.1371 54.4812C36.1371 53.8184 35.8737 53.1826 35.405 52.7139C34.9363 52.2452 34.3006 51.9819 33.6377 51.9819ZM58.6344 63.7765V67.5006C58.6344 68.1635 58.3711 68.7992 57.9024 69.2679C57.4336 69.7367 56.7979 70 56.135 70H16.1391C15.4761 70 14.8402 69.7367 14.3713 69.268C13.9023 68.7994 13.6386 68.1636 13.6382 67.5006V18.7485C13.6386 18.0855 13.9023 17.4498 14.3713 16.9811C14.8402 16.5125 15.4761 16.2492 16.1391 16.2492H23.7505C24.0468 14.5037 24.9507 12.9191 26.3024 11.7756C27.654 10.6321 29.3663 10.0032 31.1368 10H41.1358C42.9066 10.0025 44.6195 10.6312 45.9715 11.7748C47.3235 12.9184 48.2275 14.5033 48.5237 16.2492H56.135C56.7979 16.2492 57.4336 16.5125 57.9024 16.9812C58.3711 17.45 58.6344 18.0857 58.6344 18.7485V22.6751H53.6312V21.2494H48.6309V23.7503C48.6305 24.4131 48.367 25.0485 47.8984 25.5172C47.4298 25.9858 46.7943 26.2493 46.1315 26.2497H26.1381C25.4752 26.2493 24.8395 25.9859 24.3707 25.5173C23.9018 25.0487 23.638 24.4132 23.6372 23.7503V21.2494H18.6384V64.9967H53.6312V63.778L58.6344 63.7765ZM26.1381 23.9073H46.1361V17.3033C46.1353 16.4196 45.7838 15.5723 45.159 14.9474C44.5341 14.3225 43.6868 13.9711 42.8031 13.9703H29.4681C28.5843 13.9711 27.7371 14.3225 27.1122 14.9474C26.4873 15.5723 26.1359 16.4196 26.1351 17.3033L26.1381 23.9073Z" fill="white"/>
</svg>
