<svg width="81" height="82" viewBox="0 0 81 82" fill="none" xmlns="http://www.w3.org/2000/svg">
<path fill-rule="evenodd" clip-rule="evenodd" d="M16.687 30.2774H57.1634C58.4685 30.282 59.7188 30.8026 60.6417 31.7254C61.5646 32.6483 62.0851 33.8986 62.0897 35.2037V41.0647H41.7956C40.4124 41.0682 39.0868 41.6195 38.1089 42.5979C37.1311 43.5763 36.5806 44.9022 36.5779 46.2854V51.9786C36.5802 53.3621 37.1305 54.6884 38.1084 55.6671C39.0863 56.6458 40.4121 57.1973 41.7956 57.2008H62.0897V64.8177C62.0855 66.123 61.5651 67.3735 60.6421 68.2965C59.7192 69.2194 58.4686 69.7398 57.1634 69.7441H16.687C13.2075 69.8191 10.7569 68.6917 10.5052 64.9885V30.532C10.3933 26.0207 12.0919 21.9952 15.5655 21.4064L15.8216 21.352H30.2385L20.062 25.9413H16.2705C15.3373 26.5565 14.8943 30.1361 16.6811 30.2803L16.687 30.2774ZM16.6458 65.2446C16.4649 65.2449 16.2916 65.3171 16.1638 65.4451C16.0361 65.5731 15.9643 65.7466 15.9643 65.9275C15.9641 66.0171 15.9816 66.1059 16.0158 66.1887C16.05 66.2716 16.1001 66.3469 16.1634 66.4103C16.2267 66.4738 16.3019 66.5241 16.3847 66.5584C16.4675 66.5928 16.5562 66.6105 16.6458 66.6105H20.6508C20.7407 66.6107 20.8297 66.5931 20.9128 66.5589C20.9959 66.5247 21.0715 66.4744 21.1352 66.411C21.1988 66.3476 21.2494 66.2723 21.284 66.1893C21.3186 66.1063 21.3365 66.0174 21.3367 65.9275C21.3365 65.8376 21.3186 65.7487 21.284 65.6657C21.2494 65.5827 21.1988 65.5074 21.1352 65.444C21.0715 65.3806 20.9959 65.3303 20.9128 65.2961C20.8297 65.2619 20.7407 65.2444 20.6508 65.2446H16.6458ZM45.3723 45.5407C44.6617 45.5407 43.967 45.7514 43.3762 46.1462C42.7854 46.5409 42.3249 47.1021 42.0529 47.7586C41.781 48.4151 41.7098 49.1375 41.8485 49.8344C41.9871 50.5313 42.3293 51.1715 42.8318 51.674C43.3342 52.1765 43.9744 52.5187 44.6713 52.6573C45.3683 52.7959 46.0907 52.7248 46.7472 52.4528C47.4037 52.1809 47.9648 51.7204 48.3596 51.1296C48.7544 50.5387 48.9651 49.8441 48.9651 49.1335C48.9653 48.6616 48.8725 48.1943 48.692 47.7583C48.5115 47.3224 48.2469 46.9262 47.9132 46.5926C47.5796 46.2589 47.1834 45.9942 46.7474 45.8137C46.3114 45.6333 45.8441 45.5405 45.3723 45.5407ZM16.6458 34.6371C16.5562 34.6371 16.4675 34.6547 16.3847 34.6891C16.3019 34.7234 16.2267 34.7738 16.1634 34.8372C16.1001 34.9006 16.05 34.9759 16.0158 35.0588C15.9816 35.1416 15.9641 35.2304 15.9643 35.32C15.9647 35.5008 16.0366 35.674 16.1643 35.802C16.2919 35.9299 16.4651 36.0022 16.6458 36.0029H20.6508C20.8322 36.0029 21.0062 35.9311 21.1347 35.8031C21.2633 35.6751 21.3359 35.5014 21.3367 35.32C21.3365 35.2301 21.3186 35.1412 21.284 35.0582C21.2494 34.9752 21.1988 34.8999 21.1352 34.8365C21.0715 34.7731 20.9959 34.7228 20.9128 34.6886C20.8297 34.6544 20.7407 34.6369 20.6508 34.6371H16.6458ZM53.522 34.6371C53.4322 34.6369 53.3432 34.6544 53.2602 34.6886C53.1772 34.7229 53.1017 34.7731 53.0381 34.8366C52.9745 34.9 52.9241 34.9754 52.8897 35.0583C52.8553 35.1413 52.8376 35.2302 52.8376 35.32C52.838 35.5013 52.9103 35.675 53.0386 35.803C53.1669 35.931 53.3407 36.0029 53.522 36.0029H57.5284C57.7094 36.0022 57.8829 35.93 58.011 35.8022C58.1391 35.6743 58.2117 35.501 58.2128 35.32C58.2121 35.1389 58.1396 34.9654 58.0114 34.8374C57.8832 34.7095 57.7096 34.6374 57.5284 34.6371H53.522ZM46.195 34.6371C46.0138 34.6371 45.8399 34.709 45.7116 34.837C45.5833 34.965 45.511 35.1387 45.5106 35.32C45.5114 35.5012 45.5838 35.6746 45.712 35.8026C45.8402 35.9305 46.0139 36.0026 46.195 36.0029H50.2015C50.3825 36.0022 50.5559 35.93 50.684 35.8022C50.8122 35.6743 50.8847 35.501 50.8859 35.32C50.8851 35.1389 50.8127 34.9654 50.6845 34.8374C50.5562 34.7095 50.3826 34.6374 50.2015 34.6371H46.195ZM39.1124 34.6371C39.0229 34.6373 38.9343 34.6551 38.8517 34.6895C38.7691 34.7239 38.6941 34.7743 38.631 34.8377C38.5678 34.9011 38.5178 34.9764 38.4837 35.0591C38.4497 35.1419 38.4322 35.2305 38.4324 35.32C38.4328 35.5005 38.5045 35.6736 38.6318 35.8015C38.7592 35.9294 38.9319 36.0018 39.1124 36.0029H43.1218C43.3023 36.0014 43.475 35.9289 43.6025 35.8011C43.73 35.6733 43.8021 35.5005 43.8033 35.32C43.8029 35.1393 43.731 34.966 43.6033 34.838C43.4756 34.7101 43.3025 34.6378 43.1218 34.6371H39.1124ZM31.7884 34.6371C31.6986 34.6369 31.6096 34.6544 31.5266 34.6886C31.4436 34.7229 31.3681 34.7731 31.3045 34.8366C31.241 34.9 31.1905 34.9754 31.1561 35.0583C31.1217 35.1413 31.104 35.2302 31.104 35.32C31.1044 35.5013 31.1766 35.675 31.305 35.803C31.4333 35.931 31.6071 36.0029 31.7884 36.0029H35.7948C35.9758 36.0022 36.1493 35.93 36.2774 35.8022C36.4056 35.6743 36.4781 35.501 36.4792 35.32C36.4785 35.1389 36.4061 34.9654 36.2778 34.8374C36.1496 34.7095 35.976 34.6374 35.7948 34.6371H31.7884ZM23.9728 34.6371C23.7919 34.6374 23.6186 34.7096 23.4908 34.8376C23.363 34.9657 23.2913 35.1391 23.2913 35.32C23.2917 35.5008 23.3636 35.674 23.4912 35.802C23.6189 35.9299 23.792 36.0022 23.9728 36.0029H27.9792C28.1602 36.0022 28.3336 35.93 28.4618 35.8022C28.5899 35.6743 28.6625 35.501 28.6636 35.32C28.6629 35.1389 28.5904 34.9654 28.4622 34.8374C28.334 34.7095 28.1603 34.6374 27.9792 34.6371H23.9728ZM15.4757 37.9002C15.4749 37.7189 15.4025 37.5453 15.2744 37.4171C15.1462 37.2889 14.9725 37.2165 14.7913 37.2158C14.61 37.2165 14.4363 37.2889 14.3082 37.4171C14.18 37.5453 14.1076 37.7189 14.1068 37.9002V41.9066C14.1076 42.0878 14.18 42.2613 14.3082 42.3892C14.4365 42.5172 14.6101 42.5892 14.7913 42.5896C14.9724 42.5892 15.146 42.5172 15.2743 42.3892C15.4025 42.2613 15.4749 42.0878 15.4757 41.9066V37.9002ZM15.4757 60.3653C15.4749 60.1842 15.4025 60.0107 15.2743 59.8827C15.146 59.7548 14.9724 59.6828 14.7913 59.6824C14.6101 59.6828 14.4365 59.7548 14.3082 59.8827C14.18 60.0107 14.1076 60.1842 14.1068 60.3653V64.3717C14.1076 64.5529 14.18 64.7264 14.3082 64.8543C14.4365 64.9823 14.6101 65.0543 14.7913 65.0547C14.9724 65.0543 15.146 64.9823 15.2743 64.8543C15.4025 64.7264 15.4749 64.5529 15.4757 64.3717V60.3653ZM15.4757 53.0398C15.4749 52.8586 15.4025 52.6849 15.2744 52.5567C15.1462 52.4285 14.9725 52.3562 14.7913 52.3554C14.61 52.3562 14.4363 52.4285 14.3082 52.5567C14.18 52.6849 14.1076 52.8586 14.1068 53.0398V57.0463C14.1076 57.2274 14.18 57.4009 14.3082 57.5288C14.4365 57.6568 14.6101 57.7288 14.7913 57.7292C14.9724 57.7288 15.146 57.6568 15.2743 57.5288C15.4025 57.4009 15.4749 57.2274 15.4757 57.0463V53.0398ZM15.4757 45.2242C15.4745 45.0433 15.4019 44.8702 15.2738 44.7426C15.1456 44.615 14.9722 44.5431 14.7913 44.5427C14.6104 44.5431 14.4369 44.615 14.3088 44.7426C14.1806 44.8702 14.108 45.0433 14.1068 45.2242V49.2306C14.1076 49.4119 14.18 49.5855 14.3082 49.7137C14.4363 49.8419 14.61 49.9143 14.7913 49.9151C14.9725 49.9143 15.1462 49.8419 15.2744 49.7137C15.4025 49.5855 15.4749 49.4119 15.4757 49.2306V45.2242ZM53.522 65.2416C53.3407 65.2416 53.1669 65.3135 53.0386 65.4416C52.9103 65.5696 52.838 65.7433 52.8376 65.9246C52.8376 66.0144 52.8553 66.1033 52.8897 66.1863C52.9241 66.2692 52.9745 66.3446 53.0381 66.408C53.1017 66.4714 53.1772 66.5217 53.2602 66.556C53.3432 66.5902 53.4322 66.6077 53.522 66.6075H57.5284C57.7096 66.6071 57.8832 66.5351 58.0114 66.4071C58.1396 66.2792 58.2121 66.1057 58.2128 65.9246C58.2121 65.7434 58.1396 65.5699 58.0114 65.442C57.8832 65.314 57.7096 65.242 57.5284 65.2416H53.522ZM46.195 65.2416C46.0139 65.242 45.8402 65.314 45.712 65.442C45.5838 65.5699 45.5114 65.7434 45.5106 65.9246C45.511 66.1058 45.5833 66.2795 45.7116 66.4076C45.8399 66.5356 46.0138 66.6075 46.195 66.6075H50.2015C50.3826 66.6071 50.5562 66.5351 50.6845 66.4071C50.8127 66.2792 50.8851 66.1057 50.8859 65.9246C50.8851 65.7434 50.8127 65.5699 50.6845 65.442C50.5562 65.314 50.3826 65.242 50.2015 65.2416H46.195ZM39.1124 65.2416C38.9318 65.2424 38.7588 65.3147 38.6314 65.4427C38.504 65.5707 38.4324 65.7439 38.4324 65.9246C38.4322 66.0141 38.4497 66.1027 38.4837 66.1855C38.5178 66.2682 38.5678 66.3435 38.631 66.4069C38.6941 66.4703 38.7691 66.5206 38.8517 66.5551C38.9343 66.5895 39.0229 66.6073 39.1124 66.6075H43.1218C43.3025 66.6067 43.4756 66.5345 43.6033 66.4065C43.731 66.2786 43.8029 66.1053 43.8033 65.9246C43.8025 65.7439 43.7305 65.5709 43.6029 65.443C43.4753 65.3152 43.3024 65.2428 43.1218 65.2416H39.1124ZM31.7884 65.2416C31.6071 65.2416 31.4333 65.3135 31.305 65.4416C31.1766 65.5696 31.1044 65.7433 31.104 65.9246C31.104 66.0144 31.1217 66.1033 31.1561 66.1863C31.1905 66.2692 31.241 66.3446 31.3045 66.408C31.3681 66.4714 31.4436 66.5217 31.5266 66.556C31.6096 66.5902 31.6986 66.6077 31.7884 66.6075H35.7948C35.976 66.6071 36.1496 66.5351 36.2778 66.4071C36.4061 66.2792 36.4785 66.1057 36.4792 65.9246C36.4785 65.7434 36.4061 65.5699 36.2778 65.442C36.1496 65.314 35.976 65.242 35.7948 65.2416H31.7884ZM23.9728 65.2416C23.792 65.2424 23.6189 65.3146 23.4912 65.4426C23.3636 65.5705 23.2917 65.7438 23.2913 65.9246C23.2913 66.1054 23.363 66.2789 23.4908 66.407C23.6186 66.535 23.7919 66.6071 23.9728 66.6075H27.9792C28.1603 66.6071 28.334 66.5351 28.4622 66.4071C28.5904 66.2792 28.6629 66.1057 28.6636 65.9246C28.6629 65.7434 28.5904 65.5699 28.4622 65.442C28.334 65.314 28.1603 65.242 27.9792 65.2416H23.9728ZM16.7327 28.701L24.6263 28.8482L56.8823 15.7147L66.0991 36.5476L63.6867 37.8413L63.7294 41.7521L70.5 37.9988L59.3506 12.8049L58.6765 11.277L57.131 11.9055L16.7327 28.701ZM63.5852 43.3638H41.8015C41.0272 43.3688 40.286 43.6787 39.7385 44.2264C39.1911 44.7741 38.8815 45.5155 38.8769 46.2898V51.983C38.8815 52.7574 39.1911 53.4987 39.7385 54.0464C40.286 54.5941 41.0272 54.9041 41.8015 54.9091H63.5852V43.3638Z" fill="white"/>
</svg>
