<svg width="81" height="80" viewBox="0 0 81 80" fill="none" xmlns="http://www.w3.org/2000/svg">
<path fill-rule="evenodd" clip-rule="evenodd" d="M20.2727 26.45C27.1162 16.4289 40.4085 12.5498 51.5149 17.5824C52.0522 17.7615 52.7686 17.5824 52.9477 17.0451C53.1268 16.5078 52.9477 15.7914 52.4104 15.6123C39.9612 10.0014 25.4521 14.3466 18.1259 25.4549L16.7686 23.8509C17.306 25.642 17.1268 27.9703 16.9477 29.7614C18.3806 28.5076 20.1716 27.2539 21.7835 26.7166L20.2727 26.45ZM61.5448 28.1494V29.224C61.5448 29.4031 61.7239 29.5822 61.903 29.5822H70.1418C70.3209 29.5822 70.5 29.4031 70.5 29.224V28.1494C70.5 27.9703 70.3209 27.7912 70.1418 27.7912H61.903C61.7239 27.7912 61.5448 27.9703 61.5448 28.1494ZM69.0672 30.6569V44.2688C69.0672 44.4479 68.8881 44.627 68.709 44.627H63.3358C63.1567 44.627 62.9776 44.4479 62.9776 44.2688V30.6569C62.9776 30.4778 63.1567 30.2987 63.3358 30.2987H68.709C68.8881 30.2987 69.0672 30.4778 69.0672 30.6569ZM37.724 28.1494V29.224C37.724 29.4031 37.9031 29.5822 38.0822 29.5822H46.321C46.5001 29.5822 46.6792 29.4031 46.6792 29.224V28.1494C46.6792 27.9703 46.5001 27.7912 46.321 27.7912H38.0822C37.9031 27.7912 37.724 27.9703 37.724 28.1494ZM53.4851 17.9405L38.2613 24.9255C37.9031 25.1046 37.724 25.4628 37.5449 26.0002V26.7166C37.5449 26.8957 37.724 27.0748 37.9031 27.0748H69.9627C70.1418 27.0748 70.3209 26.8957 70.3209 26.7166V26.0002C70.3209 25.4628 69.9627 25.1046 69.6045 24.9255L54.3806 17.9405C54.0224 17.7614 53.8433 17.7614 53.4851 17.9405ZM65.306 25.1046H42.918C42.8079 24.8845 42.7655 24.7997 42.7907 24.7669C42.8065 24.7464 42.8489 24.7464 42.918 24.7464L54.0224 20.0897H54.2015L65.306 24.7464C65.4851 24.7464 65.4851 24.9255 65.4851 24.9255C65.4851 25.1046 65.306 25.1046 65.306 25.1046ZM49.5448 28.1494V29.224C49.5448 29.4031 49.7239 29.5822 49.903 29.5822H58.1418C58.3209 29.5822 58.5 29.4031 58.5 29.224V28.1494C58.5 27.9703 58.3209 27.7912 58.1418 27.7912H49.903C49.7239 27.7912 49.5448 27.9703 49.5448 28.1494ZM57.0672 30.6569V44.2688C57.0672 44.4479 56.8881 44.627 56.709 44.627H51.3359C51.1568 44.627 50.9777 44.4479 50.9777 44.2688V30.6569C50.9777 30.4778 51.1568 30.2987 51.3359 30.2987H56.709C56.8881 30.2987 57.0672 30.4778 57.0672 30.6569ZM35.5746 39.0749V40.3286C35.5746 40.5077 35.7537 40.6868 35.9328 40.6868H44.7089C44.888 40.6868 45.0671 40.5077 45.0671 40.3286V39.0749C45.0671 38.8957 44.888 38.7166 44.7089 38.7166H35.9328C35.7537 38.7166 35.5746 38.8957 35.5746 39.0749ZM43.6342 41.7614V56.0897C43.6342 56.2688 43.4551 56.4479 43.276 56.4479H37.7238C37.5447 56.4479 37.3656 56.2688 37.3656 56.0897V41.7614C37.3656 41.5823 37.5447 41.4032 37.7238 41.4032H43.276C43.4551 41.4032 43.6342 41.5823 43.6342 41.7614ZM10.5 39.0749V40.3286C10.5 40.5077 10.6791 40.6868 10.8582 40.6868H19.6343C19.8134 40.6868 19.9925 40.5077 19.9925 40.3286V39.0749C19.9925 38.8957 19.8134 38.7166 19.6343 38.7166H10.8582C10.6791 38.7166 10.5 38.8957 10.5 39.0749ZM27.3358 28.3286L11.2164 35.6719C10.8582 35.851 10.5 36.2092 10.6791 36.7465V37.4629C10.6791 37.642 10.8582 37.8211 11.0373 37.8211H44.7089C44.888 37.8211 45.0671 37.642 45.0671 37.4629V36.7465C45.0671 36.2092 44.7089 35.851 44.3506 35.6719L28.2313 28.3286C28.0522 28.1495 27.694 28.1495 27.3358 28.3286ZM39.5148 35.851H16.0522C15.8731 35.4928 15.8731 35.4928 15.694 35.4928L27.5149 30.4779H27.694L39.5148 35.4928C39.6939 35.4928 39.6939 35.6719 39.6939 35.6719C39.6939 35.851 39.5148 35.851 39.5148 35.851ZM10.5 57.5226V59.1345C10.5 59.3136 10.6791 59.4927 10.8582 59.4927H44.5298C44.7089 59.4927 44.888 59.3136 44.888 59.1345V57.5226C44.888 57.3435 44.7089 57.1643 44.5298 57.1643H10.8582C10.6791 57.1643 10.5 57.3435 10.5 57.5226ZM18.5597 41.7614V56.0897C18.5597 56.2688 18.3806 56.4479 18.2015 56.4479H12.6492C12.4701 56.4479 12.291 56.2688 12.291 56.0897V41.7614C12.291 41.5823 12.4701 41.4032 12.6492 41.4032H18.2015C18.3806 41.4032 18.5597 41.5823 18.5597 41.7614ZM23.0373 39.0749V40.3286C23.0373 40.5077 23.2164 40.6868 23.3955 40.6868H32.1716C32.3507 40.6868 32.5298 40.5077 32.5298 40.3286V39.0749C32.5298 38.8957 32.3507 38.7166 32.1716 38.7166H23.3955C23.2164 38.7166 23.0373 38.8957 23.0373 39.0749ZM31.097 41.7614V56.0897C31.097 56.2688 30.9179 56.4479 30.7387 56.4479H25.1865C25.0074 56.4479 24.8283 56.2688 24.8283 56.0897V41.7614C24.8283 41.5823 25.0074 41.4032 25.1865 41.4032H30.7387C30.9179 41.4032 31.097 41.5823 31.097 41.7614ZM40.2313 66.836C36.4701 66.836 32.7089 66.1196 29.1268 64.5077C28.5895 64.3286 28.4104 63.6121 28.5895 63.0748C28.7686 62.5375 29.485 62.3584 30.0223 62.5375C41.3019 67.5699 54.4309 63.6913 61.2643 53.671L60.1121 53.5824L64.4106 50.0003L63.8733 55.7316L63.1085 54.6799C57.989 62.3585 49.193 66.836 40.2313 66.836Z" fill="white"/>
</svg>
