<svg width="81" height="80" viewBox="0 0 81 80" fill="none" xmlns="http://www.w3.org/2000/svg">
<path fill-rule="evenodd" clip-rule="evenodd" d="M59.9486 34.4821C59.8089 34.758 59.3898 34.8959 59.1104 34.8959V34.4821H46.261V39.586H58.8312L68.3287 32.137C68.8874 31.7232 69.7253 31.8611 70.1443 32.4129C70.703 32.9647 70.5634 33.7923 70.0048 34.2062L60.0881 41.9311L60.0877 41.9313C59.8085 42.0692 59.5294 42.207 59.2502 42.207H46.261V47.5868H58.8312L68.3287 40.8275C68.8874 40.4137 69.7253 40.5516 70.1443 41.1034C70.5633 41.6552 70.4236 42.4829 69.865 42.8967L59.9486 49.9319C59.8089 50.0698 59.5296 50.2078 59.2502 50.2078H46.261V55.4497H58.8312L68.4683 49.2422C69.1666 48.8283 69.865 48.9663 70.284 49.5181C70.5633 50.0698 70.4236 50.8975 69.865 51.3113L59.9486 57.6568C59.8089 57.7948 59.5296 57.9327 59.2502 57.9327H11.9023C11.204 57.9327 10.6453 57.3809 10.6453 56.6912C10.6453 56.0015 11.204 55.4497 11.9023 55.4497H24.0535V50.2078H11.9023C11.204 50.2078 10.6453 49.656 10.6453 48.9663C10.6453 48.2766 11.204 47.7248 11.9023 47.7248H24.0535V42.3449H11.9023C11.204 42.3449 10.6453 41.7931 10.6453 41.1034C10.6453 40.4137 11.204 39.8619 11.9023 39.8619H24.0535V34.758H11.9023C11.3436 34.758 10.785 34.4821 10.6453 33.9303C10.366 33.5165 10.5056 32.9647 10.9246 32.5508L20.8412 23.5844C20.9809 23.3085 21.3998 23.1705 21.6791 23.1705H34.2493L35.0875 22.3429C35.2272 22.2049 35.646 22.067 35.9254 22.067H55.1997C55.7584 22.067 56.3172 22.4809 56.4569 22.8947C56.5965 22.8947 56.5964 23.1705 56.5964 23.1705H68.8873C69.4459 23.1705 70.0046 23.4465 70.1443 23.9983C70.4236 24.4121 70.284 24.9639 69.865 25.3777L59.9486 34.4821ZM65.6749 25.7916H54.7807L47.6577 32.4129H58.5519L65.6749 25.7916ZM14.975 32.4129H24.333L31.3164 25.7916H22.0981L14.975 32.4129ZM43.6072 33.2406C43.6072 32.8267 43.7468 32.5508 44.0262 32.275L52.4063 24.688H36.4842L35.3667 25.6536L26.5675 33.7924V55.5876H43.6072V33.2406ZM37.043 36.6891C37.043 35.5855 36.0653 34.6199 34.948 34.6199C33.8306 34.6199 32.853 35.5855 32.7133 36.5511C32.7133 37.6547 33.691 38.6203 34.8083 38.6203C37.462 38.6203 39.5569 40.6895 39.5569 43.3104C39.5569 45.3796 38.1604 47.1729 36.205 47.7246V48.5523C36.205 49.242 35.6463 49.7938 34.948 49.7938C34.2496 49.7938 33.691 49.242 33.691 48.5523V47.7246C31.7356 47.1729 30.3389 45.3796 30.3389 43.3104C30.3389 42.6207 30.8976 42.0689 31.5959 42.0689C32.2943 42.0689 32.853 42.6207 32.853 43.3104C32.853 44.414 33.8306 45.3796 34.948 45.3796C36.0653 45.3796 37.043 44.414 37.043 43.3104C37.043 42.2069 36.0653 41.2412 34.948 41.2412C32.853 41.2412 31.0371 39.8618 30.4784 37.9306C29.7801 35.5855 31.1769 32.9646 33.691 32.2748V31.4472C33.691 30.7574 34.2496 30.2057 34.948 30.2057C35.6463 30.2057 36.205 30.7574 36.205 31.4472V32.2748C38.1604 32.8266 39.5569 34.6199 39.5569 36.6891C39.5569 37.3788 38.9984 37.9306 38.3 37.9306C37.6017 37.9306 37.043 37.3788 37.043 36.6891Z" fill="white"/>
</svg>
