<svg width="81" height="80" viewBox="0 0 81 80" fill="none" xmlns="http://www.w3.org/2000/svg">
<path d="M31.1251 57.3299C28.986 57.1218 26.9712 56.2137 25.3842 54.742C23.747 53.2663 22.9282 50.668 22.9282 46.9472V45.3883H31.1251V47.4306C31.0618 48.8235 31.1493 50.2193 31.386 51.593C31.4637 51.8535 31.6295 52.0777 31.8543 52.2262C32.079 52.3745 32.3482 52.4373 32.614 52.4036C32.8499 52.4134 33.0847 52.3679 33.3003 52.2705C33.516 52.1732 33.7066 52.0267 33.8575 51.8424C34.1629 51.3383 34.3027 50.7488 34.2565 50.1587C34.3341 48.7869 34.215 47.4111 33.9035 46.0742C33.3331 44.9248 32.4049 43.9986 31.2633 43.4396C29.4931 42.3744 27.7768 41.2192 26.1211 39.9787C25.1309 39.1224 24.335 38.0588 23.7878 36.8608C23.1033 35.4018 22.7667 33.7994 22.8054 32.1839C22.744 31.1141 22.8974 30.0427 23.2563 29.0352C23.6151 28.0274 24.172 27.1045 24.8931 26.3221C26.615 24.7517 28.8142 23.8276 31.1251 23.703V20.9905H34.9165V23.6563C37.0627 23.8004 39.0879 24.718 40.6267 26.2442C41.9504 27.8613 42.6197 29.9286 42.4995 32.0279C42.4995 32.3709 42.4995 32.9009 42.4228 33.5869H34.2105V32.1839C34.257 31.2223 34.1534 30.2595 33.9035 29.331C33.8004 29.0997 33.6269 28.9083 33.4086 28.7849C33.1902 28.6613 32.9386 28.6124 32.6909 28.6449C32.4688 28.6314 32.2471 28.6793 32.0499 28.7836C31.8525 28.888 31.6867 29.0448 31.5702 29.2373C31.2743 29.7734 31.1407 30.3863 31.1866 30.999C31.0872 31.9797 31.3618 32.9617 31.9541 33.7427C33.3407 34.911 34.8251 35.9543 36.3902 36.8608C37.8801 37.7243 39.3017 38.7042 40.6421 39.7916C41.4824 40.6044 42.1373 41.5941 42.5608 42.6912C43.1283 44.181 43.3946 45.7717 43.3437 47.3681C43.4927 49.8821 42.7462 52.3665 41.2408 54.368C39.5777 56.1732 37.3121 57.2847 34.8859 57.4859V60.6037H31.1251V57.3299ZM48.8543 18.6677C48.3436 19.1196 47.931 19.6746 47.643 20.2971C47.355 20.9199 47.1977 21.5966 47.1811 22.2843L50.2511 22.5806C50.1956 21.9012 50.3866 21.2246 50.7885 20.6786C50.9878 20.4752 51.2284 20.3183 51.4935 20.2187C51.7585 20.1192 52.0417 20.0792 52.3235 20.1019C52.6025 20.0802 52.8831 20.1175 53.1472 20.2115C53.4113 20.3053 53.6536 20.4537 53.8585 20.6474C54.0469 20.857 54.1915 21.1032 54.284 21.3712C54.3762 21.6391 54.4143 21.9232 54.3957 22.2065C54.3784 22.8781 54.1648 23.5293 53.7816 24.0772C53.0253 25.0137 52.1936 25.8844 51.2949 26.6807C50.0114 27.8 48.8763 29.0839 47.918 30.5002C47.3367 31.4421 46.9842 32.5106 46.8896 33.6181H57.4196V30.7185H51.387C51.5689 30.4213 51.7742 30.1398 52.0011 29.8765C52.262 29.5803 52.8607 29.0035 53.8124 28.115C54.5086 27.4821 55.1649 26.8052 55.7771 26.0883C56.2581 25.4689 56.6462 24.7809 56.9284 24.046C57.1882 23.3977 57.3187 22.7036 57.3121 22.0038C57.3182 21.4193 57.2039 20.8401 56.9765 20.3031C56.7493 19.7662 56.4139 19.2835 55.9921 18.8859C54.9851 17.9785 53.668 17.5083 52.3235 17.5763C51.0801 17.54 49.8598 17.9238 48.8543 18.6677ZM70.1294 27.6785V30.3599H68.1953V33.5558H65.2787V30.3599H58.8625V27.6785L65.6626 17.5763H68.1953V27.6785H70.1294ZM65.2787 22.222L61.6715 27.6785H65.2787V22.222ZM27.5179 15.8147C33.8233 12.4587 41.1821 11.7803 47.9794 13.9283L47.1351 14.7702H53.0602L48.9157 10.4518V11.777C44.2326 10.2565 39.247 9.96308 34.4223 10.9241C29.5974 11.8851 25.0903 14.0692 21.3196 17.2736C17.5486 20.478 14.6368 24.5985 12.8543 29.2522C11.0718 33.9059 10.4766 38.9418 11.1242 43.8916C11.1616 44.174 11.2992 44.4327 11.5112 44.6193C11.7231 44.8059 11.9949 44.9075 12.2754 44.905H12.4136C12.5633 44.8858 12.7078 44.8366 12.8385 44.7602C12.9693 44.6837 13.0838 44.5814 13.1753 44.4595C13.2667 44.3376 13.3333 44.1984 13.3712 44.0501C13.4091 43.9016 13.4175 43.7472 13.396 43.5955C12.6806 38.0549 13.6498 32.4246 16.1738 27.4594C18.6979 22.494 22.6561 18.431 27.5179 15.8147ZM67.6733 35.0679C67.3716 35.1106 67.0983 35.2716 66.9119 35.5163C66.7255 35.7609 66.6407 36.0701 66.6756 36.3774C67.2753 40.9153 66.7387 45.5334 65.1157 49.8049C63.4927 54.0764 60.8355 57.8634 57.39 60.8157C53.9443 63.7682 49.8214 65.7908 45.4025 66.6964C40.9835 67.6023 36.4109 67.362 32.1076 65.9979L32.9672 65.1559H27.0574L31.202 69.599V68.1959C34.8903 69.4095 38.7807 69.8597 42.6432 69.5196C46.5058 69.1796 50.2619 68.0562 53.6895 66.2161C58.9692 63.3827 63.2692 58.9773 66.0129 53.5908C68.7566 48.2045 69.8128 42.0947 69.0395 36.0813C69.0214 35.9209 68.9706 35.7662 68.8907 35.6267C68.8108 35.4871 68.7033 35.3661 68.5749 35.2709C68.4466 35.1758 68.3001 35.1086 68.145 35.0735C67.9899 35.0386 67.8293 35.0368 67.6733 35.0679Z" fill="white"/>
</svg>
