<svg width="80" height="80" viewBox="0 0 80 80" fill="none" xmlns="http://www.w3.org/2000/svg">
<path fill-rule="evenodd" clip-rule="evenodd" d="M47.6071 27.6954H12.7112C11.4345 27.6954 10.3706 28.6831 10.3706 29.8683V49.9177C10.3706 51.1028 11.4345 52.0905 12.7112 52.0905H46.2056C46.6948 52.192 47.1986 52.2589 47.7137 52.2881C52.9268 52.5844 57.3952 48.8313 57.7144 43.9918C58.0092 39.5212 54.5816 35.6405 49.9477 34.8413V29.8683C49.9477 28.6831 48.8838 27.6954 47.6071 27.6954ZM48.3519 34.6926V29.8683C48.3519 29.4732 48.0327 29.1769 47.6071 29.1769H12.7112C12.2856 29.1769 11.9665 29.4732 11.9665 29.8683V49.9177C11.9665 50.3127 12.2856 50.609 12.7112 50.609H42.6742C41.1091 49.5531 39.9084 48.072 39.2704 46.3621H36.543C36.1174 46.3621 35.7982 46.0658 35.7982 45.6707C35.7982 45.2757 36.1174 44.9794 36.543 44.9794H38.8892C38.8013 44.4969 38.7568 44.0019 38.7594 43.498H30.1596C29.734 43.498 29.4148 43.2017 29.4148 42.8066C29.4148 42.4116 29.734 42.1153 30.1596 42.1153H38.8837C38.973 41.6052 39.1089 41.1102 39.2868 40.6339H30.1596C29.734 40.6339 29.4148 40.3376 29.4148 39.9425C29.4148 39.5475 29.734 39.2512 30.1596 39.2512H39.9512C41.5983 36.486 44.7745 34.6392 48.3519 34.6926ZM16.541 41.8188V42.8064C16.541 43.2015 16.8601 43.4978 17.2857 43.4978H24.9458C25.3713 43.4978 25.6905 43.2015 25.6905 42.8064V41.8188C25.6905 40.4361 24.9458 39.1521 23.7755 38.362C23.9883 38.0657 23.9883 37.6706 23.9883 37.2756V36.2879C23.9883 34.8064 22.7116 33.5225 21.0093 33.5225C19.4135 33.5225 18.0304 34.7077 18.0304 36.2879V37.2756C18.0304 37.6706 18.1368 38.0657 18.2432 38.362C17.2857 39.1521 16.541 40.4361 16.541 41.8188ZM19.7327 36.1892C19.7327 35.4978 20.3711 34.9052 21.1157 34.9052C21.8605 34.9052 22.4988 35.4978 22.4988 36.1892V37.1768C22.4988 37.8682 21.8605 38.4608 21.1157 38.4608C20.3711 38.4608 19.7327 37.8682 19.7327 37.1768V36.1892ZM18.1369 41.8188C18.1369 40.9299 18.6688 40.041 19.4135 39.4484C19.9454 39.7447 20.4774 39.9423 21.1157 39.9423C21.7541 39.9423 22.3924 39.7447 22.818 39.4484C23.6691 39.9423 24.0947 40.8311 24.0947 41.8188V42.1151H18.0304V41.8188H18.1369ZM24.9458 46.3621H17.2857C16.8601 46.3621 16.541 46.0658 16.541 45.6707C16.541 45.2757 16.8601 44.9794 17.2857 44.9794H24.9458C25.3713 44.9794 25.6905 45.2757 25.6905 45.6707C25.6905 46.0658 25.3713 46.3621 24.9458 46.3621ZM30.1596 34.9052H43.0328C43.4583 34.9052 43.7775 34.6089 43.7775 34.2139C43.7775 33.8188 43.4583 33.5225 43.0328 33.5225H30.1596C29.734 33.5225 29.4148 33.8188 29.4148 34.2139C29.4148 34.6089 29.734 34.9052 30.1596 34.9052ZM30.1596 47.8435C29.734 47.8435 29.4148 48.1398 29.4148 48.5348C29.4148 48.9299 29.734 49.2262 30.1596 49.2262C30.5851 49.2262 30.9043 48.9299 30.9043 48.5348C30.9043 48.1398 30.5851 47.8435 30.1596 47.8435ZM61.2251 39.5473L65.3743 41.5226H65.4807L69.6299 43.4979L65.4807 45.4732H65.3743L61.2251 47.4485V45.4732H58.2461C58.3525 44.9794 58.4589 44.4856 58.5653 43.893V43.4979C58.5653 42.8065 58.4589 42.214 58.2461 41.5226H61.2251V39.5473ZM51.118 45.0782C51.118 43.7943 50.0541 42.8066 48.671 42.8066C48.2455 42.8066 47.8199 42.5103 47.8199 42.0165C47.8199 41.5227 48.1391 41.2264 48.671 41.2264C49.203 41.2264 49.5221 41.6215 49.5221 42.0165H51.2244C51.2244 41.0289 50.4797 40.14 49.5221 39.8437V38.1647H47.8199V39.8437C46.8624 40.14 46.1177 41.0289 46.1177 42.0165C46.1177 43.3005 47.1816 44.2881 48.5646 44.2881C49.0966 44.2881 49.4158 44.5844 49.4158 45.0782C49.4158 45.5721 49.0966 45.8684 48.5646 45.8684C48.0327 45.8684 47.7135 45.4733 47.7135 45.0782H46.0113C46.0113 46.0659 46.756 46.9548 47.7135 47.2511V48.8313H49.4158V47.2511C50.3733 46.9548 51.118 46.0659 51.118 45.0782Z" fill="white"/>
</svg>
