<svg width="81" height="80" viewBox="0 0 81 80" fill="none" xmlns="http://www.w3.org/2000/svg">
<path fill-rule="evenodd" clip-rule="evenodd" d="M50.9455 64.8085V58.983H55.9675V67.2191C55.9675 68.4243 54.9631 69.6296 53.5569 69.6296H13.9838C12.7785 69.6296 11.5732 68.6252 11.5732 67.2191V19.0082C11.5732 17.8029 12.5776 16.5976 13.9838 16.5976H21.6172C22.2198 12.9817 25.233 10.3704 28.8488 10.3704H38.6919C42.3077 10.3704 45.3209 13.1826 45.9235 16.5976H53.5569C54.7622 16.5976 55.9675 17.602 55.9675 19.0082V27.4451H50.9455V21.4187H45.9235V23.8292C45.9235 25.0345 44.9191 26.2398 43.513 26.2398H23.626C22.4207 26.2398 21.2154 25.2354 21.2154 23.8292V21.4187H16.1935V64.8085H50.9455ZM26.84 14.3879C25.0321 14.3879 23.626 15.7941 23.626 17.602H23.4251V24.231H43.3121V17.602C43.3121 15.7941 41.9059 14.3879 40.098 14.3879H26.84ZM44.3177 30.0564L67.8205 29.8555H69.2266V31.2617L69.4275 48.5372V49.9434H68.0214L60.1875 50.0104V53.3584H63.4016V56.1707H49.34V53.3584H52.5541V50.0756L44.5185 50.1443H43.1124V48.7381L42.9115 31.4625V30.0564H44.3177ZM66.4143 32.6678L45.7238 32.8687L45.9247 47.1311L66.6152 46.9302L66.4143 32.6678ZM55.3664 42.9129L50.3444 36.6857L58.3796 37.4892L57.3752 39.0962L61.1919 41.105L60.1875 43.1138L56.3708 41.105L55.3664 42.9129ZM36.4838 32.6681H21.6188C20.2126 32.6681 19.2082 33.8734 19.2082 35.0787C19.2082 36.4848 20.4135 37.4892 21.6188 37.4892H36.4838C37.8899 37.4892 38.8943 36.2839 38.8943 35.0787C38.8943 33.8734 37.8899 32.6681 36.4838 32.6681ZM21.6188 42.511H36.4838C37.8899 42.511 38.8943 43.7163 38.8943 44.9215C38.8943 46.1268 37.8899 47.3321 36.4838 47.3321H21.6188C20.4135 47.3321 19.2082 46.3277 19.2082 44.9215C19.2082 43.7163 20.2126 42.511 21.6188 42.511ZM26.4387 51.9522H21.4167C20.0105 51.9522 19.0062 53.1575 19.0062 54.3627C19.0062 55.7689 20.2114 56.7733 21.4167 56.7733H26.4387C27.8448 56.7733 28.8492 55.568 28.8492 54.3627C29.0501 53.1575 27.8448 51.9522 26.4387 51.9522Z" fill="white"/>
</svg>
