<svg width="80" height="81" viewBox="0 0 80 81" fill="none" xmlns="http://www.w3.org/2000/svg">
<path fill-rule="evenodd" clip-rule="evenodd" d="M24.7945 16.4354H36.3013V21.0381H24.7945V16.4354ZM27.0957 21.0382H33.9998V22.8068C38.4759 23.5649 42.4611 25.7722 45.4554 28.9285H64.0821V39.449H61.6164V47.0106H64.0821V57.2024H45.5152C41.7926 61.1504 36.5001 63.6135 30.5479 63.6135C19.2055 63.6135 10 54.4081 10 43.0656C10 32.8995 17.395 24.4501 27.0957 22.8068V21.0382ZM33.9998 24.6426C37.7435 25.3386 41.0947 27.1461 43.6986 29.7102V56.421C40.3166 59.7514 35.6739 61.8053 30.5479 61.8053C20.1918 61.8053 11.8082 53.4218 11.8082 43.0656C11.8082 33.8889 18.3909 26.2611 27.0957 24.6427V25.6409H33.9998V24.6426ZM33.0135 45.5314C31.6985 46.8464 29.3971 46.8464 28.082 45.5314C26.7669 44.2163 26.7669 41.9149 28.082 40.5998C30.5478 38.2985 39.5889 34.0245 39.5889 34.0245C39.5889 34.0245 35.3149 43.23 33.0135 45.5314ZM55.2054 42.0791C57.3424 42.0791 58.9863 43.723 58.9863 45.86C58.9863 47.5038 58 48.9832 56.5205 49.4764V52.1065H54.0548V49.4764C52.5753 48.9832 51.589 47.5038 51.589 45.86H54.0548C54.0548 46.5175 54.5479 47.175 55.3698 47.175C56.0274 47.175 56.6849 46.6819 56.6849 45.86C56.6849 45.2024 56.1917 44.5449 55.3698 44.5449C53.2328 44.5449 51.589 42.9011 51.589 40.7641C51.589 39.1202 52.5753 37.6408 54.0548 37.1476V34.3531H56.5205V37.1476C58 37.6408 58.9863 39.1202 58.9863 40.7641H56.5205C56.5205 40.1065 56.0274 39.449 55.2054 39.449C54.5479 39.449 53.8904 39.9422 53.8904 40.7641C53.8904 41.4216 54.5479 42.0791 55.2054 42.0791ZM67.863 44.3807V45.8601L70 43.23L67.863 40.5998V42.0793H62.6027V44.5451C62.7574 44.3904 67.566 44.3812 67.863 44.3807Z" fill="white"/>
</svg>
