<svg width="81" height="80" viewBox="0 0 81 80" fill="none" xmlns="http://www.w3.org/2000/svg">
<path fill-rule="evenodd" clip-rule="evenodd" d="M16.4167 50.3278H45.9057C46.582 50.3278 47.1231 50.8689 47.1231 51.5453C47.1231 52.0863 46.582 52.6274 46.0409 52.6274H16.4167C13.3055 52.6274 10.8706 50.0573 10.8706 47.0813V23.0032C10.8706 19.892 13.4408 17.4571 16.4167 17.4571H58.08C61.1912 17.4571 63.6261 20.0272 63.6261 23.0032V25.1675V27.3318V31.7958V33.9601V36.1244C63.6261 36.6655 63.085 37.2066 62.5439 37.2066C62.0029 37.2066 61.4618 36.6655 61.4618 36.1244V33.9601H13.1702V47.0813C13.1702 48.8398 14.6582 50.3278 16.4167 50.3278ZM16.2814 19.6214C14.5229 19.6214 13.0349 21.1094 13.0349 22.8679H12.8997V25.0322H61.1912V22.8679C61.1912 21.1094 59.7033 19.6214 57.9447 19.6214H16.2814ZM61.3265 27.3318H13.0349V31.6605H61.3265V27.3318ZM36.0306 36.1245H16.4164C15.8753 36.1245 15.3343 36.6656 15.3343 37.2066V43.8349C15.3343 44.376 15.8753 44.9171 16.4164 44.9171H36.1659C36.707 44.9171 37.2481 44.376 37.2481 43.8349V37.2066C37.2481 36.5303 36.707 36.1245 36.0306 36.1245ZM34.9485 42.6175H17.3633V38.2888H34.9485V42.6175ZM41.5771 37.2067H39.4128V39.371H41.5771V37.2067ZM43.7411 37.2067H45.9054V39.371H43.7411V37.2067ZM41.5771 41.5353H39.4128V43.6996H41.5771V41.5353ZM61.7323 48.4341C62.2734 48.4341 62.8145 48.2988 63.2203 47.893C63.6261 47.4872 63.8966 47.0814 63.8966 46.405C63.8966 45.8639 63.6261 45.3228 63.2203 44.917C62.8145 44.5112 62.2734 44.376 61.7323 44.376C61.1912 44.376 60.6502 44.5112 60.2443 44.917C59.8385 45.3228 59.568 45.7287 59.568 46.405C59.568 46.9461 59.8385 47.4872 60.2443 47.893C60.6502 48.1635 61.1912 48.4341 61.7323 48.4341ZM49.8282 50.5984C50.0988 45.1876 54.4274 40.8589 59.8383 40.7237C65.6549 40.5884 70.3894 45.1876 70.1188 50.8689C70.1188 55.3329 67.2781 59.2557 63.22 60.6084C62.7446 60.7669 62.362 60.9254 62.045 61.0567C61.8209 61.1495 61.6296 61.2287 61.4615 61.2848C61.0557 61.42 60.5146 61.5553 59.9735 61.5553C59.1619 61.5553 58.4856 61.2848 57.9445 60.879C57.5387 60.4731 57.2681 59.9321 57.2681 59.2557V58.4441C57.2681 58.1735 57.2681 57.7677 57.4034 57.4972L58.3503 54.2507C58.4856 53.9802 58.6208 53.7096 58.6208 53.4391C58.7561 53.1685 58.7561 52.898 58.7561 52.6275C58.7561 52.2216 58.6208 51.9511 58.4856 51.8158C58.3503 51.6806 58.0797 51.5453 57.5387 51.5453C57.4034 51.5453 57.1329 51.5453 56.8623 51.6806L56.8623 51.6806C56.5917 51.8158 56.3212 51.9511 56.186 51.9511L56.4565 51.0042C56.6584 50.9235 56.8482 50.8427 57.0295 50.7656C57.4558 50.5842 57.8354 50.4228 58.215 50.3279C58.3078 50.3046 58.3967 50.2814 58.4829 50.2589C58.8993 50.1502 59.2547 50.0573 59.703 50.0573C60.6499 50.0573 61.3262 50.3279 61.732 50.7337C62.1379 51.1395 62.4084 51.6806 62.4084 52.3569V53.0333C62.4084 53.3038 62.4084 53.7096 62.2731 53.9802L61.3262 57.2267C61.3262 57.3619 61.2924 57.531 61.2586 57.7001C61.2248 57.8692 61.191 58.0383 61.191 58.1735C61.0557 58.5794 61.0557 58.8499 61.0557 58.9852C61.0557 59.391 61.191 59.6615 61.3262 59.7968C61.4615 59.9321 61.8673 60.0673 62.2731 60.0673C62.5437 60.0673 62.8142 60.0673 63.0848 59.9321C63.2432 59.9321 63.3553 59.8856 63.4481 59.8472C63.5138 59.82 63.5698 59.7968 63.6258 59.7968C66.7371 58.7146 69.5777 55.1976 69.5777 51.0042C69.5777 45.7287 65.3844 41.4 60.1088 41.4C54.9685 41.4 50.7751 45.4581 50.5046 50.5984C50.3693 53.7096 51.722 56.5503 54.0216 58.4441C54.0216 58.4441 54.1569 58.5794 54.0216 58.7146L53.8864 58.9852C53.8864 58.9852 53.7511 59.1204 53.6158 58.9852C51.0457 56.9561 49.693 53.8449 49.8282 50.5984Z" fill="white"/>
</svg>
