<svg width="81" height="80" viewBox="0 0 81 80" fill="none" xmlns="http://www.w3.org/2000/svg">
<g clip-path="url(#clip0_730_19743)">
<path fill-rule="evenodd" clip-rule="evenodd" d="M16.1154 50.9569H45.973C46.6578 50.9569 47.2057 51.5048 47.2057 52.1896C47.2057 52.7374 46.6578 53.2853 46.11 53.2853H16.1154C12.9653 53.2853 10.5 50.683 10.5 47.6699V23.2907C10.5 20.1406 13.1023 17.6753 16.1154 17.6753H58.2996C61.4497 17.6753 63.915 20.2776 63.915 23.2907V25.4821V27.6735V32.1932V34.3846V36.576C63.915 37.1238 63.3671 37.6717 62.8193 37.6717C62.2714 37.6717 61.7236 37.1238 61.7236 36.576V34.3846H12.8284V47.6699C12.8284 49.4504 14.3349 50.9569 16.1154 50.9569ZM15.9785 19.8667C14.198 19.8667 12.6914 21.3733 12.6914 23.1538H12.5544V25.3451H61.4497V23.1538C61.4497 21.3733 59.9431 19.8667 58.1626 19.8667H15.9785ZM61.5866 27.6735H12.6914V32.0562H61.5866V27.6735ZM35.9748 36.5761H16.1154C15.5675 36.5761 15.0197 37.124 15.0197 37.6718V44.3829C15.0197 44.9308 15.5675 45.4786 16.1154 45.4786H36.1118C36.6596 45.4786 37.2074 44.9308 37.2074 44.3829V37.6718C37.2074 36.987 36.6596 36.5761 35.9748 36.5761ZM34.8791 43.1503H17.0741V38.7675H34.8791V43.1503ZM41.5895 37.6718H39.3982V39.8631H41.5895V37.6718ZM43.7815 37.6718H45.9729V39.8631H43.7815V37.6718ZM41.5895 42.0544H39.3982V44.2458H41.5895V42.0544ZM61.9973 49.0395C62.5452 49.0395 63.093 48.9025 63.5039 48.4916C63.9148 48.0807 64.1887 47.6698 64.1887 46.985C64.1887 46.4372 63.9148 45.8893 63.5039 45.4785C63.093 45.0676 62.5452 44.9306 61.9973 44.9306C61.4495 44.9306 60.9017 45.0676 60.4908 45.4785C60.0799 45.8893 59.806 46.3002 59.806 46.985C59.806 47.5329 60.0799 48.0807 60.4908 48.4916C60.9017 48.7655 61.4495 49.0395 61.9973 49.0395ZM49.945 51.2308C50.2189 45.7524 54.6017 41.3696 60.0801 41.2326C65.9695 41.0957 70.7631 45.7524 70.4892 51.5047C70.4892 56.0245 67.613 59.9964 63.5042 61.366C63.0228 61.5264 62.6354 61.6869 62.3145 61.8198C62.0876 61.9138 61.8939 61.994 61.7237 62.0508C61.3128 62.1877 60.7649 62.3247 60.2171 62.3247C59.3953 62.3247 58.7105 62.0508 58.1627 61.6399C57.7518 61.229 57.4779 60.6812 57.4779 59.9964V59.1746C57.4779 58.9007 57.4779 58.4898 57.6148 58.2159L58.5736 54.9288C58.7105 54.6549 58.8475 54.3809 58.8475 54.107C58.9844 53.8331 58.9844 53.5592 58.9844 53.2852C58.9844 52.8744 58.8475 52.6004 58.7105 52.4635C58.5736 52.3265 58.2996 52.1895 57.7518 52.1895C57.6148 52.1895 57.3409 52.1896 57.067 52.3265C56.7931 52.4635 56.5191 52.6004 56.3822 52.6004L56.6561 51.6417C56.8605 51.56 57.0526 51.4782 57.2363 51.4001C57.6679 51.2165 58.0522 51.053 58.4366 50.9569C58.5306 50.9334 58.6205 50.9099 58.7079 50.8871C59.1295 50.777 59.4893 50.683 59.9432 50.683C60.9019 50.683 61.5867 50.9569 61.9976 51.3678C62.4085 51.7787 62.6824 52.3265 62.6824 53.0113V53.6961C62.6824 53.9701 62.6824 54.3809 62.5454 54.6549L61.5867 57.9419C61.5867 58.0789 61.5525 58.2501 61.5182 58.4213C61.484 58.5925 61.4497 58.7637 61.4497 58.9007C61.3128 59.3115 61.3128 59.5855 61.3128 59.7224C61.3128 60.1333 61.4497 60.4072 61.5867 60.5442C61.7237 60.6812 62.1346 60.8181 62.5454 60.8181C62.8194 60.8181 63.0933 60.8181 63.3672 60.6812C63.5277 60.6812 63.6411 60.6342 63.7351 60.5952C63.8016 60.5677 63.8583 60.5442 63.9151 60.5442C67.0652 59.4485 69.9414 55.8875 69.9414 51.6417C69.9414 46.3002 65.6955 41.9174 60.3541 41.9174C55.1495 41.9174 50.9037 46.0263 50.6298 51.2308C50.4928 54.3809 51.8624 57.2571 54.1908 59.1746C54.1908 59.1746 54.3277 59.3115 54.1908 59.4485L54.0538 59.7224C54.0538 59.7224 53.9169 59.8594 53.7799 59.7224C51.1776 57.668 49.808 54.5179 49.945 51.2308Z" fill="white"/>
</g>
<defs>
<clipPath id="clip0_730_19743">
<rect width="80" height="80" fill="white" transform="translate(0.5)"/>
</clipPath>
</defs>
</svg>
