<svg width="81" height="80" viewBox="0 0 81 80" fill="none" xmlns="http://www.w3.org/2000/svg">
<path fill-rule="evenodd" clip-rule="evenodd" d="M15.0829 19.5H55.2326C56.0524 19.5167 56.8324 19.851 57.4025 20.4299C57.9725 21.0089 58.2866 21.7856 58.2762 22.591V34.6241C58.2762 34.7026 58.2604 34.7803 58.2298 34.8529C58.1992 34.9254 58.1544 34.9913 58.0979 35.0468C58.0413 35.1023 57.9742 35.1464 57.9004 35.1764C57.8265 35.2064 57.7474 35.2219 57.6674 35.2219C57.5875 35.2219 57.5083 35.2064 57.4345 35.1764C57.3606 35.1464 57.2935 35.1023 57.237 35.0468C57.1805 34.9913 57.1356 34.9254 57.105 34.8529C57.0745 34.7803 57.0587 34.7026 57.0587 34.6241V32.7415H13.2179V47.2805C13.2127 47.5204 13.256 47.759 13.3451 47.9824C13.4343 48.2058 13.5676 48.4098 13.7373 48.5824C13.9071 48.755 14.1099 48.8929 14.3342 48.9882C14.5585 49.0835 14.7997 49.1343 15.044 49.1376H39.1986C39.2802 49.1392 39.3608 49.1567 39.4355 49.1889C39.5103 49.2211 39.5779 49.2675 39.6344 49.3254C39.691 49.3832 39.7353 49.4515 39.765 49.5262C39.7946 49.6009 39.809 49.6807 39.8073 49.7609C39.809 49.8404 39.7946 49.9195 39.7647 49.9935C39.7349 50.0676 39.6904 50.135 39.6337 50.1918C39.577 50.2487 39.5093 50.2939 39.4346 50.3247C39.3599 50.3556 39.2796 50.3714 39.1986 50.3714H15.044C14.6375 50.3648 14.2363 50.2796 13.8634 50.1206C13.4904 49.9617 13.1529 49.7322 12.8703 49.4451C12.5877 49.1581 12.3654 48.8192 12.2161 48.4478C12.0669 48.0764 11.9936 47.6797 12.0004 47.2805V22.591C11.9936 22.1885 12.0681 21.7888 12.2198 21.4149C12.3715 21.041 12.5973 20.7004 12.884 20.4128C13.1707 20.1253 13.5128 19.8966 13.8902 19.7399C14.2677 19.5832 14.6731 19.5016 15.0829 19.5ZM55.2326 20.772H15.0829H15.044C14.5584 20.7819 14.0959 20.9775 13.7548 21.3172C13.4138 21.6569 13.2212 22.1139 13.2179 22.591V25.9363H57.0587V22.6291C57.0623 22.1464 56.8731 21.6816 56.5317 21.3344C56.1902 20.9872 55.7238 20.7853 55.2326 20.772ZM57.4214 36.8374C54.3022 36.8942 51.3333 38.1633 49.1653 40.3665C46.9973 42.5696 45.8071 45.5271 45.8557 48.5906C45.7816 50.1275 46.0258 51.6632 46.5737 53.1047C47.1215 54.5462 47.9614 55.8635 49.0427 56.9769C50.124 58.0903 51.424 58.9766 52.8642 59.5822C54.3044 60.1878 55.8547 60.5 57.4214 60.5C58.988 60.5 60.5383 60.1878 61.9785 59.5822C63.4187 58.9766 64.7188 58.0903 65.8 56.9769C66.8813 55.8635 67.7213 54.5462 68.2691 53.1047C68.8169 51.6632 69.0611 50.1275 68.987 48.5906C69.0322 45.5281 67.8409 42.5725 65.6736 40.3701C63.5063 38.1677 60.5394 36.8976 57.4214 36.8374ZM62.2911 49.2139H58.0301V53.5514C58.0301 53.63 58.0143 53.7077 57.9837 53.7802C57.9531 53.8528 57.9083 53.9187 57.8518 53.9742C57.7953 54.0297 57.7282 54.0737 57.6543 54.1038C57.5805 54.1338 57.5013 54.1493 57.4214 54.1493C57.3414 54.1493 57.2623 54.1338 57.1884 54.1038C57.1146 54.0737 57.0475 54.0297 56.9909 53.9742C56.9344 53.9187 56.8896 53.8528 56.859 53.7802C56.8284 53.7077 56.8126 53.63 56.8126 53.5514V49.2139H52.5516C52.3798 49.2139 52.2151 49.1469 52.0937 49.0276C51.9722 48.9084 51.904 48.7466 51.904 48.5779C51.904 48.4092 51.9722 48.2475 52.0937 48.1282C52.2151 48.0089 52.3798 47.9419 52.5516 47.9419H56.8126V43.668C56.8126 43.5895 56.8284 43.5118 56.859 43.4392C56.8896 43.3667 56.9344 43.3008 56.9909 43.2453C57.0475 43.1898 57.1146 43.1457 57.1884 43.1157C57.2623 43.0856 57.3414 43.0702 57.4214 43.0702C57.5013 43.0702 57.5805 43.0856 57.6543 43.1157C57.7282 43.1457 57.7953 43.1898 57.8518 43.2453C57.9083 43.3008 57.9531 43.3667 57.9837 43.4392C58.0143 43.5118 58.0301 43.5895 58.0301 43.668V48.0055H62.2911C62.4629 48.0055 62.6276 48.0725 62.749 48.1918C62.8705 48.3111 62.9387 48.4728 62.9387 48.6415C62.9387 48.8102 62.8705 48.972 62.749 49.0912C62.6276 49.2105 62.4629 49.2775 62.2911 49.2775V49.2139ZM18.7482 38.8344H28.2675C28.4392 38.8344 28.604 38.7674 28.7254 38.6481C28.8468 38.5288 28.9151 38.3671 28.9151 38.1984C28.9151 38.0297 28.8468 37.8679 28.7254 37.7487C28.604 37.6294 28.4392 37.5624 28.2675 37.5624H18.7482C18.5764 37.5624 18.4117 37.6294 18.2903 37.7487C18.1688 37.8679 18.1006 38.0297 18.1006 38.1984C18.1006 38.3671 18.1688 38.5288 18.2903 38.6481C18.4117 38.7674 18.5764 38.8344 18.7482 38.8344ZM18.7482 44.2786H31.9198C32.0916 44.2786 32.2563 44.2116 32.3777 44.0923C32.4992 43.973 32.5674 43.8112 32.5674 43.6426C32.5674 43.4739 32.4992 43.3121 32.3777 43.1928C32.2563 43.0736 32.0916 43.0066 31.9198 43.0066H18.7482C18.5764 43.0066 18.4117 43.0736 18.2903 43.1928C18.1688 43.3121 18.1006 43.4739 18.1006 43.6426C18.1006 43.8112 18.1688 43.973 18.2903 44.0923C18.4117 44.2116 18.5764 44.2786 18.7482 44.2786ZM42.838 50.5622C43.2743 50.5622 43.628 50.2034 43.628 49.7609C43.628 49.3183 43.2743 48.9595 42.838 48.9595C42.4016 48.9595 42.0479 49.3183 42.0479 49.7609C42.0479 50.2034 42.4016 50.5622 42.838 50.5622ZM42.7599 44.8128H44.5473V44.8636C44.719 44.8636 44.8837 44.7966 45.0052 44.6774C45.1266 44.5581 45.1948 44.3963 45.1948 44.2276C45.1948 44.059 45.1266 43.8972 45.0052 43.7779C44.8837 43.6586 44.719 43.5916 44.5473 43.5916H42.7599C42.6789 43.5917 42.5987 43.5758 42.524 43.5449C42.4493 43.5141 42.3816 43.4689 42.3249 43.4121C42.2682 43.3552 42.2236 43.2878 42.1938 43.2138C42.164 43.1398 42.1495 43.0607 42.1512 42.9811V38.9488C42.1512 38.7891 42.2149 38.6357 42.3287 38.5215C42.4425 38.4074 42.5973 38.3416 42.7599 38.3383H49.4559C49.6276 38.3383 49.7923 38.2713 49.9138 38.152C50.0352 38.0327 50.1034 37.871 50.1034 37.7023C50.1034 37.5336 50.0352 37.3718 49.9138 37.2526C49.7923 37.1333 49.6276 37.0663 49.4559 37.0663H42.7599C42.2676 37.0763 41.7992 37.2772 41.4571 37.6251C41.115 37.9731 40.9268 38.4398 40.9338 38.9234V42.9556C40.9268 43.4393 41.115 43.906 41.4571 44.2539C41.7992 44.6018 42.2676 44.8027 42.7599 44.8128Z" fill="white"/>
</svg>
