<svg width="81" height="80" viewBox="0 0 81 80" fill="none" xmlns="http://www.w3.org/2000/svg">
<path fill-rule="evenodd" clip-rule="evenodd" d="M38.6472 56.6693C38.8 56.5165 39.0063 56.4293 39.2224 56.426C39.4395 56.426 39.6477 56.5123 39.8011 56.6658C39.9547 56.8194 40.0409 57.0275 40.0409 57.2446V60.5187C40.0376 61.6063 39.6042 62.6486 38.835 63.4177C38.0659 64.1869 37.0236 64.6203 35.936 64.6236H14.605C13.5173 64.6203 12.4751 64.1869 11.7059 63.4177C10.9368 62.6486 10.5033 61.6063 10.5 60.5187V19.4813C10.5 18.3926 10.9325 17.3485 11.7023 16.5787C12.4721 15.8088 13.5163 15.3763 14.605 15.3763H35.936C37.0247 15.3763 38.0687 15.8088 38.8386 16.5787C39.6084 17.3485 40.0409 18.3926 40.0409 19.4813V22.6934C40.0409 22.9104 39.9547 23.1186 39.8011 23.2721C39.6477 23.4256 39.4395 23.5119 39.2224 23.5119C39.0053 23.5119 38.7972 23.4256 38.6436 23.2721C38.4902 23.1186 38.4039 22.9104 38.4039 22.6934V21.9369H12.137V58.0508H38.4039V57.2446C38.4071 57.0285 38.4943 56.8222 38.6472 56.6693ZM35.936 17.0134H14.605C13.9514 17.0166 13.3256 17.2777 12.8635 17.7398C12.4013 18.2019 12.1403 18.8278 12.137 19.4813V20.337H38.4163V19.4937C38.4163 18.8359 38.155 18.205 37.6899 17.7399C37.2246 17.2747 36.5938 17.0134 35.936 17.0134ZM14.605 62.9742H35.936C36.5916 62.9709 37.2194 62.7081 37.6818 62.2433C38.1442 61.7786 38.4039 61.1495 38.4039 60.4939V59.6629H12.1246V60.4939C12.1246 61.1517 12.386 61.7826 12.8511 62.2477C13.3163 62.7128 13.9471 62.9742 14.605 62.9742ZM27.7384 19.4813H26.089V19.4937C25.8719 19.4937 25.6637 19.4075 25.5102 19.254C25.3567 19.1005 25.2705 18.8923 25.2705 18.6752C25.2705 18.4581 25.3567 18.2499 25.5102 18.0964C25.6637 17.9429 25.8719 17.8567 26.089 17.8567H27.7384C27.8535 17.8424 27.9703 17.8528 28.0811 17.8871C28.1919 17.9214 28.2941 17.9789 28.381 18.0557C28.4679 18.1325 28.5375 18.2269 28.5851 18.3326C28.6328 18.4384 28.6575 18.553 28.6575 18.669C28.6575 18.785 28.6328 18.8996 28.5851 19.0054C28.5375 19.1111 28.4679 19.2055 28.381 19.2823C28.2941 19.3591 28.1919 19.4166 28.0811 19.4509C27.9703 19.4852 27.8535 19.4956 27.7384 19.4813ZM23.6335 60.5187H26.9199C27.1369 60.5187 27.3452 60.6049 27.4986 60.7584C27.6522 60.9119 27.7384 61.1201 27.7384 61.3372C27.7384 61.5542 27.6522 61.7625 27.4986 61.9159C27.3452 62.0694 27.1369 62.1557 26.9199 62.1557H23.6335C23.4164 62.1557 23.2082 62.0694 23.0547 61.9159C22.9011 61.7625 22.8149 61.5542 22.8149 61.3372C22.8149 61.1201 22.9011 60.9119 23.0547 60.7584C23.2082 60.6049 23.4164 60.5187 23.6335 60.5187ZM23.6335 19.4813H22.8149C22.5979 19.4813 22.3896 19.3951 22.2362 19.2416C22.0826 19.0881 21.9964 18.8799 21.9964 18.6628C21.9964 18.4457 22.0826 18.2375 22.2362 18.084C22.3896 17.9305 22.5979 17.8443 22.8149 17.8443H23.6335C23.8505 17.8443 24.0588 17.9305 24.2122 18.084C24.3657 18.2375 24.452 18.4457 24.452 18.6628C24.452 18.8799 24.3657 19.0881 24.2122 19.2416C24.0588 19.3951 23.8505 19.4813 23.6335 19.4813ZM15.4607 25.2109V27.6912H13.7865V23.5863H17.941V25.2109H15.4607ZM13.7865 56.4137V52.3087L15.4607 52.2839V54.7642H17.941V56.4137H13.7865ZM59.5239 50.101H69.0609C69.2523 50.0993 69.4423 50.1361 69.6193 50.2094C69.7961 50.2827 69.9566 50.3908 70.0909 50.5274C70.2251 50.664 70.3304 50.8261 70.4007 51.0043C70.4709 51.1825 70.5045 51.373 70.4995 51.5644V60.5557C70.4979 60.743 70.4593 60.9281 70.3862 61.1006C70.313 61.2729 70.2066 61.4293 70.073 61.5605C69.9394 61.6918 69.7813 61.7955 69.6076 61.8657C69.434 61.9359 69.2482 61.9711 69.0609 61.9695H57.5025C57.3141 61.9728 57.127 61.9387 56.9519 61.8692C56.7768 61.7999 56.6172 61.6964 56.4823 61.565C56.3474 61.4336 56.2399 61.2766 56.1659 61.1034C56.0919 60.9303 56.0531 60.744 56.0514 60.5557V51.5148C56.0531 51.3265 56.0919 51.1403 56.1659 50.9671C56.2399 50.7939 56.3474 50.6369 56.4823 50.5055C56.6172 50.3741 56.7768 50.2706 56.9519 50.2013C57.127 50.1318 57.3141 50.0977 57.5025 50.101H57.8125V45.9217C57.8796 44.5113 58.487 43.181 59.5088 42.2066C60.5307 41.2322 61.8883 40.6887 63.3003 40.6887C64.7122 40.6887 66.0699 41.2322 67.0917 42.2066C68.1135 43.181 68.721 44.5113 68.788 45.9217V47.6207C68.788 47.8526 68.696 48.075 68.532 48.2389C68.368 48.4029 68.1456 48.495 67.9137 48.495C67.6818 48.495 67.4594 48.4029 67.2955 48.2389C67.1315 48.075 67.0394 47.8526 67.0394 47.6207V45.9217C67.0394 44.925 66.6436 43.9693 65.9388 43.2645C65.2341 42.5598 64.2783 42.1639 63.2817 42.1639C62.2851 42.1639 61.3292 42.5598 60.6245 43.2645C59.9199 43.9693 59.5239 44.925 59.5239 45.9217V50.101ZM64.1002 58.8566V56.3763C64.3652 56.2233 64.5849 56.003 64.7374 55.7377C64.8897 55.4725 64.9694 55.1716 64.9681 54.8657C64.9669 54.5597 64.8848 54.2596 64.7301 53.9956C64.5756 53.7315 64.354 53.5131 64.0878 53.3623C63.8217 53.2114 63.5204 53.1335 63.2144 53.1366C62.9085 53.1397 62.6089 53.2236 62.3458 53.3797C62.0827 53.5358 61.8655 53.7588 61.7162 54.0258C61.567 54.2928 61.491 54.5947 61.4958 54.9005C61.4969 55.2013 61.5779 55.4964 61.7304 55.7558C61.8829 56.0151 62.1015 56.2292 62.364 56.3763V58.8566H64.1002ZM27.6266 40.6437C27.7408 40.5977 27.8632 40.5748 27.9863 40.5765H45.0635C45.1873 40.5748 45.3102 40.5976 45.4252 40.6435C45.5402 40.6893 45.645 40.7574 45.7337 40.8437C45.8223 40.9302 45.8932 41.0332 45.942 41.1469C45.9909 41.2606 46.0168 41.3828 46.0185 41.5066V47.0626C46.012 47.3115 45.9086 47.5481 45.7302 47.7219C45.5518 47.8956 45.3126 47.9928 45.0635 47.9928H27.9863C27.7385 47.9928 27.5006 47.8952 27.3242 47.7211C27.1478 47.547 27.0471 47.3104 27.0438 47.0626V41.5066C27.0438 41.3835 27.0682 41.2615 27.1158 41.1479C27.1633 41.0341 27.2329 40.9311 27.3206 40.8445C27.4084 40.7579 27.5123 40.6897 27.6266 40.6437ZM28.9413 46.1324H44.1087L44.121 42.412H28.9413V46.1324ZM47.9159 43.3545H49.801L49.8134 41.5066H47.9159V43.3545ZM51.6984 41.5066V43.3545H53.596V41.5066H51.6984ZM49.8134 45.2148H47.9035L47.9159 47.0626H49.8134V45.2148ZM27.9863 52.6557H53.596L53.6083 52.631C53.7387 52.6159 53.8707 52.6285 53.9958 52.668C54.1208 52.7075 54.2362 52.7731 54.3341 52.8604C54.4322 52.9476 54.5106 53.0546 54.5643 53.1743C54.6179 53.294 54.6457 53.4238 54.6457 53.5549C54.6457 53.6861 54.6179 53.8158 54.5643 53.9355C54.5106 54.0552 54.4322 54.1623 54.3341 54.2495C54.2362 54.3367 54.1208 54.4023 53.9958 54.4418C53.8707 54.4814 53.7387 54.494 53.6083 54.4789H27.9863C26.7452 54.4921 25.5493 54.0126 24.6612 53.1454C23.7731 52.2782 23.2652 51.0942 23.2489 49.853V29.415C23.2652 28.1738 23.7731 26.9898 24.6612 26.1226C25.5493 25.2554 26.7452 24.7759 27.9863 24.7891H64.0382C64.6539 24.7809 65.2651 24.8941 65.8369 25.1221C66.4088 25.3501 66.9302 25.6886 67.3713 26.1182C67.8124 26.5477 68.1645 27.06 68.4076 27.6256C68.6507 28.1913 68.78 28.7993 68.788 29.415V40.5765C68.7815 40.8254 68.6781 41.0621 68.4997 41.2357C68.3214 41.4095 68.0821 41.5067 67.8331 41.5066C67.5853 41.5067 67.3474 41.4091 67.171 41.235C66.9946 41.0609 66.8938 40.8244 66.8906 40.5765V38.7162H25.1464V49.8778C25.1561 50.6223 25.4605 51.3325 25.9928 51.8532C26.525 52.3738 27.2418 52.6624 27.9863 52.6557ZM25.9928 27.4643C25.4605 27.9849 25.1561 28.6953 25.1464 29.4397V31.3H66.8906V29.4397C66.8775 28.6941 66.5704 27.9838 66.0363 27.4636C65.502 26.9433 64.7839 26.6551 64.0382 26.6617H27.9863C27.2418 26.6551 26.525 26.9437 25.9928 27.4643ZM66.8906 33.1603H25.1464V36.8807H66.8906V33.1603Z" fill="white"/>
</svg>
