<svg width="80" height="80" viewBox="0 0 80 80" fill="none" xmlns="http://www.w3.org/2000/svg">
<path fill-rule="evenodd" clip-rule="evenodd" d="M17.5 54.0693H21.6705V58.5132C21.7378 59.5552 22.2123 60.5285 22.991 61.2219C23.7697 61.9152 24.7897 62.2726 25.8295 62.2164H54.1705C55.2103 62.2726 56.2303 61.9152 57.009 61.2219C57.7877 60.5285 58.2622 59.5552 58.3295 58.5132V54.0693H62.5C62.8142 54.0877 63.1288 54.0431 63.4255 53.9379C63.7223 53.8327 63.9951 53.6693 64.2279 53.457C64.4608 53.2448 64.649 52.988 64.7816 52.7018C64.9142 52.4156 64.9884 52.1057 65 51.7905V44.4409C64.962 43.814 64.6773 43.2279 64.2085 42.8112C63.7398 42.3946 63.1253 42.1816 62.5 42.219H58.3295V37.7751C58.2622 36.7331 57.7877 35.7597 57.009 35.0664C56.2303 34.3731 55.2103 34.0157 54.1705 34.0719V30.3687C54.1705 23.475 47.8295 17.7777 40 17.7777C32.1705 17.7777 25.8295 23.475 25.8295 30.3687V34.0719C24.7897 34.0157 23.7697 34.3731 22.991 35.0664C22.2123 35.7597 21.7378 36.7331 21.6705 37.7751V42.219H17.5C16.8747 42.1816 16.2602 42.3946 15.7915 42.8112C15.3227 43.2279 15.038 43.814 15 44.4409V51.8473C15.038 52.4743 15.3227 53.0605 15.7915 53.4771C16.2602 53.8937 16.8747 54.1067 17.5 54.0693ZM56.6705 58.5132C56.6574 58.828 56.5821 59.1371 56.449 59.4226C56.3159 59.7081 56.1276 59.9642 55.8951 60.1761C55.6626 60.3882 55.3904 60.5517 55.0943 60.6574C54.7983 60.7632 54.4843 60.8089 54.1705 60.7921H25.8295C25.5157 60.8089 25.2017 60.7632 24.9057 60.6574C24.6096 60.5517 24.3374 60.3882 24.1049 60.1761C23.8724 59.9642 23.6841 59.7081 23.551 59.4226C23.4179 59.1371 23.3426 58.828 23.3295 58.5132V54.0693H56.6705V58.5132ZM27.5 30.3687C27.5 24.2384 33.0909 19.259 40 19.259C46.9091 19.259 52.5 24.2384 52.5 30.3687V34.0719H49.1705V30.3687C49.1705 25.8109 45.0682 22.2216 40 22.2216C34.9318 22.2216 30.8295 25.8678 30.8295 30.3687V34.0719H27.5V30.3687ZM32.5 34.0719V30.3687C32.5 26.6882 35.9091 23.7029 40 23.7029C44.0909 23.7029 47.5 26.6882 47.5 30.3687V34.0719H32.5ZM23.3295 37.7751C23.3426 37.4603 23.4179 37.1511 23.551 36.8657C23.6841 36.5803 23.8724 36.3241 24.1049 36.1121C24.3374 35.9002 24.6096 35.7365 24.9057 35.6308C25.2017 35.5251 25.5157 35.4793 25.8295 35.4962H54.1705C54.4843 35.4793 54.7983 35.5251 55.0943 35.6308C55.3904 35.7365 55.6626 35.9002 55.8951 36.1121C56.1276 36.3241 56.3159 36.5803 56.449 36.8657C56.5821 37.1511 56.6574 37.4603 56.6705 37.7751V42.219H23.3295V37.7751ZM16.6705 44.4409C16.6763 44.3376 16.7023 44.2365 16.7472 44.1433C16.7921 44.0501 16.8548 43.9667 16.9319 43.8979C17.0089 43.8291 17.0988 43.7762 17.1963 43.7423C17.2938 43.7084 17.397 43.6942 17.5 43.7003H62.5C62.603 43.6942 62.7062 43.7084 62.8037 43.7423C62.9012 43.7762 62.991 43.8291 63.0681 43.8979C63.1452 43.9667 63.2079 44.0501 63.2528 44.1433C63.2977 44.2365 63.3237 44.3376 63.3295 44.4409V51.8473C63.3237 51.9506 63.2977 52.0518 63.2528 52.145C63.2079 52.2382 63.1452 52.3216 63.0681 52.3904C62.991 52.4592 62.9012 52.512 62.8037 52.546C62.7062 52.5799 62.603 52.5942 62.5 52.588H17.5C17.397 52.5942 17.2938 52.5799 17.1963 52.546C17.0988 52.512 17.0089 52.4592 16.9319 52.3904C16.8548 52.3216 16.7921 52.2382 16.7472 52.145C16.7023 52.0518 16.6763 51.9506 16.6705 51.8473V44.4409ZM18.4775 50.0356C18.607 50.2024 18.793 50.3159 19.0002 50.3547C19.2154 50.3923 19.4369 50.352 19.6252 50.2408L20.8297 49.5229V50.3661C20.8443 50.5758 20.9408 50.7711 21.0983 50.9098C21.2558 51.0485 21.4614 51.1193 21.6706 51.1067C21.7737 51.113 21.8769 51.0986 21.9743 51.0648C22.0719 51.0308 22.1617 50.9779 22.2388 50.9091C22.3158 50.8403 22.3786 50.7569 22.4235 50.6638C22.4683 50.5705 22.4944 50.4694 22.5002 50.3661V49.5229L23.7048 50.2408C23.8328 50.3077 23.9751 50.3426 24.1195 50.3426C24.2639 50.3426 24.4062 50.3077 24.5343 50.2408C24.6533 50.1958 24.7588 50.1208 24.8404 50.023C24.922 49.9251 24.9771 49.8079 25.0002 49.6824C25.007 49.5479 24.9754 49.4142 24.9089 49.2971C24.8425 49.18 24.7441 49.0844 24.6252 49.0216L23.1707 48.1555L24.6252 47.2895C24.7423 47.2247 24.8392 47.1287 24.9054 47.012C24.9716 46.8955 25.0044 46.7628 25.0002 46.6287C24.9841 46.4939 24.9325 46.3658 24.8506 46.2575C24.7687 46.1494 24.6595 46.0652 24.5343 46.0134C24.4062 45.9465 24.2639 45.9116 24.1195 45.9116C23.9751 45.9116 23.8328 45.9465 23.7048 46.0134L22.5002 46.7312V45.9222C22.4944 45.8189 22.4683 45.7178 22.4235 45.6247C22.3786 45.5314 22.3158 45.4481 22.2388 45.3792C22.1617 45.3104 22.0719 45.2575 21.9743 45.2237C21.8769 45.1897 21.7737 45.1755 21.6706 45.1816C21.4614 45.1691 21.2558 45.2399 21.0983 45.3785C20.9408 45.5172 20.8443 45.7126 20.8297 45.9222V46.7654L19.6252 46.0476C19.4426 45.94 19.2276 45.9015 19.0191 45.9391C18.8107 45.9768 18.6226 46.088 18.4888 46.2527C18.4277 46.332 18.3848 46.4239 18.363 46.5217C18.3413 46.6195 18.3412 46.721 18.3629 46.8188C18.3846 46.9167 18.4275 47.0086 18.4885 47.088C18.5495 47.1673 18.6272 47.2323 18.7161 47.2782L20.182 48.1442L18.7161 49.0101C18.6284 49.0594 18.5518 49.1263 18.4911 49.2067C18.4305 49.2872 18.3872 49.3793 18.3638 49.4773C18.3416 49.5739 18.3413 49.6741 18.3629 49.7707C18.3846 49.8674 18.4276 49.958 18.4888 50.0356H18.4775ZM28.167 50.3457C27.9592 50.3082 27.7712 50.1984 27.6361 50.0357C27.5791 49.9543 27.54 49.8618 27.5211 49.7642C27.5023 49.6666 27.5042 49.5662 27.5267 49.4694C27.5492 49.3726 27.5919 49.2817 27.6518 49.2025C27.7118 49.1234 27.7877 49.0578 27.8747 49.0101L29.3292 48.1441L27.8747 47.2782C27.7864 47.2318 27.7091 47.1669 27.648 47.0879C27.587 47.0089 27.5437 46.9176 27.521 46.8203C27.4984 46.7229 27.4969 46.6219 27.5168 46.5239C27.5366 46.4259 27.5773 46.3334 27.6361 46.2527C27.7712 46.0899 27.9592 45.9802 28.167 45.9426C28.3748 45.9051 28.5892 45.9423 28.7724 46.0475L29.977 46.7654V45.9222C30.0009 45.717 30.0992 45.5276 30.2531 45.3902C30.4071 45.2528 30.6061 45.1769 30.8122 45.1769C31.0183 45.1769 31.2173 45.2528 31.3712 45.3902C31.5252 45.5276 31.6235 45.717 31.6474 45.9222V46.6743L32.8406 45.9564C32.9707 45.8894 33.1148 45.8545 33.2611 45.8545C33.4073 45.8545 33.5514 45.8894 33.6815 45.9564C33.8067 46.0066 33.9155 46.0908 33.9958 46.1994C34.0761 46.3081 34.1246 46.437 34.1361 46.5717C34.1454 46.7053 34.116 46.8387 34.0515 46.956C33.987 47.0732 33.8901 47.1692 33.7724 47.2326L32.3065 48.0986L33.7724 48.9646C33.8895 49.0295 33.9865 49.1256 34.0526 49.2421C34.1188 49.3587 34.1516 49.4914 34.1474 49.6254C34.1314 49.7603 34.0797 49.8884 33.9978 49.9966C33.9159 50.1047 33.8067 50.189 33.6815 50.2407C33.5537 50.3086 33.4113 50.344 33.2667 50.344C33.1221 50.344 32.9798 50.3086 32.852 50.2407L31.6474 49.5229V50.3661C31.6235 50.5714 31.5252 50.7607 31.3712 50.8981C31.2173 51.0355 31.0183 51.1114 30.8122 51.1114C30.6061 51.1114 30.4071 51.0355 30.2531 50.8981C30.0992 50.7607 30.0009 50.5714 29.977 50.3661V49.5229L28.7724 50.2407C28.5892 50.346 28.3748 50.3832 28.167 50.3457ZM45.9775 50.0357C46.107 50.2024 46.293 50.3159 46.5002 50.3547C46.7154 50.3923 46.937 50.3519 47.1252 50.2407L48.3297 49.5229V50.3661C48.3537 50.5714 48.4519 50.7607 48.6059 50.8981C48.7599 51.0355 48.9588 51.1114 49.165 51.1114C49.3711 51.1114 49.57 51.0355 49.724 50.8981C49.878 50.7607 49.9763 50.5714 50.0002 50.3661V49.5229L51.2047 50.2407C51.3328 50.3077 51.4751 50.3426 51.6195 50.3426C51.7639 50.3426 51.9062 50.3077 52.0343 50.2407C52.1533 50.1958 52.2588 50.1207 52.3404 50.0229C52.422 49.9252 52.4771 49.8078 52.5002 49.6824C52.507 49.5479 52.4754 49.4142 52.4089 49.2971C52.3425 49.18 52.244 49.0844 52.1252 49.0216L50.6707 48.1556L52.1252 47.2895C52.2423 47.2246 52.3392 47.1286 52.4054 47.012C52.4716 46.8954 52.5044 46.7628 52.5002 46.6287C52.4841 46.4939 52.4325 46.3658 52.3506 46.2576C52.2687 46.1494 52.1595 46.0651 52.0343 46.0134C51.9062 45.9465 51.7639 45.9115 51.6195 45.9115C51.4751 45.9115 51.3328 45.9465 51.2047 46.0134L50.0002 46.7312V45.9222C49.9763 45.717 49.878 45.5276 49.724 45.3902C49.57 45.2528 49.3711 45.1769 49.165 45.1769C48.9588 45.1769 48.7599 45.2528 48.6059 45.3902C48.4519 45.5276 48.3537 45.717 48.3297 45.9222V46.7654L47.1252 46.0475C46.9426 45.94 46.7276 45.9015 46.5191 45.9391C46.3107 45.9767 46.1226 46.0879 45.9888 46.2527C45.9277 46.332 45.8848 46.4238 45.863 46.5217C45.8413 46.6195 45.8412 46.7209 45.8629 46.8188C45.8846 46.9167 45.9275 47.0085 45.9885 47.0879C46.0496 47.1672 46.1273 47.2322 46.2161 47.2782L47.682 48.1441L46.2161 49.0101C46.1284 49.0594 46.0518 49.1263 45.9911 49.2067C45.9305 49.2871 45.8872 49.3793 45.8638 49.4773C45.8416 49.5739 45.8413 49.6741 45.8629 49.7707C45.8846 49.8674 45.9276 49.958 45.9888 50.0357H45.9775ZM37.3378 50.3457C37.13 50.3081 36.942 50.1983 36.8069 50.0356C36.7457 49.9579 36.7027 49.8673 36.681 49.7708C36.6594 49.6741 36.6597 49.5738 36.6819 49.4772C36.7052 49.3777 36.7497 49.2842 36.8125 49.2036C36.8753 49.1229 36.9548 49.0569 37.0455 49.0101L38.5001 48.1441L37.0342 47.2781C36.9468 47.2308 36.8705 47.1651 36.8106 47.0856C36.7507 47.0061 36.7086 46.9147 36.687 46.8174C36.6655 46.7202 36.665 46.6193 36.6857 46.522C36.7064 46.4245 36.7477 46.3326 36.8069 46.2526C36.942 46.0899 37.13 45.9801 37.3378 45.9426C37.5457 45.9051 37.7601 45.9422 37.9433 46.0475L39.1478 46.7653V45.9222C39.1478 45.7015 39.2352 45.49 39.3908 45.334C39.5464 45.178 39.7574 45.0904 39.9774 45.0904C40.1974 45.0904 40.4084 45.178 40.5639 45.334C40.7195 45.49 40.8069 45.7015 40.8069 45.9222V46.6743L42.0115 45.9563C42.1395 45.8895 42.2818 45.8545 42.4262 45.8545C42.5706 45.8545 42.7129 45.8895 42.841 45.9563C42.9676 46.006 43.0781 46.0897 43.1603 46.1983C43.2425 46.3068 43.2932 46.436 43.3069 46.5716C43.3138 46.7062 43.2821 46.8399 43.2156 46.957C43.1492 47.0741 43.0508 47.1697 42.9319 47.2326L41.4774 48.0986L42.9433 48.9645C43.0591 49.0299 43.1545 49.1264 43.2187 49.2431C43.2829 49.3599 43.3135 49.4922 43.3069 49.6254C43.2932 49.761 43.2425 49.8903 43.1603 49.9988C43.0781 50.1073 42.9676 50.1911 42.841 50.2407C42.7129 50.3076 42.5706 50.3425 42.4262 50.3425C42.2818 50.3425 42.1395 50.3076 42.0115 50.2407L40.8069 49.5228V50.366C40.8069 50.5867 40.7195 50.7982 40.5639 50.9543C40.4084 51.1102 40.1974 51.1978 39.9774 51.1978C39.7574 51.1978 39.5464 51.1102 39.3908 50.9543C39.2352 50.7982 39.1478 50.5867 39.1478 50.366V49.5228L37.9433 50.2407C37.7601 50.346 37.5457 50.3832 37.3378 50.3457ZM28.3295 37.0345H25.8295C25.7265 37.0283 25.6233 37.0426 25.5258 37.0765C25.4284 37.1105 25.3385 37.1633 25.2614 37.2322C25.1844 37.3009 25.1216 37.3844 25.0767 37.4775C25.0319 37.5707 25.0058 37.6719 25 37.7752V39.9971C25.0239 40.2023 25.1222 40.3917 25.2762 40.5291C25.4302 40.6665 25.6291 40.7424 25.8352 40.7424C26.0414 40.7424 26.2403 40.6665 26.3943 40.5291C26.5482 40.3917 26.6465 40.2023 26.6705 39.9971V38.5158H28.3295C28.4374 38.5349 28.5481 38.5299 28.6539 38.5015C28.7596 38.473 28.8579 38.4218 28.9418 38.3512C29.0256 38.2806 29.0931 38.1924 29.1394 38.0929C29.1856 37.9934 29.2096 37.8849 29.2096 37.7752C29.2096 37.6653 29.1856 37.5569 29.1394 37.4573C29.0931 37.3579 29.0256 37.2697 28.9418 37.1991C28.8579 37.1285 28.7596 37.0772 28.6539 37.0487C28.5481 37.0203 28.4374 37.0155 28.3295 37.0345ZM60.8295 51.1068H55.8294C55.6336 51.1068 55.4457 51.0287 55.3072 50.8899C55.1686 50.751 55.0908 50.5626 55.0908 50.3661C55.0908 50.1698 55.1686 49.9813 55.3072 49.8425C55.4457 49.7035 55.6336 49.6255 55.8294 49.6255H60.8295C60.9373 49.6065 61.048 49.6113 61.1538 49.6398C61.2595 49.6682 61.3578 49.7195 61.4417 49.7901C61.5255 49.8607 61.593 49.9488 61.6393 50.0484C61.6855 50.1478 61.7095 50.2564 61.7095 50.3661C61.7095 50.4759 61.6855 50.5844 61.6393 50.6839C61.593 50.7835 61.5255 50.8716 61.4417 50.9422C61.3578 51.0127 61.2595 51.0641 61.1538 51.0925C61.048 51.121 60.9373 51.1258 60.8295 51.1068Z" fill="white"/>
</svg>
