<svg width="80" height="80" viewBox="0 0 80 80" fill="none" xmlns="http://www.w3.org/2000/svg">
<path fill-rule="evenodd" clip-rule="evenodd" d="M16.0875 51.8779H48.6033C49.3457 51.8779 49.7911 52.4718 49.7911 53.2142C49.7911 53.8081 49.1972 54.402 48.6033 54.402H16.0875C12.6726 54.402 10 51.581 10 48.3145V22.0346C10 18.6197 12.821 15.9471 16.0875 15.9471H61.8176C65.2325 15.9471 67.905 18.7681 67.905 22.0346V24.4102V26.7858V31.5369V33.9125V36.2881C67.905 36.882 67.3111 37.4759 66.7172 37.4759C66.1233 37.4759 65.5294 36.882 65.5294 36.2881V33.9125H12.5241V48.3145C12.5241 50.2447 14.1573 51.8779 16.0875 51.8779ZM16.0875 18.3227C14.1573 18.3227 12.5241 19.9559 12.5241 21.8861H12.3756V24.2617H65.3809V21.8861C65.3809 19.9559 63.7477 18.3227 61.8176 18.3227H16.0875ZM65.5294 26.6373H12.5241V31.3885H65.5294V26.6373ZM16.0872 36.288H37.7644C38.5068 36.288 38.9522 36.8819 38.9522 37.4758V44.7511C38.9522 45.345 38.3583 45.9389 37.7644 45.9389H16.0872C15.4933 45.9389 14.8994 45.345 14.8994 44.7511V37.4758C14.8994 36.8819 15.4933 36.288 16.0872 36.288ZM17.275 43.5633H36.5766V38.8121H17.275V43.5633ZM56.1756 48.7599H68.2021C69.2414 48.7599 70.1322 49.5023 69.9837 50.5416V62.271C69.9837 63.1619 69.2414 64.0527 68.2021 64.0527H53.5031C52.6123 64.0527 51.7214 63.3104 51.7214 62.271V50.5416C51.7214 49.6507 52.4638 48.7599 53.5031 48.7599H53.8001V43.2663C53.8001 39.406 56.918 36.288 60.7783 36.288C64.6387 36.288 67.7566 39.406 67.7566 43.2663V45.4935C67.7566 46.0873 67.3112 46.5328 66.7173 46.5328C66.1234 46.5328 65.678 46.0873 65.678 45.4935V43.2663C65.678 40.5938 63.5994 38.5152 60.9268 38.5152C58.2543 38.5152 56.1756 40.5938 56.1756 43.2663V48.7599ZM60.9268 52.7687C59.739 52.7687 58.6997 53.808 58.6997 54.9958C58.6997 55.7382 59.1451 56.4805 59.8875 56.926V60.1924H62.1146V56.926C62.7085 56.4805 63.1539 55.7382 63.1539 54.9958C63.1539 53.808 62.1146 52.7687 60.9268 52.7687ZM43.8517 37.4759H41.4761V39.8515H43.8517V37.4759ZM46.2276 37.4759H48.6032V39.8515H46.2276V37.4759ZM43.8517 42.3756H41.4761V44.7512H43.8517V42.3756Z" fill="white"/>
</svg>
