<svg width="81" height="80" viewBox="0 0 81 80" fill="none" xmlns="http://www.w3.org/2000/svg">
<path fill-rule="evenodd" clip-rule="evenodd" d="M14.8192 58.3873H30.3832C30.6123 58.3873 30.8319 58.2974 30.994 58.1374C31.156 57.9774 31.247 57.7604 31.247 57.5341V52.4151C31.247 52.1888 31.156 51.9717 30.994 51.8118C30.8319 51.6518 30.6123 51.5619 30.3832 51.5619H14.8192C14.5901 51.5619 14.3704 51.6518 14.2084 51.8118C14.0464 51.9717 13.9553 52.1888 13.9553 52.4151V57.5488C13.9593 57.7725 14.052 57.9857 14.2136 58.1426C14.3751 58.2995 14.5926 58.3873 14.8192 58.3873ZM15.683 53.2535H29.5193V56.6809H15.683V53.2535ZM34.7023 54.1214H32.9746V52.4151H34.7023V54.1214ZM38.1577 54.1214H36.43V52.4151H38.1577V54.1214ZM38.1577 57.5341H36.43V55.8278H38.1577V57.5341ZM41.7173 57.5341H39.9896V55.8278H41.7769L41.7173 57.5341ZM41.7173 54.1214H39.9896V52.4151H41.7769L41.7173 54.1214ZM34.7023 57.5341H32.9746V55.8278H34.7023V57.5341ZM47.7344 37.0432H14.8192C13.6737 37.0432 12.5751 37.4927 11.7651 38.2927C10.9551 39.0927 10.5 40.1777 10.5 41.3091V60.0936C10.5 61.225 10.9551 62.31 11.7651 63.11C12.5751 63.9101 13.6737 64.3595 14.8192 64.3595H47.7344C48.8799 64.3595 49.9785 63.9101 50.7884 63.11C51.5985 62.31 52.0535 61.225 52.0535 60.0936V41.3091C52.0535 40.1777 51.5985 39.0927 50.7884 38.2927C49.9785 37.4927 48.8799 37.0432 47.7344 37.0432ZM50.3259 51.5472V60.0936C50.3339 60.4347 50.2727 60.7739 50.146 61.0912C50.0192 61.4085 49.8296 61.6977 49.5882 61.9416C49.3467 62.1855 49.0584 62.3794 48.74 62.5117C48.4217 62.6439 48.0798 62.712 47.7344 62.712H14.8192C14.1319 62.712 13.4727 62.4423 12.9867 61.9623C12.5007 61.4823 12.2277 60.8312 12.2277 60.1524V49.8556H50.2663L50.3259 51.5472ZM50.3259 48.1345H12.2277V44.7218H50.2663L50.3259 48.1345ZM50.3259 43.0154H12.2277V41.3091C12.2277 40.6302 12.5007 39.9792 12.9867 39.4992C13.4727 39.0193 14.1319 38.7496 14.8192 38.7496H47.7344C48.4217 38.7496 49.0808 39.0193 49.5669 39.4992C50.0528 39.9792 50.3259 40.6302 50.3259 41.3091V43.0154ZM70.4771 48.0021C70.662 51.0911 69.7217 54.1435 67.826 56.6074C65.7308 58.8469 62.8604 60.2276 59.7834 60.476V64.33H54.9728V60.4025C54.5855 60.4025 54.2131 60.2701 53.826 60.2113V45.6044H54.9728V48.1198C54.8952 49.8377 55.005 51.5588 55.3004 53.2535C55.404 53.558 55.6057 53.8206 55.8746 54.0013C56.1436 54.1818 56.465 54.2705 56.7898 54.2538C57.0897 54.2718 57.3897 54.2184 57.6644 54.0981C57.9391 53.9779 58.1806 53.7941 58.3685 53.5625C58.7489 52.9389 58.9257 52.2147 58.8748 51.4883C58.9686 49.8241 58.8232 48.1551 58.443 46.5311C57.745 45.128 56.5987 43.9907 55.1813 43.295L53.9004 42.5006V39.0144C53.9004 38.4993 53.7975 37.9892 53.5974 37.5136C53.3973 37.0379 53.1042 36.6059 52.7347 36.2424C52.3653 35.8788 51.9268 35.591 51.4444 35.3951C50.9621 35.1994 50.4452 35.0997 49.9238 35.1015H45.6939C44.8255 33.3178 44.392 31.3582 44.428 29.3794C44.3523 28.0622 44.5469 26.7436 44.9998 25.5025C45.4529 24.2614 46.155 23.1234 47.0642 22.1569C49.2524 20.2234 52.0412 19.0822 54.9728 18.9207V15.6404H59.7834V18.9207C62.4944 19.1029 65.0507 20.2348 66.9919 22.1127C68.6677 24.1096 69.5186 26.6574 69.3749 29.247C69.3749 29.6589 69.3749 30.3061 69.2856 31.174H58.8599V29.4676C58.9305 28.2813 58.82 27.0912 58.5323 25.9373C58.4017 25.663 58.1886 25.4353 57.922 25.2852C57.6555 25.1351 57.3484 25.07 57.0429 25.0988C56.7622 25.0745 56.4802 25.1292 56.2298 25.2568C55.9794 25.3844 55.7707 25.5796 55.6281 25.8196C55.2594 26.4898 55.0939 27.2508 55.1515 28.0113C55.0281 29.215 55.3744 30.4198 56.1195 31.3799C57.8742 32.7974 59.7533 34.0576 61.7344 35.1457C63.6145 36.201 65.4073 37.4011 67.0962 38.7349C68.1651 39.73 68.9989 40.9454 69.5388 42.2947C70.2215 44.1195 70.5401 46.0577 70.4771 48.0021Z" fill="white"/>
</svg>
