<svg width="81" height="81" viewBox="0 0 81 81" fill="none" xmlns="http://www.w3.org/2000/svg">
<path fill-rule="evenodd" clip-rule="evenodd" d="M35.1539 10.5001H61.0875C63.7912 10.5001 66.0037 13.0473 66.1266 16.1605V64.8397C66.1266 67.953 63.9143 70.5001 61.2102 70.5001H35.1539C32.4499 70.5001 30.2375 67.953 30.2375 64.8397V53.3774H14.874V27.4812H30.2375V16.1605C30.2375 13.0473 32.4499 10.5001 35.1539 10.5001ZM16.7177 29.6039V51.1132H43.7574V49.9813L17.9468 49.9813V31.0191H43.7574V30.8775V29.6039H16.7177ZM43.7574 31.7268H18.5614V49.2739H43.7574V31.7268ZM61.2102 66.538C62.0707 66.538 62.8082 65.6887 62.8082 64.6981V62.4342H33.556V64.6981C33.556 65.6887 34.2936 66.538 35.1539 66.538H61.2102ZM33.556 58.6132H62.8082V22.2454H33.556V27.4812H43.8804V25.2171H45.3553V55.7833H43.8804V53.2358H33.556V58.6132ZM33.556 18.5662H62.8082V16.1605C62.8082 15.0284 62.0707 14.1794 61.2102 14.3209H35.1539C34.2936 14.3209 33.556 15.1699 33.556 16.1605V18.5662ZM32.6958 40.0757C32.5159 39.8684 32.2043 39.6614 31.8093 39.3987C31.6645 39.3025 31.5086 39.1989 31.3438 39.0851C31.1381 38.9271 30.9515 38.7912 30.7867 38.6712L30.7865 38.6711L30.7864 38.671C30.3607 38.361 30.0806 38.157 29.992 37.953C29.7462 37.6698 29.6233 37.387 29.6233 36.9624C29.6233 36.6794 29.6233 36.538 29.7462 36.3964C29.8691 36.2547 29.992 36.2547 30.1149 36.2547C30.3606 36.2547 30.4835 36.3963 30.4835 36.5379C30.4835 36.5897 30.5 36.6794 30.5209 36.7931C30.557 36.9901 30.6065 37.2593 30.6065 37.5286V37.953H33.1877V37.387C33.1877 36.5379 32.9418 35.8303 32.5731 35.2643C32.2043 34.6983 31.5897 34.4153 30.7294 34.2737V33.2832H29.5003V34.2737C28.6399 34.4153 28.0254 34.6983 27.5337 35.2643C27.0422 35.8303 26.9193 36.5379 26.9193 37.387C26.9193 37.953 27.0422 38.519 27.2879 39.0851C27.5337 39.5097 27.7796 39.9341 28.0254 40.2173C28.2055 40.4245 28.5834 40.7077 29.0625 41.0669C29.2375 41.198 29.426 41.3393 29.6233 41.4908C30.1149 41.7736 30.3606 42.1984 30.4835 42.4812C30.6065 42.7644 30.6065 43.1888 30.6065 43.8962V43.8963C30.6065 44.1795 30.6065 44.3211 30.4835 44.4623C30.3606 44.6039 30.2377 44.6039 30.1149 44.6039C29.8691 44.6039 29.7462 44.4623 29.7462 44.3211C29.7462 44.28 29.7358 44.2033 29.7212 44.0943L29.7212 44.0943C29.6852 43.8274 29.6233 43.3672 29.6233 42.7644V42.0568H27.0422V42.6228C27.0422 43.8963 27.2879 44.8871 27.7796 45.4529C28.2713 46.0189 28.8857 46.3021 29.6233 46.4434V47.5756H30.8523V46.4434C31.7126 46.3021 32.4499 45.8775 32.8189 45.3115C33.3104 44.7455 33.4333 43.8963 33.4333 42.7644C33.4333 42.0568 33.3104 41.4907 33.1877 41.0661C33.0646 40.6417 32.9418 40.3585 32.6958 40.0757ZM49.0426 38.0943V40.9246C51.378 40.9246 53.3444 43.1885 53.3444 45.8772H55.8025C55.9254 41.6322 52.8529 38.0943 49.0426 38.0943ZM51.2537 45.0285C51.2537 46.019 50.5164 46.868 49.6561 46.868C48.7956 46.868 48.1812 46.019 48.0581 45.0285C48.0581 44.0379 48.7956 43.1886 49.6561 43.1886C50.5164 43.1886 51.2537 44.0379 51.2537 45.0285ZM57.892 46.0188H60.3501C60.3501 38.8019 55.311 32.9999 49.0426 32.9999V35.8302C53.959 35.8302 57.892 40.3586 57.892 46.0188Z" fill="white"/>
</svg>
