<svg width="81" height="81" viewBox="0 0 81 81" fill="none" xmlns="http://www.w3.org/2000/svg">
<path fill-rule="evenodd" clip-rule="evenodd" d="M50.9041 57.5707H27.6718C27.2678 57.5707 27.0658 57.3687 26.8637 57.1667C26.6617 56.9646 26.4597 56.5606 26.4597 56.3586V15.3485C26.4597 14.9445 26.6617 14.7424 26.8637 14.5404C27.0658 14.3384 27.4698 14.1363 27.6718 14.1363H45.8536V20.197C45.8536 23.0253 48.0758 25.2475 50.9041 25.2475H56.9647V39.3889H60.8031V23.8333L47.4698 10.5H25.8536C24.0354 10.5 22.6213 11.9142 22.6213 13.7324V19.3889H16.9647C15.1466 19.3889 13.7324 20.803 13.7324 22.6212V67.2677C13.7324 69.0859 15.1466 70.5 16.9647 70.5H48.6819C49.49 70.5 50.5001 70.096 50.9041 69.4899C51.5102 68.8838 51.9142 68.0758 51.9142 67.2677V63.8333V63.6313C51.7122 63.2273 51.1061 61.6111 50.9041 59.7929V57.5707ZM48.0758 65.2475C48.0758 65.6515 47.8738 65.8535 47.6718 66.0556C47.4698 66.2576 47.0657 66.4596 46.8637 66.4596H18.7829C18.1769 66.4596 17.5708 65.8535 17.5708 65.2475V24.2374C17.5708 23.6313 18.1769 23.0253 18.7829 23.0253H22.6213V23.6313V57.9747C22.6213 59.7929 24.0354 61.2071 25.8536 61.2071H48.0758V65.2475ZM66.4595 48.6817V48.0756C66.4595 46.2575 66.0554 44.8433 65.0453 43.8332C64.0352 42.8231 62.8231 42.2171 60.8029 42.015V40.1969H57.9746V42.015C55.9544 42.2171 54.3383 42.8231 53.5302 43.8332C52.5201 44.8433 51.914 46.2575 51.914 48.0756C51.914 49.2878 52.1161 50.4999 52.7221 51.308C53.1262 52.3181 53.7322 53.1261 54.3383 53.5302C54.9443 54.1362 56.1565 54.9443 57.9746 55.9544C58.9847 56.5605 59.7928 57.1665 59.9948 57.7726C60.1968 58.3787 60.1968 59.3887 60.1968 60.6008V60.6009V60.6009C60.1968 61.207 60.1968 61.611 59.9948 61.813C59.7928 62.015 59.5908 62.2171 59.1867 62.2171C58.7827 62.2171 58.3787 62.015 58.3787 61.611C58.1767 61.2069 58.1766 60.1969 58.1766 58.5807V57.1665H52.116V58.3787C52.116 61.0049 52.7221 62.8231 53.9342 64.0352C55.1464 65.0453 56.5605 65.6514 58.1766 65.8534V68.0756H61.0049V65.8534C63.0251 65.6514 64.6413 64.8433 65.6514 63.6312C66.6615 62.4191 67.2676 60.8029 67.2676 58.5807C67.2676 57.1665 67.0655 56.1564 66.6615 55.1463C66.2575 54.3383 65.8534 53.5302 65.2474 53.1261C65.0772 53.0127 64.8752 52.8674 64.6413 52.6992L64.6412 52.6991L64.6411 52.6991C64.0421 52.2682 63.234 51.6871 62.2171 51.1059C60.3989 50.0958 59.3888 49.2878 58.9847 48.8837C58.5807 48.4797 58.3787 47.8736 58.3787 46.8635V46.8635C58.3787 46.2574 58.3787 45.8534 58.5807 45.6514C58.7827 45.4494 58.9847 45.2474 59.3888 45.2474C59.7928 45.2474 60.1968 45.4494 60.1968 45.6514C60.3989 46.0554 60.3989 46.6615 60.3989 47.6716V48.6817H66.4595ZM53.1265 35.9543H30.2983C29.6922 35.9543 29.0861 35.5503 29.0861 34.7422C29.0861 34.1362 29.6922 33.5301 30.2983 33.5301H53.1265C53.7326 33.5301 54.3387 34.1362 54.3387 34.7422C54.3387 35.3483 53.7326 35.9543 53.1265 35.9543ZM30.2983 42.0149H53.1265C53.7326 42.0149 54.3387 41.4089 54.3387 40.8028C54.3387 40.1968 53.7326 39.5907 53.1265 39.5907H30.2983C29.6922 39.5907 29.0861 40.1968 29.0861 40.8028C29.0861 41.4089 29.6922 42.0149 30.2983 42.0149ZM53.1265 30.2977H30.2983C29.6922 30.2977 29.0861 29.6916 29.0861 29.0856C29.0861 28.4795 29.6922 27.8734 30.2983 27.8734H53.1265C53.7326 27.8734 54.3387 28.4795 54.3387 29.0856C54.3387 29.6916 53.7326 30.2977 53.1265 30.2977Z" fill="white"/>
</svg>
