<svg width="81" height="80" viewBox="0 0 81 80" fill="none" xmlns="http://www.w3.org/2000/svg">
<path fill-rule="evenodd" clip-rule="evenodd" d="M33.6344 15.3606V18.9343C33.6344 19.3105 34.0106 19.8747 34.5749 19.8747C35.1391 19.8747 35.5153 19.4986 35.5153 18.9343V15.3606C35.5153 14.7963 35.1391 14.4202 34.5749 14.4202C34.0106 14.4202 33.6344 14.7963 33.6344 15.3606ZM49.9981 18.9343C49.9981 19.4986 49.6219 19.8747 49.0576 19.8747C48.4934 19.8747 48.1172 19.3105 48.1172 18.9343V15.3606C48.1172 14.7963 48.4934 14.4202 49.0576 14.4202C49.6219 14.4202 49.9981 14.7963 49.9981 15.3606V18.9343ZM51.6909 43.3857C55.8288 43.3857 59.0263 40.0001 59.0263 36.0503C59.0263 32.1004 55.6407 28.9029 51.6909 28.7149C47.5529 28.7149 44.3554 32.1004 44.3554 36.0503C44.3554 40.1882 47.741 43.3857 51.6909 43.3857ZM51.6909 30.5957C54.7003 30.5957 57.1454 33.0409 57.1454 36.0503C57.1454 39.0597 54.7003 41.5048 51.6909 41.5048C48.6814 41.5048 46.2363 39.0597 46.2363 36.0503C46.2363 33.0409 48.6814 30.5957 51.6909 30.5957ZM33.6344 25.3293H37.2081V28.9029H33.6344V25.3293ZM37.2081 34.3575H33.6344V30.7838H37.2081V34.3575ZM42.6626 28.9029H39.089V25.3293H42.6626V28.9029ZM42.6626 34.3575H39.089V30.7838H42.6626V34.3575ZM31.7536 23.2603V35.8622H42.4746V37.7431H31.7536C30.8131 37.7431 29.8727 36.8026 29.8727 35.6741V19.6866C29.8727 18.5581 30.625 17.6177 31.7536 17.6177H32.5059V18.5581C32.5059 19.6866 33.4463 20.439 34.3868 20.439C35.5153 20.439 36.2677 19.4986 36.2677 18.5581V17.6177H47.1768V18.5581C47.1768 19.6866 48.1172 20.439 49.0576 20.439C50.1862 20.439 50.9385 19.4986 50.9385 18.5581V17.6177H51.6909C52.6313 17.6177 53.5717 18.5581 53.5717 19.6866V26.834H51.6909V23.2603H31.7536ZM48.1172 25.3293V28.9029H44.5435V25.3293H48.1172ZM51.8789 36.0503H54.5122C54.8883 36.0503 55.2645 36.6145 55.4526 36.9907C55.4526 37.555 55.0764 37.9312 54.5122 37.9312H50.9385C50.3742 37.9312 49.9981 37.555 49.9981 36.9907V33.417C49.9981 32.8528 50.3742 32.4766 50.9385 32.4766C51.5028 32.4766 51.8789 32.8528 51.8789 33.417V36.0503ZM10.5 61.6302V39.6239C10.5 39.0596 11.0643 38.4954 11.6285 38.6835H21.5972C22.1614 38.6835 22.5376 39.0596 22.5376 39.6239V40.5643H30.2492C31.3777 40.5643 32.3182 40.7524 33.0705 41.3167L40.7821 46.3951H48.6818C50.1865 46.3951 51.5031 47.1474 52.2555 48.2759C53.0078 49.2164 53.1959 50.533 52.8198 51.6615L65.2335 47.8998C65.9859 47.7117 66.9263 47.5236 67.8668 47.8998C69.3715 48.464 70.5 49.9687 70.5 51.6615C70.5 53.1662 69.5596 54.6709 68.0549 55.2352L46.2367 64.4515C44.5439 65.2038 42.663 65.58 40.7821 65.58H40.594C39.0893 65.58 37.5846 65.3919 36.0799 64.8277L22.3495 59.9374V61.6302C22.3495 62.1944 21.9734 62.5706 21.4091 62.5706H11.4404C10.8762 62.5706 10.5 62.1944 10.5 61.6302ZM30.2492 42.6333H22.5376H22.3495V58.2446L36.6442 63.323C37.7727 63.6991 39.0893 63.8872 40.406 63.8872H40.594C42.2868 63.8872 43.7915 63.511 45.2962 62.9468L67.1144 53.7305C67.8668 53.5424 68.2429 52.79 68.2429 52.0377C68.2429 51.0973 67.6787 50.3449 66.9263 50.1568C66.5502 49.9687 65.9859 49.9687 65.6097 50.1568L51.127 54.6709C50.9869 54.7409 50.8469 54.837 50.6971 54.9398C50.4446 55.113 50.1645 55.3052 49.8103 55.4233C49.7163 55.4233 49.6223 55.4703 49.5282 55.5173C49.4342 55.5643 49.3401 55.6114 49.2461 55.6114H49.058H48.3056H33.2586V53.5424H48.3056H48.8699H49.058C49.152 53.5424 49.1991 53.4954 49.2461 53.4483C49.2931 53.4013 49.3401 53.3543 49.4342 53.3543C49.4342 53.1662 49.6223 53.1662 49.6223 53.1662C49.7022 53.1662 49.7481 53.1662 49.789 53.1518C49.8443 53.1323 49.8903 53.0863 49.9984 52.9781H50.1865C50.3746 52.79 50.5627 52.602 50.5627 52.4139L50.7508 51.8496C51.127 51.0973 50.9389 50.3449 50.5627 49.5926C50.1865 49.0283 49.4342 48.6521 48.6818 48.6521H40.406C40.2179 48.6521 40.0298 48.6521 39.8417 48.464L31.942 43.1976C31.3777 42.8214 30.8135 42.6333 30.2492 42.6333ZM20.0925 41.5048H12.9451V59.5612H20.0925V41.5048Z" fill="white"/>
</svg>
