<svg width="81" height="80" viewBox="0 0 81 80" fill="none" xmlns="http://www.w3.org/2000/svg">
<path fill-rule="evenodd" clip-rule="evenodd" d="M24.2872 58.766H56.585C64.117 58.766 70.5 52.5107 70.5 44.9788C70.5 37.4469 64.3722 31.1915 56.7127 31.1915C55.6915 31.1915 54.6702 31.3193 53.6489 31.5745C52.117 25.4469 46.6276 21.2341 40.2447 21.2341C33.8617 21.2341 28.5 25.4469 26.8405 31.4469C26.7404 31.4326 26.6419 31.4183 26.5447 31.4042C25.7736 31.2921 25.0807 31.1915 24.2872 31.1915C16.7553 31.1915 10.5 37.4469 10.5 44.9788C10.5 52.5107 16.6277 58.766 24.2872 58.766ZM13.0532 44.851C13.0532 38.7234 18.0319 33.6171 24.2872 33.6171C25.3085 33.6171 26.3298 33.7448 27.4788 34.1277L28.8829 34.5107L29.1383 33.1064C30.0319 27.6171 34.7553 23.6596 40.2447 23.6596C45.8617 23.6596 50.4574 27.7448 51.351 33.2341L51.6063 34.766L53.0107 34.2553C54.1595 33.8724 55.4362 33.6171 56.585 33.6171C62.7127 33.6171 67.8191 38.7234 67.8191 44.851C67.8191 50.9788 62.8405 56.0852 56.585 56.0852H40.6277V54.1703C42.7979 53.915 44.5851 53.0213 45.6064 51.7448C46.7553 50.4682 47.266 48.5534 47.266 46.2554C47.266 44.8512 47.0106 43.5746 46.6277 42.681C46.2446 41.6596 45.7341 41.0213 45.0957 40.3831C44.4574 39.8724 43.4362 39.1065 41.7767 38.0853C39.8617 36.9363 38.7127 36.1703 38.3298 35.6596C37.9467 35.2767 37.6915 34.5108 37.6915 33.4894C37.6915 32.8512 37.8191 32.4682 37.9467 32.0853C38.0745 31.8299 38.4574 31.5746 38.8405 31.5746C39.351 31.5746 39.6064 31.7022 39.8617 32.0853C39.9893 32.4682 40.117 33.2341 40.117 34.3831V35.4044H47.0106V34.3831C47.0106 32.4682 46.5 30.9363 45.4788 29.915C44.4574 28.8937 42.9255 28.1277 41.0107 27.8724V25.8299H38.0744V27.8724C35.9043 28.1277 34.2447 28.766 33.0957 29.915C31.9469 31.0639 31.4362 32.5958 31.4362 34.5108C31.4362 35.7874 31.6915 37.0639 32.2022 38.0853C32.7127 39.1065 33.3512 40.0001 33.9893 40.5108C34.7553 41.1491 36.0319 42.0427 38.0744 43.1915C39.2234 43.9575 39.9893 44.5958 40.117 45.2341C40.3724 45.8724 40.3724 46.8937 40.3724 48.2979C40.3724 48.9363 40.2446 49.3193 39.9893 49.5746C39.7341 49.8299 39.4787 49.9575 38.9681 49.9575C38.4574 49.9575 38.2022 49.7022 37.9467 49.3193C37.8191 48.9363 37.6915 47.7873 37.6915 46.1277V44.5958H31.1809V45.8724C31.1809 48.8086 31.8191 50.8512 33.0957 52.0001C34.3724 53.1491 35.9043 53.7874 37.6915 54.0427V56.0852H24.2872C18.1596 56.0852 13.0532 50.9788 13.0532 44.851Z" fill="white"/>
</svg>
