<svg width="80" height="80" viewBox="0 0 80 80" fill="none" xmlns="http://www.w3.org/2000/svg">
<path fill-rule="evenodd" clip-rule="evenodd" d="M23.9871 58.4839H55.8862C63.3251 58.4839 69.6294 52.3226 69.6294 44.904C69.6294 37.4853 63.5773 31.3239 56.0123 31.3239C55.0037 31.3239 53.995 31.4498 52.9863 31.7012C51.4733 25.6657 46.0517 21.5162 39.7476 21.5162C33.4434 21.5162 28.1479 25.6657 26.5088 31.5755C26.41 31.5614 26.3128 31.5473 26.2168 31.5334C25.4552 31.4231 24.7708 31.3239 23.9871 31.3239C16.5482 31.3239 10.3701 37.4853 10.3701 44.904C10.3701 52.3226 16.4221 58.4839 23.9871 58.4839ZM12.8918 44.7781C12.8918 38.7426 17.809 33.7131 23.9871 33.7131C24.9958 33.7131 26.0045 33.8388 27.1393 34.216L28.5261 34.5933L28.7783 33.2101C29.6609 27.8033 34.3259 23.9053 39.7476 23.9053C45.2952 23.9053 49.8342 27.929 50.7168 33.3358L50.9689 34.8447L52.356 34.3417C53.4907 33.9645 54.7515 33.7131 55.8862 33.7131C61.9382 33.7131 66.9816 38.7426 66.9816 44.7781C66.9816 50.8138 62.0644 55.8434 55.8862 55.8434H40.1279V53.9571C42.2714 53.7057 44.0365 52.8254 45.0452 51.5681C46.1799 50.3106 46.6843 48.4246 46.6843 46.1612C46.6843 44.7781 46.432 43.5207 46.0539 42.6405C45.6755 41.6345 45.1713 41.0058 44.5409 40.3772C43.9104 39.8742 42.9018 39.1198 41.2627 38.1139C39.3714 36.9822 38.2366 36.2277 37.8584 35.7247C37.4801 35.3476 37.228 34.5932 37.228 33.5871C37.228 32.9586 37.3541 32.5813 37.4801 32.2041C37.6063 31.9525 37.9845 31.7011 38.3628 31.7011C38.8671 31.7011 39.1193 31.8268 39.3714 32.2041C39.4975 32.5813 39.6236 33.3357 39.6236 34.4674V35.4733H46.432V34.4674C46.432 32.5813 45.9278 31.0724 44.9192 30.0665C43.9104 29.0605 42.3974 28.3061 40.5062 28.0546V26.0428H37.6062V28.0546C35.4629 28.3061 33.8238 28.9348 32.689 30.0665C31.5543 31.1981 31.05 32.707 31.05 34.5932C31.05 35.8506 31.3021 37.1079 31.8065 38.1139C32.3107 39.1198 32.9413 39.9999 33.5716 40.5029C34.3281 41.1317 35.5889 42.0118 37.6062 43.1434C38.741 43.8979 39.4975 44.5266 39.6236 45.1553C39.8758 45.784 39.8758 46.7899 39.8758 48.173C39.8758 48.8018 39.7496 49.1791 39.4975 49.4305C39.2454 49.6819 38.9931 49.8076 38.4889 49.8076C37.9845 49.8076 37.7324 49.5562 37.4801 49.1791C37.3541 48.8018 37.228 47.67 37.228 46.0354V44.5266H30.7978V45.784C30.7978 48.6761 31.4281 50.6879 32.689 51.8195C33.9499 52.9513 35.4629 53.58 37.228 53.8314V55.8434H23.9871C17.9351 55.8434 12.8918 50.8138 12.8918 44.7781Z" fill="white"/>
</svg>
