<svg width="80" height="80" viewBox="0 0 80 80" fill="none" xmlns="http://www.w3.org/2000/svg">
<path d="M17.4 19.4001V11.8001C17.4 10.8001 18.2 10.0001 19.2 10.0001C20.2 10.0001 21 10.8001 21 11.8001V19.4001C21 20.4001 20.2 21.2001 19.2 21.2001C18.4 21.2001 17.4 20.4001 17.4 19.4001ZM49.4 21.2001C50.4 21.2001 51.2 20.4001 51.2 19.4001V11.8001C51.2 10.8001 50.4 10.0001 49.4 10.0001C48.4 10.0001 47.6 10.8001 47.6 11.8001V19.4001C47.4 20.4001 48.4 21.2001 49.4 21.2001ZM70 55.0001C70 63.2001 63.2 70.0001 55 70.0001C46.8 70.0001 40 63.2001 40 55.0001C40 46.8001 46.8 40.0001 55 40.0001C63.2 40.0001 70 46.6001 70 55.0001ZM66.2 55.0001C66.2 48.8001 61.2 43.8001 55 43.8001C48.8 43.8001 43.8 48.8001 43.8 55.0001C43.8 61.2001 48.8 66.2001 55 66.2001C61.2 66.2001 66.2 61.2001 66.2 55.0001ZM25 32.4001H17.4V40.0001H25V32.4001ZM17.4 51.2001H25V43.6001H17.4V51.2001ZM28.8 40.0001H36.4V32.4001H28.8V40.0001ZM28.8 51.2001H36.4V43.6001H28.8V51.2001ZM13.8 54.6001V28.8001H55V36.4001H58.8V21.8001C58.8 19.6001 57 17.6001 54.8 17.6001H53.2V19.4001C53.2 21.4001 51.6 23.2001 49.4 23.2001C47.4 23.2001 45.6 21.6001 45.6 19.4001V17.6001H23V19.4001C23 21.4001 21.4 23.2001 19.2 23.2001C17.2 23.2001 15.4 21.6001 15.4 19.4001V17.6001H14C11.8 17.6001 10 19.4001 10 21.8001V54.8001C10 57.0001 11.8 59.0001 14 59.0001H36.2V55.2001H14C13.8 55.0001 13.8 54.8001 13.8 54.6001ZM47.4 40.0001V32.4001H40V40.0001H47.4ZM60.6 55.0001H55V49.4001C55 48.4001 54.2 47.6001 53.2 47.6001C52.2 47.6001 51.4 48.4001 51.4 49.4001V57.0001C51.4 58.0001 52.2 58.8001 53.2 58.8001H60.8C61.8 58.8001 62.6 58.0001 62.6 57.0001C62.4 55.8001 61.6 55.0001 60.6 55.0001Z" fill="white"/>
</svg>
