<svg width="80" height="80" viewBox="0 0 80 80" fill="none" xmlns="http://www.w3.org/2000/svg">
<path d="M54.2678 70H25.732C23.3416 70 21.25 68.134 21.25 65.6939V60.9569C21.25 60.3827 21.6981 59.9522 22.2957 59.9522H57.7041C58.3017 59.9522 58.75 60.3827 58.75 60.9569V65.6939C58.75 68.134 56.8077 70 54.2678 70ZM24.5367 61.9617V65.6939C24.5367 66.9857 25.5826 67.9904 26.9271 67.9904H53.3714C54.7161 67.9904 55.7618 66.9857 55.7618 65.6939V61.9617H24.5367ZM44.1085 64.9761C44.1085 64.402 43.6604 63.9713 43.0626 63.9713H36.7878C36.1902 63.9713 35.7419 64.402 35.7419 64.9761C35.7419 65.5502 36.1902 65.9809 36.7878 65.9809H43.0626C43.6604 65.9809 44.1085 65.5502 44.1085 64.9761ZM57.7041 20.0479H22.2957C21.6981 20.0479 21.25 19.6172 21.25 19.0431V14.3062C21.25 12.0096 23.1921 10 25.732 10H54.2678C56.6583 10 58.75 11.866 58.75 14.3062V19.0431C58.75 19.6172 58.3017 20.0479 57.7041 20.0479ZM24.5367 18.0383H55.7618V14.3062C55.7618 13.0144 54.7161 12.0096 53.3714 12.0096H26.7779C25.5826 12.0096 24.5367 13.0144 24.5367 14.3062V18.0383ZM46.2001 15.0239C46.2001 14.4498 45.7519 14.0191 45.1544 14.0191H34.6962C34.0984 14.0191 33.6503 14.4498 33.6503 15.0239C33.6503 15.5981 34.0984 16.0287 34.6962 16.0287H45.1544C45.7519 16.0287 46.2001 15.5981 46.2001 15.0239ZM57.7041 61.9617H22.2957C21.6981 61.9617 21.25 61.5312 21.25 60.9569V19.0431C21.25 18.469 21.6981 18.0383 22.2957 18.0383H57.7041C58.3017 18.0383 58.75 18.469 58.75 19.0431V61.1005C58.75 61.5312 58.3017 61.9617 57.7041 61.9617ZM24.5367 58.6604H55.6126V21.3398H24.5367V58.6604ZM42.0169 58.0861H37.8336C37.2361 58.0861 36.7878 57.6556 36.7878 57.0814V54.067H34.8456C34.3973 54.067 34.0984 53.7799 33.9492 53.4929C33.7998 53.2058 33.7998 52.7751 34.0986 52.4881L39.3276 46.4594C39.7758 46.0287 40.5228 46.0287 40.9711 46.4594L46.2001 52.4881C46.4989 52.7751 46.4989 53.2058 46.3495 53.4929C46.2001 53.7799 45.7519 54.067 45.4531 54.067H43.3615V57.0814C43.0626 57.5119 42.6145 58.0861 42.0169 58.0861ZM38.8795 56.0766H40.9711V53.0622C40.9711 52.4881 41.4192 52.0574 42.0169 52.0574H42.9132L39.9252 48.6124L36.9372 52.0574H37.8336C38.4312 52.0574 38.8795 52.4881 38.8795 53.0622V56.0766ZM39.9252 44.0192C33.6503 44.0192 28.4213 39.1388 28.4213 32.9665C28.4213 26.7942 33.5009 21.9139 39.9252 21.9139C46.3495 21.9139 51.4293 26.7942 51.4293 32.9665C51.4293 39.1388 46.3495 44.0192 39.9252 44.0192ZM39.9252 24.6411C35.1443 24.6411 31.1104 28.3733 31.1104 33.1101C31.1104 37.8469 34.9949 41.5789 39.9252 41.5789C44.8555 41.5789 48.7399 37.8469 48.7399 33.1101C48.7399 28.3733 44.8555 24.6411 39.9252 24.6411ZM43.6604 30.5264C43.6604 30.2393 43.6604 30.0957 43.6604 29.9522C43.6604 29.0909 43.3615 28.3733 42.9132 27.799C42.4651 27.2249 41.7181 26.9378 40.6722 26.7942V25.7895H39.1782V26.7942C38.1323 26.9378 37.2361 27.2249 36.7878 27.799C36.1902 28.3733 36.0408 29.0909 36.0408 29.9522C36.0408 30.5264 36.1902 31.1005 36.4889 31.6746C36.7878 32.2487 37.0866 32.536 37.3853 32.8231C37.6842 33.1101 38.4312 33.5406 39.3276 34.1149C39.9252 34.402 40.2241 34.8325 40.3735 35.1196C40.5228 35.4068 40.5228 35.9809 40.5228 36.5551C40.5228 36.8421 40.5228 36.9857 40.3735 37.1292C40.2241 37.2728 40.0746 37.2728 39.9252 37.2728C39.6265 37.2728 39.4771 37.1292 39.4771 36.9857C39.4771 36.8421 39.1782 36.4114 39.1782 35.5502V34.8325H36.0408V35.4068C36.0408 36.8421 36.3396 37.7033 36.9372 38.2776C37.5348 38.8517 38.2818 39.1388 39.1782 39.2822V40.4307H40.6722V39.2822C41.7181 39.1388 42.6145 38.7081 43.2121 38.134C43.8096 37.5599 43.9591 36.6985 43.9591 35.5502C43.9591 34.8325 43.8096 34.2584 43.6604 33.8277C43.5109 33.3972 43.2121 32.9665 42.9132 32.8231C42.6145 32.536 42.0169 32.2487 41.2699 31.6746C40.3735 31.1005 39.7758 30.6698 39.4771 30.5264C39.3276 30.3827 39.1782 29.9522 39.1782 29.5216C39.1782 29.2345 39.1782 28.9474 39.3276 28.8038C39.4771 28.6604 39.6265 28.5167 39.7758 28.5167C40.0746 28.5167 40.2241 28.6604 40.2241 28.8038C40.2241 28.9474 40.3735 29.3779 40.3735 29.8086V30.3827H43.6604V30.5264Z" fill="white"/>
</svg>
