<svg width="80" height="80" viewBox="0 0 80 80" fill="none" xmlns="http://www.w3.org/2000/svg">
<path fill-rule="evenodd" clip-rule="evenodd" d="M29.1094 35.2305H16.3741V33.45H29.1094V35.2305ZM22.7353 30.7918H16.3741V29.0111H22.7353V30.7918ZM48.2188 23.6821H44.582V21.9143H48.2188V23.6821ZM53.6804 23.6821H50.0306V21.9143H53.6804V23.6821ZM59.1292 23.6821H55.4923V21.9143H59.1292V23.6821ZM32.7461 50.391H15.4616V48.6105H32.7461V50.391ZM37.2953 50.391H35.4704V48.6105H37.2953V50.391ZM37.2953 45.062V40.6232V40.5596C37.3025 40.4492 37.2871 40.3388 37.2503 40.2343C37.2135 40.1298 37.1559 40.0335 37.0808 39.9507C37.0057 39.868 36.9145 39.8005 36.8127 39.7522C36.7108 39.7039 36.6002 39.6758 36.4872 39.6692H16.2699C16.1568 39.6758 16.0461 39.7039 15.9443 39.7522C15.8424 39.8005 15.7514 39.868 15.6763 39.9507C15.6013 40.0335 15.5436 40.1298 15.5067 40.2343C15.47 40.3388 15.4546 40.4492 15.4616 40.5596V45.062C15.4508 45.2838 15.5293 45.5011 15.6803 45.6674C15.8313 45.8338 16.0428 45.9359 16.2699 45.9523H36.4872C36.7144 45.9359 36.9258 45.8338 37.0768 45.6674C37.2277 45.5011 37.3062 45.2838 37.2953 45.062ZM17.078 41.5007H35.679V44.1716H17.078V41.5007ZM10.9125 53.9395H38.9509V52.0953H11.8249V29.3801L23.1133 18.3658H62.7789V33.8952H64.5908V17.4755C64.5908 17.3586 64.5672 17.2428 64.5213 17.1348C64.4755 17.0268 64.4083 16.9286 64.3236 16.846C64.2389 16.7633 64.1382 16.6977 64.0275 16.653C63.9168 16.6082 63.7982 16.5852 63.6784 16.5852H10.9125C10.6705 16.5852 10.4384 16.679 10.2673 16.846C10.0961 17.0129 10 17.2394 10 17.4755V53.0492C10 53.2852 10.0961 53.5118 10.2673 53.6787C10.4384 53.8457 10.6705 53.9395 10.9125 53.9395ZM15.0836 18.3658L11.8249 21.5455V18.3658H15.0836ZM20.5454 18.3658L11.8249 26.8745V24.051L17.6515 18.3658H20.5454ZM63.4441 42.0857V46.321H68.6965V37.3798H40.3061V46.321H45.6252V42.0857H41.2964V40.8139H45.6252H63.4441H67.6925V42.0857H63.4441ZM62.1407 42.0857H46.9287L46.994 62.1428H62.1407V42.0857ZM70 47.5929H63.4441V63.4147H45.6252V47.5929H39.0026V36.1079H70V47.5929ZM54.5014 61.7867C54.3252 61.7864 54.1564 61.7177 54.032 61.596L48.6747 56.3686C48.5859 56.2797 48.5252 56.1676 48.4997 56.0458C48.4743 55.924 48.4852 55.7978 48.5313 55.6819C48.5811 55.5638 48.6661 55.4629 48.7753 55.3925C48.8846 55.3223 49.0131 55.2857 49.1439 55.2876H50.4474V50.9251C50.4474 50.7564 50.5162 50.5947 50.6384 50.4754C50.7606 50.3562 50.9264 50.2891 51.0992 50.2891H57.9817C58.1545 50.2891 58.3203 50.3562 58.4425 50.4754C58.5649 50.5947 58.6335 50.7564 58.6335 50.9251V55.2749H59.937C60.0646 55.2766 60.1888 55.3148 60.2943 55.3848C60.3998 55.4549 60.4819 55.5535 60.5305 55.6685C60.5791 55.7837 60.592 55.9101 60.5675 56.0323C60.5431 56.1545 60.4825 56.2671 60.3932 56.3559L55.0358 61.5833C54.9685 61.6547 54.8854 61.7101 54.7927 61.7454C54.7001 61.7807 54.6004 61.7949 54.5014 61.7867ZM50.7082 56.5595L54.5014 60.2477L58.2815 56.5595H57.9426C57.7698 56.5595 57.604 56.4924 57.4818 56.3732C57.3596 56.2539 57.2908 56.0922 57.2908 55.9235V51.5737H51.7118V55.9235C51.7086 56.0912 51.6388 56.251 51.5173 56.3695C51.3958 56.4882 51.2319 56.5561 51.0601 56.5595H50.7082ZM54.684 44.8459V45.062H56.1048V44.8204C56.1244 44.4911 56.0122 44.1674 55.7919 43.9173C55.5446 43.6762 55.2155 43.5314 54.8665 43.5103V43.0906H54.2407V43.5103C53.8644 43.5301 53.5061 43.6735 53.2241 43.9173C53.1086 44.0408 53.0193 44.1851 52.9612 44.3423C52.903 44.4995 52.8772 44.6662 52.8851 44.8331C52.8785 45.0834 52.9321 45.3316 53.0416 45.558C53.1281 45.7488 53.2573 45.9183 53.4196 46.0541C53.6877 46.2543 53.9662 46.4411 54.2537 46.6137C54.4421 46.6999 54.5973 46.8424 54.697 47.0207C54.7242 47.2318 54.7242 47.4455 54.697 47.6567C54.7065 47.7502 54.6835 47.8443 54.6319 47.9237C54.6089 47.9527 54.5792 47.976 54.5451 47.9915C54.5111 48.0069 54.4738 48.0142 54.4362 48.0127C54.3925 48.014 54.3494 48.0026 54.3123 47.9799C54.2751 47.9573 54.2457 47.9245 54.2277 47.8855C54.2048 47.6656 54.2048 47.444 54.2277 47.2242V46.9062H52.9242V47.1606C52.891 47.3523 52.8992 47.5485 52.9481 47.737C52.9969 47.9253 53.0855 48.1018 53.2081 48.2549C53.3307 48.4081 53.4847 48.5347 53.6603 48.6265C53.8359 48.7184 54.0291 48.7735 54.2277 48.7885V49.2973H54.8534V48.8012C55.249 48.7706 55.6176 48.593 55.8831 48.3053C56.1358 47.996 56.2612 47.606 56.235 47.2115C56.2393 46.9639 56.1951 46.7179 56.1048 46.4865C56.0316 46.3156 55.9254 46.1602 55.7919 46.0286C55.568 45.8608 55.3329 45.7078 55.088 45.5707C54.8343 45.4317 54.5943 45.2698 54.3711 45.0875C54.2739 44.9643 54.2274 44.81 54.2407 44.655C54.2356 44.5617 54.2583 44.4689 54.306 44.388C54.3244 44.3568 54.351 44.3309 54.3831 44.313C54.4151 44.2952 54.4514 44.2858 54.4885 44.2863C54.5294 44.2808 54.5713 44.2892 54.6067 44.31C54.6423 44.3307 54.6695 44.3628 54.684 44.4007C54.7148 44.5475 54.7148 44.6989 54.684 44.8459Z" fill="white"/>
</svg>
