<svg width="81" height="80" viewBox="0 0 81 80" fill="none" xmlns="http://www.w3.org/2000/svg">
<path d="M51.2577 60.5275L43.1724 52.3476C42.6709 51.8318 42.3903 51.1406 42.3903 50.4212C42.3903 49.7016 42.6709 49.0104 43.1724 48.4945C43.4211 48.2396 43.7183 48.037 44.0465 47.8987C44.3746 47.7602 44.7271 47.689 45.0833 47.689C45.4394 47.689 45.7919 47.7602 46.12 47.8987C46.4482 48.037 46.7454 48.2396 46.9941 48.4945L51.2577 52.8055C51.5063 53.0605 51.8035 53.2631 52.1316 53.4016C52.4598 53.54 52.8122 53.6112 53.1685 53.6112C53.5246 53.6112 53.8771 53.54 54.2052 53.4016C54.5335 53.2631 54.8305 53.0605 55.0791 52.8055L65.8963 41.8621C66.1471 41.611 66.4449 41.4117 66.7728 41.2758C67.1006 41.14 67.4521 41.07 67.8069 41.07C68.1619 41.07 68.5134 41.14 68.8413 41.2758C69.1691 41.4117 69.4669 41.611 69.7177 41.8621C70.2194 42.378 70.5 43.0692 70.5 43.7888C70.5 44.5083 70.2194 45.1994 69.7177 45.7152L55.0791 60.5275C54.8283 60.7787 54.5305 60.978 54.2027 61.114C53.8748 61.25 53.5233 61.3197 53.1685 61.3197C52.8135 61.3197 52.462 61.25 52.1342 61.114C51.8063 60.978 51.5085 60.7787 51.2577 60.5275ZM17.0852 38.6724H30.2551V36.7615H17.0852V38.6724ZM17.0852 33.935H23.7492V32.0083H17.164L17.0852 33.935ZM46.2677 26.3076H50.026V24.4126H46.2677V26.3076ZM51.905 26.3076H55.6793V24.4126H51.905V26.3076ZM57.5585 26.3076H61.3168V24.4126H57.5585V26.3076ZM16.1376 54.8743H34.0294V52.9636H16.1376V54.8743ZM36.8559 54.8743H38.735V52.9636H36.8559V54.8743ZM38.735 44.4047V49.1421C38.7481 49.3783 38.6676 49.6101 38.511 49.7875C38.3543 49.9646 38.1342 50.0733 37.8981 50.0894H16.9745C16.7386 50.0733 16.5185 49.9646 16.3618 49.7875C16.2052 49.6101 16.1246 49.3783 16.1376 49.1421V44.4047C16.1291 44.2864 16.1439 44.1675 16.1815 44.055C16.2189 43.9425 16.2781 43.8385 16.356 43.749C16.4337 43.6595 16.5284 43.5862 16.6345 43.5335C16.7407 43.4806 16.8563 43.4493 16.9745 43.4412H37.9614C38.0797 43.4493 38.1953 43.4806 38.3014 43.5335C38.4075 43.5862 38.5023 43.6595 38.58 43.749C38.6578 43.8385 38.7172 43.9425 38.7546 44.055C38.792 44.1675 38.8069 44.2864 38.7984 44.4047H38.735ZM37.1245 45.352H17.8115V48.2102H37.0611L37.1245 45.352ZM42.446 58.6799H11.4319C11.3081 58.6801 11.1857 58.6554 11.0716 58.6076C10.9575 58.5597 10.8541 58.4898 10.7674 58.4015C10.6807 58.3134 10.6124 58.2087 10.5665 58.0939C10.5206 57.9791 10.498 57.8562 10.5001 57.7326V19.6437C10.498 19.5192 10.5205 19.3957 10.5662 19.2799C10.6119 19.1642 10.6799 19.0585 10.7664 18.9691C10.853 18.8796 10.9563 18.8081 11.0704 18.7586C11.1846 18.7091 11.3075 18.6825 11.4319 18.6804H66.0225C66.1484 18.6804 66.273 18.7054 66.3889 18.7541C66.5049 18.8027 66.61 18.8738 66.6982 18.9635C66.7863 19.0532 66.8558 19.1595 66.9026 19.2763C66.9493 19.393 66.9722 19.5179 66.97 19.6437V36.7615H65.0752V20.5912H24.0176L12.3319 32.4031V56.8007H42.3355L42.446 58.6799ZM12.4424 24.0179L15.8219 20.6071H12.3792L12.4424 24.0179ZM12.4424 29.7343L21.4593 20.6071H18.4749L12.4424 26.7024V29.7343Z" fill="white"/>
</svg>
