<svg width="81" height="80" viewBox="0 0 81 80" fill="none" xmlns="http://www.w3.org/2000/svg">
<path d="M51.0228 36.7915H11.1837C11.0009 36.7955 10.827 36.8709 10.6992 37.0015C10.5715 37.1324 10.5 37.308 10.5 37.4907V64.9617C10.5 65.143 10.572 65.3169 10.7002 65.4451C10.8284 65.5732 11.0023 65.6453 11.1837 65.6453H51.0228C51.1126 65.6453 51.2015 65.6276 51.2844 65.5933C51.3674 65.559 51.4428 65.5085 51.5062 65.4451C51.5697 65.3815 51.62 65.3063 51.6544 65.2233C51.6889 65.1404 51.7064 65.0515 51.7064 64.9617V37.4907C51.7064 37.308 51.635 37.1324 51.5072 37.0015C51.3794 36.8709 51.2055 36.7955 51.0228 36.7915ZM11.8673 38.1743H14.3378L11.8673 40.6293V38.1743ZM11.8673 42.5716L16.28 38.1743H18.4553L11.8673 44.7624V42.5716ZM50.3391 64.3246H11.8673V46.7047L20.3976 38.1743H50.277L50.3391 64.3246ZM15.3011 49.8899H24.9191V51.2728H15.3011V49.8899ZM15.3011 46.456H20.1179V47.8389H15.3011V46.456ZM36.6036 40.9712H39.4004V42.3385H36.6036V40.9712ZM40.7211 40.9712H43.4714V42.3385H40.7211V40.9712ZM44.8387 40.9712H47.5889V42.3385H44.8387V40.9712ZM14.6175 61.5744H27.6693V62.9418H14.6175V61.5744ZM29.0366 61.5744H30.4195V62.9418H29.0366V61.5744ZM31.7869 61.5744H33.1853V62.9418H31.8024L31.7869 61.5744ZM32.4705 54.7067H15.3788C15.289 54.7067 15.2002 54.7244 15.1173 54.7587C15.0344 54.7931 14.959 54.8434 14.8955 54.907C14.8319 54.9703 14.7816 55.0457 14.7472 55.1287C14.7129 55.2116 14.6952 55.3005 14.6952 55.3903V58.8242C14.6952 58.914 14.7129 59.0029 14.7472 59.0859C14.7816 59.1688 14.8319 59.2442 14.8955 59.3076C14.959 59.3711 15.0344 59.4215 15.1173 59.4558C15.2002 59.4902 15.289 59.5079 15.3788 59.5079H32.4705C32.5616 59.5099 32.6522 59.4937 32.7368 59.4603C32.8217 59.4269 32.8989 59.3769 32.964 59.3132C33.0291 59.2495 33.0809 59.1733 33.1163 59.0894C33.1515 59.0055 33.1697 58.9153 33.1697 58.8242V55.3903C33.1657 55.2076 33.0903 55.0337 32.9595 54.906C32.8288 54.7781 32.6532 54.7065 32.4705 54.7067ZM31.7869 58.1405H15.9848V56.074H31.7869V58.1405ZM70.4762 48.3983C70.6687 51.6659 69.6878 54.895 67.7105 57.5035C65.5184 59.8584 62.5264 61.3101 59.32 61.5744V65.6453H54.3168V61.4501C53.9145 61.4055 53.515 61.3381 53.1204 61.2481V45.9122H54.3168V48.5692C54.2349 50.3839 54.3496 52.202 54.6586 53.9919C54.7668 54.3136 54.9772 54.5909 55.2578 54.7817C55.5382 54.9725 55.8737 55.0662 56.2124 55.0485C56.5254 55.0675 56.8383 55.0111 57.125 54.8841C57.4116 54.757 57.6635 54.5628 57.8594 54.3182C58.2563 53.6594 58.4407 52.8945 58.3877 52.1274C58.4594 50.3727 58.2922 48.6163 57.8905 46.9066C57.1262 45.4148 55.8998 44.2102 54.3945 43.4728C53.9284 43.1775 53.4778 42.9134 53.0582 42.6337V34.8648H44.5901C43.6967 32.9935 43.2498 30.9405 43.2849 28.8671C43.206 27.4759 43.4089 26.0829 43.8816 24.772C44.3541 23.461 45.0867 22.259 46.0351 21.238C48.3161 19.1949 51.2277 17.9941 54.2857 17.8352V14.3547H59.3045V17.8352C62.1328 18.0153 64.8021 19.2065 66.8248 21.1914C68.573 23.3007 69.4608 25.9919 69.3109 28.7273C69.3109 29.1624 69.3109 29.846 69.2176 30.7628H58.3411V28.8205C58.4225 27.5612 58.302 26.297 57.9837 25.0759C57.85 24.7833 57.6286 24.5394 57.3503 24.3781C57.072 24.2167 56.7505 24.1455 56.43 24.1747C56.1231 24.1348 55.8112 24.1873 55.5344 24.3257C55.2576 24.464 55.0284 24.682 54.8762 24.9516C54.4894 25.6531 54.3166 26.4526 54.379 27.2512C54.2472 28.5228 54.6086 29.7966 55.3889 30.8094C57.2196 32.3066 59.1798 33.6377 61.2467 34.7871C63.2163 35.9161 65.0967 37.1937 66.8714 38.6094C67.983 39.6635 68.8525 40.9465 69.4196 42.3696C70.1449 44.3051 70.4879 46.3631 70.4296 48.4294" fill="white"/>
</svg>
