<svg width="81" height="80" viewBox="0 0 81 80" fill="none" xmlns="http://www.w3.org/2000/svg">
<path fill-rule="evenodd" clip-rule="evenodd" d="M31.2692 10H61.1688C64.1789 10 66.7876 12.6088 66.7876 15.6188V64.3815C66.7876 67.3915 64.1789 70 61.1688 70H31.2692C28.2591 70 25.6504 67.3915 25.6504 64.3815V52.7425H29.4631V56.7558H63.1755V23.0435H29.4631V26.455H25.6504V15.6188C25.6504 12.6088 28.2591 10 31.2692 10ZM61.1688 65.9866C62.1722 65.9866 62.9748 65.1839 62.9748 64.1806H63.1755V60.3681H29.4631V64.1806C29.4631 65.1839 30.2658 65.9866 31.2692 65.9866H61.1688ZM29.2625 19.4316H62.7742V15.6188C62.7742 14.6155 61.9715 13.8127 60.9682 13.8127H31.0685C30.0651 13.8127 29.2625 14.6155 29.2625 15.6188V19.4316ZM53.9447 34.2811V33.2778C53.9447 31.6724 53.5434 30.4684 52.7407 29.4651C51.9381 28.4617 50.5334 28.0602 48.928 27.8595V26.0535H46.3193V27.8595C44.5133 28.0602 43.1086 28.6622 42.1053 29.6655C41.1019 30.6689 40.7006 31.8731 40.7006 33.4785C40.7006 34.6825 40.9013 35.6858 41.3026 36.4885C41.7039 37.4918 42.3059 38.0938 42.908 38.4952L42.9108 38.497L42.9108 38.4971C43.5137 38.899 44.7165 39.7009 46.3193 40.903C47.3227 41.505 47.9247 42.107 48.1253 42.709C48.326 43.311 48.326 44.1139 48.326 45.3179C48.326 45.7193 48.326 46.1206 48.1253 46.5219C47.9247 46.7226 47.724 46.9231 47.3227 46.9231C46.9213 46.9231 46.52 46.7226 46.52 46.3213C46.3193 45.9199 46.3193 45.1173 46.3193 43.5119V42.107H40.9013V43.1104C40.9013 45.5184 41.5033 47.3246 42.5066 48.328C43.51 49.3313 44.9146 49.9331 46.3193 49.9331V52.1405H48.928V50.1338C50.734 49.9331 52.3394 49.1304 53.1421 48.1271C54.1454 46.9231 54.5467 45.5186 54.5467 43.5119C54.5467 42.3079 54.3461 41.3045 53.9447 40.5019C53.5434 39.6992 53.1421 39.0972 52.7407 38.4952C52.3687 38.2471 51.9199 37.9224 51.2998 37.4737C50.9166 37.1964 50.4679 36.8717 49.9314 36.4885C49.7205 36.3567 49.5199 36.2318 49.3298 36.1134L49.3294 36.1131C48.0726 35.3303 47.2699 34.8304 46.9213 34.4818C46.52 34.0805 46.3193 33.4783 46.3193 32.6756C46.3193 32.0736 46.3193 31.6724 46.52 31.4718L46.5203 31.4715C46.7209 31.2709 46.9215 31.0702 47.3227 31.0702C47.7238 31.0702 47.9245 31.2709 48.125 31.4715L48.1253 31.4718C48.326 31.6724 48.326 32.4751 48.326 33.2778V34.2811H53.9447ZM27.8574 37.8929H17.824V33.2777C17.824 31.0704 19.63 29.2644 21.8373 29.2644C24.0447 29.2644 25.8507 31.0704 25.8507 33.2777V35.0836C25.8507 35.6856 26.252 36.0869 26.8541 36.0869C27.4561 36.0869 27.8574 35.6856 27.8574 35.0836V33.2777C27.8574 30.067 25.2487 27.4583 22.038 27.4583C18.8273 27.4583 16.2186 30.067 16.2186 33.2777V37.8929H15.8173C15.0146 37.8929 14.2119 38.4951 14.2119 39.4985V49.3312C14.2119 50.1339 14.8139 50.9364 15.8173 50.9364H28.0581C28.8607 50.9364 29.6634 50.3346 29.6634 49.3312V39.4985C29.4628 38.4951 28.6601 37.8929 27.8574 37.8929ZM19.8306 42.9096C19.8306 41.9063 20.6333 41.1036 21.6367 41.1036C22.64 41.1036 23.4427 41.9063 23.4427 42.9096C23.4427 43.5117 23.0413 44.1139 22.4393 44.5152V47.1237H20.6333V44.5152C20.232 44.3145 19.8306 43.7123 19.8306 42.9096Z" fill="white"/>
</svg>
