<svg width="81" height="80" viewBox="0 0 81 80" fill="none" xmlns="http://www.w3.org/2000/svg">
<path fill-rule="evenodd" clip-rule="evenodd" d="M23.7232 23.6999C23.29 24.1201 22.709 24.3531 22.1056 24.3484C21.5023 24.3531 20.9212 24.1201 20.4882 23.6999C20.0551 23.2796 19.8048 22.7058 19.7913 22.1025V13.1369C19.7913 12.5231 20.0352 11.9344 20.4693 11.5004C20.9032 11.0664 21.4919 10.8226 22.1056 10.8226C22.7195 10.8226 23.3082 11.0664 23.742 11.5004C24.1761 11.9344 24.42 12.5231 24.42 13.1369V22.1025C24.4065 22.7058 24.1562 23.2796 23.7232 23.6999ZM59.0314 24.3484C59.6346 24.3531 60.2158 24.1201 60.6488 23.6999C61.0818 23.2796 61.3321 22.7058 61.3456 22.1025V13.1369C61.3456 12.5231 61.1017 11.9344 60.6678 11.5004C60.2338 11.0664 59.6451 10.8226 59.0314 10.8226C58.4175 10.8226 57.8288 11.0664 57.3949 11.5004C56.9608 11.9344 56.7171 12.5231 56.7171 13.1369V22.1025C56.7304 22.7058 56.9807 23.2796 57.4139 23.6999C57.847 24.1201 58.4279 24.3531 59.0314 24.3484ZM29.0311 51.2456H19.808V60.2113H29.0311V51.2456ZM19.7913 46.754H29.0315V37.7883H19.7913V46.754ZM28.5686 46.3083H20.2543V38.234H28.5686V46.3083ZM45.1792 46.754H35.9565V37.7883H45.1792V46.754ZM36.4193 46.3083H44.7165V38.234H36.4193V46.3083ZM65.4943 19.8571H63.6429V21.9142C63.6537 23.0678 63.235 24.1841 62.4682 25.046C61.7013 25.908 60.6413 26.4536 59.4943 26.5771C58.8574 26.6564 58.211 26.6012 57.5971 26.4146C56.983 26.228 56.4151 25.9143 55.9301 25.494C55.4451 25.0738 55.0539 24.5561 54.7819 23.9748C54.51 23.3935 54.3633 22.7616 54.3514 22.1199V19.8742H26.7171V21.9142C26.7279 23.0678 26.3093 24.1841 25.5425 25.046C24.7757 25.908 23.7156 26.4536 22.5686 26.5771C21.9317 26.6564 21.2853 26.6012 20.6714 26.4146C20.0573 26.228 19.4894 25.9143 19.0044 25.494C18.5194 25.0738 18.1282 24.5561 17.8562 23.9748C17.5843 23.3935 17.4375 22.7616 17.4257 22.1199V19.8742H15.5057C14.8527 19.8698 14.2054 19.9939 13.6006 20.2395C12.9957 20.4852 12.445 20.8476 11.9803 21.3062C11.5154 21.7646 11.1456 22.31 10.8915 22.9116C10.6375 23.513 10.5045 24.1584 10.5 24.8112V64.2398C10.5045 64.8927 10.6375 65.5383 10.8915 66.1397C11.1456 66.7412 11.5154 67.2867 11.9803 67.7451C12.445 68.2037 12.9957 68.5661 13.6006 68.8118C14.2054 69.0574 14.8527 69.1815 15.5057 69.1769H65.8029C66.4107 69.186 67.0143 69.0754 67.5794 68.8512C68.1444 68.627 68.6599 68.2935 69.096 67.8701C69.5321 67.4467 69.8806 66.9415 70.1215 66.3833C70.3625 65.8251 70.4911 65.225 70.5 64.6171V24.7942C70.4955 24.1414 70.3625 23.4958 70.1085 22.8944C69.8544 22.2929 69.4845 21.7474 69.0197 21.2888C68.5548 20.8304 68.0043 20.468 67.3994 20.2224C66.8156 19.9851 66.192 19.8614 65.5623 19.8571C65.5396 19.8569 65.517 19.8569 65.4943 19.8571ZM15.5743 64.7714C15.4635 64.7626 15.3607 64.7112 15.2871 64.628C15.2136 64.5449 15.1752 64.4366 15.18 64.3256V33.4685H65.9571V64.7714H15.5743ZM35.9565 51.2456H45.1965V60.2113H35.9565V51.2456ZM61.3462 37.7883H52.1233V46.754H61.3462V37.7883ZM52.1233 51.2456H61.3462V60.2113H52.1233V51.2456ZM24.4199 39.1941L25.4656 41.2168L27.7626 41.5429L26.0999 43.137L26.4942 45.3657L24.4199 44.3199L22.3627 45.3657L22.757 43.137L21.077 41.5429L23.3913 41.2168L24.4199 39.1941ZM41.614 41.2168L40.5683 39.1941L39.5399 41.2168L37.2254 41.5429L38.9053 43.137L38.5112 45.3657L40.5683 44.3199L42.6426 45.3657L42.2483 43.137L43.9283 41.5429L41.614 41.2168Z" fill="white"/>
</svg>
