<svg width="81" height="80" viewBox="0 0 81 80" fill="none" xmlns="http://www.w3.org/2000/svg">
<path fill-rule="evenodd" clip-rule="evenodd" d="M18.925 12.2399V20.8187C18.925 21.383 19.149 21.9242 19.5481 22.3233C19.947 22.7222 20.4882 22.9462 21.0525 22.9462C21.6168 22.9462 22.158 22.7222 22.5569 22.3233C22.956 21.9242 23.1801 21.383 23.1801 20.8187V12.2399C23.1801 11.6757 22.956 11.1345 22.5569 10.7355C22.158 10.3365 21.6168 10.1124 21.0525 10.1124C20.4882 10.1124 19.947 10.3365 19.5481 10.7355C19.149 11.1345 18.925 11.6757 18.925 12.2399ZM55.7784 22.8153C55.5179 22.9245 55.2384 22.9807 54.9562 22.9807C54.6753 22.9785 54.3977 22.9207 54.1393 22.8105C53.8809 22.7006 53.6467 22.5403 53.4506 22.3394C53.2543 22.1383 53.0999 21.9005 52.9961 21.6395C52.8923 21.3785 52.8411 21.0996 52.8458 20.8187V12.2399C52.8192 11.9456 52.8543 11.649 52.9487 11.369C53.0432 11.089 53.1949 10.8319 53.3943 10.6138C53.5935 10.3957 53.8361 10.2215 54.1065 10.1023C54.3769 9.98313 54.6693 9.92157 54.9647 9.92157C55.2602 9.92157 55.5524 9.98313 55.8228 10.1023C56.0932 10.2215 56.3358 10.3957 56.5352 10.6138C56.7346 10.8319 56.8862 11.089 56.9806 11.369C57.0751 11.649 57.1101 11.9456 57.0837 12.2399V20.8187C57.0882 21.1011 57.0365 21.3815 56.9317 21.6436C56.8267 21.9056 56.6709 22.1441 56.4729 22.3454C56.2749 22.5466 56.0386 22.7064 55.7784 22.8153ZM18.9078 35.9005H27.4009V44.4794H18.9078V35.9005ZM27.4009 57.4333H18.9078V48.8544H27.4009V57.4333ZM40.1147 44.5137H31.6388L31.656 35.9348H40.1147V44.5137ZM40.1147 57.4333H31.6388L31.656 48.8544H40.1147V57.4333ZM14.6698 31.5939V61.3109H14.687C14.6818 61.4147 14.7162 61.5166 14.7829 61.5962C14.8498 61.6757 14.9442 61.727 15.0473 61.7398H40.1834V66.0464H15.0988C14.4859 66.0375 13.8808 65.908 13.318 65.665C12.755 65.4222 12.2456 65.071 11.8187 64.6313C11.3917 64.1915 11.0554 63.672 10.8293 63.1023C10.6031 62.5327 10.4914 61.9238 10.5005 61.3109V23.4097C10.4914 22.7966 10.6031 22.1881 10.8293 21.6184C11.0554 21.0488 11.3917 20.5291 11.8187 20.0893C12.2456 19.6496 12.755 19.2983 13.318 19.0554C13.8808 18.8126 14.4859 18.683 15.0988 18.674H16.8146V20.8187C16.8146 21.9427 17.261 23.0207 18.0557 23.8155C18.8505 24.6102 19.9285 25.0566 21.0525 25.0566C22.1765 25.0566 23.2544 24.6102 24.0491 23.8155C24.8438 23.0207 25.2905 21.9427 25.2905 20.8187V18.674H50.7868V20.8187C50.7868 21.9427 51.2333 23.0207 52.0282 23.8155C52.8229 24.6102 53.9008 25.0566 55.0248 25.0566C56.1488 25.0566 57.2266 24.6102 58.0216 23.8155C58.8163 23.0207 59.2627 21.9427 59.2627 20.8187V18.6397H60.9785C61.5914 18.6487 62.1965 18.7783 62.7593 19.0211C63.3221 19.2639 63.8315 19.6153 64.2586 20.055C64.6856 20.4948 65.0217 21.0145 65.248 21.5841C65.4742 22.1537 65.5859 22.7623 65.5768 23.3752V40.1728H61.3388V31.5939H14.6698ZM62.8991 49.6438H68.6813C69.1668 49.6527 69.6292 49.8519 69.9695 50.1983C70.3095 50.5449 70.5002 51.0111 70.5 51.4966V56.1464C70.5002 56.3892 70.4048 56.6223 70.2347 56.7956C70.0647 56.9689 69.8334 57.0684 69.5906 57.0729H68.6813V68.2083C68.6835 68.4517 68.6379 68.6931 68.5469 68.9188C68.4558 69.1444 68.3211 69.3499 68.1508 69.5236C67.9802 69.6974 67.7772 69.8358 67.5533 69.9311C67.3293 70.0263 67.0889 70.0762 66.8454 70.0785H44.9178C44.6745 70.0762 44.434 70.0263 44.2101 69.9311C43.986 69.8358 43.783 69.6974 43.6127 69.5236C43.4421 69.3499 43.3074 69.1444 43.2165 68.9188C43.1254 68.6931 43.0797 68.4517 43.082 68.2083V57.0729H42.1726C41.9298 57.0684 41.6987 56.9689 41.5287 56.7956C41.3585 56.6223 41.2633 56.3892 41.2633 56.1464V51.4966C41.2631 51.0111 41.4537 50.5449 41.7939 50.1983C42.134 49.8519 42.5964 49.6527 43.082 49.6438H48.8641C48.5014 49.402 48.1624 49.1261 47.8518 48.82C47.1401 48.0869 46.7421 47.1053 46.7421 46.0834C46.7421 45.0616 47.1401 44.0801 47.8518 43.3467C48.5669 42.6469 49.5278 42.2548 50.5284 42.2548C51.5291 42.2548 52.4899 42.6469 53.205 43.3467C53.9943 44.1703 56.1047 47.4476 55.813 49.6438H55.9503C55.6586 47.4476 57.7518 44.1703 58.5582 43.3467C59.2734 42.6469 60.2342 42.2548 61.2348 42.2548C62.2355 42.2548 63.1963 42.6469 63.9114 43.3467C64.6231 44.0801 65.0214 45.0616 65.0214 46.0834C65.0214 47.1053 64.6231 48.0869 63.9114 48.82C63.6009 49.1261 63.262 49.402 62.8991 49.6438ZM49.7742 44.2338C49.5355 44.3347 49.3193 44.4822 49.1386 44.668V44.6164C48.7756 45.0018 48.5733 45.511 48.5733 46.0405C48.5733 46.57 48.7756 47.0794 49.1386 47.4648C50.3966 48.5783 51.9426 49.3156 53.5997 49.5923C53.712 49.622 53.8304 49.622 53.9428 49.5923C54.3717 49.1462 53.1535 45.9206 51.9182 44.668C51.7375 44.4822 51.5215 44.3347 51.2827 44.2338C51.044 44.1331 50.7875 44.0809 50.5284 44.0809C50.2693 44.0809 50.0128 44.1331 49.7742 44.2338ZM44.9178 68.1568H54.9723V57.0214H44.9178V68.1568ZM43.082 55.1686H54.9723V51.4452H43.082V55.1686ZM61.2348 44.0509C60.7155 44.0509 60.2169 44.2539 59.8451 44.6164V44.668C58.6097 45.9206 57.3915 49.1462 57.8204 49.5923C57.9272 49.6215 58.0397 49.6215 58.1464 49.5923C59.8099 49.3195 61.3623 48.5819 62.6246 47.4648C62.9878 47.0794 63.19 46.57 63.19 46.0405C63.19 45.511 62.9878 45.0018 62.6246 44.6164C62.2528 44.2539 61.7542 44.0509 61.2348 44.0509ZM56.791 68.2083H66.8454V57.0729H56.791V68.2083ZM56.791 55.22H68.6813V51.4966H56.791V55.22Z" fill="white"/>
</svg>
