<svg width="80" height="80" viewBox="0 0 80 80" fill="none" xmlns="http://www.w3.org/2000/svg">
<path fill-rule="evenodd" clip-rule="evenodd" d="M55.3835 20.3688L62.2669 20.0855L62.3169 20.1355C62.8689 20.0892 63.4169 20.263 63.8414 20.619C64.266 20.9748 64.5327 21.484 64.5835 22.0355L64.7835 27.0355C64.7859 27.174 64.7602 27.3117 64.7082 27.44C64.6562 27.5685 64.579 27.6852 64.481 27.783C64.383 27.881 64.2664 27.9583 64.138 28.0103C64.0095 28.0623 63.872 28.0878 63.7335 28.0855H62.6502L63.1669 40.0523C63.1625 40.6063 62.9394 41.1362 62.5459 41.5263C62.1525 41.9165 61.6209 42.1357 61.0669 42.1357L34.9669 43.2355C34.4165 43.2817 33.8705 43.1075 33.4485 42.7513C33.0267 42.395 32.7635 41.8857 32.7169 41.3355L32.2002 29.3523H31.1169C30.8417 29.371 30.5702 29.2825 30.3589 29.1055C30.1475 28.9283 30.013 28.6763 29.9835 28.4022L29.7835 23.4022C29.7835 22.8497 30.003 22.3198 30.3937 21.9292C30.7844 21.5385 31.3144 21.3188 31.8669 21.3188L38.7502 21.0357C38.3065 20.794 37.8879 20.5093 37.5002 20.1857C37.071 19.8345 36.7209 19.3967 36.4727 18.9008C36.2245 18.4049 36.084 17.8622 36.0605 17.3082C36.0369 16.7542 36.1307 16.2015 36.3357 15.6863C36.5407 15.1711 36.8524 14.7052 37.2502 14.3189C38.1064 13.5182 39.2212 13.0511 40.3924 13.0021C41.5635 12.9532 42.7135 13.3257 43.6335 14.0522C44.5669 14.9188 47.2169 18.3522 46.9669 20.7188H47.1169C46.6835 18.3688 49.0335 14.7355 49.9335 13.8188C50.7897 13.0182 51.9045 12.551 53.0757 12.5021C54.247 12.4531 55.3969 12.8258 56.3169 13.5523C56.7465 13.9049 57.0969 14.3441 57.3452 14.8413C57.5934 15.3386 57.7339 15.8827 57.7575 16.438C57.7812 16.9933 57.6872 17.5473 57.482 18.0638C57.2769 18.5803 56.965 19.0479 56.5669 19.4357C56.1995 19.7797 55.8037 20.0918 55.3835 20.3688ZM40.5169 15.0523C39.8905 15.0559 39.2912 15.3075 38.8502 15.7522H38.8835C38.6777 15.9536 38.5165 16.1962 38.4107 16.4641C38.3049 16.732 38.2567 17.0192 38.2692 17.307C38.2817 17.5947 38.3549 17.8766 38.4837 18.1342C38.6125 18.3918 38.7942 18.6196 39.0169 18.8023C40.599 19.9657 42.4634 20.685 44.4169 20.8857C44.5552 20.8938 44.6932 20.865 44.8169 20.8022C45.3002 20.3022 43.7002 16.9022 42.1835 15.6022C41.7174 15.2151 41.1219 15.0187 40.5169 15.0523ZM34.9169 41.2523L46.8835 40.7522L46.3835 28.7857L34.4169 29.2855L34.9169 41.2523ZM32.1502 27.3688L46.2835 26.7855L46.1669 22.8522H44.5002L31.9835 23.3857L32.1502 27.3688ZM53.2585 14.4261C52.6454 14.4506 52.062 14.6968 51.6169 15.1188L51.6502 15.1689C50.2502 16.5856 48.9335 20.1022 49.4669 20.5522H49.8669C51.7955 20.183 53.594 19.3153 55.0835 18.0355C55.2894 17.8341 55.4505 17.5915 55.5564 17.3236C55.6622 17.0558 55.7104 16.7685 55.6979 16.4807C55.6852 16.193 55.6122 15.9111 55.4834 15.6535C55.3545 15.3959 55.1729 15.1683 54.9502 14.9856C54.4725 14.6004 53.8715 14.4016 53.2585 14.4261ZM49.0835 40.669L61.0502 40.1688L60.5502 28.1857L48.5835 28.6855L49.0835 40.669ZM48.5835 26.6857L62.7169 26.1023L62.6002 22.1855L50.0835 22.7023H48.4169L48.5835 26.6857ZM10 63.8352V43.702C10.0043 43.5757 10.0337 43.4515 10.0865 43.3368C10.1392 43.222 10.2143 43.119 10.3075 43.0337C10.4007 42.9483 10.5098 42.8823 10.6287 42.8397C10.7477 42.797 10.8738 42.7785 11 42.7852H21C21.1262 42.7785 21.2523 42.797 21.3712 42.8397C21.4902 42.8823 21.5993 42.9483 21.6925 43.0337C21.7855 43.119 21.8608 43.222 21.9135 43.3368C21.9663 43.4515 21.9957 43.5757 22 43.702V44.6187H29.8C30.7747 44.6183 31.7312 44.8832 32.5667 45.3853L40.3 50.1185H48.2833C48.9585 50.1055 49.6273 50.2493 50.2377 50.5385C50.8478 50.8277 51.3827 51.2545 51.8 51.7852C52.1215 52.2293 52.3392 52.7398 52.4372 53.2792C52.5353 53.8185 52.5112 54.373 52.3667 54.9018L64.7 51.3518C65.5605 51.0683 66.4893 51.0683 67.35 51.3518C68.0888 51.5533 68.7442 51.9853 69.2207 52.5849C69.6973 53.1843 69.9703 53.92 70 54.6852C69.9948 55.4165 69.765 56.1283 69.3417 56.7247C68.9183 57.3209 68.322 57.7725 67.6333 58.0185L45.8167 66.4853C44.0803 67.1648 42.2312 67.5098 40.3667 67.502H40.1167C38.6082 67.5048 37.108 67.28 35.6667 66.8353L22 62.3852V63.8352C21.987 64.0887 21.8748 64.327 21.6878 64.4985C21.5007 64.67 21.2537 64.761 21 64.752H11C10.7463 64.761 10.4993 64.67 10.3122 64.4985C10.1252 64.327 10.013 64.0887 10 63.8352ZM29.8 46.452H22V60.552L36.3167 65.2187C37.5473 65.5989 38.8285 65.79 40.1167 65.7854H40.3667C41.9682 65.7915 43.5568 65.4975 45.05 64.9185L66.85 56.452C67.198 56.339 67.4993 56.1145 67.7072 55.8133C67.915 55.5122 68.0178 55.1508 68 54.7853C67.9898 54.4002 67.8542 54.0287 67.6135 53.7278C67.3727 53.4268 67.0403 53.213 66.6667 53.1187C66.2392 52.9775 65.7775 52.9775 65.35 53.1187L50.9333 57.2353C50.5492 57.5663 50.109 57.826 49.6333 58.0019C49.4213 58.0784 49.204 58.1398 48.9833 58.1853H48.8333C48.5837 58.2027 48.333 58.2027 48.0833 58.1853H33.0833V56.3352H48.0833C48.2657 56.3617 48.451 56.3617 48.6333 56.3352H48.8167L49.1333 56.202L49.3333 56.102C49.4455 56.0338 49.5515 55.9557 49.65 55.8687H49.7333C49.873 55.738 49.991 55.5862 50.0833 55.4187L50.35 54.9185C50.5267 54.6 50.6078 54.2375 50.5843 53.874C50.5607 53.5107 50.433 53.1617 50.2167 52.8687C49.9985 52.581 49.716 52.3482 49.392 52.1892C49.0678 52.03 48.711 51.9487 48.35 51.9518H40.0167C39.823 51.9535 39.6327 51.9017 39.4667 51.802L31.4667 46.9187C30.9687 46.6037 30.3892 46.4413 29.8 46.452ZM19.6 45.5352H12.4V62.052H19.6V45.5352Z" fill="white"/>
</svg>
