<svg width="80" height="80" viewBox="0 0 80 80" fill="none" xmlns="http://www.w3.org/2000/svg">
<path d="M56.4238 69.9288C52.2438 68.5786 48.6852 65.7239 46.4087 61.8946C43.7073 57.1921 44.4339 44.4892 44.4658 43.9499L44.5034 43.3348L56.66 40.2224L68.8169 43.3348L68.8531 43.9499C68.8849 44.4892 69.6128 57.1919 66.9101 61.8961C64.6332 65.7245 61.0746 68.5788 56.8949 69.9288L56.66 70L56.4238 69.9288ZM46.0781 44.667L46.0663 44.9384C46.0142 46.1819 45.6227 57.201 47.8297 61.0424C49.8399 64.385 52.9192 66.9141 56.5456 68.2008L56.66 68.2393L56.7732 68.2008C60.3997 66.9146 63.4791 64.3854 65.4891 61.0424C67.6959 57.201 67.3045 46.1819 67.2523 44.9384L67.2407 44.667L56.6559 41.9581L46.0781 44.667ZM65.666 48.2879C65.5467 48.153 65.4023 48.0435 65.2415 47.9657C65.0805 47.8877 64.9063 47.843 64.7284 47.8341C64.5507 47.8252 64.3729 47.8521 64.2054 47.9134C64.038 47.9746 63.8838 48.0692 63.752 48.1914L56.16 55.2195C56.028 55.3418 55.874 55.4361 55.7065 55.4974C55.5389 55.5586 55.3611 55.5857 55.1834 55.5768C55.0057 55.5679 54.8313 55.523 54.6703 55.4452C54.5096 55.3674 54.3654 55.258 54.246 55.1231L50.9994 51.4594C50.7579 51.1873 50.4207 51.0243 50.0619 51.0063C49.7029 50.9883 49.3516 51.1166 49.0854 51.3632C48.9534 51.485 48.846 51.6323 48.7696 51.7968C48.6935 51.9611 48.6496 52.1392 48.6407 52.3211C48.6318 52.5028 48.6581 52.6844 48.7181 52.8557C48.7779 53.027 48.8702 53.1845 48.9898 53.3194L54.0558 59.0357C54.2971 59.308 54.6341 59.4712 54.9931 59.4894C55.352 59.5079 55.7034 59.38 55.97 59.1336L65.5717 50.2412C65.8369 49.9945 65.9958 49.6505 66.0134 49.2843C66.0312 48.9183 65.9063 48.5599 65.666 48.2879ZM19.0632 20.2532V12.0512C19.0632 11.5072 19.2749 10.9855 19.6512 10.6008C20.0276 10.2161 20.538 10 21.0701 10C21.6025 10 22.1129 10.2161 22.4892 10.6008C22.8656 10.9855 23.0768 11.5072 23.0768 12.0512V20.2532C23.0768 20.7971 22.8656 21.3189 22.4892 21.7035C22.1129 22.0881 21.6025 22.3041 21.0701 22.3041C20.538 22.3041 20.0276 22.0881 19.6512 21.7035C19.2749 21.3189 19.0632 20.7971 19.0632 20.2532ZM53.1672 22.3041C53.4308 22.3043 53.6917 22.2516 53.9354 22.1486C54.1789 22.0455 54.4001 21.8943 54.5865 21.7039C54.7729 21.5134 54.9209 21.2872 55.0216 21.0383C55.1224 20.7892 55.1739 20.5226 55.1737 20.2532V12.0512C55.1737 11.5074 54.9625 10.9859 54.5863 10.6014C54.2102 10.2168 53.7 10.0009 53.1678 10.0009C52.6359 10.0009 52.1255 10.2168 51.7494 10.6014C51.3732 10.9859 51.1618 11.5074 51.1618 12.0512V20.2532C51.1616 20.5223 51.2133 20.789 51.314 21.0379C51.4146 21.2868 51.5625 21.5128 51.7487 21.7033C51.9349 21.8939 52.1559 22.0449 52.3992 22.1479C52.6427 22.2512 52.9036 22.3041 53.1672 22.3041ZM27.0875 34.6054H19.0632V42.8072H27.0875V34.6054ZM19.0632 55.1097H27.0875V46.9066H19.0632V55.1097ZM31.0982 42.8086H39.1225V34.6068H31.0982V42.8086ZM31.0982 55.1097H39.1225V46.9066H31.0982V55.1097ZM15.0496 58.8017V30.5059H59.1831V38.7063H63.1953V22.7103C63.1998 22.1221 63.091 21.5386 62.8748 20.9937C62.6586 20.4485 62.3394 19.9523 61.9353 19.5334C61.5312 19.1144 61.0504 18.7811 60.5201 18.5525C59.9898 18.3237 59.4209 18.2041 58.8453 18.2003H57.1734V20.2515C57.1734 21.339 56.7507 22.3823 55.9982 23.1514C55.2459 23.9204 54.2253 24.3524 53.1612 24.3524C52.0971 24.3524 51.0767 23.9204 50.3243 23.1514C49.572 22.3823 49.1493 21.339 49.1493 20.2515V18.2003H25.0791V20.2515C25.0791 21.339 24.6565 22.3823 23.9042 23.1514C23.1517 23.9204 22.1313 24.3524 21.0672 24.3524C20.0031 24.3524 18.9825 23.9204 18.2303 23.1514C17.4778 22.3823 17.0551 21.339 17.0551 20.2515V18.2003H15.3846C14.8092 18.2043 14.2403 18.3241 13.7102 18.5529C13.1799 18.7817 12.6991 19.1148 12.2952 19.5338C11.8911 19.9526 11.5719 20.4487 11.3557 20.9937C11.1393 21.5388 11.0303 22.1221 11.0348 22.7103V58.8017C11.0269 59.9891 11.4807 61.131 12.2965 61.9768C13.112 62.8223 14.2229 63.3026 15.3846 63.3114H39.1225V59.2108H15.3846C15.2884 59.1992 15.1998 59.1501 15.1376 59.074C15.0753 58.9981 15.0438 58.9006 15.0496 58.8017Z" fill="white"/>
</svg>
