<svg width="80" height="80" viewBox="0 0 80 80" fill="none" xmlns="http://www.w3.org/2000/svg">
<path fill-rule="evenodd" clip-rule="evenodd" d="M15.0841 53.6727C21.3023 62.5818 31.775 67.9089 39.4841 69.8544L39.975 70L40.5568 69.8544C48.2659 67.9089 58.7387 62.6182 64.975 53.6727C71.0017 44.9341 69.938 22.5545 69.7315 18.2101C69.7137 17.8361 69.7023 17.5958 69.7023 17.5093L69.6114 16.2726L39.975 10L10.3387 16.2726V17.5093C10.338 17.5188 10.3373 17.5301 10.3364 17.5432C10.2356 19.0431 8.54139 44.2642 15.0841 53.6727ZM14.2659 19.4909V18.9453L40.1023 13.4908L65.9023 18.9453V19.4909C66.0296 22 67.0659 44.2002 61.6114 51.9456C54.9023 61.6184 43.6478 65.4364 40.3568 66.3636L40.0841 66.4547L39.8114 66.3636C36.5205 65.4364 25.2841 61.6184 18.5568 51.9456C13.175 44.2002 14.1387 22 14.2659 19.4909ZM43.9799 26.0666C45.4723 25.4099 47.0908 25.0892 48.7208 25.1274H48.7935C54.6299 25.1274 59.3754 29.1272 59.3754 34.0545C59.3692 35.5376 58.9403 36.9883 58.139 38.2363H60.6663C60.8152 38.2166 60.9665 38.2286 61.1103 38.2723C61.2539 38.3157 61.3866 38.3899 61.4995 38.4888C61.6125 38.5879 61.703 38.7094 61.765 38.8463C61.827 38.983 61.859 39.1316 61.859 39.2817C61.859 39.4317 61.827 39.5803 61.765 39.7172C61.703 39.8539 61.6125 39.9759 61.4995 40.0748C61.3866 40.1739 61.2539 40.2476 61.1103 40.291C60.9665 40.3347 60.8152 40.3466 60.6663 40.327H56.3208L41.0299 53.2181C40.7799 53.4417 40.4563 53.5652 40.1208 53.5652C39.7855 53.5652 39.4617 53.4417 39.2117 53.2181L23.8481 40.2725H19.539C19.3843 40.3014 19.2248 40.2961 19.0724 40.2565C18.9199 40.2168 18.7781 40.1441 18.6568 40.0434C18.5357 39.9426 18.4383 39.8163 18.3714 39.6736C18.3043 39.531 18.2695 39.3757 18.2695 39.2183C18.2695 39.0606 18.3043 38.905 18.3714 38.7623C18.4383 38.6197 18.5357 38.4937 18.6568 38.393C18.7781 38.2923 18.9199 38.2196 19.0724 38.1799C19.2248 38.1403 19.3843 38.1346 19.539 38.1636H22.0481C21.2826 36.929 20.8735 35.5068 20.8663 34.0545C20.8663 29.1272 25.6117 25.1274 31.4299 25.1274C33.0626 25.089 34.6839 25.4096 36.1792 26.0661C37.6746 26.7226 39.0077 27.6992 40.0844 28.927C41.1577 27.6996 42.4875 26.7232 43.9799 26.0666ZM27.4299 40.2725L40.1572 50.9999L52.7208 40.2725H47.7572C47.531 40.2806 47.3068 40.2277 47.1083 40.1188C46.9099 40.0101 46.7446 39.8497 46.6299 39.6545L45.1754 36.8363L41.1935 44.109C41.0699 44.3005 40.9004 44.4577 40.7003 44.5667C40.5001 44.6756 40.2759 44.7327 40.0481 44.7327C39.8203 44.7327 39.5961 44.6756 39.3961 44.5667C39.1959 44.4577 39.0263 44.3005 38.9026 44.109L35.1026 35.909L33.6299 39.5454C33.5244 39.7679 33.3566 39.9552 33.1468 40.0843C32.9372 40.2134 32.6944 40.2786 32.4481 40.2725H27.4299ZM48.6663 38.2726H55.1935V38.3274C56.2623 37.1952 56.8659 35.7023 56.8845 34.1454C56.8845 30.3817 53.2663 27.309 48.7935 27.309C47.2765 27.2836 45.7804 27.6665 44.4624 28.4183C43.1443 29.1701 42.053 30.263 41.3026 31.5819C41.2175 31.8174 41.0617 32.0205 40.8568 32.1643C40.6519 32.3081 40.4075 32.3854 40.1572 32.3854C39.9068 32.3854 39.6626 32.3081 39.4575 32.1643C39.2526 32.0205 39.097 31.8174 39.0117 31.5819C38.2615 30.259 37.1675 29.1634 35.8457 28.4112C34.5239 27.659 33.0232 27.2783 31.5026 27.309C27.0481 27.309 23.4117 30.3817 23.4117 34.1454C23.4266 35.671 24.0101 37.1363 25.0481 38.2545H31.5572L33.8481 32.527C33.9341 32.2874 34.0921 32.0805 34.3004 31.9339C34.5086 31.7874 34.7572 31.7085 35.0117 31.7085C35.2664 31.7085 35.5148 31.7874 35.7232 31.9339C35.9314 32.0805 36.0894 32.2874 36.1754 32.527L40.2481 41.2179L44.1572 33.9452C44.2786 33.7537 44.4464 33.5959 44.6452 33.4866C44.8437 33.3774 45.0668 33.3203 45.2935 33.3203C45.5203 33.3203 45.7434 33.3774 45.9421 33.4866C46.1408 33.5959 46.3086 33.7537 46.4299 33.9452L48.6663 38.2726Z" fill="white"/>
</svg>
