<svg width="81" height="81" viewBox="0 0 81 81" fill="none" xmlns="http://www.w3.org/2000/svg">
<mask id="mask0_730_20012" style="mask-type:luminance" maskUnits="userSpaceOnUse" x="10" y="14" width="61" height="53">
<path d="M70.5 14.8436H10.5V66.1564H70.5V14.8436Z" fill="white"/>
</mask>
<g mask="url(#mask0_730_20012)">
<path d="M48.8859 60.0577C49.0249 60.0599 49.1629 60.0344 49.2919 59.9826C49.421 59.9308 49.5383 59.854 49.6374 59.7564C49.7364 59.6589 49.815 59.5427 49.8687 59.4144C49.9224 59.2862 49.95 59.1487 49.95 59.0095V55.9444H51.1411C51.6128 55.9444 52.0652 55.757 52.3989 55.4235C52.7324 55.09 52.9198 54.6375 52.9198 54.1657V46.9079C52.9198 46.4362 52.7324 45.9838 52.3989 45.6502C52.0652 45.3166 51.6128 45.1292 51.1411 45.1292H49.95V41.7147C49.95 41.5757 49.9224 41.4382 49.8687 41.3099C49.815 41.1817 49.7364 41.0654 49.6374 40.9679C49.5383 40.8704 49.421 40.7935 49.2919 40.7418C49.1629 40.69 49.0249 40.6644 48.8859 40.6665C48.7478 40.6644 48.6104 40.69 48.4822 40.7419C48.3542 40.7939 48.2378 40.8711 48.14 40.9687C48.0423 41.0666 47.9651 41.183 47.9132 41.3111C47.8613 41.4393 47.8357 41.5765 47.8378 41.7147V45.1292H46.6308C46.1591 45.1292 45.7066 45.3166 45.373 45.6502C45.0395 45.9838 44.8521 46.4362 44.8521 46.9079V54.1657C44.8562 54.6363 45.045 55.0862 45.3776 55.4189C45.7103 55.7516 46.1604 55.9403 46.6308 55.9444H47.8378V59.0095C47.8357 59.1479 47.8613 59.2851 47.9132 59.4132C47.9651 59.5414 48.0423 59.6578 48.14 59.7555C48.2378 59.8533 48.3542 59.9305 48.4822 59.9824C48.6104 60.0342 48.7478 60.0599 48.8859 60.0577ZM46.6308 54.5469C46.5339 54.5469 46.441 54.5084 46.3725 54.44C46.3039 54.3714 46.2655 54.2785 46.2655 54.1816V46.9079C46.2634 46.8587 46.2712 46.8094 46.2887 46.7634C46.306 46.7172 46.3325 46.6749 46.3667 46.6393C46.4008 46.6038 46.4418 46.5753 46.4872 46.5561C46.5326 46.5367 46.5814 46.5267 46.6308 46.5267H51.1411C51.1905 46.5267 51.2392 46.5367 51.2847 46.5561C51.3301 46.5753 51.3711 46.6038 51.4052 46.6393C51.4393 46.6749 51.4659 46.7172 51.4833 46.7634C51.5006 46.8094 51.5086 46.8587 51.5064 46.9079V54.1657C51.5064 54.2626 51.4679 54.3555 51.3993 54.4241C51.3309 54.4925 51.238 54.531 51.1411 54.531L46.6308 54.5469Z" fill="white"/>
<path d="M59.0974 63.0114C59.3796 63.0114 59.6502 62.8993 59.8498 62.6996C60.0493 62.5002 60.1614 62.2296 60.1614 61.9473V58.8822H61.3208C61.7926 58.8822 62.2451 58.6948 62.5786 58.3612C62.9121 58.0276 63.0995 57.5752 63.0995 57.1035V37.617C63.0995 37.1452 62.9121 36.6927 62.5786 36.3592C62.2451 36.0257 61.7926 35.8383 61.3208 35.8383H60.1297V32.4397C60.1297 32.1575 60.0176 31.8868 59.8181 31.6872C59.6186 31.4877 59.3478 31.3756 59.0656 31.3756C58.9267 31.3756 58.7891 31.4032 58.6608 31.4568C58.5326 31.5104 58.4164 31.5891 58.3189 31.6882C58.2214 31.7871 58.1445 31.9046 58.0927 32.0336C58.0409 32.1627 58.0154 32.3007 58.0174 32.4397V35.8383H56.8105C56.3388 35.8383 55.8863 36.0257 55.5528 36.3592C55.2191 36.6927 55.0317 37.1452 55.0317 37.617V57.1035C55.0317 57.5752 55.2191 58.0276 55.5528 58.3612C55.8863 58.6948 56.3388 58.8822 56.8105 58.8822H58.0174V61.9473C58.0152 62.089 58.0419 62.2297 58.0956 62.3607C58.1493 62.4919 58.229 62.6109 58.3298 62.7103C58.4308 62.8097 58.5509 62.8877 58.6829 62.9395C58.8147 62.9912 58.9557 63.0157 59.0974 63.0114ZM56.8422 57.4688C56.7453 57.4688 56.6524 57.4302 56.584 57.3617C56.5155 57.2933 56.4769 57.2004 56.4769 57.1035V37.617C56.4769 37.5201 56.5155 37.4272 56.584 37.3586C56.6524 37.2902 56.7453 37.2517 56.8422 37.2517H61.3208C61.4177 37.2517 61.5106 37.2902 61.5792 37.3586C61.6476 37.4272 61.6861 37.5201 61.6861 37.617V57.1035C61.6861 57.1515 61.6767 57.199 61.6583 57.2433C61.64 57.2876 61.613 57.3278 61.5792 57.3617C61.5452 57.3957 61.505 57.4226 61.4607 57.441C61.4162 57.4593 61.3687 57.4688 61.3208 57.4688H56.8422Z" fill="white"/>
<path d="M28.4621 54.642C28.7443 54.642 29.0149 54.5299 29.2145 54.3302C29.414 54.1308 29.5261 53.8601 29.5261 53.5779V50.1475H30.7172C31.1891 50.1475 31.6414 49.9601 31.975 49.6265C32.3086 49.293 32.496 48.8405 32.496 48.3688V42.1433C32.496 41.9097 32.4499 41.6783 32.3606 41.4626C32.2712 41.2468 32.1402 41.0507 31.975 40.8855C31.8099 40.7203 31.6137 40.5893 31.3979 40.4999C31.1821 40.4105 30.9508 40.3646 30.7172 40.3646H29.5579V37.5059C29.5763 37.3563 29.5627 37.2045 29.518 37.0606C29.4734 36.9167 29.3986 36.784 29.2987 36.6711C29.199 36.5583 29.0762 36.4679 28.9388 36.406C28.8015 36.3441 28.6525 36.3121 28.5018 36.3121C28.3511 36.3121 28.2021 36.3441 28.0647 36.406C27.9273 36.4679 27.8047 36.5583 27.7048 36.6711C27.605 36.784 27.5303 36.9167 27.4855 37.0606C27.4409 37.2045 27.4272 37.3563 27.4457 37.5059V40.3646H26.2069C25.7365 40.3687 25.2865 40.5574 24.9538 40.8901C24.6211 41.2228 24.4324 41.6727 24.4282 42.1433V48.3688C24.4282 48.8405 24.6156 49.293 24.9492 49.6265C25.2828 49.9601 25.7352 50.1475 26.2069 50.1475H27.4139V53.5779C27.4139 53.8573 27.5238 54.1257 27.7199 54.3247C27.9161 54.5238 28.1827 54.6377 28.4621 54.642ZM26.2069 48.75C26.1086 48.7459 26.0157 48.7039 25.9476 48.6328C25.8795 48.5618 25.8416 48.4671 25.8417 48.3688V42.1433C25.8568 42.0577 25.9018 41.9804 25.9688 41.9251C26.0357 41.8698 26.1201 41.8401 26.2069 41.8416H30.7172C30.8141 41.8416 30.907 41.88 30.9756 41.9485C31.0441 42.0171 31.0825 42.11 31.0825 42.2068V48.4324C31.0847 48.4816 31.0768 48.5308 31.0595 48.577C31.042 48.6231 31.0155 48.6653 30.9813 48.7009C30.9472 48.7365 30.9062 48.7649 30.8608 48.7843C30.8154 48.8035 30.7666 48.8135 30.7172 48.8135L26.2069 48.75Z" fill="white"/>
<path d="M38.6737 55.4358C38.9559 55.4358 39.2265 55.3237 39.4262 55.124C39.6256 54.9246 39.7378 54.6539 39.7378 54.3717V51.3701H40.9289C41.4005 51.3701 41.853 51.1827 42.1867 50.8491C42.5202 50.5156 42.7076 50.0631 42.7076 49.5914V35.3775C42.7076 34.9057 42.5202 34.4534 42.1867 34.1197C41.853 33.7862 41.4005 33.5988 40.9289 33.5988H39.7378V30.1843C39.7061 29.9265 39.5812 29.6892 39.3866 29.5171C39.1921 29.345 38.9413 29.25 38.6816 29.25C38.4218 29.25 38.1712 29.345 37.9767 29.5171C37.7821 29.6892 37.6571 29.9265 37.6255 30.1843V33.5988H36.4185C35.9469 33.5988 35.4944 33.7862 35.1607 34.1197C34.8272 34.4534 34.6398 34.9057 34.6398 35.3775V49.5279C34.6312 49.7667 34.6709 50.005 34.7565 50.2281C34.8421 50.4512 34.9717 50.655 35.1379 50.8268C35.3038 50.9988 35.5028 51.1356 35.7228 51.2289C35.9429 51.3222 36.1795 51.3703 36.4185 51.3701H37.6255V54.4352C37.6416 54.7035 37.7585 54.9558 37.953 55.1415C38.1474 55.3271 38.4048 55.4323 38.6737 55.4358ZM36.4185 49.8932C36.3706 49.8932 36.3231 49.8836 36.2788 49.8654C36.2345 49.8469 36.1941 49.8201 36.1603 49.7861C36.1263 49.7523 36.0995 49.712 36.0811 49.6676C36.0626 49.6233 36.0533 49.5758 36.0533 49.5279V35.3775C36.0533 35.2807 36.0917 35.1878 36.1603 35.1193C36.2288 35.0507 36.3217 35.0123 36.4185 35.0123H40.9289C41.0257 35.0123 41.1186 35.0507 41.1871 35.1193C41.2557 35.1878 41.2941 35.2807 41.2941 35.3775V49.5279C41.2941 49.5758 41.2846 49.6233 41.2663 49.6676C41.2479 49.712 41.2211 49.7523 41.1871 49.7861C41.1533 49.8201 41.1129 49.8469 41.0686 49.8654C41.0243 49.8836 40.9768 49.8932 40.9289 49.8932H36.4185Z" fill="white"/>
<path d="M69.4839 64.0758H19.2669C19.2759 64.0072 19.2759 63.9377 19.2669 63.8693V59.0413H20.5057C20.9774 59.0413 21.4299 58.8539 21.7634 58.5203C22.097 58.1868 22.2844 57.7343 22.2844 57.2626V51.0371C22.2844 50.5653 22.097 50.1128 21.7634 49.7793C21.4299 49.4458 20.9774 49.2584 20.5057 49.2584H19.3146V46.3997C19.333 46.2501 19.3193 46.0983 19.2747 45.9544C19.23 45.8105 19.1553 45.6778 19.0554 45.5649C18.9556 45.4521 18.8329 45.3617 18.6955 45.2998C18.5581 45.2379 18.4092 45.2059 18.2585 45.2059C18.1078 45.2059 17.9588 45.2379 17.8214 45.2998C17.684 45.3617 17.5614 45.4521 17.4615 45.5649C17.3617 45.6778 17.2869 45.8105 17.2422 45.9544C17.1976 46.0983 17.184 46.2501 17.2024 46.3997V49.2584H16.0112C15.7777 49.2584 15.5464 49.3043 15.3306 49.3937C15.1148 49.4831 14.9187 49.6141 14.7535 49.7793C14.5883 49.9445 14.4573 50.1406 14.3679 50.3564C14.2785 50.5721 14.2325 50.8035 14.2325 51.0371V57.2626C14.2325 57.7343 14.4199 58.1868 14.7535 58.5203C15.0871 58.8539 15.5395 59.0413 16.0112 59.0413H17.2024V63.9011C17.1934 63.9695 17.1934 64.0389 17.2024 64.1075H11.5168C11.2671 64.1386 11.0374 64.26 10.8708 64.4485C10.7042 64.6372 10.6123 64.8802 10.6123 65.1319C10.6123 65.3834 10.7042 65.6264 10.8708 65.8151C11.0374 66.0038 11.2671 66.1249 11.5168 66.1562H69.4839C69.7338 66.1249 69.9634 66.0038 70.13 65.8151C70.2966 65.6264 70.3885 65.3834 70.3885 65.1319C70.3885 64.8802 70.2966 64.6372 70.13 64.4485C69.9634 64.26 69.7338 64.1386 69.4839 64.1075V64.0758ZM16.0112 57.6279C15.962 57.63 15.9128 57.6222 15.8666 57.6047C15.8204 57.5874 15.7783 57.5607 15.7426 57.5266C15.707 57.4924 15.6787 57.4515 15.6593 57.4062C15.64 57.3608 15.63 57.3119 15.6301 57.2626V51.0371C15.63 50.9877 15.64 50.939 15.6593 50.8935C15.6787 50.8481 15.707 50.8071 15.7426 50.773C15.7783 50.7389 15.8204 50.7123 15.8666 50.6949C15.9128 50.6776 15.962 50.6696 16.0112 50.6718H20.5057C20.555 50.6696 20.6042 50.6776 20.6504 50.6949C20.6965 50.7123 20.7387 50.7389 20.7743 50.773C20.8099 50.8071 20.8383 50.8481 20.8576 50.8935C20.8769 50.939 20.8869 50.9877 20.8868 51.0371V57.2626C20.8869 57.3119 20.8769 57.3608 20.8576 57.4062C20.8383 57.4515 20.8099 57.4924 20.7743 57.5266C20.7387 57.5607 20.6965 57.5874 20.6504 57.6047C20.6042 57.6222 20.555 57.63 20.5057 57.6279H16.0112Z" fill="white"/>
<path d="M11.6913 38.0778C11.8722 38.0809 12.0514 38.043 12.2154 37.9666L37.6256 25.3568C37.8279 25.2469 38.0546 25.1894 38.2847 25.1894C38.515 25.1894 38.7414 25.2469 38.9438 25.3568L47.1862 29.7877C47.4799 29.9518 47.8107 30.038 48.1471 30.038C48.4834 30.038 48.8142 29.9518 49.1079 29.7877L66.3233 19.6077L65.3069 22.0375C65.2423 22.1842 65.2078 22.3423 65.2058 22.5026C65.2035 22.6628 65.2339 22.8219 65.2947 22.9701C65.3555 23.1184 65.4456 23.2529 65.5596 23.3656C65.6735 23.4782 65.8091 23.5667 65.9581 23.6257C66.1201 23.6891 66.2924 23.7215 66.4663 23.721C66.6908 23.7059 66.9071 23.63 67.0918 23.5013C67.2765 23.3725 67.4227 23.1959 67.5144 22.9904L69.8967 17.2572C69.9743 17.0934 70.0147 16.9144 70.0147 16.7332C70.0147 16.5519 69.9743 16.3729 69.8967 16.2091C69.8012 16.0366 69.6638 15.891 69.4974 15.7855C69.3308 15.6801 69.1405 15.6182 68.9438 15.6056L62.5912 14.8591C62.2885 14.8401 61.9896 14.9357 61.7542 15.127C61.5187 15.3183 61.364 15.5912 61.3207 15.8914C61.285 16.2052 61.3753 16.5203 61.5719 16.7675C61.7684 17.0147 62.055 17.1737 62.3689 17.2096L65.1799 17.5431L48.8061 27.1672C48.5919 27.2929 48.348 27.3591 48.0994 27.3591C47.851 27.3591 47.6071 27.2929 47.3927 27.1672L39.2614 22.784C38.9878 22.647 38.686 22.5757 38.38 22.5757C38.0739 22.5757 37.7722 22.647 37.4986 22.784L11.1672 35.8226C10.8859 35.9627 10.6714 36.208 10.5702 36.5055C10.4691 36.803 10.4896 37.1284 10.6272 37.4107C10.7233 37.6112 10.8743 37.7803 11.0627 37.8983C11.251 38.0163 11.469 38.0786 11.6913 38.0778Z" fill="white"/>
</g>
</svg>
