<svg width="80" height="80" viewBox="0 0 80 80" fill="none" xmlns="http://www.w3.org/2000/svg">
<path fill-rule="evenodd" clip-rule="evenodd" d="M23.169 23.7686C22.734 24.1858 22.1439 24.4202 21.5287 24.4202C20.9164 24.4159 20.3307 24.1796 19.8994 23.7628C19.4684 23.346 19.2263 22.7825 19.2263 22.1952V13.3452C19.2764 12.7902 19.5415 12.2737 19.9693 11.8973C20.3972 11.5209 20.9568 11.3121 21.5372 11.3121C22.1178 11.3121 22.6772 11.5209 23.105 11.8973C23.5331 12.2737 23.7983 12.7902 23.8484 13.3452V22.1952C23.8484 22.7855 23.604 23.3513 23.169 23.7686ZM60.1101 23.7686C59.6751 24.1858 59.085 24.4202 58.4698 24.4202C57.8576 24.4159 57.2721 24.1796 56.8408 23.7628C56.4095 23.346 56.1674 22.7825 56.1674 22.1952V13.3452C56.2177 12.7902 56.4829 12.2737 56.9107 11.8973C57.3386 11.5209 57.898 11.3121 58.4786 11.3121C59.0592 11.3121 59.6186 11.5209 60.0464 11.8973C60.4743 12.2737 60.7394 12.7902 60.7895 13.3452V22.1952C60.7895 22.7855 60.5451 23.3513 60.1101 23.7686ZM69.8961 23.8725C69.6725 22.7819 69.0623 21.7993 68.1695 21.0913C67.2766 20.3831 66.1558 19.9928 64.9971 19.9871H63.0757V22.1953C63.1143 22.7992 63.0236 23.4043 62.8092 23.9734C62.5948 24.5424 62.2611 25.0633 61.8291 25.5041C61.3969 25.9448 60.8751 26.2961 60.2961 26.5361C59.7171 26.7761 59.0931 26.9 58.4622 26.9C57.8315 26.9 57.2073 26.7761 56.6283 26.5361C56.0493 26.2961 55.5277 25.9448 55.0955 25.5041C54.6633 25.0633 54.3298 24.5424 54.1154 23.9734C53.901 23.4043 53.8103 22.7992 53.8489 22.1953V19.9871H26.1512V22.1953C26.1898 22.7992 26.0991 23.4043 25.8847 23.9734C25.6703 24.5424 25.3368 25.0633 24.9046 25.5041C24.4724 25.9448 23.9508 26.2961 23.3718 26.5361C22.7928 26.7761 22.1686 26.9 21.5379 26.9C20.907 26.9 20.283 26.7761 19.704 26.5361C19.125 26.2961 18.6032 25.9448 18.171 25.5041C17.739 25.0633 17.4053 24.5424 17.1909 23.9734C16.9765 23.4043 16.8858 22.7992 16.9244 22.1953V19.9871H15.003C13.6698 20.0044 12.3974 20.5247 11.4611 21.4351C10.5247 22.3458 9.99989 23.5732 10.0001 24.8521V63.8229C9.99551 64.4575 10.1213 65.0866 10.3703 65.6746C10.619 66.2623 10.9864 66.7975 11.451 67.2493C11.9155 67.7012 12.4682 68.0607 13.0777 68.3077C13.6871 68.5544 14.3414 68.6836 15.003 68.688H64.9971C66.3319 68.6748 67.6069 68.156 68.544 67.2445C69.4814 66.3332 70.0048 65.1032 70 63.8229V24.8521C70.0007 24.5231 69.9658 24.1947 69.8961 23.8725ZM26.4801 64.2713H23.4681V52.7478H26.4801V64.2713ZM33.993 64.2713H30.981V49.8752H33.993V64.2713ZM41.5062 64.2713H38.4939V46.9859H41.5062V64.2713ZM49.0191 64.2713H46.0069V49.1612H49.0191V64.2713ZM56.532 64.2713H53.52V43.3827H56.532V64.2713ZM65.3954 35.7779V63.8229C65.4005 63.9277 65.364 64.0306 65.2934 64.1106C65.2228 64.1907 65.1231 64.2422 65.0144 64.2547H58.0902V42.6853C58.0902 42.4917 58.0099 42.3057 57.867 42.1689C57.7242 42.0318 57.5303 41.9547 57.3284 41.9547H52.8275C52.6256 41.9547 52.4317 42.0318 52.2889 42.1689C52.146 42.3057 52.0659 42.4917 52.0659 42.6853V64.2713H50.577V48.4306C50.5819 48.3318 50.5655 48.2332 50.5292 48.1407C50.4932 48.0482 50.4379 47.9637 50.3666 47.8924C50.2955 47.8209 50.2099 47.7641 50.115 47.7253C50.0204 47.6866 49.9184 47.6667 49.8155 47.6667H45.3145C45.2144 47.6667 45.1154 47.6856 45.0231 47.7223C44.9306 47.759 44.8468 47.8128 44.7759 47.8806C44.7053 47.9485 44.649 48.029 44.6109 48.1176C44.5726 48.2062 44.5528 48.3013 44.5528 48.3973V64.2713H43.0641V46.2719C43.0641 46.0781 42.9838 45.8923 42.8409 45.7552C42.6981 45.6184 42.5045 45.5413 42.3023 45.5413H37.6978C37.4956 45.5413 37.302 45.6184 37.1592 45.7552C37.0163 45.8923 36.936 46.0781 36.936 46.2719V64.2713H35.43V49.1612C35.43 48.9717 35.3515 48.7901 35.2119 48.6562C35.0723 48.5224 34.8831 48.4472 34.6855 48.4472H30.1846C29.9857 48.4472 29.7944 48.5217 29.6522 48.6551C29.5098 48.7887 29.4275 48.9703 29.4231 49.1612V64.2713H27.9168V52.0338C27.9171 51.8427 27.8391 51.6595 27.6999 51.5229C27.561 51.3863 27.3715 51.3073 27.1726 51.3032H22.7236C22.5217 51.3032 22.3278 51.38 22.185 51.5171C22.0421 51.6542 21.9618 51.8399 21.9618 52.0338V64.2713H15.0376C14.9289 64.2588 14.8292 64.2073 14.7586 64.1273C14.688 64.0472 14.6515 63.9443 14.6566 63.8395V30.6304H65.3954V35.7779ZM20.0053 50.589C19.9088 50.6134 19.8073 50.6134 19.711 50.589V50.5558C19.5357 50.5606 19.3644 50.5061 19.2269 50.4018C19.0896 50.2975 18.995 50.1501 18.9597 49.9853C18.9246 49.8205 18.9511 49.6493 19.0347 49.5016C19.1182 49.3537 19.2534 49.239 19.4166 49.1776L22.723 47.8161V47.6665C22.7191 47.3536 22.7851 47.0434 22.9164 46.7571C23.0477 46.4707 23.2416 46.2145 23.4848 46.0061C23.7137 45.8148 23.981 45.6699 24.2699 45.5804C24.5588 45.4906 24.8637 45.4581 25.1662 45.4844C25.4685 45.5107 25.7623 45.5956 26.0297 45.7338C26.2972 45.8718 26.5326 46.0606 26.7218 46.2884L30.2879 44.9102V44.8271C30.2858 44.3868 30.4243 43.9564 30.6846 43.5937C30.9449 43.2309 31.3146 42.9531 31.7441 42.7977C32.1738 42.6422 32.6424 42.6166 33.0878 42.7241C33.533 42.8317 33.9334 43.0673 34.235 43.3991L37.853 41.9545V41.8714C37.8391 41.2991 38.063 40.7448 38.4754 40.3306C38.8875 39.9164 39.4545 39.6764 40.0513 39.6632C40.6483 39.6498 41.2261 39.8647 41.6579 40.2602C42.0897 40.6555 42.3401 41.1994 42.3537 41.772L45.8159 42.7682C46.1325 42.3503 46.5948 42.0551 47.1188 41.9363C47.6432 41.8174 48.1942 41.8827 48.6724 42.1207L53 38.202C52.8352 37.739 52.8352 37.2369 53 36.774C53.2169 36.2374 53.6464 35.8052 54.1947 35.5717C54.743 35.3384 55.3654 35.3229 55.9257 35.5285L58.4704 33.2206H58.0375C57.8386 33.2206 57.6475 33.146 57.5051 33.0124C57.3627 32.879 57.2803 32.6974 57.2759 32.5066C57.2759 32.3127 57.3562 32.127 57.4991 31.9899C57.6419 31.853 57.8356 31.776 58.0375 31.776H60.2879C60.4871 31.7803 60.6763 31.8593 60.8155 31.9957C60.9546 32.1323 61.0324 32.3157 61.0324 32.5066V34.6652C61.0324 34.8544 60.9539 35.036 60.8143 35.1701C60.6747 35.304 60.4855 35.3792 60.2879 35.3792C60.089 35.3792 59.8977 35.3044 59.7556 35.171C59.6132 35.0377 59.5308 34.856 59.5264 34.6652V34.167L56.9817 36.4751C57.2381 36.8958 57.3385 37.3876 57.2665 37.8704C57.1945 38.3529 56.9542 38.7978 56.585 39.1329C56.2158 39.4677 55.739 39.6729 55.2327 39.7149C54.7264 39.7569 54.2201 39.6334 53.7964 39.3644L49.5724 43.2332C49.6864 43.4737 49.751 43.7331 49.763 43.9968C49.7778 44.2804 49.7342 44.5638 49.6347 44.8313C49.5352 45.0985 49.3818 45.3445 49.1833 45.555C48.9848 45.7654 48.7451 45.9362 48.4776 46.0578C48.2102 46.1794 47.9205 46.2491 47.6249 46.2634C47.3295 46.2775 47.0339 46.2358 46.7552 46.1404C46.4766 46.0451 46.2202 45.8979 46.0008 45.7075C45.7813 45.5171 45.6032 45.2871 45.4765 45.0307C45.3495 44.7741 45.2768 44.4962 45.2621 44.2128L41.7998 43.2166C41.7038 43.344 41.5935 43.461 41.471 43.5653C41.0198 43.9414 40.4321 44.1314 39.8355 44.0942C39.239 44.0568 38.6821 43.7951 38.2857 43.3659L34.7196 44.7274V44.8271C34.7217 45.2674 34.5832 45.6978 34.3229 46.0606C34.0626 46.4234 33.6929 46.7012 33.2634 46.8565C32.834 47.0121 32.3651 47.0377 31.9199 46.9301C31.4745 46.8226 31.0744 46.587 30.7728 46.2551L27.3105 47.6665C27.3128 47.9841 27.2408 48.2979 27.1001 48.5852C26.9593 48.8725 26.7532 49.1261 26.4968 49.3269C26.0611 49.7176 25.4826 49.9281 24.8865 49.9124C24.2902 49.8969 23.7246 49.6567 23.3117 49.2438L20.0053 50.589ZM55.5355 37.11C55.3965 36.9734 55.2071 36.8944 55.0082 36.8903C54.8092 36.8944 54.6198 36.9734 54.4806 37.11C54.3417 37.2466 54.2637 37.4298 54.2637 37.6207C54.2637 37.8101 54.3422 37.9917 54.4818 38.1256C54.6214 38.2594 54.8106 38.3347 55.0082 38.3347C55.2055 38.3347 55.3949 38.2594 55.5345 38.1256C55.6742 37.9917 55.7526 37.8101 55.7526 37.6207C55.7526 37.4298 55.6746 37.2466 55.5355 37.11ZM48.0216 43.5916C47.882 43.4577 47.6925 43.3825 47.4952 43.3825H47.5125C47.4133 43.3804 47.3145 43.3971 47.2222 43.4321C47.1299 43.467 47.0459 43.5191 46.9748 43.5856C46.904 43.6523 46.8475 43.7317 46.8092 43.8194C46.7706 43.9071 46.7508 44.0014 46.7508 44.0965C46.7508 44.286 46.8292 44.4676 46.9688 44.6014C47.1085 44.7353 47.2977 44.8105 47.4952 44.8105C47.6925 44.8105 47.882 44.7353 48.0216 44.6014C48.161 44.4676 48.2395 44.286 48.2395 44.0965C48.2395 43.9071 48.161 43.7257 48.0216 43.5916ZM40.5085 41.433C40.3688 41.2991 40.1796 41.2239 39.9821 41.2239C39.8736 41.2082 39.7631 41.2149 39.6576 41.244C39.5521 41.2731 39.4543 41.3236 39.3712 41.3921C39.2879 41.4607 39.2212 41.5458 39.1755 41.6414C39.1296 41.7371 39.1061 41.841 39.1061 41.9462C39.1061 42.0514 39.1296 42.1555 39.1755 42.2511C39.2212 42.3468 39.2879 42.4317 39.3712 42.5003C39.4543 42.5688 39.5521 42.6194 39.6576 42.6484C39.7631 42.6775 39.8736 42.6844 39.9821 42.6685C40.1812 42.6641 40.3705 42.5852 40.5096 42.4488C40.6488 42.3122 40.7265 42.129 40.7265 41.9379C40.7265 41.7487 40.6481 41.5671 40.5085 41.433ZM33.0313 44.3162C32.8921 44.1798 32.7029 44.1009 32.5038 44.0965C32.3018 44.0965 32.108 44.1736 31.9651 44.3104C31.8223 44.4475 31.7422 44.6333 31.7422 44.8271C31.7466 45.018 31.829 45.1996 31.9711 45.333C32.1135 45.4666 32.3048 45.5411 32.5038 45.5411C32.7013 45.5411 32.8905 45.4659 33.0301 45.3321C33.1698 45.1982 33.2482 45.0166 33.2482 44.8271C33.2482 44.6363 33.1704 44.4528 33.0313 44.3162ZM25.4999 47.1948C25.3603 47.061 25.1708 46.9857 24.9735 46.9857C24.7801 46.9853 24.5939 47.0554 24.4524 47.1819C24.311 47.3081 24.2249 47.4814 24.2117 47.6665C24.2071 47.7653 24.2233 47.8638 24.2595 47.9564C24.2957 48.0489 24.3511 48.1334 24.4222 48.2047C24.4935 48.2762 24.5791 48.333 24.6737 48.3718C24.7686 48.4105 24.8706 48.4304 24.9735 48.4304C25.1724 48.426 25.3619 48.3471 25.5008 48.2104C25.64 48.0741 25.718 47.8906 25.718 47.6998C25.718 47.5103 25.6395 47.3287 25.4999 47.1948Z" fill="white"/>
</svg>
