<svg width="81" height="80" viewBox="0 0 81 80" fill="none" xmlns="http://www.w3.org/2000/svg">
<path fill-rule="evenodd" clip-rule="evenodd" d="M21.0388 20.8271H66.0386C67.2209 20.8303 68.3538 21.3198 69.1899 22.1883C70.0258 23.0569 70.4968 24.2339 70.5 25.4621V54.5378C70.4968 55.766 70.0258 56.9431 69.1899 57.8117C68.3538 58.6801 67.2209 59.1696 66.0386 59.1728H21.0388C19.8577 59.1696 18.7259 58.6798 17.8918 57.8109C17.0577 56.9421 16.5892 55.7649 16.5892 54.5378V49.1241H18.9311V54.5378C18.9311 55.1197 19.1529 55.6778 19.5478 56.0905C19.9428 56.5031 20.4788 56.7365 21.0388 56.7397H66.0386C66.317 56.7397 66.5926 56.6827 66.8497 56.5721C67.1069 56.4614 67.3405 56.2992 67.5374 56.0948C67.7341 55.8902 67.8902 55.6475 67.9967 55.3804C68.1032 55.1132 68.1581 54.8269 68.1581 54.5378V25.4621C68.1581 25.173 68.1032 24.8868 67.9967 24.6195C67.8902 24.3524 67.7341 24.1097 67.5374 23.9051C67.3405 23.7007 67.1069 23.5385 66.8497 23.4278C66.5926 23.3173 66.317 23.2603 66.0386 23.2603H21.0388C20.4788 23.2634 19.9428 23.4968 19.5478 23.9095C19.1529 24.3221 18.9311 24.8803 18.9311 25.4621V30.8759H16.5892V25.4621C16.5892 24.2351 17.0577 23.0579 17.8918 22.1891C18.7259 21.3201 19.8577 20.8303 21.0388 20.8271ZM32.1392 24.2578V26.3868C30.3377 26.4812 28.6221 27.2156 27.2797 28.4672C26.7173 29.0902 26.2829 29.8258 26.0031 30.6289C25.7233 31.4321 25.6038 32.2861 25.652 33.1387C25.6325 34.4012 25.8971 35.651 26.4249 36.7883C26.8417 37.758 27.4571 38.6216 28.2281 39.3188C29.5087 40.321 30.8375 41.2549 32.2094 42.1169C33.099 42.5659 33.8228 43.3051 34.2702 44.2214C34.5155 45.2637 34.618 46.3367 34.5747 47.4087C34.6059 47.8782 34.4953 48.3459 34.2586 48.747C34.1424 48.8964 33.9937 49.0151 33.8248 49.0935C33.6557 49.1716 33.4713 49.2072 33.2868 49.1972C33.0807 49.2233 32.8725 49.173 32.6989 49.0549C32.5254 48.9371 32.3975 48.7588 32.3383 48.5524C32.1571 47.4559 32.0904 46.3424 32.1392 45.2312V43.6254H25.7223V44.9149C25.7223 47.8711 26.3547 49.9514 27.6309 51.1314C28.8642 52.3087 30.4362 53.0312 32.1041 53.1874V55.7423H35.09V53.2483C36.9718 53.1069 38.7345 52.239 40.0314 50.8152C41.2155 49.1965 41.7937 47.1863 41.659 45.1582C41.6865 43.9131 41.4837 42.6742 41.0618 41.5085C40.733 40.6359 40.221 39.8503 39.5629 39.2093C38.5236 38.33 37.4196 37.5369 36.2609 36.837C35.0453 36.129 33.8898 35.3149 32.8066 34.4039C32.355 33.7755 32.1461 32.9945 32.2211 32.214C32.1864 31.7282 32.2881 31.2422 32.5138 30.8151C32.6189 30.6634 32.7584 30.541 32.9201 30.4588C33.0817 30.3768 33.2604 30.3376 33.4401 30.3449C33.62 30.3521 33.7953 30.4055 33.9503 30.5003C34.1054 30.595 34.2354 30.7284 34.3288 30.8881C34.5132 31.6343 34.5842 32.4061 34.5397 33.1752V34.2822H40.9447C40.9447 33.9451 40.966 33.6609 40.9829 33.435C40.994 33.286 41.0032 33.1624 41.0032 33.0656C41.0964 31.3914 40.5731 29.7431 39.5396 28.455C38.3469 27.2278 36.7655 26.4927 35.09 26.3868V24.2578H32.1392ZM19.9495 47.5303V42.287H24.9965V37.7128H19.9495V32.4695H15.5468V37.7128H10.5V42.287H15.5468V47.5303H19.9495ZM60.0423 55.5475H65.6979V36.2166H60.0423V55.5475ZM61.2133 37.433H64.527V54.3309H61.2133V37.433ZM48.3449 34.9149L51.4829 35.9002C51.7749 35.4826 52.2015 35.1877 52.685 35.0693C53.1687 34.9509 53.677 35.0171 54.1176 35.2555L58.0637 31.3991C57.9479 31.015 57.9384 30.6047 58.0366 30.2152C58.1348 29.8258 58.3366 29.4732 58.6191 29.1974C58.9015 28.9218 59.2529 28.7346 59.6332 28.6571C60.0134 28.5796 60.407 28.6149 60.7688 28.7591L63.1107 26.472H62.7827C62.6852 26.4852 62.5862 26.4769 62.4921 26.447C62.3981 26.4174 62.3113 26.3672 62.2372 26.2998C62.1634 26.2325 62.1042 26.1494 62.0637 26.0564C62.0232 25.9634 62.0022 25.8625 62.0022 25.7603C62.0022 25.6583 62.0232 25.5573 62.0637 25.4642C62.1042 25.3712 62.1634 25.2882 62.2372 25.2208C62.3113 25.1535 62.3981 25.1033 62.4921 25.0736C62.5862 25.0439 62.6852 25.0354 62.7827 25.0486H64.8202C64.9104 25.0486 64.9996 25.0673 65.0828 25.1034C65.166 25.1398 65.2414 25.1928 65.3045 25.2597C65.3679 25.3263 65.4176 25.4057 65.4511 25.4927C65.4844 25.5798 65.5009 25.6728 65.4993 25.7665V27.8953C65.5121 27.9967 65.5039 28.0996 65.4754 28.1973C65.4468 28.295 65.3984 28.3853 65.3336 28.462C65.2687 28.5389 65.1888 28.6004 65.0993 28.6424C65.0098 28.6846 64.9126 28.7064 64.8144 28.7064C64.716 28.7064 64.6188 28.6846 64.5293 28.6424C64.4398 28.6004 64.3599 28.5389 64.2951 28.462C64.2302 28.3853 64.1819 28.295 64.1533 28.1973C64.1247 28.0996 64.1165 27.9967 64.1293 27.8953V27.4088L61.7874 29.6837C62.0257 30.1002 62.12 30.5889 62.0548 31.0687C61.9897 31.5483 61.7689 31.9908 61.429 32.3226C61.0892 32.6544 60.6506 32.8559 60.1856 32.8936C59.7206 32.9315 59.2571 32.8032 58.8718 32.5305L55.0311 36.3017C55.1346 36.5394 55.1941 36.7954 55.2066 37.0559C55.2365 37.346 55.2088 37.6391 55.1256 37.9177C55.0424 38.1961 54.9054 38.4541 54.7228 38.6756C54.5403 38.897 54.3162 39.0776 54.0641 39.2058C53.812 39.3342 53.5374 39.4075 53.2572 39.4217C52.9768 39.4357 52.6967 39.3902 52.4338 39.2878C52.171 39.1855 51.9311 39.0284 51.7289 38.8262C51.5265 38.6241 51.3661 38.3812 51.2574 38.1123C51.1487 37.8435 51.094 37.5544 51.0967 37.2628L47.9468 36.2895C47.8611 36.4174 47.7586 36.5319 47.6422 36.6301C47.2289 36.9911 46.6974 37.1721 46.1586 37.136C45.6197 37.0996 45.1152 36.8489 44.7501 36.4356C44.4262 36.0413 44.2441 35.5426 44.2348 35.0243C44.2585 34.4833 44.4785 33.9716 44.8507 33.5925C45.2229 33.2132 45.7196 32.9948 46.2408 32.9808C46.7619 32.967 47.2688 33.1589 47.6592 33.5176C48.0497 33.8766 48.2946 34.3757 48.3449 34.9149ZM46.0322 35.6798C46.1159 35.7145 46.2056 35.7315 46.2958 35.73H46.3308C46.5048 35.7207 46.6686 35.6422 46.7884 35.5108C46.9083 35.3796 46.9752 35.2053 46.9748 35.0243C46.9877 34.9231 46.9795 34.8202 46.9508 34.7225C46.9223 34.6247 46.874 34.5345 46.8091 34.4578C46.7443 34.3809 46.6644 34.3194 46.5749 34.2772C46.4853 34.2352 46.3881 34.2134 46.2898 34.2134C46.1916 34.2134 46.0944 34.2352 46.0049 34.2772C45.9153 34.3194 45.8355 34.3809 45.7706 34.4578C45.7058 34.5345 45.6574 34.6247 45.6289 34.7225C45.6002 34.8202 45.5921 34.9231 45.6049 35.0243C45.6049 35.118 45.6227 35.2108 45.6576 35.2972C45.6924 35.3836 45.7436 35.4619 45.808 35.5276C45.8721 35.5933 45.9485 35.645 46.0322 35.6798ZM52.7959 37.737C52.9097 37.8165 53.0438 37.8589 53.181 37.8589C53.271 37.8605 53.3607 37.8435 53.4444 37.8087C53.5281 37.774 53.6045 37.7223 53.6688 37.6566C53.733 37.591 53.7842 37.5126 53.819 37.4262C53.8539 37.3397 53.8717 37.247 53.8717 37.1533C53.8741 37.0109 53.8355 36.8709 53.761 36.7513C53.6867 36.6316 53.5795 36.5378 53.4536 36.4816C53.3275 36.4254 53.1882 36.4094 53.0535 36.4357C52.9187 36.4621 52.7945 36.5294 52.6967 36.6293C52.599 36.7292 52.5319 36.857 52.5043 36.9966C52.4768 37.1361 52.4896 37.281 52.5416 37.4129C52.5935 37.5448 52.682 37.6576 52.7959 37.737ZM60.4265 30.1454C60.3129 30.0664 60.1794 30.0244 60.0427 30.0244V30.0365C59.9525 30.0349 59.863 30.052 59.7793 30.0867C59.6954 30.1214 59.6192 30.1731 59.5549 30.2388C59.4905 30.3044 59.4395 30.3828 59.4047 30.4693C59.3698 30.5557 59.3518 30.6484 59.3518 30.7421C59.3518 30.8841 59.3923 31.0228 59.4683 31.1409C59.5442 31.2589 59.6521 31.3509 59.7783 31.4053C59.9045 31.4596 60.0435 31.4738 60.1774 31.4461C60.3114 31.4185 60.4347 31.3501 60.5312 31.2496C60.6279 31.1492 60.6936 31.0213 60.7202 30.8821C60.7469 30.7429 60.7332 30.5985 60.6809 30.4675C60.6287 30.3363 60.5402 30.2243 60.4265 30.1454ZM46.156 55.5476H51.8116V43.9417H46.156V55.5476ZM47.3268 45.1095H50.6407V54.331H47.3268V45.1095ZM58.7556 55.5474H53.0999V40.0972H58.7556V55.5474ZM57.5847 41.3138H54.2708V54.3308H57.5847V41.3138Z" fill="white"/>
</svg>
