<svg width="80" height="80" viewBox="0 0 80 80" fill="none" xmlns="http://www.w3.org/2000/svg">
<path d="M51.7857 38.3925C48.7164 34.0258 45.3817 29.8519 41.8002 25.8943C42.2797 25.306 42.6225 24.6186 42.8041 23.882C42.9857 23.1453 43.0013 22.3772 42.85 21.6336C42.6988 20.89 42.3844 20.1894 41.9294 19.5821C41.4745 18.9749 40.8904 18.4762 40.2193 18.1221C40.6922 17.4207 41.3329 16.8486 42.0831 16.4578C42.7883 15.9604 43.2724 15.2086 43.4339 14.3611C43.5953 13.5134 43.4214 12.6362 42.9486 11.9144C42.5926 11.3214 42.087 10.8323 41.4823 10.4964C40.8776 10.1605 40.1952 9.98942 39.5037 10.0005H28.1866C27.4978 9.99235 26.8189 10.1647 26.2175 10.5005C25.616 10.8363 25.1129 11.3238 24.7583 11.9144C24.2838 12.6342 24.1072 13.51 24.2655 14.3574C24.4239 15.2048 24.9047 15.9579 25.607 16.4578C26.3594 16.8456 27.0008 17.4183 27.471 18.1221C26.8021 18.4784 26.2203 18.9782 25.7671 19.5856C25.314 20.193 25.0007 20.893 24.8496 21.6356C24.6985 22.3782 24.7135 23.1451 24.8932 23.8814C25.0731 24.6175 25.4135 25.305 25.89 25.8943C21.1968 31.636 12.6758 39.8407 12.6758 47.5296C12.6758 60.3277 24.1425 63.6893 37.4565 62.8239C38.9936 65.0455 41.0485 66.8596 43.4435 68.1092C45.8385 69.3589 48.5018 70.0068 51.2033 69.997C53.2796 70.0374 55.3434 69.6685 57.2771 68.9112C59.2108 68.154 60.9764 67.0233 62.4732 65.5837C63.9699 64.1442 65.1683 62.424 66.0003 60.5214C66.8321 58.6187 67.2811 56.5706 67.3215 54.4943C67.362 52.418 66.9932 50.3541 66.236 48.4206C65.4787 46.4869 64.348 44.7211 62.9086 43.2245C61.469 41.7277 59.7487 40.5294 57.846 39.6974C55.9432 38.8655 53.8953 38.4166 51.819 38.3762L51.7857 38.3925ZM37.4898 24.4129H30.2004C29.7414 24.4615 29.2819 24.3257 28.9229 24.0355C28.5639 23.7452 28.3351 23.3242 28.2865 22.8652C28.2379 22.4062 28.3739 21.9467 28.6641 21.5877C28.9543 21.2287 29.3752 20.9997 29.8342 20.9513C30.0276 20.9752 30.2233 20.9752 30.4167 20.9513H37.3733C37.5444 20.9761 37.7181 20.9761 37.8892 20.9513C38.3506 20.9975 38.7744 21.2254 39.0678 21.5842C39.3613 21.9432 39.5001 22.4038 39.4536 22.8652C39.4074 23.3263 39.1797 23.7502 38.8207 24.0436C38.4619 24.337 38.0011 24.476 37.5397 24.4297L37.4898 24.4129ZM28.2366 13.5787C40.2025 13.5787 39.6866 13.4289 39.8863 13.7451C38.4526 14.6331 37.2989 15.908 36.5578 17.423H31.2156C30.4746 15.908 29.3208 14.6331 27.8871 13.7451C27.911 13.6914 27.9513 13.6465 28.0019 13.6167C28.0527 13.5869 28.1114 13.5736 28.17 13.5787H28.2366ZM16.304 47.5128C16.304 41.1886 24.6251 33.2002 28.9522 27.7914C29.3551 27.8912 29.7687 27.9416 30.1837 27.9411C37.5231 27.9411 37.6396 28.041 38.7047 27.808C41.2677 30.9867 44.9292 34.7979 47.7085 38.7422C43.8942 39.5295 40.481 41.6398 38.0723 44.7002C36.2749 42.5367 33.2127 42.4701 32.6135 41.3717C32.5438 41.1755 32.5456 40.9609 32.6187 40.7661C32.6918 40.5712 32.8314 40.4084 33.013 40.3066C33.3545 40.1483 33.7303 40.0792 34.1057 40.1053C34.481 40.1316 34.8436 40.2523 35.1598 40.4565C35.5213 40.772 35.99 40.9376 36.4694 40.919C36.9491 40.9005 37.4034 40.6991 37.7394 40.3565C37.9067 40.1924 38.0375 39.9948 38.123 39.7767C38.2088 39.5585 38.2472 39.3246 38.2362 39.0906C38.2252 38.8565 38.1648 38.6273 38.0591 38.4181C37.9535 38.2089 37.805 38.0245 37.6231 37.8767C37.0333 37.3668 36.3321 37.002 35.5759 36.8116V36.6618C35.5326 36.2087 35.3219 35.7878 34.9849 35.4815C34.6479 35.1753 34.2089 35.0056 33.7536 35.0056C33.2982 35.0056 32.8592 35.1753 32.5223 35.4815C32.1853 35.7878 31.9746 36.2087 31.9312 36.6618V36.9283C31.3299 37.1222 30.7785 37.4454 30.3155 37.8754C29.8525 38.3053 29.4892 38.8314 29.2514 39.4167C29.0134 40.002 28.9066 40.6324 28.9382 41.2633C28.97 41.8944 29.1394 42.5107 29.4348 43.0692C30.3154 44.3637 31.6331 45.2971 33.1463 45.6987C34.1448 46.0815 35.6092 46.5974 35.4927 47.6459C35.4434 47.9164 35.3281 48.1703 35.1567 48.3852C34.9854 48.6 34.7636 48.7693 34.511 48.8775C33.9812 49.0241 33.427 49.06 32.8828 48.9826C32.3388 48.9054 31.8165 48.7165 31.3487 48.4281C30.9421 48.171 30.4515 48.0809 29.98 48.1771C29.5085 48.2733 29.0926 48.5483 28.819 48.944C28.6809 49.1343 28.5847 49.3514 28.5366 49.5814C28.4885 49.8114 28.4897 50.0489 28.5399 50.2784C28.5902 50.5079 28.6886 50.7243 28.8284 50.913C28.9683 51.1019 29.1467 51.2588 29.3516 51.3738C30.1466 51.8548 31.0197 52.1927 31.9312 52.3724V52.5887C31.9417 52.9149 32.039 53.2326 32.2135 53.5086C32.3879 53.7845 32.633 54.0089 32.9233 54.1583C33.2137 54.3078 33.5385 54.3767 33.8646 54.3582C34.1904 54.3397 34.5056 54.2345 34.7771 54.0533C34.7689 55.8427 35.0846 57.6188 35.7091 59.2957C25.2243 59.6119 16.3205 57.6314 16.3205 47.4462L16.304 47.5128ZM51.2698 66.4021C48.8578 66.3138 46.5249 65.518 44.562 64.1134C42.5991 62.7087 41.0929 60.7574 40.2312 58.5028C39.3692 56.2481 39.1898 53.79 39.7154 51.4341C40.2408 49.0783 41.4479 46.9293 43.186 45.2545C44.9242 43.5798 47.1168 42.4536 49.4906 42.0162C51.8643 41.5789 54.3142 41.8496 56.5352 42.7948C58.7561 43.7399 60.6499 45.3176 61.9805 47.3314C63.311 49.3453 64.0197 51.7062 64.018 54.1199C63.9481 57.4364 62.5678 60.5903 60.1789 62.892C57.7899 65.1936 54.5867 66.4556 51.2698 66.4021ZM53.7995 49.1271L46.0773 56.5663C45.9031 56.7224 45.7636 56.9136 45.6681 57.1272C45.5726 57.3409 45.5233 57.5722 45.5233 57.8062C45.5233 58.0402 45.5726 58.2717 45.6681 58.4854C45.7636 58.6989 45.9031 58.8899 46.0773 59.046C46.4195 59.3814 46.8797 59.5693 47.3588 59.5693C47.8381 59.5693 48.2981 59.3814 48.6403 59.046L56.3791 51.6068C56.5535 51.4507 56.693 51.2595 56.7883 51.046C56.8838 50.8323 56.9333 50.601 56.9333 50.367C56.9333 50.133 56.8838 49.9016 56.7883 49.6881C56.693 49.4744 56.5535 49.2832 56.3791 49.1271C56.0301 48.7982 55.5689 48.6152 55.0893 48.6152C54.6098 48.6152 54.1485 48.7982 53.7995 49.1271ZM48.5571 51.5068C48.7315 51.3509 48.871 51.1598 48.9665 50.9461C49.0619 50.7326 49.1111 50.5011 49.1111 50.2671C49.1111 50.0329 49.0619 49.8018 48.9665 49.5881C48.871 49.3744 48.7315 49.1833 48.5571 49.0272C48.2081 48.6984 47.7468 48.5152 47.2673 48.5152C46.7878 48.5152 46.3265 48.6984 45.9775 49.0272C45.8032 49.1833 45.6638 49.3744 45.5683 49.5881C45.4727 49.8018 45.4235 50.0329 45.4235 50.2671C45.4235 50.5011 45.4727 50.7326 45.5683 50.9461C45.6638 51.1598 45.8032 51.3509 45.9775 51.5068C46.3265 51.8357 46.7878 52.0191 47.2673 52.0191C47.7468 52.0191 48.2081 51.8357 48.5571 51.5068ZM53.7329 56.4996C53.5587 56.6557 53.4192 56.8469 53.3237 57.0606C53.2283 57.2743 53.1789 57.5054 53.1789 57.7394C53.1789 57.9736 53.2283 58.2051 53.3237 58.4186C53.4192 58.6323 53.5587 58.8235 53.7329 58.9796C54.0792 59.3073 54.5378 59.4899 55.0144 59.4899C55.491 59.4899 55.9497 59.3073 56.2959 58.9796C56.4703 58.8235 56.6097 58.6323 56.7051 58.4186C56.8006 58.2051 56.8501 57.9736 56.8501 57.7394C56.8501 57.5054 56.8006 57.2743 56.7051 57.0606C56.6097 56.8469 56.4703 56.6557 56.2959 56.4996C55.9497 56.1719 55.491 55.9893 55.0144 55.9893C54.5378 55.9893 54.0792 56.1719 53.7329 56.4996Z" fill="white"/>
</svg>
