<svg width="80" height="80" viewBox="0 0 80 80" fill="none" xmlns="http://www.w3.org/2000/svg">
<path d="M62.6703 17.1314H17.3297C15.3841 17.136 13.52 17.9119 12.1458 19.2892C10.7718 20.6667 10 22.5327 10 24.4783V55.5217C10 57.4672 10.7718 59.3335 12.1458 60.7108C13.52 62.0881 15.3841 62.8641 17.3297 62.8686H62.6532C64.6017 62.8686 66.4703 62.0948 67.8482 60.717C69.226 59.3392 70 57.4703 70 55.5217V24.4783C70.0022 23.5144 69.8144 22.5593 69.4471 21.668C69.0797 20.7767 68.5403 19.9667 67.8594 19.2842C67.1785 18.6018 66.3696 18.0604 65.4792 17.691C64.5888 17.3215 63.6344 17.1314 62.6703 17.1314ZM62.6703 59.4368H17.3297C16.2732 59.4368 15.2598 59.0168 14.5127 58.2697C13.7656 57.5226 13.3458 56.5094 13.3458 55.4527V24.4093C13.3504 23.3542 13.7716 22.3434 14.5177 21.5973C15.2639 20.8512 16.2746 20.4301 17.3297 20.4256H62.6532C63.7113 20.4256 64.7264 20.8445 65.4763 21.5913C66.2261 22.3379 66.6497 23.3511 66.6544 24.4093V55.4527C66.6566 55.9765 66.555 56.4958 66.3557 56.98C66.1563 57.4645 65.8629 57.9044 65.4925 58.2749C65.122 58.6452 64.6821 58.9385 64.1976 59.1379C63.7133 59.3374 63.1941 59.439 62.6703 59.4368ZM62.5668 53.5729C62.8676 53.8928 63.035 54.3153 63.035 54.7544C63.035 55.1935 62.8676 55.6158 62.5668 55.9356C62.4144 56.1044 62.2281 56.2393 62.0201 56.3314C61.8121 56.4235 61.587 56.4709 61.3597 56.4704C60.93 56.4645 60.5178 56.2985 60.2041 56.0048L45.2687 41.8283L41.0953 45.5706C40.7828 45.8377 40.3853 45.9846 39.9741 45.9846C39.5631 45.9846 39.1654 45.8377 38.8531 45.5706L34.783 41.9316L19.7787 55.9701C19.4624 56.2576 19.0507 56.4175 18.6232 56.4187C18.3938 56.4154 18.1673 56.3664 17.9571 56.2747C17.7469 56.1827 17.557 56.0499 17.3987 55.8839C17.0979 55.5639 16.9306 55.1416 16.9306 54.7027C16.9306 54.2636 17.0979 53.841 17.3987 53.5211L32.1788 39.724L17.3297 26.4618C17.0048 26.1591 16.809 25.7428 16.7833 25.2994C16.7576 24.856 16.9039 24.4198 17.1917 24.0818C17.4937 23.7617 17.9066 23.5691 18.3457 23.5434C18.7849 23.5178 19.2173 23.6612 19.5545 23.9438L35.628 38.3273L35.904 38.5515L39.8534 42.0007L60.1006 23.8402C60.4355 23.5553 60.8668 23.4092 61.3059 23.4316C61.7452 23.454 62.1591 23.6434 62.4633 23.9609C62.7534 24.2969 62.9026 24.732 62.8802 25.1752C62.8578 25.6184 62.6653 26.036 62.3428 26.3409L47.666 39.4998L62.5668 53.5729Z" fill="white"/>
</svg>
