<svg width="80" height="80" viewBox="0 0 80 80" fill="none" xmlns="http://www.w3.org/2000/svg">
<path d="M55.4246 70H11.4004V44.7794L28.8276 46.2328C29.6809 43.9642 31.2708 42.0473 33.3429 40.7897C34.3321 40.1937 35.1506 39.3525 35.7195 38.3476C36.2884 37.3425 36.5884 36.2077 36.5902 35.0529V31.5892C36.5944 30.3082 37.1061 29.081 38.0133 28.1767C38.9205 27.2724 40.1493 26.7646 41.4302 26.7646C41.8659 26.7691 42.3005 26.8104 42.7292 26.8881C42.3723 25.6886 42.19 24.444 42.188 23.1924C42.1909 20.2989 43.1441 17.4865 44.901 15.1874C46.6579 12.8883 49.1214 11.2298 51.9126 10.467C54.7038 9.70429 57.6682 9.8795 60.3503 10.9656C63.0323 12.0516 65.2833 13.9884 66.7574 16.4784C68.2314 18.9683 68.8468 21.8735 68.5091 24.7472C68.1714 27.6209 66.899 30.3045 64.8877 32.3847C62.8765 34.465 60.2377 35.8272 57.377 36.2617C54.5163 36.6962 51.592 36.1791 49.0537 34.7899V41.3928C49.0537 41.9669 49.2818 42.5177 49.6877 42.9236C50.0938 43.3297 50.6444 43.5578 51.2186 43.5578H58.2235C59.6849 48.9409 61.2937 54.2829 63.048 59.5777C63.0432 60.5233 62.7607 61.4464 62.2356 62.2327C61.7106 63.0189 60.966 63.6336 60.0945 64.0002C60.2001 64.3829 60.2521 64.7785 60.2492 65.1754C60.2492 66.455 59.7409 67.6822 58.8361 68.587C57.9314 69.4917 56.7042 70 55.4246 70ZM12.7457 68.7476H55.4246C56.3693 68.7436 57.2739 68.3652 57.9403 67.6958C58.607 67.0264 58.9812 66.1202 58.9812 65.1754C58.9853 64.7189 58.896 64.2663 58.7183 63.8457L58.4554 63.1963L59.1358 63.0106C59.7256 62.8561 60.2656 62.5518 60.7033 62.1273C61.1409 61.7028 61.4618 61.1726 61.6344 60.5878C61.8069 60.0031 61.8257 59.3836 61.6886 58.7895C61.5516 58.1953 61.2636 57.6466 60.8522 57.1965L60.4811 56.779L60.8522 56.3615C61.4477 55.7114 61.778 54.8617 61.778 53.9801C61.778 53.0984 61.4477 52.249 60.8522 51.5987L60.4811 51.1812L60.8522 50.7637C61.3169 50.2542 61.6235 49.6205 61.7347 48.94C61.8458 48.2593 61.7567 47.5613 61.478 46.9304C61.1995 46.2995 60.7435 45.763 60.1657 45.3866C59.5878 45.0103 58.9131 44.8102 58.2235 44.8103H51.2186C50.3107 44.8103 49.44 44.4508 48.7965 43.8103C48.1533 43.1698 47.7897 42.3006 47.7857 41.3928V34.388C47.8008 34.2286 47.8008 34.0681 47.7857 33.9087L47.6001 32.3623L48.7444 33.151C51.1146 34.761 53.9839 35.4672 56.8305 35.1414C59.6773 34.8156 62.3127 33.4794 64.2579 31.3754C66.203 29.2715 67.3288 26.5394 67.4307 23.6758C67.5326 20.8123 66.6037 18.0073 64.813 15.7705C63.0222 13.5336 60.4885 12.0134 57.672 11.4862C54.8557 10.9589 51.9435 11.4596 49.4649 12.8972C46.9862 14.3347 45.1056 16.6137 44.1646 19.3201C43.2237 22.0266 43.2851 24.9807 44.3374 27.6458L44.8477 28.9295L43.5487 28.4654C42.8841 28.2232 42.1839 28.0927 41.4766 28.0788C40.5292 28.0788 39.6207 28.4553 38.9509 29.1252C38.281 29.7951 37.9046 30.7037 37.9046 31.651V35.1148C37.897 36.4872 37.5377 37.8347 36.861 39.0286C36.1841 40.2225 35.2124 41.2228 34.0388 41.9341C32.0978 43.0985 30.6385 44.9198 29.9255 47.068L29.7709 47.5319H29.2451L12.7148 46.1556L12.7457 68.7476ZM55.5019 67.2013H30.9925V48.4133L31.3017 47.4855C31.9104 45.6874 33.138 44.1638 34.7655 43.1867C36.1727 42.3439 37.3388 41.1526 38.1514 39.728C38.964 38.3032 39.3956 36.693 39.4045 35.0529V31.5892C39.4086 31.0504 39.6255 30.5353 40.0078 30.1559C40.3902 29.7764 40.907 29.5635 41.4457 29.5635C42.7253 29.5635 43.9525 30.0717 44.8572 30.9766C45.762 31.8814 46.2703 33.1086 46.2703 34.388V41.3928C46.2703 42.7093 46.7933 43.9719 47.7241 44.9028C48.655 45.8337 49.9176 46.3567 51.234 46.3567H58.2389C58.7761 46.3567 59.2914 46.5701 59.6713 46.95C60.0512 47.3299 60.2646 47.845 60.2646 48.3824C60.2646 48.9196 60.0512 49.4348 59.6713 49.8146C59.2914 50.1945 58.7761 50.4081 58.2389 50.4081H49.0691V51.9544H58.2389C58.7761 51.9544 59.2914 52.1678 59.6713 52.5477C60.0512 52.9277 60.2646 53.4428 60.2646 53.9801C60.2646 54.5173 60.0512 55.0327 59.6713 55.4125C59.2914 55.7924 58.7761 56.0058 58.2389 56.0058H49.0691V57.5521H58.2389C58.5049 57.5521 58.7684 57.6046 59.0141 57.7063C59.26 57.8082 59.4833 57.9573 59.6713 58.1455C59.8593 58.3335 60.0086 58.5568 60.1105 58.8025C60.2122 59.0482 60.2646 59.3117 60.2646 59.5777C60.2646 59.8438 60.2122 60.1073 60.1105 60.353C60.0086 60.5987 59.8593 60.8222 59.6713 61.0102C59.4833 61.1984 59.26 61.3475 59.0141 61.4494C58.7684 61.5511 58.5049 61.6035 58.2389 61.6035H49.0691V63.1499H55.4401C55.706 63.1499 55.9695 63.2023 56.2152 63.3041C56.4611 63.406 56.6844 63.555 56.8724 63.7432C57.0606 63.9312 57.2097 64.1547 57.3116 64.4004C57.4133 64.6463 57.4658 64.9095 57.4658 65.1754C57.4658 65.4415 57.4133 65.7049 57.3116 65.9508C57.2097 66.1965 57.0606 66.4199 56.8724 66.608C56.6844 66.7961 56.4611 66.9452 56.2152 67.0471C55.9695 67.1489 55.706 67.2013 55.4401 67.2013H55.5019ZM32.245 65.9486H55.4401C55.6451 65.9486 55.8418 65.8673 55.9868 65.7224C56.1317 65.5773 56.2132 65.3805 56.2132 65.1754C56.2132 64.9704 56.1317 64.7738 55.9868 64.6288C55.8418 64.4839 55.6451 64.4023 55.4401 64.4023H47.8012V60.3974H58.2389C58.444 60.3974 58.6407 60.3159 58.7856 60.1709C58.9306 60.0258 59.0121 59.8293 59.0121 59.6242C59.0121 59.4192 58.9306 59.2225 58.7856 59.0776C58.6407 58.9326 58.444 58.8511 58.2389 58.8511H47.8012V54.7997H58.2389C58.444 54.7997 58.6407 54.7182 58.7856 54.5731C58.9306 54.4281 59.0121 54.2315 59.0121 54.0265C59.0121 53.8214 58.9306 53.6248 58.7856 53.4799C58.6407 53.3348 58.444 53.2533 58.2389 53.2533H47.8012V49.2019H58.2389C58.444 49.2019 58.6407 49.1204 58.7856 48.9754C58.9306 48.8303 59.0121 48.6338 59.0121 48.4288C59.0121 48.2237 58.9306 48.027 58.7856 47.8821C58.6407 47.7371 58.444 47.6556 58.2389 47.6556H51.234C50.4152 47.6582 49.604 47.4983 48.8476 47.1852C48.0909 46.8719 47.4042 46.4116 46.827 45.8308C46.2482 45.2554 45.7889 44.5713 45.4758 43.8174C45.1625 43.0637 45.0017 42.2555 45.0023 41.4393V34.4343C45.0023 33.491 44.6276 32.5864 43.9605 31.9195C43.2936 31.2525 42.389 30.8778 41.4457 30.8778C41.3449 30.8758 41.2447 30.8938 41.151 30.9309C41.0573 30.968 40.9719 31.0237 40.8999 31.0942C40.8279 31.1647 40.7707 31.2491 40.7316 31.342C40.6926 31.435 40.6725 31.5347 40.6725 31.6355V35.0993C40.6764 36.9636 40.1987 38.7974 39.2858 40.4229C38.3728 42.0484 37.0555 43.4106 35.4614 44.3774C34.091 45.1972 33.0596 46.4808 32.5543 47.9958L32.2759 48.8153L32.245 65.9486ZM29.4461 67.2013H14.1838V47.8257L29.4461 49.0935V67.2013ZM15.4518 65.9486H28.2091V50.2533L15.4827 49.1865L15.4518 65.9486ZM55.4091 10.6054C52.9152 10.6023 50.4765 11.3391 48.4016 12.7228C46.3267 14.1064 44.7091 16.0746 43.7533 18.378C42.7975 20.6814 42.5467 23.2167 43.0324 25.6627C43.5183 28.1088 44.7188 30.3559 46.4823 32.1194C48.2457 33.8828 50.4927 35.0834 52.9389 35.5691C55.3848 36.055 57.9202 35.804 60.2236 34.8482C62.5271 33.8924 64.4953 32.2748 65.8788 30.2001C67.2624 28.1252 67.9994 25.6863 67.9963 23.1924C67.9923 19.8554 66.6648 16.6563 64.3051 14.2966C61.9453 11.937 58.7461 10.6095 55.4091 10.6054ZM55.4091 32.9963C53.513 33.0133 51.6534 32.476 50.0588 31.45C50.397 30.2949 51.1003 29.2806 52.0635 28.559C53.0267 27.8373 54.1979 27.4471 55.4014 27.4471C56.6049 27.4471 57.7761 27.8373 58.7393 28.559C59.7024 29.2806 60.4058 30.2949 60.744 31.45C59.1537 32.473 57.2998 33.0104 55.4091 32.9963ZM52.6103 21.8008C52.6103 21.2473 52.7745 20.7062 53.0819 20.2458C53.3895 19.7856 53.8266 19.4269 54.338 19.215C54.8495 19.0032 55.4122 18.9477 55.9551 19.0557C56.4981 19.1637 56.9968 19.4303 57.3883 19.8217C57.7797 20.2131 58.0463 20.7119 58.1542 21.2548C58.2623 21.7978 58.2068 22.3605 57.9949 22.8718C57.7831 23.3834 57.4243 23.8204 56.9641 24.1279C56.5038 24.4355 55.9627 24.5996 55.4091 24.5996C54.6667 24.5996 53.955 24.3047 53.43 23.7798C52.9051 23.255 52.6103 22.5432 52.6103 21.8008ZM62.9553 29.4087C62.2028 27.8215 60.9691 26.5122 59.4296 25.6667C60.4299 24.6292 60.9848 23.2419 60.9759 21.8008C61.0158 21.0421 60.9008 20.283 60.6379 19.5701C60.375 18.8571 59.9697 18.2052 59.4468 17.654C58.9238 17.1027 58.294 16.6636 57.5958 16.3636C56.8978 16.0636 56.1458 15.909 55.3859 15.909C54.6261 15.909 53.8741 16.0636 53.1759 16.3636C52.4777 16.6636 51.8481 17.1027 51.3251 17.654C50.8021 18.2052 50.3968 18.8571 50.1338 19.5701C49.8709 20.283 49.756 21.0421 49.7959 21.8008C49.787 23.2419 50.3419 24.6292 51.3423 25.6667C49.7982 26.5138 48.5636 27.8295 47.8166 29.4241C46.6307 27.9908 45.8772 26.2497 45.644 24.4039C45.4108 22.5582 45.7076 20.6841 46.4998 19.0008C47.2918 17.3174 48.5465 15.8943 50.1173 14.8975C51.688 13.9006 53.5101 13.3711 55.3705 13.3711C57.2309 13.3711 59.0528 13.9006 60.6235 14.8975C62.1945 15.8943 63.4492 17.3174 64.2412 19.0008C65.0334 20.6841 65.3301 22.5582 65.0969 24.4039C64.8637 26.2497 64.1102 27.9908 62.9243 29.4241" fill="white"/>
</svg>
