<svg width="81" height="80" viewBox="0 0 81 80" fill="none" xmlns="http://www.w3.org/2000/svg">
<path d="M59.8549 23.7502C61.7002 25.278 62.1962 27.2422 61.6009 31.5081H61.7597L62.0176 31.6669V32.0042C62.0472 32.8472 61.9194 33.6883 61.6406 34.4843C61.4402 35.0355 61.045 35.494 60.5295 35.7738C60.1333 37.0403 59.4549 38.2006 58.5454 39.1669C58.6948 40.0734 59.0182 40.9424 59.4978 41.7262C59.7912 42.0486 60.1621 42.2909 60.5754 42.4298C60.9884 42.5686 61.4303 42.5996 61.8589 42.5198H64.4184C64.9803 42.5288 65.5186 42.7482 65.9263 43.1351C69.1009 46.528 69.716 52.4206 69.7954 55.9524C66.1446 59.504 42.9105 59.3055 38.0493 55.9524C37.7664 51.4157 39.0327 46.9173 41.6406 43.1944C41.8521 42.9288 42.1206 42.7143 42.4263 42.5667C42.7319 42.419 43.067 42.3421 43.4065 42.3415H45.6089C46.3369 42.4325 47.0761 42.33 47.7517 42.0436C48.4623 41.1546 48.9029 40.0805 49.0216 38.9486C48.2134 38.0101 47.6059 36.9161 47.2359 35.7341C46.745 35.4355 46.368 34.9817 46.1644 34.4446C45.8868 33.6553 45.7656 32.8198 45.8073 31.9843V31.6468L46.0652 31.4883L46.3827 31.2897C45.847 27.3214 46.5613 24.8413 48.5454 23.3532C50.242 22.2881 52.2132 21.7432 54.2158 21.7857C56.2186 21.828 58.1652 22.4555 59.8152 23.5913L59.8549 23.7502ZM52.2755 63.8095C52.2755 64.399 52.0414 64.9643 51.6246 65.3809C51.2079 65.7976 50.6426 66.0317 50.0533 66.0317H17.3946C16.8051 66.0317 16.24 65.7976 15.8232 65.3809C15.4065 64.9643 15.1724 64.399 15.1724 63.8095V16.1905C15.1724 15.6011 15.4065 15.0361 15.8232 14.6193C16.24 14.2026 16.8051 13.9683 17.3946 13.9683H50.1327C50.722 13.9683 51.2873 14.2026 51.7041 14.6193C52.1208 15.0361 52.3549 15.6011 52.3549 16.1905V19.6627H56.3232V16.1905C56.3232 14.5487 55.671 12.9741 54.5101 11.8131C53.3492 10.6522 51.7746 10 50.1327 10H17.3946C15.7527 10 14.1781 10.6522 13.0172 11.8131C11.8563 12.9741 11.2041 14.5487 11.2041 16.1905V63.8095C11.2041 65.4514 11.8563 67.026 13.0172 68.1869C14.1781 69.3478 15.7527 70 17.3946 70H50.1327C50.9456 70 51.7505 69.8401 52.5017 69.529C53.2527 69.2179 53.9351 68.7617 54.5101 68.1869C55.0849 67.6121 55.5408 66.9296 55.8519 66.1786C56.163 65.4274 56.3232 64.6224 56.3232 63.8095V60.4764H52.3549L52.2755 63.8095ZM18.7438 22.6786H42.7914C43.0529 22.6736 43.3023 22.5674 43.4872 22.3823C43.6722 22.1974 43.7783 21.948 43.7835 21.6865C43.7835 21.4234 43.6789 21.1712 43.493 20.9851C43.3069 20.799 43.0545 20.6944 42.7914 20.6944H18.7835C18.5204 20.6944 18.268 20.799 18.0819 20.9851C17.896 21.1712 17.7914 21.4234 17.7914 21.6865C17.7966 21.948 17.9025 22.1974 18.0876 22.3823C18.2726 22.5674 18.522 22.6736 18.7835 22.6786H18.7438ZM18.7835 31.0714H42.8311C43.0942 31.0714 43.3466 30.9671 43.5325 30.7809C43.7186 30.595 43.8232 30.3424 43.8232 30.0794C43.818 29.8178 43.7118 29.5684 43.5269 29.3835C43.342 29.1986 43.0926 29.0924 42.8311 29.0873H18.7835C18.522 29.0924 18.2726 29.1986 18.0876 29.3835C17.9025 29.5684 17.7966 29.8178 17.7914 30.0794C17.7914 30.3424 17.896 30.595 18.0819 30.7809C18.268 30.9671 18.5204 31.0714 18.7835 31.0714ZM43.8232 38.1153C43.818 37.8538 43.7118 37.6044 43.5269 37.4194C43.342 37.2343 43.0926 37.1282 42.8311 37.1232H18.7835C18.522 37.1282 18.2726 37.2343 18.0876 37.4194C17.9025 37.6044 17.7966 37.8538 17.7914 38.1153C17.7914 38.3784 17.896 38.6305 18.0819 38.8167C18.268 39.0026 18.5204 39.1073 18.7835 39.1073H42.8311C43.0942 39.1073 43.3466 39.0026 43.5325 38.8167C43.7186 38.6305 43.8232 38.3784 43.8232 38.1153ZM18.7835 44.8415C18.5204 44.8415 18.268 44.9458 18.0819 45.1317C17.896 45.3178 17.7914 45.5704 17.7914 45.8335C17.7966 46.095 17.9025 46.3444 18.0876 46.5294C18.2726 46.7143 18.522 46.8204 18.7835 46.8256H32.097C32.3601 46.8256 32.6124 46.721 32.7984 46.5349C32.9845 46.3488 33.089 46.0966 33.089 45.8335C33.089 45.5704 32.9845 45.3178 32.7984 45.1317C32.6124 44.9458 32.3601 44.8415 32.097 44.8415H18.7835Z" fill="white"/>
</svg>
