<svg width="81" height="80" viewBox="0 0 81 80" fill="none" xmlns="http://www.w3.org/2000/svg">
<path d="M45.2973 41.5425C45.0692 41.5295 44.85 41.4498 44.6665 41.3136C44.4832 41.1774 44.3439 40.9904 44.2655 40.7758C44.1871 40.5613 44.1733 40.3285 44.2256 40.1063C44.278 39.8839 44.3943 39.6818 44.5603 39.5249C44.7262 39.3679 44.9346 39.2629 45.1595 39.223C45.3842 39.1831 45.616 39.2098 45.8259 39.2999C46.0357 39.3901 46.2145 39.5396 46.3404 39.7303C46.4662 39.921 46.5334 40.1442 46.5339 40.3726C46.5295 40.5307 46.4941 40.6863 46.4296 40.8305C46.3651 40.9749 46.2727 41.1052 46.1579 41.2138C46.0431 41.3224 45.9081 41.4073 45.7604 41.4636C45.6126 41.5201 45.4552 41.5468 45.2973 41.5425ZM36.7084 40.3726C36.7218 40.1257 36.6608 39.8804 36.5333 39.6685C36.4058 39.4566 36.2177 39.2878 35.9932 39.1839C35.7688 39.08 35.5183 39.0457 35.2742 39.0855C35.0301 39.1254 34.8037 39.2377 34.6239 39.4076C34.4442 39.5776 34.3196 39.7975 34.2663 40.0389C34.2128 40.2804 34.2332 40.5324 34.3244 40.7621C34.4158 40.9921 34.5739 41.1894 34.7784 41.3284C34.983 41.4675 35.2246 41.5422 35.4719 41.5425C35.6298 41.5468 35.7872 41.5201 35.9349 41.4636C36.0826 41.4073 36.2177 41.3224 36.3325 41.2138C36.4472 41.1052 36.5397 40.9749 36.6042 40.8305C36.6687 40.6863 36.7041 40.5307 36.7084 40.3726ZM40.3846 45.0683C45.2138 45.0683 48.9901 47.6583 48.9901 50.9502C48.9901 54.242 45.2138 56.8154 40.3846 56.8154C35.5554 56.8154 31.779 54.242 31.779 50.9502C31.779 47.6583 35.5721 45.0683 40.3846 45.0683ZM34.3022 50.8999C34.3022 52.8048 37.1262 54.4257 40.4515 54.4257C43.7767 54.4257 46.6007 52.7547 46.6007 50.8999C46.6007 49.0451 43.7767 47.3743 40.4515 47.3743C37.1262 47.3743 34.3022 49.0451 34.3022 50.8999ZM55.9416 58.6535C55.7126 58.6632 55.4916 58.74 55.3059 58.8744C55.1203 59.0087 54.9781 59.1947 54.8972 59.4091C54.8163 59.6235 54.8003 59.8569 54.8509 60.0805C54.9015 60.3039 55.0167 60.5076 55.1821 60.6662C55.3475 60.8249 55.5559 60.9314 55.7813 60.9726C56.0067 61.0139 56.2392 60.988 56.45 60.8981C56.6609 60.8084 56.8407 60.6585 56.967 60.4673C57.0935 60.2763 57.161 60.0523 57.1614 59.823C57.1525 59.5068 57.0197 59.2069 56.7914 58.988C56.5632 58.7689 56.2577 58.649 55.9416 58.6535ZM61.3389 32.1012C61.3338 34.5161 60.4689 36.85 58.899 38.6849C60.4669 41.7372 61.3023 45.1126 61.3389 48.5438C61.3404 51.0078 60.8813 53.4505 59.9854 55.7459C59.9215 55.9012 59.8273 56.042 59.7081 56.1602C59.5888 56.2783 59.4471 56.3714 59.2912 56.4337C59.1353 56.4961 58.9686 56.5265 58.8008 56.5231C58.633 56.5198 58.4676 56.4829 58.3144 56.4143C58.1663 56.3657 58.0298 56.2875 57.9128 56.1846C57.7959 56.0818 57.7008 55.9563 57.6336 55.8158C57.5664 55.6753 57.5285 55.5225 57.522 55.367C57.5155 55.2112 57.5405 55.056 57.5958 54.9104C58.3924 52.8824 58.8005 50.7226 58.7988 48.5438C58.7523 45.2184 57.8796 41.9569 56.259 39.0527C56.1461 38.8347 56.1046 38.5863 56.1407 38.3434C56.1767 38.1006 56.2883 37.875 56.4596 37.6991C57.9437 36.2124 58.7839 34.202 58.7988 32.1012V30.915H57.5791C55.731 30.9203 53.931 31.5047 52.4323 32.586C52.2151 32.7553 51.9475 32.8473 51.6722 32.8473C51.3966 32.8473 51.1291 32.7553 50.9119 32.586C50.0309 31.8786 49.0918 31.2468 48.1046 30.6978C45.8845 32.3997 43.1651 33.3221 40.3679 33.3221C37.5705 33.3221 34.8511 32.3997 32.6312 30.6978C31.6438 31.2468 30.7047 31.8786 29.8239 32.586C29.6067 32.7553 29.339 32.8473 29.0636 32.8473C28.7881 32.8473 28.5204 32.7553 28.3032 32.586C26.8106 31.5048 25.0163 30.9203 23.1734 30.915H21.9367V32.1012C21.9517 34.202 22.7921 36.2124 24.2762 37.6991C24.452 37.8723 24.5668 38.0981 24.6031 38.3422C24.6392 38.5865 24.5949 38.836 24.4768 39.0527C22.8599 41.9584 21.9873 45.219 21.9367 48.5438C21.8685 52.3702 23.1996 56.0898 25.6799 59.0042C27.7855 61.4048 29.0523 64.4256 29.2892 67.6098H34.3022V65.9388C34.305 65.7599 34.348 65.5837 34.4277 65.4235C34.5074 65.2631 34.6219 65.1227 34.7627 65.0123C34.9036 64.9018 35.0673 64.8239 35.2421 64.7848C35.4167 64.7456 35.5981 64.7462 35.7727 64.786C38.8648 65.3652 42.0379 65.3652 45.1301 64.786C45.3047 64.7462 45.486 64.7456 45.6608 64.7848C45.8354 64.8239 45.9991 64.9018 46.14 65.0123C46.2809 65.1227 46.3953 65.2631 46.475 65.4235C46.5548 65.5837 46.5977 65.7599 46.6007 65.9388V67.6098H51.6137C51.7159 66.4752 51.94 65.3547 52.2821 64.2678C52.3855 63.9619 52.6031 63.7076 52.8897 63.558C53.1761 63.4086 53.5091 63.3757 53.8194 63.4659C53.9711 63.5062 54.1133 63.5767 54.2373 63.6731C54.3613 63.7695 54.4646 63.89 54.5409 64.0272C54.6173 64.1644 54.6653 64.3156 54.682 64.4719C54.6987 64.6281 54.6838 64.786 54.638 64.9364C54.2407 66.1965 54.0324 67.5084 54.0199 68.8297C54.0156 68.9877 53.9801 69.1433 53.9156 69.2877C53.8511 69.4319 53.7589 69.5622 53.6439 69.6708C53.5291 69.7796 53.394 69.8643 53.2464 69.9208C53.0987 69.9771 52.9413 70.004 52.7834 69.9995H45.4143C45.098 70.004 44.7927 69.8837 44.5644 69.6648C44.3362 69.4459 44.2032 69.1458 44.1943 68.8297V67.4093C42.9693 67.5617 41.7361 67.6399 40.5016 67.6434C39.2726 67.6404 38.0449 67.5622 36.8254 67.4093V68.8297C36.8211 68.9877 36.7856 69.1433 36.7211 69.2877C36.6566 69.4319 36.5642 69.5622 36.4494 69.6708C36.3346 69.7796 36.1996 69.8643 36.0519 69.9208C35.9042 69.9771 35.7468 70.004 35.5889 69.9995H28.2198C28.0617 70.004 27.9043 69.9771 27.7568 69.9208C27.609 69.8643 27.474 69.7796 27.3591 69.6708C27.2443 69.5622 27.1519 69.4319 27.0873 69.2877C27.0228 69.1433 26.9876 68.9877 26.9832 68.8297C26.9819 65.8332 25.9227 62.9334 23.9922 60.6418C21.0893 57.3142 19.5288 53.0256 19.6142 48.6106C19.6506 45.1796 20.4859 41.804 22.0537 38.7518C20.4903 36.9132 19.6264 34.5816 19.6142 32.1682V29.812C19.6185 29.6541 19.6539 29.4985 19.7184 29.3541C19.7829 29.2097 19.8752 29.0797 19.99 28.9711C20.1048 28.8623 20.24 28.7773 20.3877 28.721C20.5354 28.6647 20.6926 28.6379 20.8507 28.6424H23.3069C25.356 28.66 27.3612 29.2378 29.1054 30.3134C29.707 29.8623 30.3419 29.4445 30.9769 29.0602C29.206 26.9995 28.2283 24.3746 28.2198 21.6575C28.3839 18.5111 29.7496 15.5476 32.0348 13.3785C34.3201 11.2094 37.3508 10 40.5016 10C43.6524 10 46.6831 11.2094 48.9683 13.3785C51.2536 15.5476 52.6191 18.5111 52.7834 21.6575C52.7735 24.3714 51.8027 26.9942 50.0428 29.0602C50.6778 29.439 51.2962 29.8567 51.8978 30.3134C53.6488 29.2396 55.6588 28.662 57.7128 28.6424H60.169C60.4853 28.6379 60.7906 28.7581 61.019 28.977C61.2473 29.1959 61.3801 29.4958 61.389 29.812L61.3389 32.1012ZM50.2769 21.524C50.367 19.5599 49.8668 17.614 48.8408 15.9368C47.8149 14.2596 46.3101 12.9281 44.5205 12.114C42.7309 11.2999 40.7384 11.0405 38.8 11.3691C36.8615 11.6977 35.0658 12.5993 33.6447 13.9578C32.2233 15.3163 31.2414 17.0692 30.8257 18.9908C30.4098 20.9124 30.5789 22.9144 31.3113 24.7392C32.0437 26.5637 33.3058 28.1271 34.9348 29.2278C36.5639 30.3286 38.4854 30.9162 40.4515 30.915C42.9985 30.9688 45.4631 30.0103 47.305 28.2499C49.1468 26.4897 50.2154 24.0709 50.2769 21.524ZM42.4399 17.8142L36.5747 23.4289C36.4451 23.5479 36.3415 23.6923 36.2708 23.8534C36.1999 24.0145 36.1633 24.1886 36.1633 24.3645C36.1633 24.5405 36.1999 24.7146 36.2708 24.8757C36.3415 25.0368 36.4451 25.1815 36.5747 25.3004C36.8386 25.5508 37.1885 25.6903 37.5523 25.6903C37.9161 25.6903 38.266 25.5508 38.5298 25.3004L44.3948 19.6857C44.5245 19.5668 44.6281 19.4224 44.6989 19.2612C44.7698 19.1002 44.8064 18.926 44.8064 18.7501C44.8064 18.5741 44.7698 18.4 44.6989 18.2389C44.6281 18.0778 44.5245 17.9332 44.3948 17.8142C44.131 17.5639 43.7812 17.4244 43.4175 17.4244C43.0537 17.4244 42.7038 17.5639 42.4399 17.8142ZM38.4461 19.6024C38.5754 19.4849 38.6787 19.3417 38.7494 19.1819C38.8201 19.0222 38.8565 18.8494 38.8565 18.6748C38.8565 18.5002 38.8201 18.3274 38.7494 18.1677C38.6787 18.008 38.5754 17.865 38.4461 17.7475C38.1851 17.4983 37.838 17.3592 37.4771 17.3592C37.1161 17.3592 36.7689 17.4983 36.5079 17.7475C36.3786 17.865 36.2755 18.008 36.2048 18.1677C36.1341 18.3274 36.0975 18.5002 36.0975 18.6748C36.0975 18.8494 36.1341 19.0222 36.2048 19.1819C36.2755 19.3417 36.3786 19.4849 36.5079 19.6024C36.7689 19.8515 37.1161 19.9907 37.4771 19.9907C37.838 19.9907 38.1851 19.8515 38.4461 19.6024ZM42.3898 23.3621C42.2623 23.4822 42.1607 23.6273 42.0914 23.7882C42.022 23.9491 41.9863 24.1224 41.9863 24.2977C41.9863 24.473 42.022 24.6463 42.0914 24.8072C42.1607 24.9681 42.2623 25.1133 42.3898 25.2336C42.6537 25.4839 43.0036 25.6233 43.3673 25.6233C43.7309 25.6233 44.0808 25.4839 44.3449 25.2336C44.4722 25.1133 44.5738 24.9681 44.6431 24.8072C44.7125 24.6463 44.7484 24.473 44.7484 24.2977C44.7484 24.1224 44.7125 23.9491 44.6431 23.7882C44.5738 23.6273 44.4722 23.4822 44.3449 23.3621C44.0808 23.1116 43.7309 22.9721 43.3673 22.9721C43.0036 22.9721 42.6537 23.1116 42.3898 23.3621Z" fill="white"/>
</svg>
