<svg width="81" height="80" viewBox="0 0 81 80" fill="none" xmlns="http://www.w3.org/2000/svg">
<path d="M68.6724 48.8164H56.5586V43.2833C56.5586 42.6528 56.682 42.0286 56.9217 41.4463C57.1614 40.8638 57.5128 40.3347 57.9556 39.8889C58.3985 39.4431 58.9242 39.0894 59.503 38.8483C60.0816 38.607 60.7018 38.483 61.3281 38.483C61.9544 38.483 62.5747 38.607 63.1532 38.8483C63.732 39.0894 64.2577 39.4431 64.7006 39.8889C65.1435 40.3347 65.4949 40.8638 65.7345 41.4463C65.9742 42.0286 66.0976 42.6528 66.0976 43.2833V45.4995C66.0976 45.7934 66.2136 46.0752 66.42 46.2831C66.6264 46.4908 66.9065 46.6076 67.1985 46.6076C67.4906 46.6076 67.7706 46.4908 67.9771 46.2831C68.1835 46.0752 68.2995 45.7934 68.2995 45.4995V43.2833C68.2727 41.4403 67.5266 39.6818 66.2223 38.3881C64.9179 37.0942 63.1602 36.369 61.3288 36.369C59.4975 36.369 57.7398 37.0942 56.4354 38.3881C55.1311 39.6818 54.3848 41.4403 54.3582 43.2833V48.8164H53.9912C53.7503 48.8164 53.5116 48.8643 53.2889 48.957C53.0663 49.0498 52.8641 49.186 52.6936 49.3574C52.5232 49.529 52.3881 49.7325 52.2958 49.9566C52.2037 50.1807 52.1562 50.4208 52.1562 50.6633V62.4774C52.1562 62.72 52.2037 62.96 52.2958 63.1841C52.3881 63.4083 52.5232 63.6119 52.6936 63.7833C52.8641 63.9549 53.0663 64.091 53.2889 64.1837C53.5116 64.2766 53.7503 64.3243 53.9912 64.3243H68.6666C68.9074 64.3243 69.1459 64.2766 69.3684 64.1837C69.5911 64.091 69.7933 63.9549 69.9636 63.7833C70.1338 63.6118 70.2688 63.4081 70.3609 63.1841C70.453 62.96 70.5002 62.7199 70.5 62.4774V50.6633C70.5003 50.1747 70.3082 49.7059 69.9657 49.3597C69.623 49.0134 69.1579 48.818 68.6724 48.8164ZM62.4321 57.0116V60.2626H60.2316V57.0116C59.8121 56.7679 59.4842 56.3915 59.2988 55.941C59.1135 55.4905 59.0809 54.9912 59.2064 54.5203C59.3317 54.0494 59.6079 53.6333 59.9922 53.3364C60.3765 53.0396 60.8475 52.8787 61.3318 52.8787C61.8162 52.8787 62.2871 53.0396 62.6713 53.3364C63.0556 53.6333 63.3319 54.0494 63.4573 54.5203C63.5827 54.9912 63.5502 55.4905 63.3649 55.941C63.1793 56.3915 62.8516 56.7679 62.4321 57.0116ZM16.5204 36.2936C16.201 36.2936 15.8945 36.4212 15.6684 36.6487C15.4424 36.8761 15.3156 37.1847 15.3156 37.5064V44.7787C15.3156 45.1003 15.4424 45.4089 15.6684 45.6363C15.8945 45.8638 16.201 45.9915 16.5204 45.9915H38.2044C38.3627 45.9915 38.5193 45.9601 38.6656 45.8991C38.8117 45.8383 38.9445 45.749 39.0564 45.6363C39.1683 45.5237 39.2572 45.3899 39.3177 45.2428C39.3783 45.0958 39.4095 44.938 39.4095 44.7787V37.505C39.4095 37.3455 39.3783 37.1879 39.3177 37.0407C39.2572 36.8936 39.1683 36.7598 39.0564 36.6473C38.9445 36.5346 38.8117 36.4454 38.6656 36.3844C38.5193 36.3234 38.3627 36.292 38.2044 36.292L16.5204 36.2936ZM36.9994 43.5674H17.7284V38.7176H37.0023L36.9994 43.5674ZM44.2279 39.9304H41.8179V37.5064H44.2265L44.2279 39.9304ZM46.6364 39.9304V37.5064H49.0464V39.9304H46.6364ZM41.8179 42.356H44.2265V44.7787H41.8164L41.8179 42.356ZM49.0464 52.0556H16.5235C15.5651 52.0556 14.646 51.6724 13.9683 50.9904C13.2907 50.3083 12.91 49.3832 12.91 48.4186V33.8618H65.9192V36.2876C65.9136 36.4503 65.9405 36.6126 65.9985 36.7645C66.0564 36.9166 66.1442 37.0554 66.2565 37.1725C66.3689 37.2898 66.5037 37.3828 66.6525 37.4464C66.8016 37.5101 66.9616 37.5429 67.1235 37.5429C67.2853 37.5429 67.4455 37.5101 67.5944 37.4464C67.7434 37.3828 67.878 37.2898 67.9904 37.1725C68.1028 37.0554 68.1905 36.9166 68.2485 36.7645C68.3064 36.6126 68.3335 36.4503 68.3278 36.2876V21.7383C68.3278 20.1304 67.6931 18.5884 66.5635 17.4514C65.4339 16.3145 63.9018 15.6757 62.3043 15.6757H16.5235C14.9259 15.6757 13.3938 16.3145 12.2642 17.4514C11.1346 18.5884 10.5 20.1304 10.5 21.7383V48.4128C10.5004 50.0203 11.1352 51.562 12.2647 52.6986C13.3943 53.8352 14.9262 54.4738 16.5235 54.4738H49.0494C49.3688 54.4738 49.675 54.346 49.9009 54.1188C50.1268 53.8914 50.2536 53.5832 50.2536 53.2618C50.2536 52.9402 50.1268 52.6319 49.9009 52.4047C49.675 52.1774 49.3688 52.0496 49.0494 52.0496L49.0464 52.0556ZM12.907 21.7443C12.9082 20.7799 13.2892 19.8554 13.9665 19.1733C14.6439 18.4913 15.5624 18.1074 16.5204 18.1058H62.2969C63.2552 18.107 64.1741 18.4907 64.8517 19.1728C65.5294 19.8549 65.9106 20.7797 65.9118 21.7443V24.1684H12.91L12.907 21.7443ZM12.907 26.594H65.9192V31.4438H12.91L12.907 26.594Z" fill="white"/>
</svg>
