<svg width="81" height="80" viewBox="0 0 81 80" fill="none" xmlns="http://www.w3.org/2000/svg">
<mask id="mask0_730_19947" style="mask-type:luminance" maskUnits="userSpaceOnUse" x="13" y="10" width="55" height="60">
<path d="M67.3656 10H13.6338V70H67.3656V10Z" fill="white"/>
</mask>
<g mask="url(#mask0_730_19947)">
<path d="M54.1797 47.6942C54.653 47.6997 55.1143 47.8452 55.5053 48.1123C55.8962 48.3793 56.1995 48.7561 56.3768 49.1952C56.5541 49.6341 56.5976 50.1158 56.5019 50.5794C56.406 51.0432 56.1753 51.4681 55.8385 51.801C55.5018 52.1338 55.0742 52.3595 54.6094 52.4498C54.1447 52.5402 53.6635 52.4911 53.2266 52.3087C52.7897 52.1261 52.4165 51.8187 52.1541 51.4245C51.8915 51.0305 51.7514 50.5677 51.7514 50.0942C51.7514 49.7765 51.8144 49.4621 51.9368 49.1692C52.0592 48.8761 52.2385 48.6103 52.4644 48.3871C52.6903 48.1639 52.9581 47.9877 53.2526 47.8687C53.5471 47.7498 53.8622 47.6904 54.1797 47.6942ZM62.5656 49.6142V40.7342C62.5656 39.4612 62.0599 38.2402 61.1597 37.34C60.2594 36.4399 59.0385 35.9342 57.7656 35.9342H23.2338C21.9607 35.9342 20.7399 36.4399 19.8397 37.34C18.9395 38.2402 18.4338 39.4612 18.4338 40.7342V60.4001C18.4338 61.6731 18.9395 62.8939 19.8397 63.7942C20.7399 64.6944 21.9607 65.2001 23.2338 65.2001H57.7656C59.0385 65.2001 60.2594 64.6944 61.1597 63.7942C62.0599 62.8939 62.5656 61.6731 62.5656 60.4001C62.5656 59.7635 62.8184 59.153 63.2685 58.703C63.7185 58.2529 64.329 58.0001 64.9656 58.0001C65.6021 58.0001 66.2126 58.2529 66.6626 58.703C67.1127 59.153 67.3656 59.7635 67.3656 60.4001C67.3619 62.9449 66.3492 65.3846 64.5496 67.1842C62.7501 68.9837 60.3105 69.9963 57.7656 70.0001H23.2338C20.6889 69.9963 18.2492 68.9837 16.4497 67.1842C14.6501 65.3846 13.6375 62.9449 13.6338 60.4001V40.7342C13.6487 38.1965 14.6662 35.7679 16.4646 33.9773C18.2629 32.1869 20.6962 31.1802 23.2338 31.1765H26.0573V24.1177C26.1744 20.3785 27.7422 16.8316 30.4286 14.228C33.115 11.6244 36.7092 10.1685 40.4503 10.1685C44.1913 10.1685 47.7855 11.6244 50.472 14.228C53.1584 16.8316 54.726 20.3785 54.8432 24.1177V31.1765H57.6667C60.2117 31.1802 62.6512 32.1929 64.4508 33.9924C66.2504 35.792 67.2631 38.2315 67.2667 40.7765V49.6565C67.2667 50.2931 67.0139 50.9035 66.5638 51.3536C66.1137 51.8037 65.5033 52.0565 64.8667 52.0565C64.2302 52.0565 63.6197 51.8037 63.1696 51.3536C62.7196 50.9035 62.4667 50.2931 62.4667 49.6565L62.5656 49.6142ZM50.0856 24.1177C50.069 22.8725 49.8064 21.6429 49.3129 20.4996C48.8193 19.3563 48.1046 18.3219 47.2098 17.456C46.3149 16.59 45.2576 15.9095 44.0987 15.4537C42.9399 14.9979 41.7024 14.7757 40.4573 14.8C37.956 14.7736 35.5458 15.7392 33.7547 17.4854C31.9634 19.2317 30.9368 21.6164 30.8997 24.1177V31.1765H50.0856V24.1177ZM33.6667 50.0942C33.6667 50.5688 33.8075 51.0329 34.0712 51.4276C34.3349 51.8222 34.7097 52.1298 35.1482 52.3115C35.5869 52.4932 36.0694 52.5406 36.535 52.448C37.0005 52.3554 37.4281 52.1268 37.7638 51.7913C38.0994 51.4555 38.328 51.0279 38.4206 50.5623C38.5132 50.0969 38.4657 49.6143 38.284 49.1757C38.1024 48.7372 37.7947 48.3624 37.4001 48.0986C37.0054 47.8349 36.5414 47.6942 36.0667 47.6942C35.4302 47.6942 34.8197 47.947 34.3696 48.3971C33.9196 48.8472 33.6667 49.4576 33.6667 50.0942ZM24.6738 50.0942C24.6738 50.5688 24.8145 51.0329 25.0783 51.4276C25.342 51.8222 25.7168 52.1298 26.1554 52.3115C26.5939 52.4932 27.0765 52.5406 27.542 52.448C28.0075 52.3554 28.4352 52.1268 28.7709 51.7913C29.1064 51.4555 29.335 51.0279 29.4276 50.5623C29.5202 50.0969 29.4728 49.6143 29.2911 49.1757C29.1094 48.7372 28.8018 48.3624 28.4072 48.0986C28.0125 47.8349 27.5485 47.6942 27.0738 47.6942C26.4373 47.6942 25.8268 47.947 25.3767 48.3971C24.9267 48.8472 24.6738 49.4576 24.6738 50.0942ZM42.6597 50.0942C42.6597 50.5688 42.8004 51.0329 43.0641 51.4276C43.3279 51.8222 43.7027 52.1298 44.1412 52.3115C44.5798 52.4932 45.0624 52.5406 45.528 52.448C45.9934 52.3554 46.421 52.1268 46.7568 51.7913C47.0923 51.4555 47.3209 51.0279 47.4135 50.5623C47.5061 50.0969 47.4587 49.6143 47.277 49.1757C47.0953 48.7372 46.7877 48.3624 46.3931 48.0986C45.9984 47.8349 45.5343 47.6942 45.0597 47.6942C44.4231 47.6942 43.8127 47.947 43.3626 48.3971C42.9125 48.8472 42.6597 49.4576 42.6597 50.0942Z" fill="white"/>
</g>
</svg>
