<svg width="80" height="80" viewBox="0 0 80 80" fill="none" xmlns="http://www.w3.org/2000/svg">
<mask id="mask0_730_19953" style="mask-type:luminance" maskUnits="userSpaceOnUse" x="10" y="21" width="60" height="38">
<path d="M70 21.2182H10V58.7818H70V21.2182Z" fill="white"/>
</mask>
<g mask="url(#mask0_730_19953)">
<path d="M15.4216 39.6653C15.1351 39.6688 14.8613 39.7842 14.6587 39.9868C14.4561 40.1894 14.3408 40.4632 14.3373 40.7497V47.2691C14.3373 47.5566 14.4515 47.8324 14.6549 48.0359C14.8582 48.2392 15.134 48.3534 15.4216 48.3534H34.9665C35.2541 48.3534 35.5299 48.2392 35.7332 48.0359C35.9365 47.8324 36.0507 47.5566 36.0507 47.2691V40.7497C36.0507 40.4621 35.9365 40.1862 35.7332 39.9829C35.5299 39.7795 35.2541 39.6653 34.9665 39.6653H15.4216ZM33.8822 46.1848H16.4792V41.834H33.8822V46.1848ZM40.3882 42.9317H38.2195V40.7497H40.3882V42.9317ZM42.5569 42.9317V40.7497H44.7256V42.9317H42.5569ZM38.2195 45.1004H40.3882V47.2691H38.2195V45.1004ZM44.7256 53.7751H15.4216C14.5589 53.7751 13.7314 53.4324 13.1214 52.8224C12.5113 52.2122 12.1686 51.3849 12.1686 50.5221V37.4967H59.9329V39.6653C59.9329 39.8078 59.961 39.9487 60.0155 40.0803C60.07 40.2118 60.1499 40.3313 60.2506 40.4321C60.3513 40.5328 60.4708 40.6126 60.6024 40.6671C60.734 40.7216 60.875 40.7497 61.0174 40.7497C61.1597 40.7497 61.3008 40.7216 61.4323 40.6671C61.5639 40.6126 61.6834 40.5328 61.7841 40.4321C61.8847 40.3313 61.9647 40.2118 62.0191 40.0803C62.0736 39.9487 62.1016 39.8078 62.1016 39.6653V26.6399C62.0841 25.2113 61.5032 23.8474 60.4854 22.8447C59.4677 21.842 58.0953 21.2815 56.6667 21.2851H15.4216C14.7128 21.2763 14.0093 21.4082 13.3519 21.6734C12.6945 21.9385 12.0962 22.3315 11.5919 22.8297C11.0876 23.3278 10.6871 23.9211 10.4138 24.5751C10.1406 25.2292 9.99988 25.931 9.99994 26.6399V50.5221C9.99095 51.2366 10.125 51.9457 10.3943 52.6075C10.6636 53.2694 11.0626 53.8706 11.5679 54.3758C12.0731 54.8811 12.6744 55.2801 13.3362 55.5494C13.9981 55.8186 14.7072 55.9528 15.4216 55.9438H44.7256C45.0131 55.9438 45.2889 55.8296 45.4922 55.6263C45.6956 55.4228 45.8099 55.147 45.8099 54.8594C45.8099 54.5719 45.6956 54.296 45.4922 54.0926C45.2889 53.8893 45.0131 53.7751 44.7256 53.7751ZM12.1686 26.6399C12.1686 25.7771 12.5113 24.9497 13.1214 24.3397C13.7314 23.7296 14.5589 23.3869 15.4216 23.3869H56.6667C57.5307 23.3869 58.3594 23.7292 58.9716 24.3389C59.5838 24.9485 59.9295 25.7759 59.9329 26.6399V28.822H12.1686V26.6399ZM12.1686 30.9906H59.9329V35.328H12.1686V30.9906ZM69.2236 43.4672L54.6854 57.992C54.4367 58.2408 54.1414 58.4384 53.8163 58.5731C53.4913 58.7079 53.143 58.7773 52.7912 58.7773C52.4392 58.7773 52.0909 58.7079 51.7659 58.5731C51.4408 58.4384 51.1455 58.2408 50.8968 57.992L42.8647 49.9599C42.6158 49.7111 42.4183 49.4159 42.2835 49.0909C42.1489 48.7659 42.0795 48.4174 42.0795 48.0656C42.0795 47.7138 42.1489 47.3653 42.2835 47.0403C42.4183 46.7153 42.6158 46.42 42.8647 46.1714C43.3664 45.6727 44.045 45.3928 44.7522 45.3928C45.4596 45.3928 46.1382 45.6727 46.6399 46.1714L50.8835 50.415C51.1321 50.6639 51.4274 50.8615 51.7525 50.9961C52.0775 51.1309 52.4258 51.2003 52.7778 51.2003C53.1296 51.2003 53.4779 51.1309 53.8029 50.9961C54.128 50.8615 54.4233 50.6639 54.6719 50.415L65.3814 39.7055C65.6303 39.4568 65.9256 39.2594 66.2506 39.1248C66.5755 38.9901 66.924 38.9209 67.2758 38.9209C67.6274 38.9209 67.9759 38.9901 68.3008 39.1248C68.6258 39.2594 68.9212 39.4568 69.17 39.7055C69.4187 39.9542 69.6161 40.2495 69.7506 40.5746C69.8853 40.8996 69.9546 41.2479 69.9546 41.5997C69.9546 41.9516 69.8853 42.2999 69.7506 42.6249C69.6161 42.9499 69.4187 43.2453 69.17 43.494L69.2236 43.4672Z" fill="white"/>
</g>
</svg>
