<svg width="80" height="80" viewBox="0 0 80 80" fill="none" xmlns="http://www.w3.org/2000/svg">
<mask id="mask0_730_19959" style="mask-type:luminance" maskUnits="userSpaceOnUse" x="10" y="15" width="60" height="50">
<path d="M70 15.8381H10V64.1619H70V15.8381Z" fill="white"/>
</mask>
<g mask="url(#mask0_730_19959)">
<path d="M68.158 48.757H56.051V43.2458C56.051 41.9811 56.5534 40.7682 57.4477 39.8739C58.342 38.9796 59.5549 38.4772 60.8195 38.4772C62.0841 38.4772 63.2971 38.9796 64.1913 39.8739C65.0856 40.7682 65.588 41.9811 65.588 43.2458V45.4443C65.588 45.5887 65.6164 45.7316 65.6717 45.865C65.7269 45.9984 65.8079 46.1195 65.9099 46.2217C66.0121 46.3237 66.1332 46.4047 66.2666 46.46C66.4 46.5152 66.5429 46.5436 66.6873 46.5436C66.8317 46.5436 66.9746 46.5152 67.108 46.46C67.2414 46.4047 67.3625 46.3237 67.4647 46.2217C67.5667 46.1195 67.6477 45.9984 67.703 45.865C67.7582 45.7316 67.7866 45.5887 67.7866 45.4443V43.2458C67.7866 41.3979 67.0526 39.6258 65.7459 38.3193C64.4394 37.0127 62.6673 36.2787 60.8195 36.2787C58.9717 36.2787 57.1996 37.0127 55.8931 38.3193C54.5864 39.6258 53.8524 41.3979 53.8524 43.2458V48.757H53.4811C53.2361 48.749 52.9922 48.7904 52.7636 48.8787C52.5349 48.9669 52.3265 49.1003 52.1505 49.2707C51.9745 49.4412 51.8345 49.6454 51.739 49.871C51.6435 50.0967 51.5943 50.3392 51.5945 50.5842V62.3198C51.5945 62.8057 51.7865 63.272 52.1286 63.6171C52.4709 63.9622 52.9357 64.158 53.4216 64.1618H68.0985C68.5859 64.158 69.0521 63.9626 69.3967 63.618C69.7414 63.2733 69.9367 62.8072 69.9406 62.3198V50.5842C69.937 50.1084 69.7494 49.6523 69.4171 49.3117C69.0848 48.9711 68.6336 48.7723 68.158 48.757ZM61.9931 56.8976V60.1212H59.7202V56.8976C59.3863 56.7014 59.1091 56.4214 58.9164 56.0854C58.7236 55.7492 58.6218 55.3688 58.6209 54.9813C58.6309 54.6016 58.739 54.2311 58.9348 53.9057C59.1305 53.5802 59.4072 53.311 59.7381 53.1244C60.0687 52.9377 60.4422 52.8398 60.8219 52.8404C61.2017 52.841 61.5749 52.9399 61.905 53.1276C62.2352 53.3152 62.5111 53.5851 62.706 53.911C62.9007 54.2371 63.0078 54.608 63.0167 54.9876C63.0257 55.3673 62.9359 55.7428 62.7566 56.0775C62.5772 56.4122 62.3141 56.6949 61.9931 56.8976ZM16.0163 36.3084C15.6984 36.3123 15.3946 36.4403 15.1698 36.6651C14.9449 36.89 14.8169 37.1938 14.8131 37.5117V44.7461C14.8131 45.0652 14.9398 45.3714 15.1655 45.597C15.3912 45.8227 15.6972 45.9494 16.0163 45.9494H37.7049C38.024 45.9494 38.3301 45.8227 38.5558 45.597C38.7814 45.3714 38.9081 45.0652 38.9081 44.7461V37.5117C38.9081 37.1926 38.7814 36.8864 38.5558 36.6608C38.3301 36.4351 38.024 36.3084 37.7049 36.3084H16.0163ZM36.5016 43.5429H17.1899V38.7149H36.5016V43.5429ZM43.7212 39.933H41.3147V37.5117H43.7212V39.933ZM46.1278 39.933V37.5117H48.5343V39.933H46.1278ZM41.3147 42.3396H43.7212V44.7461H41.3147V42.3396ZM48.5343 51.9657H16.0163C15.059 51.9657 14.1408 51.5854 13.4638 50.9085C12.7869 50.2315 12.4065 49.3133 12.4065 48.3559V33.9019H65.4098V36.3084C65.4098 36.4664 65.4408 36.6229 65.5014 36.7689C65.5619 36.9148 65.6504 37.0474 65.7621 37.1593C65.874 37.271 66.0066 37.3595 66.1525 37.42C66.2985 37.4805 66.455 37.5117 66.613 37.5117C66.7711 37.5117 66.9275 37.4805 67.0735 37.42C67.2194 37.3595 67.3521 37.271 67.4639 37.1593C67.5756 37.0474 67.6642 36.9148 67.7246 36.7689C67.7851 36.6229 67.8163 36.4664 67.8163 36.3084V21.8543C67.7967 20.269 67.1523 18.7555 66.0228 17.6428C64.8934 16.5301 63.3706 15.9082 61.7851 15.9123H16.0163C14.4335 15.9121 12.9144 16.5358 11.7882 17.6481C10.662 18.7603 10.0195 20.2716 10 21.8543V48.3559C10 49.9515 10.6339 51.4819 11.7621 52.6101C12.8904 53.7384 14.4207 54.3723 16.0163 54.3723H48.5343C48.8534 54.3723 49.1595 54.2456 49.3852 54.0199C49.6108 53.7943 49.7376 53.4881 49.7376 53.169C49.7376 52.8499 49.6108 52.5437 49.3852 52.3181C49.1595 52.0924 48.8534 51.9657 48.5343 51.9657ZM12.4065 21.8543C12.4065 20.8969 12.7869 19.9788 13.4638 19.3018C14.1408 18.6248 15.059 18.2445 16.0163 18.2445H61.7851C62.7439 18.2445 63.6635 18.6243 64.3429 19.3009C65.0222 19.9774 65.4059 20.8956 65.4098 21.8543V24.2757H12.4065V21.8543ZM12.4065 26.6822H65.4098V31.4953H12.4065V26.6822Z" fill="white"/>
</g>
</svg>
