<svg width="80" height="80" viewBox="0 0 80 80" fill="none" xmlns="http://www.w3.org/2000/svg">
<path d="M67.8249 48.6514H55.8606V43.2218C55.8606 42.6032 55.9825 41.9907 56.2192 41.4191C56.4559 40.8476 56.8029 40.3284 57.2403 39.891C57.6777 39.4535 58.197 39.1065 58.7685 38.8698C59.34 38.6331 59.9526 38.5113 60.5712 38.5113C61.1898 38.5113 61.8023 38.6331 62.3739 38.8698C62.9454 39.1065 63.4647 39.4535 63.9021 39.891C64.3395 40.3284 64.6865 40.8476 64.9232 41.4191C65.1599 41.9907 65.2818 42.6032 65.2818 43.2218V45.3966C65.2818 45.6849 65.3963 45.9616 65.6003 46.1655C65.8042 46.3694 66.0808 46.484 66.3692 46.484C66.6575 46.484 66.9341 46.3694 67.1381 46.1655C67.342 45.9616 67.4565 45.6849 67.4565 45.3966V43.2218C67.4301 41.4133 66.6932 39.6878 65.4049 38.4182C64.1167 37.1486 62.3806 36.437 60.5719 36.437C58.7632 36.437 57.0272 37.1486 55.7389 38.4182C54.4507 39.6878 53.7137 41.4133 53.6873 43.2218V48.6514H53.3248C53.0868 48.6514 52.8512 48.6983 52.6313 48.7894C52.4114 48.8804 52.2116 49.014 52.0433 49.1823C51.875 49.3506 51.7416 49.5503 51.6505 49.7702C51.5594 49.9901 51.5125 50.2257 51.5125 50.4637V62.0568C51.5125 62.2948 51.5594 62.5304 51.6505 62.7503C51.7416 62.9702 51.875 63.17 52.0433 63.3383C52.2116 63.5066 52.4114 63.64 52.6313 63.7311C52.8512 63.8222 53.0868 63.8691 53.3248 63.8691H67.819C68.0569 63.8691 68.2925 63.8222 68.5123 63.7311C68.7321 63.64 68.9318 63.5065 69.1 63.3382C69.2682 63.1699 69.4015 62.9701 69.4924 62.7502C69.5834 62.5303 69.6301 62.2947 69.6299 62.0568V50.4637C69.6303 49.9842 69.4404 49.5242 69.1021 49.1844C68.7637 48.8447 68.3044 48.653 67.8249 48.6514ZM61.6615 56.6932V59.8834H59.4882V56.6932C59.0739 56.454 58.7501 56.0847 58.567 55.6427C58.3839 55.2007 58.3518 54.7107 58.4756 54.2486C58.5994 53.7864 58.8723 53.378 59.2518 53.0868C59.6314 52.7955 60.0964 52.6377 60.5749 52.6377C61.0533 52.6377 61.5183 52.7955 61.8979 53.0868C62.2775 53.378 62.5503 53.7864 62.6741 54.2486C62.798 54.7107 62.7658 55.2007 62.5827 55.6427C62.3997 56.0847 62.0759 56.454 61.6615 56.6932ZM16.3168 36.3629C16.0011 36.3629 15.6984 36.4882 15.4752 36.7114C15.252 36.9346 15.1267 37.2373 15.1267 37.553V44.6892C15.1267 45.0049 15.252 45.3076 15.4752 45.5308C15.6984 45.754 16.0011 45.8794 16.3168 45.8794H37.733C37.8893 45.8794 38.044 45.8486 38.1884 45.7888C38.3328 45.729 38.464 45.6413 38.5745 45.5308C38.685 45.4203 38.7727 45.2891 38.8325 45.1447C38.8923 45.0003 38.9231 44.8455 38.9231 44.6892V37.5516C38.9231 37.3953 38.8923 37.2405 38.8325 37.0961C38.7727 36.9517 38.685 36.8205 38.5745 36.71C38.464 36.5995 38.3328 36.5118 38.1884 36.452C38.044 36.3922 37.8893 36.3614 37.733 36.3614L16.3168 36.3629ZM36.5429 43.5006H17.5098V38.7416H36.5458L36.5429 43.5006ZM43.6821 39.9317H41.3019V37.553H43.6806L43.6821 39.9317ZM46.0609 39.9317V37.553H48.4411V39.9317H46.0609ZM41.3019 42.312H43.6806V44.6892H41.3004L41.3019 42.312ZM48.4411 51.83H16.3197C15.3732 51.83 14.4654 51.4539 13.7961 50.7846C13.1268 50.1153 12.7508 49.2076 12.7508 48.2611V33.9767H65.1057V36.357C65.1001 36.5167 65.1267 36.6759 65.1839 36.8251C65.2412 36.9743 65.3279 37.1105 65.4389 37.2254C65.5499 37.3404 65.6829 37.4318 65.83 37.4942C65.9771 37.5567 66.1353 37.5889 66.2951 37.5889C66.4549 37.5889 66.613 37.5567 66.7601 37.4942C66.9072 37.4318 67.0402 37.3404 67.1512 37.2254C67.2622 37.1105 67.3489 36.9743 67.4062 36.8251C67.4634 36.6759 67.4901 36.5167 67.4844 36.357V22.08C67.4844 20.5022 66.8577 18.9891 65.742 17.8734C64.6263 16.7577 63.1131 16.1309 61.5353 16.1309H16.3197C14.7419 16.1309 13.2287 16.7577 12.113 17.8734C10.9974 18.9891 10.3706 20.5022 10.3706 22.08V48.2553C10.371 49.8328 10.9979 51.3455 12.1136 52.4609C13.2292 53.5762 14.7421 54.2029 16.3197 54.2029H48.444C48.7595 54.2029 49.062 54.0775 49.2851 53.8545C49.5081 53.6314 49.6334 53.329 49.6334 53.0135C49.6334 52.6981 49.5081 52.3955 49.2851 52.1725C49.062 51.9494 48.7595 51.8241 48.444 51.8241L48.4411 51.83ZM12.7479 22.0859C12.7491 21.1396 13.1254 20.2323 13.7944 19.5631C14.4634 18.8938 15.3705 18.517 16.3168 18.5155H61.528C62.4745 18.5167 63.382 18.8932 64.0513 19.5625C64.7206 20.2319 65.0972 21.1394 65.0983 22.0859V24.4646H12.7508L12.7479 22.0859ZM12.7479 26.8449H65.1057V31.6038H12.7508L12.7479 26.8449Z" fill="white"/>
</svg>
