<svg width="19" height="17" viewBox="0 0 19 17" fill="none" xmlns="http://www.w3.org/2000/svg">
<path fill-rule="evenodd" clip-rule="evenodd" d="M14.2578 2.81486L16.3228 2.72986L16.3378 2.74486C16.5034 2.73096 16.6678 2.78311 16.7951 2.88991C16.9225 2.99666 17.0025 3.14941 17.0178 3.31486L17.0778 4.81486C17.0785 4.85641 17.0708 4.89771 17.0552 4.93621C17.0396 4.97476 17.0164 5.00976 16.987 5.03911C16.9576 5.06851 16.9226 5.09171 16.8841 5.10731C16.8456 5.12291 16.8043 5.13056 16.7628 5.12986H16.4378L16.5928 8.71991C16.5915 8.88611 16.5245 9.04506 16.4065 9.16211C16.2885 9.27916 16.129 9.34491 15.9628 9.34491L8.13276 9.67486C7.96766 9.68871 7.80386 9.63646 7.67726 9.52961C7.55071 9.42271 7.47176 9.26991 7.45776 9.10486L7.30276 5.50991H6.97776C6.89521 5.51551 6.81376 5.48896 6.75036 5.43586C6.68696 5.38271 6.64661 5.30711 6.63776 5.22486L6.57776 3.72486C6.57776 3.55911 6.64361 3.40016 6.76081 3.28296C6.87801 3.16576 7.03701 3.09986 7.20276 3.09986L9.26776 3.01491C9.13466 2.94241 9.00906 2.85701 8.89276 2.75991C8.76401 2.65456 8.65896 2.52321 8.58451 2.37445C8.51006 2.22568 8.46791 2.06286 8.46086 1.89666C8.45376 1.73047 8.48191 1.56465 8.54341 1.41009C8.60491 1.25554 8.69841 1.11576 8.81776 0.999874C9.07461 0.759684 9.40906 0.619534 9.76041 0.604854C10.1118 0.590179 10.4568 0.701929 10.7328 0.919859C11.0128 1.17986 11.8078 2.20986 11.7328 2.91986H11.7778C11.6478 2.21486 12.3528 1.12485 12.6228 0.849849C12.8796 0.609659 13.2141 0.469509 13.5654 0.454834C13.9168 0.440154 14.2618 0.551964 14.5378 0.769894C14.6667 0.875669 14.7718 1.00743 14.8463 1.15661C14.9207 1.30579 14.9629 1.46903 14.97 1.63562C14.9771 1.8022 14.9489 1.96839 14.8873 2.12335C14.8258 2.27831 14.7322 2.41858 14.6128 2.53491C14.5026 2.63811 14.3838 2.73176 14.2578 2.81486ZM9.79776 1.21991C9.60986 1.22099 9.43006 1.29647 9.29776 1.42987H9.30776C9.24601 1.4903 9.19766 1.56306 9.16591 1.64343C9.13416 1.7238 9.11971 1.80997 9.12346 1.8963C9.12721 1.98263 9.14916 2.06718 9.18781 2.14447C9.22646 2.22176 9.28096 2.29009 9.34776 2.34491C9.82241 2.69391 10.3817 2.90971 10.9678 2.96991C11.0093 2.97236 11.0507 2.96371 11.0878 2.94486C11.2328 2.79486 10.7528 1.77488 10.2978 1.38488C10.1579 1.26873 9.97926 1.20981 9.79776 1.21991ZM8.11776 9.07991L11.7078 8.92986L11.5578 5.33991L7.96776 5.48986L8.11776 9.07991ZM7.28776 4.91486L11.5278 4.73986L11.4928 3.55986H10.9928L7.23776 3.71991L7.28776 4.91486ZM13.6203 1.03204C13.4363 1.0394 13.2613 1.11324 13.1278 1.23986L13.1378 1.25488C12.7178 1.67988 12.3228 2.73486 12.4828 2.86986H12.6028C13.1814 2.75911 13.7209 2.49881 14.1678 2.11486C14.2295 2.05443 14.2779 1.98167 14.3096 1.9013C14.3414 1.82094 14.3558 1.73476 14.3521 1.64843C14.3483 1.5621 14.3264 1.47755 14.2877 1.40026C14.2491 1.32298 14.1946 1.2547 14.1278 1.19989C13.9845 1.08433 13.8042 1.02468 13.6203 1.03204ZM12.3678 8.90491L15.9578 8.75486L15.8078 5.15991L12.2178 5.30986L12.3678 8.90491ZM12.2178 4.70991L16.4578 4.53491L16.4228 3.35986L12.6678 3.51491H12.1678L12.2178 4.70991ZM0.6427 15.8548V9.81482C0.644 9.77692 0.6528 9.73967 0.66865 9.70527C0.68445 9.67082 0.707 9.63992 0.73495 9.61432C0.7629 9.58872 0.79565 9.56892 0.8313 9.55612C0.867 9.54332 0.90485 9.53777 0.9427 9.53977H3.9427C3.98055 9.53777 4.0184 9.54332 4.05405 9.55612C4.08975 9.56892 4.1225 9.58872 4.15045 9.61432C4.17835 9.63992 4.20095 9.67082 4.21675 9.70527C4.2326 9.73967 4.2414 9.77692 4.2427 9.81482V10.0898H6.5827C6.8751 10.0897 7.16205 10.1692 7.4127 10.3198L9.7327 11.7398H12.1277C12.3302 11.7359 12.5309 11.779 12.714 11.8658C12.897 11.9525 13.0575 12.0806 13.1827 12.2398C13.2791 12.373 13.3444 12.5262 13.3738 12.688C13.4033 12.8498 13.396 13.0161 13.3527 13.1748L17.0527 12.1098C17.3109 12.0247 17.5895 12.0247 17.8477 12.1098C18.0694 12.1702 18.2659 12.2998 18.4089 12.4797C18.5519 12.6595 18.6338 12.8802 18.6427 13.1098C18.6412 13.3292 18.5722 13.5427 18.4452 13.7216C18.3182 13.9005 18.1393 14.036 17.9327 14.1098L11.3877 16.6498C10.8668 16.8537 10.3121 16.9572 9.7527 16.9548H9.6777C9.22515 16.9557 8.7751 16.8882 8.3427 16.7548L4.2427 15.4198V15.8548C4.2388 15.9308 4.20515 16.0023 4.14905 16.0538C4.0929 16.1052 4.0188 16.1325 3.9427 16.1298H0.9427C0.8666 16.1325 0.7925 16.1052 0.73635 16.0538C0.68025 16.0023 0.6466 15.9308 0.6427 15.8548ZM6.5827 10.6398H4.2427V14.8698L8.5377 16.2698C8.9069 16.3839 9.29125 16.4412 9.6777 16.4398H9.7527C10.2332 16.4417 10.7097 16.3535 11.1577 16.1798L17.6977 13.6398C17.8021 13.6059 17.8925 13.5386 17.9548 13.4482C18.0172 13.3579 18.048 13.2495 18.0427 13.1398C18.0396 13.0243 17.999 12.9128 17.9268 12.8226C17.8545 12.7323 17.7548 12.6681 17.6427 12.6398C17.5145 12.5975 17.3759 12.5975 17.2477 12.6398L12.9227 13.8748C12.8074 13.9741 12.6754 14.052 12.5327 14.1048C12.4691 14.1277 12.4039 14.1462 12.3377 14.1598H12.2927C12.2178 14.165 12.1426 14.165 12.0677 14.1598H7.5677V13.6048H12.0677C12.1224 13.6127 12.178 13.6127 12.2327 13.6048H12.2877L12.3827 13.5648L12.4427 13.5348C12.4763 13.5144 12.5081 13.4909 12.5377 13.4648H12.5627C12.6046 13.4256 12.64 13.3801 12.6677 13.3298L12.7477 13.1798C12.8007 13.0842 12.825 12.9755 12.818 12.8664C12.8109 12.7574 12.7726 12.6527 12.7077 12.5648C12.6422 12.4785 12.5575 12.4087 12.4603 12.361C12.3631 12.3132 12.256 12.2888 12.1477 12.2898H9.6477C9.5896 12.2903 9.5325 12.2747 9.4827 12.2448L7.0827 10.7798C6.9333 10.6853 6.75945 10.6366 6.5827 10.6398ZM3.5227 10.3648H1.3627V15.3198H3.5227V10.3648Z" fill="#8F9BB3"/>
</svg>
