<svg width="21" height="21" viewBox="0 0 21 21" fill="none" xmlns="http://www.w3.org/2000/svg">
<path d="M12.6358 1.90372L12.6361 1.90391L18.396 5.93384C18.396 5.93386 18.396 5.93388 18.3961 5.93391C18.8653 6.26237 19.3095 6.80094 19.637 7.42812C19.9644 8.05533 20.1527 8.72849 20.1527 9.30422V16.0842C20.1527 18.3581 18.3065 20.2042 16.0327 20.2042H5.25269C2.98024 20.2042 1.13269 18.3495 1.13269 16.0742V9.17422C1.13269 8.63978 1.30308 8.00071 1.60127 7.39509C1.89932 6.78974 2.30376 6.2611 2.73021 5.92847L2.73031 5.92839L7.73894 2.01946C7.73916 2.01929 7.73939 2.01911 7.73961 2.01894C9.07645 0.983658 11.2455 0.929637 12.6358 1.90372ZM11.8927 13.7043L11.3927 13.7042H11.8927C11.8927 13.0181 11.3288 12.4542 10.6427 12.4542C9.95655 12.4542 9.39269 13.0181 9.39269 13.7042V16.7042C9.39269 17.3904 9.95655 17.9542 10.6427 17.9542C11.3288 17.9542 11.8927 17.3904 11.8927 16.7042V16.7018V16.6993V16.6968V16.6942V16.6916V16.6889V16.6862V16.6834V16.6806V16.6777V16.6748V16.6719V16.6689V16.6658V16.6627V16.6595V16.6563V16.6531V16.6498V16.6465V16.6431V16.6397V16.6362V16.6327V16.6291V16.6255V16.6219V16.6182V16.6144V16.6107V16.6068V16.603V16.5991V16.5951V16.5911V16.5871V16.583V16.5789V16.5747V16.5705V16.5662V16.5619V16.5576V16.5532V16.5488V16.5444V16.5399V16.5354V16.5308V16.5262V16.5215V16.5168V16.5121V16.5073V16.5025V16.4977V16.4928V16.4879V16.4829V16.4779V16.4729V16.4678V16.4627V16.4576V16.4524V16.4472V16.442V16.4367V16.4314V16.426V16.4206V16.4152V16.4097V16.4042V16.3987V16.3931V16.3875V16.3819V16.3763V16.3706V16.3648V16.3591V16.3533V16.3475V16.3416V16.3357V16.3298V16.3238V16.3179V16.3118V16.3058V16.2997V16.2936V16.2875V16.2813V16.2751V16.2689V16.2626V16.2564V16.25V16.2437V16.2373V16.2309V16.2245V16.2181V16.2116V16.2051V16.1985V16.192V16.1854V16.1788V16.1721V16.1655V16.1588V16.1521V16.1453V16.1386V16.1318V16.1249V16.1181V16.1112V16.1043V16.0974V16.0905V16.0835V16.0765V16.0695V16.0625V16.0555V16.0484V16.0413V16.0342V16.027V16.0199V16.0127V16.0055V15.9982V15.991V15.9837V15.9764V15.9691V15.9618V15.9544V15.9471V15.9397V15.9323V15.9249V15.9174V15.91V15.9025V15.895V15.8875V15.8799V15.8724V15.8648V15.8572V15.8496V15.842V15.8344V15.8267V15.8191V15.8114V15.8037V15.796V15.7883V15.7805V15.7728V15.765V15.7572V15.7494V15.7416V15.7338V15.726V15.7181V15.7102V15.7024V15.6945V15.6866V15.6787V15.6707V15.6628V15.6549V15.6469V15.6389V15.631V15.623V15.615V15.607V15.5989V15.5909V15.5829V15.5748V15.5668V15.5587V15.5506V15.5426V15.5345V15.5264V15.5183V15.5101V15.502V15.4939V15.4858V15.4776V15.4695V15.4613V15.4532V15.445V15.4368V15.4286V15.4205V15.4123V15.4041V15.3959V15.3877V15.3795V15.3713V15.3631V15.3549V15.3466V15.3384V15.3302V15.322V15.3137V15.3055V15.2973V15.289V15.2808V15.2726V15.2643V15.2561V15.2479V15.2396V15.2314V15.2231V15.2149V15.2067V15.1984V15.1902V15.1819V15.1737V15.1655V15.1572V15.149V15.1408V15.1326V15.1243V15.1161V15.1079V15.0997V15.0915V15.0833V15.0751V15.0669V15.0587V15.0505V15.0423V15.0341V15.0259V15.0178V15.0096V15.0014V14.9933V14.9851V14.977V14.9689V14.9607V14.9526V14.9445V14.9364V14.9283V14.9202V14.9121V14.904V14.896V14.8879V14.8799V14.8718V14.8638V14.8558V14.8478V14.8398V14.8318V14.8238V14.8158V14.8079V14.7999V14.792V14.7841V14.7762V14.7683V14.7604V14.7525V14.7446V14.7368V14.729V14.7211V14.7133V14.7055V14.6977V14.69V14.6822V14.6745V14.6668V14.6591V14.6514V14.6437V14.636V14.6284V14.6207V14.6131V14.6055V14.5979V14.5904V14.5828V14.5753V14.5678V14.5603V14.5528V14.5453V14.5379V14.5305V14.5231V14.5157V14.5083V14.501V14.4936V14.4863V14.479V14.4718V14.4645V14.4573V14.4501V14.4429V14.4357V14.4286V14.4215V14.4144V14.4073V14.4003V14.3932V14.3862V14.3792V14.3723V14.3653V14.3584V14.3515V14.3447V14.3378V14.331V14.3242V14.3174V14.3107V14.304V14.2973V14.2906V14.284V14.2774V14.2708V14.2642V14.2577V14.2512V14.2447V14.2383V14.2318V14.2254V14.2191V14.2127V14.2064V14.2001V14.1939V14.1877V14.1815V14.1753V14.1692V14.1631V14.157V14.1509V14.1449V14.1389V14.133V14.1271V14.1212V14.1153V14.1095V14.1037V14.0979V14.0922V14.0865V14.0809V14.0752V14.0696V14.0641V14.0585V14.053V14.0476V14.0422V14.0368V14.0314V14.0261V14.0208V14.0156V14.0104V14.0052V14V13.9949V13.9899V13.9848V13.9798V13.9749V13.97V13.9651V13.9602V13.9554V13.9507V13.9459V13.9413V13.9366V13.932V13.9274V13.9229V13.9184V13.9139V13.9095V13.9052V13.9008V13.8965V13.8923V13.8881V13.8839V13.8798V13.8757V13.8717V13.8677V13.8637V13.8598V13.856V13.8521V13.8483V13.8446V13.8409V13.8373V13.8337V13.8301V13.8266V13.8231V13.8197V13.8163V13.813V13.8097V13.8064V13.8033V13.8001V13.797V13.7939V13.7909V13.788V13.7851V13.7822V13.7794V13.7766V13.7739V13.7712V13.7686V13.766V13.7635V13.761V13.7586V13.7562V13.7539V13.7516V13.7494V13.7472V13.7451V13.743V13.741V13.739V13.7371V13.7352V13.7334V13.7316V13.7299V13.7283V13.7267V13.7251V13.7236V13.7222V13.7208V13.7195V13.7182V13.717V13.7158V13.7147V13.7136V13.7126V13.7117V13.7108V13.7099V13.7092V13.7084V13.7078V13.7072V13.7066V13.7061V13.7057V13.7053V13.705V13.7047V13.7045V13.7043V13.7043Z" stroke="#013AA9"/>
</svg>
