<svg width="19" height="18" viewBox="0 0 19 18" fill="none" xmlns="http://www.w3.org/2000/svg">
<path d="M2.90826 11.1318L2.90829 11.1318L2.91122 11.1268C3.06139 10.8703 3.19048 10.5248 3.28178 10.1932C3.37296 9.86197 3.43971 9.49643 3.43971 9.19421V7.33421C3.43971 3.98184 6.16453 1.26383 9.5204 1.25421C12.8635 1.25458 15.5897 3.98009 15.5897 7.33421V9.20421C15.5897 9.50664 15.6565 9.87251 15.7494 10.205C15.8421 10.5367 15.9743 10.8842 16.1319 11.1431C16.1322 11.1436 16.1325 11.144 16.1328 11.1445L17.2599 13.0196C17.2601 13.02 17.2603 13.0203 17.2605 13.0206C17.594 13.5827 17.657 14.2437 17.4318 14.8481C17.2042 15.4489 16.7266 15.9185 16.1006 16.1302C15.0444 16.4822 13.9611 16.7552 12.8704 16.9305L12.8704 16.9304L12.8603 16.9323C12.7464 16.953 12.6585 16.9686 12.5744 16.9763L12.5559 16.978L12.5375 16.981C12.3732 17.0084 12.2067 17.027 12.0245 17.0473L12.0245 17.0471L12.0122 17.0488C11.8064 17.0769 11.5888 17.0959 11.3564 17.1161L11.3564 17.1161L11.3516 17.1165C10.7479 17.175 10.1339 17.2042 9.51972 17.2042C8.89524 17.2042 8.27106 17.1749 7.65712 17.1165L7.65713 17.1164L7.64665 17.1156C7.39006 17.0966 7.1431 17.0681 6.89574 17.03L6.89576 17.0299L6.8858 17.0286C6.73849 17.009 6.59397 16.9897 6.4592 16.9705C6.39673 16.9594 6.33621 16.9512 6.28636 16.9444L6.28227 16.9438C6.2255 16.9361 6.18146 16.93 6.13916 16.9223L6.13916 16.9223L6.13407 16.9214C5.04533 16.735 3.98038 16.4807 2.92783 16.1299L2.92426 16.1287C2.26155 15.9133 1.77267 15.4394 1.55867 14.8608L1.55788 14.8586C1.34828 14.2997 1.41605 13.6278 1.77946 13.0098L2.90826 11.1318ZM9.48971 9.96421C10.1859 9.96421 10.7497 9.40035 10.7497 8.70421V5.60421C10.7497 4.90807 10.1859 4.34421 9.48971 4.34421C8.79357 4.34421 8.22971 4.90807 8.22971 5.60421V8.70421C8.22971 9.40035 8.79357 9.96421 9.48971 9.96421Z" stroke="#8F9BB3"/>
</svg>
