<svg width="26" height="27" viewBox="0 0 26 27" fill="none" xmlns="http://www.w3.org/2000/svg">
<path d="M3.41633 16.2995V13.5001H6.21572V16.2995H3.41633ZM0.616948 13.5001V10.7007H3.41633V13.5001H0.616948ZM13.2142 3.70222V0.902837H16.0136V3.70222H13.2142ZM2.71649 7.20146H6.91557V3.00238H2.71649V7.20146ZM0.616948 7.9013V2.30253C0.616948 1.90595 0.751319 1.57329 1.02006 1.30455C1.2888 1.03581 1.62099 0.901904 2.01664 0.902837H7.61541C8.01199 0.902837 8.34465 1.03721 8.61339 1.30595C8.88214 1.57469 9.01604 1.90688 9.01511 2.30253V7.9013C9.01511 8.29788 8.88074 8.63054 8.61199 8.89928C8.34325 9.16802 8.01106 9.30193 7.61541 9.30099H2.01664C1.62006 9.30099 1.2874 9.16662 1.01866 8.89788C0.749919 8.62914 0.616015 8.29695 0.616948 7.9013ZM2.71649 23.9978H6.91557V19.7987H2.71649V23.9978ZM0.616948 24.6976V19.0988C0.616948 18.7023 0.751319 18.3696 1.02006 18.1009C1.2888 17.8321 1.62099 17.6982 2.01664 17.6992H7.61541C8.01199 17.6992 8.34465 17.8335 8.61339 18.1023C8.88214 18.371 9.01604 18.7032 9.01511 19.0988V24.6976C9.01511 25.0942 8.88074 25.4269 8.61199 25.6956C8.34325 25.9643 8.01106 26.0982 7.61541 26.0973H2.01664C1.62006 26.0973 1.2874 25.9629 1.01866 25.6942C0.749919 25.4255 0.616015 25.0933 0.616948 24.6976ZM19.5128 7.20146H23.7119V3.00238H19.5128V7.20146ZM17.4133 7.9013V2.30253C17.4133 1.90595 17.5476 1.57329 17.8164 1.30455C18.0851 1.03581 18.4173 0.901904 18.813 0.902837H24.4117C24.8083 0.902837 25.141 1.03721 25.4097 1.30595C25.6785 1.57469 25.8124 1.90688 25.8114 2.30253V7.9013C25.8114 8.29788 25.6771 8.63054 25.4083 8.89928C25.1396 9.16802 24.8074 9.30193 24.4117 9.30099H18.813C18.4164 9.30099 18.0837 9.16662 17.815 8.89788C17.5462 8.62914 17.4123 8.29695 17.4133 7.9013ZM9.01511 16.2995V13.5001H6.21572V10.7007H11.8145V16.2995H9.01511ZM10.4148 9.30099V3.70222H13.2142V6.50161H16.0136V9.30099H10.4148ZM3.76626 6.15169V4.05215H5.8658V6.15169H3.76626ZM3.76626 22.948V20.8485H5.8658V22.948H3.76626ZM20.5626 6.15169V4.05215H22.6621V6.15169H20.5626ZM18.813 21.8982H16.0136C15.617 21.8982 15.2843 21.7639 15.0156 21.4951C14.7468 21.2264 14.6129 20.8942 14.6139 20.4985C14.6139 20.102 14.7482 19.7693 15.017 19.5006C15.2857 19.2318 15.6179 19.0979 16.0136 19.0988H18.813V16.2995C18.813 15.9029 18.9473 15.5702 19.2161 15.3015C19.4848 15.0327 19.817 14.8988 20.2127 14.8998C20.6092 14.8998 20.9419 15.0341 21.2106 15.3029C21.4794 15.5716 21.6133 15.9038 21.6123 16.2995V19.0988H24.4117C24.8083 19.0988 25.141 19.2332 25.4097 19.502C25.6785 19.7707 25.8124 20.1029 25.8114 20.4985C25.8114 20.8951 25.6771 21.2278 25.4083 21.4965C25.1396 21.7653 24.8074 21.8992 24.4117 21.8982H21.6123V24.6976C21.6123 25.0942 21.478 25.4269 21.2092 25.6956C20.9405 25.9643 20.6083 26.0982 20.2127 26.0973C19.8161 26.0973 19.4834 25.9629 19.2147 25.6942C18.9459 25.4255 18.812 25.0933 18.813 24.6976V21.8982Z" fill="white"/>
</svg>
