<svg width="19" height="19" viewBox="0 0 19 19" fill="none" xmlns="http://www.w3.org/2000/svg">
<path d="M18.2505 8.33449L16.919 8.18358C16.8554 7.90585 16.7769 7.63175 16.6837 7.36249L17.8066 6.59909L17.7445 6.31948C17.5601 5.56367 17.1626 4.87666 16.5994 4.33998L16.3997 4.13581L15.1436 4.69948C15.046 4.59296 14.9439 4.48644 14.8418 4.38436C14.7397 4.28228 14.6554 4.19795 14.5578 4.11362L15.1436 2.85757L14.9483 2.64897C14.4112 2.08633 13.7244 1.68901 12.9688 1.50388L12.6937 1.42843L11.877 2.53801C11.6137 2.44998 11.3454 2.37737 11.0737 2.32053L10.9627 0.953524L10.7053 0.869195C9.9589 0.651593 9.16591 0.651593 8.41953 0.869195L8.14435 0.944647L7.98901 2.31166C7.72271 2.36935 7.45197 2.44037 7.18567 2.5247L6.38677 1.39292L6.10716 1.45949C5.35251 1.64431 4.66597 2.03991 4.12766 2.60015L3.92793 2.80431L4.4916 4.0648C4.38064 4.16244 4.27412 4.26453 4.17648 4.36661C4.07883 4.46869 3.99007 4.55302 3.9013 4.65066L2.64969 4.06036L2.44109 4.25565C1.87785 4.79233 1.48043 5.47934 1.29599 6.23515L1.22054 6.51477L2.33013 7.33142C2.24216 7.59326 2.16954 7.86002 2.11265 8.13032L0.74564 8.25016L0.661312 8.5209C0.445904 9.26759 0.445904 10.06 0.661312 10.8066L0.736763 11.0863L2.10821 11.2372C2.16259 11.5086 2.23224 11.7769 2.31681 12.0405L1.18504 12.8172L1.25161 13.0968C1.43363 13.8526 1.82966 14.5399 2.39226 15.0763L2.59643 15.2805L3.85692 14.7257C3.95456 14.8367 4.05664 14.9432 4.15872 15.0453L4.44278 15.316L3.85248 16.5543L4.0522 16.7673C4.59011 17.3267 5.27453 17.7236 6.02727 17.9124L6.30688 17.9879L7.12354 16.8783C7.38598 16.9643 7.65263 17.0368 7.92244 17.0958L8.04227 18.4583L8.31745 18.5382C8.68156 18.6482 9.05999 18.7036 9.44035 18.7024C9.83333 18.7009 10.2244 18.6472 10.6032 18.5427L10.8828 18.4672L11.0248 17.1268C11.2962 17.07 11.5643 16.9988 11.8282 16.9138L12.6093 18.0145L12.8889 17.9524C13.6437 17.7678 14.3303 17.3722 14.8684 16.8117L15.0726 16.6076L14.5178 15.3515C14.6288 15.2539 14.7353 15.1518 14.8374 15.0497C14.9395 14.9476 15.0193 14.8633 15.1081 14.7656L16.3508 15.3515L16.5594 15.1518C17.1211 14.6139 17.5183 13.9273 17.7045 13.1723L17.78 12.8971L16.6704 12.0804C16.7569 11.8167 16.8295 11.5485 16.8879 11.2771L18.2505 11.1706L18.3348 10.8998C18.5547 10.1523 18.5547 9.35721 18.3348 8.60966L18.2505 8.33449ZM17.5847 10.3806L16.16 10.496L16.1023 10.82C16.0325 11.2537 15.9179 11.6791 15.7605 12.0893L15.6452 12.3867L16.7947 13.2344C16.6591 13.6405 16.4449 14.016 16.1644 14.3396L14.8684 13.7271L14.6598 13.9801C14.5223 14.1443 14.3802 14.2996 14.216 14.4505C14.0518 14.6014 13.8876 14.7612 13.7145 14.8944L13.4659 15.0985L14.0385 16.4078C13.7209 16.694 13.3477 16.9116 12.9422 17.0469L12.1255 15.8708L11.8149 15.9862C11.4039 16.1402 10.9787 16.2532 10.5455 16.3235L10.2304 16.3768L10.075 17.7882C9.65483 17.8746 9.22143 17.8746 8.80123 17.7882L8.68583 16.3634L8.36183 16.3057C7.9283 16.2348 7.50303 16.1203 7.09247 15.964L6.79066 15.853L5.94738 16.9981C5.54077 16.8636 5.16507 16.6493 4.84223 16.3679L5.45472 15.0719L5.20174 14.8633C5.03752 14.7257 4.87774 14.5837 4.72683 14.4195C4.56962 14.2623 4.42144 14.0963 4.283 13.9224L4.07883 13.6694L2.79172 14.273C2.50662 13.9539 2.28786 13.5812 2.14816 13.1767L3.32432 12.3601L3.20892 12.0538C3.05766 11.6423 2.94619 11.2172 2.87604 10.7844L2.82722 10.4693L1.40695 10.314C1.32495 9.89334 1.32495 9.46082 1.40695 9.04018L2.8361 8.92479L2.88936 8.60079C2.96394 8.16758 3.07986 7.74251 3.23555 7.33142L3.35095 7.03405L2.19254 6.18189C2.32736 5.77635 2.53992 5.40097 2.81835 5.07674L4.11434 5.68923L4.32738 5.43625C4.6063 5.09669 4.91854 4.78593 5.25943 4.50863L5.50354 4.30447L4.93543 2.9996C5.25724 2.71588 5.63106 2.49732 6.03614 2.35604L6.84392 3.5322L7.1546 3.42124C7.56686 3.26651 7.9936 3.1535 8.42841 3.08393L8.74353 3.03511L8.90331 1.61484C9.32083 1.5238 9.75223 1.51626 10.1727 1.59264L10.2881 3.01735L10.6121 3.07061C11.0452 3.14577 11.4702 3.26168 11.8814 3.4168L12.1832 3.5322L13.0265 2.38267C13.4327 2.51829 13.8082 2.73243 14.1317 3.01291L13.5192 4.32666L13.7722 4.53526C13.942 4.66887 14.1035 4.81264 14.256 4.96578C14.4157 5.12556 14.5666 5.28978 14.6998 5.46732L14.8995 5.71143L16.2044 5.14332C16.4922 5.46048 16.7113 5.83371 16.8479 6.23959L15.6673 7.05624L15.7872 7.36249C15.9405 7.77518 16.0535 8.20178 16.1245 8.63629L16.1733 8.95142L17.5891 9.10676C17.6764 9.52659 17.6794 9.95955 17.598 10.3806H17.5847ZM9.49805 3.49669C8.0603 3.49577 6.66672 3.99346 5.55481 4.90494C4.44291 5.81642 3.6815 7.08529 3.40034 8.49528C3.11919 9.90528 3.3357 11.3691 4.01296 12.6374C4.69023 13.9056 5.78634 14.8998 7.11449 15.4504C8.44264 16.001 9.92062 16.0739 11.2965 15.6569C12.6725 15.2398 13.8612 14.3585 14.6601 13.1631C15.459 11.9678 15.8187 10.5324 15.6778 9.10155C15.537 7.67071 14.9043 6.33301 13.8876 5.31641C13.3125 4.73799 12.6285 4.27934 11.875 3.96698C11.1216 3.65463 10.3137 3.49479 9.49805 3.49669ZM13.1686 13.3764C12.3168 14.2235 11.1976 14.749 10.0018 14.8635C8.80602 14.978 7.60751 14.6743 6.61047 14.0043C5.61343 13.3342 4.87953 12.3393 4.53379 11.1888C4.18806 10.0384 4.25188 8.80363 4.71439 7.69497C5.17689 6.5863 6.00947 5.67227 7.07028 5.10859C8.13109 4.54492 9.35452 4.36646 10.5321 4.60362C11.7098 4.84079 12.7688 5.4789 13.5287 6.40926C14.2886 7.33961 14.7025 8.50466 14.6998 9.70593C14.7 10.3886 14.5647 11.0645 14.3019 11.6946C14.039 12.3246 13.6538 12.8963 13.1686 13.3764ZM11.7128 8.9381H8.04227V7.26041C8.04227 6.87902 8.19378 6.51325 8.46346 6.24357C8.73314 5.97389 9.09891 5.82238 9.4803 5.82238C9.86168 5.82238 10.2274 5.97389 10.4971 6.24357C10.7668 6.51325 10.9183 6.87902 10.9183 7.26041V7.92172C10.9183 8.01 10.9534 8.09467 11.0158 8.1571C11.0782 8.21952 11.1629 8.2546 11.2512 8.2546C11.3395 8.2546 11.4241 8.21952 11.4866 8.1571C11.549 8.09467 11.5841 8.01 11.5841 7.92172V7.26041C11.5971 6.9763 11.5524 6.6925 11.4527 6.42615C11.353 6.1598 11.2003 5.91644 11.0039 5.71077C10.8074 5.5051 10.5714 5.34139 10.3099 5.22954C10.0484 5.11769 9.76692 5.06003 9.48252 5.06003C9.19811 5.06003 8.91666 5.11769 8.65517 5.22954C8.39368 5.34139 8.15758 5.5051 7.96115 5.71077C7.76472 5.91644 7.61203 6.1598 7.5123 6.42615C7.41258 6.6925 7.3679 6.9763 7.38096 7.26041V8.92035H7.28776C7.21511 8.91976 7.14307 8.93356 7.07578 8.96096C7.0085 8.98835 6.9473 9.0288 6.89572 9.07996C6.84415 9.13113 6.80321 9.192 6.77528 9.25906C6.74734 9.32612 6.73296 9.39805 6.73296 9.4707V13.0214C6.73296 13.0942 6.74731 13.1664 6.77519 13.2337C6.80307 13.301 6.84394 13.3622 6.89546 13.4137C6.94697 13.4652 7.00813 13.5061 7.07545 13.5339C7.14276 13.5618 7.2149 13.5762 7.28776 13.5762H11.7261C11.8732 13.5762 12.0143 13.5177 12.1184 13.4137C12.2224 13.3096 12.2809 13.1685 12.2809 13.0214V9.4707C12.2809 9.39691 12.2661 9.32386 12.2374 9.25591C12.2086 9.18795 12.1665 9.12647 12.1135 9.07513C12.0605 9.02378 11.9977 8.98362 11.9288 8.95703C11.86 8.93044 11.7865 8.91797 11.7128 8.92035V8.9381ZM8.83674 10.82C8.82802 10.7006 8.85166 10.5811 8.90515 10.474C8.95864 10.3669 9.04001 10.2762 9.1407 10.2115C9.24139 10.1468 9.35766 10.1104 9.47728 10.1062C9.59691 10.1019 9.71545 10.1301 9.82044 10.1875C9.92543 10.245 10.013 10.3298 10.0739 10.4328C10.1348 10.5359 10.1668 10.6534 10.1665 10.7731C10.1662 10.8928 10.1336 11.0102 10.0722 11.113C10.0108 11.2157 9.92288 11.3 9.81761 11.357V12.3334H9.15186V11.357C9.05708 11.2983 8.97856 11.2167 8.92351 11.1198C8.86845 11.0229 8.83861 10.9137 8.83674 10.8022V10.82Z" fill="#8F9BB3"/>
</svg>
